<?xml version="1.0" encoding="UTF-8"?> <svg xmlns="http://www.w3.org/2000/svg" width="195" height="126" viewBox="0 0 195 126" fill="none"> <path d="M165.629 112.253C164.128 112.147 162.622 112.147 161.121 112.253L161.353 114.577C162.762 114.495 164.174 114.495 165.583 114.577C167.256 114.577 168.697 114.577 170.045 114.577C171.377 114.508 172.711 114.508 174.042 114.577L174.182 112.253C172.695 112.253 171.37 112.253 169.952 112.253C168.534 112.253 167.233 112.277 165.629 112.253Z" fill="#E0DFE6"></path> <path d="M176.426 100.262C174.102 100.262 165.596 100.262 162.714 100.262C161.901 100.262 161.134 100.262 160.39 100.262C159.647 100.262 158.066 100.401 156.44 100.262V102.586H157.764C158.903 102.586 159.809 102.586 160.623 102.586C161.436 102.586 162.11 102.586 162.947 102.586C165.875 102.586 174.358 102.586 176.891 102.586L176.426 100.262Z" fill="#E0DFE6"></path> <path d="M179.919 90.5244H175.271C167.293 90.2572 159.306 90.4901 151.357 91.2218L151.682 93.5458C159.516 92.8441 167.386 92.6189 175.248 92.8718H179.896L179.919 90.5244Z" fill="#E0DFE6"></path> <path d="M191.304 80.1357L189.468 81.5766L194.465 88.0375C194.674 87.015 194.86 85.9922 195 84.9464L191.304 80.1357Z" fill="#E0DFE6"></path> <path d="M144.266 49.9224C149.379 49.9224 169.83 50.2941 174.873 50.2941C177.964 50.2941 180.358 50.4338 182.659 50.5732C184.96 50.7127 186.587 50.8056 188.678 50.8056C188.19 49.9921 187.656 49.2252 187.098 48.4815C185.657 48.4815 184.263 48.3651 182.799 48.2721C180.474 48.2721 178.011 47.9933 174.873 47.9933C169.76 47.9933 149.309 47.6216 144.266 47.6216C135.729 47.5603 127.195 47.9559 118.701 48.8069L118.933 51.131C127.35 50.2727 135.806 49.8693 144.266 49.9224Z" fill="#E0DFE6"></path> <path d="M162.966 37.9766C168.009 37.9766 171.937 37.9766 175.47 37.9766C174.318 37.3155 173.131 36.718 171.914 36.187L170.473 35.5595H162.966C144.234 35.5595 127.547 36.001 111.837 36.9306L111.976 39.2546C127.617 38.418 144.281 37.9766 162.966 37.9766Z" fill="#E0DFE6"></path> <path d="M192.51 58.6386C187.653 59.057 182.354 59.2662 176.242 59.2662C169.781 59.2662 163.204 59.0336 156.813 58.8245C150.421 58.6153 143.867 58.383 137.43 58.383C133.874 58.383 130.667 58.3829 127.576 58.5921V60.9162H128.552C131.318 60.9162 134.199 60.7533 137.36 60.7533C143.751 60.7533 150.305 60.9626 156.673 61.195C163.041 61.4274 169.688 61.6365 176.172 61.6365C182.656 61.6365 188.048 61.4275 193.137 60.9627C193.044 60.1493 192.696 59.3823 192.51 58.6386Z" fill="#E0DFE6"></path> <path d="M185.545 71.3051H134.555V73.6292H185.545V71.3051Z" fill="#E0DFE6"></path> <path d="M187.393 95.6835L185.534 97.1012C186.37 98.1702 187.858 99.8902 189.554 101.959C189.949 101.192 190.321 100.448 190.67 99.6346C189.252 98.0078 188.02 96.5899 187.393 95.6835Z" fill="#E0DFE6"></path> <path d="M181.716 81.2273C176.336 80.9818 170.945 81.1371 165.587 81.692C161.846 82.0173 157.988 82.3428 154.199 82.3428C150.652 82.3777 147.113 82.0113 143.648 81.2505L143.114 83.5746C146.754 84.3722 150.473 84.7542 154.199 84.7134C158.08 84.7134 161.985 84.3879 165.82 84.0626C171.053 83.5088 176.32 83.3535 181.577 83.5979L181.716 81.2273Z" fill="#E0DFE6"></path> <path d="M73.6818 106.607L71.9155 108.141L73.7513 110.232L79.0735 112.789C78.7946 112.51 75.0297 108.187 73.6818 106.607Z" fill="#E0DFE6"></path> <path d="M115.506 124.804L81.1331 80.1357L79.297 81.5766L112.857 125.013L114.785 125.455L115.506 124.804Z" fill="#E0DFE6"></path> <path d="M84.7222 104.747C82.3982 101.656 79.3536 98.1698 76.5415 95.1486L74.845 96.7291C77.6106 99.7039 80.5388 103.143 82.8861 106.165C85.5123 109.558 88.4406 112.765 91.2759 115.856L94.3436 119.272L98.8059 120.876C96.9001 118.552 94.9479 116.437 92.9957 114.299C90.1836 111.231 87.2787 108.047 84.7222 104.747Z" fill="#E0DFE6"></path> <path d="M63.2993 92.8482H67.9474V90.5241H63.2993C57.1173 90.5241 49.0994 90.3847 43.0801 90.8495L43.3357 91.0353C44.1956 91.7093 45.0788 92.337 45.9619 92.9877C51.4932 92.8483 58.0702 92.8482 63.2993 92.8482Z" fill="#E0DFE6"></path> <path d="M64.4997 100.262C63.082 100.262 59.6192 100.262 56.4353 100.262C57.6438 101.075 58.8754 101.842 60.1304 102.586C62.0362 102.586 63.7328 102.586 64.616 102.586L64.4997 100.262Z" fill="#E0DFE6"></path> <path d="M53.6291 81.5999C49.8874 81.9252 46.0294 82.2504 42.2412 82.2504C38.8771 82.2827 35.519 81.9557 32.2244 81.2745L35.269 84.133C37.5813 84.4286 39.9101 84.5759 42.2412 84.5744C46.1224 84.5744 50.05 84.2493 53.8615 83.9239C59.0868 83.3705 64.3466 83.2149 69.5954 83.4589L69.7812 81.1349C64.3931 80.8882 58.9942 81.0438 53.6291 81.5999Z" fill="#E0DFE6"></path> <path d="M73.5931 71.3276H22.6031V71.7228L24.5323 73.6517H73.5931V71.3276Z" fill="#E0DFE6"></path> <path d="M118.567 86.1322C115.197 81.6003 111.827 77.0685 108.365 72.6063C102.674 65.0895 96.5679 57.8969 90.0742 51.0622L88.401 52.6657C94.8281 59.4495 100.88 66.5797 106.529 74.024C109.992 78.4861 123.448 96.5906 126.91 101.076C132.606 108.582 138.705 115.774 145.178 122.62L146.874 121.016C140.447 114.233 134.396 107.103 128.747 99.6584C125.307 95.173 121.937 90.6641 118.567 86.1322Z" fill="#E0DFE6"></path> <path d="M95.797 37.0703L94.0307 38.6042C105.372 51.619 117.016 65.8885 129.658 82.2498C138.955 94.3814 149.064 107.815 161.033 124.269L163.357 123.479C151.179 106.746 141.023 93.1265 131.518 80.8322C118.828 64.4941 107.162 50.178 95.797 37.0703Z" fill="#E0DFE6"></path> <path d="M81.3419 58.5921C76.2754 59.0569 70.6978 59.2662 64.3532 59.2662C58.0085 59.2662 51.3152 59.0336 44.9241 58.8245C38.5329 58.6153 31.9788 58.383 25.5412 58.383C21.9854 58.383 18.7782 58.3829 15.7105 58.5921V60.9162H16.6867C19.4523 60.9162 22.3342 60.7533 25.495 60.7533C31.8861 60.7533 38.4631 60.9626 44.8077 61.195C51.1524 61.4274 57.8225 61.6365 64.3066 61.6365C70.7908 61.6365 76.3686 61.4042 81.5047 60.9394L81.3419 58.5921Z" fill="#E0DFE6"></path> <path d="M86.3706 67.7714C88.3461 70.0955 90.3448 72.6055 92.4829 75.3711C96.8057 80.9721 101.059 86.9915 105.149 92.5925C109.239 98.1935 113.562 104.213 117.955 109.976C122.347 115.74 126.298 120.365 130.202 124.548L131.899 122.968C128.064 118.831 124.09 114.113 119.791 108.559C115.491 103.004 111.168 96.9386 107.055 91.2214C102.941 85.5042 98.665 79.6009 94.319 73.9535C91.995 70.8392 89.6707 68.0503 87.4861 65.4706L85.6733 66.9348L86.3474 67.7947L86.3706 67.7714Z" fill="#E0DFE6"></path> <path d="M89.2714 36.6055C84.0655 36.466 79.975 36.3032 76.3727 36.1638C68.3083 35.8616 62.4286 35.6525 51.0175 35.6525C35.7484 35.6525 21.8504 35.9547 8.76594 36.559C8.53354 37.3259 8.34761 38.1161 8.18493 38.883C21.4088 38.2555 35.516 37.9533 51.0175 37.9533C62.4518 37.9533 68.262 38.1624 76.28 38.4646C79.9287 38.604 83.9957 38.7668 89.2016 38.9063L89.2714 36.6055Z" fill="#E0DFE6"></path> <path d="M83.4712 48.1098C79.3168 48.5462 75.1307 48.593 70.9677 48.2494C68.6437 48.2494 66.3195 47.9702 63.0426 47.9702C57.9529 47.9702 37.4781 47.5986 32.4582 47.5986C24.2486 47.5371 16.0412 47.9017 7.86945 48.6908C7.86945 49.4577 8.07867 50.2247 8.21811 51.0149C16.2746 50.246 24.3653 49.8893 32.4582 49.9459C37.5479 49.9459 58.0226 50.3175 63.0426 50.3175C66.1336 50.3175 68.5273 50.457 70.8514 50.5964C75.1381 50.9516 79.4487 50.9051 83.7268 50.4571L83.4712 48.1098Z" fill="#E0DFE6"></path> <path d="M59.1312 25.2177C58.2344 25.1374 57.3321 25.1374 56.4353 25.2177L56.7839 27.5418C57.5568 27.4667 58.3351 27.4667 59.108 27.5418C60.3236 27.6444 61.5477 27.5503 62.7334 27.2629L62.0828 24.9389C61.1202 25.1891 60.1237 25.2833 59.1312 25.2177Z" fill="#E0DFE6"></path> <path d="M32.3336 25.0097L34.0069 23.4059C32.2406 21.5699 30.4745 19.641 28.685 17.6191C27.8483 17.8282 27.0348 18.0605 26.2214 18.3394C28.3363 20.8029 30.3582 22.918 32.3336 25.0097Z" fill="#E0DFE6"></path> <path d="M41.0412 16.8979C43.8766 20.7559 46.8283 24.8 49.896 29.0298L51.7784 27.6584L44.2717 17.3862H43.7372C42.8308 17.1305 41.9476 17.0142 41.0412 16.8979Z" fill="#E0DFE6"></path> <path d="M99.5603 27.7749C100.606 29.1228 101.512 30.4009 102.372 31.7024L104.301 30.4243C103.441 29.0764 102.488 27.7517 101.396 26.3572C101.048 25.8924 100.676 25.4739 100.304 25.0324C99.1186 24.8 97.9797 24.5445 96.7015 24.3353C97.6776 25.4509 98.6539 26.6361 99.5603 27.7749Z" fill="#E0DFE6"></path> <path d="M89.3831 30.9116L91.2189 29.494C89.5921 27.4023 87.5934 24.8459 85.4321 22.5218L81.8532 21.9408C84.6653 25.1015 87.338 28.2854 89.3831 30.9116Z" fill="#E0DFE6"></path> <path d="M15.5949 24.939C16.1991 25.613 16.8032 26.3101 17.4074 26.9376L19.1042 25.3572C18.5 24.7297 17.8956 24.0325 17.2914 23.3585C16.6981 23.8547 16.1318 24.3823 15.5949 24.939Z" fill="#E0DFE6"></path> <path d="M74.6448 30.098L76.783 29.1683C74.8417 25.6155 72.1918 22.499 68.9974 20.0116H67.9282L66.9755 21.5453C70.1308 23.7964 72.7495 26.717 74.6448 30.098Z" fill="#E0DFE6"></path> <path d="M115.507 27.1935L115.158 26.7288L112.067 26.5427L113.671 28.6112L115.507 27.1935Z" fill="#E0DFE6"></path> <path d="M155.754 70.6764C155.147 70.6739 154.552 70.5052 154.034 70.1885L43.7347 6.5092C42.9334 6.04691 42.3485 5.28544 42.1088 4.39195C41.8691 3.49847 41.9941 2.54634 42.4563 1.74505C42.9186 0.943754 43.6804 0.358885 44.5739 0.11917C45.4674 -0.120546 46.4195 0.00441627 47.2208 0.4667L157.521 64.1692C158.188 64.5534 158.709 65.1477 159.003 65.8595C159.297 66.5713 159.348 67.3606 159.146 68.1039C158.944 68.8471 158.502 69.5026 157.888 69.968C157.275 70.4335 156.524 70.6825 155.754 70.6764Z" fill="#3A3A3A"></path> <path d="M134.782 82.7858C134.17 82.7887 133.568 82.628 133.039 82.3208L22.7393 18.6415C22.3425 18.4126 21.9947 18.108 21.7157 17.7447C21.4367 17.3814 21.2321 16.9667 21.1134 16.5243C20.9947 16.0818 20.9644 15.6203 21.024 15.1662C21.0837 14.712 21.232 14.2741 21.4609 13.8773C21.6898 13.4806 21.9947 13.1327 22.358 12.8538C22.7213 12.5748 23.1361 12.3702 23.5785 12.2515C24.0209 12.1328 24.4824 12.1025 24.9365 12.1621C25.3907 12.2217 25.8286 12.3701 26.2254 12.599L136.525 76.2783C137.191 76.6615 137.711 77.2537 138.006 77.9632C138.3 78.6726 138.352 79.4596 138.154 80.2016C137.955 80.9435 137.516 81.599 136.907 82.0663C136.297 82.5336 135.55 82.7866 134.782 82.7858Z" fill="#3A3A3A"></path> <path d="M113.788 94.8937C113.176 94.8988 112.573 94.7383 112.045 94.4289L1.74496 30.7497C1.3482 30.5208 1.00062 30.2159 0.721657 29.8526C0.442695 29.4893 0.237776 29.0746 0.119081 28.6321C0.000386094 28.1897 -0.0299266 27.7282 0.0297159 27.2741C0.0893584 26.8199 0.237996 26.382 0.466896 25.9852C0.695795 25.5885 1.00064 25.2406 1.36395 24.9617C1.72726 24.6827 2.14173 24.4781 2.58414 24.3594C3.02655 24.2407 3.48805 24.2104 3.9422 24.27C4.39636 24.3296 4.83429 24.4783 5.23105 24.7072L115.531 88.4094C116.204 88.7859 116.731 89.376 117.03 90.0861C117.33 90.7962 117.384 91.5859 117.184 92.3301C116.984 93.0744 116.541 93.7306 115.926 94.1949C115.311 94.6592 114.559 94.9051 113.788 94.8937Z" fill="#3A3A3A"></path> </svg> 