<?xml version="1.0" encoding="UTF-8"?> <svg xmlns="http://www.w3.org/2000/svg" width="85" height="66" viewBox="0 0 85 66" fill="none"> <path d="M26.5585 63.3741C28.3362 64.3576 30.2083 65.1599 32.1466 65.769C40.0933 65.5875 48.3302 65.4968 56.9845 65.4968C64.0603 65.4968 69.1585 65.4968 73.8394 65.6964C75.4475 65.07 76.981 64.2668 78.4115 63.3015C72.3336 63.1019 66.4008 62.9567 56.9845 62.9567C46.2801 62.9567 36.1925 63.1019 26.5585 63.3741Z" fill="#E0DFE6"></path> <path d="M59.9361 42.528C61.7508 42.528 63.3295 42.528 64.7994 42.528C66.2693 42.528 67.6847 42.4191 69.1727 42.528L69.3361 40.0056C67.7947 39.9239 66.2501 39.9239 64.7087 40.0056C63.2751 40.0056 61.7508 40.0056 59.9906 40.0056C58.3385 39.9495 56.6846 39.9859 55.0366 40.1144L55.3088 42.6368C56.8481 42.5167 58.3928 42.4804 59.9361 42.528Z" fill="#E0DFE6"></path> <path d="M82.3422 38.3356L84.4472 40.7129C83.8608 39.8254 83.1522 39.025 82.3422 38.3356Z" fill="#E0DFE6"></path> <path d="M38.4579 49.5703C34.3387 45.2696 30.1649 40.497 25.7553 35.0531C24.9071 35.3021 24.0863 35.6366 23.3055 36.0512C27.9874 41.8036 32.3788 46.7757 36.6796 51.2761L38.4579 49.5703Z" fill="#E0DFE6"></path> <path d="M65.8507 51.5626C64.8789 51.4728 63.9009 51.4728 62.9291 51.5626L63.292 54.0668C64.107 53.9946 64.9268 53.9946 65.7418 54.0668C67.0685 54.1649 68.4023 54.0608 69.6978 53.7583L68.9901 51.3267C67.9609 51.5593 66.9031 51.6388 65.8507 51.5626Z" fill="#E0DFE6"></path> <path d="M57.8622 54.2309C52.7821 47.2277 48.0105 40.7143 43.4747 34.6001L41.6604 34.9448L40.7714 35.1444C45.5067 41.5308 50.4961 48.3526 55.8483 55.7187L57.8622 54.2309Z" fill="#E0DFE6"></path> <path d="M20.2732 53.4513L22.0879 51.6366C20.491 49.8219 18.8578 48.0073 17.1883 46.1926C17.0609 47.49 17.0609 48.7967 17.1883 50.0941C18.2771 51.2555 19.2752 52.3806 20.2732 53.4513Z" fill="#E0DFE6"></path> <path d="M82.8772 56.7725L84.8007 55.9196C84.8771 55.7605 84.9438 55.5969 85.0003 55.4297C82.7291 51.3584 79.5801 47.8437 75.7819 45.1406L74.4753 47.3182C77.9415 49.8085 80.8113 53.0377 82.8772 56.7725Z" fill="#E0DFE6"></path> <path d="M39.7073 29.8095C38.5043 29.8095 37.3506 30.2873 36.5 31.138C35.6494 31.9886 35.1715 33.1423 35.1715 34.3452V45.2311C35.1715 46.4341 35.6494 47.5878 36.5 48.4384C37.3506 49.289 38.5043 49.7669 39.7073 49.7669C40.9102 49.7669 42.0639 49.289 42.9145 48.4384C43.7652 47.5878 44.2431 46.4341 44.2431 45.2311V34.3452C44.2431 33.1423 43.7652 31.9886 42.9145 31.138C42.0639 30.2873 40.9102 29.8095 39.7073 29.8095Z" fill="#3A3A3A"></path> <path d="M39.7073 9.07734e-08C38.5043 9.07734e-08 37.3506 0.47783 36.5 1.32845C35.6494 2.17908 35.1715 3.33282 35.1715 4.53578V17.0726C35.1715 18.2756 35.6494 19.4293 36.5 20.2799C37.3506 21.1306 38.5043 21.6084 39.7073 21.6084C40.9102 21.6084 42.0639 21.1306 42.9145 20.2799C43.7652 19.4293 44.2431 18.2756 44.2431 17.0726V4.62647C44.2551 4.02324 44.1467 3.42364 43.9242 2.86282C43.7016 2.302 43.3695 1.79124 42.9471 1.3604C42.5247 0.92956 42.0206 0.587289 41.4643 0.353693C40.9079 0.120097 40.3106 -0.000120593 39.7073 9.07734e-08Z" fill="#3A3A3A"></path> <path d="M22.0802 20.3201H4.53578C3.33281 20.3201 2.17913 20.7979 1.3285 21.6486C0.477879 22.4992 0 23.6529 0 24.8558C0 26.0588 0.477879 27.2125 1.3285 28.0631C2.17913 28.9137 3.33281 29.3916 4.53578 29.3916H22.0802C23.2831 29.3916 24.4368 28.9137 25.2875 28.0631C26.1381 27.2125 26.616 26.0588 26.616 24.8558C26.616 23.6529 26.1381 22.4992 25.2875 21.6486C24.4368 20.7979 23.2831 20.3201 22.0802 20.3201Z" fill="#3A3A3A"></path> <path d="M74.8696 20.3201H55.9463C54.7434 20.3201 53.5897 20.7979 52.7391 21.6486C51.8884 22.4992 51.4106 23.6529 51.4106 24.8558C51.4106 26.0588 51.8884 27.2125 52.7391 28.0631C53.5897 28.9137 54.7434 29.3916 55.9463 29.3916H74.8696C76.0726 29.3916 77.2263 28.9137 78.0769 28.0631C78.9275 27.2125 79.4054 26.0588 79.4054 24.8558C79.4054 23.6529 78.9275 22.4992 78.0769 21.6486C77.2263 20.7979 76.0726 20.3201 74.8696 20.3201Z" fill="#3A3A3A"></path> </svg> 