<?xml version="1.0" encoding="UTF-8"?> <svg xmlns="http://www.w3.org/2000/svg" width="149" height="90" viewBox="0 0 149 90" fill="none"> <path d="M144.935 44.7788L74.4219 85.4939V4.06365L144.935 44.7788Z" fill="#D7DCE0"></path> <path d="M74.4176 4.06365V85.4939L3.8771 44.7788L74.4176 4.06365Z" fill="#3A3A3A"></path> <path d="M74.5001 89.5568C73.788 89.5502 73.0892 89.364 72.4684 89.0151L2.03632 48.3812C1.41739 48.025 0.903097 47.5118 0.545621 46.8935C0.188145 46.2753 0 45.5737 0 44.8595C0 44.1453 0.188145 43.4437 0.545621 42.8255C0.903097 42.2072 1.41739 41.6944 2.03632 41.3381L72.4684 0.704212C73.0852 0.344902 73.7863 0.155614 74.5001 0.155614C75.2139 0.155614 75.915 0.344902 76.5318 0.704212L146.964 41.3381C147.583 41.6944 148.097 42.2072 148.455 42.8255C148.812 43.4437 149 44.1453 149 44.8595C149 45.5737 148.812 46.2753 148.455 46.8935C148.097 47.5118 147.583 48.025 146.964 48.3812L76.5318 89.0151C75.9124 89.3674 75.2126 89.5538 74.5001 89.5568ZM12.1948 44.7785L74.5001 80.807L136.805 44.7785L74.5001 8.74964L12.1948 44.7785Z" fill="#3A3A3A"></path> <path d="M74.4963 89.5569C73.4186 89.5569 72.3854 89.1288 71.6234 88.3668C70.8613 87.6048 70.4329 86.5712 70.4329 85.4935V4.06339C70.4329 2.98571 70.8613 1.95215 71.6234 1.19012C72.3854 0.428082 73.4186 0 74.4963 0C75.574 0 76.6072 0.428082 77.3693 1.19012C78.1313 1.95215 78.5597 2.98571 78.5597 4.06339V85.4935C78.5597 86.5712 78.1313 87.6048 77.3693 88.3668C76.6072 89.1288 75.574 89.5569 74.4963 89.5569Z" fill="#3A3A3A"></path> </svg> 