<?xml version="1.0" encoding="UTF-8"?> <svg xmlns="http://www.w3.org/2000/svg" width="169" height="177" viewBox="0 0 169 177" fill="none"> <path d="M108.857 174.011C113.908 174.475 119.445 174.683 125.792 174.683H127.599C126.719 175.517 125.793 176.259 124.866 177C118.843 177 113.491 176.745 108.649 176.305L108.857 174.011Z" fill="#E0DFE6"></path> <path d="M127.176 165.74C124.118 165.74 121.731 165.879 119.415 166.018C115.142 166.372 110.845 166.326 106.58 165.879L106.836 163.562C110.969 163.997 115.134 164.044 119.276 163.702C121.592 163.702 124.048 163.423 127.176 163.423C132.273 163.423 146.358 163.192 148.327 163.145C147.377 163.956 146.381 164.767 145.385 165.462C144.412 165.531 132.203 165.74 127.176 165.74Z" fill="#E0DFE6"></path> <path d="M113.905 153.972C110.268 154.111 106.214 154.273 101.001 154.412V152.095C106.214 151.956 110.268 151.794 113.882 151.655C121.898 151.354 127.782 151.145 139.133 151.145C146.083 151.145 152.663 151.145 159.034 151.331C158.501 152.095 157.968 152.86 157.389 153.647C151.528 153.647 145.458 153.485 139.133 153.485C127.596 153.462 121.898 153.67 113.905 153.972Z" fill="#E0DFE6"></path> <path d="M127.176 68.4413C124.118 68.4413 121.732 68.5805 119.415 68.7195C115.142 69.0738 110.845 69.0271 106.58 68.5804L106.836 66.2637C110.969 66.6987 115.134 66.7453 119.276 66.4029C121.592 66.4029 124.048 66.1246 127.176 66.1246C130.303 66.1246 133.129 66.1246 136.095 66.1246C137.323 66.8428 138.527 67.6073 139.709 68.4413C135.539 68.3949 131.369 68.4413 127.176 68.4413Z" fill="#E0DFE6"></path> <path d="M122.145 108.542H126.778C134.731 108.275 142.693 108.507 150.617 109.237L150.293 111.553C142.483 110.853 134.638 110.629 126.802 110.881H122.168L122.145 108.542Z" fill="#E0DFE6"></path> <path d="M132.044 132.474C130.717 132.404 129.387 132.404 128.06 132.474L127.898 130.157C129.381 130.157 130.701 130.157 132.114 130.157C133.527 130.157 134.825 130.157 136.423 130.157C137.927 130.052 139.436 130.052 140.94 130.157L140.685 132.474C139.281 132.391 137.874 132.391 136.469 132.474C134.825 132.543 133.388 132.52 132.044 132.474Z" fill="#E0DFE6"></path> <path d="M125.66 118.249C127.977 118.249 136.433 118.249 139.329 118.249C140.14 118.249 140.904 118.249 141.645 118.249C142.387 118.249 143.962 118.388 145.607 118.249V120.566H144.263C143.151 120.566 142.247 120.566 141.413 120.566C140.579 120.566 139.931 120.566 139.097 120.566C136.201 120.566 127.722 120.566 125.197 120.566L125.66 118.249Z" fill="#E0DFE6"></path> <path d="M131.097 143.06C129.892 143.163 128.68 143.069 127.506 142.782L128.131 140.466C129.074 140.674 130.042 140.737 131.004 140.651C131.89 140.571 132.782 140.571 133.668 140.651L133.344 142.968C132.593 142.929 131.841 142.961 131.097 143.06Z" fill="#E0DFE6"></path> <path d="M155.992 138.936C160.092 134.674 164.216 129.948 168.71 124.411C168.571 125.87 168.386 127.307 168.131 128.743C164.494 133.121 161.065 136.99 157.66 140.535L155.992 138.936Z" fill="#E0DFE6"></path> <path d="M97.2188 132.241C100.022 129.183 102.918 126.009 105.466 122.72C108.015 119.43 110.795 116.164 113.598 113.152L115.289 114.727C112.532 117.693 109.613 121.121 107.296 124.133C104.679 127.515 101.759 130.712 98.9331 133.793C96.1067 136.875 93.2345 140.025 90.6862 143.338C89.6437 144.682 88.7171 145.956 87.8831 147.253L85.9369 145.979C86.8172 144.635 87.7671 143.315 88.8559 141.925C91.4506 138.658 94.3924 135.346 97.2188 132.241Z" fill="#E0DFE6"></path> <path d="M138.309 143.292C149.174 128.327 158.418 115.886 166.99 104.65C167.245 105.623 167.5 106.596 167.708 107.569C159.438 118.388 150.565 130.365 140.163 144.636L138.309 143.292Z" fill="#E0DFE6"></path> <path d="M115.511 145.609L113.38 144.682C115.438 140.834 118.365 137.518 121.929 134.998L123.133 136.968C119.982 139.246 117.378 142.198 115.511 145.609Z" fill="#E0DFE6"></path> <path d="M113.892 56.6723C110.255 56.8113 106.201 56.9736 100.988 57.1126V54.7959C104.417 54.7959 107.313 54.6106 109.954 54.4947C111.923 55.1666 113.892 55.8845 115.861 56.6027L113.892 56.6723Z" fill="#E0DFE6"></path> <path d="M147.783 100.295C151.326 100.328 154.862 99.9629 158.324 99.2058L158.833 101.522C155.205 102.32 151.498 102.701 147.783 102.658C143.937 102.658 140.022 102.333 136.2 102.009C130.983 101.457 125.732 101.302 120.493 101.546L120.331 99.229C125.686 98.9843 131.053 99.1393 136.385 99.6925C140.161 99.9705 144.03 100.295 147.783 100.295Z" fill="#E0DFE6"></path> <path d="M109.075 98.4731L110.909 99.8891L76.5267 144.406L74.6933 142.99L109.075 98.4731Z" fill="#E0DFE6"></path> <path d="M98.9745 145.007C102.334 140.674 107.361 134.975 111.786 129.925L116.419 124.574L118.18 126.103L113.546 131.454C109.145 136.458 104.141 142.157 100.828 146.42L98.9745 145.007Z" fill="#E0DFE6"></path> <path d="M152.707 79.0269L145.224 79.2585C138.83 79.467 132.251 79.6988 125.787 79.6988C119.324 79.6988 113.764 79.467 108.644 79.0037L108.852 76.687C113.902 77.1503 119.439 77.3589 125.787 77.3589C132.135 77.3589 138.784 77.1271 145.131 76.9186L150.437 76.7566C151.201 77.4979 151.966 78.2392 152.707 79.0269Z" fill="#E0DFE6"></path> <path d="M116.565 89.4058H160.582C160.86 89.846 161.138 90.2399 161.393 90.6801L161.926 91.7225H116.611L116.565 89.4058Z" fill="#E0DFE6"></path> <path d="M4.70132 89.568C1.80549 93.4831 5.30351 102.588 10.933 105.785L89.3754 151.052C90.1002 151.587 90.9549 151.919 91.851 152.013C92.7472 152.107 93.6522 151.959 94.472 151.585H94.6575C96.7193 150.241 97.3678 146.581 95.5839 142.087L56.363 43.7907C53.8842 37.5357 48.2781 33.7595 45.0348 35.5896C44.5953 35.8457 44.2155 36.1932 43.9223 36.6088L4.70132 89.568Z" fill="#3A3A3A"></path> <path d="M99.7681 3.94446L45.0483 35.5438C48.2685 33.6904 53.8983 37.4899 56.3771 43.7448L95.598 142.041C97.3819 146.535 96.7334 150.196 94.6716 151.539L149.183 120.125C151.499 118.851 152.125 115.121 150.295 110.511L111.073 12.2151C108.571 5.89061 102.942 2.09113 99.7681 3.94446Z" fill="white"></path> <path d="M92.5694 155.616C93.8367 155.623 95.0834 155.295 96.1836 154.666L96.3691 154.55C100.261 152.025 101.141 146.651 98.6857 140.766L59.4648 42.4472C58.6408 40.1575 57.3534 38.0625 55.6833 36.2927C54.0131 34.5229 51.9957 33.1165 49.7576 32.1613C48.6992 31.7444 47.5631 31.5614 46.4274 31.6254C45.2916 31.6894 44.1834 31.9986 43.1786 32.5318C42.3173 33.0208 41.5735 33.6933 41.0005 34.5012L1.77957 87.5064C0.940736 88.7887 0.3817 90.233 0.138218 91.7458C-0.105264 93.2586 -0.0274147 94.8057 0.366714 96.2864C0.895971 98.856 1.93781 101.292 3.43053 103.45C4.92324 105.607 6.83617 107.442 9.0542 108.843L87.4961 154.134C89.0185 155.085 90.774 155.598 92.5694 155.616ZM92.7086 148.666C92.125 148.666 91.5568 148.479 91.087 148.133L12.6446 102.866C9.90054 100.998 7.98387 98.1432 7.29351 94.8964C6.96762 93.8355 7.033 92.6928 7.47846 91.6762L46.7 38.6478C47.534 38.3235 51.1712 40.1768 53.1172 45.0418L92.3381 143.292C93.6586 146.604 93.0097 148.435 92.7086 148.643V148.666Z" fill="#3A3A3A"></path> <path d="M94.4371 155.13C95.0465 155.128 95.6449 154.968 96.1746 154.667L150.918 123.068C154.879 120.751 155.921 115.191 153.512 109.168L114.291 10.8485C113.462 8.55158 112.168 6.4504 110.49 4.67652C108.812 2.90263 106.786 1.49434 104.538 0.539499C103.486 0.125362 102.356 -0.0539625 101.228 0.0140644C100.099 0.0820914 98.9994 0.395929 98.0049 0.933433L43.2624 32.5325C42.4637 32.9933 41.8804 33.7526 41.6414 34.6432C41.4025 35.5339 41.5273 36.483 41.9882 37.2817C42.449 38.0805 43.2083 38.6635 44.0989 38.9024C44.9896 39.1414 45.9387 39.0168 46.7374 38.556L101.457 6.9567C102.244 6.70187 105.905 8.60136 107.851 13.4432L147.048 111.739C148.346 114.983 147.721 116.836 147.443 117.045L92.6996 148.644C92.0361 149.026 91.5175 149.616 91.224 150.323C90.9305 151.031 90.8789 151.815 91.077 152.554C91.2751 153.294 91.7119 153.948 92.3196 154.413C92.9273 154.879 93.6715 155.131 94.4371 155.13Z" fill="#3A3A3A"></path> </svg> 