<?xml version="1.0" encoding="UTF-8"?> <svg xmlns="http://www.w3.org/2000/svg" width="166" height="113" viewBox="0 0 166 113" fill="none"> <path d="M22.7029 76.3213L20.9625 77.8529C29.827 88.0401 38.9 99.0162 48.4838 111.153C49.528 111.153 50.5493 111.315 51.5935 111.361C41.5224 98.5752 31.9851 87.0422 22.7029 76.3213Z" fill="#E0DFE6"></path> <path d="M16.1888 75.8584C10.9908 75.7192 3.24006 75.4174 3.24006 75.4174C3.54173 76.2064 3.84374 76.9953 4.16861 77.7379L16.1192 78.1325L16.1888 75.8584Z" fill="#E0DFE6"></path> <path d="M9.26233 87.4374L10.4691 89.2243L10.26 87.3445L9.26233 87.4374Z" fill="#E0DFE6"></path> <path d="M15.313 91.8929C18.6313 95.3737 21.9965 99.1562 25.5701 103.496C27.2977 104.575 29.0878 105.551 30.9307 106.419C25.988 100.224 21.4629 95.0258 17.0075 90.3615L15.313 91.8929Z" fill="#E0DFE6"></path> <path d="M42.3789 66.4603L9.40417 23.7624C8.94006 24.4353 8.47577 25.1083 8.05807 25.8044L40.5456 67.8758L42.3789 66.4603Z" fill="#E0DFE6"></path> <path d="M19.9372 55.971C17.1294 52.9079 14.2285 49.7288 11.676 46.4336C9.12336 43.1384 6.33869 39.8665 3.53084 36.8498L2.53317 37.778C2.41714 38.1261 2.30079 38.4973 2.20797 38.8454C4.85339 41.7229 7.61492 44.9484 9.84264 47.8491C12.4648 51.2371 15.389 54.4395 18.22 57.5258C21.0511 60.6122 23.9281 63.7681 26.4807 67.0864C27.525 68.4324 28.4531 69.7085 29.2885 71.008L31.2379 69.7319C30.3561 68.386 29.4047 67.0633 28.314 65.671C25.6918 62.399 22.7683 59.0805 19.9372 55.971Z" fill="#E0DFE6"></path> <path d="M57.0776 66.2053L58.7716 64.6273C54.9427 60.4967 50.9741 55.7861 46.6811 50.24C42.3881 44.6939 38.072 38.6373 33.9646 32.9288C29.8573 27.2202 25.5875 21.3261 21.2481 15.6872C20.5055 14.7126 19.7863 13.8307 19.0669 12.9025C18.4868 13.413 17.9067 13.9236 17.3498 14.4574C18.0227 15.316 18.7186 16.1745 19.4148 17.1027C23.731 22.6952 27.978 28.5894 32.0854 34.2979C36.1928 40.0065 40.4857 45.9006 44.8484 51.6555C49.211 57.4105 53.1791 62.0284 57.0776 66.2053Z" fill="#E0DFE6"></path> <path d="M33.4326 15.7555C36.8903 20.211 50.3262 38.2879 53.7838 42.7665C59.4783 50.2616 65.5751 57.4428 72.0467 64.2781L73.7174 62.6768C67.3001 55.9032 61.2575 48.784 55.6171 41.351C52.1827 36.8956 38.7236 18.7953 35.266 14.3399C32.9454 11.3928 30.8568 8.70107 28.7683 6.14847C28.0722 6.51976 27.3995 6.91427 26.7265 7.33197C28.9775 9.93098 31.0889 12.7156 33.4326 15.7555Z" fill="#E0DFE6"></path> <path d="M56.4884 24.0165C66.3042 36.7099 76.793 50.7724 89.5096 68.2925L91.3888 66.9231C78.649 49.4031 68.1834 35.3175 58.3443 22.6009C52.4038 14.9431 46.7419 7.74952 41.1494 0.903928L38.8288 1.66975C44.5141 8.70098 50.3853 16.1035 56.4884 24.0165Z" fill="#E0DFE6"></path> <path d="M1.26679 68.571C1.38282 68.8031 1.52182 69.0349 1.61464 69.2438L3.74936 68.3158C2.83059 66.5009 1.67582 64.8154 0.315005 63.3034C0.547059 65.067 0.872297 66.8306 1.26679 68.571Z" fill="#E0DFE6"></path> <path d="M3.59695 55.1828C8.00597 60.1952 13.0183 65.9036 16.3135 70.1734L18.1468 68.7579C14.8052 64.4185 9.76958 58.7099 5.33735 53.6512L0.696275 48.2907L0.185824 48.7316C0.185824 49.4974 0.0464108 50.2632 0 51.0522L3.59695 55.1828Z" fill="#E0DFE6"></path> <path d="M61.4544 110.527V110.852H61.9184C64.3782 111.641 66.8611 112.314 69.3672 112.894H110.882L112.367 112.522V110.573L61.4544 110.527Z" fill="#E0DFE6"></path> <path d="M124.581 104.679L122.794 106.141L123.444 106.999C123.746 107.347 124.048 107.742 124.35 108.113C125.092 107.788 125.765 107.394 126.484 107.046C125.881 106.233 125.231 105.421 124.581 104.679Z" fill="#E0DFE6"></path> <path d="M149.976 78.6429L157.912 78.2251C158.4 77.4361 158.887 76.6703 159.328 75.9046L149.837 76.4153L149.976 78.6429Z" fill="#E0DFE6"></path> <path d="M132.823 76.3213L131.082 77.8529C135.631 83.0974 140.272 88.5582 145.006 94.2358C145.586 93.7021 146.119 93.1452 146.676 92.6115C141.942 86.9958 137.371 81.5657 132.823 76.3213Z" fill="#E0DFE6"></path> <path d="M136.692 100.967C133.397 97.0458 130.241 93.5418 127.132 90.2931L125.461 91.8941C128.501 95.0732 131.564 98.5076 134.743 102.313C135.439 101.849 136.042 101.408 136.692 100.967Z" fill="#E0DFE6"></path> <path d="M122.059 87.3446C117.911 87.7803 113.731 87.8271 109.574 87.4839C107.253 87.4839 104.933 87.2052 101.661 87.2052C96.5791 87.2052 76.1348 86.8341 71.1225 86.8341C62.5988 86.7732 54.078 87.1682 45.5965 88.0176L45.8288 90.3381C54.2177 89.4987 62.6455 89.1114 71.076 89.1779C76.158 89.1779 96.6023 89.549 101.615 89.549C104.701 89.549 107.091 89.6882 109.411 89.8274C113.692 90.1821 117.996 90.1356 122.267 89.6883L122.059 87.3446Z" fill="#E0DFE6"></path> <path d="M83.6142 100.363C89.9956 100.572 96.6089 100.804 103.083 100.804C109.558 100.804 115.127 100.572 120.256 100.108L120.047 97.7871C114.988 98.2512 109.418 98.4601 103.083 98.4601C96.7482 98.4601 90.0653 98.2279 83.6838 98.0191C77.3024 97.8102 70.7582 97.5783 64.3303 97.5783C60.8031 97.5783 57.5776 97.5782 54.5145 97.7871V100.108H55.489C58.2504 100.108 61.128 99.9453 64.2839 99.9453C70.7118 99.9221 77.2791 100.131 83.6142 100.363Z" fill="#E0DFE6"></path> <path d="M127.961 75.8572C122.762 75.718 118.679 75.5554 115.082 75.4162C107.03 75.1145 101.158 74.9057 89.7645 74.9057C71.061 74.9057 54.3996 75.3466 38.8288 76.2748L38.9682 78.5953C54.4926 77.6903 71.1074 77.2495 89.7645 77.2495C101.182 77.2495 106.983 77.4583 114.989 77.7599C118.632 77.8992 122.693 78.0618 127.891 78.201L127.961 75.8572Z" fill="#E0DFE6"></path> <path d="M102.052 34.5522H106.693V32.2317H102.052C94.0854 31.9648 86.1103 32.1973 78.1732 32.9278L78.5216 35.2484C86.3436 34.5389 94.2013 34.3065 102.052 34.5522Z" fill="#E0DFE6"></path> <path d="M92.4079 56.2492C94.0786 56.2492 95.5172 56.2492 96.8631 56.2492C98.1926 56.1796 99.5248 56.1796 100.854 56.2492L100.994 53.9287C99.5318 53.9287 98.1857 53.9287 96.7702 53.9287C95.3547 53.9287 94.0787 53.9287 92.4543 53.9287C90.9556 53.8228 89.4508 53.8228 87.952 53.9287L88.1843 56.2492C89.5909 56.1666 91.0013 56.1666 92.4079 56.2492Z" fill="#E0DFE6"></path> <path d="M92.5966 25.6411C97.8139 25.0886 103.066 24.9335 108.307 25.1772L108.492 22.8566C103.12 22.6115 97.7373 22.7665 92.3881 23.3206C88.652 23.6455 84.7996 23.9704 81.0171 23.9704C77.4755 24.0041 73.9413 23.6381 70.4818 22.8797L69.9713 25.2002C73.5951 26.0178 77.3025 26.4072 81.0171 26.3605C84.8924 26.2909 88.8141 25.966 92.5966 25.6411Z" fill="#E0DFE6"></path> <path d="M87.2431 44.3454C88.032 44.3454 88.7282 44.3454 89.5636 44.3454C92.4643 44.3454 100.934 44.3454 103.487 44.3454V42.0248C101.05 42.0248 92.6728 42.0248 89.7953 42.0248C88.9831 42.0248 88.2174 42.0248 87.4748 42.0248C86.7322 42.0248 85.1543 42.1641 83.5067 42.0248V44.3454H84.8528C85.5258 44.4382 86.4309 44.3918 87.2431 44.3454Z" fill="#E0DFE6"></path> <path d="M55.5354 2.66887C58.2969 2.66887 61.1744 2.50641 64.3303 2.50641C69.8532 2.50641 75.492 2.66891 81.0149 2.85455C78.4784 1.82348 75.8734 0.970458 73.2182 0.301871C70.2479 0.301871 67.2774 0.185873 64.3303 0.185873C60.8031 0.185873 57.5776 0.185935 54.5145 0.394784V2.71532L55.5354 2.66887Z" fill="#E0DFE6"></path> <path d="M107.163 25.6681L105.33 27.0836L139.699 71.5943L141.532 70.1787L107.163 25.6681Z" fill="#E0DFE6"></path> <path d="M112.339 13.0414H61.426V15.362H112.339V13.0414Z" fill="#E0DFE6"></path> <path d="M120.257 2.64435L120.048 0.32381C114.989 0.787918 109.42 0.996715 103.085 0.996715H97.7242C95.4037 1.60006 93.0832 2.29622 90.7626 3.17803C94.8932 3.17803 99.0472 3.38694 103.155 3.38694C109.49 3.34053 115.129 3.10846 120.257 2.64435Z" fill="#E0DFE6"></path> <path d="M144.093 32.9274C139.986 27.2189 135.738 21.3247 131.399 15.6858C129.079 12.5763 126.758 9.79157 124.437 7.21578L122.651 8.67773L123.3 9.53631C125.25 11.8569 127.246 14.3631 129.404 17.1245C133.72 22.717 137.943 28.6113 142.051 34.3198C146.158 40.0283 150.451 45.9224 154.813 51.6774C158.178 56.0168 161.334 59.8689 164.398 63.2801C164.676 62.3751 164.908 61.4699 165.117 60.5649C162.402 57.4554 159.617 54.0675 156.67 50.2387C152.47 44.5997 148.2 38.6591 144.093 32.9274Z" fill="#E0DFE6"></path> <path d="M143.536 15.7562C146.994 20.2117 165.303 44.5773 166 45.4591C165.81 43.8299 165.539 42.2112 165.187 40.6091C161.915 36.3857 148.827 18.796 145.393 14.3406C142.469 10.5813 139.754 7.17014 137.132 4.03742C135.517 3.16463 133.851 2.38972 132.143 1.71688C135.693 5.87064 139.452 10.4654 143.536 15.7562Z" fill="#E0DFE6"></path> <path d="M139.414 71.0085L141.363 69.7324C140.481 68.4096 139.53 67.0637 138.439 65.6714C137.348 64.2791 133.264 59.5683 128.623 54.231C122.891 47.6639 116.394 40.3078 114.189 37.3839L112.356 38.7995C114.677 41.7002 121.105 49.1723 126.86 55.7627C131.315 60.8446 135.492 65.625 136.606 67.0869C137.72 68.5488 138.579 69.7322 139.414 71.0085Z" fill="#E0DFE6"></path> <path d="M97.2323 64.488C96.5307 64.4077 95.8225 64.4077 95.1209 64.488L95.5616 66.8085C96.0705 66.7505 96.5847 66.7505 97.0935 66.8085H98.0215C98.7101 66.8168 99.394 66.6987 100.04 66.4604L99.1818 64.3022C98.5501 64.4893 97.888 64.5525 97.2323 64.488Z" fill="#E0DFE6"></path> <path d="M105.555 58.7553L103.954 60.4494C105.643 62.0415 107.131 63.8337 108.386 65.7865C109.152 66.9236 110.01 68.107 111.286 69.8242L113.12 68.4087C111.89 66.8308 111.031 65.5778 110.289 64.4872C108.948 62.3923 107.359 60.4676 105.555 58.7553Z" fill="#E0DFE6"></path> <path d="M126.435 70.1727L128.268 68.7572C123.584 62.1172 118.026 56.1384 111.746 50.982L110.377 52.8616C116.643 57.433 121.794 64.2089 126.435 70.1727Z" fill="#E0DFE6"></path> <path d="M117.759 35.7581C112.143 28.4948 100.192 22.7167 90.9329 26.6152C88.4036 27.6594 85.7116 28.5413 83.2983 29.8176C81.8595 30.7922 80.4904 31.8596 79.1677 32.9502C79.5157 32.5325 77.7756 33.8552 77.1491 34.2265C75.9656 34.9227 74.8285 35.7116 73.6683 36.547C73.2738 36.8023 71.3475 38.125 69.9552 38.8676C68.8645 39.2389 67.7973 39.6797 66.7299 40.1438C64.0364 41.2428 61.6136 42.9135 59.6289 45.0403C55.4519 49.8438 52.435 56.8054 54.802 63.2565C64.6643 89.9427 107.2 87.2508 119.777 64.0918C122.249 59.6895 123.377 54.6585 123.018 49.6222C122.659 44.5858 120.83 39.7655 117.759 35.7581Z" fill="#D7DCE0"></path> <path d="M82.7385 3.48071C87.3281 3.48071 91.8145 4.84168 95.6306 7.39152C99.4467 9.94136 102.421 13.5655 104.177 17.8058C105.934 22.046 106.393 26.7119 105.498 31.2133C104.603 35.7147 102.392 39.8495 99.1471 43.0949C95.9018 46.3402 91.7671 48.5502 87.2657 49.4456C82.7643 50.341 78.0988 49.8815 73.8586 48.1252C69.6183 46.3688 65.9937 43.3945 63.4439 39.5784C60.894 35.7623 59.5331 31.2757 59.5331 26.6861C59.5331 20.5316 61.978 14.6293 66.3298 10.2775C70.6817 5.92561 76.584 3.48071 82.7385 3.48071Z" fill="white"></path> <path d="M82.7209 53.3723C77.4429 53.3723 72.2837 51.8072 67.8952 48.8749C63.5067 45.9425 60.0862 41.7748 58.0664 36.8985C56.0465 32.0223 55.5178 26.6565 56.5475 21.4799C57.5772 16.3033 60.1191 11.5483 63.8513 7.81616C67.5834 4.08403 72.3384 1.54247 77.515 0.512778C82.6916 -0.516915 88.0571 0.0115677 92.9334 2.03138C97.8096 4.0512 101.978 7.47158 104.91 11.8601C107.842 16.2486 109.407 21.4081 109.407 26.6861C109.401 33.7619 106.588 40.5461 101.584 45.5494C96.5811 50.5527 89.7967 53.3662 82.7209 53.3723ZM82.7209 6.96154C78.8198 6.96154 75.0067 8.11833 71.763 10.2857C68.5193 12.4531 65.9912 15.5337 64.4983 19.1379C63.0053 22.742 62.6143 26.708 63.3754 30.5342C64.1365 34.3604 66.0154 37.875 68.7739 40.6336C71.5324 43.3921 75.0468 45.2706 78.873 46.0317C82.6992 46.7928 86.6653 46.4021 90.2695 44.9092C93.8737 43.4163 96.9543 40.8882 99.1216 37.6445C101.289 34.4008 102.446 30.5873 102.446 26.6861C102.439 21.4567 100.359 16.4433 96.6617 12.7456C92.964 9.04786 87.9503 6.96768 82.7209 6.96154Z" fill="#3A3A3A"></path> </svg> 