<?xml version="1.0" encoding="UTF-8"?> <svg xmlns="http://www.w3.org/2000/svg" width="282" height="303" viewBox="0 0 282 303" fill="none"> <path d="M280.795 191.027C277.158 152.407 240.692 106.651 197.392 121.131C179.414 127.154 169.591 151.851 185.531 166.053C187.569 167.86 189.446 169.713 191.577 171.428C193.268 172.794 195.006 174.069 196.72 175.412C195.84 174.717 196.048 174.903 197.369 175.945C201.235 179.09 204.895 182.479 208.327 186.093C209.34 187.706 210.455 189.253 211.664 190.726C211.919 191.12 212.104 191.421 212.289 191.676C212.315 191.971 212.385 192.26 212.497 192.533C212.845 193.645 213.1 194.85 213.262 195.614C213.146 196.981 212.915 198.603 212.869 199.321C212.285 200.568 211.834 201.872 211.525 203.213C210.783 204.395 209.787 206.017 209.208 206.897C208.142 208.009 205.617 210.951 205.223 211.368C203.601 212.785 202.055 214.285 200.59 215.863C191.152 223.154 180.411 228.58 168.942 231.848C144.501 239.61 117.974 240.119 90.451 236.482C74.9983 234.443 59.8699 230.412 44.4171 228.466C32.3237 226.96 3.17891 226.404 5.03231 246.351C7.1869 269.056 31.7213 277.929 50.1395 285.365C68.745 292.878 88.1931 298.106 108.058 300.934C146.933 306.54 188.426 300.934 222.992 281.659C255.45 263.588 284.479 230.412 280.795 191.027Z" fill="#D7DCE0"></path> <path d="M209.828 199.645C209.828 214.89 199.75 230.134 179.71 241.787C139.421 264.955 74.0887 264.955 33.754 241.787C13.5982 230.204 3.63619 214.89 3.63619 199.645V62.9569C3.63619 78.2012 13.7141 93.4455 33.754 105.076C74.0423 128.243 139.375 128.243 179.71 105.076C199.866 93.4919 209.828 78.2012 209.828 62.9569V199.645Z" fill="#D7DCE0"></path> <path d="M140.163 97.9405C145.566 96.2618 150.77 94.0015 155.685 91.1989C182.698 75.6072 182.698 50.3082 155.685 34.7165C128.671 19.1247 84.8385 19.1015 57.8251 34.7165C30.8117 50.3314 30.8117 75.6072 57.8251 91.1989C62.7399 94.0015 67.9446 96.2618 73.3475 97.9405C95.1264 104.567 118.384 104.567 140.163 97.9405ZM179.71 20.8391C199.866 32.4229 209.828 47.7133 209.828 62.9576C209.828 78.2018 199.75 93.4462 179.71 105.076C139.421 128.244 74.0887 128.244 33.754 105.076C13.5982 93.4925 3.63619 78.2018 3.63619 62.9576C3.63619 47.7133 13.7141 32.4692 33.754 20.8391C73.996 -2.42108 139.329 -2.42108 179.547 20.8391H179.71Z" fill="white"></path> <path d="M155.597 34.7161C182.61 50.3078 182.61 75.6068 155.597 91.1985C150.682 94.0011 145.477 96.2614 140.074 97.9401V62.9572C140.074 58.0225 136.831 53.0878 130.298 49.3114C117.231 41.782 96.1028 41.782 83.0363 49.3114C76.5031 53.0646 73.2594 58.0225 73.2594 62.9572V97.9401C67.8565 96.2614 62.652 94.0011 57.7373 91.1985C30.7239 75.6068 30.7239 50.3078 57.7373 34.7161C84.7506 19.1243 128.583 19.1011 155.597 34.7161Z" fill="#3A3A3A"></path> <path d="M140.137 62.9569V97.9399C118.358 104.566 95.1004 104.566 73.3215 97.9399V62.9569C73.3215 67.8916 76.5646 72.8263 83.0978 76.6026C96.1643 84.1321 117.293 84.1321 130.337 76.6026C136.777 72.8263 140.137 67.9148 140.137 62.9569Z" fill="#D7DCE0"></path> <path d="M130.274 49.3115C136.807 53.0878 140.074 58.0225 140.051 62.9572C140.027 67.8919 136.784 72.8266 130.251 76.6029C117.207 84.1323 96.0789 84.1323 83.0124 76.6029C76.4792 72.8266 73.2355 67.8919 73.2355 62.9572C73.2355 58.0225 76.4792 53.0646 83.0124 49.3115C96.1253 41.8747 117.208 41.8747 130.274 49.3115Z" fill="white"></path> <path d="M106.663 125.927C79.6269 125.927 52.5673 119.973 31.9713 108.088C11.3754 96.2031 0 80.2871 0 62.9577C0 45.6284 11.3522 29.7355 31.9713 17.8274C73.1632 -5.94247 140.187 -5.94247 181.356 17.8274C201.975 29.7355 213.327 45.7443 213.327 62.9577C213.327 80.1712 201.975 96.2031 181.356 108.088C160.736 119.973 133.723 125.927 106.663 125.927ZM106.663 6.84603C80.878 6.84603 55.0925 12.522 35.4465 23.8509C17.0746 34.4617 6.95026 48.339 6.95026 62.9577C6.95026 77.5765 17.0746 91.477 35.4465 102.065C74.8313 124.746 138.611 124.746 177.88 102.065C196.252 91.477 206.377 77.5765 206.377 62.9577C206.377 48.339 196.252 34.4617 177.88 23.8509C158.258 12.522 132.449 6.84603 106.663 6.84603Z" fill="#3A3A3A"></path> <path d="M106.666 106.398C94.9881 106.447 83.3709 104.712 72.2162 101.254C66.5749 99.5312 61.1373 97.2008 55.9989 94.3042C41.8204 86.126 34.013 75.0288 34.013 63.0512C34.013 51.0736 41.8204 39.9995 55.9989 31.7982C83.939 15.5809 129.393 15.5809 157.333 31.7982C171.535 39.9995 179.343 51.0967 179.343 63.0512C179.343 75.0056 171.535 86.2187 157.333 94.3042C152.194 97.1982 146.756 99.5284 141.116 101.254C129.961 104.71 118.344 106.444 106.666 106.398ZM106.666 26.4463C89.5919 26.4463 72.4942 30.1995 59.4741 37.7289C47.5428 44.6792 40.94 53.5756 40.94 62.9584C40.94 72.3413 47.5196 81.3071 59.4741 88.1879C64.1771 90.8648 69.1561 93.0243 74.3243 94.6285C95.4262 100.976 117.929 100.976 139.031 94.6285C144.194 93.0286 149.165 90.8688 153.858 88.1879C165.813 81.2376 172.392 72.3413 172.392 62.9584C172.392 53.5756 165.813 44.6329 153.858 37.7289C140.861 30.2921 123.764 26.4463 106.666 26.4463Z" fill="#3A3A3A"></path> <path d="M106.667 85.8933C97.7846 86.0594 89.0085 83.9371 81.1831 79.7306C73.7695 75.4446 69.5993 69.5139 69.5993 63.0733C69.5993 56.6327 73.7 50.6785 81.1831 46.4157C95.3848 38.2144 117.672 38.2144 131.897 46.4157C139.333 50.7248 143.48 56.6327 143.48 63.0733C143.48 69.5139 139.38 75.4446 131.897 79.7306C124.15 83.9034 115.465 86.025 106.667 85.8933ZM106.667 47.2268C99.0456 47.0785 91.5115 48.8724 84.7742 52.4395C79.5847 55.4281 76.7348 59.2043 76.7348 63.0733C76.7348 66.9423 79.5847 70.7185 84.7742 73.7071C96.8445 80.6574 116.49 80.6574 128.537 73.7071C133.727 70.7185 136.6 66.9423 136.6 63.0733C136.6 59.2043 133.75 55.4512 128.561 52.4395C121.835 48.8293 114.3 46.9951 106.667 47.1108V47.2268Z" fill="#3A3A3A"></path> <path d="M209.841 202.935C208.92 202.935 208.035 202.569 207.384 201.918C206.732 201.266 206.366 200.382 206.366 199.46V62.957C206.366 62.0354 206.732 61.1514 207.384 60.4997C208.035 59.848 208.92 59.4819 209.841 59.4819C210.763 59.4819 211.647 59.848 212.298 60.4997C212.95 61.1514 213.316 62.0354 213.316 62.957V199.414C213.322 199.874 213.237 200.331 213.065 200.758C212.893 201.185 212.638 201.574 212.315 201.901C211.991 202.229 211.606 202.489 211.182 202.666C210.757 202.844 210.302 202.935 209.841 202.935Z" fill="#3A3A3A"></path> <path d="M106.663 262.638C79.6269 262.638 52.5673 256.684 31.9713 244.799C11.3754 232.914 0 216.836 0 199.646V62.957C0 62.0354 0.366109 61.1514 1.01782 60.4997C1.66954 59.848 2.55347 59.4819 3.47513 59.4819C4.39679 59.4819 5.28073 59.848 5.93244 60.4997C6.58415 61.1514 6.95026 62.0354 6.95026 62.957V199.646C6.95026 214.264 17.0746 228.165 35.4465 238.776C74.8313 261.457 138.611 261.457 177.88 238.776C196.252 228.165 206.377 214.264 206.377 199.646C206.37 198.713 206.731 197.816 207.382 197.149C208.032 196.481 208.92 196.096 209.852 196.078C210.304 196.066 210.754 196.144 211.175 196.308C211.596 196.473 211.98 196.72 212.304 197.035C212.628 197.351 212.885 197.728 213.061 198.144C213.236 198.561 213.327 199.008 213.327 199.46C213.327 216.836 201.975 232.891 181.356 244.799C160.736 256.707 133.723 262.638 106.663 262.638Z" fill="#3A3A3A"></path> <path d="M73.2464 101.438C72.3247 101.438 71.4408 101.072 70.7891 100.42C70.1373 99.7687 69.7712 98.8848 69.7712 97.9631V62.957C69.7712 62.0354 70.1373 61.1514 70.7891 60.4997C71.4408 59.848 72.3247 59.4819 73.2464 59.4819C74.168 59.4819 75.052 59.848 75.7037 60.4997C76.3554 61.1514 76.7215 62.0354 76.7215 62.957V97.9631C76.7215 98.8848 76.3554 99.7687 75.7037 100.42C75.052 101.072 74.168 101.438 73.2464 101.438Z" fill="#3A3A3A"></path> <path d="M140.184 101.438C139.263 101.438 138.379 101.072 137.727 100.42C137.076 99.7687 136.709 98.8848 136.709 97.9631V62.957C136.709 62.0354 137.076 61.1514 137.727 60.4997C138.379 59.848 139.263 59.4819 140.184 59.4819C141.106 59.4819 141.99 59.848 142.641 60.4997C143.293 61.1514 143.659 62.0354 143.659 62.957V97.9631C143.659 98.8848 143.293 99.7687 142.641 100.42C141.99 101.072 141.106 101.438 140.184 101.438Z" fill="#3A3A3A"></path> </svg> 