<?xml version="1.0" encoding="UTF-8"?> <svg xmlns="http://www.w3.org/2000/svg" width="555" height="631" viewBox="0 0 555 631" fill="none"> <path d="M260.106 361.818H315.166V364.328H260.106V361.818Z" fill="#E0DFE6"></path> <path d="M281.462 375.421C275.82 374.823 270.14 374.655 264.473 374.919L264.272 372.409C270.073 372.144 275.886 372.312 281.663 372.911C285.703 373.262 289.894 373.614 293.985 373.614C297.815 373.65 301.637 373.254 305.378 372.434L305.93 374.944C302.011 375.828 298.002 376.249 293.985 376.199C289.794 376.123 285.553 375.772 281.462 375.421Z" fill="#E0DFE6"></path> <path d="M219.587 324.829L219.436 327.338C202.622 326.359 184.654 325.883 164.477 325.883C152.155 325.883 145.881 326.109 137.223 326.435C133.283 326.585 128.892 326.761 123.245 326.912V324.402C128.892 324.251 133.283 324.076 137.198 323.925C145.881 323.599 152.255 323.373 164.552 323.373C184.654 323.298 202.722 323.775 219.587 324.829Z" fill="#E0DFE6"></path> <path d="M118.048 326.535C105.826 340.589 93.2284 355.997 79.5764 373.665C68.9861 387.392 57.6428 402.6 43.8905 421.547L41.8577 420.066C55.6352 401.119 66.9534 385.886 77.5939 372.134C91.271 354.441 103.894 338.983 116.166 324.879L118.048 326.535Z" fill="#E0DFE6"></path> <path d="M271.226 385.058H266.207V382.548H271.226C279.841 382.259 288.466 382.51 297.049 383.301L296.698 385.81C288.23 385.043 279.724 384.791 271.226 385.058Z" fill="#E0DFE6"></path> <path d="M251.785 348.067C257.256 348.569 263.253 348.795 270.13 348.795C277.006 348.795 284.208 348.544 291.084 348.318C297.961 348.093 305.088 347.842 312.014 347.842C315.854 347.842 319.342 347.842 322.655 348.067V350.577H321.601C318.614 350.577 315.477 350.401 312.064 350.401C305.188 350.401 298.086 350.627 291.235 350.878C284.384 351.129 277.182 351.355 270.18 351.355C263.178 351.355 257.155 351.104 251.609 350.602L251.785 348.067Z" fill="#E0DFE6"></path> <path d="M287.244 395.648C286.416 395.648 285.663 395.648 284.735 395.648C281.598 395.648 272.438 395.648 269.678 395.648V393.138C272.187 393.138 281.372 393.138 284.484 393.138C285.362 393.138 286.19 393.138 286.994 393.138C287.797 393.138 289.503 393.289 291.285 393.138V395.648H289.829C289.127 395.748 288.148 395.698 287.244 395.648Z" fill="#E0DFE6"></path> <path d="M276.473 417.431C277.231 417.331 277.999 417.331 278.757 417.431L278.28 419.941C277.721 419.878 277.157 419.878 276.599 419.941H275.595C274.858 419.949 274.127 419.822 273.437 419.564L274.365 417.23C275.048 417.433 275.764 417.501 276.473 417.431Z" fill="#E0DFE6"></path> <path d="M281.677 408.521C279.895 408.521 278.339 408.521 276.884 408.521C275.446 408.446 274.005 408.446 272.567 408.521L272.417 406.012C273.998 406.012 275.453 406.012 276.959 406.012C278.465 406.012 279.895 406.012 281.652 406.012C283.273 405.898 284.9 405.898 286.521 406.012L286.244 408.521C284.723 408.432 283.198 408.432 281.677 408.521Z" fill="#E0DFE6"></path> <path d="M132.079 371.445L134.065 372.979L96.8205 421.203L94.8343 419.669L132.079 371.445Z" fill="#E0DFE6"></path> <path d="M339.613 324.829L339.463 327.338C322.674 326.359 304.705 325.883 284.529 325.883C272.182 325.883 265.908 326.109 257.25 326.435C253.31 326.585 248.918 326.761 243.297 326.912V324.402C248.918 324.251 253.335 324.076 257.225 323.925C265.933 323.599 272.282 323.373 284.604 323.373C304.731 323.298 322.674 323.775 339.613 324.829Z" fill="#E0DFE6"></path> <path d="M140.078 361.818H195.138V364.328H140.078V361.818Z" fill="#E0DFE6"></path> <path d="M143.06 336.899C145.57 336.899 148.23 336.598 151.618 336.598C157.139 336.598 179.223 336.197 184.669 336.197C193.887 336.118 203.102 336.545 212.274 337.477L211.998 339.986C202.934 339.078 193.828 338.659 184.719 338.731C179.223 338.731 157.114 339.133 151.668 339.133C148.355 339.133 145.77 339.283 143.261 339.434C138.632 339.818 133.977 339.767 129.358 339.283L129.634 336.774C134.096 337.234 138.591 337.276 143.06 336.899Z" fill="#E0DFE6"></path> <path d="M161.438 375.421C155.81 374.86 150.147 374.726 144.499 375.019L144.323 372.51C150.125 372.245 155.938 372.413 161.714 373.012C165.755 373.363 169.946 373.714 174.011 373.714C177.85 373.751 181.68 373.355 185.43 372.535L185.982 375.045C182.054 375.929 178.037 376.35 174.011 376.299C169.77 376.124 165.529 375.772 161.438 375.421Z" fill="#E0DFE6"></path> <path d="M126.929 357.076L126.226 358.005C124.118 360.514 121.96 363.225 119.626 366.211C114.959 372.259 110.391 378.633 105.949 384.807C101.507 390.98 96.8647 397.355 92.1468 403.578C87.4288 409.802 83.1123 414.796 78.9214 419.313L77.0894 417.607C81.2302 413.14 85.4965 408.045 90.1391 402.047C94.7818 396.05 99.4747 389.5 103.917 383.326C108.358 377.153 112.951 370.778 117.644 364.68C120.153 361.317 122.663 358.306 125.047 355.52L126.929 357.076Z" fill="#E0DFE6"></path> <path d="M267.463 411.232L269.17 413.064C267.358 414.793 265.757 416.73 264.402 418.836C263.573 420.066 262.62 421.346 261.265 423.203L259.282 421.672C260.612 419.966 261.541 418.61 262.344 417.431C263.786 415.16 265.505 413.077 267.463 411.232Z" fill="#E0DFE6"></path> <path d="M244.883 423.579L242.9 422.048C247.919 415.473 253.741 407.995 260.768 402.825L262.249 404.858C255.498 409.802 249.902 417.13 244.883 423.579Z" fill="#E0DFE6"></path> <path d="M239.859 326.535C227.612 340.589 215.039 356.022 201.387 373.665C190.797 387.417 179.429 402.625 165.676 421.547L163.669 420.066C177.421 401.119 188.764 385.886 199.405 372.134C213.082 354.441 225.68 338.983 237.977 324.879L239.859 326.535Z" fill="#E0DFE6"></path> <path d="M119.157 408.221C122.194 404.908 125.306 401.47 128.091 397.907C130.877 394.343 133.863 390.805 136.9 387.542L138.732 389.249C135.745 392.461 132.583 396.175 130.074 399.437C127.238 403.101 124.076 406.565 121.014 409.902C117.953 413.24 114.841 416.653 112.08 420.242C110.951 421.697 109.947 423.078 109.044 424.483L106.936 423.102C107.889 421.647 108.918 420.217 110.098 418.711C112.908 415.172 116.096 411.584 119.157 408.221Z" fill="#E0DFE6"></path> <path d="M131.757 348.067C137.228 348.569 143.226 348.795 150.102 348.795C156.978 348.795 164.181 348.544 171.057 348.318C177.933 348.093 185.06 347.842 191.986 347.842C195.826 347.842 199.314 347.842 202.627 348.067V350.577H201.573C198.587 350.577 195.45 350.401 192.037 350.401C185.16 350.401 178.058 350.627 171.207 350.878C164.356 351.129 157.154 351.355 150.152 351.355C143.151 351.355 137.128 351.104 131.581 350.602L131.757 348.067Z" fill="#E0DFE6"></path> <path d="M151.199 385.057H146.18V382.548H151.199C159.814 382.259 168.439 382.51 177.022 383.3L176.671 385.81C168.204 385.042 159.697 384.791 151.199 385.057Z" fill="#E0DFE6"></path> <path d="M155.745 417.431C156.705 417.344 157.671 417.344 158.631 417.431L158.28 419.94C157.445 419.861 156.605 419.861 155.77 419.94C154.466 420.051 153.152 419.949 151.881 419.639L152.558 417.13C153.598 417.397 154.674 417.499 155.745 417.431Z" fill="#E0DFE6"></path> <path d="M242.519 406.338C248.718 399.236 255.745 391.281 258.129 388.119L260.111 389.65C257.602 392.787 250.65 400.868 244.427 407.995C239.608 413.491 235.091 418.66 233.887 420.241C232.682 421.822 231.754 423.102 230.825 424.483L228.742 423.102C229.696 421.672 230.725 420.216 231.879 418.71C233.033 417.205 237.5 412.11 242.519 406.338Z" fill="#E0DFE6"></path> <path d="M213.363 377.805C217.002 372.785 220.641 368.017 224.38 363.199C230.538 355.077 237.131 347.294 244.13 339.885L245.937 341.617C239.004 348.948 232.47 356.647 226.363 364.68C222.648 369.498 208.093 389.047 204.379 393.891C198.213 401.99 191.62 409.756 184.629 417.154L182.822 415.423C189.753 408.097 196.279 400.398 202.371 392.36C206.111 387.567 209.749 382.698 213.363 377.805Z" fill="#E0DFE6"></path> <path d="M253.891 371.396L255.877 372.93L218.632 421.154L216.646 419.62L253.891 371.396Z" fill="#E0DFE6"></path> <path d="M248.838 357.076L248.135 358.005C246.027 360.514 243.844 363.225 241.535 366.211C236.867 372.259 232.3 378.633 227.858 384.807C223.416 390.98 218.773 397.355 214.03 403.578C209.287 409.802 205.021 414.796 200.83 419.313L198.998 417.607C203.139 413.165 207.405 408.045 212.048 402.047C216.69 396.05 221.358 389.5 225.825 383.326C230.292 377.153 234.86 370.778 239.552 364.68C242.062 361.317 244.572 358.306 246.956 355.52L248.838 357.076Z" fill="#E0DFE6"></path> <path d="M263.106 336.899C265.616 336.899 268.276 336.598 271.689 336.598C277.185 336.598 299.294 336.197 304.715 336.197C313.933 336.118 323.149 336.545 332.32 337.477L332.044 339.986C322.98 339.078 313.874 338.659 304.765 338.731C299.269 338.731 277.16 339.133 271.739 339.133C268.402 339.133 265.817 339.283 263.307 339.434C258.678 339.818 254.024 339.767 249.404 339.283L249.68 336.774C254.142 337.234 258.637 337.276 263.106 336.899Z" fill="#E0DFE6"></path> <path d="M104.576 364.73C100.837 369.549 86.3062 389.098 82.5669 393.942C76.4011 402.041 69.8084 409.807 62.8168 417.205L61.0098 415.474C67.9428 408.142 74.4772 400.443 80.5844 392.411C84.2986 387.592 98.8539 368.018 102.593 363.2C108.737 355.09 115.322 347.324 122.318 339.936L124.125 341.668C117.201 349 110.675 356.699 104.576 364.73Z" fill="#E0DFE6"></path> <path d="M161.642 408.522C159.861 408.522 158.305 408.522 156.849 408.522C155.411 408.447 153.97 408.447 152.533 408.522L152.357 406.012C153.963 406.012 155.393 406.012 156.924 406.012C158.455 406.012 159.86 406.012 161.592 406.012C163.263 405.893 164.94 405.893 166.611 406.012L166.335 408.522C164.772 408.427 163.205 408.427 161.642 408.522Z" fill="#E0DFE6"></path> <path d="M145.935 411.082L147.24 413.215C143.826 415.689 140.998 418.885 138.959 422.576L136.675 421.572C138.905 417.403 142.075 413.811 145.935 411.082Z" fill="#E0DFE6"></path> <path d="M167.087 395.648C166.259 395.648 165.481 395.648 164.577 395.648C161.44 395.648 152.255 395.648 149.52 395.648L149.67 393.138C152.18 393.138 161.34 393.138 164.477 393.138C165.355 393.138 166.183 393.138 166.986 393.138C167.789 393.138 169.496 393.289 171.278 393.138V395.648H169.847C169.094 395.748 168.116 395.698 167.087 395.648Z" fill="#E0DFE6"></path> <path d="M121.065 422.049C124.704 417.356 130.149 411.183 134.943 405.712L139.962 399.915L141.869 401.571L136.85 407.368C132.082 412.789 126.661 418.962 123.073 423.58L121.065 422.049Z" fill="#E0DFE6"></path> <path d="M370.508 336.749C373.074 337.038 375.655 337.173 378.238 337.15C377.911 337.978 377.56 338.807 377.183 339.66C375.126 339.66 372.917 339.66 370.232 339.258L370.508 336.749Z" fill="#E0DFE6"></path> <path d="M373.016 371.446L375.002 372.98L337.758 421.204L335.772 419.67L373.016 371.446Z" fill="#E0DFE6"></path> <path d="M361.981 422.049C365.62 417.356 371.066 411.183 375.859 405.712L380.878 399.915L382.786 401.571L377.767 407.368C372.999 412.789 367.578 418.962 363.989 423.58L361.981 422.049Z" fill="#E0DFE6"></path> <path d="M386.853 411.082L388.158 413.215C384.73 415.718 381.908 418.96 379.902 422.701L377.593 421.697C379.806 417.483 382.978 413.847 386.853 411.082Z" fill="#E0DFE6"></path> <path d="M332.494 377.805C336.133 372.786 339.772 368.018 343.511 363.2C349.655 355.09 356.24 347.324 363.236 339.936L365.043 341.668C358.119 349 351.593 356.699 345.493 364.73C341.754 369.549 327.224 389.098 323.485 393.942C317.319 402.041 310.726 409.807 303.734 417.205L301.928 415.474C308.86 408.142 315.395 400.443 321.502 392.411C325.191 387.567 328.855 382.699 332.494 377.805Z" fill="#E0DFE6"></path> <path d="M406.605 421.547L404.598 420.066C418.35 401.119 429.693 385.886 440.334 372.134C451.978 357.076 462.92 343.6 473.435 331.228C474.89 330.801 476.321 330.4 477.776 330.023C466.483 343.148 454.839 357.453 442.316 373.665C431.726 387.417 420.358 402.625 406.605 421.547Z" fill="#E0DFE6"></path> <path d="M360.074 408.221C363.11 404.908 366.247 401.47 369.008 397.907C371.768 394.343 374.78 390.805 377.816 387.542L379.648 389.249C376.662 392.461 373.5 396.175 370.99 399.437C368.155 403.101 364.993 406.565 361.931 409.902C358.869 413.24 355.757 416.653 352.997 420.242C351.868 421.697 350.864 423.078 349.96 424.483L347.852 423.102C348.806 421.647 349.835 420.217 351.014 418.711C353.825 415.172 357.012 411.584 360.074 408.221Z" fill="#E0DFE6"></path> <path d="M489.756 357.076L489.053 358.005C486.945 360.514 484.761 363.225 482.453 366.211C477.785 372.259 473.217 378.633 468.776 384.807C464.334 390.98 459.691 397.355 454.948 403.578C450.205 409.802 445.939 414.796 441.748 419.313L439.916 417.607C444.056 413.165 448.323 408.045 452.965 402.047C457.608 396.05 462.276 389.5 466.743 383.326C471.21 377.153 475.777 370.778 480.47 364.68C482.98 361.317 485.489 358.306 487.873 355.52L489.756 357.076Z" fill="#E0DFE6"></path> <path d="M454.28 377.805C457.919 372.785 461.558 368.017 465.297 363.199C471.455 355.077 478.048 347.294 485.047 339.885L486.854 341.617C479.921 348.948 473.387 356.647 467.279 364.68C463.565 369.498 449.035 389.047 445.296 393.891C439.13 401.99 432.537 409.756 425.545 417.154L423.739 415.423C430.67 408.097 437.196 400.398 443.288 392.36C447.027 387.567 450.666 382.698 454.28 377.805Z" fill="#E0DFE6"></path> <path d="M380.995 361.818H436.055V364.328H380.995V361.818Z" fill="#E0DFE6"></path> <path d="M402.355 375.421C396.727 374.86 391.064 374.726 385.416 375.019L385.24 372.51C391.041 372.245 396.855 372.413 402.631 373.012C406.672 373.363 410.863 373.714 414.928 373.714C418.766 373.751 422.597 373.355 426.346 372.535L426.899 375.045C422.971 375.93 418.954 376.351 414.928 376.299C410.687 376.124 406.446 375.772 402.355 375.421Z" fill="#E0DFE6"></path> <path d="M319.887 419.288L318.055 417.581C322.195 413.114 326.462 408.02 331.104 402.022C335.747 396.024 340.44 389.474 344.882 383.301C349.324 377.127 353.916 370.753 358.609 364.655C361.119 361.292 363.628 358.28 366.012 355.495L367.945 357.076L367.242 358.004C365.134 360.514 362.976 363.224 360.642 366.211C355.999 372.259 351.407 378.633 346.965 384.807C342.523 390.98 337.88 397.354 333.162 403.578C328.444 409.802 324.078 414.771 319.887 419.288Z" fill="#E0DFE6"></path> <path d="M442.44 350.577C439.454 350.577 436.317 350.401 432.904 350.401C426.028 350.401 418.926 350.627 412.075 350.878C405.224 351.129 398.021 351.355 391.02 351.355C384.018 351.355 377.995 351.104 372.449 350.602L372.625 348.569L375.335 348.318C380.103 348.669 385.248 348.845 391.02 348.845C397.971 348.845 405.098 348.594 411.975 348.368C418.851 348.142 425.978 347.891 432.904 347.891C436.744 347.891 440.232 347.891 443.545 348.117V350.627L442.44 350.577Z" fill="#E0DFE6"></path> <path d="M402.56 408.522C400.778 408.522 399.222 408.522 397.767 408.522C396.329 408.447 394.888 408.447 393.45 408.522L393.275 406.012C394.881 406.012 396.311 406.012 397.842 406.012C399.373 406.012 400.778 406.012 402.51 406.012C404.181 405.893 405.858 405.893 407.529 406.012L407.253 408.522C405.69 408.427 404.123 408.427 402.56 408.522Z" fill="#E0DFE6"></path> <path d="M392.116 385.057H387.097V382.548H392.116C400.731 382.259 409.356 382.51 417.939 383.3L417.588 385.81C409.12 385.042 400.614 384.791 392.116 385.057Z" fill="#E0DFE6"></path> <path d="M396.663 417.431C397.623 417.344 398.589 417.344 399.549 417.431L399.198 419.94C398.363 419.861 397.523 419.861 396.688 419.94C395.384 420.051 394.07 419.949 392.798 419.639L393.476 417.13C394.516 417.397 395.591 417.499 396.663 417.431Z" fill="#E0DFE6"></path> <path d="M408.003 395.648C407.175 395.648 406.397 395.648 405.494 395.648C402.357 395.648 393.172 395.648 390.437 395.648L390.587 393.138C393.097 393.138 402.257 393.138 405.394 393.138C406.272 393.138 407.1 393.138 407.903 393.138C408.706 393.138 410.413 393.289 412.194 393.138V395.648H410.739C410.011 395.748 409.032 395.698 408.003 395.648Z" fill="#E0DFE6"></path> <path d="M378.134 326.359C374.194 326.509 369.803 326.685 364.156 326.836V324.326C369.803 324.176 380.82 323.749 382.099 323.699C382.099 324.552 381.823 325.405 381.648 326.208L378.134 326.359Z" fill="#E0DFE6"></path> <path d="M358.965 326.535C346.743 340.589 334.145 355.997 320.493 373.665C309.903 387.392 298.56 402.6 284.807 421.547L282.774 420.066C296.552 401.119 307.87 385.886 318.511 372.134C332.188 354.441 344.811 338.983 357.082 324.879L358.965 326.535Z" fill="#E0DFE6"></path> <path d="M132.079 266.043L134.065 267.577L96.8205 315.801L94.8343 314.267L132.079 266.043Z" fill="#E0DFE6"></path> <path d="M267.463 305.831L269.17 307.663C267.358 309.391 265.757 311.329 264.402 313.435C263.573 314.664 262.62 315.944 261.265 317.801L259.282 316.271C260.612 314.564 261.541 313.209 262.344 312.029C263.786 309.758 265.505 307.676 267.463 305.831Z" fill="#E0DFE6"></path> <path d="M118.048 221.133C105.826 235.187 93.2284 250.596 79.5764 268.263C68.9861 281.99 57.6428 297.198 43.8905 316.145L41.8577 314.665C55.6352 295.717 66.9534 280.484 77.5939 266.732C91.271 249.04 103.894 233.581 116.166 219.477L118.048 221.133Z" fill="#E0DFE6"></path> <path d="M244.883 318.178L242.9 316.647C247.919 310.072 253.741 302.593 260.768 297.424L262.249 299.456C255.498 304.4 249.902 311.728 244.883 318.178Z" fill="#E0DFE6"></path> <path d="M121.065 316.647C124.704 311.954 130.149 305.781 134.943 300.31L139.962 294.513L141.869 296.169L136.85 301.967C132.082 307.387 126.661 313.561 123.073 318.178L121.065 316.647Z" fill="#E0DFE6"></path> <path d="M287.244 290.246C286.416 290.246 285.663 290.246 284.735 290.246C281.598 290.246 272.438 290.246 269.678 290.246V287.737C272.187 287.737 281.372 287.737 284.484 287.737C285.362 287.737 286.19 287.737 286.994 287.737C287.797 287.737 289.503 287.887 291.285 287.737V290.246H289.829C289.127 290.347 288.148 290.297 287.244 290.246Z" fill="#E0DFE6"></path> <path d="M276.473 312.03C277.231 311.929 277.999 311.929 278.757 312.03L278.28 314.539C277.721 314.476 277.157 314.476 276.599 314.539H275.595C274.858 314.548 274.127 314.42 273.437 314.163L274.365 311.829C275.048 312.031 275.764 312.099 276.473 312.03Z" fill="#E0DFE6"></path> <path d="M126.929 251.675L126.226 252.603C124.118 255.113 121.96 257.823 119.626 260.809C114.959 266.857 110.391 273.232 105.949 279.405C101.507 285.579 96.8647 291.953 92.1468 298.177C87.4288 304.4 83.1123 309.394 78.9214 313.912L77.0894 312.205C81.2302 307.738 85.4965 302.644 90.1391 296.646C94.7818 290.648 99.4747 284.098 103.917 277.925C108.358 271.751 112.951 265.377 117.644 259.279C120.153 255.916 122.663 252.904 125.047 250.119L126.929 251.675Z" fill="#E0DFE6"></path> <path d="M281.677 303.121C279.895 303.121 278.339 303.121 276.884 303.121C275.446 303.045 274.005 303.045 272.567 303.121L272.417 300.611C273.998 300.611 275.453 300.611 276.959 300.611C278.465 300.611 279.895 300.611 281.652 300.611C283.273 300.497 284.9 300.497 286.521 300.611L286.244 303.121C284.723 303.031 283.198 303.031 281.677 303.121Z" fill="#E0DFE6"></path> <path d="M104.576 259.329C100.837 264.147 86.3062 283.696 82.5669 288.54C76.4011 296.639 69.8084 304.405 62.8168 311.804L61.0098 310.072C67.9428 302.74 74.4772 295.042 80.5844 287.009C84.2986 282.191 98.8539 262.616 102.593 257.798C108.737 249.688 115.322 241.922 122.318 234.534L124.125 236.266C117.201 243.599 110.675 251.297 104.576 259.329Z" fill="#E0DFE6"></path> <path d="M239.859 221.133C227.612 235.187 215.039 250.621 201.387 268.263C190.797 282.015 179.429 297.223 165.676 316.145L163.669 314.665C177.421 295.717 188.764 280.484 199.405 266.732C213.082 249.04 225.68 233.581 237.977 219.477L239.859 221.133Z" fill="#E0DFE6"></path> <path d="M161.438 270.019C155.81 269.459 150.147 269.324 144.499 269.618L144.323 267.108C150.125 266.843 155.938 267.011 161.714 267.61C165.755 267.962 169.946 268.313 174.011 268.313C177.85 268.349 181.68 267.954 185.43 267.133L185.982 269.643C182.054 270.527 178.037 270.948 174.011 270.898C169.77 270.722 165.529 270.371 161.438 270.019Z" fill="#E0DFE6"></path> <path d="M271.226 279.657H266.207V277.147H271.226C279.841 276.858 288.466 277.109 297.049 277.9L296.698 280.41C288.23 279.642 279.724 279.391 271.226 279.657Z" fill="#E0DFE6"></path> <path d="M145.935 305.68L147.24 307.813C143.826 310.287 140.998 313.483 138.959 317.174L136.675 316.17C138.905 312.001 142.075 308.41 145.935 305.68Z" fill="#E0DFE6"></path> <path d="M119.157 302.819C122.194 299.507 125.306 296.069 128.091 292.505C130.877 288.941 133.863 285.403 136.9 282.141L138.732 283.847C135.745 287.059 132.583 290.773 130.074 294.036C127.238 297.7 124.076 301.163 121.014 304.501C117.953 307.838 114.841 311.251 112.08 314.84C110.951 316.296 109.947 317.676 109.044 319.081L106.936 317.701C107.889 316.245 108.918 314.815 110.098 313.309C112.908 309.771 116.096 306.182 119.157 302.819Z" fill="#E0DFE6"></path> <path d="M155.745 312.029C156.705 311.942 157.671 311.942 158.631 312.029L158.28 314.539C157.445 314.459 156.605 314.459 155.77 314.539C154.466 314.649 153.152 314.548 151.881 314.238L152.558 311.728C153.598 311.995 154.674 312.097 155.745 312.029Z" fill="#E0DFE6"></path> <path d="M161.642 303.12C159.861 303.12 158.305 303.12 156.849 303.12C155.411 303.045 153.97 303.045 152.533 303.12L152.357 300.611C153.963 300.611 155.393 300.611 156.924 300.611C158.455 300.611 159.86 300.611 161.592 300.611C163.263 300.491 164.94 300.491 166.611 300.611L166.335 303.12C164.772 303.025 163.205 303.025 161.642 303.12Z" fill="#E0DFE6"></path> <path d="M253.891 265.993L255.877 267.527L218.632 315.751L216.646 314.217L253.891 265.993Z" fill="#E0DFE6"></path> <path d="M167.087 290.246C166.259 290.246 165.481 290.246 164.577 290.246C161.44 290.246 152.255 290.246 149.52 290.246L149.67 287.737C152.18 287.737 161.34 287.737 164.477 287.737C165.355 287.737 166.183 287.737 166.986 287.737C167.789 287.737 169.496 287.887 171.278 287.737V290.246H169.847C169.094 290.347 168.116 290.297 167.087 290.246Z" fill="#E0DFE6"></path> <path d="M242.519 300.937C248.718 293.835 255.745 285.879 258.129 282.717L260.111 284.248C257.602 287.385 250.65 295.466 244.427 302.593C239.608 308.089 235.091 313.259 233.887 314.84C232.682 316.421 231.754 317.701 230.825 319.081L228.742 317.701C229.696 316.27 230.725 314.815 231.879 313.309C233.033 311.803 237.5 306.709 242.519 300.937Z" fill="#E0DFE6"></path> <path d="M248.838 251.675L248.135 252.603C246.027 255.113 243.844 257.823 241.535 260.809C236.867 266.857 232.3 273.232 227.858 279.405C223.416 285.579 218.773 291.953 214.03 298.177C209.287 304.4 205.021 309.394 200.83 313.912L198.998 312.205C203.139 307.763 207.405 302.644 212.048 296.646C216.69 290.648 221.358 284.098 225.825 277.925C230.292 271.751 234.86 265.377 239.552 259.279C242.062 255.916 244.572 252.904 246.956 250.119L248.838 251.675Z" fill="#E0DFE6"></path> <path d="M213.363 272.404C217.002 267.385 220.641 262.617 224.38 257.798C230.538 249.676 237.131 241.894 244.13 234.485L245.937 236.216C239.004 243.548 232.47 251.247 226.363 259.279C222.648 264.097 208.093 283.647 204.379 288.49C198.213 296.59 191.62 304.355 184.629 311.754L182.822 310.022C189.753 302.696 196.279 294.997 202.371 286.959C206.111 282.166 209.749 277.298 213.363 272.404Z" fill="#E0DFE6"></path> <path d="M281.462 270.02C275.82 269.422 270.14 269.255 264.473 269.518L264.272 267.009C270.073 266.744 275.886 266.911 281.663 267.51C285.703 267.862 289.894 268.213 293.985 268.213C297.815 268.25 301.637 267.854 305.378 267.034L305.93 269.543C302.011 270.427 298.002 270.848 293.985 270.798C289.794 270.723 285.553 270.371 281.462 270.02Z" fill="#E0DFE6"></path> <path d="M151.199 279.656H146.18V277.147H151.199C159.814 276.858 168.439 277.11 177.022 277.9L176.671 280.409C168.204 279.642 159.697 279.39 151.199 279.656Z" fill="#E0DFE6"></path> <path d="M360.602 260.784C355.959 266.832 351.367 273.206 346.925 279.38C342.483 285.553 337.84 291.928 333.122 298.151C328.404 304.375 324.088 309.369 319.897 313.886L318.065 312.18C322.206 307.713 326.472 302.618 331.114 296.621C335.757 290.623 340.45 284.073 344.892 277.899C349.334 271.726 353.926 265.351 358.619 259.253C359.171 258.525 359.698 257.898 360.225 257.22C360.702 257.973 361.179 258.726 361.631 259.479L360.602 260.784Z" fill="#E0DFE6"></path> <path d="M380.677 294.714C380.953 295.717 381.179 296.746 381.354 297.775L377.741 301.891C372.973 307.311 367.552 313.485 363.963 318.103L361.981 316.572C365.619 311.879 371.065 305.705 375.859 300.235C377.615 298.302 379.271 296.445 380.677 294.714Z" fill="#E0DFE6"></path> <path d="M344.26 238.499C336.732 247.734 328.751 257.572 320.495 268.263C309.905 281.99 298.561 297.198 284.809 316.145L282.776 314.664C296.554 295.717 307.872 280.484 318.512 266.732C326.794 256.016 334.674 246.128 342.353 236.868L343.733 238.022C343.921 238.168 344.097 238.327 344.26 238.499Z" fill="#E0DFE6"></path> <path d="M332.498 272.403C336.137 267.384 339.776 262.616 343.515 257.798C346.627 253.732 349.563 250.093 352.399 246.706C352.951 247.333 353.478 248.011 354.005 248.663C351.295 251.926 348.484 255.439 345.498 259.329C341.758 264.147 327.228 283.696 323.489 288.54C317.323 296.639 310.73 304.405 303.739 311.803L301.932 310.072C308.865 302.74 315.399 295.041 321.506 287.009C325.195 282.166 328.859 277.297 332.498 272.403Z" fill="#E0DFE6"></path> <path d="M377.583 316.17C378.886 313.615 380.579 311.278 382.602 309.244C382.602 310.448 382.727 311.753 382.727 312.858C381.587 314.204 380.633 315.699 379.891 317.299L377.583 316.17Z" fill="#E0DFE6"></path> <path d="M360.067 302.819C363.103 299.506 366.24 296.068 369.001 292.505C371.033 289.995 373.442 286.959 375.877 284.248C376.354 284.976 376.83 285.729 377.257 286.482C375.049 288.991 372.84 291.501 370.983 294.01C368.147 297.674 364.985 301.138 361.924 304.475C358.862 307.813 355.75 311.226 352.99 314.815C351.86 316.27 350.856 317.651 349.953 319.056L347.845 317.676C348.799 316.22 349.828 314.79 351.007 313.284C353.818 309.771 357.005 306.182 360.067 302.819Z" fill="#E0DFE6"></path> <path d="M335.784 314.163L367.856 272.479C368.208 273.383 368.559 274.311 368.885 275.265L337.742 315.694L335.784 314.163Z" fill="#E0DFE6"></path> <path d="M46.3277 395.648C45.4996 395.648 44.7467 395.648 43.8182 395.648C40.6812 395.648 31.5214 395.648 28.7608 395.648V393.138C31.2704 393.138 40.4554 393.138 43.5673 393.138C44.4456 393.138 45.2738 393.138 46.0768 393.138C46.8799 393.138 48.5863 393.289 50.3681 393.138V395.648H48.9125C48.2098 395.748 47.2312 395.698 46.3277 395.648Z" fill="#E0DFE6"></path> <path d="M14.979 372.886L6.39624 383.978C6.06999 383.025 5.76886 382.046 5.46771 381.092L12.9964 371.33L14.979 372.886Z" fill="#E0DFE6"></path> <path d="M47.3103 338.907C41.7893 338.907 36.2933 339.108 30.7723 339.108C27.4346 339.108 24.8498 339.258 22.3402 339.409C17.7114 339.792 13.0568 339.742 8.43737 339.258L8.71338 336.749C13.1909 337.22 17.7027 337.27 22.1897 336.899C24.6992 336.899 27.3593 336.598 30.7723 336.598C36.2682 336.598 58.3775 336.197 63.7981 336.197C73.0163 336.118 82.2318 336.545 91.4032 337.477L91.127 339.986C82.0632 339.078 72.9571 338.659 63.8482 338.731C58.3021 338.706 52.8063 338.807 47.3103 338.907Z" fill="#E0DFE6"></path> <path d="M80.6327 350.576C77.6463 350.576 74.5094 350.401 71.0964 350.401C64.2202 350.401 57.1182 350.627 50.2672 350.877C43.4161 351.128 36.2136 351.354 29.212 351.354C22.2103 351.354 16.1873 351.103 10.6412 350.601L10.8671 348.092C16.338 348.594 22.3358 348.82 29.212 348.82C36.0881 348.82 43.2905 348.569 50.1667 348.343C57.0428 348.117 64.17 347.866 71.0964 347.866C74.936 347.866 78.4243 347.866 81.7369 348.092V350.601L80.6327 350.576Z" fill="#E0DFE6"></path> <path d="M5.0194 341.668C3.3631 343.399 1.70679 345.181 0.000296932 347.088C0.000296932 345.808 0.000296932 344.579 0.000296932 343.299C1.05431 342.144 2.10835 341.015 3.16236 339.936L5.0194 341.668Z" fill="#E0DFE6"></path> <path d="M19.8319 402.825L21.3124 404.858C20.4341 405.51 19.5808 406.188 18.8029 406.916C18.301 406.238 17.7991 405.586 17.3223 404.883C18.0752 404.18 19.0288 403.478 19.8319 402.825Z" fill="#E0DFE6"></path> <path d="M35.5565 417.431C36.3144 417.331 37.0822 417.331 37.8401 417.431L37.3633 419.941C36.8046 419.878 36.2406 419.878 35.6819 419.941H34.678C33.9416 419.949 33.2099 419.822 32.5198 419.564L33.4484 417.23C34.1315 417.433 34.8474 417.501 35.5565 417.431Z" fill="#E0DFE6"></path> <path d="M7.92116 357.076L7.21841 358.005C5.41153 360.138 3.55451 362.472 1.62215 364.956C1.42139 363.827 1.24566 362.698 1.09509 361.543C2.77649 359.435 4.4328 357.402 6.1142 355.52L7.92116 357.076Z" fill="#E0DFE6"></path> <path d="M30.3092 385.057H25.2901V382.548H30.3092C38.9243 382.259 47.5489 382.51 56.1325 383.301L55.7812 385.81C47.3137 385.043 38.8073 384.791 30.3092 385.057Z" fill="#E0DFE6"></path> <path d="M19.1883 361.818H74.2479V364.328H19.1883V361.818Z" fill="#E0DFE6"></path> <path d="M40.7521 408.522C38.9704 408.522 37.4145 408.522 35.959 408.522C34.5211 408.447 33.0804 408.447 31.6426 408.522L31.4919 406.012C33.0729 406.012 34.5286 406.012 36.0343 406.012C37.54 406.012 38.9705 406.012 40.702 406.012C42.3729 405.893 44.0503 405.893 45.7212 406.012L45.4451 408.522C43.8823 408.427 42.315 408.427 40.7521 408.522Z" fill="#E0DFE6"></path> <path d="M40.5455 375.421C34.9032 374.823 29.2236 374.655 23.5558 374.919L23.355 372.409C29.1565 372.144 34.9697 372.312 40.7462 372.911C44.7866 373.262 48.9776 373.614 53.0682 373.614C56.8983 373.65 60.7201 373.254 64.4615 372.434L65.0137 374.944C61.0947 375.828 57.0854 376.249 53.0682 376.199C48.8772 376.123 44.6361 375.772 40.5455 375.421Z" fill="#E0DFE6"></path> <path d="M98.6967 324.829L98.5461 327.338C81.7572 326.359 63.7637 325.883 43.612 325.883C31.265 325.883 24.9911 326.109 16.3331 326.435C12.3931 326.585 8.00139 326.761 2.35489 326.912V324.402C7.97629 324.251 12.3931 324.076 16.2829 323.925C24.991 323.599 31.3403 323.373 43.6622 323.373C63.8139 323.298 81.7572 323.775 98.6967 324.829Z" fill="#E0DFE6"></path> <path d="M28.3312 413.064C27.4402 413.844 26.6019 414.683 25.8216 415.574C25.2444 414.971 24.6421 414.369 24.09 413.742C24.8782 412.858 25.7161 412.02 26.5996 411.232L28.3312 413.064Z" fill="#E0DFE6"></path> <path d="M19.1948 389.65C17.9651 391.256 15.556 394.117 12.6449 397.48L11.3399 395.146C13.8494 392.109 16.1081 389.575 17.2123 388.119L19.1948 389.65Z" fill="#E0DFE6"></path> <path d="M40.5455 270.019C36.4801 269.693 32.2137 269.392 28.2236 269.367C28.876 268.539 29.5787 267.711 30.2563 266.857C33.7446 266.857 37.3332 267.184 40.7462 267.46C44.7866 267.811 48.9776 268.162 53.0682 268.162C56.8983 268.199 60.7201 267.803 64.4615 266.983L65.0137 269.492C61.0947 270.377 57.0854 270.798 53.0682 270.747C48.8772 270.722 44.6361 270.371 40.5455 270.019Z" fill="#E0DFE6"></path> <path d="M26.5465 305.831L28.253 307.663C26.4408 309.391 24.8403 311.329 23.4849 313.435C22.6568 314.664 21.7031 315.944 20.348 317.801L18.3653 316.271C19.6954 314.564 20.624 313.209 21.4271 312.029C22.8689 309.758 24.5887 307.676 26.5465 305.831Z" fill="#E0DFE6"></path> <path d="M35.5565 312.03C36.3144 311.929 37.0822 311.929 37.8401 312.03L37.3633 314.539C36.8046 314.476 36.2406 314.476 35.6819 314.539H34.678C33.9416 314.548 33.2099 314.42 32.5198 314.163L33.4484 311.829C34.1315 312.031 34.8474 312.099 35.5565 312.03Z" fill="#E0DFE6"></path> <path d="M30.3092 279.657H25.2901V277.147H30.3092C38.9243 276.858 47.5489 277.11 56.1325 277.9L55.7812 280.41C47.3137 279.642 38.8073 279.391 30.3092 279.657Z" fill="#E0DFE6"></path> <path d="M46.3277 290.246C45.4996 290.246 44.7467 290.246 43.8182 290.246C40.6812 290.246 31.5214 290.246 28.7608 290.246V287.737C31.2704 287.737 40.4554 287.737 43.5673 287.737C44.4456 287.737 45.2738 287.737 46.0768 287.737C46.8799 287.737 48.5863 287.887 50.3681 287.737V290.246H48.9125C48.2098 290.347 47.2312 290.297 46.3277 290.246Z" fill="#E0DFE6"></path> <path d="M40.7521 303.12C38.9704 303.12 37.4145 303.12 35.959 303.12C34.5211 303.045 33.0804 303.045 31.6426 303.12L31.4919 300.611C33.0729 300.611 34.5286 300.611 36.0343 300.611C37.54 300.611 38.9705 300.611 40.702 300.611C42.3729 300.491 44.0503 300.491 45.7212 300.611L45.4451 303.12C43.8823 303.025 42.315 303.025 40.7521 303.12Z" fill="#E0DFE6"></path> <path d="M15.0791 289.243C16.108 287.336 17.2122 285.453 18.3415 283.596L19.1948 284.249C18.3415 285.378 16.8608 287.185 15.0791 289.243Z" fill="#E0DFE6"></path> <path d="M3.96591 318.178L3.66478 317.952C4.1165 316.146 4.59323 314.364 5.14533 312.607C9.36552 306.965 14.3101 301.902 19.8514 297.55L21.332 299.582C14.5813 304.401 8.98502 311.729 3.96591 318.178Z" fill="#E0DFE6"></path> <path d="M91.3445 442.777L91.0935 445.01C83.4684 444.61 75.9022 443.45 68.5075 441.547C77.1153 441.748 84.4935 442.149 91.3445 442.777Z" fill="#E0DFE6"></path> <path d="M98.6967 430.229L98.5461 432.739C82.0082 431.785 64.3409 431.308 44.5656 431.283C43.2857 430.48 42.056 429.652 40.7761 428.774H43.612C63.8139 428.698 81.7572 429.175 98.6967 430.229Z" fill="#E0DFE6"></path> <path d="M339.613 535.631L339.463 538.14C322.674 537.162 304.705 536.685 284.529 536.685C272.182 536.685 265.908 536.911 257.25 537.237C256.296 536.459 255.368 535.656 254.439 534.727H257.175C265.883 534.401 272.232 534.175 284.554 534.175C304.731 534.1 322.674 534.577 339.613 535.631Z" fill="#E0DFE6"></path> <path d="M304.715 546.999C313.933 546.92 323.149 547.348 332.32 548.279L332.044 550.788C322.98 549.88 313.874 549.462 304.765 549.534C299.269 549.534 281.426 549.86 277.988 549.91C276.256 549.107 274.55 548.304 272.969 547.4C277.938 547.4 299.194 546.999 304.715 546.999Z" fill="#E0DFE6"></path> <path d="M313.091 558.644C316.077 558.644 318.838 558.644 321.498 558.819C318.737 558.87 315.927 558.819 313.091 558.644Z" fill="#E0DFE6"></path> <path d="M397.842 616.765C399.272 616.765 400.778 616.765 402.51 616.765C404.181 616.645 405.858 616.645 407.529 616.765L407.253 619.274C405.732 619.184 404.207 619.184 402.685 619.274C401.506 619.274 400.452 619.274 399.448 619.274C397.566 618.446 395.709 617.593 393.852 616.765C395.132 616.689 396.462 616.714 397.842 616.765Z" fill="#E0DFE6"></path> <path d="M454.28 588.607C457.919 583.588 461.558 578.82 465.297 574.001C471.455 565.879 478.048 558.097 485.047 550.687L486.854 552.419C479.921 559.751 473.387 567.449 467.279 575.482C463.565 580.3 449.035 599.85 445.296 604.693C439.13 612.793 432.537 620.558 425.545 627.957L423.739 626.225C430.67 618.899 437.196 611.2 443.288 603.162C447.027 598.369 450.666 593.5 454.28 588.607Z" fill="#E0DFE6"></path> <path d="M377.896 598.37L379.728 600.076C377.871 602.084 375.938 604.292 374.131 606.451C373.429 605.999 372.701 605.572 371.998 605.095C373.805 602.787 375.838 600.453 377.896 598.37Z" fill="#E0DFE6"></path> <path d="M392.116 595.859H387.097V593.35H392.116C400.731 593.061 409.356 593.313 417.939 594.103L417.588 596.612C409.12 595.845 400.614 595.593 392.116 595.859Z" fill="#E0DFE6"></path> <path d="M408.003 606.45C407.175 606.45 406.397 606.45 405.494 606.45C402.357 606.45 393.172 606.45 390.437 606.45L390.587 603.941C393.097 603.941 402.257 603.941 405.394 603.941C406.272 603.941 407.1 603.941 407.903 603.941C408.706 603.941 410.413 604.091 412.194 603.941V606.45H410.739C410.011 606.551 409.032 606.5 408.003 606.45Z" fill="#E0DFE6"></path> <path d="M402.355 586.223C396.727 585.662 391.064 585.528 385.416 585.822L385.24 583.312C391.041 583.047 396.855 583.215 402.631 583.814C406.672 584.165 410.863 584.517 414.928 584.517C418.766 584.553 422.597 584.157 426.346 583.337L426.899 585.847C422.971 586.732 418.954 587.153 414.928 587.102C410.687 586.926 406.446 586.575 402.355 586.223Z" fill="#E0DFE6"></path> <path d="M364.74 629.413L366.748 630.894C366.115 630.353 365.444 629.858 364.74 629.413Z" fill="#E0DFE6"></path> <path d="M460.503 535.631L460.353 538.14C443.539 537.162 425.571 536.685 405.394 536.685C393.072 536.685 386.798 536.911 378.14 537.237C374.2 537.388 369.808 537.563 364.162 537.714V535.204C369.808 535.054 374.2 534.878 378.115 534.727C386.798 534.401 393.172 534.175 405.469 534.175C425.57 534.1 443.639 534.577 460.503 535.631Z" fill="#E0DFE6"></path> <path d="M480.776 537.337C468.529 551.391 455.956 566.825 442.304 584.467C433.144 596.362 423.407 609.362 412.039 624.896L409.68 623.892C421.199 608.107 431.036 594.957 440.322 582.936C453.999 565.243 466.597 549.785 478.893 535.681L480.776 537.337Z" fill="#E0DFE6"></path> <path d="M375.002 583.689L363.283 598.746L361.326 597.165L373.02 582.108L375.002 583.689Z" fill="#E0DFE6"></path> <path d="M489.756 567.878L489.053 568.807C486.945 571.316 484.761 574.027 482.453 577.013C477.785 583.061 473.217 589.436 468.776 595.609C464.334 601.783 459.691 608.157 454.948 614.381C450.205 620.604 445.939 625.598 441.748 630.115L439.916 628.409C444.056 623.967 448.323 618.848 452.965 612.85C457.608 606.852 462.276 600.302 466.743 594.128C471.21 587.955 475.777 581.581 480.47 575.482C482.98 572.12 485.489 569.108 487.873 566.323L489.756 567.878Z" fill="#E0DFE6"></path> <path d="M358.965 537.337C351.085 546.397 343.029 556.059 334.647 566.498C334.195 565.72 333.744 564.942 333.317 564.164C341.498 553.976 349.353 544.565 357.082 535.681L358.965 537.337Z" fill="#E0DFE6"></path> <path d="M345.495 575.533C344.667 576.587 343.889 577.641 342.986 578.695C342.433 578.017 341.931 577.315 341.404 576.612C342.057 575.759 342.735 574.855 343.412 574.103C349.556 565.993 356.141 558.226 363.137 550.839L364.944 552.571C358.057 559.873 351.565 567.538 345.495 575.533Z" fill="#E0DFE6"></path> <path d="M367.846 567.878L367.143 568.807C365.035 571.316 362.877 574.027 360.543 577.013C357.607 580.828 354.721 584.768 351.86 588.708L350.078 586.876C352.864 583.036 355.7 579.197 358.56 575.482C361.421 571.768 363.58 569.108 365.964 566.323L367.846 567.878Z" fill="#E0DFE6"></path> <path d="M409.097 549.709C403.576 549.709 398.08 549.91 392.559 549.91C389.222 549.91 386.637 550.061 384.127 550.211C379.499 550.595 374.844 550.544 370.225 550.061L370.501 547.551C374.978 548.022 379.49 548.073 383.977 547.702C386.486 547.702 389.146 547.4 392.559 547.4C398.055 547.4 420.165 546.999 425.585 546.999C434.803 546.92 444.019 547.348 453.19 548.279L452.914 550.788C443.851 549.88 434.744 549.462 425.636 549.534C420.089 549.508 414.593 549.609 409.097 549.709Z" fill="#E0DFE6"></path> <path d="M442.44 561.379C439.454 561.379 436.317 561.203 432.904 561.203C426.028 561.203 418.926 561.429 412.075 561.68C405.224 561.931 398.021 562.157 391.02 562.157C384.018 562.157 377.995 561.906 372.449 561.404L372.675 558.894C378.146 559.396 384.143 559.622 391.02 559.622C397.896 559.622 405.098 559.371 411.975 559.145C418.851 558.919 425.978 558.668 432.904 558.668C436.744 558.668 440.232 558.668 443.545 558.894V561.404L442.44 561.379Z" fill="#E0DFE6"></path> <path d="M380.995 572.622H436.055V575.131H380.995V572.622Z" fill="#E0DFE6"></path> <path d="M260.106 467.22H315.166V469.73H260.106V467.22Z" fill="#E0DFE6"></path> <path d="M251.785 453.468C257.256 453.97 263.253 454.196 270.13 454.196C277.006 454.196 284.208 453.945 291.084 453.719C297.961 453.493 305.088 453.242 312.014 453.242C315.854 453.242 319.342 453.242 322.655 453.468V455.978H321.601C318.614 455.978 315.477 455.802 312.064 455.802C305.188 455.802 298.086 456.028 291.235 456.279C284.384 456.53 277.182 456.756 270.18 456.756C263.178 456.756 257.155 456.505 251.609 456.003L251.785 453.468Z" fill="#E0DFE6"></path> <path d="M245.937 447.069C239.004 454.4 232.47 462.099 226.363 470.131L223.376 474.071C223.376 472.741 223.226 471.436 223.226 470.131C223.602 469.604 224.004 469.102 224.38 468.601C230.538 460.479 237.131 452.696 244.13 445.287L245.937 447.069Z" fill="#E0DFE6"></path> <path d="M239.859 431.936C235.208 437.29 230.49 442.844 225.705 448.6C226.182 446.617 226.759 444.66 227.361 442.702C230.95 438.436 234.463 434.295 237.977 430.154L239.859 431.936Z" fill="#E0DFE6"></path> <path d="M267.463 516.633L269.17 518.465C267.358 520.193 265.757 522.131 264.402 524.237C263.573 525.467 262.62 526.746 261.265 528.604L259.282 527.073C260.612 525.366 261.541 524.011 262.344 522.832C263.786 520.56 265.505 518.478 267.463 516.633Z" fill="#E0DFE6"></path> <path d="M276.473 522.832C277.231 522.732 277.999 522.732 278.757 522.832L278.28 525.341C277.721 525.279 277.157 525.279 276.599 525.341H275.595C274.858 525.35 274.127 525.222 273.437 524.965L274.365 522.631C275.048 522.833 275.764 522.902 276.473 522.832Z" fill="#E0DFE6"></path> <path d="M271.226 490.459H266.207V487.95H271.226C279.841 487.66 288.466 487.912 297.049 488.702L296.698 491.212C288.23 490.444 279.724 490.193 271.226 490.459Z" fill="#E0DFE6"></path> <path d="M255.897 478.287L233.16 507.724C232.734 506.896 232.282 506.118 231.88 505.215L253.914 476.681L255.897 478.287Z" fill="#E0DFE6"></path> <path d="M281.677 513.923C279.895 513.923 278.339 513.923 276.884 513.923C275.446 513.848 274.005 513.848 272.567 513.923L272.417 511.413C273.998 511.413 275.453 511.413 276.959 511.413C278.465 511.413 279.895 511.413 281.652 511.413C283.273 511.3 284.9 511.3 286.521 511.413L286.244 513.923C284.723 513.833 283.198 513.833 281.677 513.923Z" fill="#E0DFE6"></path> <path d="M287.244 501.049C286.416 501.049 285.663 501.049 284.735 501.049C281.598 501.049 272.438 501.049 269.678 501.049V498.539C272.187 498.539 281.372 498.539 284.484 498.539C285.362 498.539 286.19 498.539 286.994 498.539C287.797 498.539 289.503 498.69 291.285 498.539V501.049H289.829C289.127 501.149 288.148 501.099 287.244 501.049Z" fill="#E0DFE6"></path> <path d="M281.462 480.822C275.82 480.225 270.14 480.057 264.473 480.32L264.272 477.811C270.073 477.546 275.886 477.713 281.663 478.313C285.703 478.664 289.894 479.015 293.985 479.015C297.815 479.052 301.637 478.656 305.378 477.836L305.93 480.345C302.011 481.23 298.002 481.651 293.985 481.6C289.794 481.525 285.553 481.174 281.462 480.822Z" fill="#E0DFE6"></path> <path d="M246.444 526.948C245.867 526.321 245.34 525.643 244.788 524.991C249.338 518.717 254.706 513.079 260.749 508.227L262.229 510.26C256.244 515.091 250.935 520.704 246.444 526.948Z" fill="#E0DFE6"></path> <path d="M212.587 429.803L202.85 431.886C190.855 431.434 178.182 431.208 164.479 431.208C152.157 431.208 145.883 431.434 137.226 431.76C133.286 431.911 128.894 432.086 123.247 432.237V429.727C128.894 429.577 133.286 429.401 137.201 429.251C145.884 428.924 152.258 428.699 164.555 428.699C181.946 428.699 197.756 429.05 212.587 429.803Z" fill="#E0DFE6"></path> <path d="M339.613 430.229L339.463 432.739C322.674 431.76 304.705 431.283 284.529 431.283C272.182 431.283 265.908 431.509 257.25 431.835C253.31 431.986 248.918 432.162 243.297 432.312V429.803C248.918 429.652 253.335 429.476 257.225 429.326C265.933 429 272.282 428.774 284.604 428.774C304.731 428.698 322.674 429.175 339.613 430.229Z" fill="#E0DFE6"></path> <path d="M258.129 493.521L260.111 495.052C257.602 498.188 250.65 506.269 244.427 513.396L239.834 518.641C239.332 517.939 238.805 517.261 238.329 516.558L242.519 511.74C248.718 504.638 255.745 496.607 258.129 493.521Z" fill="#E0DFE6"></path> <path d="M248.838 462.477L248.135 463.406C246.027 465.915 243.844 468.626 241.535 471.612C236.867 477.66 232.3 484.035 227.858 490.208L226.628 491.889C226.327 490.911 226.076 489.907 225.8 488.928C230.242 482.755 234.835 476.38 239.527 470.282C242.037 466.919 244.547 463.908 246.931 461.122L248.838 462.477Z" fill="#E0DFE6"></path> <path d="M263.106 442.3C265.616 442.3 268.276 441.999 271.689 441.999C277.185 441.999 299.294 441.597 304.715 441.597C313.933 441.519 323.149 441.946 332.32 442.877L332.044 445.387C322.98 444.479 313.874 444.06 304.765 444.132C299.269 444.132 277.16 444.534 271.739 444.534C268.402 444.534 265.817 444.684 263.307 444.835C258.678 445.218 254.024 445.168 249.404 444.684L249.68 442.175C254.142 442.634 258.637 442.676 263.106 442.3Z" fill="#E0DFE6"></path> <path d="M118.048 431.936C114.334 436.202 110.586 440.602 106.805 445.136H103.417C107.734 439.967 111.983 434.948 116.166 430.079L118.048 431.936Z" fill="#E0DFE6"></path> <path d="M135.281 442.526L129.459 443.203V442.149C131.743 442.375 133.6 442.501 135.281 442.526Z" fill="#E0DFE6"></path> <path d="M396.663 522.832C397.623 522.746 398.589 522.746 399.549 522.832L399.198 525.342C398.363 525.263 397.523 525.263 396.688 525.342C395.384 525.453 394.07 525.351 392.798 525.041L393.476 522.531C394.516 522.799 395.591 522.9 396.663 522.832Z" fill="#E0DFE6"></path> <path d="M383.977 442.3C386.486 442.3 389.146 441.999 392.559 441.999C398.055 441.999 420.165 441.597 425.585 441.597C434.803 441.519 444.019 441.946 453.19 442.877L452.914 445.387C443.851 444.479 434.744 444.06 425.636 444.132C420.14 444.132 398.03 444.534 392.61 444.534C389.272 444.534 386.687 444.684 384.178 444.835C379.549 445.218 374.894 445.168 370.275 444.684L370.551 442.175C375.013 442.634 379.507 442.676 383.977 442.3Z" fill="#E0DFE6"></path> <path d="M345.493 470.131C341.754 474.949 327.224 494.499 323.485 499.342C317.319 507.442 310.726 515.207 303.734 522.606L301.928 520.874C308.86 513.543 315.395 505.844 321.502 497.811C325.216 492.993 339.772 473.418 343.511 468.6C349.655 460.49 356.24 452.724 363.236 445.337L365.043 447.068C358.119 454.401 351.593 462.099 345.493 470.131Z" fill="#E0DFE6"></path> <path d="M361.981 527.45C365.62 522.757 371.066 516.583 375.859 511.112L380.878 505.315L382.786 506.972L377.767 512.769C372.999 518.189 367.578 524.363 363.989 528.98L361.981 527.45Z" fill="#E0DFE6"></path> <path d="M386.853 516.483L388.158 518.616C384.73 521.12 381.908 524.362 379.902 528.103L377.593 527.099C379.806 522.884 382.978 519.248 386.853 516.483Z" fill="#E0DFE6"></path> <path d="M392.116 490.459H387.097V487.949H392.116C400.731 487.661 409.356 487.912 417.939 488.702L417.588 491.212C409.12 490.444 400.614 490.193 392.116 490.459Z" fill="#E0DFE6"></path> <path d="M380.995 467.22H436.055V469.73H380.995V467.22Z" fill="#E0DFE6"></path> <path d="M372.997 476.847L374.983 478.381L337.738 526.605L335.752 525.071L372.997 476.847Z" fill="#E0DFE6"></path> <path d="M408.003 501.049C407.175 501.049 406.397 501.049 405.494 501.049C402.357 501.049 393.172 501.049 390.437 501.049L390.587 498.539C393.097 498.539 402.257 498.539 405.394 498.539C406.272 498.539 407.1 498.539 407.903 498.539C408.706 498.539 410.413 498.69 412.194 498.539V501.049H410.739C410.011 501.149 409.032 501.099 408.003 501.049Z" fill="#E0DFE6"></path> <path d="M402.56 513.922C400.778 513.922 399.222 513.922 397.767 513.922C396.329 513.847 394.888 513.847 393.45 513.922L393.275 511.413C394.881 511.413 396.311 511.413 397.842 511.413C399.373 511.413 400.778 511.413 402.51 511.413C404.181 511.293 405.858 511.293 407.529 511.413L407.253 513.922C405.69 513.828 404.123 513.828 402.56 513.922Z" fill="#E0DFE6"></path> <path d="M402.355 480.822C396.727 480.261 391.064 480.127 385.416 480.42L385.24 477.911C391.041 477.646 396.855 477.813 402.631 478.412C406.672 478.764 410.863 479.115 414.928 479.115C418.766 479.151 422.597 478.756 426.346 477.936L426.899 480.445C422.971 481.331 418.954 481.752 414.928 481.7C410.687 481.524 406.446 481.173 402.355 480.822Z" fill="#E0DFE6"></path> <path d="M367.846 462.477L367.143 463.405C365.035 465.915 362.877 468.625 360.543 471.612C355.9 477.66 351.308 484.034 346.866 490.207C342.424 496.381 337.781 502.755 333.063 508.979C328.346 515.203 324.029 520.197 319.838 524.714L318.006 523.007C322.147 518.54 326.413 513.446 331.056 507.448C335.699 501.45 340.391 494.9 344.833 488.727C349.275 482.553 353.868 476.179 358.56 470.081C361.07 466.718 363.58 463.706 365.964 460.921L367.846 462.477Z" fill="#E0DFE6"></path> <path d="M358.965 431.936C346.743 445.989 334.145 461.398 320.493 479.065C309.903 492.792 298.56 508 284.807 526.947L282.774 525.467C296.552 506.52 307.87 491.287 318.511 477.534C332.188 459.842 344.811 444.383 357.082 430.279L358.965 431.936Z" fill="#E0DFE6"></path> <path d="M486.854 447.069C479.921 454.4 473.387 462.099 467.279 470.131C463.565 474.95 449.035 494.499 445.296 499.343C439.13 507.442 432.537 515.208 425.545 522.606L423.739 520.875C430.67 513.548 437.196 505.849 443.288 497.812C447.027 492.993 461.558 473.419 465.297 468.601C471.455 460.479 478.048 452.696 485.047 445.287L486.854 447.069Z" fill="#E0DFE6"></path> <path d="M460.503 430.229L460.353 432.739C443.539 431.76 425.571 431.283 405.394 431.283C393.072 431.283 386.798 431.509 378.14 431.835C374.2 431.986 369.808 432.162 364.162 432.312V429.803C369.808 429.652 374.2 429.476 378.115 429.326C386.798 429 393.172 428.774 405.469 428.774C425.57 428.698 443.639 429.175 460.503 430.229Z" fill="#E0DFE6"></path> <path d="M480.776 431.936C468.529 445.989 455.956 461.423 442.304 479.065C431.714 492.818 420.346 508.025 406.593 526.947L404.586 525.467C418.338 506.52 429.681 491.287 440.322 477.534C453.999 459.842 466.597 444.383 478.893 430.279L480.776 431.936Z" fill="#E0DFE6"></path> <path d="M360.074 513.621C363.11 510.309 366.247 506.871 369.008 503.307C371.768 499.744 374.78 496.205 377.816 492.943L379.648 494.649C376.662 497.862 373.5 501.576 370.99 504.838C368.155 508.502 364.993 511.965 361.931 515.303C358.869 518.641 355.757 522.054 352.997 525.642C351.868 527.098 350.864 528.478 349.96 529.884L347.852 528.503C348.806 527.048 349.835 525.617 351.014 524.111C353.825 520.573 357.012 516.984 360.074 513.621Z" fill="#E0DFE6"></path> <path d="M489.756 462.477L489.053 463.405C486.945 465.915 484.761 468.625 482.453 471.612C477.785 477.66 473.217 484.034 468.776 490.207C464.334 496.381 459.691 502.755 454.948 508.979C450.205 515.203 445.939 520.197 441.748 524.714L439.916 523.007C444.056 518.565 448.323 513.446 452.965 507.448C457.608 501.45 462.276 494.9 466.743 488.727C471.21 482.553 475.777 476.179 480.47 470.081C482.98 466.718 485.489 463.706 487.873 460.921L489.756 462.477Z" fill="#E0DFE6"></path> <path d="M372.675 453.468C378.146 453.97 384.143 454.196 391.02 454.196C397.896 454.196 405.098 453.945 411.975 453.719C418.851 453.493 425.978 453.242 432.904 453.242C436.744 453.242 440.232 453.242 443.545 453.468V455.978H442.491C439.504 455.978 436.367 455.802 432.954 455.802C426.078 455.802 418.976 456.028 412.125 456.279C405.274 456.53 398.072 456.756 391.07 456.756C384.068 456.756 378.045 456.505 372.499 456.003L372.675 453.468Z" fill="#E0DFE6"></path> <path d="M327.704 461.975C355.108 446.918 381.81 430.455 409.264 415.373C436.719 400.29 464.55 380.038 495.844 376.123C498.736 375.618 501.712 375.928 504.438 377.018C507.164 378.108 509.532 379.936 511.278 382.297C518.455 381.469 524.503 383.401 525.959 391.683C528.97 408.923 510.249 419.463 497.977 428.222C482.379 439.223 466.083 449.198 449.191 458.085C415.715 475.76 381.147 491.284 345.697 504.562C320.752 514.048 304.917 474.548 327.704 461.975Z" fill="#D7DCE0"></path> <path d="M170.828 273.458C210.805 256.594 252.589 234.484 296.08 229.465C315.178 227.282 331.891 245.928 334.2 263.118C334.555 265.898 334.622 268.707 334.401 271.5C338.768 275.91 341.917 281.378 343.541 287.369C345.164 293.359 345.205 299.669 343.661 305.68C338.416 327.187 317.436 339.007 299.568 348.945C281.196 359.146 261.863 367.51 241.848 373.915C221.421 380.44 196.677 387.818 175.195 384.932C147.138 381.168 124.1 360.514 124.477 330.6C124.853 301.64 146.485 283.722 170.828 273.458Z" fill="#D7DCE0"></path> <path d="M225.112 229.64C221.82 231.567 218.39 233.244 214.848 234.659C219.867 267.409 246.443 279.154 278.641 260.583C283.582 257.693 288.267 254.385 292.644 250.695C317.74 229.766 337.415 195.109 342.132 163.012C342.854 158.269 343.223 153.479 343.237 148.682C343.237 116.234 325.293 99.018 300.248 103.184C296.364 103.849 292.561 104.926 288.905 106.396C289.473 110.167 289.75 113.976 289.733 117.789C289.707 122.586 289.338 127.375 288.629 132.119C283.911 164.216 264.261 198.873 239.14 219.803C234.758 223.481 230.064 226.773 225.112 229.64Z" fill="#3A3A3A"></path> <path d="M300.25 103.134L317.817 35.9277C303.973 38.4915 290.704 43.5237 278.642 50.7843C246.319 69.4553 217.033 101.477 195.827 138.167C174.621 174.857 161.547 216.214 161.547 253.606C161.547 290.547 174.37 316.596 195.15 328.893L195.827 329.295C217.008 341.516 246.294 339.759 278.642 321.113C310.991 302.467 340.227 270.395 361.458 233.706C377.691 206.157 388.652 175.827 393.781 144.265L342.184 162.961C337.466 195.059 317.842 229.715 292.696 250.645C288.319 254.335 283.634 257.643 278.693 260.533C246.495 279.103 219.818 267.359 214.9 234.609C214.331 230.838 214.054 227.029 214.072 223.216C214.095 217.494 214.607 211.785 215.602 206.151C222.027 169.035 247.825 129.133 278.693 111.34C281.984 109.414 285.415 107.736 288.957 106.321C292.598 104.863 296.383 103.794 300.25 103.134Z" fill="white"></path> <path d="M300.264 103.109C325.359 98.9182 343.252 116.159 343.252 148.607C343.239 153.405 342.87 158.194 342.148 162.937L393.745 144.241C395.033 135.659 395.687 126.995 395.702 118.317C395.702 81 382.602 54.7751 361.421 42.5285C349.25 35.5268 334.419 33.1427 317.881 35.9032L300.264 103.109Z" fill="#3FAAF0"></path> <path d="M317.811 35.9027C334.349 33.1422 349.181 35.5263 361.352 42.528L307.899 11.6604C295.727 4.63369 280.871 2.22453 264.308 5.01013C250.458 7.57729 237.181 12.6093 225.109 19.8667C192.785 38.5127 163.524 70.5596 142.293 107.224C121.062 143.889 108.013 185.296 108.013 222.664C108.013 260.031 121.113 286.206 142.293 298.452L195.119 328.943C174.34 316.546 161.517 290.497 161.517 253.657C161.517 216.34 174.616 174.957 195.797 138.217C216.978 101.477 246.264 69.5057 278.612 50.8346C290.676 43.5449 303.955 38.4869 317.811 35.9027Z" fill="#3A3A3A"></path> <path d="M214.771 238.399C215.244 238.392 215.712 238.299 216.152 238.123C219.857 236.635 223.455 234.891 226.918 232.903C232.058 229.91 236.928 226.476 241.473 222.639C267.472 200.982 287.548 165.647 292.342 132.596C293.096 127.68 293.482 122.714 293.496 117.74C293.506 113.733 293.213 109.731 292.618 105.769C292.468 104.771 291.928 103.873 291.116 103.273C290.304 102.673 289.287 102.42 288.289 102.569C287.29 102.719 286.392 103.259 285.792 104.071C285.192 104.883 284.939 105.9 285.089 106.898C285.613 110.488 285.873 114.112 285.867 117.74C285.849 122.351 285.496 126.956 284.813 131.517C280.195 162.811 261.299 196.314 236.63 216.842C232.415 220.4 227.897 223.583 223.128 226.353C219.998 228.177 216.734 229.762 213.366 231.096C212.543 231.413 211.857 232.008 211.428 232.778C210.999 233.548 210.855 234.445 211.019 235.311C211.183 236.177 211.646 236.958 212.327 237.518C213.009 238.078 213.865 238.381 214.746 238.374L214.771 238.399Z" fill="#3A3A3A"></path> <path d="M195.167 332.658C195.985 332.651 196.779 332.378 197.428 331.88C198.077 331.383 198.546 330.687 198.765 329.898C198.983 329.11 198.939 328.272 198.638 327.511C198.338 326.75 197.798 326.108 197.099 325.681C176.622 313.46 165.328 287.812 165.328 253.507C165.328 218.047 177.324 177.743 199.107 140.024C220.89 102.306 249.9 71.7395 280.517 53.997C292.196 46.9766 305.039 42.1064 318.436 39.6173C334.046 37.1077 347.848 39.0903 359.467 45.7908C359.896 46.038 360.369 46.1983 360.859 46.2627C361.35 46.3271 361.848 46.2943 362.326 46.1661C362.803 46.038 363.251 45.817 363.644 45.5158C364.036 45.2145 364.365 44.839 364.612 44.4106C364.859 43.9821 365.02 43.5092 365.084 43.0188C365.149 42.5284 365.116 42.0301 364.987 41.5524C364.859 41.0747 364.638 40.6269 364.337 40.2346C364.036 39.8423 363.66 39.5131 363.232 39.2659C350.257 31.7373 334.322 29.2278 317.207 32.189C302.912 34.8204 289.208 40.0059 276.753 47.4973C244.906 65.8672 215.018 97.4123 192.582 136.26C170.147 175.108 157.8 216.767 157.8 253.507C157.8 290.246 170.348 318.504 193.235 332.131C193.816 332.485 194.486 332.668 195.167 332.658Z" fill="#3A3A3A"></path> <path d="M226.362 340.889C243.051 340.889 261.496 335.343 280.519 324.376C312.34 305.981 342.228 274.461 364.664 235.588C381.149 207.637 392.265 176.852 397.439 144.817C398.751 136.053 399.422 127.204 399.446 118.341C399.446 80.8486 386.597 52.7668 363.284 39.2905C362.418 38.7913 361.39 38.6563 360.425 38.9151C359.461 39.174 358.638 39.8055 358.139 40.6707C357.64 41.536 357.505 42.5641 357.764 43.5289C358.023 44.4937 358.654 45.3162 359.519 45.8153C380.424 57.8863 391.918 83.6342 391.918 118.341C391.889 126.842 391.251 135.329 390.01 143.738C384.965 174.829 374.156 204.703 358.139 231.823C336.356 269.467 307.446 300.108 276.754 317.851C246.64 335.192 218.633 338.103 197.728 326.032C196.863 325.533 195.835 325.398 194.87 325.657C193.905 325.916 193.083 326.547 192.584 327.412C192.085 328.278 191.95 329.306 192.208 330.27C192.467 331.235 193.099 332.058 193.964 332.557C203.835 338.155 215.016 341.031 226.362 340.889Z" fill="#3A3A3A"></path> <path d="M249.756 273.106C260.646 272.727 271.25 269.518 280.523 263.795C285.645 260.787 290.506 257.354 295.053 253.531C321.002 231.949 340.953 196.589 345.871 163.488C346.61 158.57 346.988 153.605 347.001 148.632C347.001 130.186 341.555 115.857 331.291 107.149C322.909 100.047 311.967 97.3865 299.645 99.4193C295.498 100.137 291.436 101.28 287.524 102.832C283.817 104.315 280.219 106.06 276.758 108.052C245.314 126.221 218.612 166.274 211.836 205.523C210.811 211.323 210.282 217.2 210.255 223.09C210.251 227.096 210.536 231.096 211.108 235.061C213.618 251.498 221.498 263.695 233.368 269.391C238.478 271.857 244.082 273.127 249.756 273.106ZM307.475 106.295C314.389 106.132 321.128 108.477 326.448 112.896C334.855 120.023 339.497 132.696 339.497 148.632C339.484 153.235 339.132 157.832 338.443 162.384C333.775 193.753 314.879 227.281 290.26 247.709C286.043 251.253 281.535 254.434 276.783 257.22C261.726 265.928 247.447 267.86 236.631 262.691C227.094 258.098 220.67 247.91 218.562 234.007C218.04 230.417 217.78 226.793 217.784 223.165C217.809 217.662 218.304 212.172 219.264 206.753C225.588 170.139 251.337 131.466 280.523 114.527C283.659 112.714 286.921 111.128 290.285 109.784C293.703 108.427 297.252 107.426 300.875 106.797C303.049 106.45 305.248 106.282 307.45 106.295H307.475Z" fill="#3A3A3A"></path> <path d="M342.136 166.726C342.572 166.724 343.005 166.648 343.415 166.5L395.012 147.804C395.511 147.667 395.976 147.428 396.379 147.103C396.781 146.779 397.113 146.374 397.352 145.915C397.592 145.457 397.734 144.954 397.77 144.437C397.806 143.921 397.736 143.403 397.563 142.916C397.39 142.428 397.118 141.981 396.765 141.603C396.412 141.225 395.984 140.924 395.51 140.719C395.035 140.513 394.523 140.408 394.005 140.409C393.488 140.411 392.976 140.519 392.502 140.727L340.906 159.398C340.085 159.712 339.398 160.302 338.964 161.066C338.531 161.831 338.376 162.723 338.527 163.589C338.678 164.455 339.126 165.242 339.794 165.814C340.461 166.386 341.307 166.708 342.186 166.726H342.136Z" fill="#3A3A3A"></path> <path d="M300.264 106.873C301.095 106.868 301.901 106.59 302.559 106.083C303.216 105.575 303.689 104.865 303.903 104.062L321.47 36.8565C321.617 36.372 321.664 35.8629 321.609 35.3598C321.554 34.8567 321.398 34.3699 321.151 33.9283C320.904 33.4867 320.57 33.0995 320.17 32.7899C319.769 32.4803 319.31 32.2546 318.821 32.1263C318.331 31.998 317.821 31.9697 317.32 32.0432C316.82 32.1167 316.339 32.2904 315.907 32.5539C315.475 32.8174 315.1 33.1654 314.806 33.5769C314.511 33.9885 314.302 34.4552 314.192 34.9492L296.626 102.155C296.501 102.635 296.472 103.134 296.541 103.625C296.61 104.115 296.775 104.587 297.027 105.014C297.279 105.441 297.613 105.813 298.009 106.111C298.405 106.408 298.856 106.625 299.336 106.747C299.637 106.837 299.95 106.88 300.264 106.873Z" fill="#3A3A3A"></path> <path d="M195.843 333.059C196.673 333.06 197.479 332.787 198.137 332.283C198.796 331.778 199.269 331.07 199.483 330.269C199.698 329.468 199.642 328.618 199.324 327.852C199.006 327.086 198.444 326.446 197.725 326.032L144.222 295.14C123.317 283.069 111.798 257.321 111.823 222.614C111.823 187.129 123.819 146.825 145.602 109.107C167.385 71.388 196.295 40.8467 226.987 23.1042C238.682 16.0587 251.539 11.1553 264.956 8.62408C280.34 6.11453 294.569 8.19746 306.063 14.8227L359.566 45.7153C359.995 45.9625 360.468 46.1228 360.958 46.1872C361.448 46.2516 361.947 46.2188 362.425 46.0906C362.902 45.9625 363.35 45.7415 363.742 45.4403C364.135 45.139 364.464 44.7635 364.711 44.3351C364.958 43.9066 365.118 43.4337 365.183 42.9433C365.247 42.4529 365.214 41.9546 365.086 41.4769C364.958 40.9992 364.737 40.5514 364.436 40.1591C364.135 39.7668 363.759 39.4376 363.331 39.1904L309.827 8.29783C296.777 0.769167 280.842 -1.74035 263.726 1.19583C249.436 3.84345 235.736 9.02801 223.273 16.5041C191.451 34.8741 161.588 66.394 139.127 105.242C116.667 144.09 104.345 185.849 104.345 222.614C104.345 260.107 117.168 288.188 140.507 301.665L194.011 332.557C194.572 332.87 195.201 333.042 195.843 333.059Z" fill="#3A3A3A"></path> <path d="M339.028 159.599V487.071L551.236 364.554V87.0478L511.234 103.209L507.971 62.0777L339.028 159.599Z" fill="white"></path> <path d="M507.971 62.0777L511.234 103.209L551.236 87.0478L507.971 62.0777Z" fill="white"></path> <path d="M511.225 106.974C511.715 106.967 512.199 106.874 512.656 106.698L552.633 90.5367C553.091 90.3505 553.508 90.0759 553.86 89.7286C554.212 89.3812 554.492 88.968 554.684 88.5124C554.877 88.0568 554.977 87.5678 554.98 87.0734C554.984 86.5789 554.89 86.0886 554.703 85.6305C554.517 85.1724 554.243 84.7555 553.895 84.4036C553.548 84.0516 553.135 83.7715 552.679 83.5792C552.224 83.387 551.735 83.2863 551.24 83.283C550.746 83.2797 550.255 83.3739 549.797 83.5601L514.663 97.7893L511.803 61.7772C511.723 60.7788 511.25 59.8531 510.487 59.2036C509.725 58.5541 508.735 58.2341 507.737 58.314C506.739 58.3938 505.813 58.867 505.163 59.6295C504.514 60.3919 504.194 61.3811 504.274 62.3795L507.536 103.511C507.59 104.098 507.775 104.664 508.08 105.169C508.384 105.673 508.799 106.101 509.293 106.422C509.88 106.767 510.545 106.957 511.225 106.974Z" fill="#3A3A3A"></path> <path d="M339.053 490.835C339.712 490.826 340.359 490.653 340.935 490.333L553.118 367.842C553.687 367.507 554.16 367.031 554.49 366.459C554.82 365.887 554.995 365.24 555 364.579V87.0479C554.998 86.3872 554.823 85.7386 554.493 85.1663C554.163 84.5941 553.689 84.118 553.118 83.7855L509.878 58.69C509.307 58.3571 508.657 58.1817 507.996 58.1817C507.335 58.1817 506.685 58.3571 506.114 58.69L337.171 156.236C336.597 156.559 336.119 157.029 335.788 157.598C335.457 158.168 335.285 158.815 335.289 159.474V487.071C335.286 487.732 335.458 488.383 335.789 488.956C336.12 489.529 336.596 490.005 337.171 490.333C337.745 490.659 338.393 490.832 339.053 490.835ZM547.471 362.471L342.742 480.546V161.707L507.921 66.3441L547.396 89.156L547.471 362.471Z" fill="#3A3A3A"></path> <path d="M472.288 175.535C472.94 175.529 473.579 175.357 474.145 175.033L494.598 163.213C495.027 162.965 495.402 162.634 495.702 162.24C496.003 161.846 496.223 161.397 496.35 160.918C496.477 160.439 496.509 159.94 496.443 159.449C496.377 158.958 496.215 158.485 495.966 158.056C495.717 157.628 495.386 157.253 494.992 156.952C494.599 156.651 494.149 156.431 493.67 156.304C493.192 156.177 492.692 156.146 492.201 156.212C491.71 156.278 491.237 156.44 490.809 156.689L470.356 168.484C469.635 168.898 469.072 169.54 468.754 170.309C468.437 171.077 468.383 171.929 468.601 172.732C468.819 173.535 469.296 174.243 469.959 174.745C470.621 175.248 471.431 175.517 472.263 175.51L472.288 175.535Z" fill="#3A3A3A"></path> <path d="M397.555 218.674C398.215 218.668 398.862 218.496 399.437 218.172L456.027 185.548C456.893 185.049 457.524 184.227 457.783 183.262C458.042 182.297 457.907 181.269 457.408 180.404C456.908 179.538 456.086 178.907 455.121 178.648C454.156 178.389 453.128 178.524 452.263 179.023L395.673 211.648C394.954 212.061 394.392 212.701 394.074 213.467C393.756 214.233 393.7 215.083 393.914 215.884C394.129 216.685 394.602 217.393 395.26 217.898C395.919 218.402 396.725 218.675 397.555 218.674Z" fill="#3A3A3A"></path> <path d="M439.888 235.187C440.547 235.181 441.195 235.008 441.77 234.685L494.47 204.169C494.934 203.941 495.345 203.621 495.679 203.228C496.013 202.835 496.263 202.377 496.413 201.883C496.563 201.389 496.609 200.87 496.55 200.357C496.491 199.845 496.327 199.35 496.068 198.904C495.809 198.457 495.462 198.069 495.047 197.762C494.632 197.455 494.158 197.238 493.655 197.122C493.152 197.006 492.631 196.995 492.124 197.089C491.616 197.183 491.134 197.381 490.706 197.669L438.006 228.16C437.287 228.574 436.725 229.213 436.407 229.98C436.089 230.746 436.033 231.595 436.247 232.396C436.462 233.198 436.935 233.906 437.593 234.41C438.252 234.915 439.058 235.188 439.888 235.187Z" fill="#3A3A3A"></path> <path d="M397.553 259.58C398.212 259.574 398.86 259.401 399.435 259.078L424.305 244.723C424.733 244.476 425.109 244.147 425.41 243.755C425.711 243.362 425.932 242.914 426.06 242.437C426.188 241.959 426.221 241.461 426.157 240.97C426.092 240.48 425.932 240.007 425.685 239.579C425.438 239.15 425.108 238.775 424.716 238.473C424.324 238.172 423.876 237.951 423.398 237.823C422.921 237.695 422.422 237.662 421.932 237.726C421.442 237.791 420.969 237.951 420.54 238.198L395.671 252.553C394.952 252.967 394.39 253.606 394.072 254.373C393.754 255.139 393.698 255.988 393.912 256.789C394.127 257.591 394.6 258.298 395.258 258.803C395.917 259.308 396.723 259.581 397.553 259.58Z" fill="#3A3A3A"></path> <path d="M397.547 300.611C398.209 300.616 398.859 300.443 399.43 300.109L494.592 245.175C495.457 244.676 496.089 243.853 496.347 242.888C496.606 241.924 496.471 240.896 495.972 240.03C495.473 239.165 494.65 238.534 493.686 238.275C492.721 238.016 491.693 238.151 490.828 238.65L395.665 293.584C394.946 293.998 394.384 294.638 394.066 295.404C393.748 296.17 393.692 297.019 393.907 297.82C394.122 298.622 394.595 299.33 395.253 299.834C395.911 300.339 396.718 300.612 397.547 300.611Z" fill="#3A3A3A"></path> <path d="M468.229 300.736C468.888 300.727 469.535 300.554 470.111 300.234L494.479 286.156C494.977 285.957 495.428 285.654 495.799 285.267C496.171 284.879 496.456 284.417 496.634 283.911C496.813 283.405 496.881 282.866 496.834 282.331C496.788 281.797 496.627 281.278 496.363 280.81C496.1 280.343 495.739 279.937 495.306 279.62C494.873 279.304 494.377 279.083 493.851 278.974C493.326 278.864 492.783 278.869 492.259 278.986C491.735 279.104 491.243 279.332 490.815 279.656L466.447 293.734C465.728 294.148 465.166 294.788 464.848 295.554C464.53 296.32 464.474 297.17 464.689 297.971C464.903 298.772 465.377 299.48 466.035 299.985C466.693 300.489 467.5 300.762 468.329 300.761L468.229 300.736Z" fill="#3A3A3A"></path> <path d="M397.55 341.592C398.211 341.598 398.861 341.424 399.432 341.09L454.341 309.395C454.769 309.147 455.145 308.818 455.446 308.426C455.747 308.034 455.968 307.586 456.096 307.108C456.225 306.63 456.257 306.132 456.193 305.642C456.129 305.151 455.968 304.678 455.721 304.25C455.474 303.822 455.145 303.446 454.752 303.145C454.36 302.844 453.912 302.623 453.435 302.494C452.957 302.366 452.459 302.333 451.968 302.398C451.478 302.462 451.005 302.623 450.576 302.87L395.668 334.591C394.941 334.997 394.371 335.634 394.048 336.401C393.725 337.168 393.667 338.02 393.883 338.824C394.099 339.628 394.577 340.336 395.241 340.838C395.905 341.339 396.718 341.605 397.55 341.592Z" fill="#3A3A3A"></path> <path d="M427.863 364.981C428.524 364.987 429.174 364.813 429.745 364.479L494.592 327.037C495.457 326.538 496.089 325.715 496.347 324.75C496.606 323.786 496.471 322.758 495.972 321.892C495.473 321.027 494.65 320.396 493.686 320.137C492.721 319.878 491.693 320.013 490.828 320.512L425.981 357.955C425.262 358.368 424.7 359.008 424.382 359.774C424.064 360.54 424.008 361.39 424.222 362.191C424.437 362.992 424.91 363.7 425.569 364.205C426.227 364.709 427.033 364.982 427.863 364.981Z" fill="#3A3A3A"></path> <path d="M397.544 382.548C398.205 382.554 398.855 382.38 399.426 382.046L416.993 372.008C417.858 371.509 418.489 370.687 418.748 369.722C419.007 368.757 418.872 367.729 418.373 366.864C417.874 365.998 417.051 365.367 416.086 365.108C415.121 364.849 414.094 364.984 413.228 365.483L395.661 375.672C394.935 376.079 394.365 376.716 394.042 377.482C393.719 378.249 393.661 379.102 393.877 379.906C394.093 380.709 394.571 381.418 395.235 381.919C395.899 382.421 396.711 382.686 397.544 382.674V382.548Z" fill="#3A3A3A"></path> </svg> 