<?xml version="1.0" encoding="UTF-8"?> <svg xmlns="http://www.w3.org/2000/svg" width="723" height="412" viewBox="0 0 723 412" fill="none"> <path d="M530.557 79.721L532.562 78.2415C530.281 75.0824 528.05 72.049 525.893 69.0905L522.484 68.6893C525.091 72.2244 527.749 75.8599 530.557 79.721Z" fill="#E0DFE6"></path> <path d="M584.118 78.367C585.246 79.8212 586.249 81.2 587.151 82.604L589.257 81.2253C588.305 79.7962 587.277 78.342 586.123 76.8628L582.363 76.2611C582.964 77.0133 583.566 77.6901 584.118 78.367Z" fill="#E0DFE6"></path> <path d="M557.234 80.8753L559.541 79.8723C558.138 77.1873 556.319 74.7417 554.15 72.6265L549.788 72.1001C552.835 74.4945 555.368 77.4791 557.234 80.8753Z" fill="#E0DFE6"></path> <path d="M540.488 75.6106C539.529 75.5239 538.564 75.5239 537.605 75.6106L537.956 78.1178C538.79 78.0384 539.629 78.0384 540.463 78.1178C541.766 78.2284 543.079 78.1268 544.349 77.8169L543.672 75.3097C542.633 75.5768 541.559 75.6783 540.488 75.6106Z" fill="#E0DFE6"></path> <path d="M573.167 81.7531L575.148 80.2238C573.819 78.5189 572.264 76.6134 570.559 74.6077L566.849 74.1064C569.281 76.8392 571.387 79.4966 573.167 81.7531Z" fill="#E0DFE6"></path> <path d="M495.495 77.4645L497.325 75.7595C494.45 72.6506 491.458 69.1826 488.35 65.355L484.915 65.0538C488.6 69.7172 492.11 73.8041 495.495 77.4645Z" fill="#E0DFE6"></path> <path d="M511.611 75.3835L513.416 73.6534C511.436 71.5724 509.43 69.3912 507.374 67.0595L503.739 66.7084C506.447 69.8173 509.104 72.6757 511.611 75.3835Z" fill="#E0DFE6"></path> <path d="M654.269 288.972C640.505 270.042 629.197 254.824 618.567 241.084C604.902 223.534 592.291 207.964 580.031 193.874L578.151 195.529C590.361 209.569 602.947 224.963 616.586 242.614C627.166 256.328 638.499 271.522 652.238 290.451L654.269 288.972Z" fill="#E0DFE6"></path> <path d="M573.036 193.197C567.394 193.046 563.007 192.871 559.096 192.72C550.421 192.394 544.053 192.169 531.767 192.169C511.559 192.169 493.558 192.645 476.609 193.648L476.76 196.155C493.558 195.177 511.509 194.701 531.667 194.701C543.977 194.701 550.245 194.927 558.895 195.252C562.831 195.403 567.219 195.579 572.86 195.729L573.036 193.197Z" fill="#E0DFE6"></path> <path d="M564.454 216.915C558.988 217.416 552.996 217.642 546.126 217.642C539.256 217.642 532.061 217.391 525.191 217.165C518.321 216.94 511.201 216.689 504.281 216.689C500.445 216.689 496.96 216.689 493.651 216.915V219.422H494.704C497.687 219.422 500.821 219.246 504.231 219.246C511.101 219.246 518.196 219.472 525.041 219.723C531.885 219.973 539.081 220.199 546.076 220.199C553.071 220.199 559.088 219.948 564.629 219.447L564.454 216.915Z" fill="#E0DFE6"></path> <path d="M522.318 242.437C518.484 242.474 514.657 242.079 510.911 241.259L510.359 243.766C514.286 244.63 518.298 245.042 522.318 244.995C526.48 244.995 530.718 244.644 534.854 244.293C540.5 243.696 546.182 243.528 551.853 243.791L552.029 241.284C546.233 241.02 540.425 241.187 534.654 241.786C530.567 242.087 526.38 242.437 522.318 242.437Z" fill="#E0DFE6"></path> <path d="M635.135 284.257C628.209 276.932 621.68 269.241 615.579 261.216C611.868 256.403 597.327 236.846 593.591 232.033C587.453 223.93 580.874 216.172 573.885 208.791L572.079 210.521C578.997 217.846 585.517 225.538 591.61 233.562C595.346 238.376 609.863 257.907 613.598 262.746C619.758 270.838 626.345 278.596 633.33 285.987L635.135 284.257Z" fill="#E0DFE6"></path> <path d="M569.932 226.817C572.038 229.324 574.195 232.032 576.526 235.016C581.165 241.058 585.753 247.552 590.191 253.594C594.628 259.636 599.267 266.13 603.98 272.348C608.694 278.566 613.006 283.555 617.193 288.068L619.023 286.363C614.886 281.9 610.624 276.811 605.986 270.818C601.347 264.826 596.659 258.283 592.221 252.115C587.784 245.947 583.195 239.579 578.507 233.486C576 230.127 573.493 227.118 571.111 224.335L569.18 225.915L569.882 226.842L569.932 226.817Z" fill="#E0DFE6"></path> <path d="M556.141 230.655H501.134V233.162H556.141V230.655Z" fill="#E0DFE6"></path> <path d="M566.626 205.606C562.153 206.077 557.645 206.127 553.162 205.757C550.655 205.757 547.998 205.456 544.588 205.456C539.097 205.456 517.009 205.055 511.593 205.055C502.384 204.989 493.178 205.416 484.014 206.333L484.29 208.841C493.345 207.934 502.443 207.515 511.543 207.587C517.034 207.587 539.122 207.988 544.538 207.988C547.872 207.988 550.454 208.138 552.962 208.289C557.586 208.672 562.236 208.622 566.852 208.139L566.626 205.606Z" fill="#E0DFE6"></path> <path d="M540.388 288.72C541.691 288.83 543.003 288.729 544.274 288.419L543.597 285.912C542.577 286.137 541.529 286.205 540.488 286.112C539.529 286.026 538.564 286.026 537.605 286.112L537.956 288.619C538.768 288.578 539.582 288.612 540.388 288.72Z" fill="#E0DFE6"></path> <path d="M539.386 277.262C540.823 277.187 542.262 277.187 543.699 277.262L543.874 274.755C542.27 274.755 540.841 274.755 539.311 274.755C537.782 274.755 536.378 274.755 534.648 274.755C532.979 274.635 531.303 274.635 529.633 274.755L529.909 277.262C531.429 277.173 532.953 277.173 534.472 277.262C536.378 277.337 537.932 277.312 539.386 277.262Z" fill="#E0DFE6"></path> <path d="M513.442 284.257C506.517 276.938 499.997 269.246 493.911 261.216C491.404 258.133 489.173 255.023 486.841 251.889L484.66 253.168C487.067 256.377 489.482 259.57 491.906 262.746C498.066 270.838 504.652 278.596 511.637 285.987L513.442 284.257Z" fill="#E0DFE6"></path> <path d="M532.573 288.972C518.834 270.042 507.501 254.824 496.871 241.084C483.207 223.534 470.621 207.964 458.335 193.874L456.455 195.529C468.69 209.569 481.251 224.988 494.89 242.614C505.47 256.353 516.828 271.547 530.567 290.451L532.573 288.972Z" fill="#E0DFE6"></path> <path d="M546.284 261.868C543.777 261.868 534.625 261.868 531.491 261.868C530.614 261.868 529.787 261.868 528.984 261.868C528.182 261.868 526.477 262.018 524.697 261.868V264.375H526.151C527.355 264.375 528.333 264.375 529.235 264.375C530.138 264.375 530.84 264.375 531.742 264.375C534.876 264.375 544.053 264.375 546.785 264.375L546.284 261.868Z" fill="#E0DFE6"></path> <path d="M557.234 291.479L559.54 290.476C557.313 286.311 554.145 282.723 550.289 279.996L548.985 282.128C552.395 284.593 555.213 287.788 557.234 291.479Z" fill="#E0DFE6"></path> <path d="M584.113 288.971C585.241 290.425 586.244 291.804 587.147 293.208L589.253 291.829C588.3 290.375 587.272 288.946 586.094 287.442C583.286 283.781 580.101 280.321 577.043 276.962C573.984 273.602 570.875 270.217 568.117 266.657C565.359 263.097 562.351 259.562 559.317 256.302L557.487 258.007C560.47 261.217 563.629 264.927 566.136 268.186C568.97 271.847 572.129 275.307 575.187 278.641C578.246 281.976 581.355 285.436 584.113 288.971Z" fill="#E0DFE6"></path> <path d="M564.093 240.281L562.109 241.813L599.318 289.991L601.302 288.459L564.093 240.281Z" fill="#E0DFE6"></path> <path d="M495.486 288.068L497.316 286.363C493.179 281.925 488.917 276.811 484.279 270.819C481.17 266.807 478.136 262.67 475.153 258.533L472.947 259.762C476.005 263.999 479.114 268.236 482.298 272.298C486.987 278.415 491.299 283.555 495.486 288.068Z" fill="#E0DFE6"></path> <path d="M575.137 290.826C571.501 286.138 566.061 279.97 561.272 274.504L556.258 268.713L554.352 270.368L559.367 276.159C564.13 281.575 569.546 287.742 573.131 292.356L575.137 290.826Z" fill="#E0DFE6"></path> <path d="M550.065 251.362H545.051C536.444 251.074 527.827 251.325 519.252 252.115L519.603 254.622C528.054 253.864 536.544 253.621 545.025 253.895H550.04L550.065 251.362Z" fill="#E0DFE6"></path> <path d="M557.234 186.177L559.54 185.174C557.313 181.01 554.145 177.421 550.289 174.695L548.985 176.826C552.395 179.291 555.213 182.486 557.234 186.177Z" fill="#E0DFE6"></path> <path d="M546.284 156.566C543.777 156.566 534.625 156.566 531.491 156.566C530.614 156.566 529.787 156.566 528.984 156.566C528.182 156.566 526.477 156.716 524.697 156.566V159.073H526.151C527.355 159.073 528.333 159.073 529.235 159.073C530.138 159.073 530.84 159.073 531.742 159.073C534.876 159.073 544.053 159.073 546.785 159.073L546.284 156.566Z" fill="#E0DFE6"></path> <path d="M550.065 146.062H545.051C536.444 145.774 527.827 146.025 519.252 146.815L519.603 149.322C528.054 148.564 536.544 148.321 545.025 148.595H550.04L550.065 146.062Z" fill="#E0DFE6"></path> <path d="M540.388 183.418C541.691 183.528 543.003 183.427 544.274 183.117L543.597 180.61C542.577 180.835 541.529 180.903 540.488 180.81C539.529 180.724 538.564 180.724 537.605 180.81L537.956 183.317C538.768 183.276 539.582 183.31 540.388 183.418Z" fill="#E0DFE6"></path> <path d="M635.135 178.955C628.209 171.63 621.68 163.939 615.579 155.914C611.868 151.101 597.327 131.545 593.591 126.731C587.453 118.629 580.874 110.87 573.885 103.489L572.079 105.219C578.997 112.545 585.517 120.236 591.61 128.26C595.346 133.074 609.863 152.605 613.598 157.444C619.758 165.536 626.345 173.294 633.33 180.685L635.135 178.955Z" fill="#E0DFE6"></path> <path d="M575.137 185.524C571.501 180.836 566.061 174.668 561.272 169.202L556.258 163.411L554.352 165.066L559.367 170.857C564.13 176.273 569.546 182.44 573.131 187.054L575.137 185.524Z" fill="#E0DFE6"></path> <path d="M654.269 183.67C640.505 164.74 629.197 149.522 618.567 135.783C604.902 118.232 592.291 102.662 580.031 88.5721L578.151 90.2269C590.361 104.267 602.947 119.661 616.586 137.312C627.166 151.026 638.499 166.22 652.238 185.149L654.269 183.67Z" fill="#E0DFE6"></path> <path d="M569.932 121.515C572.038 124.022 574.195 126.73 576.526 129.714C581.165 135.756 585.753 142.25 590.191 148.292C594.628 154.334 599.267 160.828 603.98 167.046C608.694 173.264 613.006 178.253 617.193 182.766L619.023 181.061C614.886 176.598 610.624 171.509 605.986 165.516C601.347 159.524 596.659 152.981 592.221 146.813C587.784 140.645 583.195 134.277 578.507 128.184C576 124.825 573.493 121.816 571.111 119.033L569.18 120.613L569.882 121.54L569.932 121.515Z" fill="#E0DFE6"></path> <path d="M584.113 183.669C585.241 185.123 586.244 186.502 587.147 187.906L589.253 186.527C588.3 185.073 587.272 183.644 586.094 182.14C583.286 178.479 580.101 175.019 577.043 171.66C573.984 168.3 570.875 164.915 568.117 161.355C565.359 157.795 562.351 154.26 559.317 151L557.487 152.705C560.47 155.915 563.629 159.625 566.136 162.884C568.97 166.545 572.129 170.005 575.187 173.339C578.246 176.674 581.355 180.134 584.113 183.669Z" fill="#E0DFE6"></path> <path d="M564.093 134.979L562.109 136.511L599.318 184.689L601.302 183.157L564.093 134.979Z" fill="#E0DFE6"></path> <path d="M573.036 87.8947C567.394 87.7443 563.007 87.5686 559.096 87.4182C550.421 87.0923 544.053 86.8667 531.767 86.8667C511.559 86.8667 493.558 87.343 476.609 88.3459L476.76 90.853C493.558 89.8752 511.509 89.399 531.667 89.399C543.977 89.399 550.245 89.6245 558.895 89.9505C562.831 90.1009 567.219 90.2766 572.86 90.427L573.036 87.8947Z" fill="#E0DFE6"></path> <path d="M566.626 100.304C562.153 100.775 557.645 100.825 553.162 100.455C550.655 100.455 547.998 100.154 544.588 100.154C539.097 100.154 517.009 99.7528 511.593 99.7528C502.384 99.6869 493.178 100.114 484.014 101.031L484.29 103.539C493.345 102.632 502.443 102.213 511.543 102.285C517.034 102.285 539.122 102.686 544.538 102.686C547.872 102.686 550.454 102.836 552.962 102.987C557.586 103.37 562.236 103.32 566.852 102.837L566.626 100.304Z" fill="#E0DFE6"></path> <path d="M513.438 178.955C506.513 171.636 499.993 163.944 493.907 155.914C490.171 151.101 475.655 131.545 471.919 126.731C465.766 118.634 459.179 110.875 452.188 103.489L450.383 105.219C457.309 112.544 463.837 120.235 469.939 128.26C473.649 133.074 488.166 152.605 491.901 157.444C498.061 165.536 504.648 173.294 511.633 180.685L513.438 178.955Z" fill="#E0DFE6"></path> <path d="M532.573 183.67C518.834 164.74 507.501 149.522 496.871 135.783C483.207 118.232 470.621 102.662 458.335 88.5721L456.455 90.2269C468.69 104.267 481.251 119.686 494.89 137.312C505.47 151.051 516.828 166.245 530.567 185.149L532.573 183.67Z" fill="#E0DFE6"></path> <path d="M556.141 125.353H501.134V127.86H556.141V125.353Z" fill="#E0DFE6"></path> <path d="M539.386 171.96C540.823 171.885 542.262 171.885 543.699 171.96L543.874 169.453C542.27 169.453 540.841 169.453 539.311 169.453C537.782 169.453 536.378 169.453 534.648 169.453C532.979 169.334 531.303 169.334 529.633 169.453L529.909 171.96C531.429 171.871 532.953 171.871 534.472 171.96C536.378 172.035 537.932 172.01 539.386 171.96Z" fill="#E0DFE6"></path> <path d="M448.236 121.515C450.342 124.022 452.523 126.73 454.83 129.714C459.493 135.756 464.056 142.25 468.494 148.292C472.931 154.334 477.57 160.828 482.308 167.046C487.047 173.264 491.309 178.253 495.496 182.766L497.326 181.061C493.189 176.623 488.927 171.509 484.289 165.516C479.651 159.524 474.987 152.981 470.525 146.813C466.062 140.645 461.499 134.277 456.81 128.184C454.303 124.825 451.796 121.816 449.414 119.033L447.484 120.613L448.186 121.54L448.236 121.515Z" fill="#E0DFE6"></path> <path d="M522.318 137.136C518.484 137.172 514.657 136.777 510.911 135.957L510.359 138.464C514.286 139.328 518.298 139.74 522.318 139.693C526.48 139.693 530.718 139.342 534.854 138.991C540.5 138.394 546.182 138.226 551.853 138.49L552.029 135.982C546.233 135.718 540.425 135.885 534.654 136.484C530.567 136.785 526.38 137.136 522.318 137.136Z" fill="#E0DFE6"></path> <path d="M564.454 111.613C558.988 112.114 552.996 112.34 546.126 112.34C539.256 112.34 532.061 112.089 525.191 111.863C518.321 111.638 511.201 111.387 504.281 111.387C500.445 111.387 496.96 111.387 493.651 111.613V114.12H494.704C497.687 114.12 500.821 113.944 504.231 113.944C511.101 113.944 518.196 114.17 525.041 114.421C531.885 114.671 539.081 114.897 546.076 114.897C553.071 114.897 559.088 114.646 564.629 114.145L564.454 111.613Z" fill="#E0DFE6"></path> <path d="M534.804 349.544C540.45 348.947 546.132 348.779 551.803 349.043L551.978 346.535C546.182 346.271 540.375 346.438 534.604 347.037C530.567 347.388 526.38 347.739 522.318 347.739C518.484 347.775 514.657 347.38 510.911 346.561L510.359 349.068C514.286 349.931 518.298 350.343 522.318 350.296C526.48 350.246 530.718 349.895 534.804 349.544Z" fill="#E0DFE6"></path> <path d="M573.885 314.042L572.079 315.772C578.997 323.098 585.517 330.789 591.61 338.813C593.616 341.32 595.597 344.003 597.552 346.611L599.658 345.257C597.653 342.599 595.647 339.916 593.591 337.284C587.453 329.182 580.874 321.423 573.885 314.042Z" fill="#E0DFE6"></path> <path d="M556.141 335.955H501.134V338.462H556.141V335.955Z" fill="#E0DFE6"></path> <path d="M564.109 345.459L562.128 347.013L573.235 361.379L575.416 360.1L564.109 345.459Z" fill="#E0DFE6"></path> <path d="M559.238 361.679L557.408 363.384C558.786 364.888 560.216 366.493 561.594 368.097L563.801 366.818C562.397 365.038 560.817 363.283 559.238 361.679Z" fill="#E0DFE6"></path> <path d="M580.031 299L578.151 300.655C588.18 312.288 598.66 324.874 609.666 338.89L611.772 337.51C600.69 323.445 590.235 310.759 580.031 299Z" fill="#E0DFE6"></path> <path d="M494.754 324.724C497.738 324.724 500.871 324.548 504.281 324.548C511.151 324.548 518.246 324.774 525.091 325.025C531.935 325.276 539.131 325.501 546.126 325.501C553.121 325.501 559.138 325.251 564.679 324.749L564.454 322.242C558.988 322.743 552.996 322.969 546.126 322.969C539.256 322.969 532.061 322.718 525.191 322.493C518.321 322.267 511.201 322.016 504.281 322.016C500.445 322.016 496.96 322.016 493.651 322.242V324.749L494.754 324.724Z" fill="#E0DFE6"></path> <path d="M534.648 380.106C532.979 379.986 531.303 379.986 529.633 380.106L529.909 382.613C531.429 382.523 532.953 382.523 534.472 382.613H535.601L540.264 380.106H539.186C537.882 380.106 536.378 380.131 534.648 380.106Z" fill="#E0DFE6"></path> <path d="M578.507 338.788C576 335.429 573.493 332.42 571.111 329.637L569.18 331.217L569.882 332.144C571.988 334.651 574.144 337.359 576.476 340.343C579.786 344.655 583.07 349.143 586.279 353.581L588.435 352.277C585.201 347.739 581.816 343.176 578.507 338.788Z" fill="#E0DFE6"></path> <path d="M531.667 299.978C543.977 299.978 550.245 300.203 558.895 300.529C562.831 300.68 567.219 300.855 572.86 301.006V298.499C567.219 298.348 562.831 298.173 558.92 298.022C550.245 297.696 543.877 297.471 531.592 297.471C511.384 297.471 493.382 297.947 476.434 298.95L476.584 301.457C493.658 300.454 511.609 299.978 531.667 299.978Z" fill="#E0DFE6"></path> <path d="M529.158 369.751C529.986 369.751 530.763 369.751 531.666 369.751C534.8 369.751 543.976 369.751 546.709 369.751L546.558 367.244C544.051 367.244 534.9 367.244 531.766 367.244C530.888 367.244 530.061 367.244 529.259 367.244C528.456 367.244 526.752 367.395 524.971 367.244V369.751H526.425C527.153 369.852 528.13 369.801 529.158 369.751Z" fill="#E0DFE6"></path> <path d="M511.613 312.864C517.103 312.864 539.192 313.265 544.607 313.265C547.942 313.265 550.524 313.416 553.031 313.566C557.656 313.949 562.306 313.899 566.921 313.415L566.645 310.908C562.172 311.379 557.664 311.429 553.182 311.059C550.675 311.059 548.017 310.758 544.607 310.758C539.116 310.758 517.028 310.357 511.613 310.357C502.403 310.291 493.197 310.718 484.034 311.635L484.309 314.143C493.381 313.225 502.495 312.799 511.613 312.864Z" fill="#E0DFE6"></path> <path d="M513.438 389.559C506.513 382.24 499.993 374.548 493.907 366.518C490.171 361.704 475.655 342.148 471.919 337.335C465.766 329.238 459.179 321.479 452.188 314.093L450.383 315.823C457.309 323.148 463.837 330.839 469.939 338.864C473.649 343.678 488.166 363.209 491.901 368.048C498.061 376.14 504.648 383.898 511.633 391.289L513.438 389.559Z" fill="#E0DFE6"></path> <path d="M448.236 332.119C450.342 334.626 452.523 337.334 454.83 340.318C459.493 346.36 464.056 352.854 468.494 358.896C472.931 364.938 477.57 371.432 482.308 377.65C487.047 383.868 491.309 388.857 495.496 393.37L497.326 391.665C493.189 387.227 488.927 382.113 484.289 376.12C479.651 370.128 474.987 363.585 470.525 357.417C466.062 351.249 461.499 344.881 456.81 338.788C454.303 335.429 451.796 332.42 449.414 329.637L447.484 331.217L448.186 332.144L448.236 332.119Z" fill="#E0DFE6"></path> <path d="M496.871 346.259C483.207 328.709 470.621 313.139 458.335 299.049L456.455 300.704C468.69 314.744 481.251 330.163 494.89 347.789C504.092 359.723 513.87 372.86 525.277 388.38L527.484 387.151C515.976 371.406 506.147 358.269 496.871 346.259Z" fill="#E0DFE6"></path> <path d="M545.031 359.171H550.045V356.664H545.031C536.424 356.376 527.808 356.627 519.232 357.417L519.583 359.924C528.043 359.157 536.541 358.906 545.031 359.171Z" fill="#E0DFE6"></path> <path d="M700.672 262.897L683.121 240.157L681.141 241.711L699.142 265.003L700.672 262.897Z" fill="#E0DFE6"></path> <path d="M652.521 194.676C664.856 194.676 671.124 194.901 679.774 195.227C683.71 195.378 688.098 195.553 693.714 195.704V193.197C688.098 193.046 683.685 192.871 679.799 192.72C671.099 192.394 664.756 192.169 652.445 192.169C632.263 192.169 614.236 192.645 597.287 193.648L597.438 196.155C614.411 195.152 632.363 194.676 652.521 194.676Z" fill="#E0DFE6"></path> <path d="M632.349 207.562C637.84 207.562 659.928 207.963 665.344 207.963C668.678 207.963 671.261 208.114 673.768 208.264C678.393 208.647 683.043 208.597 687.658 208.113L687.382 205.606C682.909 206.077 678.401 206.127 673.918 205.757C671.411 205.757 668.754 205.456 665.344 205.456C659.853 205.456 637.765 205.055 632.349 205.055C623.14 204.989 613.934 205.416 604.77 206.333L605.046 208.841C614.118 207.923 623.232 207.497 632.349 207.562Z" fill="#E0DFE6"></path> <path d="M691.072 210.521C697.998 217.846 704.526 225.537 710.627 233.562C711.881 235.167 713.135 236.821 714.338 238.451C714.714 237.548 715.065 236.646 715.416 235.743C714.488 234.49 713.561 233.236 712.608 232.033C706.455 223.936 699.868 216.177 692.877 208.791L691.072 210.521Z" fill="#E0DFE6"></path> <path d="M643.069 242.437C639.243 242.474 635.424 242.079 631.687 241.259L631.135 243.766C635.053 244.629 639.057 245.041 643.069 244.995C647.256 244.995 651.493 244.644 655.605 244.293C661.242 243.696 666.916 243.528 672.579 243.791L672.779 241.284C666.983 241.02 661.175 241.187 655.404 241.786C651.343 242.087 647.156 242.437 643.069 242.437Z" fill="#E0DFE6"></path> <path d="M676.917 230.655H621.909V233.162H676.917V230.655Z" fill="#E0DFE6"></path> <path d="M660.564 286.214C659.806 286.127 659.041 286.127 658.283 286.214L658.759 288.721C659.317 288.659 659.881 288.659 660.439 288.721H661.442C662.178 288.73 662.909 288.602 663.598 288.345L662.67 286.013C661.988 286.215 661.273 286.284 660.564 286.214Z" fill="#E0DFE6"></path> <path d="M720.285 219.122C713.014 210.121 705.969 201.722 699.024 193.749L697.144 195.404C704.465 203.803 711.886 212.678 719.709 222.231C719.834 221.278 720.085 220.15 720.285 219.122Z" fill="#E0DFE6"></path> <path d="M670.821 251.363H665.807C657.2 251.074 648.583 251.325 640.008 252.115L640.359 254.622C648.81 253.865 657.3 253.622 665.781 253.895H670.796L670.821 251.363Z" fill="#E0DFE6"></path> <path d="M676.274 271.622L674.795 273.653C678.176 276.228 681.277 279.153 684.046 282.378L685.801 280.573C682.945 277.266 679.752 274.267 676.274 271.622Z" fill="#E0DFE6"></path> <path d="M688.172 225.916L688.875 226.844C690.981 229.351 693.162 232.059 695.468 235.042C699.655 240.483 703.767 246.174 707.804 251.765L709.133 249.258C705.322 243.968 701.436 238.602 697.449 233.438C694.942 230.078 692.435 227.069 690.053 224.286L688.172 225.916Z" fill="#E0DFE6"></path> <path d="M678.891 256.929L676.911 258.459C679.117 261.342 685.234 268.337 691.026 274.981L692.681 273.076C686.964 266.532 681.047 259.712 678.891 256.929Z" fill="#E0DFE6"></path> <path d="M664.558 274.755C662.979 274.755 661.524 274.755 660.02 274.755C658.516 274.755 657.087 274.755 655.332 274.755C653.712 274.641 652.087 274.641 650.468 274.755L650.744 277.262C652.263 277.172 653.787 277.172 655.307 277.262C657.087 277.262 658.641 277.262 660.095 277.262C661.532 277.187 662.971 277.187 664.408 277.262L664.558 274.755Z" fill="#E0DFE6"></path> <path d="M685.229 216.915C679.764 217.416 673.772 217.642 666.902 217.642C660.032 217.642 652.837 217.391 645.967 217.165C639.097 216.94 631.977 216.689 625.057 216.689C621.221 216.689 617.736 216.689 614.427 216.915V219.422H615.48C618.463 219.422 621.597 219.246 625.007 219.246C631.876 219.246 638.972 219.472 645.816 219.723C652.661 219.973 659.857 220.199 666.852 220.199C673.847 220.199 679.864 219.948 685.405 219.447L685.229 216.915Z" fill="#E0DFE6"></path> <path d="M722.47 195.879V193.372L717.456 193.648L717.606 196.155L722.47 195.879Z" fill="#E0DFE6"></path> <path d="M667.059 261.868C664.552 261.868 655.376 261.868 652.267 261.868C651.39 261.868 650.562 261.868 649.76 261.868C648.958 261.868 647.253 262.018 645.473 261.868V264.375H646.927C648.13 264.375 649.108 264.375 650.011 264.375C650.913 264.375 651.59 264.375 652.518 264.375C655.652 264.375 664.803 264.375 667.561 264.375L667.059 261.868Z" fill="#E0DFE6"></path> <path d="M683.144 134.712L681.16 136.246L718.387 184.411L720.37 182.877L683.144 134.712Z" fill="#E0DFE6"></path> <path d="M688.866 121.541C690.972 124.048 693.153 126.756 695.46 129.74C700.123 135.782 704.686 142.276 709.124 148.318L712.383 152.806C706.638 140.522 698.741 129.365 689.067 119.861L688.114 120.639L688.866 121.541Z" fill="#E0DFE6"></path> <path d="M667.059 156.566C664.552 156.566 655.376 156.566 652.267 156.566C651.39 156.566 650.562 156.566 649.76 156.566C648.958 156.566 647.253 156.716 645.473 156.566V159.073H646.927C648.13 159.073 649.108 159.073 650.011 159.073C650.913 159.073 651.59 159.073 652.518 159.073C655.652 159.073 664.803 159.073 667.561 159.073L667.059 156.566Z" fill="#E0DFE6"></path> <path d="M703.111 183.669C704.264 185.123 705.242 186.527 706.169 187.906L708.25 186.527C707.298 185.098 706.27 183.644 705.116 182.139C703.963 180.635 699.5 175.545 694.486 169.779C688.293 162.684 681.273 154.736 678.891 151.577L676.911 153.106C679.418 156.24 686.363 164.313 692.58 171.434C697.394 176.975 701.907 182.139 703.111 183.669Z" fill="#E0DFE6"></path> <path d="M637.874 89.4501C635.543 88.6227 633.161 87.8204 630.779 86.9429C619.046 87.1685 608.039 87.5948 597.484 88.2216L597.634 90.7288C610.245 90.102 623.508 89.6506 637.874 89.4501Z" fill="#E0DFE6"></path> <path d="M632.349 102.26C637.84 102.26 666.297 102.686 666.748 102.686C665.72 102.084 664.692 101.458 663.639 100.881C663.163 100.63 662.661 100.405 662.185 100.129C657.747 100.129 637.865 99.7528 632.349 99.7528C623.14 99.6869 613.934 100.114 604.77 101.031L605.046 103.539C614.118 102.621 623.232 102.195 632.349 102.26Z" fill="#E0DFE6"></path> <path d="M664.558 169.453C662.979 169.453 661.524 169.453 660.02 169.453C658.516 169.453 657.087 169.453 655.332 169.453C653.712 169.339 652.087 169.339 650.468 169.453L650.744 171.96C652.263 171.87 653.787 171.87 655.307 171.96C657.087 171.96 658.641 171.96 660.095 171.96C661.532 171.885 662.971 171.885 664.408 171.96L664.558 169.453Z" fill="#E0DFE6"></path> <path d="M660.564 180.912C659.806 180.825 659.041 180.825 658.283 180.912L658.759 183.419C659.317 183.357 659.881 183.357 660.439 183.419H661.442C662.178 183.428 662.909 183.3 663.598 183.043L662.67 180.711C661.988 180.913 661.273 180.982 660.564 180.912Z" fill="#E0DFE6"></path> <path d="M680.24 111.964C676.128 112.214 671.741 112.34 666.902 112.34C659.957 112.34 652.837 112.089 645.967 111.863C639.097 111.638 631.977 111.387 625.057 111.387C621.221 111.387 617.736 111.387 614.427 111.613V114.12H615.48C618.463 114.12 621.597 113.944 625.007 113.944C631.876 113.944 638.972 114.17 645.816 114.421C652.661 114.671 659.857 114.897 666.852 114.897C672.819 114.897 678.109 114.722 683.023 114.345C682.095 113.468 681.193 112.741 680.24 111.964Z" fill="#E0DFE6"></path> <path d="M676.917 125.353H621.909V127.86H676.917V125.353Z" fill="#E0DFE6"></path> <path d="M643.069 137.136C639.243 137.172 635.424 136.777 631.687 135.957L631.135 138.464C635.053 139.327 639.057 139.739 643.069 139.693C647.256 139.693 651.493 139.342 655.605 138.991C661.242 138.394 666.916 138.226 672.579 138.49L672.779 135.982C666.983 135.718 661.175 135.885 655.404 136.484C651.343 136.785 647.156 137.136 643.069 137.136Z" fill="#E0DFE6"></path> <path d="M670.821 146.063H665.807C657.2 145.774 648.583 146.025 640.008 146.815L640.359 149.322C648.81 148.565 657.3 148.322 665.781 148.595H670.796L670.821 146.063Z" fill="#E0DFE6"></path> <path d="M675.678 186.677L677.658 185.148C676.33 183.443 675.402 182.089 674.6 180.911C673.19 178.647 671.506 176.567 669.585 174.718L667.88 176.548C669.691 178.275 671.29 180.211 672.644 182.314C673.371 183.668 674.324 184.922 675.678 186.677Z" fill="#E0DFE6"></path> <path d="M692.125 187.054L694.106 185.525C689.091 178.956 683.275 171.485 676.254 166.32L674.775 168.351C681.52 173.29 687.111 180.611 692.125 187.054Z" fill="#E0DFE6"></path> <path d="M652.504 297.471C632.321 297.471 614.295 297.947 597.346 298.95L597.496 301.457C614.27 300.479 632.221 300.003 652.379 300.003C657.042 300.003 660.828 300.003 664.187 300.003L667.171 297.496C663.159 297.521 658.571 297.471 652.504 297.471Z" fill="#E0DFE6"></path> <path d="M648.872 310.557C643.356 310.557 637.865 310.357 632.349 310.357C623.14 310.291 613.934 310.718 604.77 311.635L605.046 314.143C614.101 313.236 623.199 312.817 632.299 312.889C637.314 312.889 642.328 312.889 647.342 313.064L650.677 310.557H648.872Z" fill="#E0DFE6"></path> <path d="M625.057 321.991C621.221 321.991 617.736 321.991 614.427 322.217V324.724H615.48C618.463 324.724 621.597 324.548 625.007 324.548H630.974L634.509 322.041C631.375 322.041 628.191 321.991 625.057 321.991Z" fill="#E0DFE6"></path> <path d="M637.618 197.108C634.76 174.794 620.469 158.974 602.517 146.689C584.566 134.404 563.456 126.331 543.874 117.505C519.329 106.449 490.647 89.4499 463.018 97.4478C444.866 102.663 435.439 124.325 445.342 140.872C458.731 163.211 484.83 170.231 507.32 180.16C526.921 188.373 546.093 197.578 564.759 207.739L565.486 208.14L561.751 211.249C548.438 221.754 527.979 235.594 511.908 247.026C475.554 272.85 438.849 298.148 401.592 322.467C382.964 334.577 363.984 346.411 344.88 357.568C335.904 362.808 326.978 368.248 317.626 372.811C307.773 377.65 297.569 384.244 287.39 388.08C283.153 389.685 279.868 396.078 284.356 399.588C291 404.778 295.789 409.115 304.414 410.745C314.721 412.751 325.352 412.348 335.478 409.567C355.184 404.377 373.436 394.649 391.563 385.548C429.948 366.293 467.305 345.258 504.086 323.119C521.753 312.472 539.303 301.674 556.736 290.726C573.71 280.171 591.686 270.368 607.657 258.334C627.389 243.441 640.852 222.556 637.618 197.108Z" fill="#D7DCE0"></path> <path d="M594.335 172.161V219.622C594.135 224.235 591.202 228.648 585.46 231.957L316.791 387.051C303.603 394.573 280.612 393.72 265.418 384.945L16.355 241.133C8.03117 236.345 3.81911 230.202 3.81911 224.385V176.925C3.81911 182.741 8.08132 188.884 16.355 193.697L265.418 337.484C280.612 346.259 303.603 347.212 316.791 339.615L585.385 184.521C591.126 181.161 594.06 176.799 594.335 172.161Z" fill="#3A3A3A"></path> <path d="M581.8 154.887C590.275 159.901 594.537 166.068 594.336 171.985V172.161C594.136 176.799 591.202 181.212 585.461 184.521L316.791 339.616C303.604 347.137 280.613 346.26 265.419 337.484L51.4564 213.956L367.737 31.3577L581.8 154.887ZM452.931 193.146L506.359 162.308L452.931 131.47L399.503 162.308L452.931 193.146ZM369.417 144.933L422.845 114.095L369.317 83.3817L315.889 114.22L369.417 144.933ZM365.656 243.54L419.084 212.702L365.656 181.864L312.228 212.702L365.656 243.54ZM282.142 195.327L335.57 164.489L282.042 133.525L228.614 164.389L282.142 195.327ZM278.381 293.935L331.809 263.097L278.381 232.258L224.953 263.097L278.381 293.935ZM194.867 245.722L248.27 214.858L194.867 184.02L141.439 214.858L194.867 245.722Z" fill="white"></path> <path d="M506.262 162.308L452.834 193.146L399.406 162.308L452.834 131.469L506.262 162.308Z" fill="white"></path> <path d="M422.741 114.095L369.313 144.933L315.885 114.095L369.313 83.2566L422.741 114.095Z" fill="white"></path> <path d="M418.981 212.702L365.553 243.54L312.125 212.702L365.553 181.864L418.981 212.702Z" fill="white"></path> <path d="M367.737 31.3583L51.4556 213.956L16.355 193.698C8.03118 188.884 3.81911 182.742 3.81911 176.925C3.81911 176.75 3.81911 176.549 3.81911 176.374C3.81911 171.76 6.95319 167.348 12.6946 164.038L281.289 8.94421C294.477 1.42267 317.442 2.30012 332.661 11.0753L367.737 31.3583Z" fill="#D7DCE0"></path> <path d="M335.479 164.489L282.051 195.328L228.623 164.489L282.051 133.626L335.479 164.489Z" fill="white"></path> <path d="M331.719 263.097L278.291 293.935L224.863 263.097L278.291 232.259L331.719 263.097Z" fill="white"></path> <path d="M248.173 214.859L194.77 245.722L141.342 214.859L194.77 184.021L248.173 214.859Z" fill="#3A3A3A"></path> <path d="M294.428 348.541C283.635 348.621 273.001 345.937 263.539 340.744L14.4757 196.957C5.27433 191.642 0.00935018 184.421 0.00935018 176.9C-0.00311673 176.724 -0.00311673 176.548 0.00935018 176.373C0.00935018 170.18 3.97064 164.69 10.7651 160.753L279.384 5.65907C293.826 -2.6397 318.02 -1.71211 334.542 7.79011L583.606 151.602C593.008 157.017 598.273 164.489 598.047 172.061V172.286C597.771 178.429 593.96 183.92 587.291 187.756L318.672 342.875C311.21 346.81 302.861 348.762 294.428 348.541ZM303.579 7.56455C296.482 7.35491 289.449 8.95998 283.145 12.2279L14.551 167.322C10.1133 169.829 7.6312 173.139 7.55599 176.473C7.55599 176.473 7.55599 176.824 7.55599 176.875C7.55599 181.613 11.4671 186.527 18.2615 190.463L267.325 334.25C281.465 342.424 302.827 343.376 314.961 336.381L583.505 181.162C586.564 179.382 590.275 176.373 590.5 171.985C590.651 167.222 586.64 162.082 579.82 158.146L330.757 14.3338C322.396 9.79208 313.017 7.4539 303.504 7.53945L303.579 7.56455Z" fill="#3A3A3A"></path> <path d="M51.4598 217.716C50.6312 217.717 49.8255 217.445 49.1678 216.941C48.5101 216.436 48.0374 215.729 47.823 214.929C47.6086 214.128 47.6645 213.279 47.9822 212.514C48.2998 211.749 48.8613 211.11 49.5794 210.696L365.86 28.2238C366.725 27.7251 367.752 27.5903 368.716 27.8489C369.68 28.1075 370.501 28.7384 371 29.6028C371.499 30.4673 371.634 31.4944 371.375 32.4583C371.117 33.4222 370.486 34.2437 369.621 34.7424L53.3402 217.341C52.758 217.631 52.1089 217.76 51.4598 217.716Z" fill="#3A3A3A"></path> <path d="M194.775 249.482C194.115 249.479 193.468 249.307 192.894 248.981L139.466 218.117C138.893 217.787 138.418 217.312 138.087 216.74C137.756 216.168 137.582 215.519 137.582 214.858C137.582 214.197 137.756 213.548 138.087 212.975C138.418 212.403 138.893 211.928 139.466 211.598L192.894 180.76C193.465 180.427 194.114 180.252 194.775 180.252C195.435 180.252 196.084 180.427 196.655 180.76L250.058 211.598C250.631 211.928 251.107 212.403 251.438 212.975C251.768 213.548 251.943 214.197 251.943 214.858C251.943 215.519 251.768 216.168 251.438 216.74C251.107 217.312 250.631 217.787 250.058 218.117L196.655 248.981C196.082 249.307 195.434 249.479 194.775 249.482ZM148.868 214.858L194.775 241.334L240.656 214.808L194.775 188.307L148.868 214.858Z" fill="#3A3A3A"></path> <path d="M282.036 199.088C281.377 199.085 280.729 198.913 280.156 198.587L226.728 167.748C226.155 167.419 225.679 166.944 225.348 166.372C225.017 165.799 224.843 165.15 224.843 164.489C224.843 163.828 225.017 163.179 225.348 162.606C225.679 162.034 226.155 161.56 226.728 161.23L280.156 130.366C280.726 130.034 281.375 129.859 282.036 129.859C282.697 129.859 283.346 130.034 283.916 130.366L337.344 161.23C337.917 161.56 338.393 162.034 338.724 162.606C339.055 163.179 339.229 163.828 339.229 164.489C339.229 165.15 339.055 165.799 338.724 166.372C338.393 166.944 337.917 167.419 337.344 167.748L283.916 198.712C283.332 198.995 282.685 199.124 282.036 199.088ZM236.13 164.489L282.036 190.99L327.942 164.489L282.036 137.963L236.13 164.489Z" fill="#3A3A3A"></path> <path d="M369.318 148.694C368.658 148.691 368.011 148.518 367.437 148.192L314.009 117.354C313.437 117.024 312.961 116.549 312.63 115.977C312.299 115.405 312.125 114.756 312.125 114.095C312.125 113.434 312.299 112.784 312.63 112.212C312.961 111.64 313.437 111.165 314.009 110.835L367.437 79.997C368.008 79.6645 368.657 79.4893 369.318 79.4893C369.978 79.4893 370.627 79.6645 371.198 79.997L424.626 110.835C425.199 111.165 425.675 111.64 426.006 112.212C426.337 112.784 426.511 113.434 426.511 114.095C426.511 114.756 426.337 115.405 426.006 115.977C425.675 116.549 425.199 117.024 424.626 117.354L371.198 148.192C370.625 148.518 369.977 148.691 369.318 148.694ZM323.411 114.095L369.318 140.595L415.224 114.095L369.318 87.5938L323.411 114.095Z" fill="#3A3A3A"></path> <path d="M278.275 297.695C277.616 297.693 276.968 297.52 276.395 297.194L222.967 266.406C222.394 266.076 221.918 265.601 221.588 265.029C221.257 264.457 221.083 263.807 221.083 263.146C221.083 262.485 221.257 261.836 221.588 261.264C221.918 260.692 222.394 260.217 222.967 259.887L276.395 229.049C276.966 228.716 277.615 228.541 278.275 228.541C278.936 228.541 279.585 228.716 280.156 229.049L333.584 259.887C334.157 260.217 334.633 260.692 334.963 261.264C335.294 261.836 335.468 262.485 335.468 263.146C335.468 263.807 335.294 264.457 334.963 265.029C334.633 265.601 334.157 266.076 333.584 266.406L280.156 297.244C279.578 297.553 278.931 297.708 278.275 297.695ZM232.369 263.097L278.275 289.597L324.182 263.097L278.275 236.595L232.369 263.097Z" fill="#3A3A3A"></path> <path d="M365.556 247.302C364.897 247.299 364.249 247.126 363.676 246.8L310.248 215.962C309.675 215.632 309.199 215.157 308.868 214.585C308.538 214.013 308.363 213.363 308.363 212.703C308.363 212.042 308.538 211.392 308.868 210.82C309.199 210.248 309.675 209.773 310.248 209.443L363.676 178.655C364.247 178.323 364.896 178.147 365.556 178.147C366.217 178.147 366.866 178.323 367.437 178.655L420.865 209.494C421.438 209.823 421.913 210.298 422.244 210.87C422.575 211.442 422.749 212.092 422.749 212.753C422.749 213.414 422.575 214.063 422.244 214.635C421.913 215.207 421.438 215.682 420.865 216.012L367.437 246.85C366.859 247.159 366.211 247.314 365.556 247.302ZM319.65 212.703L365.556 239.204L411.463 212.703L365.556 186.177L319.65 212.703Z" fill="#3A3A3A"></path> <path d="M452.838 196.906C452.179 196.904 451.531 196.731 450.958 196.405L397.53 165.567C396.957 165.237 396.481 164.762 396.15 164.19C395.819 163.618 395.645 162.968 395.645 162.307C395.645 161.646 395.819 160.997 396.15 160.425C396.481 159.852 396.957 159.378 397.53 159.048L450.958 128.21C451.529 127.877 452.177 127.702 452.838 127.702C453.499 127.702 454.148 127.877 454.719 128.21L508.147 159.048C508.719 159.378 509.195 159.852 509.526 160.425C509.857 160.997 510.031 161.646 510.031 162.307C510.031 162.968 509.857 163.618 509.526 164.19C509.195 164.762 508.719 165.237 508.147 165.567L454.719 196.405C454.145 196.731 453.498 196.904 452.838 196.906ZM406.932 162.307L452.838 188.808L498.745 162.307L452.838 135.806L406.932 162.307Z" fill="#3A3A3A"></path> <path d="M294.368 396.002C283.591 396.084 272.973 393.399 263.53 388.204L14.4663 244.392C5.26498 239.102 0 231.856 0 224.335V176.874C0 175.877 0.396201 174.92 1.10148 174.215C1.80676 173.51 2.76335 173.113 3.76077 173.113C4.75819 173.113 5.71478 173.51 6.42006 174.215C7.12534 174.92 7.52154 175.877 7.52154 176.874V224.335C7.52154 228.998 11.4326 233.912 18.2271 237.824L267.291 381.736C281.406 389.884 302.767 390.837 314.927 383.842L583.496 228.798C587.859 226.291 590.341 223.006 590.491 219.546V172.261C590.491 171.263 590.888 170.307 591.593 169.601C592.298 168.896 593.255 168.5 594.252 168.5C595.249 168.5 596.206 168.896 596.911 169.601C597.617 170.307 598.013 171.263 598.013 172.261V219.722C597.737 225.99 593.926 231.48 587.257 235.316L318.663 390.411C311.175 394.319 302.811 396.244 294.368 396.002Z" fill="#3A3A3A"></path> </svg> 