<?xml version="1.0" encoding="UTF-8"?> <svg xmlns="http://www.w3.org/2000/svg" width="202" height="144" viewBox="0 0 202 144" fill="none"> <path d="M141.228 117.886C141.754 118.03 142.304 118.068 142.846 117.997C143.387 117.925 143.909 117.747 144.38 117.471L171.025 102.108L194.003 141.926C194.366 142.557 194.887 143.08 195.517 143.444C196.146 143.809 196.86 144 197.587 144C198.314 143.999 199.028 143.811 199.661 143.453C200.135 143.181 200.55 142.818 200.883 142.385C201.215 141.953 201.459 141.458 201.599 140.93C201.74 140.403 201.774 139.853 201.701 139.312C201.627 138.771 201.447 138.249 201.171 137.778L176.118 94.4096C175.849 93.9365 175.487 93.5217 175.056 93.1892C174.625 92.8567 174.131 92.6131 173.605 92.4727C173.079 92.3322 172.53 92.2977 171.99 92.371C171.45 92.4444 170.931 92.624 170.461 92.8998L143.816 108.263L116.524 60.9954C115.975 60.0436 115.071 59.3485 114.011 59.0623C112.95 58.7762 111.819 58.9225 110.866 59.4692L85.1004 74.4011L63.9138 37.5028C63.6437 37.0299 63.2828 36.6149 62.8519 36.282C62.4209 35.9491 61.9283 35.7047 61.4025 35.5628C60.8767 35.4209 60.328 35.3845 59.7881 35.4555C59.2481 35.5264 58.7276 35.7035 58.2563 35.9764L35.029 49.3652L7.75342 2.09756C7.48306 1.62204 7.12131 1.20479 6.689 0.869647C6.25669 0.534503 5.7624 0.288125 5.2345 0.144805C4.70661 0.00148539 4.15557 -0.0358747 3.61313 0.034631C3.07069 0.105137 2.54754 0.282223 2.07383 0.555731C1.60011 0.829239 1.18517 1.19358 0.852898 1.62811C0.520629 2.06263 0.277593 2.55868 0.137778 3.08751C-0.00203706 3.61634 -0.035866 4.16758 0.0382364 4.70954C0.112339 5.25151 0.29292 5.77341 0.569564 6.2453L29.919 57.1132C30.4789 58.0603 31.3819 58.7555 32.4408 59.0544C33.5051 59.3367 34.6379 59.1876 35.593 58.6396L58.8204 45.2506L80.0734 82.0328C80.3448 82.5044 80.7068 82.9175 81.1384 83.2488C81.57 83.5801 82.0628 83.8228 82.5885 83.9631C83.1141 84.1034 83.6624 84.1386 84.2016 84.0664C84.7409 83.9942 85.2606 83.8163 85.7309 83.5427L111.48 68.6108L138.789 115.895C139.306 116.856 140.183 117.572 141.228 117.886Z" fill="#3A3A3A"></path> </svg> 