<?xml version="1.0" encoding="UTF-8"?> <svg xmlns="http://www.w3.org/2000/svg" width="504" height="357" viewBox="0 0 504 357" fill="none"> <path d="M491.767 142.737C467.858 101.049 415.749 83.0499 369.843 87.7827C347.136 90.2349 306.086 96.7331 302.138 125.351C298.337 152.595 338.038 154.777 356.086 154.581C375.459 154.336 399.098 153.428 414.694 160.638C420.357 163.22 425.573 166.688 430.143 170.913C435.955 176.308 438.824 180.06 440.516 187.686C448.314 222.875 403.733 250.855 375.704 265.912C335.733 287.624 291.54 300.439 246.153 303.48C222.979 305.063 199.709 304.521 176.633 301.861C165.157 300.414 153.827 298.894 142.498 296.638C131.61 294.455 118.663 290.704 108.412 296.295C106.458 297.471 104.938 299.249 104.081 301.363C103.223 303.476 103.074 305.811 103.655 308.016C108.314 326.678 136.834 335.162 152.699 341.293C173.077 349.214 194.976 352.843 216.629 355.369C259.077 360.273 304.639 353.677 345.37 341.514C387.916 328.787 432.399 307.501 464.646 276.383C499.713 242.518 517.467 187.49 491.767 142.737Z" fill="#D7DCE0"></path> <path d="M450.988 120.397C451.7 124.643 452.061 128.941 452.067 133.246C452.067 166.4 430.169 199.456 386.372 224.763C298.877 275.352 156.869 275.352 69.2759 224.763C25.5038 199.554 3.77712 166.498 3.77712 133.246C3.77712 101.367 23.8118 69.6848 64.0281 44.9665L227.223 139.181L313.958 13.7253C339.295 19.5499 363.665 28.9807 386.323 41.7296C424.529 63.6279 445.985 91.5832 450.988 120.397Z" fill="white"></path> <path d="M3.77712 133.247C3.77712 166.401 25.6018 199.457 69.3739 224.764C156.967 275.353 298.975 275.353 386.47 224.764C430.267 199.555 452.165 166.401 452.165 133.247V197.005C452.165 230.159 430.267 263.215 386.47 288.521C298.975 339.135 156.967 339.135 69.3739 288.521C25.5773 263.19 3.77712 230.109 3.77712 196.956V133.247Z" fill="#3A3A3A"></path> <path d="M227.86 266.279C169.767 266.279 111.674 253.503 67.436 227.951C23.9582 202.914 0 169.294 0 133.246C0 98.9153 22.0699 66.4235 62.0165 41.7787L67.436 38.5417C132.42 0.826624 229.479 -10.3555 314.718 10.096C340.479 15.9952 365.256 25.5756 388.284 38.5417C425.729 60.0477 449.32 88.8857 454.69 119.759C455.427 124.217 455.804 128.728 455.818 133.246C455.818 169.269 431.836 202.889 388.284 227.951C344.022 253.503 285.928 266.279 227.86 266.279ZM227.37 7.32497C169.767 7.32497 113.44 20.3462 71.1143 44.9174C69.3487 45.9474 67.5831 46.9773 65.8665 48.0318C28.1514 71.3033 7.35665 101.564 7.35665 133.246C7.35665 166.547 29.9906 197.911 71.1143 221.526C157.555 271.453 298.165 271.453 384.532 221.526C425.705 197.838 448.29 166.474 448.29 133.246C448.284 129.138 447.939 125.037 447.26 120.985C442.355 92.3434 419.967 65.3199 384.434 44.9665C362.045 32.3471 337.954 23.0227 312.903 17.281C284.876 10.6472 256.171 7.30589 227.37 7.32497Z" fill="#3A3A3A"></path> <path d="M227.86 330.013C169.767 330.013 111.674 317.237 67.436 291.66C23.9582 266.501 0 232.807 0 196.956V133.198C0 132.222 0.387515 131.287 1.07734 130.597C1.76716 129.907 2.70277 129.52 3.67833 129.52C4.65388 129.52 5.58935 129.907 6.27917 130.597C6.96899 131.287 7.35665 132.222 7.35665 133.198V196.956C7.35665 230.134 30.0151 261.498 71.1143 285.235C157.555 335.187 298.165 335.187 384.532 285.235C425.705 261.474 448.29 230.11 448.29 196.956V133.198C448.29 132.222 448.677 131.287 449.367 130.597C450.057 129.907 450.993 129.52 451.968 129.52C452.944 129.52 453.879 129.907 454.569 130.597C455.259 131.287 455.647 132.222 455.647 133.198V196.956C455.647 232.881 431.664 266.525 388.112 291.66C344.021 317.212 285.928 330.013 227.86 330.013Z" fill="#3A3A3A"></path> </svg> 