<?xml version="1.0" encoding="UTF-8"?> <svg xmlns="http://www.w3.org/2000/svg" width="82" height="157" viewBox="0 0 82 157" fill="none"> <g style="mix-blend-mode:multiply"> <path d="M61.3531 135.173C59.4239 129.214 53.1279 124.945 46.7889 126.899C41.0624 128.663 35.2502 129.961 29.4686 131.505C23.5155 133.091 17.0908 134.261 11.7073 137.415C5.40516 141.09 7.35277 149.75 13.6182 152.04C19.5897 154.227 26.7309 153.749 32.9657 153.192C39.7027 152.579 46.4397 151.201 53.0727 149.738C59.136 148.39 63.2517 141.041 61.3531 135.173Z" fill="#D7DCE0"></path> </g> <path d="M13.006 114.546C14.507 116.524 16.114 118.419 17.8199 120.223L18.267 119.801C16.5732 118.013 14.9784 116.134 13.4898 114.172C13.3673 114.013 13.2509 113.854 13.1284 113.701L12.516 113.909C12.6814 114.117 12.8406 114.332 13.006 114.546Z" fill="#E0DFE6"></path> <path d="M13.8817 120.732L14.3288 120.315C13.3183 119.231 12.2709 117.982 11.1379 116.518C10.7214 115.979 10.3172 115.428 9.91295 114.883L9.33728 115.134C9.77212 115.746 10.207 116.316 10.6541 116.891C11.7994 118.374 12.8527 119.629 13.8817 120.732Z" fill="#E0DFE6"></path> <path d="M49.661 112.506L49.2266 112.372V112.555L49.661 112.506Z" fill="#E0DFE6"></path> <path d="M81.0499 143.24L81.0927 143.65V143.233L81.0499 143.24Z" fill="#E0DFE6"></path> <path d="M10.2008 37.805C9.60782 38.6314 8.8042 39.2838 7.87354 39.6942C6.94288 40.1046 5.91928 40.258 4.9092 40.1385C3.07183 39.918 1.41818 38.8707 1.29568 36.329C1.0752 31.5947 6.1402 31.2088 6.8629 28.2017C7.5856 25.1945 4.5784 24.086 6.52602 20.3561C8.47363 16.6262 11.8728 17.7409 13.7653 14.5684C15.6578 11.3958 14.0286 4.54858 20.9984 2.71121C25.1447 1.61491 31.4102 8.07633 30.8529 0.928955C30.8529 0.928955 35.0788 3.54415 33.9152 6.99841C33.5799 8.17872 32.8065 9.18647 31.7532 9.81572C30.2107 10.6687 28.8778 11.8551 27.8518 13.2883L10.2008 37.805Z" fill="#3A3A3A"></path> <path d="M5.56467 41.0939C5.30253 41.0959 5.04056 41.0795 4.78071 41.0449C2.09814 40.7264 0.493524 39.0238 0.358784 36.3718C0.205669 33.1197 2.19619 31.5885 3.83757 30.3575C4.85425 29.5797 5.73004 28.9121 5.95052 27.9873C6.1198 27.0957 5.97933 26.173 5.55241 25.3721C5.03182 24.0614 4.38873 22.4384 5.69326 19.9273C6.86918 17.6796 8.52282 16.9569 9.98047 16.32C11.2054 15.7994 12.2037 15.3462 12.9509 14.0968C13.457 13.0233 13.7879 11.8757 13.9309 10.6976C14.5433 7.37811 15.3456 3.25014 20.7414 1.82311C22.5788 1.33314 24.6121 2.06198 26.4066 2.69894C27.6315 3.13378 29.1076 3.66662 29.5608 3.3114C29.6772 3.21953 30.0446 2.7908 29.9099 0.984047C29.8978 0.815302 29.9327 0.646529 30.0105 0.496313C30.0883 0.346098 30.206 0.220284 30.3508 0.132741C30.4961 0.045874 30.6623 0 30.8316 0C31.0009 0 31.1671 0.045874 31.3124 0.132741C31.5084 0.255233 36.1447 3.19502 34.7605 7.28011C34.3524 8.67833 33.4256 9.8679 32.1698 10.6057C30.7464 11.3931 29.5178 12.4898 28.5747 13.815L10.9237 38.3133C10.3152 39.1688 9.5118 39.8672 8.57993 40.3507C7.64807 40.8342 6.61449 41.0889 5.56467 41.0939V41.0939ZM22.0337 3.50126C21.757 3.49875 21.4812 3.53168 21.213 3.59925C16.9258 4.72617 16.3133 7.93545 15.7437 11.0406C15.5648 12.4315 15.1506 13.7818 14.5188 15.0338C13.4654 16.7977 11.9955 17.4347 10.7032 18.0042C9.41091 18.5738 8.17984 19.1067 7.30403 20.7787C6.42822 22.4507 6.76508 23.4918 7.2428 24.6923C7.81549 25.8447 7.98377 27.1563 7.72053 28.416C7.34081 29.9778 6.11587 30.9148 4.93382 31.8151C3.39655 32.9849 2.06752 33.9955 2.17776 36.2861C2.25738 38.0193 3.20061 39.0115 4.97674 39.2259C5.82465 39.3249 6.68359 39.196 7.46514 38.8526C8.2467 38.5092 8.92262 37.9637 9.42318 37.2721L27.068 12.7738C28.1742 11.2324 29.6093 9.95626 31.2695 9.03786C32.1206 8.51322 32.7419 7.68626 33.0089 6.72277C33.5295 5.17938 32.5924 3.77686 31.686 2.85205C31.6121 3.61153 31.2452 4.31233 30.6632 4.80577C29.4382 5.75508 27.6437 5.12427 25.7635 4.45669C24.5839 3.94621 23.3315 3.62382 22.0521 3.50126H22.0337Z" fill="#3A3A3A"></path> <path d="M33.8048 66.07C34.3981 66.1126 34.9937 66.1126 35.5871 66.07L31.355 73.7931L38.5085 69.5059L38.6187 69.9897C39.2221 72.6778 39.5322 75.4233 39.5435 78.1783C39.4578 88.7554 38.8576 111.894 38.9311 118.264C39.0046 123.586 39.3108 127.401 39.8681 129.416C38.3064 130.543 35.7402 130.5 33.6885 129.845C33.6395 128.737 33.5353 127.322 33.2658 125.325C32.5248 119.813 29.5176 109.652 29.046 103.797C28.5744 97.9422 29.5176 97.3604 29.4134 92.6139C29.34 89.2453 27.0923 79.9054 25.7816 74.7607C25.8429 74.2218 25.8735 73.9217 25.8735 73.9217C27.8513 71.3103 29.3619 68.3762 30.3383 65.2493C31.4578 65.6572 32.6212 65.9326 33.8048 66.07V66.07Z" fill="#D7DCE0"></path> <path d="M25.7758 74.7361C25.3654 78.6191 23.6076 94.8614 22.3705 103.479C21.1456 111.722 19.786 133.771 19.3634 140.704C19.3196 141.402 19.3879 142.103 19.5654 142.78C17.7709 144.134 14.7026 143.515 12.5651 142.266C12.5651 140.171 12.5651 137.899 12.5651 136.625C12.5038 133.844 9.91311 120.646 9.84574 115.336C9.77837 110.026 11.8669 106.804 12.1854 103.142C12.4304 100.288 10.8808 91.2602 10.1213 87.4139C7.41426 73.7745 10.3724 66.9701 12.8896 60.8027C13.4322 59.6085 13.8986 58.3811 14.2861 57.1279C14.952 57.8781 15.7489 58.5007 16.6379 58.9653C20.1166 60.7721 26.0697 63.7486 30.3569 65.2124C29.3805 68.3393 27.8699 71.2734 25.8921 73.8848C25.8921 73.8848 25.8554 74.1971 25.7758 74.7361Z" fill="#D7DCE0"></path> <path d="M45.1232 49.362L44.6761 49.6193L42.2262 54.0779C39.4651 52.7646 36.8236 51.2133 34.3317 49.4416C34.3317 49.1109 34.399 48.4372 34.399 48.4372C34.5521 46.3365 34.7298 43.9357 34.7849 40.7019C35.1642 40.4376 35.487 40.1003 35.7342 39.7097C36.4054 38.4734 36.5785 37.0273 36.2181 35.6675L37.8717 42.0554C38.2057 43.3521 38.9621 44.5007 40.0214 45.3198C41.5587 46.5264 43.249 47.8615 45.1232 49.362Z" fill="white"></path> <path d="M35.2872 58.9897L35.8996 60.7229C34.8543 61.098 33.7031 61.0452 32.6965 60.576C31.2144 59.8839 29.8057 59.1489 28.4093 58.3527C30.6165 57.974 32.6775 56.9975 34.3685 55.5293C34.5581 56.7106 34.8659 57.8699 35.2872 58.9897V58.9897Z" fill="#D7DCE0"></path> <path d="M17.5563 46.9184C16.7568 47.7958 15.7838 48.4976 14.699 48.9794C13.6142 49.4612 12.4411 49.7125 11.2541 49.7174C9.90674 44.9524 8.74307 39.8629 8.03874 36.5679C7.82385 35.5675 7.84242 34.531 8.0931 33.5389C8.34377 32.5468 8.8198 31.6258 9.48413 30.8476C10.1517 30.0759 10.8438 29.3348 11.5665 28.6366C16.9378 23.4552 25.4754 21.1462 28.6112 20.6073C29.423 20.477 30.2537 20.5286 31.0432 20.7583C31.8327 20.988 32.5613 21.3902 33.1766 21.9357C33.7918 22.4812 34.2783 23.1565 34.6009 23.9128C34.9234 24.6691 35.0741 25.4876 35.042 26.3092V26.5849C34.797 29.7145 34.2458 32.0051 35.3727 33.6159C35.764 34.2074 36.0442 34.8653 36.1995 35.5574V35.6676C36.56 37.0274 36.3868 38.4735 35.7157 39.7098C35.4684 40.1004 35.1457 40.4377 34.7664 40.702C34.7113 43.9358 34.5337 46.3366 34.3805 48.4373C34.3805 48.4373 34.209 51.0709 34.1722 51.8732C34.1207 53.102 34.1905 54.3329 34.3805 55.548C32.6896 57.0161 30.6284 57.9927 28.4213 58.3714C25.9714 56.9566 23.5216 55.3458 20.6921 53.4289C19.9299 52.9061 19.3464 52.1622 19.0201 51.2975C18.426 49.6806 17.9605 48.2658 17.5563 46.9184Z" fill="white"></path> <path d="M28.4276 58.353C29.824 59.1492 31.2326 59.8841 32.7148 60.5762C33.7214 61.0454 34.8726 61.0982 35.918 60.7232C36.1295 60.6536 36.3345 60.5655 36.5305 60.4598C37.7554 59.7984 39.1578 59.0941 39.3783 59.2717L38.0187 61.7215C38.7659 61.6541 40.395 61.4949 41.8159 61.2928C41.9839 61.2661 42.1561 61.2896 42.3108 61.3604C42.4654 61.4312 42.5957 61.5461 42.6853 61.6907C42.7749 61.8352 42.8199 62.0031 42.8145 62.1731C42.8091 62.3431 42.7536 62.5077 42.655 62.6463C41.3505 64.4041 38.8271 65.874 35.6178 66.0761C35.0245 66.1187 34.429 66.1187 33.8356 66.0761C32.6552 65.9298 31.4959 65.6462 30.3814 65.2309C26.0942 63.7671 20.1411 60.7906 16.6623 58.9838C15.7733 58.5192 14.9764 57.8966 14.3105 57.1464C13.5779 56.3225 13.0214 55.3575 12.6752 54.3108C12.1975 52.8715 11.732 51.322 11.2849 49.7296C12.4719 49.7247 13.6449 49.4734 14.7298 48.9916C15.8146 48.5098 16.7876 47.808 17.5871 46.9307C17.9913 48.2781 18.4691 49.6928 19.057 51.2914C19.3834 52.156 19.9669 52.8999 20.729 53.4227C23.5218 55.3274 25.9594 56.9382 28.4276 58.353Z" fill="white"></path> <path d="M57.7154 48.2717C59.418 47.5122 57.8868 50.6297 56.7048 52.7426C56.0224 53.9766 54.9648 54.9612 53.6854 55.5538C53.4974 55.6373 53.3053 55.7109 53.1097 55.7743C52.0991 56.1111 51.8358 55.7743 52.1236 54.6106C52.7238 52.0689 57.7154 48.2717 57.7154 48.2717Z" fill="white"></path> <path d="M52.1112 54.6106C51.8233 55.7927 52.1112 56.1112 53.0972 55.7743C53.2928 55.7109 53.485 55.6373 53.673 55.5538L49.6613 62.8237L31.355 73.7928L35.5871 66.1126C38.7964 65.9105 41.3197 64.4406 42.6242 62.6828C42.7228 62.5442 42.7783 62.3796 42.7837 62.2096C42.7891 62.0396 42.7442 61.8718 42.6546 61.7272C42.5649 61.5826 42.4346 61.4677 42.2799 61.3969C42.1253 61.3262 41.9531 61.3026 41.7851 61.3293C40.3642 61.5314 38.7228 61.6907 37.9879 61.758L44.6759 49.6436L62.5229 39.5442L57.6968 48.2717C57.6968 48.2717 52.7236 52.0689 52.1112 54.6106Z" fill="white"></path> <path d="M47.4383 140.71C47.0111 141.003 46.5048 141.159 45.9867 141.157C45.6241 141.157 45.2654 141.082 44.9333 140.937C41.871 139.583 34.5216 136.159 34.0683 134.285C33.7009 132.773 33.7804 131.774 33.7008 129.833C35.7525 130.488 38.3188 130.531 39.8806 129.404C39.9697 129.738 40.0864 130.064 40.2296 130.378C40.8421 131.542 45.3926 136.215 47.6526 138.475C47.803 138.627 47.9182 138.811 47.9899 139.012C48.0617 139.214 48.0882 139.429 48.0678 139.642C48.0473 139.856 47.9804 140.062 47.8716 140.246C47.7628 140.431 47.6149 140.589 47.4383 140.71Z" fill="#3A3A3A"></path> <path d="M25.3225 153.7C25.3837 154.925 24.71 155.721 21.8437 154.925C19.8287 154.343 15.9948 150.638 13.9369 148.488C13.0517 147.577 12.561 146.354 12.5711 145.083C12.5711 144.287 12.5711 143.319 12.5711 142.302C14.7086 143.527 17.777 144.14 19.5715 142.817C19.7313 143.465 19.9895 144.085 20.3371 144.654C22.1009 147.472 25.2735 152.8 25.3225 153.7Z" fill="#3A3A3A"></path> <path d="M45.9867 142.076C45.4951 142.078 45.0087 141.976 44.5597 141.776C33.7927 137.023 33.3272 135.124 33.1802 134.5C32.9261 133.391 32.8049 132.256 32.8189 131.119C32.8189 130.745 32.8188 130.335 32.7821 129.894C32.7392 129.012 32.6596 127.585 32.3657 125.46C32.0533 123.108 31.3061 119.874 30.5283 116.444C29.4932 111.925 28.4214 107.258 28.152 103.883C27.9269 101.62 27.9659 99.3386 28.2683 97.0847C28.4656 95.6132 28.5475 94.1286 28.5133 92.6444C28.4398 89.2085 25.9716 79.1703 24.912 74.9995C24.8519 74.7631 24.8882 74.5126 25.0128 74.303C25.1374 74.0934 25.3403 73.9418 25.5766 73.8817C25.8129 73.8216 26.0635 73.8579 26.2731 73.9825C26.4827 74.1071 26.6342 74.3099 26.6943 74.5463C28.0233 79.7889 30.2711 89.1105 30.369 92.6076C30.4058 94.1757 30.3198 95.7443 30.1118 97.299C29.82 99.4327 29.783 101.594 30.0016 103.736C30.2588 106.976 31.3183 111.582 32.335 116.034C33.1312 119.501 33.8846 122.771 34.2153 125.221C34.5093 127.42 34.6011 128.896 34.6379 129.827C34.6379 130.298 34.6746 130.715 34.6808 131.101C34.6641 132.107 34.7669 133.113 34.987 134.095C35.1646 134.763 38.0493 136.919 45.3253 140.128C45.5865 140.241 45.872 140.287 46.1555 140.261C46.4391 140.236 46.7116 140.139 46.9482 139.981C47.0135 139.936 47.0681 139.876 47.1083 139.808C47.1485 139.739 47.1732 139.662 47.181 139.583C47.1883 139.505 47.1784 139.426 47.152 139.352C47.1255 139.278 47.0831 139.21 47.0279 139.154C43.8982 136.019 40.0398 132.025 39.4334 130.819C39.2622 130.452 39.1248 130.071 39.0231 129.68C38.4535 127.616 38.1228 123.788 38.0493 118.294C38.0003 114.619 38.6127 82.7226 38.6617 78.1843C38.6416 75.5057 38.3378 72.8368 37.7553 70.2223C37.7124 70.0386 37.6879 69.9038 37.6512 69.763C37.622 69.6459 37.6162 69.5242 37.6343 69.405C37.6525 69.2857 37.6941 69.1712 37.7567 69.0681C37.8194 68.9651 37.9019 68.8754 37.9994 68.8044C38.0969 68.7334 38.2075 68.6824 38.3249 68.6544C38.562 68.597 38.8121 68.6356 39.0209 68.7618C39.2297 68.8879 39.3802 69.0915 39.4396 69.3281C39.4763 69.4812 39.5069 69.6343 39.5436 69.7875C40.1597 72.559 40.48 75.388 40.4991 78.2271C40.4624 82.7715 39.8499 114.674 39.8867 118.294C39.9785 124.939 40.4256 127.904 40.7931 129.214C40.8604 129.493 40.9569 129.764 41.0809 130.023C41.4423 130.745 44.2902 133.832 48.3263 137.88C48.579 138.128 48.7734 138.428 48.8951 138.76C49.0169 139.092 49.063 139.447 49.0302 139.8C48.9973 140.152 48.8863 140.492 48.7052 140.796C48.5241 141.099 48.2774 141.359 47.9833 141.555C47.3853 141.926 46.6895 142.107 45.9867 142.076V142.076Z" fill="#3A3A3A"></path> <path d="M34.8032 67.056C34.4541 67.056 34.0928 67.056 33.7376 67.0131C32.4815 66.8621 31.2479 66.5619 30.0628 66.1189C25.8859 64.6919 20.2268 61.9052 16.2152 59.8167C15.2259 59.3002 14.3395 58.6069 13.6 57.7711C12.7773 56.8572 12.1518 55.7834 11.7626 54.617C11.2971 53.2144 10.8255 51.6588 10.3539 49.9868C8.9085 44.8605 7.71428 39.5138 7.13244 36.7883C6.88915 35.649 6.9106 34.4689 7.19517 33.3392C7.47974 32.2094 8.01979 31.16 8.77379 30.2718C9.49649 29.4389 10.1947 28.6917 10.9235 27.9996C17.4707 21.6729 27.9988 19.8049 28.4398 19.7314C29.3859 19.5668 30.3571 19.619 31.2801 19.8842C32.2031 20.1495 33.0538 20.6207 33.7682 21.2626C34.4902 21.8996 35.0606 22.69 35.4378 23.5759C35.8151 24.4617 35.9895 25.4207 35.9485 26.3827C35.9485 26.4807 35.9485 26.5909 35.9485 26.695C35.9056 27.3871 35.8444 28.0608 35.777 28.6916C35.5871 30.6944 35.4402 32.1459 36.12 33.1136C36.5798 33.8004 36.9079 34.5668 37.0877 35.3736C37.1335 35.6072 37.0868 35.8494 36.9575 36.0493C36.8282 36.2491 36.6264 36.391 36.3946 36.445C36.1627 36.499 35.919 36.4609 35.7147 36.3387C35.5104 36.2165 35.3615 36.0198 35.2994 35.79C35.1707 35.212 34.9383 34.6621 34.6134 34.167C33.5477 32.642 33.7375 30.7311 33.9519 28.514C34.0131 27.9016 34.0744 27.2462 34.1173 26.548C34.1173 26.4439 34.1173 26.3643 34.1173 26.2908C34.1469 25.6001 34.0214 24.9115 33.7501 24.2756C33.4788 23.6398 33.0685 23.0727 32.5494 22.6161C32.0435 22.1554 31.4386 21.8171 30.7814 21.627C30.1241 21.4369 29.4319 21.4003 28.7583 21.5198C25.1815 22.1322 17.1216 24.5514 12.2219 29.3041C11.5421 29.9594 10.8806 30.6638 10.2008 31.4538C9.63269 32.127 9.22683 32.9216 9.01445 33.7764C8.80207 34.6312 8.78885 35.5234 8.97587 36.3841C9.58833 39.0912 10.7398 44.3889 12.173 49.4723C12.6323 51.1137 13.0978 52.6449 13.551 54.0168C13.8597 54.9453 14.3535 55.8016 15.0025 56.534C15.5965 57.2008 16.306 57.7548 17.0971 58.1692C20.3308 59.8535 26.4064 62.9035 30.6814 64.3612C31.726 64.7484 32.8107 65.0175 33.9152 65.1635C34.4636 65.2032 35.0142 65.2032 35.5627 65.1635C36.7588 65.1297 37.9351 64.849 39.0175 64.3388C40.1 63.8287 41.0652 63.1002 41.8526 62.1992C40.8666 62.3584 39.6355 62.4993 38.1166 62.6463C37.9501 62.6606 37.7828 62.6301 37.632 62.5579C37.4813 62.4858 37.3525 62.3746 37.2592 62.2359C37.1678 62.0958 37.1161 61.9335 37.1096 61.7664C37.1031 61.5992 37.1421 61.4334 37.2224 61.2866L43.9043 49.1661C43.9901 49.019 44.1125 48.8966 44.2596 48.8109L62.1249 38.736C62.3004 38.6383 62.5029 38.6005 62.7018 38.6281C62.9007 38.6557 63.0852 38.7473 63.2274 38.8891C63.3686 39.0303 63.4599 39.2138 63.4876 39.4116C63.5152 39.6094 63.4776 39.8108 63.3805 39.9854L58.5543 48.7068C58.5004 48.8199 58.4239 48.9208 58.3295 49.0033C58.2351 49.0857 58.1249 49.148 58.0055 49.1863C57.8862 49.2246 57.7602 49.238 57.6355 49.2258C57.5108 49.2136 57.3898 49.176 57.2802 49.1153C57.1705 49.0546 57.0744 48.9721 56.9978 48.8729C56.9213 48.7737 56.8657 48.6598 56.8348 48.5384C56.8038 48.4169 56.7981 48.2904 56.8178 48.1667C56.8376 48.0429 56.8825 47.9245 56.9497 47.8187L60.2018 41.933L45.3742 50.293L39.6662 60.6436C40.4256 60.5639 41.0993 60.4782 41.675 60.3924C42.0279 60.3405 42.3883 60.395 42.7101 60.5488C43.0319 60.7026 43.3005 60.9488 43.4818 61.256C43.6617 61.5541 43.749 61.899 43.7327 62.2468C43.7163 62.5947 43.597 62.9298 43.3899 63.2098C41.773 65.384 38.8883 66.7988 35.6729 67.0009C35.3728 67.0192 35.0911 67.056 34.8032 67.056Z" fill="#3A3A3A"></path> <path d="M35.9182 61.6417C35.7284 61.6421 35.5433 61.5833 35.3885 61.4735C35.2337 61.3637 35.117 61.2084 35.0546 61.0292C34.8525 60.4658 34.4422 59.3021 34.4422 59.3021C34.0063 58.1242 33.6903 56.9054 33.499 55.6641C33.2971 54.3947 33.2232 53.1082 33.2785 51.824C33.3152 51.0155 33.4928 48.3759 33.4928 48.3759C33.6459 46.2568 33.8174 43.8804 33.8725 40.6773C33.8761 40.5312 33.914 40.388 33.9831 40.2592C34.0523 40.1305 34.1508 40.0198 34.2707 39.9362C34.5486 39.7455 34.7842 39.4994 34.9627 39.2135C35.5089 38.1848 35.6404 36.986 35.3302 35.8634C35.2946 35.7428 35.2841 35.6163 35.2993 35.4915C35.3146 35.3668 35.3553 35.2465 35.4189 35.1381C35.4825 35.0297 35.5676 34.9355 35.6691 34.8614C35.7705 34.7872 35.8861 34.7346 36.0087 34.7069C36.1312 34.6792 36.2582 34.677 36.3817 34.7003C36.5052 34.7236 36.6226 34.772 36.7266 34.8425C36.8306 34.913 36.9191 35.0041 36.9866 35.1102C37.054 35.2163 37.0989 35.335 37.1186 35.4591C37.5405 37.0567 37.3207 38.7559 36.5061 40.1934C36.2842 40.5493 36.0119 40.8711 35.6977 41.1489C35.6303 44.2112 35.4649 46.4589 35.3179 48.4984C35.3179 48.4984 35.1465 51.1319 35.1097 51.922C35.0618 53.0852 35.1275 54.2503 35.3057 55.4007C35.4788 56.5214 35.766 57.6214 36.1631 58.6835C36.1631 58.6835 36.5918 59.8594 36.7756 60.429C36.8164 60.5428 36.8344 60.6635 36.8284 60.7843C36.8225 60.905 36.7928 61.0234 36.741 61.1327C36.6893 61.2419 36.6164 61.3399 36.5267 61.4209C36.437 61.502 36.3322 61.5645 36.2183 61.6049C36.1212 61.6346 36.0196 61.6471 35.9182 61.6417V61.6417Z" fill="#3A3A3A"></path> <path d="M31.3551 74.6871C31.1954 74.6875 31.0384 74.6464 30.8995 74.5676C30.7605 74.4888 30.6446 74.3752 30.563 74.238C30.4813 74.1007 30.4368 73.9445 30.434 73.7849C30.4311 73.6252 30.47 73.4675 30.5467 73.3275L34.7848 65.6473C34.8431 65.5415 34.9217 65.4482 35.0161 65.3728C35.1104 65.2974 35.2187 65.2414 35.3347 65.2078C35.4507 65.1743 35.5722 65.1639 35.6922 65.1773C35.8122 65.1907 35.9285 65.2276 36.0342 65.2859C36.14 65.3442 36.2332 65.4228 36.3086 65.5171C36.384 65.6115 36.4401 65.7198 36.4737 65.8358C36.5073 65.9518 36.5176 66.0733 36.5042 66.1933C36.4908 66.3133 36.4539 66.4295 36.3956 66.5353L33.7988 71.239L48.9755 62.1562L52.8768 55.1007C52.9964 54.8956 53.1902 54.7443 53.4183 54.6782C53.6463 54.6121 53.891 54.6362 54.1017 54.7455C54.3102 54.8618 54.4648 55.0552 54.5324 55.2842C54.5999 55.5132 54.575 55.7596 54.4631 55.9704L50.4393 63.2403C50.3639 63.3838 50.2491 63.5027 50.1085 63.5833L31.8021 74.534C31.6685 74.6222 31.5147 74.6748 31.3551 74.6871V74.6871Z" fill="#3A3A3A"></path> <path d="M23.767 156.15C23.0268 156.128 22.2932 156.004 21.5867 155.783C19.4737 155.17 15.9031 151.814 13.2818 149.101C12.2245 148.02 11.6387 146.564 11.6526 145.052C11.6526 144.256 11.6526 137.703 11.6526 136.662C11.6526 135.621 11.1566 132.54 10.6544 129.312C9.90717 124.511 8.97007 118.533 8.93332 115.342C8.95754 112.605 9.42073 109.89 10.3052 107.301C10.7682 105.921 11.0924 104.5 11.2729 103.056C11.5056 100.368 9.99286 91.4746 9.22729 87.5855C6.52635 73.9828 9.3682 67.0131 11.8731 60.8579L12.0446 60.4475C12.5722 59.2842 13.0284 58.0897 13.4104 56.8708C13.443 56.7545 13.4981 56.6459 13.5727 56.551C13.6472 56.4561 13.7398 56.3768 13.845 56.3176C13.9502 56.2585 14.066 56.2206 14.1859 56.2063C14.3057 56.1919 14.4272 56.2012 14.5435 56.2338C14.6597 56.2664 14.7683 56.3215 14.8632 56.3961C14.9581 56.4707 15.0374 56.5632 15.0965 56.6684C15.1557 56.7736 15.1936 56.8895 15.2079 57.0093C15.2223 57.1291 15.2129 57.2506 15.1804 57.3669C14.7766 58.6581 14.296 59.9241 13.7411 61.158L13.5757 61.5561C11.1626 67.4663 8.43114 74.1666 11.028 87.2242C11.7017 90.611 13.3798 100.086 13.1042 103.215C12.9179 104.784 12.571 106.329 12.0691 107.827C11.2339 110.237 10.7954 112.767 10.7707 115.318C10.8074 118.38 11.7261 124.284 12.4672 129.03C13.0245 132.589 13.4593 135.394 13.49 136.6C13.49 137.666 13.49 144.244 13.49 145.046C13.4802 146.075 13.8789 147.067 14.5986 147.802C17.9854 151.306 20.7905 153.621 22.1012 154C23.8467 154.503 24.2754 154.221 24.3182 154.184C24.3611 154.147 24.4163 153.958 24.404 153.731C24.3121 153.272 22.9831 150.669 19.5594 145.077C19.1683 144.432 18.8753 143.732 18.6898 143.001C18.4888 142.232 18.4123 141.436 18.4632 140.643C18.9899 132.068 20.3005 111.245 21.4764 103.344C22.8238 94.0163 24.7592 75.7835 24.8817 74.6565V74.6198C24.943 74.0808 24.9735 73.7807 24.9735 73.7807C24.992 73.6079 25.0601 73.4441 25.1696 73.3091C27.062 70.7877 28.5117 67.9628 29.4568 64.9552C29.4837 64.8328 29.5354 64.7172 29.6087 64.6155C29.682 64.5138 29.7753 64.4282 29.8829 64.3639C29.9905 64.2997 30.1102 64.2581 30.2345 64.2418C30.3587 64.2255 30.485 64.2348 30.6056 64.2691C30.7261 64.3034 30.8384 64.362 30.9354 64.4414C31.0325 64.5207 31.1123 64.619 31.1699 64.7304C31.2275 64.8417 31.2617 64.9636 31.2704 65.0886C31.2792 65.2137 31.2622 65.3392 31.2207 65.4574C30.2427 68.6145 28.7349 71.5823 26.7619 74.2339C26.7619 74.3687 26.6946 74.8158 26.6946 74.8464C26.615 75.6365 24.6429 94.1817 23.2832 103.632C22.1502 111.477 20.8334 132.221 20.2822 140.777C20.2191 141.959 20.5114 143.132 21.1212 144.146C26.1618 152.426 26.2046 153.29 26.2291 153.657C26.2754 154.028 26.2285 154.404 26.0927 154.751C25.9568 155.099 25.7364 155.407 25.4513 155.648C24.9646 156.005 24.3696 156.182 23.767 156.15Z" fill="#3A3A3A"></path> <path d="M28.4279 59.2715C28.1842 59.291 27.9429 59.2129 27.7568 59.0544C27.5707 58.8959 27.4552 58.67 27.4357 58.4263C27.4162 58.1827 27.4943 57.9412 27.6528 57.7552C27.8113 57.5691 28.0372 57.4536 28.2809 57.4341C30.3035 57.0848 32.1936 56.1937 33.7501 54.8557C33.9271 54.6952 34.1596 54.6099 34.3984 54.618C34.6372 54.626 34.8634 54.7268 35.0291 54.8989C35.1948 55.071 35.287 55.3009 35.2861 55.5398C35.2851 55.7787 35.1911 56.0078 35.024 56.1786C33.2126 57.7718 30.9952 58.8318 28.6178 59.2409C28.5557 59.2575 28.492 59.2677 28.4279 59.2715V59.2715Z" fill="#3A3A3A"></path> <path d="M16.9928 144.464C15.2677 144.427 13.5808 143.948 12.0932 143.074C11.9801 143.019 11.8797 142.94 11.7982 142.844C11.7166 142.748 11.6557 142.637 11.6192 142.516C11.5826 142.396 11.5712 142.269 11.5857 142.144C11.6001 142.019 11.6402 141.898 11.7033 141.789C11.7664 141.68 11.8512 141.585 11.9525 141.51C12.0538 141.436 12.1694 141.382 12.2921 141.354C12.4148 141.326 12.542 141.323 12.6658 141.346C12.7897 141.369 12.9074 141.417 13.0119 141.488C14.9043 142.584 17.5685 143.135 18.9956 142.057C19.1903 141.921 19.4304 141.865 19.6654 141.902C19.9005 141.939 20.112 142.065 20.2556 142.255C20.3992 142.444 20.4638 142.682 20.4355 142.918C20.4072 143.155 20.2884 143.371 20.1041 143.521C19.1968 144.165 18.1048 144.496 16.9928 144.464Z" fill="#3A3A3A"></path> <path d="M36.6222 131.211C35.5353 131.206 34.4553 131.037 33.4191 130.709C33.3041 130.672 33.1974 130.613 33.1052 130.535C33.0129 130.457 32.9369 130.362 32.8814 130.255C32.826 130.148 32.7922 130.031 32.782 129.91C32.7718 129.79 32.7854 129.669 32.822 129.554C32.8586 129.439 32.9174 129.332 32.9953 129.24C33.0731 129.148 33.1684 129.072 33.2756 129.016C33.3828 128.961 33.4998 128.927 33.6201 128.917C33.7403 128.907 33.8614 128.92 33.9765 128.957C35.6852 129.502 38.0064 129.625 39.3355 128.663C39.4332 128.592 39.5439 128.541 39.6613 128.513C39.7786 128.485 39.9003 128.481 40.0195 128.5C40.1386 128.519 40.2529 128.561 40.3557 128.624C40.4585 128.688 40.5478 128.77 40.6185 128.868C40.6893 128.966 40.7401 129.077 40.7681 129.194C40.7961 129.311 40.8007 129.433 40.7817 129.552C40.7626 129.671 40.7203 129.786 40.6571 129.888C40.5939 129.991 40.5111 130.08 40.4134 130.151C39.291 130.891 37.9655 131.261 36.6222 131.211Z" fill="#3A3A3A"></path> <path d="M34.5034 61.8867C33.7525 61.8883 33.0103 61.7252 32.3291 61.409C30.8837 60.7353 29.4629 60.0004 27.9746 59.1491C25.488 57.7282 23.0749 56.1296 20.1841 54.1698C19.2614 53.5427 18.557 52.6436 18.1691 51.5975C17.5567 49.999 17.0912 48.5352 16.6748 47.1816C15.6402 43.5556 14.8605 39.8616 14.3413 36.1268C14.3224 36.0061 14.3274 35.883 14.3562 35.7643C14.3849 35.6456 14.4367 35.5337 14.5086 35.435C14.5805 35.3364 14.6712 35.2528 14.7754 35.1892C14.8797 35.1256 14.9954 35.0831 15.116 35.0642C15.2367 35.0453 15.3599 35.0503 15.4786 35.079C15.5973 35.1077 15.7092 35.1595 15.8078 35.2315C15.9065 35.3034 15.99 35.3941 16.0536 35.4983C16.1173 35.6026 16.1597 35.7183 16.1786 35.8389C16.6873 39.4926 17.4486 43.1066 18.457 46.6549C18.8613 47.9901 19.339 49.3987 19.9147 50.9421C20.1752 51.6278 20.6389 52.2176 21.2437 52.6325C24.0855 54.5679 26.4741 56.1419 28.9117 57.5322C30.3509 58.3529 31.729 59.0694 33.1315 59.7186C33.9163 60.0864 34.8147 60.1282 35.6303 59.835C35.7852 59.7814 35.9348 59.7138 36.0774 59.6329C38.7477 58.1753 39.3847 58.0773 39.9482 58.5305C40.1054 58.6573 40.2165 58.8325 40.2641 59.0288C40.3118 59.2252 40.2934 59.4317 40.2118 59.6166C40.1302 59.8014 39.9899 59.9541 39.8127 60.0512C39.6355 60.1483 39.4312 60.1842 39.2316 60.1535C38.445 60.4482 37.6866 60.813 36.9655 61.2437C36.2154 61.6557 35.3714 61.8667 34.5157 61.8561L34.5034 61.8867Z" fill="#3A3A3A"></path> <path d="M45.1234 50.2807C44.9149 50.2821 44.7121 50.213 44.5478 50.0847C42.7104 48.6332 41.0261 47.2735 39.446 46.0425C38.236 45.0943 37.3745 43.7718 36.9961 42.282L35.3119 35.7654C35.2797 35.6463 35.2718 35.522 35.2887 35.3998C35.3056 35.2776 35.3469 35.16 35.4103 35.0541C35.4736 34.9482 35.5576 34.8562 35.6573 34.7835C35.7569 34.7108 35.8702 34.6589 35.9903 34.6309C36.1105 34.6029 36.2351 34.5994 36.3566 34.6206C36.4781 34.6418 36.5942 34.6873 36.6978 34.7543C36.8013 34.8213 36.8903 34.9085 36.9595 35.0107C37.0286 35.1128 37.0765 35.2279 37.1003 35.349L38.7723 41.8226C39.0608 42.9236 39.7072 43.8974 40.6096 44.5909C42.1959 45.8159 43.923 47.1939 45.7359 48.6454C45.8301 48.721 45.9084 48.8144 45.9665 48.9202C46.0245 49.0261 46.0611 49.1423 46.0742 49.2623C46.0873 49.3824 46.0766 49.5038 46.0427 49.6197C46.0089 49.7355 45.9524 49.8436 45.8768 49.9377C45.7874 50.0506 45.6726 50.1405 45.5416 50.2002C45.4106 50.2598 45.2672 50.2874 45.1234 50.2807V50.2807Z" fill="#3A3A3A"></path> <path d="M42.2141 54.9966C42.0762 54.9961 41.9402 54.9647 41.816 54.9048C39.0074 53.5732 36.3225 51.995 33.7928 50.1888C33.6854 50.1235 33.5925 50.0369 33.5199 49.9342C33.4473 49.8315 33.3965 49.7151 33.3708 49.592C33.345 49.4689 33.3448 49.3418 33.3702 49.2187C33.3955 49.0955 33.4458 48.9788 33.5181 48.8759C33.5903 48.773 33.683 48.686 33.7902 48.6204C33.8974 48.5547 34.017 48.5117 34.1415 48.4941C34.266 48.4765 34.3928 48.4847 34.5141 48.5181C34.6353 48.5515 34.7484 48.6095 34.8463 48.6883C37.2967 50.4332 39.8952 51.96 42.6122 53.2511C42.7992 53.3417 42.95 53.4929 43.0399 53.6802C43.1299 53.8675 43.1536 54.0797 43.1074 54.2822C43.0613 54.4848 42.9478 54.6657 42.7855 54.7954C42.6233 54.9252 42.4218 54.9961 42.2141 54.9966V54.9966Z" fill="#3A3A3A"></path> <path d="M52.4973 56.8218C52.1437 56.8337 51.7993 56.7086 51.5357 56.4727C50.8743 55.8602 51.1193 54.8313 51.2295 54.3964C51.9093 51.6159 56.6191 47.9473 57.1581 47.543C57.2117 47.4949 57.2741 47.4574 57.3418 47.4328C57.6062 47.2634 57.9207 47.1898 58.2328 47.2244C58.545 47.259 58.8357 47.3995 59.0567 47.6226C59.6691 48.2963 59.6141 49.4233 57.5072 53.1899C56.7253 54.5953 55.5181 55.7167 54.0591 56.393C53.845 56.4878 53.6262 56.5716 53.4037 56.6441C53.1131 56.752 52.807 56.812 52.4973 56.8218V56.8218ZM57.0907 49.9622C55.3636 51.4505 53.3302 53.5267 53.0117 54.8619L53.3057 54.7394C54.4102 54.2204 55.32 53.362 55.9025 52.2896C56.4721 51.2729 56.8457 50.5196 57.0907 49.9622V49.9622Z" fill="#3A3A3A"></path> <path d="M11.4319 50.6358H11.2298C11.1092 50.6326 10.9903 50.6057 10.8801 50.5565C10.7698 50.5074 10.6704 50.437 10.5873 50.3495C10.5043 50.2619 10.4393 50.1588 10.3961 50.0461C10.3529 49.9333 10.3324 49.8132 10.3357 49.6926C10.3364 49.5712 10.3616 49.4512 10.4098 49.3397C10.4581 49.2283 10.5284 49.1279 10.6165 49.0443C10.7047 48.9608 10.8087 48.8959 10.9226 48.8537C11.0364 48.8114 11.1575 48.7926 11.2788 48.7984C12.3375 48.7862 13.3823 48.5564 14.3485 48.1234C15.3146 47.6904 16.1815 47.0633 16.8951 46.2812C16.9777 46.1901 17.0777 46.1166 17.1892 46.0649C17.3008 46.0132 17.4216 45.9844 17.5445 45.9803C17.6674 45.9761 17.7898 45.9967 17.9046 46.0407C18.0194 46.0848 18.1242 46.1514 18.2128 46.2367C18.3013 46.3219 18.3719 46.4241 18.4202 46.5372C18.4686 46.6502 18.4937 46.7718 18.4942 46.8948C18.4946 47.0177 18.4705 47.1395 18.4231 47.2529C18.3756 47.3664 18.3059 47.4691 18.218 47.5551C17.349 48.4946 16.301 49.2511 15.1357 49.7801C13.9704 50.3091 12.7112 50.6 11.4319 50.6358V50.6358Z" fill="#3A3A3A"></path> <path d="M21.5989 10.0054C21.3308 14.5634 20.5794 19.0801 19.3573 23.4794C19.3573 23.4794 22.8483 25.4699 25.2491 24.2205C26.4373 23.608 25.4023 21.1582 25.6472 19.1677C25.6472 19.1677 28.7524 18.984 29.5486 17.3304C30.3448 15.6767 30.1611 10.7771 30.1611 10.7771C28.7668 11.2957 27.274 11.4956 25.7924 11.3621C24.3108 11.2285 22.878 10.765 21.5989 10.0054V10.0054Z" fill="white"></path> <path d="M23.4114 25.5312C21.8316 25.4593 20.2894 25.0256 18.9037 24.2634C18.7258 24.1629 18.5864 24.006 18.5076 23.8174C18.4289 23.6288 18.4152 23.4194 18.4688 23.2222C19.6715 18.882 20.4146 14.4274 20.6859 9.93188C20.6969 9.77898 20.7465 9.63135 20.8301 9.50282C20.9136 9.37429 21.0284 9.26904 21.1637 9.19693C21.2983 9.12456 21.4488 9.08667 21.6016 9.08667C21.7545 9.08667 21.9049 9.12456 22.0395 9.19693C23.1994 9.88348 24.4976 10.3029 25.8399 10.4248C27.1822 10.5466 28.5348 10.3678 29.7993 9.90125C29.9365 9.84706 30.0846 9.82603 30.2314 9.83987C30.3783 9.8537 30.5198 9.90201 30.6445 9.98087C30.7688 10.0604 30.8721 10.1688 30.9456 10.2967C31.0192 10.4246 31.0609 10.5684 31.0671 10.7158C31.0671 11.2425 31.2509 15.8972 30.3812 17.704C29.6462 19.2351 27.6741 19.7802 26.5288 19.97C26.544 20.4392 26.5829 20.9073 26.6452 21.3726C26.7983 22.7629 26.9698 24.3369 25.6713 25.0167C24.9708 25.3685 24.1953 25.5451 23.4114 25.5312V25.5312ZM20.441 22.9772C21.5741 23.4733 23.5032 24.0674 24.8262 23.3876C24.9976 23.1916 24.8813 22.1627 24.8262 21.5502C24.7039 20.7107 24.6772 19.8601 24.7465 19.0146C24.7733 18.8018 24.8737 18.6051 25.0303 18.4586C25.1869 18.3121 25.3899 18.2249 25.604 18.2123C26.4431 18.1572 28.311 17.7652 28.7336 16.8833C29.1562 16.0013 29.2665 13.7781 29.2665 11.9836C26.9756 12.5224 24.5721 12.3076 22.4131 11.3711C22.1151 15.2863 21.455 19.1655 20.441 22.9588V22.9772Z" fill="#3A3A3A"></path> </svg> 