<?xml version="1.0" encoding="UTF-8"?> <svg xmlns="http://www.w3.org/2000/svg" width="120" height="121" viewBox="0 0 120 121" fill="none"> <circle cx="60" cy="60.5576" r="60" fill="#3FAAF0"></circle> <path d="M58.5334 68.0414C56.3977 62.4644 48.1535 58.439 43.0521 62.5956C41.6546 63.7339 41.8481 66.2042 43.0521 67.359C44.7941 69.0518 47.061 68.9632 49.1902 69.8228C50.0661 70.1804 50.696 70.6659 50.9125 71.2859C50.8912 71.4523 50.8459 71.6148 50.778 71.7682C50.5829 72.0785 50.3379 72.3545 50.053 72.5851C48.7407 73.6578 47.3366 74.1171 45.8275 74.642C42.2189 75.8985 38.5282 76.4463 34.7358 76.6333C30.8614 76.8236 27.0165 76.0002 23.165 76.4201C23.0698 76.4244 22.9777 76.4559 22.8996 76.5107C22.8215 76.5655 22.7607 76.6414 22.7242 76.7295C22.6877 76.8176 22.6771 76.9143 22.6936 77.0082C22.7101 77.1022 22.753 77.1895 22.8173 77.2599C26.0487 81.1507 32.19 82.3646 37.006 82.7386C42.045 83.1289 47.7369 82.3186 52.3428 80.2026C56.9488 78.0866 60.5378 73.2576 58.5334 68.0414Z" fill="#3FAAF0"></path> <path d="M53.2471 69.7078V69.8554C53.2175 72.4504 51.4427 75.0355 47.9981 77.0137C44.5534 78.9919 40.0983 80.0024 35.6006 80.0385C30.9487 80.0745 26.2705 79.0543 22.7209 77.0137C19.2271 74.9994 17.4719 72.3585 17.4719 69.7144V65.3085C17.4719 67.9526 19.2172 70.5903 22.7209 72.6078C26.2705 74.6582 30.9487 75.6654 35.6006 75.6293C40.0983 75.5932 44.5698 74.5893 47.9981 72.6078C51.4263 70.6264 53.1749 68.0445 53.2471 65.443V69.7078Z" fill="#3A3A3A"></path> <path d="M53.2471 65.302V65.4431C53.188 68.0446 51.4427 70.6297 47.9981 72.608C44.5534 74.5862 40.0983 75.5933 35.6006 75.6294C30.9487 75.6655 26.2705 74.6452 22.7209 72.608C19.2271 70.5904 17.4719 67.9528 17.4719 65.3086C17.4719 62.6644 19.2172 60.0235 22.7209 58.0059C29.7086 53.9806 41.0268 53.9806 48.0079 58.0059C51.5116 60.0268 53.2536 62.6677 53.2471 65.302Z" fill="white"></path> <path d="M35.3616 76.1213C30.503 76.1213 25.9397 75.0288 22.4852 73.0342C18.9487 70.9904 17 68.2478 17 65.3083C17 62.3689 18.9454 59.623 22.4786 57.5792C29.5943 53.4817 41.1585 53.485 48.2577 57.5792C51.7975 59.6198 53.7429 62.3558 53.7363 65.2919C53.7381 65.3149 53.7381 65.3379 53.7363 65.3608C53.7395 65.3881 53.7395 65.4156 53.7363 65.4428C53.6707 68.3331 51.7253 71.0199 48.2544 73.0243C44.8754 74.9763 40.381 76.072 35.6142 76.1114L35.3616 76.1213ZM35.3616 55.4796C30.8737 55.4796 26.3891 56.4638 22.9707 58.4322C19.7557 60.2923 17.9842 62.7331 17.9842 65.3215C17.9842 67.9099 19.759 70.3342 22.9773 72.2108C26.3399 74.1529 30.8245 75.2027 35.6077 75.1633C40.2005 75.1272 44.5277 74.0774 47.7623 72.2108C50.9216 70.39 52.6833 67.9919 52.7522 65.4625C52.7504 65.4418 52.7504 65.4209 52.7522 65.4002C52.7489 65.3773 52.7489 65.3542 52.7522 65.3313C52.7522 62.7626 50.9872 60.3284 47.7656 58.4715C44.3472 56.4671 39.8561 55.4796 35.3616 55.4796Z" fill="#3A3A3A"></path> <path d="M35.3649 80.5304C30.5063 80.5304 25.943 79.438 22.4852 77.4401C18.9487 75.3995 17 72.657 17 69.7143V65.3084C17 65.1779 17.0518 65.0527 17.1441 64.9604C17.2364 64.8681 17.3616 64.8163 17.4921 64.8163C17.6226 64.8163 17.7478 64.8681 17.8401 64.9604C17.9323 65.0527 17.9842 65.1779 17.9842 65.3084V69.7143C17.9842 72.2895 19.7557 74.7303 22.9773 76.6036C26.3432 78.549 30.8311 79.6053 35.6077 79.5561C40.2005 79.52 44.5309 78.4669 47.7623 76.6036C50.9937 74.7402 52.7226 72.3716 52.7522 69.8652V65.3182C52.7522 65.1877 52.804 65.0625 52.8963 64.9703C52.9886 64.878 53.1137 64.8261 53.2443 64.8261C53.3748 64.8261 53.4999 64.878 53.5922 64.9703C53.6845 65.0625 53.7363 65.1877 53.7363 65.3182V69.8684C53.7035 72.7357 51.768 75.4258 48.2544 77.4467C44.8787 79.415 40.381 80.4976 35.6142 80.537L35.3649 80.5304Z" fill="#3A3A3A"></path> <path d="M42.074 66.1482L42.0083 66.1909C41.255 66.7057 40.4581 67.1535 39.6266 67.5293C37.7304 68.4479 35.6899 69.2418 33.6657 69.4058C33.4262 69.4255 33.1769 69.4354 32.9243 69.4354C29.0335 69.4354 26.035 67.6835 25.8415 63.3301C25.789 62.0704 25.7135 60.8861 25.7398 59.7739C25.848 54.7808 28.8662 53.4653 31.0806 52.1596V52.1793C33.2742 54.2109 36.0566 55.493 39.0263 55.8405C39.1237 55.2165 39.172 54.5857 39.1706 53.9541C39.1615 52.5081 38.9405 51.0712 38.5145 49.6893C39.055 49.7067 39.5924 49.7781 40.1187 49.9026C40.4081 49.9923 40.6909 50.1019 40.9651 50.2306C44.1932 51.7004 43.1139 56.2604 44.3376 58.6552C44.869 59.6952 45.3021 60.7909 45.3021 61.867C45.3218 63.6123 43.9013 65.1214 42.074 66.1482Z" fill="#D7DCE0"></path> <path d="M36.0322 36.5799C43.7876 37.1277 41.3402 45.326 42.9805 49.1971C41.7939 49.1493 40.6348 48.8259 39.5949 48.2523C40.1526 47.4157 40.379 46.2839 40.4577 45.1423C40.4577 44.9881 40.4577 44.8142 40.4577 44.6764C40.4577 43.0558 39.8607 39.2995 38.1613 39.2995C37.9349 39.3074 37.7122 39.3586 37.5052 39.4504C35.0841 40.4543 34.1327 43.4495 34.1327 46.1494C34.1327 46.3463 34.1327 46.5431 34.1327 46.7399C34.2081 48.2359 34.5592 49.8237 35.3432 51.0343C34.5344 50.9768 33.735 50.8249 32.9615 50.5815C31.2822 50.0492 29.7347 49.167 28.4211 47.9931C28.7318 47.5353 28.9687 47.0317 29.1232 46.5005C29.3211 45.8123 29.4745 45.1121 29.5825 44.4041C30.2386 40.3624 31.1834 36.5602 35.4417 36.5602C35.6516 36.5602 35.8386 36.5668 36.0322 36.5799Z" fill="#3A3A3A"></path> <path d="M37.8786 49.4793C38.0772 49.6017 38.3021 49.6748 38.5347 49.6926C38.9607 51.0745 39.1818 52.5114 39.1908 53.9574C39.1922 54.589 39.1439 55.2197 39.0465 55.8437C36.0769 55.4962 33.2945 54.2141 31.1008 52.1826V52.1629C31.898 51.6938 32.5902 51.2246 33.0036 50.5849C33.7771 50.8282 34.5765 50.9802 35.3853 51.0376C34.6012 49.8271 34.2502 48.2393 34.1748 46.7433C34.1748 46.5465 34.1748 46.3496 34.1748 46.1528C34.1748 43.4528 35.1261 40.4577 37.5472 39.4538C37.7543 39.362 37.977 39.3108 38.2034 39.3029C39.906 39.3029 40.4998 43.0592 40.4998 44.6798C40.4998 44.834 40.4998 45.0079 40.4998 45.1457C40.4211 46.2807 40.1914 47.4191 39.637 48.2557C39.539 48.398 39.4292 48.5318 39.3089 48.6559C39.0051 48.9857 38.6257 49.2367 38.2034 49.3875C38.0754 49.4203 37.9737 49.4498 37.8786 49.4793Z" fill="white"></path> <path d="M35.3698 51.5264H35.337C34.4903 51.4649 33.6536 51.3053 32.8437 51.0507C31.0981 50.4969 29.4893 49.5801 28.1229 48.3606C28.0289 48.2818 27.9682 48.1704 27.953 48.0487C27.9378 47.927 27.9692 47.804 28.0409 47.7045C28.3221 47.2886 28.5368 46.8316 28.6774 46.3496C28.8705 45.681 29.0196 45.0005 29.1235 44.3123C29.6583 41.0317 30.4718 36.0551 35.4682 36.0551C35.6607 36.0551 35.8608 36.0616 36.0686 36.0747C41.9737 36.4914 42.3936 41.1859 42.725 44.9554C42.8595 46.4874 42.9874 47.9374 43.4336 48.9938C43.4662 49.0702 43.4788 49.1537 43.4702 49.2364C43.4616 49.319 43.432 49.3982 43.3844 49.4662C43.3362 49.5337 43.272 49.5882 43.1975 49.6249C43.1231 49.6615 43.0408 49.6791 42.9579 49.6761C41.8413 49.6292 40.7462 49.3546 39.7396 48.8691L39.6445 48.9741C39.283 49.3625 38.8327 49.6575 38.3322 49.8336C38.2272 49.873 38.1157 49.9058 38.0041 49.9386C37.7506 50.0128 37.4918 50.0676 37.2299 50.1026C36.9246 50.149 36.6167 50.1764 36.3081 50.1847C36.1776 50.1847 36.0524 50.1328 35.9601 50.0405C35.8678 49.9482 35.816 49.8231 35.816 49.6926C35.816 49.562 35.8678 49.4369 35.9601 49.3446C36.0524 49.2523 36.1776 49.2005 36.3081 49.2005C36.5729 49.1917 36.837 49.1665 37.0987 49.125C37.3097 49.0982 37.5181 49.0543 37.722 48.9938C37.8073 48.9675 37.8992 48.9413 37.991 48.9085C38.474 48.7331 38.8856 48.4033 39.1622 47.9702C39.5952 47.3141 39.8544 46.3496 39.9397 45.103C39.9397 44.9586 39.9397 44.8143 39.9397 44.6699C39.9397 42.7245 39.218 39.7851 38.1321 39.7851C37.9697 39.7924 37.8104 39.8314 37.663 39.8999C35.3993 40.8382 34.5923 43.7415 34.5923 46.1331C34.5923 46.3201 34.5923 46.5104 34.5923 46.6974C34.6514 47.839 34.8941 49.4695 35.7241 50.7489C35.7715 50.8235 35.7981 50.9093 35.8011 50.9976C35.8042 51.0859 35.7835 51.1735 35.7414 51.2511C35.6992 51.3287 35.637 51.3937 35.5613 51.4392C35.4856 51.4847 35.3991 51.5092 35.3108 51.51L35.3698 51.5264ZM29.0907 47.8882C30.282 48.8817 31.6546 49.6348 33.1324 50.1059C33.5753 50.2447 34.0268 50.3543 34.484 50.434C33.9905 49.2714 33.7137 48.0284 33.6672 46.7662C33.6672 46.5596 33.6672 46.3562 33.6672 46.1495C33.6672 43.4298 34.6317 40.1197 37.3415 38.9945C37.6097 38.8772 37.8984 38.8137 38.1911 38.8075C40.5105 38.8075 40.9829 43.4364 40.9829 44.6765C40.9829 44.8405 40.9829 45.0046 40.9829 45.1751C40.9469 46.1676 40.7185 47.1436 40.3104 48.049C40.9406 48.3416 41.6105 48.5394 42.2985 48.6362C42.018 47.46 41.8434 46.2611 41.7769 45.0538C41.4488 41.304 41.1207 37.4296 36.0292 37.072C35.8488 37.072 35.6749 37.0523 35.501 37.0523C31.6529 37.0523 30.7901 40.4183 30.1274 44.4829C30.0166 45.2119 29.8588 45.9329 29.655 46.6416C29.5147 47.0771 29.3254 47.4954 29.0907 47.8882Z" fill="#3A3A3A"></path> <path d="M32.9294 69.9308C28.2873 69.9308 25.525 67.5327 25.3544 63.3696C25.3544 63.1038 25.3315 62.8381 25.3184 62.579C25.2757 61.5948 25.2331 60.6762 25.2527 59.7839C25.3577 54.899 28.1069 53.3243 30.3147 52.058L30.8364 51.7562C31.6303 51.2871 32.2306 50.8639 32.5751 50.3357C32.6487 50.2335 32.7588 50.1634 32.8826 50.1399C33.0064 50.1164 33.1345 50.1412 33.2405 50.2094C33.3465 50.2775 33.4223 50.3838 33.4523 50.5061C33.4823 50.6285 33.4642 50.7577 33.4018 50.8671C32.9524 51.5626 32.2503 52.0646 31.335 52.6026L30.8035 52.911C28.7072 54.1117 26.3321 55.4764 26.2369 59.8003C26.2172 60.6598 26.2599 61.5685 26.3025 62.5298C26.3025 62.7922 26.3255 63.058 26.3386 63.327C26.5289 67.9822 30.026 68.9598 32.9294 68.9598C33.1656 68.9598 33.4018 68.9598 33.6314 68.9302C35.2717 68.7957 37.1187 68.215 39.4184 67.1029L39.4611 67.08C40.2514 66.7226 41.0088 66.2967 41.7247 65.8071L41.7674 65.7809L41.833 65.7382C41.889 65.7059 41.9508 65.6849 42.0149 65.6765C42.079 65.6681 42.1442 65.6724 42.2066 65.6891C42.2691 65.7059 42.3276 65.7348 42.3789 65.7742C42.4302 65.8135 42.4732 65.8626 42.5055 65.9186C42.5378 65.9746 42.5588 66.0364 42.5672 66.1006C42.5756 66.1647 42.5713 66.2298 42.5546 66.2923C42.5378 66.3547 42.5089 66.4132 42.4696 66.4645C42.4302 66.5158 42.3811 66.5589 42.3251 66.5912L42.2857 66.6174C41.5274 67.1354 40.7262 67.5876 39.8909 67.969L39.8449 67.9887C37.437 69.1566 35.485 69.7668 33.7102 69.9111C33.4543 69.921 33.1918 69.9308 32.9294 69.9308Z" fill="#3A3A3A"></path> <path d="M38.5345 50.1848H38.4754C38.1673 50.1591 37.8701 50.0589 37.6094 49.8928C37.5555 49.857 37.5092 49.811 37.4732 49.7574C37.4371 49.7038 37.4119 49.6435 37.3991 49.5802C37.3863 49.5168 37.3862 49.4515 37.3986 49.3881C37.411 49.3247 37.4358 49.2643 37.4716 49.2104C37.5073 49.1566 37.5533 49.1103 37.607 49.0742C37.6606 49.0382 37.7209 49.013 37.7842 49.0002C37.8476 48.9874 37.9128 48.9873 37.9763 48.9997C38.0397 49.0121 38.1001 49.0369 38.1539 49.0726C38.2878 49.1516 38.4384 49.1977 38.5935 49.2072C38.7241 49.215 38.8461 49.2743 38.9329 49.3722C39.0196 49.47 39.0639 49.5983 39.0561 49.7288C39.0483 49.8593 38.9889 49.9813 38.8911 50.0681C38.7933 50.1548 38.665 50.1992 38.5345 50.1913V50.1848Z" fill="#3A3A3A"></path> <path d="M42.0194 66.6729C41.9319 66.6739 41.8458 66.6513 41.7702 66.6074C41.6945 66.5635 41.6321 66.5 41.5896 66.4236C41.5265 66.313 41.5098 66.1819 41.543 66.059C41.5761 65.9361 41.6566 65.8313 41.7668 65.7674H41.7832L41.8356 65.7346C43.7384 64.6652 44.8308 63.2578 44.8308 61.8766C44.8308 61.0434 44.5487 60.1215 43.9188 58.888C43.4464 57.9629 43.2988 56.8146 43.1446 55.6074C42.8723 53.5111 42.6164 51.5296 40.7826 50.6864C40.5293 50.5713 40.2685 50.4737 40.0018 50.3945C39.6454 50.2971 39.2786 50.2432 38.9093 50.2337C38.7584 50.2337 38.6141 50.2206 38.4763 50.1944C38.4122 50.187 38.3502 50.1671 38.2939 50.1357C38.2376 50.1043 38.188 50.0621 38.1481 50.0115C38.1081 49.9609 38.0786 49.9029 38.0612 49.8408C38.0437 49.7787 38.0388 49.7138 38.0465 49.6498C38.0543 49.5856 38.0746 49.5235 38.1063 49.4672C38.138 49.4108 38.1805 49.3613 38.2314 49.3213C38.2823 49.2814 38.3405 49.2519 38.4028 49.2345C38.4651 49.2171 38.5302 49.2122 38.5944 49.22C38.7125 49.22 38.8372 49.243 38.9717 49.2495C39.4154 49.2652 39.8557 49.3324 40.2839 49.4497C40.5949 49.5384 40.8996 49.648 41.1959 49.7777C43.5284 50.8406 43.8467 53.2945 44.1255 55.463C44.2699 56.5883 44.4076 57.6545 44.8046 58.4156C45.277 59.344 45.8216 60.571 45.8216 61.8504C45.8216 63.5924 44.552 65.3082 42.3409 66.5581L42.272 66.6007C42.1954 66.6461 42.1084 66.6709 42.0194 66.6729Z" fill="#3A3A3A"></path> <path d="M39.0442 56.336H38.9884C35.9182 55.9696 33.0415 54.6449 30.7672 52.5501C30.7126 52.5091 30.6671 52.4571 30.6336 52.3976C30.6001 52.338 30.5795 52.2721 30.5729 52.2041C30.5663 52.1361 30.5739 52.0675 30.5953 52.0026C30.6167 51.9377 30.6513 51.878 30.697 51.8272C30.7428 51.7765 30.7986 51.7358 30.8609 51.7078C30.9232 51.6798 30.9907 51.665 31.059 51.6645C31.1273 51.664 31.195 51.6777 31.2577 51.7048C31.3204 51.7319 31.3768 51.7717 31.4233 51.8218C33.4248 53.6644 35.927 54.8732 38.6144 55.296C38.6647 54.8527 38.6899 54.4069 38.6899 53.9608C38.6829 52.5697 38.4729 51.1871 38.0666 49.8567C38.0536 49.8097 38.047 49.7612 38.0469 49.7124C38.0317 49.5819 38.0689 49.4507 38.1504 49.3476C38.2319 49.2446 38.3511 49.1781 38.4816 49.1629C38.6121 49.1477 38.7433 49.1849 38.8463 49.2664C38.9494 49.3479 39.0158 49.467 39.0311 49.5976C39.4596 51.0171 39.6806 52.4911 39.6872 53.9739C39.6893 54.633 39.6389 55.2912 39.5363 55.9423C39.5133 56.0551 39.4514 56.1563 39.3615 56.2282C39.2716 56.3002 39.1593 56.3383 39.0442 56.336Z" fill="#3A3A3A"></path> <path d="M99.3313 66.7122C97.0645 64.6547 94.1983 63.3774 91.1527 63.0675C89.6964 62.8873 88.2213 62.926 86.7764 63.1823C85.954 63.3207 85.1603 63.5945 84.4275 63.9926C83.7484 64.3895 83.5318 64.9768 82.9643 65.4557C81.9801 66.2956 82.4296 67.785 83.3449 68.4083C82.5575 67.8637 83.604 68.7364 83.7877 68.9299C84.3391 69.4018 84.9928 69.7388 85.6971 69.9141C86.7534 70.2422 87.859 70.2914 88.9482 70.4489C90.7919 70.7179 92.5896 70.977 94.0101 72.0563C94.8533 72.7125 95.7325 73.7492 95.6767 74.7497C95.598 76.2359 94.2299 77.3316 93.0522 78.0304C89.5288 80.0676 84.8015 80.6548 80.8024 80.9566C78.6814 81.0977 76.5537 81.1076 74.4314 80.9862C72.4335 80.8878 70.101 80.4974 68.1458 80.9862C68.0856 81.0038 68.0303 81.0348 67.9838 81.0768C67.9373 81.1188 67.9009 81.1707 67.8773 81.2287C67.8536 81.2867 67.8434 81.3493 67.8472 81.4118C67.8511 81.4743 67.8691 81.5352 67.8997 81.5898C69.3727 83.5582 72.1645 84.5424 74.4347 85.2214C77.2601 86.0492 80.1875 86.4777 83.1316 86.4943C88.6463 86.5567 95.3946 85.6545 99.5347 81.6489C100.545 80.6784 101.344 79.5109 101.884 78.2186C102.424 76.9263 102.693 75.5368 102.674 74.1364C102.655 72.7359 102.349 71.3543 101.774 70.0772C101.199 68.8001 100.367 67.6548 99.3313 66.7122Z" fill="#3FAAF0"></path> <path d="M62.0986 73.9934V74.141C62.1282 76.736 63.903 79.3211 67.3476 81.2993C70.7923 83.2775 75.2474 84.288 79.7451 84.3241C84.397 84.3602 89.0752 83.3399 92.6248 81.2993C96.1186 79.285 97.8738 76.6441 97.8738 74V69.5941C97.8738 72.2383 96.1285 74.8759 92.6248 76.8935C89.0752 78.9439 84.397 79.951 79.7451 79.9149C75.2474 79.8788 70.7759 78.875 67.3476 76.8935C63.9194 74.912 62.1708 72.3302 62.0986 69.7286V73.9934Z" fill="#3A3A3A"></path> <path d="M62.0986 69.5875V69.7286C62.1577 72.3301 63.903 74.9153 67.3476 76.8935C70.7923 78.8717 75.2474 79.8788 79.7451 79.9149C84.397 79.951 89.0752 78.9307 92.6248 76.8935C96.1186 74.8759 97.8738 72.2383 97.8738 69.5941C97.8738 66.9499 96.1285 64.309 92.6412 62.2914C85.6535 58.2661 74.3354 58.2661 67.3542 62.2914C63.8341 64.3156 62.0921 66.9532 62.0986 69.5875Z" fill="white"></path> <path d="M79.9735 80.4069C84.8321 80.4069 89.3987 79.3145 92.8532 77.3198C96.3897 75.276 98.3384 72.5334 98.3384 69.594C98.3384 66.6546 96.393 63.9087 92.8598 61.8649C85.7441 57.7674 74.1799 57.7706 67.0807 61.8649C63.5409 63.9054 61.5955 66.6414 61.602 69.5776C61.6004 69.6016 61.6004 69.6258 61.602 69.6498C61.6004 69.676 61.6004 69.7023 61.602 69.7285C61.6676 72.6187 63.6131 75.3056 67.0839 77.31C70.463 79.2784 74.9574 80.3577 79.7242 80.3971L79.9735 80.4069ZM79.9735 59.7653C84.4581 59.7653 88.946 60.7495 92.3644 62.7178C95.5794 64.578 97.3509 67.0187 97.3509 69.6071C97.3509 72.1955 95.5761 74.6199 92.3578 76.48C88.9919 78.4221 84.5007 79.4654 79.7274 79.4326C75.1346 79.3965 70.8042 78.3467 67.5728 76.48C64.4102 74.6593 62.6518 72.2612 62.5829 69.7318C62.5846 69.7122 62.5846 69.6924 62.5829 69.6727C62.5846 69.6487 62.5846 69.6246 62.5829 69.6006C62.5829 67.0351 64.3479 64.5976 67.5695 62.7408C70.9879 60.7527 75.4823 59.7653 79.9768 59.7653H79.9735Z" fill="#3A3A3A"></path> <path d="M79.9735 84.8029C84.8288 84.8029 89.3954 83.7104 92.8532 81.7126C96.3897 79.672 98.3384 76.9294 98.3384 73.9867V69.5808C98.3384 69.4503 98.2865 69.3252 98.1943 69.2329C98.102 69.1406 97.9768 69.0887 97.8463 69.0887C97.7158 69.0887 97.5906 69.1406 97.4983 69.2329C97.406 69.3252 97.3542 69.4503 97.3542 69.5808V73.9867C97.3542 76.562 95.5794 79.0028 92.3611 80.876C88.9919 82.8214 84.504 83.8811 79.7307 83.8286C75.1379 83.7925 70.8074 82.7394 67.576 80.876C64.3446 79.0126 62.6125 76.644 62.5862 74.1376V69.5907H61.602V74.1508C61.6348 77.018 63.5704 79.7278 67.0839 81.729C70.4597 83.6973 74.9574 84.78 79.7242 84.8193L79.9735 84.8029Z" fill="#3A3A3A"></path> <path d="M77.1216 44.6581C76.5211 45.61 76.3063 46.7551 76.5213 47.86C76.5213 48.0732 76.5508 48.2963 76.5803 48.5161C76.7345 49.7463 77.266 50.468 77.7121 51.8361C77.9661 51.6386 78.1789 51.3935 78.3387 51.1143C78.9555 50.0481 78.5126 48.9196 79.0408 48.0043C80.0512 46.259 80.6811 48.6867 85.3002 48.2372C85.9034 48.1818 86.4955 48.0404 87.0586 47.8173C88.1316 47.3832 89.0257 46.5978 89.5945 45.5897C89.7038 45.4003 89.8035 45.2054 89.8931 45.0058C88.345 44.5211 86.8341 43.9247 85.3724 43.2212C82.4592 41.9089 79.277 41.2725 77.3677 44.248C77.2824 44.3792 77.2037 44.5137 77.1216 44.6581Z" fill="#3A3A3A"></path> <path d="M76.5955 56.7735L76.5693 56.7079C69.2601 59.6867 70.8643 64.0663 70.8643 69.8697C70.8643 71.9332 73.5708 74.1739 77.898 74.1739C80.1616 74.1739 82.4908 73.3013 84.6101 72.2679C86.4768 71.3624 89.5081 69.9321 89.5081 66.3267C89.5081 57.4493 87.8677 55.7303 85.8994 55.0282C85.5968 55.3594 85.217 55.6107 84.7938 55.7598C84.4747 55.8736 84.145 55.9549 83.8096 56.0025C84.4887 57.3837 84.3509 59.0305 82.8648 59.6604C80.6537 60.5921 77.2484 59.585 76.5955 56.7735Z" fill="#3A3A3A"></path> <path d="M76.5685 56.7046L76.5947 56.7702C77.2508 59.5817 80.6528 60.5888 82.8541 59.6571C84.3403 59.0272 84.478 57.3804 83.799 55.9992C84.1343 55.9516 84.4641 55.8703 84.7831 55.7565C85.2063 55.6074 85.5861 55.3561 85.8887 55.0249C87.4765 53.3091 87.0533 49.6578 87.0533 47.9913C87.0533 47.9322 87.0533 47.8764 87.0533 47.8174C86.4902 48.0405 85.8981 48.1819 85.2949 48.2373C80.702 48.6867 80.0459 46.2689 79.0355 48.0044C78.5073 48.9196 78.9502 50.0482 78.3334 51.1144C78.1736 51.3935 77.9608 51.6387 77.7068 51.8361C77.8215 52.1863 77.9178 52.5422 77.9955 52.9023C78.0612 53.2107 78.1235 53.5585 78.176 53.9292C78.3236 54.9724 77.9201 56.1797 76.9392 56.5537L76.5685 56.7046Z" fill="white"></path> <path d="M83.1197 56.5405C83.3676 56.5406 83.6153 56.5242 83.8611 56.4913C84.232 56.4386 84.5968 56.3496 84.9503 56.2256C85.4511 56.0485 85.9014 55.7524 86.2625 55.3628C87.7388 53.7586 87.6404 50.8224 87.5748 48.877C87.5748 48.549 87.5551 48.2472 87.5551 47.9946C87.5551 47.9257 87.5551 47.8633 87.5551 47.7944C87.5481 47.6639 87.4896 47.5415 87.3924 47.4542C87.2952 47.3668 87.1672 47.3216 87.0367 47.3286C86.9062 47.3355 86.7838 47.394 86.6965 47.4912C86.6091 47.5885 86.5639 47.7164 86.5709 47.8469C86.5709 47.8961 86.5709 47.9453 86.5709 47.9946C86.5709 48.257 86.5709 48.5654 86.5906 48.9098C86.6496 50.6945 86.7382 53.3911 85.5342 54.6935C85.2864 54.9674 84.974 55.1749 84.6255 55.2972C84.3349 55.3991 84.0349 55.4716 83.7299 55.5137C82.8014 55.6282 81.8594 55.4769 81.0135 55.0774C80.8943 55.0239 80.7587 55.0199 80.6366 55.0664C80.5145 55.1128 80.4158 55.2059 80.3623 55.3251C80.3088 55.4443 80.3048 55.5798 80.3513 55.702C80.3977 55.8241 80.4908 55.9228 80.61 55.9763C81.3973 56.3396 82.2526 56.5319 83.1197 56.5405Z" fill="#3A3A3A"></path> <path d="M81.089 60.4938C81.7585 60.4976 82.422 60.3682 83.041 60.1132C83.3741 59.981 83.6758 59.7804 83.9267 59.5245C84.1776 59.2685 84.3721 58.9628 84.4976 58.6271C84.6475 58.1603 84.7015 57.668 84.6564 57.1798C84.6113 56.6916 84.468 56.2175 84.2351 55.7861C84.2087 55.7249 84.1702 55.6697 84.1218 55.6238C84.0734 55.578 84.0162 55.5425 83.9537 55.5194C83.8912 55.4963 83.8246 55.4861 83.7581 55.4895C83.6915 55.493 83.6263 55.5099 83.5665 55.5392C83.5067 55.5686 83.4534 55.6098 83.41 55.6603C83.3666 55.7109 83.3339 55.7698 83.3139 55.8333C83.2939 55.8969 83.287 55.9639 83.2937 56.0302C83.3003 56.0965 83.3204 56.1608 83.3526 56.2191C83.5253 56.5309 83.634 56.874 83.6723 57.2284C83.7106 57.5827 83.6778 57.9411 83.5757 58.2826C83.497 58.4932 83.3744 58.6845 83.216 58.844C83.0576 59.0035 82.8671 59.1275 82.6571 59.2077C82.0618 59.4329 81.4259 59.5312 80.7903 59.4962C80.1547 59.4611 79.5335 59.2936 78.9664 59.0043C78.4959 58.7798 78.0814 58.4529 77.7534 58.0477C77.4253 57.6424 77.1919 57.169 77.0703 56.662C77.0407 56.5345 76.9617 56.424 76.8506 56.3548C76.7396 56.2856 76.6056 56.2633 76.4781 56.2929C76.3506 56.3225 76.2401 56.4015 76.1709 56.5126C76.1017 56.6236 76.0795 56.7576 76.109 56.8851C76.2646 57.5315 76.5615 58.1354 76.9784 58.6533C77.3954 59.1713 77.922 59.5903 78.5203 59.8803C79.3168 60.2829 80.1966 60.493 81.089 60.4938Z" fill="#3A3A3A"></path> <path d="M77.9004 74.666C80.4921 74.666 83.0937 73.5505 84.8258 72.6976L84.8849 72.6681C86.8007 71.7397 90.0026 70.1879 90.0026 66.3135C90.0026 57.6953 88.4968 55.4219 86.0659 54.5525C86.004 54.5253 85.9371 54.5112 85.8694 54.511C85.8018 54.5108 85.7349 54.5246 85.6728 54.5514C85.6107 54.5783 85.5548 54.6177 85.5086 54.6671C85.4624 54.7165 85.4269 54.7749 85.4043 54.8386C85.3817 54.9024 85.3725 54.9701 85.3773 55.0376C85.382 55.1051 85.4006 55.1708 85.4319 55.2308C85.4632 55.2907 85.5065 55.3436 85.5591 55.3861C85.6118 55.4286 85.6726 55.4597 85.7378 55.4776C87.3257 56.0485 89.0184 57.4001 89.0184 66.3037C89.0184 69.5613 86.2726 70.8965 84.4584 71.7725L84.3961 71.802C82.7558 72.5992 80.2887 73.6588 77.9004 73.6588C73.9867 73.6588 71.3589 71.6905 71.3589 69.8467C71.3589 68.9151 71.3162 68.026 71.2769 67.1698C71.0735 62.7245 70.9291 59.5161 76.7555 57.1409L76.8014 57.1212L77.1295 56.9933C78.3728 56.5209 78.8485 55.0512 78.6779 53.8406C78.6255 53.4666 78.5631 53.109 78.491 52.7777C78.4319 52.4988 78.363 52.2331 78.2876 51.974C78.4796 51.7858 78.6441 51.5716 78.7764 51.3375C79.0789 50.7551 79.2344 50.1074 79.2291 49.4511C79.2162 49.0308 79.3004 48.6132 79.4751 48.2308C79.7638 47.7321 79.7802 47.7387 80.6266 48.0634C82.1192 48.6914 83.7502 48.9176 85.3573 48.7196C86.0078 48.6605 86.6464 48.508 87.2535 48.2668C88.4267 47.7918 89.4049 46.9339 90.0289 45.8326C90.1499 45.6278 90.2595 45.4165 90.3569 45.1995C90.3862 45.1351 90.4014 45.0652 90.4014 44.9944C90.4014 44.9237 90.3862 44.8538 90.3569 44.7894C90.3275 44.7254 90.2843 44.6687 90.2304 44.6234C90.1765 44.578 90.1133 44.5451 90.0453 44.5269C88.7064 44.1168 87.3994 43.6091 86.1348 43.008L85.5902 42.7652C84.0844 42.0927 79.4981 40.0489 76.972 43.9758C76.8867 44.1103 76.8014 44.2514 76.7129 44.4023C76.0641 45.4496 75.8301 46.7016 76.0567 47.9125C76.0567 48.1159 76.0895 48.339 76.1191 48.5687C76.2312 49.3069 76.4523 50.0245 76.7752 50.6978C76.9392 51.0849 77.1033 51.4851 77.2706 51.9707V51.9903C77.3788 52.3211 77.4696 52.6573 77.5428 52.9975C77.6085 53.3059 77.6675 53.6536 77.7167 53.9817C77.8316 54.7854 77.5461 55.7926 76.7916 56.078L76.4078 56.2289L76.3553 56.2518C69.9351 58.8763 70.1221 62.7508 70.3157 67.2157C70.3517 68.0654 70.3944 68.9413 70.3944 69.8402C70.3747 72.176 73.2518 74.666 77.9004 74.666ZM79.8688 46.8759C79.4325 46.8759 79.0159 47.0891 78.6287 47.7616C78.3726 48.2701 78.2421 48.8326 78.2482 49.4019C78.2582 49.9068 78.1456 50.4067 77.9201 50.8585L77.9004 50.8913C77.8184 50.6847 77.7364 50.4944 77.6577 50.3139C77.3734 49.7222 77.1767 49.0923 77.0737 48.444C77.0475 48.2242 77.0278 48.0142 77.018 47.824C77.0196 47.7988 77.0196 47.7736 77.018 47.7485C76.828 46.7614 77.0229 45.7391 77.5625 44.8911C77.6413 44.7533 77.7167 44.6254 77.7955 44.504C79.2258 42.2797 81.5026 42.0205 85.1834 43.6608L85.7247 43.9036C86.8567 44.4333 88.0177 44.8988 89.2022 45.2979L89.1825 45.3339C88.6661 46.246 87.8569 46.9569 86.886 47.3515C86.3661 47.5578 85.8192 47.6882 85.2621 47.7387C83.814 47.9174 82.3442 47.7161 80.9973 47.1547C80.638 46.9933 80.2522 46.8988 79.859 46.8759H79.8688Z" fill="#3A3A3A"></path> <text x="40%" y="35%" font-weight="bold" fill="white">50 +</text> <path d="M77.3332 87.3215C75.916 84.6642 73.4555 83.0337 70.6145 82.2037C67.4586 81.2786 63.1085 81.1047 60.5463 83.4241C58.8371 84.9693 59.5621 87.5117 61.2221 88.6731C63.1019 89.9853 65.7067 89.572 67.8785 89.864C69.3371 90.0154 70.7127 90.6161 71.8152 91.583C74.4988 94.1287 69.03 97.0879 67.1797 97.7932C61.639 99.8163 55.6286 100.18 49.8843 98.8397C48.9231 98.6101 47.9422 98.5117 46.9809 98.2689C45.8983 97.9966 45.2193 97.8391 44.1137 98.1409C44.0377 98.1665 43.9738 98.219 43.9339 98.2885C43.894 98.358 43.881 98.4397 43.8972 98.5182C44.6386 100.815 47.4829 102.068 49.612 102.872C52.1734 103.817 54.8567 104.393 57.5806 104.581C62.6393 104.981 68.4591 103.925 72.8158 101.212C77.471 98.3279 80.066 92.4392 77.3332 87.3215Z" fill="#3FAAF0"></path> <path d="M74.5684 92.1571V92.3211C74.5389 94.9161 72.764 97.5012 69.3194 99.4794C65.8747 101.458 61.4328 102.452 56.9285 102.491C52.2766 102.527 47.5984 101.507 44.0488 99.4663C40.5549 97.452 38.7998 94.8111 38.7998 92.167V87.7578C38.7998 90.402 40.5451 93.0396 44.0488 95.0572C47.5984 97.1076 52.2766 98.1147 56.9285 98.0786C61.4262 98.0425 65.8977 97.0387 69.3259 95.0572C72.7542 93.0757 74.5028 90.4938 74.5749 87.8923L74.5684 92.1571Z" fill="#3A3A3A"></path> <path d="M74.5676 87.7514V87.8924C74.5086 90.4939 72.7633 93.0791 69.3186 95.0573C65.874 97.0355 61.4189 98.0426 56.9212 98.0787C52.2692 98.1148 47.5911 97.0946 44.0415 95.0573C40.5476 93.0397 38.7925 90.4021 38.7925 87.7579C38.7925 85.1137 40.5378 82.4728 44.0251 80.4553C51.0128 76.43 62.3309 76.43 69.3121 80.4553C72.8322 82.4794 74.5742 85.1039 74.5676 87.7514Z" fill="white"></path> <path d="M56.6855 98.5707C51.8236 98.5707 47.257 97.4783 43.8057 95.4837C40.2692 93.4398 38.3206 90.6972 38.3206 87.7578C38.3206 84.8184 40.266 82.0725 43.7992 80.0287C50.9116 75.9312 62.479 75.9345 69.5783 80.0287C73.1181 82.0692 75.0635 84.8085 75.0569 87.7414C75.0585 87.7654 75.0585 87.7895 75.0569 87.8136C75.0586 87.8409 75.0586 87.8683 75.0569 87.8956C74.9913 90.7825 73.0426 93.4726 69.575 95.4738C66.196 97.4422 61.7015 98.5215 56.9348 98.5609L56.6855 98.5707ZM56.6855 77.9291C52.1976 77.9291 47.713 78.9133 44.2946 80.8816C41.0796 82.7417 39.308 85.1858 39.308 87.7709C39.308 90.356 41.0795 92.787 44.3011 94.6438C47.6637 96.5892 52.1549 97.6292 56.9315 97.5964C61.5244 97.5603 65.8515 96.5105 69.0698 94.6438C72.229 92.8231 73.9907 90.4249 74.0596 87.8956C74.058 87.8759 74.058 87.8562 74.0596 87.8365C74.058 87.8125 74.058 87.7884 74.0596 87.7644C74.0596 85.1989 72.2946 82.7614 69.0731 80.9046C65.6678 78.9165 61.1897 77.9291 56.6822 77.9291H56.6855Z" fill="#3A3A3A"></path> <path d="M56.6822 102.98C51.8269 102.98 47.2635 101.887 43.8057 99.8894C40.2692 97.8489 38.3206 95.1063 38.3206 92.1636V87.7577C38.3206 87.6272 38.3724 87.502 38.4647 87.4097C38.557 87.3174 38.6821 87.2656 38.8126 87.2656C38.9432 87.2656 39.0683 87.3174 39.1606 87.4097C39.2529 87.502 39.3047 87.6272 39.3047 87.7577V92.1636C39.3047 94.7388 41.0763 97.1796 44.2978 99.0529C47.6638 100.998 52.1713 102.058 56.9282 102.005C61.5211 101.969 65.8515 100.92 69.0665 99.0529C72.2815 97.1862 74.0268 94.8208 74.0563 92.3145V87.7511C74.0563 87.6206 74.1082 87.4954 74.2005 87.4032C74.2927 87.3109 74.4179 87.259 74.5484 87.259C74.6789 87.259 74.8041 87.3109 74.8964 87.4032C74.9886 87.4954 75.0405 87.6206 75.0405 87.7511V92.321C75.0077 95.1883 73.0721 97.8817 69.5586 99.8992C66.1828 101.868 61.6851 102.95 56.9184 102.99L56.6822 102.98Z" fill="#3A3A3A"></path> <path d="M62.1782 72.9951C64.1466 73.6972 65.7869 75.4162 65.7869 84.2936C65.7869 87.9022 62.7524 89.326 60.889 90.2315C58.7566 91.2649 56.4404 92.1408 54.1768 92.1408C49.8497 92.1408 47.1432 89.8969 47.1432 87.8366C47.1432 82.0299 45.539 77.6503 52.8482 74.6748L52.8744 74.7404C53.5305 77.5486 56.9325 78.5558 59.1338 77.6273C60.6199 76.9975 60.7741 75.3309 60.0786 73.9662C60.4143 73.9201 60.7442 73.8387 61.0628 73.7234C61.4893 73.577 61.8727 73.3267 62.1782 72.9951Z" fill="#3FAAF0"></path> <path d="M60.0918 73.9661C60.7709 75.3472 60.6331 76.9974 59.147 77.6273C56.9457 78.5557 53.5404 77.5485 52.8876 74.7403L52.8613 74.6747L53.2386 74.5238C54.2228 74.1465 54.623 72.9425 54.4754 71.8993C54.4229 71.522 54.3606 71.1776 54.295 70.8692C54.4695 70.8835 54.6438 70.8389 54.7901 70.7426C54.9363 70.6462 55.0461 70.5037 55.102 70.3377C55.102 70.3377 54.4196 67.7592 55.4989 67.5033C56.5783 67.2474 57.0015 69.5865 57.0015 69.5865L57.7626 67.4016C57.8931 67.0347 58.1612 66.7331 58.5102 66.5604C58.8592 66.3877 59.2617 66.3576 59.6325 66.4764C60.4035 66.7192 61.5779 66.5388 63.2412 64.9313C63.3263 65.268 63.3693 65.614 63.3691 65.9614C63.3691 67.6247 63.7923 71.2793 62.2045 72.995C61.9017 73.3253 61.5219 73.5755 61.099 73.7233C60.7729 73.8402 60.4353 73.9216 60.0918 73.9661Z" fill="white"></path> <path d="M55.4997 67.5032C54.4204 67.759 55.1028 70.3376 55.1028 70.3376C55.0469 70.5036 54.9371 70.6461 54.7909 70.7424C54.6446 70.8388 54.4703 70.8833 54.2957 70.8691C53.8299 68.7432 53.0622 67.9985 52.8752 66.4862C52.5209 63.6419 53.551 61.4504 57.7306 61.4504C61.2047 61.4504 62.7926 63.2023 63.2289 64.9312C61.5886 66.5387 60.4043 66.7191 59.6202 66.4763C59.2494 66.3575 58.8469 66.3876 58.4979 66.5603C58.1489 66.733 57.8808 67.0346 57.7502 67.4015L56.9891 69.5864C56.9891 69.5864 56.5725 67.2538 55.4997 67.5032Z" fill="#3A3A3A"></path> <path d="M54.1894 92.6492C49.5408 92.6492 46.6637 90.1592 46.6637 87.8529C46.6637 86.9376 46.6243 86.0584 46.585 85.2087C46.3783 80.7208 46.2011 76.8464 52.6771 74.235C52.6771 74.235 52.9526 74.1202 53.0609 74.0809C53.8154 73.7922 54.1009 72.7686 53.9893 71.9845C53.9401 71.6368 53.8811 71.3022 53.8122 71.0004C53.6317 70.2041 53.3712 69.4281 53.0347 68.6842C52.7097 68.0175 52.4884 67.3051 52.3785 66.5715C52.162 64.8197 52.4737 63.4517 53.307 62.5101C54.1993 61.4997 55.6854 60.9879 57.7227 60.9879C62.3582 60.9879 63.467 63.9405 63.6967 64.8361C63.792 65.2125 63.8405 65.5993 63.841 65.9876C63.841 66.2402 63.841 66.5387 63.864 66.8733C63.9198 68.6154 64.005 71.1381 62.9585 72.8178C65.0286 73.8643 66.2851 76.4265 66.2851 84.3197C66.2851 88.1908 63.0832 89.7425 61.1706 90.6709L61.1083 90.7005C59.3827 91.5141 56.7778 92.6492 54.1894 92.6492ZM57.7292 61.9623C55.9872 61.9623 54.7471 62.3625 54.0484 63.1499C53.4119 63.8716 53.179 64.9804 53.3627 66.4305C53.4604 67.0729 53.6551 67.6968 53.9401 68.2807C54.3017 69.0803 54.5809 69.9146 54.7734 70.7707C54.8488 71.0988 54.9112 71.4662 54.9637 71.8369C55.1343 73.0442 54.6553 74.5139 53.4119 74.9896L53.0445 75.1372C47.2149 77.4894 47.3625 80.7143 47.5692 85.153C47.6085 86.0158 47.6479 86.9048 47.6479 87.843C47.6479 89.6835 50.2724 91.6551 54.1894 91.6551C56.5777 91.6551 59.0415 90.5922 60.6883 89.795L60.7507 89.7655C62.5649 88.8863 65.3074 87.5543 65.3074 84.3C65.3074 75.9114 63.8082 74.2186 62.309 73.5756C61.9986 73.8456 61.6403 74.0549 61.2526 74.1924C60.8985 74.3187 60.5324 74.4088 60.1602 74.4614C59.0474 74.6026 57.9174 74.424 56.9025 73.9464C56.8416 73.921 56.7864 73.8837 56.7402 73.8367C56.694 73.7896 56.6577 73.7337 56.6335 73.6723C56.6093 73.6109 56.5977 73.5453 56.5994 73.4794C56.6011 73.4134 56.616 73.3485 56.6433 73.2884C56.6706 73.2284 56.7097 73.1744 56.7582 73.1297C56.8068 73.0851 56.8638 73.0507 56.926 73.0285C56.9881 73.0063 57.054 72.9968 57.1199 73.0007C57.1858 73.0045 57.2502 73.0215 57.3093 73.0507C58.1549 73.4515 59.0971 73.6029 60.0257 73.4871C60.3307 73.4434 60.6307 73.3697 60.9213 73.2673C61.266 73.146 61.5757 72.9421 61.8234 72.6735C63.0209 71.3612 62.9323 68.6777 62.8732 66.8996C62.8732 66.5518 62.8503 66.2435 62.8503 65.981C62.8513 65.6744 62.8127 65.369 62.7355 65.0723C62.5058 64.1078 61.5479 61.9458 57.7292 61.9458V61.9623Z" fill="#3A3A3A"></path> <path d="M57.3854 78.4573C56.4908 78.4573 55.6087 78.2472 54.8102 77.8439C54.2124 77.5544 53.6864 77.1359 53.2699 76.6185C52.8535 76.1011 52.5572 75.4977 52.4022 74.8519C52.3726 74.7245 52.3949 74.5905 52.4641 74.4794C52.5333 74.3684 52.6438 74.2894 52.7712 74.2598C52.8987 74.2302 53.0327 74.2525 53.1438 74.3217C53.2548 74.3909 53.3338 74.5014 53.3634 74.6289C53.4838 75.1351 53.7165 75.6078 54.0441 76.0121C54.3717 76.4164 54.786 76.7419 55.2563 76.9647C55.8234 77.255 56.445 77.4237 57.0811 77.4599C57.7172 77.496 58.3539 77.3989 58.9503 77.1746C59.1611 77.0935 59.3524 76.9689 59.5118 76.809C59.6712 76.649 59.7951 76.4572 59.8754 76.2462C60.0766 75.557 59.9964 74.8161 59.6523 74.186C59.6237 74.128 59.6067 74.065 59.6024 74.0005C59.5982 73.936 59.6066 73.8713 59.6273 73.8101C59.648 73.7488 59.6806 73.6923 59.7232 73.6436C59.7657 73.595 59.8175 73.5552 59.8754 73.5266C59.9334 73.4979 59.9964 73.481 60.0609 73.4767C60.1254 73.4724 60.1901 73.4808 60.2513 73.5015C60.3126 73.5223 60.3691 73.5548 60.4178 73.5974C60.4664 73.64 60.5062 73.6917 60.5348 73.7497C60.7663 74.1816 60.9088 74.6556 60.9539 75.1436C60.999 75.6315 60.9457 76.1236 60.7973 76.5907C60.6713 76.9265 60.4767 77.2324 60.2259 77.4888C59.9751 77.7452 59.6736 77.9466 59.3407 78.0801C58.7205 78.3345 58.0558 78.4628 57.3854 78.4573Z" fill="#3A3A3A"></path> <path d="M54.3048 71.3612C54.1743 71.3612 54.0492 71.3094 53.9569 71.2171C53.8646 71.1248 53.8127 70.9997 53.8127 70.8691C53.8127 70.7386 53.8646 70.6135 53.9569 70.5212C54.0492 70.4289 54.1743 70.377 54.3048 70.377C54.3559 70.3818 54.4074 70.3757 54.456 70.3593C54.5046 70.343 54.5492 70.3166 54.587 70.2819C54.459 69.7242 54.2064 68.3365 54.6723 67.5623C54.7493 67.4286 54.8527 67.312 54.9762 67.2195C55.0997 67.127 55.2408 67.0606 55.3907 67.0243C55.5484 66.9874 55.7119 66.9835 55.8711 67.0129C56.0303 67.0423 56.1817 67.1042 56.3159 67.1948C56.6206 67.4177 56.8634 67.7147 57.0212 68.0576L57.3033 67.2408C57.4708 66.7491 57.8258 66.3436 58.291 66.1125C58.7561 65.8815 59.2938 65.8436 59.7868 66.0073C60.5971 66.2632 61.6698 65.7678 62.8902 64.5802C62.936 64.5327 62.9909 64.4949 63.0516 64.4691C63.1122 64.4432 63.1775 64.4298 63.2435 64.4297C63.3094 64.4296 63.3747 64.4427 63.4355 64.4683C63.4963 64.4939 63.5513 64.5315 63.5973 64.5788C63.6433 64.6261 63.6793 64.6821 63.7032 64.7436C63.727 64.8051 63.7383 64.8708 63.7363 64.9367C63.7343 65.0026 63.7191 65.0675 63.6915 65.1274C63.664 65.1873 63.6246 65.2411 63.5759 65.2855C62.0569 66.7651 60.6824 67.3195 59.4915 66.9455C59.2421 66.8637 58.9706 66.8828 58.7352 66.9987C58.4997 67.1146 58.319 67.318 58.2317 67.5656L57.4739 69.7472C57.4381 69.8495 57.3695 69.9371 57.2787 69.9964C57.188 70.0557 57.0802 70.0833 56.9722 70.0751C56.8641 70.0669 56.7617 70.0232 56.681 69.9509C56.6003 69.8785 56.5458 69.7815 56.5258 69.675C56.4208 69.1238 56.1223 68.2446 55.7745 68.0183C55.753 68.0002 55.7276 67.9875 55.7002 67.9813C55.6728 67.975 55.6443 67.9753 55.6171 67.9822C55.5876 67.9822 55.5548 68.0019 55.5154 68.0708C55.2792 68.4612 55.417 69.5799 55.5843 70.213C55.6072 70.2957 55.6072 70.383 55.5843 70.4656C55.4993 70.7349 55.3279 70.9687 55.0966 71.1306C54.8652 71.2925 54.5869 71.3736 54.3048 71.3612Z" fill="#3A3A3A"></path> </svg> 