<svg xmlns="http://www.w3.org/2000/svg" width="125.411" height="52.185" viewBox="0 0 125.411 52.185">
  <g id="Layer_2" data-name="Layer 2" transform="translate(0.02)">
    <g id="Layer_1" data-name="Layer 1" transform="translate(-0.02)">
      <g id="KINESIS" transform="translate(53.384 29.593)">
        <path id="path8" d="M231.5,129.31h1.462v5.744H233l4.1-5.744h1.628l-3.586,4.948,3.885,6.917H237.4l-3.21-5.711-1.229,1.676v4.035H231.5Z" transform="translate(-231.5 -129.086)"/>
        <path id="path10" d="M269.31,129.31h1.462v11.854H269.31Z" transform="translate(-260.592 -129.086)"/>
        <path id="path12" d="M285.8,129.31h1.891l3.92,9.9h.032v-9.9H293.1v11.854H291.1l-3.8-9.6h-.032v9.6H285.8Z" transform="translate(-273.279 -129.086)"/>
        <path id="path14" d="M327.63,129.31h6.127v1.3H329.1v3.719h4.381v1.3H329.1v4.247h4.865v1.3H327.63Z" transform="translate(-305.464 -129.086)"/>
        <path id="path16" d="M366.283,131.635c0-1.245-.447-2.108-1.845-2.108a1.759,1.759,0,0,0-1.96,1.925c0,3.337,5.6,1.344,5.6,5.679,0,2.739-2.008,3.521-3.689,3.521-2.767,0-3.586-1.427-3.586-3.952h1.462c0,1.328.083,2.767,2.225,2.767a2,2,0,0,0,2.059-2.091c0-3.355-5.6-1.411-5.6-5.765,0-1.1.461-3.272,3.459-3.272,2.257,0,3.288,1.13,3.32,3.3Z" transform="translate(-330.986 -128.34)"/>
        <path id="path18" d="M400.56,129.31h1.462v11.854H400.56Z" transform="translate(-361.578 -129.086)"/>
        <path id="path20" d="M420.573,131.635c0-1.245-.447-2.108-1.845-2.108a1.759,1.759,0,0,0-1.96,1.925c0,3.337,5.6,1.344,5.6,5.679,0,2.739-2.008,3.521-3.689,3.521-2.767,0-3.586-1.427-3.586-3.952h1.462c0,1.328.083,2.767,2.225,2.767a2,2,0,0,0,2.059-2.091c0-3.355-5.6-1.411-5.6-5.765,0-1.1.461-3.272,3.459-3.272,2.257,0,3.288,1.13,3.32,3.3Z" transform="translate(-372.758 -128.34)"/>
      </g>
      <g id="KINESIS-2" data-name="KINESIS">
        <path id="path23" d="M0,10.8C7.231,7.176,14.494,3.609,21.737,0V26.1H0Z" transform="translate(0.005)" fill="#9e5125"/>
        <path id="path25" d="M94.266,0c1.466.708,2.917,1.453,4.381,2.177V26.1H94.266Q94.264,13.053,94.266,0Z" transform="translate(-72.525)" fill="#f48537"/>
        <path id="path27" d="M113.26,37.82c1.25-.364,2.509-.7,3.758-1.07-.03,5.875,0,11.76,0,17.628H113.26Z" transform="translate(-87.14 -28.276)" fill="#9e5125"/>
        <path id="path29" d="M129.51,36.75c1.132.431,2.257.883,3.39,1.314V54.378h-3.4C129.505,48.5,129.48,42.625,129.51,36.75Z" transform="translate(-99.631 -28.276)" fill="#f48537"/>
        <path id="path31" d="M156.67,57.149c1.718-.318,3.438-.629,5.153-.959V69.333h-2.481V58.747c-.867-.267-1.739-.51-2.615-.74C156.7,57.721,156.686,57.435,156.67,57.149Z" transform="translate(-120.54 -43.234)" fill="#9e5125"/>
        <path id="path33" d="M179,56.19c.733.279,1.464.567,2.191.872V69.333H179Z" transform="translate(-137.721 -43.234)" fill="#f48537"/>
        <path id="path35" d="M144.262,64.51c.955-.168,1.918-.293,2.873-.48.014,3.779,0,7.558,0,11.338H144.26Q144.26,69.937,144.262,64.51Z" transform="translate(-110.992 -49.266)" fill="#9e5125"/>
        <path id="path37" d="M156.73,64l.037.012c.876.231,1.748.461,2.615.74.016,3.53,0,7.058,0,10.586h-2.647C156.735,71.565,156.744,67.786,156.73,64Z" transform="translate(-120.586 -49.243)" fill="#f48537"/>
        <path id="path39" d="M17.6,122.648c1.845-.039,3.689-.242,5.534-.108q8.3.339,16.62.666a7.84,7.84,0,0,1,2.368.256c-.445.078-.888.168-1.337.219-6.364.623-12.726,1.28-19.092,1.888Q10.857,124.527.02,123.393c5.854-.332,11.72-.482,17.582-.745Z" transform="translate(-0.011 -94.25)" fill="#f6bc93"/>
        <path id="path41" d="M114.465,126.4a12.194,12.194,0,0,1,1.3-.088v4.6c-2.576.639-5.156,1.264-7.731,1.914-4.667,1.13-9.327,2.306-13.994,3.429v-7.745c6.366-.609,12.728-1.266,19.092-1.888C113.577,126.566,114.02,126.469,114.465,126.4Z" transform="translate(-72.352 -97.185)" fill="#f48537"/>
        <path id="path43" d="M-.015,126.39q10.837,1.132,21.675,2.177v7.745c-4.685-1.111-9.35-2.317-14.035-3.443-2.536-.648-5.1-1.254-7.644-1.9q0-2.29,0-4.579Z" transform="translate(0.02 -97.247)" fill="#9e5125"/>
        <path id="path45" d="M7.646,154.49c4.685,1.125,9.35,2.331,14.029,3.443,4.667-1.13,9.327-2.306,13.994-3.429,2.592.42,5.195.745,7.789,1.139-7.266,2.513-14.5,5.117-21.767,7.628-7.206-2.6-14.457-5.089-21.691-7.637C2.55,155.249,5.117,154.974,7.646,154.49Z" transform="translate(0.005 -118.868)" fill="#f6bc93"/>
        <path id="path47" d="M0,159.45c7.231,2.536,14.483,5.038,21.7,7.637-.042,2.594,0,5.188-.021,7.782-7.233-3.581-14.448-7.2-21.675-10.784Z" transform="translate(0.005 -122.684)" fill="#9e5125"/>
        <path id="path49" d="M94.031,167.118c7.266-2.511,14.5-5.114,21.767-7.628v4.542c-7.245,3.657-14.527,7.217-21.788,10.867C94.026,172.306,93.989,169.712,94.031,167.118Z" transform="translate(-72.328 -122.715)" fill="#f48537"/>
      </g>
      <path id="Amazon" d="M235.392,53.661c-2.131,0-4.485.825-5,3.523a.38.38,0,0,0,.288.461h.037l2.186.263a.487.487,0,0,0,.35-.461,1.711,1.711,0,0,1,1.81-1.37,1.494,1.494,0,0,1,1.25.581,3,3,0,0,1,.293,1.662v.318a15.232,15.232,0,0,0-4.229.786,3.92,3.92,0,0,0-2.387,3.749,3.235,3.235,0,0,0,3.348,3.586,4.381,4.381,0,0,0,3.705-1.662,5.493,5.493,0,0,0,1.25,1.494.461.461,0,0,0,.526-.062c.461-.413,1.25-1.153,1.718-1.543a.443.443,0,0,0,0-.625,3.161,3.161,0,0,1-.844-2.124V58.764c0-1.494.125-2.917-.962-3.968a5,5,0,0,0-3.341-1.134Zm29.364,0c-2.131,0-4.485.825-5,3.523a.38.38,0,0,0,.288.461h.037l2.191.256a.487.487,0,0,0,.38-.461,1.711,1.711,0,0,1,1.805-1.367,1.494,1.494,0,0,1,1.25.581,3,3,0,0,1,.254,1.667v.318a15.038,15.038,0,0,0-4.2.786,3.92,3.92,0,0,0-2.387,3.749,3.235,3.235,0,0,0,3.348,3.586A4.381,4.381,0,0,0,266.43,65.1a5.467,5.467,0,0,0,1.25,1.494.461.461,0,0,0,.526-.062c.461-.413,1.25-1.153,1.718-1.543a.461.461,0,0,0,0-.625,3.161,3.161,0,0,1-.844-2.124V58.764c0-1.494.1-2.917-.987-3.968a4.937,4.937,0,0,0-3.336-1.137Zm-16.519.118a3,3,0,0,0-2.949,2.174V54.427a.443.443,0,0,0-.413-.413H242.8a.443.443,0,0,0-.443.413v11.8a.461.461,0,0,0,.413.413h2.244a.443.443,0,0,0,.431-.431V59.961c0-1.367-.069-3.228,1.543-3.228s1.367,1.925,1.367,3.228v6.249a.461.461,0,0,0,.413.431h2.244a.443.443,0,0,0,.431-.431V59.961a7.173,7.173,0,0,1,.2-2.244,1.494,1.494,0,0,1,1.317-.985,1.169,1.169,0,0,1,1.305,1.005,15.623,15.623,0,0,1,.062,2.244V66.23a.461.461,0,0,0,.413.431h2.244a.443.443,0,0,0,.431-.431v-7.5c0-1.25.125-2.7-.581-3.705a3.267,3.267,0,0,0-5.624.922,3.082,3.082,0,0,0-2.968-2.156Zm38.154,0c-3.228,0-5.043,2.85-5.043,6.523s1.78,6.576,5.043,6.576c3.124,0,5.124-2.868,5.124-6.472,0-3.71-1.817-6.636-5.167-6.636Zm12.795,0c-1.549,0-2.43.749-3.062,2.387v-1.8a.431.431,0,0,0-.417-.318h-2.075a.424.424,0,0,0-.417.378v11.79a.461.461,0,0,0,.417.431h2.244a.443.443,0,0,0,.431-.431V59.871a5.453,5.453,0,0,1,.38-2.244,1.437,1.437,0,0,1,1.206-.95c1.549,0,1.4,1.875,1.4,3.173v6.41a.443.443,0,0,0,.413.38h2.227a.443.443,0,0,0,.431-.38V58.847a7.708,7.708,0,0,0-.581-3.673,2.942,2.942,0,0,0-2.617-1.4Zm-26.934.2a.413.413,0,0,0-.413.413v1.692a.413.413,0,0,0,.387.431h3.867l-4.367,6.491a2.149,2.149,0,0,0-.311,1.153v1.718a.387.387,0,0,0,.526.38,8.278,8.278,0,0,1,7.778,0,.406.406,0,0,0,.556-.38V64.088a.749.749,0,0,0-.413-.625,8,8,0,0,0-4.215-.938l3.828-5.622a2.361,2.361,0,0,0,.553-1.049V54.427A.413.413,0,0,0,279.64,54h-7.379Zm14.132,2.244a1.43,1.43,0,0,1,1.483,1.137,11.153,11.153,0,0,1,.318,3.124c0,1.494-.076,4.017-1.805,4.017s-1.741-3.124-1.741-4.54.076-3.749,1.7-3.749ZM236.579,60.5V61a4.635,4.635,0,0,1-.413,2.437,1.812,1.812,0,0,1-1.543,1.049c-.862,0-1.367-.692-1.367-1.692-.025-1.937,1.718-2.28,3.33-2.28Zm29.364,0V61a4.63,4.63,0,0,1-.413,2.449,1.805,1.805,0,0,1-1.543,1.049c-.862,0-1.367-.692-1.367-1.692,0-1.955,1.7-2.306,3.311-2.306Z" transform="translate(-176.953 -41.284)" fill="#201c1d"/>
    </g>
  </g>
</svg>
