<svg id="apache-storm-logo" xmlns="http://www.w3.org/2000/svg" width="110" height="38.828" viewBox="0 0 110 38.828">
  <g id="Group_2462" data-name="Group 2462">
    <path id="Path_14185" data-name="Path 14185" d="M54.485,12.44l-.84-2.06H49.188l-.84,2.06h-.842l3.448-8.4h.883l3.448,8.4Zm-3.07-7.653L49.44,9.71h3.993Zm5.13,7.653V4.04H59.7a2.392,2.392,0,0,1,2.522,2.48A2.394,2.394,0,0,1,59.7,9H57.26v3.5h-.715Zm4.92-5.93A1.756,1.756,0,0,0,59.615,4.7H57.272V8.32h2.343a1.732,1.732,0,0,0,1.85-1.808Zm7.4,5.93-.842-2.06H63.566l-.842,2.06h-.84l3.45-8.4h.883l3.447,8.4ZM65.8,4.787,63.82,9.71h3.993Zm4.33,3.45a4.189,4.189,0,0,1,4.248-4.374,3.814,3.814,0,0,1,3.07,1.472l-.59.377a3.17,3.17,0,0,0-2.481-1.219,3.492,3.492,0,0,0-3.5,3.7,3.486,3.486,0,0,0,3.5,3.7,3.17,3.17,0,0,0,2.481-1.219l.59.377a3.785,3.785,0,0,1-3.07,1.514,4.107,4.107,0,0,1-4.248-4.33Zm14.845,4.2V8.447H79.63V12.44h-.716V4.04h.715V7.783h5.34V4.03h.715v8.4Zm2.807,0V4.04h5.34v.672H88.492v3.11h4.542v.672H88.492v3.32h4.625v.672h-5.34Zm-40.9,14.088,1.472-2.1a5.56,5.56,0,0,0,4.036,1.724c1.514,0,2.186-.672,2.186-1.387,0-2.186-7.317-.672-7.317-5.425,0-2.1,1.808-3.87,4.793-3.87A7.028,7.028,0,0,1,57,17.233L55.491,19.25a5.363,5.363,0,0,0-3.7-1.388c-1.136,0-1.766.5-1.766,1.26,0,1.976,7.274.632,7.274,5.382,0,2.313-1.68,4.08-5.088,4.08a7.691,7.691,0,0,1-5.34-2.06Zm14.968,1.765v-10.3h-3.71V15.65H68.225v2.343h-3.7V28.3Zm7.065-6.316a6.623,6.623,0,0,1,13.246,0,6.623,6.623,0,0,1-13.246,0Zm10.47,0a3.86,3.86,0,1,0-7.7,0,3.86,3.86,0,1,0,7.7,0Zm11.815,6.316-2.48-4.5H86.737v4.5H84.045V15.637h5.93a3.958,3.958,0,0,1,4.28,4.08,3.623,3.623,0,0,1-2.775,3.742L94.34,28.3Zm.306-8.62a1.7,1.7,0,0,0-1.892-1.68h-2.87V21.4H89.6a1.726,1.726,0,0,0,1.892-1.724Zm15.79,8.62V19.17L103.715,28.3h-1.166l-3.566-9.134v9.125H96.291V15.628h3.785l3.07,7.905,3.07-7.905H110V28.285Z" fill="#3c3c3b"/>
    <path id="Path_14186" data-name="Path 14186" d="M28.9,20.883H25.224L15.2,28.56H26.885L13.957,38.828h3.59l15.94-12.353H21.72Z" fill="#eea852" fill-rule="evenodd"/>
    <path id="Path_14187" data-name="Path 14187" d="M14.02,13.817H10.414L0,21.9l13.352.066c6.208,0,12.617-2.3,12.617-8.112S19.493,4.27,8.612,8.274c-.733.8-3.87,3.74-4.406,4.274,10.347-5.208,19.458-4.94,19.458,1.27,0,5.876-9.38,5.876-10.314,5.876H6.533Z" fill="#3da0ca" fill-rule="evenodd"/>
    <path id="Path_14188" data-name="Path 14188" d="M8.6,8.275c-.734.8-3.87,3.74-4.406,4.274a39.737,39.737,0,0,1,6.66-2.664c1.563-2.06,5.76-7.684,11.7-7.684,6.342,0,8.478,3.74,8.478,5.942a6.641,6.641,0,0,1-1.8,4.208s2.737.132,4.072.132,5.14.4,5.14,4.073-4.34,4.207-5.807,4.207H25.36l-2.87,2.272L32.3,23.1c4.406,0,8.478-2.2,8.478-6.543s-3.74-6.276-7.6-6.276a3.9,3.9,0,0,0,.534-2.136C33.716,7.334,32.38,0,22.423,0,16,0,12.068,5.063,8.6,8.28Z" fill="#2c6ba3" fill-rule="evenodd"/>
    <path id="Path_14189" data-name="Path 14189" d="M25.352,20.766h3.7l-2.954,2.3-3.67-.036Z" fill="#928680" fill-rule="evenodd"/>
    <path id="Path_14190" data-name="Path 14190" d="M10.855,9.885l-.068.02c-1.5.49-4.717,1.82-6.59,2.644L8.6,8.275a28.836,28.836,0,0,1,4.672-1.31,35.248,35.248,0,0,0-2.42,2.92Z" fill="#3288ba" fill-rule="evenodd"/>
  </g>
</svg>
