<svg id="database-icon5" xmlns="http://www.w3.org/2000/svg" width="75.353" height="49.62" viewBox="0 0 75.353 49.62">
  <g id="Group_2402" data-name="Group 2402" transform="translate(4.2 37.999)">
    <path id="Path_22339" data-name="Path 22339" d="M4.819,13.2a2.4,2.4,0,0,1,1.559.44c.059.47-.381,1.235-.647,1.235a2.753,2.753,0,0,0-1-.177c-1.53,0-2.295,1.589-2.295,3.146,0,.971.324,1.559,1.117,1.559a3.559,3.559,0,0,0,2.118-.971.887.887,0,0,1,.265.647,1.29,1.29,0,0,1-.411.971,3.822,3.822,0,0,1-2.764,1C1.261,21.054.2,20.2.2,18.2a4.733,4.733,0,0,1,4.615-5Z" transform="translate(-0.197 -9.438)" fill="#373535"/>
    <path id="Path_22340" data-name="Path 22340" d="M26.205,19.317c.824,0,2.324-1.441,2.735-4.206.029-.177.029-.2.059-.381a2.316,2.316,0,0,0-.676-.118,2.066,2.066,0,0,0-1.823.971,4.788,4.788,0,0,0-.853,2.676c0,.676.2,1.058.558,1.058ZM23.5,18.552a5.785,5.785,0,0,1,1.589-3.97,4.731,4.731,0,0,1,3.588-1.376,16.3,16.3,0,0,1,2.529.381c-.177.735-.558,3.529-.765,5.147a12.759,12.759,0,0,0-.088,2,6.264,6.264,0,0,1-1.882.295c-.147,0-.177-.676-.147-1.353A6.324,6.324,0,0,0,28.382,19a4.06,4.06,0,0,1-3.293,2c-.971.029-1.589-.786-1.589-2.442Z" transform="translate(-16.642 -9.435)" fill="#373535"/>
    <path id="Path_22341" data-name="Path 22341" d="M55.181,13.207a2.556,2.556,0,0,1,1.648.558c-.029.47-.381,1.264-.971,1.03A2.46,2.46,0,0,0,55,14.648c-.44,0-.853.2-.853.617,0,.324.236.558,1.353,1.353a2.188,2.188,0,0,1,1.117,1.852,2.861,2.861,0,0,1-3.175,2.556,2.3,2.3,0,0,1-1.77-.647c-.295-.5-.059-1.5.265-1.323a4.57,4.57,0,0,0,1.736.44c.558,0,.912-.265.912-.59s-.265-.529-1.264-1.264a2.273,2.273,0,0,1-1.117-1.882,2.713,2.713,0,0,1,2.971-2.556Z" transform="translate(-36.441 -9.442)" fill="#373535"/>
    <path id="Path_22342" data-name="Path 22342" d="M74.883,13.207a2.556,2.556,0,0,1,1.648.558c-.029.47-.381,1.264-.971,1.03a2.46,2.46,0,0,0-.857-.147c-.44,0-.853.2-.853.617,0,.324.236.558,1.353,1.353a2.188,2.188,0,0,1,1.117,1.852,2.861,2.861,0,0,1-3.175,2.556,2.359,2.359,0,0,1-1.77-.647c-.295-.5-.059-1.5.265-1.323a4.57,4.57,0,0,0,1.736.44c.558,0,.912-.265.912-.59s-.265-.529-1.264-1.264a2.273,2.273,0,0,1-1.117-1.882,2.713,2.713,0,0,1,2.971-2.556Z" transform="translate(-50.349 -9.442)" fill="#373535"/>
    <path id="Path_22343" data-name="Path 22343" d="M95.006,19.317c.824,0,2.324-1.441,2.735-4.206.029-.177.029-.2.059-.381a2.316,2.316,0,0,0-.676-.118,2.066,2.066,0,0,0-1.823.971,4.788,4.788,0,0,0-.853,2.676c.029.676.2,1.058.558,1.058ZM92.3,18.552a5.785,5.785,0,0,1,1.589-3.97,4.731,4.731,0,0,1,3.588-1.376,16.3,16.3,0,0,1,2.529.381c-.177.735-.558,3.529-.765,5.147a12.76,12.76,0,0,0-.088,2,6.264,6.264,0,0,1-1.882.295c-.147,0-.177-.676-.147-1.353A6.318,6.318,0,0,0,97.182,19a4.06,4.06,0,0,1-3.293,2c-.942.029-1.589-.786-1.589-2.442Z" transform="translate(-65.208 -9.435)" fill="#373535"/>
    <path id="Path_22344" data-name="Path 22344" d="M124.2,15.234a3.826,3.826,0,0,1,3.175-2.177c1.205,0,1.589,1.117,1.353,2.676-.118.735-.324,1.793-.44,2.764a11.814,11.814,0,0,0-.177,2.059,7.472,7.472,0,0,1-2,.295,3.667,3.667,0,0,1,.029-1.882c.147-.786.411-2.265.558-3.118.088-.5.059-1.087-.411-1.087-.617,0-2.088,1-2.823,5.059a.85.85,0,0,1-.381.647,4.072,4.072,0,0,1-1.882.295c.2-1.03.529-3.118.765-4.676a16.906,16.906,0,0,0,.265-2.676c.295-.088,1.793-.411,1.941-.411s.2.529.059,1.77c-.029.118-.029.295-.059.411h.029v.059Z" transform="translate(-85.607 -9.292)" fill="#373535"/>
    <path id="Path_22345" data-name="Path 22345" d="M153.632,10.253c.735,0,2.236-1.376,2.647-3.824.029-.147.059-.381.088-.529a1.282,1.282,0,0,0-.971-.324c-1.707,0-2.442,2.029-2.442,3.5.03.765.295,1.18.676,1.18Zm-1.087,1.736c-1.087,0-1.736-.971-1.736-2.588a4.8,4.8,0,0,1,4.56-5.206,2.723,2.723,0,0,1,1.235.295c.147-.765.5-3.146.529-3.854A14.567,14.567,0,0,1,159.067.4c.177,0,.236.177.177.617-.411,2.529-1.117,7.354-1.264,8.411a16.971,16.971,0,0,0-.088,2.295,6.306,6.306,0,0,1-1.911.295c-.118,0-.177-.765-.147-1.471.03-.2.059-.529.059-.59a4.015,4.015,0,0,1-3.352,2.029Z" transform="translate(-106.511 -0.4)" fill="#373535"/>
    <path id="Path_22346" data-name="Path 22346" d="M183.324,15.537c.883-1.966,1.941-2.413,2.647-2.413a1.26,1.26,0,0,1,.706.295,3.71,3.71,0,0,1-.765,2.088,1.8,1.8,0,0,0-.735-.2c-.558,0-1.707.883-2.413,4.705-.059.324-.147.44-.324.529a7.016,7.016,0,0,1-1.941.324c.265-1.376.676-4.176.853-5.824a8.72,8.72,0,0,0,.029-1.5,9.355,9.355,0,0,1,1.852-.44c.147,0,.265.912.03,2.413h.059v.029Z" transform="translate(-127.469 -9.359)" fill="#373535"/>
    <path id="Path_22347" data-name="Path 22347" d="M203.706,19.317c.824,0,2.324-1.441,2.735-4.206.029-.177.029-.2.059-.381a2.316,2.316,0,0,0-.676-.118,2.066,2.066,0,0,0-1.823.971,4.788,4.788,0,0,0-.853,2.676C203.177,18.936,203.344,19.317,203.706,19.317ZM201,18.552a5.785,5.785,0,0,1,1.589-3.97,4.731,4.731,0,0,1,3.588-1.376,16.3,16.3,0,0,1,2.529.381c-.177.735-.558,3.529-.765,5.148a12.758,12.758,0,0,0-.088,2,6.264,6.264,0,0,1-1.882.295c-.147,0-.177-.676-.147-1.353a6.314,6.314,0,0,0,.059-.676,4.06,4.06,0,0,1-3.293,2c-.942.029-1.589-.786-1.589-2.442Z" transform="translate(-141.937 -9.435)" fill="#373535"/>
  </g>
  <g id="Group_2403" data-name="Group 2403" transform="translate(0 0)">
    <path id="Path_22348" data-name="Path 22348" d="M91.8,21.922c.558,6.441-9.587,12.584-22.676,13.7s-24.117-3.2-24.676-9.646,9.587-12.584,22.676-13.7S91.241,15.452,91.8,21.922" transform="translate(-31.625 -8.6)" fill="#bbe6fb"/>
    <path id="Path_22349" data-name="Path 22349" d="M84.681,15.2a40.333,40.333,0,0,0-15.175,3.765,12.739,12.739,0,0,0-.706,4.115c0,7.647,6.911,13.852,15.441,13.852s15.47-6.184,15.47-13.852A12.79,12.79,0,0,0,97.8,16.392a101.73,101.73,0,0,0-13.117-1.205" transform="translate(-48.829 -10.785)" fill="#fff"/>
    <path id="Path_22350" data-name="Path 22350" d="M91.541,15.157a35.734,35.734,0,0,0-11.5,2.705,11.469,11.469,0,0,0-.942,4.617A12.654,12.654,0,0,0,91.6,34.626a13.012,13.012,0,0,0,12.5-12.147,10.384,10.384,0,0,0-1.648-6c-4.088-.706-8.441-1.146-10.91-1.323" transform="translate(-56.102 -10.747)" fill="#fff"/>
    <path id="Path_22351" data-name="Path 22351" d="M92.428,21.834A7.865,7.865,0,0,1,93.781,20.1a3.849,3.849,0,0,1-.177-.786,1.349,1.349,0,0,1,1.353-1.353,1.376,1.376,0,0,1,.5.088,9.89,9.89,0,0,1,8.234-1.793c.265.059.529.147.786.2a11.766,11.766,0,0,0-8.559,2.47,3.849,3.849,0,0,1,.265.824c0,.765-.5.942-1.235.942a1.494,1.494,0,0,1-.5-.088,13.433,13.433,0,0,0-1.441,2.823,10.97,10.97,0,0,0,3.854,2.088c0-.059.059-.147.059-.2a4.259,4.259,0,0,1,4.265-4.117,4.111,4.111,0,0,1,4.066,3.411,9.652,9.652,0,0,0,2.735-2.088,2.385,2.385,0,0,1-.352-1.117,1.243,1.243,0,0,1,1.235-1.235,1.1,1.1,0,0,1,.295.029,10.686,10.686,0,0,0,.853-2.47c-3.559-2.647-10.441-2.265-10.441-2.265a22.059,22.059,0,0,0-9.176,1.53,11.207,11.207,0,0,0,2.029,4.853" transform="translate(-64.077 -10.953)" fill="#373535"/>
    <path id="Path_22352" data-name="Path 22352" d="M145.358,26.5a2.19,2.19,0,0,1,.5.617c.324.59-.324,1.146-1.03,1.146a.5.5,0,0,1-.2-.029,13.1,13.1,0,0,1-3.331,3.523,10.077,10.077,0,0,1,4.941,2.177,14.78,14.78,0,0,0,1.77-6.618,4.738,4.738,0,0,0-1.852-3.824,12.88,12.88,0,0,1-.786,3" transform="translate(-100.008 -16.652)" fill="#373535"/>
    <path id="Path_22353" data-name="Path 22353" d="M99.97,52.593a10.25,10.25,0,0,1,3.559-4.147,7.864,7.864,0,0,1-.647-1.323A10.2,10.2,0,0,1,98.421,44.3c0,.029-.03.088-.03.118a8.63,8.63,0,0,0-.147,3,1.8,1.8,0,0,1,1.471,1.77,2.857,2.857,0,0,1-.824,1.618A8.326,8.326,0,0,0,99.978,52.6" transform="translate(-69.561 -31.329)" fill="#373535"/>
    <path id="Path_22354" data-name="Path 22354" d="M86.4,37.275a13.147,13.147,0,0,1-1.707-3.089c-.088,0-.177.029-.265.029-1,0-2.029-.824-1.793-1.793a1.781,1.781,0,0,1,1.087-1.18,11.941,11.941,0,0,1,.088-3.824c.059-.324.236-.47.324-.786a10.547,10.547,0,0,1-1.793-5.794V20.6A5.13,5.13,0,0,0,79.1,25.276,13.319,13.319,0,0,0,86.4,37.313v-.029" transform="translate(-56.102 -14.601)" fill="#373535"/>
    <path id="Path_22355" data-name="Path 22355" d="M116.831,53.4a4.143,4.143,0,0,1-3.881,2.764,3.944,3.944,0,0,1-2.529-.883A11.766,11.766,0,0,0,107,60.1a8.017,8.017,0,0,0,.853.883,15.469,15.469,0,0,0,3.5,0,12.287,12.287,0,0,0,10.529-5.381,11.089,11.089,0,0,0-5.051-2.206" transform="translate(-75.794 -37.753)" fill="#373535"/>
    <path id="Path_22356" data-name="Path 22356" d="M92.162,23.622a10.675,10.675,0,0,1,1.264-2.088,1.333,1.333,0,0,1-.089-.47,1.349,1.349,0,0,1,1.353-1.353,1.376,1.376,0,0,1,.5.088,9.89,9.89,0,0,1,8.234-1.793c.265.059.529.147.786.2a10.96,10.96,0,0,0-8.258,2.324,1.719,1.719,0,0,1,.118.529,1.349,1.349,0,0,1-1.353,1.353,1.494,1.494,0,0,1-.5-.088,8.879,8.879,0,0,0-1.235,2.265,10.2,10.2,0,0,0,3.9,2.625v-.2a4.119,4.119,0,0,1,8.176-.706,10.557,10.557,0,0,0,2.676-2.442,1.18,1.18,0,0,1-.295-.765,1.243,1.243,0,0,1,1.235-1.235,1.1,1.1,0,0,1,.295.029,10.69,10.69,0,0,0,.853-2.47c-3.559-2.646-10.441-2.265-10.441-2.265a22.059,22.059,0,0,0-9.176,1.53,10.393,10.393,0,0,0,1.966,4.941" transform="translate(-63.932 -12.153)" fill="#1287b1"/>
    <path id="Path_22357" data-name="Path 22357" d="M146.029,28.121a1.205,1.205,0,0,1,.411.912,1.243,1.243,0,0,1-1.235,1.235.5.5,0,0,1-.2-.029,9.732,9.732,0,0,1-3.008,3,9.888,9.888,0,0,1,4.823,2.177,12.511,12.511,0,0,0,1.589-6.1A4.739,4.739,0,0,0,146.56,25.5a9.634,9.634,0,0,1-.529,2.617" transform="translate(-100.501 -18.064)" fill="#1287b1"/>
    <path id="Path_22358" data-name="Path 22358" d="M99.865,54.316a9.792,9.792,0,0,1,3.118-4.353,3.608,3.608,0,0,1-.5-.942A10.2,10.2,0,0,1,98.021,46.2c0,.029-.03.088-.03.118a8.63,8.63,0,0,0-.147,3,1.791,1.791,0,0,1,.883,3.089,9.692,9.692,0,0,0,1.146,1.911" transform="translate(-69.277 -32.671)" fill="#1287b1"/>
    <path id="Path_22359" data-name="Path 22359" d="M86.111,38.658a9.951,9.951,0,0,1-1.823-2.47c-.088,0-.177.029-.265.029a1.783,1.783,0,0,1-1.793-1.793,1.815,1.815,0,0,1,.993-1.62,9.409,9.409,0,0,1,.177-3.382c.059-.324.177-.647.265-.971a9.923,9.923,0,0,1-1.736-5.617V22.6A5.13,5.13,0,0,0,78.7,27.276a12.481,12.481,0,0,0,7.381,11.4c.029,0,.029,0,.029-.03" transform="translate(-55.819 -16.011)" fill="#1287b1"/>
    <path id="Path_22360" data-name="Path 22360" d="M116.916,55.4a4.143,4.143,0,0,1-3.881,2.764,3.944,3.944,0,0,1-2.529-.883,10.193,10.193,0,0,0-3.2,4.383c.295.324.617.617.942.912a12.308,12.308,0,0,0,3.146.411,12.514,12.514,0,0,0,10.5-5.7,10.028,10.028,0,0,0-4.972-1.879" transform="translate(-76.007 -39.165)" fill="#1287b1"/>
    <path id="Path_22361" data-name="Path 22361" d="M110.993,32.387l3.795-.912-3.824-.2,3.118-2.359-3.529,1.264,2.383-3.323-3.323,2.206,1.146-3.881-2.265,3.2-.059-4.058-1.5,3.618L105.7,24.3l.059,4.294-2.147-3.854,1.18,4.088-3.5-2.529,2.735,3.441-4.353-1.589,3.411,2.529-4.383.147,4.5,1.146-4.5.977,4.442.324-3.736,2.383,3.854-1.376-2.676,3.382,3.382-2.735-1.205,4.522,2.617-3.706-.354,4.353,1.471-3.97,1.264,4.147.295-4.176,1.882,3.559L108.818,35.6l3.411,2.646-2.206-3.382,3.765,1.471-2.882-2.823,3.854.295-3.765-1.412Z" transform="translate(-69.936 -17.212)" fill="#fff"/>
    <path id="Path_22362" data-name="Path 22362" d="M2.8,24.616C14.6,12.831,24.006,9.176,32.564,7.522c1.117-.2,1.353-2.705,1.353-2.705s.147,1.823.942,2.059,1.823-2.853,1.823-2.853-.942,2.764,0,2.949,2.705-2.705,2.705-2.705-.706,2.442-.236,2.617S42,3.324,42,3.324s-1.412,2.442-.088,2.705,3.323-1.677,3.323-1.677-1.53,1.736-.853,2c2.949,1.03,5.293-2.764,5.293-2.764a13.209,13.209,0,0,1-1.966,3.5c3.089.786,5.382-3.854,5.382-3.854L50.8,7.882C51.979,8.472,56.711,3,56.711,3A21.75,21.75,0,0,1,52.83,8.148c.786.647,3.647-1.911,3.647-1.911s-2.3,2.859-1.414,3c1.264,1.03,5.942-5.293,5.942-5.293a32.008,32.008,0,0,1-4.5,6.648c2.236,1.146,7.824-6.058,7.824-6.058s-.147,2.293-4.208,5.94c3-.381,6.882-6.1,6.882-6.1a18.887,18.887,0,0,1-4.823,7.3c2.949-.295,7.668-7.588,7.668-7.588a20.448,20.448,0,0,1-5.529,8C68.436,13,74.378,6.854,74.378,6.854A18.235,18.235,0,0,1,69,13c3.411,1.294,8.087-4.088,8.087-4.088s-4.676,7.206-12.118,6.882c-2.442-.118-9.831-7.411-25.645-6.823C18.388,9.734,13.976,18.617,2.8,24.616" transform="translate(-2.242 -2.176)" fill="rgba(55,53,53,0.35)"/>
    <path id="Path_22363" data-name="Path 22363" d="M4.4,21.757C16.2,9.96,25.606,6.317,34.164,4.669c1.117-.2,1.353-2.705,1.353-2.705s.147,1.823.942,2.059,1.823-2.853,1.823-2.853-.942,2.764,0,2.949,2.705-2.713,2.705-2.713-.706,2.442-.236,2.617S43.6.465,43.6.465s-1.412,2.442-.088,2.705,3.323-1.677,3.323-1.677-1.53,1.736-.853,2C48.935,4.524,51.278.729,51.278.729a13.209,13.209,0,0,1-1.966,3.5C52.4,5.015,54.694.375,54.694.375L52.4,5.023C53.575,5.67,58.339.2,58.339.2a21.75,21.75,0,0,1-3.881,5.148c.786.558,3.647-1.966,3.647-1.966S55.81,6.228,56.7,6.376c1.264,1.03,5.942-5.293,5.942-5.293a32.814,32.814,0,0,1-4.522,6.648c2.236,1.117,7.853-6.1,7.853-6.1s-.163,2.3-4.223,5.946c3-.381,6.882-6.1,6.882-6.1A18.887,18.887,0,0,1,63.809,8.78c2.949-.295,7.668-7.588,7.668-7.588a20.448,20.448,0,0,1-5.529,8c4.117.912,10.059-5.236,10.059-5.236A18.234,18.234,0,0,1,70.626,10.1c3.419,1.3,8.1-4.08,8.1-4.08S74.047,13.23,66.6,12.906c-2.442-.118-9.831-7.411-25.645-6.823-20.942.8-25.384,9.65-36.56,15.675" transform="translate(-3.37 -0.2)" fill="#373535"/>
    <path id="Path_22364" data-name="Path 22364" d="M1.8,57.422c6.235,3.118,11.941-.47,19.117,1.559A47.138,47.138,0,0,0,42.065,61.1c9.029-1.294,16.734-5.236,20.449-12.236,1.146-3.118,5.824.706,5.824.706s-3.411-1.412-3.323-.765,5.112,3,5.112,3-4.56-1.412-4.265-.352,5.7,5.352,5.7,5.352-6.205-4.646-6.7-4,2.613,3.211,2.613,3.211-5.177-3.2-7-2.265c-1.323.676,5.382,5.059,5.382,5.059s-4.353-3.323-5.382-2.442,4.916,8,4.916,8-6.764-7.295-7.44-6.941S59.8,61.282,59.8,61.282s-3.293-3.647-4.206-3.03,4.764,10.089,4.764,10.089-6.146-9.676-8.706-8.061c3.97,8.736,2.5,9.971,2.5,9.971s-.5-8.911-5.47-8.677c-2.5.118,1.18,6.648,1.18,6.648s-3.382-5.969-5.647-5.853c4.147,7.882,2.676,11.058,2.676,11.058a11.876,11.876,0,0,0-4.941-10.47C44.1,64.866,40.6,73.425,40.6,73.425s3.059-12.617-2.265-10.2c-.853.381-.059,6.292-.059,6.292S37.214,62.749,35.6,63.1c-.942.2-5.942,9.383-5.942,9.383s4.088-9.912,2.853-9.5c-.912.295-2.617,4.383-2.617,4.383s.824-4.029,0-4.265-5.478,4.261-5.478,4.261,3.441-4.029,2.853-4.882a2.359,2.359,0,0,0-3.2-.824A14.845,14.845,0,0,0,19.8,65.686s2.454-3.378,2.033-4.617c-.676-2.029-7.706,3.911-7.706,3.911s4.147-3.911,3.2-4.764-6.117-.59-7.706-.59C4.888,59.685,3.24,58.569,1.8,57.42" transform="translate(-1.536 -33.688)" fill="rgba(55,53,53,0.35)"/>
    <path id="Path_22365" data-name="Path 22365" d="M.9,55.022c6.235,3.118,11.941-.47,19.117,1.559A47.138,47.138,0,0,0,41.164,58.7c9.029-1.294,16.734-5.236,20.449-12.236,1.146-3.118,5.824.706,5.824.706S64.015,45.752,64.1,46.4s5.112,3,5.112,3-4.56-1.412-4.265-.352,5.7,5.352,5.7,5.352-6.138-4.678-6.638-4.031,2.617,3.2,2.617,3.2-5.177-3.2-7-2.265c-1.323.676,5.382,5.059,5.382,5.059s-4.353-3.323-5.382-2.442,4.916,8,4.916,8-6.738-7.293-7.415-6.939,1.852,3.854,1.852,3.854-3.352-3.618-4.265-3,4.735,10.089,4.735,10.089-6.146-9.705-8.677-8.087c4,8.765,2.5,10,2.5,10s-.5-8.911-5.47-8.677c-2.5.118,1.18,6.648,1.18,6.648s-3.352-5.942-5.617-5.824c4.147,7.882,2.676,11.058,2.676,11.058A11.876,11.876,0,0,0,41.1,60.583c2.147,1.911-1.353,10.47-1.353,10.47s3.059-12.617-2.265-10.2c-.853.381-.059,6.292-.059,6.292s-1.058-6.764-2.676-6.412c-.942.2-5.942,9.383-5.942,9.383s4.088-9.912,2.853-9.5c-.912.295-2.617,4.383-2.617,4.383s.824-4.029,0-4.265-5.47,4.265-5.47,4.265,3.441-4.029,2.853-4.882a2.359,2.359,0,0,0-3.2-.824,14.845,14.845,0,0,0-4.265,4.029S21.4,59.936,20.989,58.7c-.678-2.033-7.7,3.909-7.7,3.909s4.147-3.911,3.2-4.764-6.117-.59-7.706-.59c-4.8.031-6.445-1.083-7.886-2.234" transform="translate(-0.9 -31.994)" fill="#373535"/>
  </g>
</svg>
