<svg xmlns="http://www.w3.org/2000/svg" width="129.079" height="49.872" viewBox="0 0 129.079 49.872">
  <g id="Page-1" transform="translate(-0.042 -0.054)">
    <g id="Ember-Logos" transform="translate(0.042 0.054)">
      <g id="Ember-Logo" transform="translate(0 0)">
        <path id="Fill-7" d="M126.888,34.334s-3.14,2.436-5.9,2.164-1.9-6.448-1.9-6.448.6-5.664-1.032-6.14-3.628,1.476-3.628,1.476a20.4,20.4,0,0,0-3.684,6.288l-.328.108s.38-6.18-.052-7.588c-.324-.7-3.3-.648-3.792.6s-2.872,9.916-3.036,13.548c0,0-4.66,3.956-8.72,4.6s-5.04-1.9-5.04-1.9,11.052-3.088,10.672-11.92-8.912-5.564-9.876-4.84c-.936.7-5.924,3.712-7.38,12.044-.048.28-.136,1.52-.136,1.52a38.324,38.324,0,0,1-6.664,3.628s6.664-11.216-1.46-16.308c-2.285-1.375-4.276-.11-5.461,1.052-.728.714,9.849-10.856,7.409-21.208C75.72.086,73.256-.442,71,.358a10.239,10.239,0,0,0-4.732,3.356,37.855,37.855,0,0,0-5.476,16.04c-1.028,9.588-2.544,21.184-2.544,21.184S56.128,43,54.18,43.106s-1.084-5.8-1.084-5.8,1.516-8.992,1.412-10.512-.22-2.328-2.008-2.868-3.74,1.732-3.74,1.732-5.144,7.8-5.576,8.992l-.276.492-.268-.328s3.628-10.62.164-10.78-5.744,3.792-5.744,3.792-3.956,6.612-4.12,7.368l-.268-.324s1.624-7.692,1.3-9.592a1.739,1.739,0,0,0-2.112-1.516s-2.276-.272-2.872,1.192A107.409,107.409,0,0,0,25.952,39.2s-5.688,4.064-9.428,4.116-3.356-2.368-3.356-2.368,13.708-4.692,9.968-13.956a6.8,6.8,0,0,0-6.392-3.08c-2.764.056-6.192,1.74-8.412,6.724a22.108,22.108,0,0,0-1.668,6.34s-2.4.492-3.7-.592-1.972,0-1.972,0S-1.236,39.234.984,40.1A28.5,28.5,0,0,0,6.672,41.37a10.37,10.37,0,0,0,3.952,6.148c4.064,3.088,11.86-.284,11.86-.284l3.2-1.792s.108,2.932,2.44,3.36,3.3-.008,7.368-9.868c2.384-5.04,2.548-4.768,2.548-4.768.268-.056-1.572,9.588-.868,12.188s3.792,2.332,3.792,2.332,1.68.324,3.036-4.444a69.427,69.427,0,0,1,3.956-10.024c.32,0-.816,9.86.916,13S55.1,48.278,55.1,48.278a31.59,31.59,0,0,0,3.632-2.072,12.765,12.765,0,0,0,8.988,2.6c11.76-2.316,15.944-5.444,15.944-5.444a9.71,9.71,0,0,0,8.28,5.6A13.757,13.757,0,0,0,103,45s-.056,2.924,2.436,3.956S109.6,44.2,109.6,44.2l4.172-11.5c.38,0,.6,7.476,4.716,8.668s9.48-2.792,9.48-2.792a2.815,2.815,0,0,0,1.084-2.884A1.484,1.484,0,0,0,126.888,34.334ZM18.368,28.91c1.46,1.408.92,4.44-1.844,6.336s-4.008,1.52-4.008,1.52C12.68,30.318,16.908,27.5,18.368,28.91ZM72.276,6.642c.92,4.876-8.072,19.4-8.072,19.4.108-3.252,3.3-14.248,3.3-14.248S71.352,1.766,72.276,6.642Zm-8.888,37s-.7-2.384,1.3-9.048,6.72-4.064,6.72-4.064,3.252,2.492.7,9.156S63.388,43.646,63.388,43.646ZM90.8,30.59c2.22-4.064,3.956-1.844,3.956-1.844s1.9,2.06-.272,5.148a6.382,6.382,0,0,1-5.308,2.872S88.584,34.65,90.8,30.59Z" transform="translate(-0.001 -0.054)" fill="#e04e39" fill-rule="evenodd"/>
        <path id="Fill-8" d="M223.707,91.625v-.778h.493c.069,0,.137.007.209.014a.793.793,0,0,1,.2.054.34.34,0,0,1,.144.108.288.288,0,0,1,.057.191c0,.18-.054.3-.162.342a1.067,1.067,0,0,1-.418.068Zm-.587-1.235v2.961h.587V92.086h.368l.72,1.264h.616l-.792-1.293a1.4,1.4,0,0,0,.306-.065.716.716,0,0,0,.245-.14.6.6,0,0,0,.165-.238.849.849,0,0,0,.062-.349.75.75,0,0,0-.3-.677,1.563,1.563,0,0,0-.861-.2Zm-.941,1.484a2.152,2.152,0,0,1,.155-.832,2.025,2.025,0,0,1,.425-.652,1.926,1.926,0,0,1,.631-.432,1.965,1.965,0,0,1,.781-.155,1.955,1.955,0,0,1,1.408.587,2.093,2.093,0,0,1,.428.652,2.153,2.153,0,0,1,.158.832,2.184,2.184,0,0,1-.158.836,2.127,2.127,0,0,1-.428.659,1.9,1.9,0,0,1-.634.436,1.931,1.931,0,0,1-.774.155,1.964,1.964,0,0,1-.781-.155,1.882,1.882,0,0,1-.631-.436,2.058,2.058,0,0,1-.425-.659A2.183,2.183,0,0,1,222.18,91.874Zm-.724,0a2.566,2.566,0,0,0,1.69,2.46,2.971,2.971,0,0,0,2.057,0,2.56,2.56,0,0,0,1.466-1.365,2.823,2.823,0,0,0,0-2.183,2.567,2.567,0,0,0-.6-.832,2.648,2.648,0,0,0-.868-.53,2.917,2.917,0,0,0-2.057,0,2.638,2.638,0,0,0-.868.53,2.567,2.567,0,0,0-.6.832A2.6,2.6,0,0,0,221.456,91.874Z" transform="translate(-110.729 -44.646)" fill="#e04e39" fill-rule="evenodd"/>
      </g>
    </g>
  </g>
</svg>
