<svg xmlns="http://www.w3.org/2000/svg" width="103.874" height="79.866" viewBox="0 0 103.874 79.866">
  <g id="Layer_2" data-name="Layer 2" transform="translate(0.001 0.005)">
    <g id="Layer_1" data-name="Layer 1" transform="translate(-0.001 -0.005)">
      <path id="path3269" d="M20.118,113.079h-1.93V102.987h1.937Zm-1.911-10.092V96.737h1.937v6.257Zm0,10.092H16.251V106.8H3.808v6.284H0V96.73H3.808v6.251h14.38v10.092Zm0-16.343H16.251v6.257h1.97Z" transform="translate(0 -33.214)" fill="#ba160c"/>
      <path id="path3271" d="M51.5,104.784a4.137,4.137,0,0,1,1.97,3.775,4.393,4.393,0,0,1-4.6,4.5H43.3v-3.808h5.6q.827,0,.827-1.241T48.9,106.78H43.3v-3.769h5.318q.827,0,.827-1.241t-.827-1.234H43.3V96.727h5.318a4.406,4.406,0,0,1,3.447,1.4,4.485,4.485,0,0,1,1.142,3.112A4.2,4.2,0,0,1,51.5,104.784Zm-8.2,8.293H33.06V103.011H43.3v3.775H36.868v2.475H43.3v3.808Zm0-12.535H36.868v2.594l-3.808-.092v-6.3H43.3v3.808Z" transform="translate(-11.352 -33.211)" fill="#ba160c"/>
      <path id="path3273" d="M43.9,87.591v-1.74h2.843V84.794q0-.565-.381-.565H43.9v-1.74h2.462a1.93,1.93,0,0,1,1.536.657,2.416,2.416,0,0,1,.591,1.628v5.207H46.743v-2.39Zm23.2,2.39H61.313a2.423,2.423,0,0,1-1.733-.657,2.239,2.239,0,0,1-.716-1.694V84.859a2.239,2.239,0,0,1,.716-1.694,2.423,2.423,0,0,1,1.733-.657H67.1v1.747H61.313q-.7,0-.7.657v2.751q0,.657.7.657H67.1Zm18.385,0h-1.76V87.1H79.251v2.882H77.479V82.489h1.747v2.863H83.7V82.489h1.76Zm18.385-5.745H97.636v1.123h5.831V87.1H97.636v1.136h6.225v1.74h-8V82.489h7.984v1.747ZM43.9,82.489v1.747H41.418q-.361,0-.361.565v1.051H43.9V87.6H41.057v2.383H39.31V84.794a2.416,2.416,0,0,1,.591-1.628,1.911,1.911,0,0,1,1.517-.657H43.9ZM24.241,87.538V85.792H26.8q.381,0,.381-.768t-.381-.788H24.241V82.489H26.8a1.865,1.865,0,0,1,1.569.8,2.777,2.777,0,0,1,.552,1.733,2.718,2.718,0,0,1-.552,1.74,1.865,1.865,0,0,1-1.569.8ZM9.192,89.981H7.432v-2.39H4.6v-1.74H7.439V84.794q0-.565-.381-.565H4.6v-1.74H7.058a1.93,1.93,0,0,1,1.536.657,2.416,2.416,0,0,1,.6,1.648Zm15.049-7.492v1.747H21.306v1.556h2.935v1.747H21.306v2.443H19.56V82.489ZM4.6,87.591H1.746v2.39H0V84.794a2.416,2.416,0,0,1,.591-1.628,1.911,1.911,0,0,1,1.517-.657H4.6v1.747H2.107q-.361,0-.361.565v1.051H4.6Z" transform="translate(0.001 -28.323)" fill="#666"/>
      <path id="path3275" d="M86.529,113.082H82.721v-5.207h-6.2v-3.808h6.2v-2.285q0-1.234-.827-1.234H76.523V96.739h5.41a4.209,4.209,0,0,1,3.322,1.484,5.253,5.253,0,0,1,1.313,3.552Zm-10.007-5.207h-6.2v5.207H66.51v-11.3a5.253,5.253,0,0,1,1.313-3.552,4.176,4.176,0,0,1,3.316-1.49h5.41v3.808H71.112q-.794,0-.794,1.234v2.285h6.2Z" transform="translate(-22.839 -33.216)" fill="#ba160c"/>
      <path id="path3277" d="M119.01,108.033a5.253,5.253,0,0,1-1.241,3.526,4.281,4.281,0,0,1-3.362,1.523H100.317v-3.808h14.091q.794,0,.794-1.241t-.794-1.234h-10.25a4.281,4.281,0,0,1-3.362-1.523,5.062,5.062,0,0,1-1.267-3.493,5.253,5.253,0,0,1,1.313-3.552,4.222,4.222,0,0,1,3.336-1.49h14.045v3.808H104.158q-.794,0-.794,1.234t.794,1.208h10.25a4.281,4.281,0,0,1,3.362,1.523A5.253,5.253,0,0,1,119.01,108.033Z" transform="translate(-34.177 -33.216)" fill="#ba160c"/>
      <path id="polygon3279" d="M131.61,113.079V96.73h17.426v3.808H135.418v2.449h12.725V106.8H135.418v2.475H149v3.808Z" transform="translate(-45.195 -33.214)" fill="#ba160c"/>
      <path id="path18940" d="M94.349,34.352a1.668,1.668,0,0,1-.243-.44,1.97,1.97,0,0,0-1.136-.985,4.485,4.485,0,0,1-.932-.532c-.519-.4-.952-.473-2.462-.427-1.655.053-2.246-.184-2.7-1.07l-.223-.44-.138.486c-.269.952-.584,1.2-1.418,1.11a1.385,1.385,0,0,0-1.2.328c-.21.184-.256.2-.46.105s-.236-.092-.433.131a.88.88,0,0,1-.6.3c-.486.085-.657.3-.827.9-.269,1.123-.827.84-1.313-.657-.571-1.681-.1-2.9,1.825-4.747a5.186,5.186,0,0,0,1.576-2.049c.131-.44.151-.46.315-.341a26.021,26.021,0,0,1,2.41,2.429c.8.926,1,1.083,1.116.86S86.923,28.252,85.8,27.1a14.788,14.788,0,0,0-9.488-4.754,8.326,8.326,0,0,0-4.1.6,10.446,10.446,0,0,0-2.548,1.116A31.865,31.865,0,0,0,65.4,27.208c-1.681,1.425-1.681,1.425-3.867,1.385H59.2a6.5,6.5,0,0,0-2.515.768,10.505,10.505,0,0,0-2.436,2.626,10.171,10.171,0,0,1-2.777,2.889c-.847.552-1.169.9-1.267,1.353a.86.86,0,0,0,.223.873,9.422,9.422,0,0,0,2.594.814,3.808,3.808,0,0,1,.709.2A9.668,9.668,0,0,1,51.7,40.162a31.274,31.274,0,0,1-6.468,3.828,17.249,17.249,0,0,0-3.618,2.121,21.268,21.268,0,0,1-1.773,1.182c-1.911,1.123-3.94,1.248-4.6.282a1.641,1.641,0,0,0-.368-.407,2.469,2.469,0,0,1-.959-1.97,10.506,10.506,0,0,0-.158-1.5,14.36,14.36,0,0,1-.105-5.167,38.825,38.825,0,0,1,4.307-11.241,69.363,69.363,0,0,1,6.658-9.659c2.259-2.928,2.278-2.961,2.3-4.012,0-.236-.085-1.694-.2-3.244-.361-4.833-.2-6.763.729-8.536A3.859,3.859,0,0,1,49.825,0c.44-.033.532.158.657,1.385a18.68,18.68,0,0,0,.978,4.97A6.284,6.284,0,0,0,53,9.263c.9.88,1.313.965,3.6.657,8-1,13.789-.387,18.536,1.97,4.406,2.18,8.831,6.435,12.738,12.232l.742,1.1.8.269a8.155,8.155,0,0,1,4.412,3.125,9.547,9.547,0,0,1,1.221,3.861c.079,1.28,0,1.865-.348,1.97a.322.322,0,0,1-.315-.138Zm-.7-2.5a7.6,7.6,0,0,0-.381-1.169,6.139,6.139,0,0,0-3.132-3.467,8.435,8.435,0,0,0-3.677-1.077c-.171.059-.171.092,0,.453a8.452,8.452,0,0,0,.847,1.2,8.464,8.464,0,0,1,.847,1.188c.158.335.164.42.039.657a.756.756,0,0,1-.88.348c-.19-.039-.355-.053-.368,0a.985.985,0,0,0,.144.374c.348.657.834.781,2.508.722,2.449-.1,3.007.053,3.716.978.151.2.361.079.335-.2ZM39.563,46.689a18.446,18.446,0,0,0,1.582-1.037,30.2,30.2,0,0,1,4.373-2.574,36.619,36.619,0,0,0,5.174-3.027c.762-.565,1.418-1.175,1.379-1.313a2.7,2.7,0,0,0-.7-.21,9.593,9.593,0,0,1-1.622-.6,5.778,5.778,0,0,0-1.031-.427,4.183,4.183,0,0,0-1.156,1.313c-1.458,2.081-2.042,2.626-4.911,4.3a8.083,8.083,0,0,0-2.475,1.9,5.7,5.7,0,0,1-1.563,1.5,6.565,6.565,0,0,1-1.221.6c-.886.3-.893.611,0,.473a7.348,7.348,0,0,0,2.18-.886Zm42.1-14.445a1.76,1.76,0,0,1,.374-.466l.309-.282h.86a4.449,4.449,0,0,0,2.626-.794l.374-.532c.131-.184.289-.309.387-.309h.164s-2.154-2.416-2.324-2.548l-.2-.158-.309.479c-.171.263-.794,1.044-1.379,1.74-1.5,1.779-1.9,2.561-1.563,3.079.1.151.177.177.368.112a.552.552,0,0,0,.309-.263ZM44.376,39.466a1.55,1.55,0,0,0,.341-.479c.158-.709-1.241-.171-1.425.552-.046.19,0,.23.125.309a1.024,1.024,0,0,0,.952-.381Zm2.042-2.751a15.661,15.661,0,0,0,1.845-1.445,3.651,3.651,0,0,0,.906-2.029,3.624,3.624,0,0,1,.309-1.011,1.129,1.129,0,0,0,.177-.552c-.223-.657-2.587-.19-3.887.768-1.576,1.162-2.626,3.539-2.232,4.918.256.847.729.729,2.863-.7ZM80.272,22.323a4.76,4.76,0,0,0-1.4-.952,8.792,8.792,0,0,0-3.69-.722c-1.024-.039-1.464-.118-1.523-.289a.656.656,0,0,1,.085-.3c.315-.657,2.791-.821,4.734-.355a14.576,14.576,0,0,1,2.475.86c.611.276.7.3.657.131a5.167,5.167,0,0,0-1.5-1.385,10.952,10.952,0,0,0-6.894-1.694A9.514,9.514,0,0,0,68.289,19.2a12.948,12.948,0,0,0-3.368,4.1,32.344,32.344,0,0,1-2.338,3.854,1.845,1.845,0,0,0-.407.657,1.582,1.582,0,0,0,.624.066h.565l1.057-1A24.787,24.787,0,0,1,70.173,22.6a12.7,12.7,0,0,1,8.858-.453c.978.276,1.313.322,1.241.184Zm-20.5,14.925a17.249,17.249,0,0,1-8.142-.223c-.571-.164-.755-.256-.84-.44-.21-.453.125-.873,1.2-1.51a8.415,8.415,0,0,0,2.679-2.738c1.589-2.167,2.3-2.784,3.684-3.165a12.373,12.373,0,0,1,3.427-.217c3.513,0,7.269.039,7.577.118.7.171.164,1.865-1.07,3.368a13.552,13.552,0,0,1-3.789,3.073,28.431,28.431,0,0,1-4.721,1.733ZM35.636,30.78a4.419,4.419,0,0,1-.328-.926,8.726,8.726,0,0,1,.742-6.1,4.511,4.511,0,0,1,1.313-1.55c.276-.092.552.138,1.037.886a4.38,4.38,0,0,0,.729.9c.144.1.256.2.243.217l-.657.991a40.253,40.253,0,0,0-2.508,4.6c-.407.913-.512,1.077-.6.965Z" transform="translate(-11.493 0.005)" fill="#050505"/>
    </g>
  </g>
</svg>
