<svg xmlns="http://www.w3.org/2000/svg" width="77.4" height="69.448" viewBox="0 0 77.4 69.448">
  <g id="hive" transform="translate(-0.034 -0.037)">
    <g id="Hive_Logo" transform="translate(0.034 0.037)">
      <g id="Layer_12" transform="translate(45.826 53.938)">
        <g id="Group_2467" data-name="Group 2467">
          <path id="Path_14349" data-name="Path 14349" d="M113,133.2a.192.192,0,0,1,.2-.2h3.367c.122,0,.162.041.162.162V138.4a.108.108,0,0,0,.122.122h.406a.181.181,0,0,0,.162-.122v-5.233a.149.149,0,0,1,.162-.162h3.367a.186.186,0,0,1,.2.162v14.6c0,.081-.041.2-.162.2h-3.408c-.081,0-.162-.122-.162-.2v-5.233c0-.081-.041-.162-.122-.162h-.446c-.081,0-.122.081-.122.162v5.233c0,.081-.081.2-.162.2h-3.286a.271.271,0,0,1-.243-.284V133.2Z" transform="translate(-113 -133)" stroke="#fcee21" stroke-width="1"/>
          <path id="Path_14350" data-name="Path 14350" d="M135.443,148.069a.271.271,0,0,1-.243-.284V133.3c0-.081.081-.2.162-.2h3.408a.227.227,0,0,1,.243.2v14.523a.234.234,0,0,1-.243.243h-3.326Z" transform="translate(-126.194 -133.059)" stroke="#fcee21" stroke-width="1"/>
          <path id="Path_14351" data-name="Path 14351" d="M150.549,139.55a.283.283,0,0,0,.081.162c.041,0,.081-.041.081-.162l.852-6.207c.041-.122.122-.243.243-.243h3.448a.179.179,0,0,1,.162.243l-2.758,14.482a.262.262,0,0,1-.243.243h-3.894c-.122,0-.2-.122-.243-.243L145.6,133.3c0-.081,0-.2.122-.2h3.57c.122,0,.2.041.243.2Z" transform="translate(-132.375 -133.059)" stroke="#fcee21" stroke-width="1"/>
          <path id="Path_14352" data-name="Path 14352" d="M170.9,133.343a.262.262,0,0,1,.243-.243h7.1a.192.192,0,0,1,.2.2v3.61a.192.192,0,0,1-.2.2h-3.326a.108.108,0,0,0-.122.122v1.136a.13.13,0,0,0,.122.122H176.5a.108.108,0,0,1,.122.122v3.651a.174.174,0,0,1-.162.162h-1.623c-.081,0-.122.041-.122.162v1.176a.108.108,0,0,0,.122.122h3.448a.192.192,0,0,1,.2.2v3.732a.192.192,0,0,1-.2.2h-7.14a.227.227,0,0,1-.2-.243V133.343Z" transform="translate(-147.412 -133.059)" stroke="#fcee21" stroke-width="1"/>
        </g>
      </g>
      <g id="bee" transform="translate(18.717 22.638)">
        <g id="Layer_49" transform="translate(17.025 36.794)">
          <path id="Path_14353" data-name="Path 14353" d="M94.534,152.813,106.5,148.8s-11.845,1.42-13.225-.69c0,0-2.921-4.057-1.582.892C89.666,142.631,83.5,154.314,94.534,152.813Z" transform="translate(-88.141 -146.542)" stroke="#ffef00" stroke-width="1"/>
        </g>
        <g id="Layer_10" transform="translate(11.519 11.827)">
          <path id="Path_14354" data-name="Path 14354" d="M100.624,92.99s-3.61,2.921-6.409,3.651c-2.758.73-11.075,2.393-11.845,4.138-.811,1.744-1.217,2.759,1.1,6.815,2.312,4.016,1.988,6.815,3.732,7.464,1.744.69-3.164,1.5-3.2,1.5s-9.29-6.531-9.411-7.91S75.148,93.314,77.3,92.3s8.884-7.18,12.941-7.3c4.016-.122,10.385,7.992,10.385,7.992" transform="translate(-74.567 -84.997)"/>
        </g>
        <g id="Layer_6" transform="translate(12.709 23.187)">
          <path id="Path_14355" data-name="Path 14355" d="M82.9,114.014a17.44,17.44,0,0,0,3.2,5.558,4.892,4.892,0,0,0,4.016,1.785,3.9,3.9,0,0,1-1.7.243c-.811-.162-3.042-.649-3.894-1.582-.811-.933-3.083-3.692-3.083-3.692l-1.379,3.854s3.2,2.556,5.111,3.124c2.15.649,3.773.811,4.422.365a3.35,3.35,0,0,1-1.339.649,8.176,8.176,0,0,1-2.637,0c-.974-.122-4.219-.568-4.219-.568l4.178,2.921a7.7,7.7,0,0,0,3.529.811,9.438,9.438,0,0,1-2.191.446c-.649,0-5.8-.73-5.8-.73l-3.61-6.775L80.421,113Z" transform="translate(-77.5 -113)"/>
        </g>
        <g id="Layer_5" transform="translate(0 6.312)">
          <path id="Path_14356" data-name="Path 14356" d="M62,71.4c-1.136,0-10.344.811-12.941,4.422-1.866,2.556-4.543,7.708-1.542,17.971,3.326,11.318,17.809,15.415,20.324,14.279s.243-2.718-.041-3.367c-.243-.608-3.489-4.909-4.178-6.693-.73-1.744,1.379-7.91,2.312-8.154.974-.243,2.475-.365,3.286.527s2.921,1.825,3.164-1.825a39.033,39.033,0,0,1,1.623-7.91Z" transform="translate(-46.172 -71.4)" fill="#fcee21" stroke="#000" stroke-width="1"/>
        </g>
        <g id="Layer_22" transform="translate(0.133 8.867)">
          <path id="Path_14357" data-name="Path 14357" d="M50.475,78.674A14.663,14.663,0,0,0,46.5,88.693a31.906,31.906,0,0,0,3,12.819c.811,2.109,8.113,8.925,14.076,9.9,5.111,1.176,5.192-.487,5.192-.487-.446.122-2.758,1.136-7.18-.568-4.462-1.7-8.843-5.76-10.223-9.7a46.893,46.893,0,0,1-2.15-13.509c.041-3.286,2.84-9.452,2.84-9.452Z" transform="translate(-46.5 -77.7)" fill="#fcf69f"/>
        </g>
        <g id="Layer_8" transform="translate(0.133 3.647)">
          <path id="Path_14358" data-name="Path 14358" d="M67.8,68.793c0,1.785,5.679,14.847,8.681,17.241s7.586,1.582,8.559,1.217-3.773-7.586-4.219-8.438c-.446-.933-4.787-12.292-4.422-13.346s-2.88-.527-4.057-.325C71.208,65.3,67.8,68.793,67.8,68.793Z" transform="translate(-59.159 -64.83)" stroke="#000" stroke-width="1"/>
          <path id="Path_14359" data-name="Path 14359" d="M73,144.3s-5.192.73-8.722-.122A34.628,34.628,0,0,1,57.3,141.5s4.422,4.5,6,5.233,9.574.852,10.791-.771C75.352,144.3,73,144.3,73,144.3Z" transform="translate(-52.919 -110.398)"/>
          <path id="Path_14360" data-name="Path 14360" d="M64.674,124.142a27.978,27.978,0,0,1-9.087-1.582,25.423,25.423,0,0,1-7.748-3.854L46.5,112.5s5.233,5.111,9.087,6.45c3.813,1.339,8.276,2.393,8.276,2.393" transform="translate(-46.5 -93.162)"/>
          <path id="Path_14361" data-name="Path 14361" d="M47.3,86.722a20.75,20.75,0,0,0,7.1,8.4,31.682,31.682,0,0,0,10.344,4.057l.487-1.42s-.933-.081-7.992-4.99c-7.018-4.909-6.409-12.008-6.653-11.967-.933.162-2.393,3.286-2.393,3.286Z" transform="translate(-46.975 -74.321)"/>
        </g>
        <g id="Layer_4" transform="translate(16.331)">
          <path id="Path_14362" data-name="Path 14362" d="M110.068,62.923c-.852-4.259-5.558-6.288-8.8-6.9s-12.535.243-13.833,3c-1.258,2.8-1.1,7.87-.771,9.858s3.57,2.88,4.706,3.448c1.176.527,2.677-1.1,4.016.365,1.3,1.46,6.491,4.665,7.545,4.625,1.1,0,3.732-2.677,3.732-2.677Z" transform="translate(-86.43 -55.841)" fill="#fcee21" stroke="#000" stroke-width="1"/>
        </g>
      </g>
      <g id="other_ear" transform="translate(0 0)">
        <g id="Layer_20" transform="translate(39.295 5.284)">
          <path id="Path_14363" data-name="Path 14363" d="M113.167,32.063l1.947-6.085.69-2.069a61.294,61.294,0,0,0-5.192-8.073c-2.15-2.515-3.854-2.353-3.854-2.353a6.691,6.691,0,0,0-5.476.325A11.937,11.937,0,0,0,96.9,16.891l1.339.365,5.071,10.953,4.787,5.558,5.6,1.258" transform="translate(-96.9 -13.063)" fill="#fcee21"/>
        </g>
        <g id="Layer_21" transform="translate(45.988 5.38)">
          <path id="Path_14364" data-name="Path 14364" d="M119.1,13.665a40.694,40.694,0,0,1,4.584,4.746c1.339,1.866,3.529,3.245,2.88,7.951s-.122,6.166-.122,6.166l2.15-8.884a27.864,27.864,0,0,0-3.935-6.45c-2.8-3.529-4.5-3.894-4.5-3.894Z" transform="translate(-116.788 -13.3)" fill="#fcf69f"/>
          <path id="Path_14365" data-name="Path 14365" d="M117.132,19.272a5.634,5.634,0,0,0-1.623-1.988c-.811-.446-1.582-.162-2.109-.284a3.744,3.744,0,0,1,1.947.933c.527.69,1.623,2.88,2.15,3.813s.608.243,1.339,2.272c.73,2.069,2.231,4.1,2.191,4.868l-.811-4.1Z" transform="translate(-113.4 -15.499)" fill="#fcf69f"/>
        </g>
        <g id="Layer_19" transform="translate(38.524 4.765)">
          <path id="Path_14366" data-name="Path 14366" d="M136.5,69.706l1.46-4.178a7.474,7.474,0,0,0-.852-2.312c-.406-.446,1.785,1.825,1.785,1.825Z" transform="translate(-119.665 -42.317)"/>
          <path id="Path_14367" data-name="Path 14367" d="M112.606,34.872a50.1,50.1,0,0,1,.568-5.923c.406-1.42,2.069-5.517,2.069-5.517s-4.057-10.3-9.127-11.318-7.14.487-8.6,1.988A6.09,6.09,0,0,1,95,15.887l4.706,12.454s4.909,1.217,7.221,2.069l-2.312-1.785a60.424,60.424,0,0,1-4.341-5.476C99.219,21.4,96.46,17.1,96.46,17.1l-.243-.811s2.677-2.759,3.448-2.961,2.191-1.379,4.787-.365c2.6.974.974-.243.974-.243a4.232,4.232,0,0,1,2.231.933c.608.69,6.693,6.45,6.288,10.142-.243,2.272-2.353,6.531-2.191,7.5A31.474,31.474,0,0,0,112.606,34.872Z" transform="translate(-95 -11.783)"/>
          <path id="Path_14368" data-name="Path 14368" d="M124.8,25.2a24.119,24.119,0,0,1,1.136,5.436s-1.258-5.03-2.393-6.288A10.012,10.012,0,0,1,121.8,21.1s1.014.933,1.42,1.42A31.03,31.03,0,0,1,124.8,25.2Z" transform="translate(-110.928 -17.321)"/>
        </g>
        <g id="Layer_9">
          <g id="Group_2468" data-name="Group 2468">
            <path id="Path_14369" data-name="Path 14369" d="M50.176,26.583,38.087,28.165,27.9,31.248,18.9,34.494l-6.977-.852L9.894,28.368l-5.558-5.76A26.118,26.118,0,0,1,2.592,16c-.162-2.759,3.2-6.207,3.2-6.207L10.178,9.5l3.286-2.028L17.845,2l3.854.284,2.272.122,11.6,5.476,7.992,4.949,3.326,2.393Z" transform="translate(-1.551 -1.204)" fill="#fcee21"/>
            <path id="Path_14370" data-name="Path 14370" d="M51.5,31s3.773,1.136,5.192,1.542c1.42.446,8.6,1.825,8.6,1.825s4.625.284,6.207,2.8a64.564,64.564,0,0,1,3.813,8.762s-2.8-4.787-6.856-6.207A21.768,21.768,0,0,0,60.83,38.5a10.486,10.486,0,0,1,2.393-.892l1.46-.365-.122-1.217a49.482,49.482,0,0,1-4.909-1.46C57.909,33.8,51.5,31,51.5,31Z" transform="translate(-30.622 -18.439)" fill="#fcf69f"/>
            <path id="Path_14371" data-name="Path 14371" d="M35.12,6.564s.041-.406,2.272.041a48.65,48.65,0,0,1,5.639,1.7s2.475.73,5.923,1.907S56.7,12.933,56.7,12.933s3.489,1.42,4.665,2.637C62.584,16.787,69.2,26.441,69.2,26.441c-1.542-8.519-5.152-12.9-5.152-12.9S47.655,4.17,43.315,3.156s-5.8-.527-5.8-.527-2.393,1.7-2.637,2.677C34.593,6.239,35.12,6.564,35.12,6.564Z" transform="translate(-20.692 -1.508)" fill="#fcf69f"/>
            <path id="Path_14372" data-name="Path 14372" d="M48.659,25.416s-1.7-8.641-2.515-11.8a24.521,24.521,0,0,0-4.706-3.732s-5.72-2.759-6.328-3.408-5.274-2.515-6.044-3.164A39.261,39.261,0,0,0,22.088.833,26.445,26.445,0,0,0,16.652.062c-.771.162-1.825,1.663-2.515,2.191-.69.568-4.016,4.584-5.071,4.99a8.4,8.4,0,0,1-3.813.365c-.325-.243-1.785-.2-2.88,1.542s-2.556,5.03-2.312,7.1c.243,2.109,1.582,4.3,3.57,6.491,2.028,2.231,3.164,2.718,4.625,5.679a29.372,29.372,0,0,1,1.866,4.665,30.576,30.576,0,0,0,7.3.243,42.855,42.855,0,0,0,9.411-3c1.663-.892,7.951-2.434,9.006-3.042,0,0-6.856,1.5-9.046,2.231s-7.3,3.083-9.655,3.083c-3.245-.041-6.45-.243-6.45-.243s-1.217-4.422-2.475-6-5.314-4.868-6.085-7.3-1.176-4.422-.2-6.612A9.4,9.4,0,0,1,4.482,8.987a22.359,22.359,0,0,1,3.083.081,30.121,30.121,0,0,1,5.03,1.055c1.5.487,6.9,3.083,6.9,3.083L13.61,9.879l-3.894-1.5a13.68,13.68,0,0,0,3.326-2.961c1.582-1.947,1.7-2.637,2.759-3.326a4.136,4.136,0,0,1,2.88-.811A22.876,22.876,0,0,1,23.832,2.5a52.668,52.668,0,0,1,6.531,2.677c1.542.892,2.921,1.46,4.462,2.353,1.542.852,5.071,2.6,6.693,3.773a12.637,12.637,0,0,1,3.529,3.326C46.063,16.086,48.659,25.416,48.659,25.416Z" transform="translate(-0.034 -0.037)"/>
            <path id="Path_14373" data-name="Path 14373" d="M86.693,47.219s-2.312-5.639-2.84-6.653A4.048,4.048,0,0,0,81.216,38.9c-.73-.2-8.316-.2-8.316-.2l6.369.933a8.066,8.066,0,0,1,1.663.325,6.982,6.982,0,0,1,1.623.974,7.107,7.107,0,0,0-1.339-.2c-.527,0-1.5.69-1.825.771a5.237,5.237,0,0,0-1.176.568,6.557,6.557,0,0,1,2.718-.081c.974.365,1.663.041,2.393.69a16.864,16.864,0,0,1,1.379,1.5Z" transform="translate(-43.341 -23.016)"/>
          </g>
        </g>
      </g>
    </g>
    <g id="Layer_13" transform="translate(39.491 27.445)">
      <g id="Layer_17" transform="translate(0.112 0.892)">
        <path id="Path_14374" data-name="Path 14374" d="M100.061,89.272,97.708,85.58a5.985,5.985,0,0,1,1.1-4.909l1.785-2.028L106.47,71.1,113,69.8l2.677.041,3.164,8.4,2.718-.2,2.6-.446.69,1.176-2.718,10.06-4.746,4.1-5.517.243-3.326-1.825L105.9,93.369l-2.556.243-1.42-1.258Z" transform="translate(-97.577 -69.8)" fill="#fcee21"/>
      </g>
      <g id="Layer_15" transform="translate(5.192 0.443)">
        <path id="Path_14375" data-name="Path 14375" d="M114.25,100.717s6.815,6.328,11.237,3.408a15.155,15.155,0,0,0,5.8-7.3s1.5-4.584,1.379-5.517,1.217.365,1.217.365l-2.758,10.1s-4.057,4.1-6.653,4.3-7.221-2.109-7.221-2.109l-2.8,2.231-2.353.041,1.339-2.109Z" transform="translate(-111.289 -81.931)" fill="#c0c43d"/>
        <path id="Path_14376" data-name="Path 14376" d="M110.1,111.842a7.438,7.438,0,0,1,1.5-.852c.608-.2,1.988-.568,1.988-.568l-2.231-.122Z" transform="translate(-110.1 -93.421)" fill="#c0c43d"/>
        <path id="Path_14377" data-name="Path 14377" d="M149.5,91.574c.081-.2,1.46.446,2.353.162a6.282,6.282,0,0,0,1.5-.73,2.378,2.378,0,0,1,.974-.406c.2,0,.649.041.406.2s-1.825,1.258-1.825,1.258l-1.785.243Z" transform="translate(-133.517 -81.712)" fill="#c0c43d"/>
        <path id="Path_14378" data-name="Path 14378" d="M113.7,76.47a10.553,10.553,0,0,1,1.339-1.907c.487-.406,2.718-1.663,2.718-1.663L115,73.549a23.962,23.962,0,0,0-1.176,2.191C113.741,76.145,113.7,76.47,113.7,76.47Z" transform="translate(-112.24 -71.193)" fill="#c0c43d"/>
        <path id="Path_14379" data-name="Path 14379" d="M138.633,68.695s-.243-.081-.162.527.406,1.379-.041,1.7c-.446.284-.73.446-.73.446a3.39,3.39,0,0,1,1.907.487,3.691,3.691,0,0,1,1.258,1.947c.122.649.284,1.947-.2,2.475s1.1,1.907,1.1,1.907l.974-.527-.811-4.138Z" transform="translate(-126.504 -68.691)" fill="#c0c43d"/>
        <path id="Path_14380" data-name="Path 14380" d="M140.212,86.562a.84.84,0,0,0,.2.568,1.356,1.356,0,0,0-.243.527,1.429,1.429,0,0,0,.122.811s0,.162.649.365,1.3.649.811.974.284.73.284.73l.933-.974-.284-1.42-1.1-1.258-1.339-.487" transform="translate(-127.962 -79.216)" fill="#c0c43d"/>
        <path id="Path_14381" data-name="Path 14381" d="M120.362,83.6l-.162.325a1.467,1.467,0,0,1,.284,1.1,5.329,5.329,0,0,1-.081.892l.974.2s-2.231.284-3.245.487a9.194,9.194,0,0,0-2.677,1.258l-.243.162a.886.886,0,0,1,.284-.649,3.447,3.447,0,0,1,.608-.608l.284-.2s-.406.081-.568-.771-.122-.892-.122-.892a7.508,7.508,0,0,1-.811-.243,9.325,9.325,0,0,1,1.785-.527l3.692-.527" transform="translate(-112.939 -77.552)" fill="#c0c43d"/>
      </g>
      <g id="Layer_14">
        <path id="Path_14382" data-name="Path 14382" d="M144.645,76.849a6.632,6.632,0,0,1,.041-1.542c.122-.811-1.055-3.2-1.5-3.894s-1.744-3.529-1.744-3.529L141.4,67.6" transform="translate(-123.51 -67.6)" fill="none" stroke="#000" stroke-width="3"/>
        <path id="Path_14383" data-name="Path 14383" d="M132.2,95.628a5.442,5.442,0,0,0,1.339-1.379,1.356,1.356,0,0,1,1.136-.649,5.249,5.249,0,0,1,1.42.162c.365.122.69.081.852.365s-.649.284-.649.284a2.937,2.937,0,0,0-1.136-.284,2.075,2.075,0,0,0-1.46.325C133.376,94.776,132.2,95.628,132.2,95.628Z" transform="translate(-118.042 -83.053)"/>
        <path id="Path_14384" data-name="Path 14384" d="M138.819,95.792s-1.623-.568-2.191.162a12.324,12.324,0,0,0-1.136,1.7,9.188,9.188,0,0,1-.892,1.217s1.3-1.3,1.542-1.623a3.551,3.551,0,0,1,.771-.811,1.817,1.817,0,0,1,1.176-.284,2.027,2.027,0,0,1,.649.162Z" transform="translate(-119.469 -84.23)"/>
        <path id="Path_14385" data-name="Path 14385" d="M114.216,95.058a17.477,17.477,0,0,0,1.7-2.475c.243-.649.933-2.475,1.014-2.921a3.041,3.041,0,0,1,.771-1.42c.365-.284.446-.081,1.014-.162a7.2,7.2,0,0,0,1.744-.446c.284-.122,1.258-.73,1.46-.852a4.448,4.448,0,0,1,1.258-.487,2.864,2.864,0,0,1,1.3.568,5.089,5.089,0,0,1,.892,1.42c.122.325-1.014,9.33-4.178,12.454-3.326,3.286-4.219,3.408-7.221,3.245A11.163,11.163,0,0,1,108.7,102.2c-.771-.325-.487-.325-.487-.325a9.23,9.23,0,0,1-.974,1.136,4.555,4.555,0,0,1-3.042,1.258c-.892-.122-2.353-.122-3.2-1.42a16.944,16.944,0,0,1-1.5-3.2L99,98.385a6.61,6.61,0,0,1-.974-1.42,8.01,8.01,0,0,1-.73-1.988,14.351,14.351,0,0,0,1.258,1.866c.568.649,1.582,1.623,1.582,1.623l1.1,2.434a3.146,3.146,0,0,0,1.866,2.109,3.4,3.4,0,0,0,2.88-.2,12.583,12.583,0,0,0,1.744-1.582l-.649-.649-.73,1.014a1.545,1.545,0,0,1-1.379.649,3.2,3.2,0,0,1-1.744-.73l-.325-.243a3.085,3.085,0,0,0,1.785,1.42,2.9,2.9,0,0,1-1.947-.649,1.189,1.189,0,0,1-.2-1.258,5.411,5.411,0,0,1,.892-1.46,7.838,7.838,0,0,0,.69-.852,16.28,16.28,0,0,0,.568-1.542c.041-.122.081-.081.081-.081a7.619,7.619,0,0,0,1.42,1.785c.69.568,2.515,2.191,3.2,2.6s6.085,3.732,10.142-.608a17.6,17.6,0,0,0,4.543-9.371,5.921,5.921,0,0,0,.325-2.231c-.162-.771-.284-1.136-.974-1.379s-.892.325-1.623.649a4.622,4.622,0,0,1-2.191.446c-.771-.081-1.339-.081-1.542.325a30.433,30.433,0,0,1-1.3,3.367c-.325.406-.69.933-.892,1.136C115.555,93.76,114.216,95.058,114.216,95.058Z" transform="translate(-97.3 -78.71)"/>
        <path id="Path_14386" data-name="Path 14386" d="M151.885,92.744a3.314,3.314,0,0,0,2.15-1.014,5.576,5.576,0,0,0,.608-.73,8.174,8.174,0,0,1-2.231,1.055,3.113,3.113,0,0,1-2.921-.284,2.537,2.537,0,0,0,1.379.974A3.152,3.152,0,0,0,151.885,92.744Z" transform="translate(-128.316 -81.508)"/>
        <path id="Path_14387" data-name="Path 14387" d="M111.5,110.282a6.316,6.316,0,0,1,2.109-.2,19.269,19.269,0,0,0-2.231-.284c-.365.041-1.176,1.663-1.176,1.663Z" transform="translate(-104.967 -92.676)"/>
        <path id="Path_14388" data-name="Path 14388" d="M119.952,84.355a1.5,1.5,0,0,1-.122.933,3.066,3.066,0,0,1,.69.081c.284.081.892.325.892.325a19.955,19.955,0,0,0-2.84-.041,12.631,12.631,0,0,0-1.542.365c-.284.081-1.258.527-1.258.527a7.665,7.665,0,0,1,.771-.568c.122-.041.122-.122.122-.122a7.217,7.217,0,0,1-.284-.69,2.321,2.321,0,0,1,.081-1.1,3.734,3.734,0,0,1-.69.081c-.284.041-.974.041-.974.041a12.659,12.659,0,0,0,1.339-.608,6.3,6.3,0,0,1,1.339-.608,4.847,4.847,0,0,1,1.542-.041,14.376,14.376,0,0,0,1.623.243,3.3,3.3,0,0,1-.771.162.781.781,0,0,0-.406.081A4.24,4.24,0,0,1,119.952,84.355Z" transform="translate(-107.701 -76.688)"/>
        <path id="Path_14389" data-name="Path 14389" d="M140.249,87.655a2.279,2.279,0,0,0-.081.811H139.6a2.831,2.831,0,0,1,.69.243,8.959,8.959,0,0,0,.974.406,8.563,8.563,0,0,1,.974.446l.811-1.1-.162-.649a1.9,1.9,0,0,0-.446-.771,3.509,3.509,0,0,0-1.055-.325c-.2,0-.446.122-.649.081s-.852-.2-.852-.2l.771.406A6.406,6.406,0,0,0,140.249,87.655Z" transform="translate(-122.441 -78.892)"/>
        <path id="Path_14390" data-name="Path 14390" d="M141.1,90.124a1.261,1.261,0,0,1,.446-.041,2.761,2.761,0,0,1,.487.122.989.989,0,0,0,.162-.527.523.523,0,0,0-.284-.446.775.775,0,0,0-.527,0,1.772,1.772,0,0,0-.284.325Z" transform="translate(-123.332 -80.429)" fill="#fff"/>
        <path id="Path_14391" data-name="Path 14391" d="M140.9,75.3a2.671,2.671,0,0,1,.811.122,2.875,2.875,0,0,1,.608.406l.2.365a3.377,3.377,0,0,0-.852-.568C141.427,75.543,140.9,75.3,140.9,75.3Z" transform="translate(-123.213 -72.176)"/>
        <path id="Path_14392" data-name="Path 14392" d="M118.935,72.732a7.074,7.074,0,0,0-2.475.608A7.183,7.183,0,0,0,115,74.68s.284-1.542,1.014-1.825A10.86,10.86,0,0,1,118.935,72.732Z" transform="translate(-107.82 -70.623)"/>
      </g>
      <g id="Layer_16" transform="translate(8.803 7.87)">
        <path id="Path_14393" data-name="Path 14393" d="M119.406,87.081c.284-.122.852-.162,1.014.284s0,.487,0,.487a1.93,1.93,0,0,0-.527.081,1.661,1.661,0,0,0-.527.284l-.081.041L119,87.446A.862.862,0,0,1,119.406,87.081Z" transform="translate(-119 -86.999)" fill="#fff"/>
      </g>
    </g>
  </g>
</svg>
