<svg xmlns="http://www.w3.org/2000/svg" xmlns:xlink="http://www.w3.org/1999/xlink" width="106.431" height="85.96" viewBox="0 0 106.431 85.96">
  <defs>
    <linearGradient id="linear-gradient" x1="-171.466" y1="-168.179" x2="-170.869" y2="-168.563" gradientUnits="objectBoundingBox">
      <stop offset="0" stop-color="#909ca9"/>
      <stop offset="1" stop-color="#ededee"/>
    </linearGradient>
    <linearGradient id="linear-gradient-2" x1="-316.123" y1="-508.178" x2="-315.239" y2="-508.178" gradientUnits="objectBoundingBox">
      <stop offset="0" stop-color="#939fab"/>
      <stop offset="1" stop-color="#dcdee1"/>
    </linearGradient>
    <radialGradient id="radial-gradient" cx="0.442" cy="0.435" r="0.073" gradientTransform="matrix(-0.69, -0.149, 0.208, -1.978, -11.809, -267.769)" gradientUnits="objectBoundingBox">
      <stop offset="0" stop-color="#ee352c"/>
      <stop offset="1" stop-color="#a91d22"/>
    </radialGradient>
  </defs>
  <g id="ms-sql" transform="translate(0.042 0.004)">
    <g id="Group_2464" data-name="Group 2464" transform="translate(38.278 -0.003)">
      <path id="Path_14297" data-name="Path 14297" d="M-89.931,136.844l-11.752,3.831-10.226,4.522-2.852.749c-.72.691-1.5,1.383-2.333,2.1-.893.778-1.757,1.5-2.391,2.016a19.627,19.627,0,0,0-2.333,2.3,10.656,10.656,0,0,0-1.728,2.909,4.886,4.886,0,0,0,.691,4.407,15.371,15.371,0,0,0,6.423,4.81,41.75,41.75,0,0,0,5.646,1.9,75.779,75.779,0,0,0,12.04,1.728,12.7,12.7,0,0,0,1.555,0c.058-.058.576-1.008,1.152-2.189A56.481,56.481,0,0,0-91.861,154.9a51.125,51.125,0,0,0,1.066-7.633c.058-.864.086-3.745.029-4.724a39.023,39.023,0,0,0-.432-4.177.935.935,0,0,1-.029-.374,16.28,16.28,0,0,1,1.584-.49l-.288-.663Zm-2.679,1.584a26.311,26.311,0,0,1,.461,4.465,3.329,3.329,0,0,1,0,.6c-.058,0-1.5-.835-2.535-1.5-.893-.547-2.564-1.671-2.852-1.9-.086-.058-.086-.058.663-.317C-95.634,139.379-92.7,138.429-92.61,138.429Zm-5.991,1.959a3.024,3.024,0,0,1,.778.4,55.181,55.181,0,0,0,5.386,3c.317.144.374.086-.4.6a38.966,38.966,0,0,1-6.107,3.284c-.432.2-.807.346-.807.346a1.336,1.336,0,0,1,.115-.49,26.4,26.4,0,0,0,.951-6.251c0-.864,0-.864.086-.893Zm-1.239.49a16.523,16.523,0,0,1-.058,2.592,24.275,24.275,0,0,1-.807,3.86,4.06,4.06,0,0,1-.2.634,13.317,13.317,0,0,1-1.642-1.613,12.692,12.692,0,0,1-1.642-2.391,7.3,7.3,0,0,1-.49-1.21c.115-.115,4.81-1.9,4.839-1.872Zm-5.819,2.276h0c.058.029.115.173.173.317a12.751,12.751,0,0,0,1.469,2.65,15.3,15.3,0,0,0,2.045,2.218c.2.173.4.346.432.374.058.058.058.058-1.383.6-1.671.634-3.514,1.267-5.617,1.959-.49.173-1.008.317-1.5.49-.086.029-.058-.029.173-.374a49.209,49.209,0,0,0,3.514-7.086c.144-.4.288-.778.317-.864a.322.322,0,0,1,.2-.23,1.131,1.131,0,0,1,.173-.058Zm-1.757.749a19.322,19.322,0,0,1-.864,1.843c-.864,1.671-1.815,3.341-3.053,5.329-.2.346-.4.663-.432.691-.058.058-.058.058-.2-.23a9.233,9.233,0,0,1-.691-2.074,7.479,7.479,0,0,1,.058-2.65c.115-.547.115-.547.374-.662,1.095-.576,4.753-2.3,4.81-2.247Zm15.324.6v.374a47.465,47.465,0,0,1-.518,6.683,3.469,3.469,0,0,1-.115.634,3.976,3.976,0,0,1-.547-.173,21.888,21.888,0,0,1-4.09-1.757A18.447,18.447,0,0,1-99.437,149s.374-.2.807-.432a51.614,51.614,0,0,0,4.868-2.852c.547-.374,1.354-.951,1.527-1.123l.144-.086Zm-22.035,2.65c.029,0,.029.058-.029.4a8.946,8.946,0,0,0-.086.951,6.771,6.771,0,0,0,.778,3.572c.173.374.317.663.317.663-.058.058-5.934,1.786-7.806,2.276-.547.144-1.037.288-1.066.288-.058.029-.058,0-.058-.144a9.442,9.442,0,0,1,2.592-4.465,12.042,12.042,0,0,1,2.909-2.247c.922-.49,2.333-1.267,2.448-1.3Zm13.855,2.477s.23.115.49.259a26.913,26.913,0,0,0,6.8,2.65l.2.058-.288.173a93.933,93.933,0,0,1-9.045,3.745c-.576.2-1.152.432-1.267.461a.5.5,0,0,1-.2.058s.173-.317.374-.691a43.039,43.039,0,0,0,2.794-6.366c.086-.2.144-.346.144-.346Zm-1.411.461a3.847,3.847,0,0,1-.144.4,58.7,58.7,0,0,1-3.082,6.222c-.317.576-.6,1.066-.6,1.066s-.288-.173-.6-.346a18.263,18.263,0,0,1-4.638-3.946l-.173-.2.807-.23a57.524,57.524,0,0,0,7.806-2.679C-101.971,150.21-101.683,150.095-101.683,150.095Zm8.785,3.053h0c0,.2-.432,2.045-.807,3.37-.317,1.123-.576,1.988-1.066,3.514-.2.662-.4,1.239-.4,1.239a.287.287,0,0,1-.115-.029,37.276,37.276,0,0,1-7.23-2.045c-.634-.259-1.5-.662-1.555-.691a8.363,8.363,0,0,1,1.181-.547c4.033-1.757,8.238-3.773,9.678-4.638a.855.855,0,0,1,.317-.173Zm-20.278.691c.029.029-1.123,1.642-2.679,3.86-.547.778-1.181,1.671-1.44,2.016-.23.346-.6.864-.807,1.181l-.374.576-.4-.346a15.166,15.166,0,0,1-1.642-1.7,7.5,7.5,0,0,1-1.5-2.88c-.086-.432-.086-.634,0-.662.144-.029,2.506-.6,4.724-1.123,1.239-.288,2.679-.634,3.168-.749a7.227,7.227,0,0,0,.951-.173Zm1.152.432.288.317a16.163,16.163,0,0,0,4.177,3.4,2.658,2.658,0,0,1,.49.317c-.058.058-5.5,1.959-8.008,2.852-1.411.49-2.564.893-2.592.893l-.173-.115-.173-.115.259-.374c.835-1.21,1.872-2.535,4.177-5.3l1.555-1.872Zm7.086,5.07.893.317a25.47,25.47,0,0,0,3.284,1.008,38.572,38.572,0,0,0,4.983.864c.2.029.288.029.259.058-.058.029-1.383.461-2.333.778-1.527.49-6.193,1.843-10,2.938-.691.2-1.3.374-1.354.374a.654.654,0,0,1-.374-.086,5.216,5.216,0,0,1,.461-.6,51.328,51.328,0,0,0,3.6-4.839c.317-.432.576-.778.576-.807Zm-1.584.058s-.634,1.008-1.728,2.765c-.461.749-1.008,1.584-1.181,1.872s-.432.72-.6.979l-.259.461-.144-.029c-.317-.086-2.564-.893-3.168-1.123-.749-.288-1.5-.663-2.074-.951a6.649,6.649,0,0,1-1.527-.979c.029,0,1.239-.346,2.708-.749,3.889-1.066,6.049-1.671,7.46-2.1.288-.086.518-.144.518-.144Zm11.09,2.592h0c.058.086-1.383,4.09-1.93,5.358-.115.288-.173.346-.23.346-.144,0-2.247-.288-3.514-.49-2.218-.346-5.934-.979-6.855-1.21l-.2-.058,1.325-.288c2.852-.634,4.205-.979,5.588-1.411a43.5,43.5,0,0,0,5.242-2.016,2.827,2.827,0,0,1,.576-.23Z" transform="translate(123.796 -109.451)" fill="url(#linear-gradient)"/>
      <path id="Path_14298" data-name="Path 14298" d="M-93.386,82.732c-.2-.029-3.341,1.123-5.386,1.93a34.647,34.647,0,0,0-6.193,3.111,4.733,4.733,0,0,0-1.21,1.21,1.024,1.024,0,0,0-.058.288l1.181,1.123,2.823.893,6.74,1.21,7.72,1.325.086-.662h-.058l-1.008-.173-.2-.374c-1.037-1.843-2.218-4.148-2.88-5.674a34.779,34.779,0,0,1-1.3-3.572c-.144-.576-.144-.634-.259-.634Zm-.144.461h0a1.951,1.951,0,0,1,.086.547,18.428,18.428,0,0,0,.864,3.745c.317.979.317.922-.058.807-.893-.259-4.954-.951-7.921-1.354a4.579,4.579,0,0,1-.864-.144c-.029-.029,2.132-1.152,3.082-1.613,1.239-.547,4.58-1.959,4.81-1.988Zm-8.555,3.975.346.115a52.452,52.452,0,0,0,9.217,1.757c.288.029.547.058.547.058a5.216,5.216,0,0,1-.547.288c-1.267.634-2.65,1.411-3.6,1.988a4.761,4.761,0,0,1-.576.317c-.029,0-.23-.029-.4-.058l-.346-.058-.893-.864c-1.555-1.527-2.794-2.679-3.255-3.14Zm-.346.288,1.239,1.555c.691.864,1.383,1.7,1.527,1.9.144.173.288.346.259.346-.029.029-1.815-.317-2.765-.547a17.785,17.785,0,0,1-1.959-.518l-.49-.173V89.9c0-.6.778-1.5,2.045-2.391l.144-.058ZM-91.8,89.588c.029,0,.086.086.173.317.288.663,1.239,2.448,1.469,2.794.058.115.2.115-1.066-.086-3.024-.49-3.975-.662-3.975-.662s.086-.058.2-.144a18.918,18.918,0,0,0,2.708-1.872c.2-.173.4-.317.432-.346.029,0,.058-.029.058,0Z" transform="translate(115.123 -82.732)" fill="url(#linear-gradient-2)"/>
      <path id="Path_14299" data-name="Path 14299" d="M-110.5,94.852a.858.858,0,0,0,0,.778,3.433,3.433,0,0,0,.835.979s3.946,3.86,4.436,4.407a12.347,12.347,0,0,1,3.226,8.44,13.639,13.639,0,0,1-1.411,6.395q-2.765,6.049-11.752,13.423l.893-.288a26.307,26.307,0,0,1,3.168-1.872,110.111,110.111,0,0,1,14.661-6.567,180.509,180.509,0,0,1,29.784-7.979l.807-.115-.115-.2c-.72-1.095-1.21-1.786-1.786-2.506a21.238,21.238,0,0,0-6.308-5.242,46.242,46.242,0,0,0-13.682-4.58c-1.066-.2-3.428-.634-5.358-.922-4.061-.634-6.711-1.066-9.592-1.555-1.037-.173-2.592-.432-3.629-.663a19.838,19.838,0,0,1-2.362-.634c-.691-.317-1.613-.547-1.815-1.3Zm2.3,2.218s.144.058.346.115c.346.115.778.259,1.3.4.4.115.778.2,1.181.317l.979.259c.058.058.951,2.938,1.267,4.033.115.432.2.778.2.778a2.975,2.975,0,0,1-.23-.346,18.345,18.345,0,0,0-4.58-5.185,3.762,3.762,0,0,1-.461-.374Zm4.349,1.21a3.429,3.429,0,0,1,.49.086c1.5.346,4.234.864,5.963,1.152a2.3,2.3,0,0,1,.518.115c0,.029-.115.086-.23.144-.288.144-1.469.864-1.872,1.123a17.711,17.711,0,0,0-2.506,2.016c-.259.259-.49.461-.49.461a1.658,1.658,0,0,1-.086-.346,28.494,28.494,0,0,0-1.584-4.349l-.2-.4Zm7.691,1.469a3.264,3.264,0,0,1,.317.979,14.882,14.882,0,0,1,.432,4.061c-.029.374-.029.72-.058.778l-.029.086-.461-.144c-.951-.288-2.506-.749-3.831-1.123-.749-.2-1.383-.4-1.383-.4a19.7,19.7,0,0,1,1.584-1.584c.922-.807,3.37-2.679,3.428-2.65Zm.634.086c.029-.029,3.687.6,5.329.922,1.239.23,3.024.6,3.14.662.058.029-.144.115-.72.4a40.011,40.011,0,0,0-5.818,3.168c-.461.288-.835.547-.835.547s-.029-.259-.029-.576a12.713,12.713,0,0,0-.951-4.839C-95.492,99.979-95.55,99.835-95.521,99.835Zm9.448,1.843a6.022,6.022,0,0,1-.2,1.181,21.715,21.715,0,0,1-2.247,5.127,3.313,3.313,0,0,1-.374.6,3.408,3.408,0,0,1-.547-.288,26.2,26.2,0,0,0-3.485-1.7c-.346-.144-.663-.288-.663-.288a47.544,47.544,0,0,1,4.321-2.852c1.21-.72,3.14-1.815,3.2-1.786Zm.663.115c.086,0,1.7.432,2.535.691a53.19,53.19,0,0,1,6.049,2.218l.663.288-.461.115a69.4,69.4,0,0,0-10.254,3.168,3.812,3.812,0,0,1-.518.2,1.487,1.487,0,0,1,.173-.461,18.586,18.586,0,0,0,1.728-5.9c.029-.173.058-.317.086-.317Zm-16.1,3.687a15.982,15.982,0,0,1,1.93.461c1.008.288,3.168,1.008,3.168,1.066,0,0-.23.2-.518.461-1.152.979-2.276,1.988-3.629,3.284-.4.374-.749.691-.749.691-.029,0-.029-.058-.029-.115a19.961,19.961,0,0,0-.115-5.358C-101.483,105.712-101.512,105.51-101.512,105.481Zm25.953.029a13.055,13.055,0,0,1-.951,1.469c-.547.778-1.325,1.786-3.082,4-.922,1.181-1.988,2.506-2.333,2.938s-.663.807-.663.807-.115-.173-.259-.346a18.838,18.838,0,0,0-3.6-3.975c-.259-.23-.547-.461-.662-.547a1.346,1.346,0,0,1-.173-.144c0-.029,1.5-.662,2.65-1.123,2.016-.807,4.753-1.786,6.8-2.42,1.123-.346,2.276-.663,2.276-.663Zm.691.2a1.894,1.894,0,0,1,.518.259,29.917,29.917,0,0,1,5.934,4.465c.461.461,1.642,1.671,1.613,1.671,0,0-.4.029-.893.058a86.535,86.535,0,0,0-13.135,2.189c-.317.058-.576.144-.6.144a7.955,7.955,0,0,1,.778-.778,22.158,22.158,0,0,0,5.386-7.172,5.417,5.417,0,0,1,.4-.835Zm-19.789,2.016c.115.029,1.267.576,2.16,1.008.807.4,1.988,1.037,2.074,1.095,0,0-.432.23-.951.49-1.671.835-3.111,1.613-4.58,2.535-.432.259-.778.461-.778.461-.029,0-.029-.029.2-.461a18.825,18.825,0,0,0,1.815-4.9c0-.144.029-.23.058-.23Zm-1.152.2c.029.029-.288,1.123-.461,1.728a22.073,22.073,0,0,1-1.584,3.6c-.144.259-.346.6-.461.807l-.23.346-.49-.49a6.869,6.869,0,0,0-1.642-1.21,1.667,1.667,0,0,1-.432-.259c0-.058,1.527-1.44,2.679-2.448.835-.691,2.592-2.1,2.621-2.074Zm7.057,2.909.432.288a30.01,30.01,0,0,1,3.053,2.276,20.479,20.479,0,0,1,1.671,1.5l.115.115-.72.2c-4.061,1.123-7.2,2.132-10.888,3.485-.4.144-.749.288-.778.288-.058,0-.086.058.807-.807a39.222,39.222,0,0,0,5.963-6.855l.346-.49Zm-1.843.461c.029.029-1.21,1.728-1.93,2.708-.864,1.152-2.42,3.082-3.485,4.349-.432.518-.835.951-.835.979-.029,0-.029-.115-.029-.317a7.761,7.761,0,0,0-.749-3.2c-.2-.4-.23-.518-.2-.547.173-.144,2.765-1.613,4.378-2.506,1.095-.6,2.823-1.469,2.852-1.469Zm-11.234,2.765c.029,0,.23.115.461.23a10.116,10.116,0,0,1,1.527,1.037c.029.029-.2.2-.518.432-.835.6-2.132,1.584-2.88,2.16-.778.634-.807.634-.72.518a15.329,15.329,0,0,0,1.181-2.045,16.5,16.5,0,0,0,.749-1.843,1.4,1.4,0,0,1,.2-.49Zm3,2.333c.058,0,.086.058.346.432a6.408,6.408,0,0,1,1.008,2.592l.029.173-1.21.461c-2.189.835-4.177,1.671-5.53,2.3-.374.173-1.037.49-1.5.72a4.373,4.373,0,0,1-.778.374s.288-.2.6-.461a35.709,35.709,0,0,0,6.683-6.164,2.364,2.364,0,0,1,.346-.432Zm-1.383.346a19.985,19.985,0,0,1-1.671,1.872,29.8,29.8,0,0,1-5.53,4.465c-.259.173-.518.317-.547.346-.058.029.029-.058.951-1.066a22.152,22.152,0,0,0,1.527-1.815,3.114,3.114,0,0,1,.893-.835C-103.269,118.76-100.245,116.715-100.216,116.744Z" transform="translate(119.534 -88.716)" fill="url(#radial-gradient)"/>
    </g>
    <path id="Path_14300" data-name="Path 14300" d="M19.115,120.248h-.506a7.241,7.241,0,0,0-6.834,4.455,11.738,11.738,0,0,0,0,8.5c1.164,2.531,3.088,3.847,6.227,4.354.658.1,1.114.456,2.43,1.974L22,141.408h2.886l-1.924-1.924a18.2,18.2,0,0,1-1.924-2.076c0-.1.4-.253.911-.4a6.51,6.51,0,0,0,3.9-3.645,7.612,7.612,0,0,0,.962-3.949c.3-5.619-2.683-9.163-7.695-9.163Zm2.531,14.934a6.771,6.771,0,0,1-4.759.3,6.013,6.013,0,0,1-3.29-3.544,10.236,10.236,0,0,1,.2-6.53c1.215-2.329,2.835-3.442,5.214-3.442,3.493,0,5.518,2.177,5.771,6.176.152,3.442-.962,5.973-3.139,7.037ZM71.56,125.158a3.182,3.182,0,0,0-2.784,1.468l-.506.759v-1.974H66.194v11.947H68.27v-3.8c0-3.493.051-3.9.506-4.86a2.621,2.621,0,0,1,2.936-1.671l.759.2v-2.076Zm-12.352-.1a5.406,5.406,0,0,0-1.266.152,6.019,6.019,0,0,0-4.3,6.176c0,2.329.456,3.493,1.569,4.708,2.278,1.873,4.354,2.025,7.138,1.012.456-.2,1.012-.456,1.012-.456v-1.873l-1.012.506c-2.278.962-3.949.962-5.315-.152a5.141,5.141,0,0,1-1.417-3.139h8.454v-1.62c0-3.341-1.974-5.417-4.86-5.315Zm-3.392,5.214a4.837,4.837,0,0,1,1.468-2.835,3.146,3.146,0,0,1,1.822-.607,2.889,2.889,0,0,1,1.772.607c1.063.81,1.215,2.835,1.215,2.835ZM5.244,128.094c-2.278-1.367-3.29-2.379-3.139-3.544.354-3.24,4.354-2.784,6.581-1.569V120.8a9.174,9.174,0,0,0-2.987-.557c-2.683-.051-4.455.861-5.265,2.632-1.215,2.632-.152,4.657,3.7,6.885,2.177,1.266,3.088,2.329,3.088,3.544,0,2.43-2.936,3.29-6.024,1.772-.607-.3-1.164-.557-1.164-.557A20.832,20.832,0,0,0-.021,136.9a12.464,12.464,0,0,0,2.329.658c3.493.709,6.632-.962,6.935-3.594.3-2.531-.557-3.8-4-5.872Zm84.844-3.088a6.185,6.185,0,0,0-1.316.152,5.923,5.923,0,0,0-4.252,6.176c0,2.329.456,3.442,1.569,4.657,2.278,1.873,4.354,2.025,7.138,1.012.456-.2,1.012-.456,1.012-.456v-1.873l-1.012.506c-2.278.962-3.949.962-5.315-.2a5.141,5.141,0,0,1-1.417-3.139h8.454v-1.62c0-3.189-1.974-5.265-4.86-5.214ZM86.7,130.221a5.055,5.055,0,0,1,1.468-2.886,3.146,3.146,0,0,1,1.822-.607,2.889,2.889,0,0,1,1.772.607c1.063.81,1.215,2.835,1.215,2.835l-6.277.051Zm-38.423-2.076c-2.278-1.367-3.29-2.379-3.139-3.544.354-3.24,4.354-2.784,6.581-1.569v-2.177a9.174,9.174,0,0,0-2.987-.557c-2.683-.051-4.455.861-5.265,2.632-1.215,2.632-.1,4.657,3.7,6.885,2.177,1.266,3.088,2.329,3.088,3.493,0,2.43-2.936,3.341-6.024,1.772-.607-.3-1.164-.557-1.164-.557a20.834,20.834,0,0,0-.051,2.379,16.763,16.763,0,0,0,2.329.658c3.493.709,6.682-.962,6.935-3.594.3-2.481-.607-3.8-4-5.822Zm54.167-3.037a3.182,3.182,0,0,0-2.784,1.468l-.506.759v-1.974H97.074v11.947H99.15v-3.8c0-3.493.051-3.9.506-4.86a2.621,2.621,0,0,1,2.936-1.671l.759.2v-2.076Zm-70.872,2.987V120.5H29.442v16.807h8.91v-1.974H31.568v-7.239Zm48.9,2.329-1.721,4.556-1.671-4.556-1.721-5.062H73.18c1.417,4,2.936,8,4.455,11.947H79.66l2.329-5.923,2.379-6.024H82.292c.051,0-.861,2.379-1.822,5.062ZM36.428,115.894a1.217,1.217,0,0,0,.861-2.076,1.277,1.277,0,0,0-.861-.3,1.217,1.217,0,0,0-.861,2.076,1.375,1.375,0,0,0,.861.3Zm-.709-1.924a1.1,1.1,0,1,1-.3.759A.955.955,0,0,1,35.719,113.971Zm.506.861h.152c.1,0,.2.1.253.253l.152.354h.253l-.2-.4c-.1-.152-.152-.253-.253-.3.1-.051.2-.051.3-.152a.387.387,0,0,0,.1-.253.72.72,0,0,0-.1-.3c-.1-.1-.253-.1-.456-.1h-.456v1.519h.2l.051-.607Zm0-.709h.2a1.79,1.79,0,0,1,.3.051c.051.051.051.1.051.2,0,.152-.1.253-.3.253h-.253v-.506Zm-34.93.557a7.174,7.174,0,0,0-.051-1.164h0a5.254,5.254,0,0,0,.152.607l2.025,4.556h.354L5.8,114.122a2.687,2.687,0,0,0,.152-.557h0A10.2,10.2,0,0,0,5.9,114.73v4h.709v-5.974H5.75l-1.873,4.151a5.788,5.788,0,0,1-.3.709h.051c-.051-.152-.152-.4-.253-.709l-1.822-4.2H.587v5.974h.658l.051-4Zm6.885,0h.607v3.7H8.18Zm.3-1.367a.543.543,0,0,0,.3-.1.438.438,0,0,0,.152-.3.361.361,0,0,0-.152-.3.372.372,0,0,0-.3-.1.543.543,0,0,0-.3.1.438.438,0,0,0-.152.3.306.306,0,0,0,.152.3.72.72,0,0,0,.3.1Zm4.607,5.164v-.658a1.589,1.589,0,0,1-1.063.354,1.307,1.307,0,0,1-1.063-.456,1.708,1.708,0,0,1-.4-1.164,1.847,1.847,0,0,1,.4-1.215,1.308,1.308,0,0,1,1.063-.456,1.825,1.825,0,0,1,1.012.3v-.709a2.054,2.054,0,0,0-.962-.2,2.065,2.065,0,0,0-1.62.658,2.339,2.339,0,0,0-.607,1.671,2.022,2.022,0,0,0,.557,1.519,1.947,1.947,0,0,0,1.468.607,1.888,1.888,0,0,0,1.215-.253Zm1.671-1.974a1.985,1.985,0,0,1,.3-1.164.821.821,0,0,1,.709-.354.672.672,0,0,1,.506.152v-.709a.987.987,0,0,0-.4-.051,1.066,1.066,0,0,0-.658.253,1.44,1.44,0,0,0-.456.709h0v-.861H14.1v4.252h.658V116.5Zm3.949,2.278a1.91,1.91,0,0,0,1.519-.607,2.185,2.185,0,0,0,.557-1.62,2.306,2.306,0,0,0-.506-1.62,1.873,1.873,0,0,0-1.468-.607,2.151,2.151,0,0,0-1.519.557,2.3,2.3,0,0,0-.607,1.721,2.066,2.066,0,0,0,.557,1.569,1.891,1.891,0,0,0,1.468.607Zm-.962-3.493a1.413,1.413,0,0,1,1.012-.4,1.331,1.331,0,0,1,1.012.4,2.26,2.26,0,0,1,0,2.43,1.353,1.353,0,0,1-2.025,0,1.754,1.754,0,0,1-.4-1.215,1.614,1.614,0,0,1,.4-1.215Zm6.024,3.088a1.159,1.159,0,0,0,.4-.861,1.03,1.03,0,0,0-.3-.759,2.271,2.271,0,0,0-.81-.456,6.626,6.626,0,0,1-.658-.354.619.619,0,0,1-.152-.456.46.46,0,0,1,.2-.4.909.909,0,0,1,.557-.152,1.667,1.667,0,0,1,.962.3v-.658a1.734,1.734,0,0,0-.911-.2A1.426,1.426,0,0,0,22,114.73a1.007,1.007,0,0,0-.4.861,1.243,1.243,0,0,0,.253.759,2.475,2.475,0,0,0,.759.456,3.807,3.807,0,0,1,.709.4.575.575,0,0,1,.152.4c0,.4-.253.607-.81.607a1.881,1.881,0,0,1-1.114-.4v.709a1.845,1.845,0,0,0,1.063.253,1.619,1.619,0,0,0,1.164-.4Zm3.24-4.05a2.066,2.066,0,0,0-1.519.557,2.3,2.3,0,0,0-.607,1.721,2.066,2.066,0,0,0,.557,1.569,1.983,1.983,0,0,0,1.519.607,1.91,1.91,0,0,0,1.519-.607,2.185,2.185,0,0,0,.557-1.62,2.576,2.576,0,0,0-.506-1.62,1.82,1.82,0,0,0-1.519-.607Zm1.316,2.227a1.829,1.829,0,0,1-.354,1.215,1.353,1.353,0,0,1-2.025,0,1.754,1.754,0,0,1-.4-1.215,1.894,1.894,0,0,1,.4-1.266,1.468,1.468,0,0,1,2.025,0,1.887,1.887,0,0,1,.354,1.266Zm1.873,2.126h.658v-3.7h1.012v-.557H30.859v-.658c0-.607.253-.911.709-.911a1.478,1.478,0,0,1,.456.1v-.607a1.411,1.411,0,0,0-.506-.051,1.22,1.22,0,0,0-.911.354,1.345,1.345,0,0,0-.456,1.114v.709h-.709v.557h.709l.051,3.645Zm2.784-1.164c0,.81.354,1.266,1.114,1.266a1.4,1.4,0,0,0,.658-.152v-.607a.619.619,0,0,1-.456.152.533.533,0,0,1-.506-.2.879.879,0,0,1-.152-.607v-2.379h1.063v-.557H33.644v-1.266a4.7,4.7,0,0,1-.658.2v1.012h-.709v.557h.709v2.582Zm73.049,7.8a1.277,1.277,0,0,0-.861-.3,1.217,1.217,0,0,0-.861,2.076,1.277,1.277,0,0,0,.861.3,1.217,1.217,0,0,0,.861-2.076Zm-.1,1.62a1.1,1.1,0,1,1,.3-.759A.869.869,0,0,1,105.933,126.93Zm-.607-.709.3-.152a.387.387,0,0,0,.1-.253.72.72,0,0,0-.1-.3c-.1-.1-.253-.1-.456-.1h-.456v1.519h.2v-.607h.152c.1,0,.2.1.253.253l.152.354h.253l-.2-.4a.465.465,0,0,0-.2-.3Zm-.152-.1h-.253v-.506h.2c.152,0,.253,0,.3.051s.051.1.051.2c0,.152-.1.253-.3.253Zm-37.967-11.9h.2V112.7h.506v-.2H66.7v.2h.506v1.519Zm1.164-1.114v-.354a.222.222,0,0,0,.051.152l.607,1.316h.1l.607-1.316c0-.051.051-.1.051-.152v1.468h.2V112.5h-.253l-.506,1.164c0,.051-.051.1-.1.2h0c0-.051-.051-.1-.1-.2l-.506-1.215H68.27v1.721h.2l-.1-1.063Z" transform="translate(0 -55.452)" fill="#231f1f"/>
  </g>
</svg>
