<svg xmlns="http://www.w3.org/2000/svg" width="93.559" height="56.172" viewBox="0 0 93.559 56.172">
  <g id="Page-1" transform="translate(-0.203 -0.287)">
    <g id="Black-Next.js" transform="translate(0.203 0.287)">
      <g id="next-black" transform="translate(0 0)">
        <g id="EXT-_-Type-something" data-name="EXT-+-Type-something" transform="translate(0 0)">
          <path id="EXT" d="M48.942,14.937H66.588v1.4H50.56V26.838H65.632v1.4H50.56V39.768H66.772v1.4H48.942Zm19.227,0h1.875l8.308,11.534,8.492-11.534L98.4.287l-18.976,27.4L89.2,41.164H87.249L78.352,28.9,69.419,41.164H67.507l9.852-13.48Zm21.727,1.4v-1.4H110v1.4h-9.264V41.164H99.123V16.333Z" transform="translate(-26.866 -0.287)"/>
          <path id="Type-something" d="M.2,32.632H2.225L30.106,74.154l-11.522-15.3L1.894,34.616,1.82,58.858H.2Z" transform="translate(-0.203 -17.982)"/>
        </g>
        <path id="_.JS" data-name=".JS" d="M182.7,79.444a.584.584,0,1,0-.578-.584A.568.568,0,0,0,182.7,79.444Zm1.589-1.537a1.582,1.582,0,0,0,1.731,1.607,1.625,1.625,0,0,0,1.755-1.792v-4h-.881v4c0,.631-.319.968-.881.968a.789.789,0,0,1-.857-.78Zm4.639-.051c.063,1.012.909,1.658,2.168,1.658,1.345,0,2.187-.678,2.187-1.76,0-.851-.48-1.321-1.645-1.592l-.625-.153c-.74-.172-1.039-.4-1.039-.808,0-.51.464-.843,1.161-.843a1.084,1.084,0,0,1,1.2.847h.857a1.85,1.85,0,0,0-2.045-1.623c-1.24,0-2.066.67-2.066,1.678,0,.831.468,1.325,1.5,1.564l.732.176c.751.176,1.082.435,1.082.866,0,.5-.519.866-1.227.866-.759,0-1.286-.341-1.361-.878Z" transform="translate(-99.722 -40.384)"/>
      </g>
    </g>
  </g>
</svg>
