<svg xmlns="http://www.w3.org/2000/svg" width="118.731" height="49.835" viewBox="0 0 118.731 49.835">
  <g id="g7616" transform="translate(0 -0.001)">
    <g id="g7584" transform="translate(0.855 0.001)">
      <g id="g7562" transform="translate(0 2.366)">
        <path id="path7556" d="M10.357,32.065v3.971h.126a8.827,8.827,0,0,1,3.593-3.685,10.631,10.631,0,0,1,5.043-1.17,8.586,8.586,0,0,1,6.4,2.269q2.238,2.269,2.237,7.375V65.978h-8.7V42.592a5.8,5.8,0,0,0-.882-3.685,3.527,3.527,0,0,0-2.837-1.04q-4.6,0-4.6,5.61v22.5h-8.7V32.065Z" transform="translate(-2.037 -20.466)" fill="#728e9b"/>
        <rect id="rect7558" width="8.699" height="7.438" transform="translate(31.563)" fill="#728e9b"/>
        <rect id="rect7560" width="8.699" height="33.913" transform="translate(31.563 11.599)" fill="#728e9b"/>
      </g>
      <g id="g7582" transform="translate(82.358)">
        <path id="path7564" d="M215.369,48.371a17.029,17.029,0,0,1-17.029-17.03c0-8.093,6.343-15.857,10.682-21.52a63.742,63.742,0,0,0,6.17-9.711.2.2,0,0,1,.354,0,63.724,63.724,0,0,0,6.171,9.711c4.338,5.663,10.683,13.422,10.683,21.52H222.008a.4.4,0,0,0-.4.4v5.84H215.77a.4.4,0,0,0-.4.4V48.371Z" transform="translate(-198.34 -0.001)" fill="#728e9b"/>
        <path id="path7566" d="M247.1,97.745v-5.56h-5.162a.4.4,0,0,0-.4.4v5.161Z" transform="translate(-223.414 -53.51)" fill="#728e9b"/>
        <path id="path7568" d="M241.538,113.325a16.607,16.607,0,0,0,5.562-1.069v-2.8h-5.162a.4.4,0,0,0-.4.4Z" transform="translate(-223.414 -63.534)" fill="#728e9b"/>
        <path id="path7570" d="M261.968,82.871v-5.56h-5.161a.4.4,0,0,0-.4.4v5.16h5.56Z" transform="translate(-232.046 -44.876)" fill="#728e9b"/>
        <path id="path7572" d="M264.031,99.807l.007-.007a1.167,1.167,0,0,0,.334-.825V94.581H258.81v5.562H263.2A1.167,1.167,0,0,0,264.031,99.807Z" transform="translate(-233.44 -54.9)" fill="#728e9b"/>
        <path id="path7574" d="M259.711,115.286a16.629,16.629,0,0,0,4.112-2.527h-4.112Z" transform="translate(-233.963 -65.451)" fill="#728e9b"/>
        <path id="path7576" d="M276.479,82.871a16.559,16.559,0,0,0,1.07-5.56h-3.869v5.56Z" transform="translate(-242.072 -44.876)" fill="#728e9b"/>
        <path id="path7578" d="M276.979,99.593a16.609,16.609,0,0,0,2.526-4.112h-2.526Z" transform="translate(-243.987 -55.423)" fill="#728e9b"/>
        <path id="path7580" d="M276.979,99.593a16.609,16.609,0,0,0,2.526-4.112h-2.526Z" transform="translate(-243.987 -55.423)" fill="#728e9b"/>
      </g>
    </g>
    <g id="g7614" transform="translate(0 1.989)">
      <g id="g7598" transform="translate(0 1.068)">
        <path id="path7586" d="M3.044,7.57l1.567,5.922H3.367l-.274-1.25H1.514l-.274,1.25H0L1.567,7.57Zm-.157,3.69L2.314,8.6H2.3L1.725,11.26Z" transform="translate(0 -7.451)" fill="#b9c6cd"/>
        <path id="path7588" d="M14.721,7.57a1.722,1.722,0,0,1,.767.153,1.4,1.4,0,0,1,.5.4,1.567,1.567,0,0,1,.274.568,2.575,2.575,0,0,1,.083.651,2.13,2.13,0,0,1-.137.8,1.441,1.441,0,0,1-.382.555,1.6,1.6,0,0,1-.592.324,2.608,2.608,0,0,1-.772.107h-.639v2.364H12.631V7.57Zm-.365,2.679a.79.79,0,0,0,.576-.216.906.906,0,0,0,.22-.672,1.053,1.053,0,0,0-.19-.68.782.782,0,0,0-.638-.232h-.5v1.8Z" transform="translate(-7.332 -7.451)" fill="#b9c6cd"/>
        <path id="path7590" d="M24.317,7.57l1.567,5.922H24.639l-.274-1.25H22.786l-.274,1.25h-1.24L22.839,7.57Zm-.157,3.69L23.587,8.6h-.016L23,11.26Z" transform="translate(-12.348 -7.451)" fill="#b9c6cd"/>
        <path id="path7592" d="M35.832,8.466a.574.574,0,0,0-.56-.295.56.56,0,0,0-.369.12.8.8,0,0,0-.228.39,3.324,3.324,0,0,0-.116.7q-.034.436-.033,1.066a10.3,10.3,0,0,0,.045,1.087,2.4,2.4,0,0,0,.141.643.592.592,0,0,0,.24.307.693.693,0,0,0,.336.079.8.8,0,0,0,.295-.054.5.5,0,0,0,.236-.216,1.41,1.41,0,0,0,.158-.456,4.168,4.168,0,0,0,.059-.775h1.194a5.33,5.33,0,0,1-.075.912,2.069,2.069,0,0,1-.278.755,1.382,1.382,0,0,1-.572.506,2.167,2.167,0,0,1-.958.182,2.253,2.253,0,0,1-1.07-.216,1.454,1.454,0,0,1-.61-.622,2.739,2.739,0,0,1-.274-.97,11.388,11.388,0,0,1-.062-1.244,11.423,11.423,0,0,1,.062-1.24,2.75,2.75,0,0,1,.274-.974,1.529,1.529,0,0,1,.61-.634,2.153,2.153,0,0,1,1.07-.228,2.068,2.068,0,0,1,1.008.207,1.411,1.411,0,0,1,.552.526,1.827,1.827,0,0,1,.228.688,5.7,5.7,0,0,1,.046.692H35.986a2.157,2.157,0,0,0-.154-.94Z" transform="translate(-19.347 -7.289)" fill="#b9c6cd"/>
        <path id="path7594" d="M46.088,7.57V9.834h1.394V7.57h1.194v5.922H47.482V10.86H46.088v2.632H44.894V7.57Z" transform="translate(-26.059 -7.451)" fill="#b9c6cd"/>
        <path id="path7596" d="M59.846,8.549H57.731V9.943h1.99v.978h-1.99v1.592h2.2v.978H56.537V7.57h3.309v.979Z" transform="translate(-32.817 -7.451)" fill="#b9c6cd"/>
      </g>
      <g id="g7606" transform="translate(45.339 0)">
        <path id="path7600" d="M108.068,22.642V16.717h4.412V12.873a10.372,10.372,0,0,1,.63-3.845,6.067,6.067,0,0,1,1.8-2.521,7.137,7.137,0,0,1,2.868-1.355,16.177,16.177,0,0,1,3.782-.409q2.331,0,4.664.189v6.178a4.8,4.8,0,0,0-.882-.066h-.82a4.087,4.087,0,0,0-2.584.63,2.566,2.566,0,0,0-.757,2.08v2.961h5.043v5.926h-5.043V50.63h-8.7V22.642Z" transform="translate(-108.068 -4.741)" fill="#b9c6cd"/>
        <rect id="rect7602" width="8.699" height="7.438" transform="translate(23.325 0.378)" fill="#b9c6cd"/>
        <rect id="rect7604" width="8.699" height="33.913" transform="translate(23.325 11.976)" fill="#b9c6cd"/>
      </g>
      <g id="g7612" transform="translate(84.41 6.043)">
        <path id="path7608" d="M224.442,19.36c-.314.439-.624.881-.94,1.316-1,1.376-2.048,2.713-3.077,4.066q.6.084,1.213.186c.855-1.436,1.732-2.863,2.554-4.321.23-.408.456-.82.684-1.23.18-.322-.238-.289-.434-.016Z" transform="translate(-212.358 -19.145)" fill="#b9c6cd"/>
        <path id="path7610" d="M209.22,36.606c.151-.263.308-.526.461-.794q-.691-.134-1.382-.246h0a57.015,57.015,0,0,0-3.987,6.119c-2.141,3.882-3.626,8.221-2.944,12.7a15.932,15.932,0,0,0,5.309,9.586,15.692,15.692,0,0,0,1.928,1.424.2.2,0,0,0,.251-.32,17.079,17.079,0,0,1-4.606-7.767c-1.274-4.7-.215-9.517,1.6-13.926A60.365,60.365,0,0,1,209.22,36.606Z" transform="translate(-201.196 -28.677)" fill="#b9c6cd"/>
      </g>
    </g>
  </g>
</svg>
