<svg id="oracle" xmlns="http://www.w3.org/2000/svg" width="143.082" height="17.98" viewBox="0 0 143.082 17.98">
  <path id="Path_14309" data-name="Path 14309" d="M59.547,11.634h9.128L63.862,3.861,55.01,17.906H50.98L61.747,1.079a2.572,2.572,0,0,1,4.188,0l10.8,16.87h-4.04l-1.883-3.141H61.578l-2.031-3.173Zm41.82,3.141V.137H97.951V16.2a1.646,1.646,0,0,0,.487,1.185,1.7,1.7,0,0,0,1.259.518h15.58l2.02-3.141H101.367ZM44.845,12.163a6,6,0,0,0,0-11.994H29.9V17.938h3.416V3.311H44.6A2.851,2.851,0,0,1,47.458,6.2,2.887,2.887,0,0,1,44.6,9.1H34.988L45.194,17.98h4.95l-6.833-5.817ZM8.884,17.906a8.884,8.884,0,1,1,0-17.769H19.2a8.884,8.884,0,1,1,0,17.769ZM19,14.776a5.748,5.748,0,1,0,0-11.5H9.128a5.749,5.749,0,1,0-.032,11.5Zm64.878,3.131a8.884,8.884,0,0,1,0-17.769H96.142l-2.02,3.141H84.085a5.754,5.754,0,1,0,0,11.507h12.3l-2.02,3.141H83.873Zm41.778-3.131a5.806,5.806,0,0,1-5.542-4.178h14.6l2.02-3.141H120.1a5.8,5.8,0,0,1,5.553-4.178h10.037l2.02-3.141H125.44a8.884,8.884,0,0,0,0,17.769H136l2.02-3.141H125.651Z" fill="#ed1c24"/>
  <path id="Path_14310" data-name="Path 14310" d="M1315.612,2.557a1.565,1.565,0,1,1,1.565,1.565,1.562,1.562,0,0,1-1.565-1.565Zm1.576,2.02a1.988,1.988,0,1,0-1.988-1.988,1.993,1.993,0,0,0,1.988,1.988Zm-.212-3.2a1.273,1.273,0,0,1,.592.074.638.638,0,0,1,.423.624.385.385,0,0,1-.032.169.753.753,0,0,1-.275.381c-.032,0-.032.032-.106.032l.518.941h-.486l-.455-.867h-.275v.91h-.455V1.372Zm.169,1.047a.416.416,0,0,0,.381-.137.426.426,0,0,0,.032-.212.356.356,0,0,0-.169-.275,1.474,1.474,0,0,0-.423-.032h-.106v.624h.275v.032Z" transform="translate(-1176.095 -0.537)" fill="#ed1c24"/>
</svg>
