<svg xmlns="http://www.w3.org/2000/svg" width="125.307" height="19.172" viewBox="0 0 125.307 19.172">
  <g id="rabbitmq-hor" transform="translate(0 0.038)">
    <path id="Path_14271" data-name="Path 14271" d="M0,4.28H.054V21.464H0Z" transform="translate(0 -3.375)" fill="#feb482"/>
    <path id="Path_14272" data-name="Path 14272" d="M.13,20.442V3.258a.835.835,0,0,1,.906-.706H2.795A.89.89,0,0,1,3.8,3.567V9c0,.8.326,1.119,1.128,1.119H5.84A.931.931,0,0,0,6.855,9.1V3.634c0-.764.317-1.082,1.09-1.086H9.515a.927.927,0,0,1,1.044,1.04q0,2.7,0,5.4c0,.814.3,1.111,1.124,1.111H16.62c.785,0,1.107.322,1.107,1.1V20.07c0,.773-.334,1.1-1.115,1.1H1.212C.573,21.177.28,20.977.13,20.442Zm12.288-3.091h.94a.873.873,0,0,0,.919-.911q0-.877,0-1.758a.873.873,0,0,0-.906-.911H11.52a.877.877,0,0,0-.936.89v1.821a.873.873,0,0,0,.923.869Z" transform="translate(-0.076 -2.361)" fill="#fe6601"/>
    <path id="Path_14273" data-name="Path 14273" d="M232.174,2.8V21.37h-1.7c-.121,0-.159-.079-.163-.188s0-.188,0-.284V5.063a.472.472,0,0,0-.146.288q-2.631,7.857-5.255,15.713a.372.372,0,0,1-.443.309,11.929,11.929,0,0,0-1.32,0,.468.468,0,0,1-.556-.388q-2.377-7.209-4.808-14.41a12.061,12.061,0,0,0-.576-1.5V20.927c0,.439,0,.439-.451.439H215.35V2.8c.079-.079.192-.046.292-.046h2.506a.368.368,0,0,1,.418.309q1.512,4.574,3.045,9.143,1.015,3.037,2.034,6.069c.029.084.021.192.125.242.1-.071.109-.2.142-.3q2.531-7.56,5.054-15.12a.418.418,0,0,1,.489-.343h2.36a.622.622,0,0,1,.359.046Z" transform="translate(-125.401 -2.483)" fill="#b8b8b8"/>
    <path id="Path_14274" data-name="Path 14274" d="M275.421,19.385l3.834-.246v1.75a.487.487,0,0,1-.338.05c-2.744,0-5.493.029-8.237,0a5.43,5.43,0,0,1-3.5-1.383,8.05,8.05,0,0,1-2.41-4.386,15.636,15.636,0,0,1-.334-2.243,14.672,14.672,0,0,1-.042-1.942,13.047,13.047,0,0,1,1.228-5.714,5.534,5.534,0,0,1,4.336-3.133,6.988,6.988,0,0,1,4.064.468,5.392,5.392,0,0,1,2.506,2.423,10.918,10.918,0,0,1,1.149,3.805,19.7,19.7,0,0,1,.171,3.5,15.529,15.529,0,0,1-.748,4.507,4.668,4.668,0,0,1-1.671,2.464Zm.155-7.606a23.045,23.045,0,0,0-.2-3.133,8.55,8.55,0,0,0-.99-3.083A3.779,3.779,0,0,0,268.917,4.5a4.912,4.912,0,0,0-1.7,2.677,13.955,13.955,0,0,0-.464,2.677,17.379,17.379,0,0,0,0,3.342,12.075,12.075,0,0,0,.764,3.371,3.88,3.88,0,0,0,5.43,2.243,3.93,3.93,0,0,0,2.193-2.828,17.2,17.2,0,0,0,.439-4.2Z" transform="translate(-153.948 -2.06)" fill="#b8b8b8"/>
    <path id="Path_14275" data-name="Path 14275" d="M51.56,2.58c2.088.092,4.127-.121,6.173.142a5.43,5.43,0,0,1,2.949,1.211,4.407,4.407,0,0,1,1.391,3.956,4.177,4.177,0,0,1-1.14,2.728,5.179,5.179,0,0,1-2.226,1.253.86.86,0,0,0-.393.15c.292.1.581.188.835.3a3.275,3.275,0,0,1,2.017,2.4c.56,2.13.952,4.3,1.437,6.474H60.515c-.175-.835-.351-1.646-.535-2.469-.242-1.082-.418-2.176-.743-3.241a3.015,3.015,0,0,0-3.078-2.535c-.814-.075-1.629,0-2.473-.033v8.27H51.6Zm2.118,8.554a11.6,11.6,0,0,0,3.914-.313,3.16,3.16,0,0,0,2.264-2.268,4.779,4.779,0,0,0,.1-1.374,2.537,2.537,0,0,0-2.2-2.64,19.782,19.782,0,0,0-4.039-.175l-.046.033Z" transform="translate(-30.024 -2.385)" fill="#fe6601"/>
    <path id="Path_14276" data-name="Path 14276" d="M145.94,2.65h1.825v7.807c.088.029.1,0,.113-.05A3.61,3.61,0,0,1,151.8,8.143a4.063,4.063,0,0,1,3.484,2.986,11.2,11.2,0,0,1,.589,4.486,8.859,8.859,0,0,1-.589,2.924,4.645,4.645,0,0,1-5.012,2.986,5.7,5.7,0,0,1-1.562-.317,4.021,4.021,0,0,1-2.506-3.1,9.953,9.953,0,0,1-.234-2.243V2.917Zm7.848,12.159a9.436,9.436,0,0,0-.138-1.7,5.789,5.789,0,0,0-.835-2.41,2.189,2.189,0,0,0-3.379-.443,3.63,3.63,0,0,0-.936,1.307,8.55,8.55,0,0,0-.664,2.7,9.189,9.189,0,0,0,.288,3.671,2.581,2.581,0,0,0,3.212,1.98,2.7,2.7,0,0,0,1.875-1.75A8.354,8.354,0,0,0,153.788,14.809Z" transform="translate(-84.982 -2.426)" fill="#fe6601"/>
    <path id="Path_14277" data-name="Path 14277" d="M114.859,2.65h1.825v7.827c.1,0,.1-.038.117-.075a3.613,3.613,0,0,1,3.93-2.256,3.918,3.918,0,0,1,3.342,2.707,11.277,11.277,0,0,1,.656,5.342,7.907,7.907,0,0,1-.468,2.172,4.684,4.684,0,0,1-5.125,3.174,4.319,4.319,0,0,1-2.986-1.253,4.887,4.887,0,0,1-1.186-2.719,12.9,12.9,0,0,1-.125-1.971V3.068ZM116.685,15.5a7.819,7.819,0,0,0,.505,2.849,2.473,2.473,0,0,0,2.088,1.642,2.565,2.565,0,0,0,2.606-1.324,4.594,4.594,0,0,0,.455-1.065,10.233,10.233,0,0,0,.142-4.941,4.787,4.787,0,0,0-.894-2.172,2.172,2.172,0,0,0-3.037-.376,3.592,3.592,0,0,0-1.157,1.575,10.175,10.175,0,0,0-.706,3.818Z" transform="translate(-66.871 -2.426)" fill="#fe6601"/>
    <path id="Path_14278" data-name="Path 14278" d="M90.844,27.148a4.624,4.624,0,0,1-4.407,1.98,2.97,2.97,0,0,1-2.886-2.368A3.336,3.336,0,0,1,84.8,22.946a7.79,7.79,0,0,1,3.759-1.32c.689-.088,1.383,0,2.088-.113l.184-.038a11.061,11.061,0,0,0-.213-2.778,1.846,1.846,0,0,0-1.608-1.391,4.515,4.515,0,0,0-1.671.075,1.946,1.946,0,0,0-1.5,1.671,2.056,2.056,0,0,1-.038.234H83.723a3.083,3.083,0,0,1,.343-1.52,3.575,3.575,0,0,1,2.214-1.733A6.946,6.946,0,0,1,90,15.92a3.2,3.2,0,0,1,2.569,3.028c.042.451.058.9.058,1.349v8.542h-1.8Zm-.1-4.1a9.682,9.682,0,0,0-2.306.117,4.11,4.11,0,0,0-2.506,1.282,1.937,1.937,0,0,0,.9,3.133,2.544,2.544,0,0,0,1.253-.071A4.07,4.07,0,0,0,90.748,23.046Z" transform="translate(-48.562 -10.036)" fill="#fe6601"/>
    <path id="Path_14279" data-name="Path 14279" d="M197.789,22.022v1.612a8.638,8.638,0,0,1-2.122.134,3.79,3.79,0,0,1-.685-.084,2.545,2.545,0,0,1-2.343-2.623c-.025-.388-.025-.777-.025-1.161V12.574a.71.71,0,0,0-.05-.418H190.53v-1.5h2a.418.418,0,0,0,.084-.359V7.908a.418.418,0,0,1,.221-.418c.526-.317,1.04-.656,1.608-1.011v4.152H197.9v1.529h-3.379a.472.472,0,0,0-.054.33q0,3.759,0,7.485a3.637,3.637,0,0,0,.05.718,1.713,1.713,0,0,0,1.758,1.52,4.569,4.569,0,0,0,.785-.025,6.9,6.9,0,0,0,.731-.167Z" transform="translate(-110.948 -4.656)" fill="#fe6601"/>
    <path id="Path_14280" data-name="Path 14280" d="M180.088,29.312H178.3V16.51h1.788Z" transform="translate(-103.826 -10.496)" fill="#fe6601"/>
    <path id="Path_14281" data-name="Path 14281" d="M179.966,5.065H177.56V2.68h2.406Z" transform="translate(-103.395 -2.443)" fill="#fe6601"/>
  </g>
</svg>
