<svg xmlns="http://www.w3.org/2000/svg" width="36.531" height="36" viewBox="0 0 36.531 36">
  <g id="Group_4" data-name="Group 4" transform="translate(-56.606 -64.976)">
    <path id="Path_1892" data-name="Path 1892" d="M56.606,71.892c.05-.043.1-.085.151-.131q3.362-3.308,6.721-6.618c.048-.047.086-.105.137-.167L75.856,77.023a1,1,0,0,1,.12-.2q4.544-4.48,9.092-8.955a10.4,10.4,0,0,1,1.289-1.162,3.634,3.634,0,0,1,5.628,2.4,3.486,3.486,0,0,1-1.07,3.121q-7.5,7.394-15,14.784Q70.3,92.539,64.7,98.061a1.323,1.323,0,0,1-.612.357c-1.8.468-3.589.942-5.383,1.411a.737.737,0,0,1-.951-.937q.728-2.676,1.455-5.351a1.108,1.108,0,0,1,.319-.525q4.548-4.474,9.1-8.949a1.252,1.252,0,0,1,.191-.129c-.082-.088-.123-.132-.165-.176L56.719,72.023c-.035-.035-.076-.063-.113-.094Zm29.681-3.069q-12.806,12.61-25.593,25.2l2.965,2.931L89.253,71.747Zm-18.179,2.69L66.43,73.172,65.388,72.15,67.075,70.5l-1.207-1.2-.925.918L63.9,69.2l.935-.906-1.206-1.188-4.885,4.81,11.081,10.9,3.937-3.876-.934-.9.94-.914-1.189-1.188-1.662,1.64-1.043-1.04,1.656-1.627-1.182-1.181-.907.9-1.068-1.053.925-.9Z" transform="translate(0)" fill="#0092ff"/>
    <path id="Path_1893" data-name="Path 1893" d="M80.414,95.845c-.044-.05-.086-.1-.133-.15L69.027,84.436c-.042-.042-.083-.088-.115-.121l1.046-1.046L80.417,93.716l4.906-4.894-.478-.44-.915.918L82.9,88.252l.913-.9L82.6,86.139l-1.659,1.667L79.894,86.76,81.567,85.1l-1.2-1.181-.89.9L78.4,83.744l.929-.9-1.209-1.173-1.648,1.651L75.4,82.249l1.683-1.626-1.194-1.191-.884.921L73.942,79.3l1.96-2.012L87.46,88.851a1.809,1.809,0,0,0-.165.134q-3.356,3.352-6.709,6.707c-.048.048-.091.1-.134.152Z" transform="translate(5.677 5.131)" fill="#0092ff"/>
  </g>
</svg>
