<svg xmlns="http://www.w3.org/2000/svg" width="32.435" height="32.433" viewBox="0 0 32.435 32.433">
  <g id="Group_1052" data-name="Group 1052" transform="translate(-77.529 -26)">
    <path id="Path_7672" data-name="Path 7672" d="M92.2,31.314a5.708,5.708,0,0,1,5.7,5.7.95.95,0,1,0,1.9,0,7.61,7.61,0,0,0-7.6-7.6.95.95,0,1,0,0,1.9Z" transform="translate(1.551 0.386)" fill="#0092ff"/>
    <path id="Path_7673" data-name="Path 7673" d="M88.576,54.428a4.739,4.739,0,0,0,9.364,0,2.855,2.855,0,0,0,1.97-2.71v-1.9a7.5,7.5,0,0,1,1.928-4.914,11.41,11.41,0,1,0-17.1.062,7.405,7.405,0,0,1,1.873,4.852v1.9A2.854,2.854,0,0,0,88.576,54.428Zm4.683,2.1a2.908,2.908,0,0,1-2.688-1.97h5.375A2.908,2.908,0,0,1,93.258,56.533Zm4.75-4.815a.951.951,0,0,1-.951.951h-7.6a.951.951,0,0,1-.951-.951v-.951h9.5ZM86.154,43.7a9.5,9.5,0,1,1,14.255-.052,9.539,9.539,0,0,0-2.347,5.217H88.454A9.391,9.391,0,0,0,86.154,43.7Z" transform="translate(0.489 0)" fill="#0092ff"/>
    <path id="Path_7674" data-name="Path 7674" d="M78.48,38.144h1.9a.951.951,0,0,0,0-1.9h-1.9a.951.951,0,1,0,0,1.9Z" transform="translate(0 1.158)" fill="#0092ff"/>
    <path id="Path_7675" data-name="Path 7675" d="M79.4,33.483a.95.95,0,0,0,1.343-1.343L79.4,30.8a.95.95,0,0,0-1.343,1.345Z" transform="translate(0.028 0.511)" fill="#0092ff"/>
    <path id="Path_7676" data-name="Path 7676" d="M79.4,41.04l-1.343,1.343A.95.95,0,0,0,79.4,43.728l1.343-1.345A.95.95,0,0,0,79.4,41.04Z" transform="translate(0.028 1.669)" fill="#0092ff"/>
    <path id="Path_7677" data-name="Path 7677" d="M106.106,36.243h-1.9a.951.951,0,1,0,0,1.9h1.9a.951.951,0,0,0,0-1.9Z" transform="translate(2.908 1.158)" fill="#0092ff"/>
    <path id="Path_7678" data-name="Path 7678" d="M105.127,33.483l1.345-1.343a.951.951,0,1,0-1.345-1.345l-1.343,1.345a.95.95,0,0,0,1.343,1.343Z" transform="translate(2.937 0.511)" fill="#0092ff"/>
    <path id="Path_7679" data-name="Path 7679" d="M106.471,43.728a.952.952,0,0,0,0-1.345l-1.345-1.343a.95.95,0,0,0-1.343,1.343l1.343,1.345A.952.952,0,0,0,106.471,43.728Z" transform="translate(2.937 1.669)" fill="#0092ff"/>
  </g>
</svg>
