<svg xmlns="http://www.w3.org/2000/svg" width="27.752" height="32.16" viewBox="0 0 27.752 32.16">
  <g id="Group_651" data-name="Group 651" transform="translate(-152.423 -18.568)">
    <path id="Path_1886" data-name="Path 1886" d="M169.523,18.57a7.483,7.483,0,0,1,.758.179A3.622,3.622,0,0,1,172.8,22.1c.019.523,0,1.048,0,1.581h-1.442V23.5a13.16,13.16,0,0,0-.1-1.5,2.163,2.163,0,0,0-2.054-1.911,6.522,6.522,0,0,0-.782-.049H156.8a5.336,5.336,0,0,0-1.072.109,2.115,2.115,0,0,0-1.756,1.835,5.732,5.732,0,0,0-.089,1.027q-.007,11.637,0,23.276A5.85,5.85,0,0,0,154,47.407a2.122,2.122,0,0,0,1.876,1.772,6.05,6.05,0,0,0,.991.079q5.762.007,11.522,0a5.407,5.407,0,0,0,1.087-.1,2.144,2.144,0,0,0,1.818-1.965,7.821,7.821,0,0,0,.066-.947c.01-.635,0-1.268,0-1.9v-.184H172.8a.237.237,0,0,1,.021.066c0,1.049.024,2.1-.024,3.148a3.6,3.6,0,0,1-2.938,3.286,4.551,4.551,0,0,1-.748.066q-6.487.005-12.979,0a3.634,3.634,0,0,1-3.65-3.03,3.917,3.917,0,0,1-.053-.67V22.273a3.64,3.64,0,0,1,3.066-3.662l.239-.043Z" transform="translate(0 0)" fill="#0092ff"/>
    <path id="Path_1887" data-name="Path 1887" d="M181.555,34.052v1.469h-1.509a6.663,6.663,0,0,1-1.414,3.383l1.072,1.064-1.049,1.048-1.05-1.054c-.262.179-.492.346-.734.494a6.242,6.242,0,0,1-2.517.9c-.132.017-.172.067-.169.2.008.385,0,.773,0,1.161V42.9h-1.465v-1.51a6.691,6.691,0,0,1-3.394-1.429l-1.067,1.072-1.037-1.041,1.066-1.06a6.684,6.684,0,0,1-1.435-3.4H165.34v-1.47h1.509a6.679,6.679,0,0,1,1.42-3.394L167.2,29.6l1.051-1.053,1.064,1.067a6.654,6.654,0,0,1,3.394-1.429v-1.5h1.483v1.374c0,.078.006.133.108.146a6.48,6.48,0,0,1,3.215,1.363c.017.013.037.021.057.035l1.072-1.072,1.054,1.058-1.072,1.072a6.641,6.641,0,0,1,1.425,3.394Zm-13.274.731a5.164,5.164,0,1,0,5.186-5.155,5.165,5.165,0,0,0-5.186,5.155Z" transform="translate(-1.38 -0.867)" fill="#0092ff"/>
    <path id="Path_1888" data-name="Path 1888" d="M155.728,28.206V26.764h8.1v1.442Z" transform="translate(-0.353 -0.876)" fill="#0092ff"/>
    <path id="Path_1889" data-name="Path 1889" d="M155.73,34.759V33.3h6.615v1.458Z" transform="translate(-0.353 -1.574)" fill="#0092ff"/>
    <path id="Path_1890" data-name="Path 1890" d="M161.616,39.845V41.3h-5.885V39.845Z" transform="translate(-0.353 -2.273)" fill="#0092ff"/>
    <path id="Path_1891" data-name="Path 1891" d="M163.706,49.256a1.475,1.475,0,1,1,1.465-1.484v0A1.476,1.476,0,0,1,163.706,49.256Z" transform="translate(-1.047 -2.964)" fill="#0092ff"/>
  </g>
</svg>
