<svg id="Development" xmlns="http://www.w3.org/2000/svg" width="43.664" height="42.612" viewBox="0 0 43.664 42.612">
  <path id="Path_1882" data-name="Path 1882" d="M812.24,1411.518l-5.632-6.357v-16.286a1.5,1.5,0,1,0-3.006,0v15.351H771.963V1384.23h9.425a11.511,11.511,0,0,0,3.175,6.818,11.394,11.394,0,0,0,8.079,3.516h.184a11.386,11.386,0,0,0,8-3.262,1.519,1.519,0,0,0,.033-2.139,1.5,1.5,0,0,0-2.126-.033,8.457,8.457,0,0,1-12.011-.188,8.519,8.519,0,1,1,12.2-11.9,1.5,1.5,0,0,0,2.126.033,1.519,1.519,0,0,0,.034-2.139,11.492,11.492,0,0,0-19.62,6.264h-11a1.508,1.508,0,0,0-1.5,1.512v23.026a1.5,1.5,0,0,0,.027.267c0,.026.011.052.018.078a1.518,1.518,0,0,0,.058.187c.009.024.017.049.028.073a1.565,1.565,0,0,0,.122.227c.008.012.019.023.027.035a1.579,1.579,0,0,0,.1.133l6.013,6.787a1.5,1.5,0,0,0,1.122.506h34.645a1.5,1.5,0,0,0,1.372-.894A1.52,1.52,0,0,0,812.24,1411.518Zm-35.093-.506-3.333-3.762h30.617l3.333,3.762Z" transform="translate(-768.957 -1371.424)" fill="#ffb300"/>
  <path id="Path_1883" data-name="Path 1883" d="M820.526,1389.938a1.512,1.512,0,0,0,0-3.025h-.238a5.749,5.749,0,0,0-.565-1.314l.185-.186a1.519,1.519,0,0,0,0-2.139,1.5,1.5,0,0,0-2.126,0l-.206.207a5.672,5.672,0,0,0-1.285-.525v-.3a1.5,1.5,0,1,0-3.006,0v.3a5.683,5.683,0,0,0-1.285.525l-.206-.207a1.5,1.5,0,0,0-2.126,0,1.519,1.519,0,0,0,0,2.139l.185.186a5.735,5.735,0,0,0-.587,1.4h-.3a1.512,1.512,0,0,0,0,3.025h.3a5.735,5.735,0,0,0,.637,1.483l-.235.236a1.519,1.519,0,0,0,0,2.139,1.5,1.5,0,0,0,2.126,0l.29-.292a5.688,5.688,0,0,0,1.2.477v.13a1.5,1.5,0,1,0,3.006,0v-.13a5.669,5.669,0,0,0,1.392-.591l.1.1a1.5,1.5,0,0,0,2.126,0,1.519,1.519,0,0,0,0-2.139l-.12-.121a5.744,5.744,0,0,0,.544-1.38Zm-5.738,1.314a2.738,2.738,0,0,1-2-4.587,1.529,1.529,0,0,0,.14-.115c.034-.035.06-.074.09-.111a2.7,2.7,0,0,1,1.774-.666,2.74,2.74,0,0,1,0,5.479Z" transform="translate(-790.923 -1376.942)" fill="#ffb300"/>
</svg>
