 <svg id="On_demand" data-name="On demand" xmlns="http://www.w3.org/2000/svg"
    width="51.706" height="34.847" viewBox="0 0 51.706 34.847">
    <path id="Path_1454" data-name="Path 1454"
        d="M927.383,650.746a2.966,2.966,0,0,1,1.017-2.595c2.294-1.858,7.856-4.167,19.329,1.251a1.645,1.645,0,0,1,.945,1.927.665.665,0,0,1-.406.454c-.469.213-2.451.706-8.219-1.875-.193-.086-.388-.175-.589-.268a2,2,0,0,0-2.668,1.039,2.1,2.1,0,0,0,1.011,2.741c.214.1.425.195.633.288,5.348,2.393,8.99,2.987,11.459,1.868a4.752,4.752,0,0,0,2.6-2.905,5.792,5.792,0,0,0-3.078-7.034c-12.754-6.022-19.826-3.726-23.513-.74a7.1,7.1,0,0,0-2.532,6.28l1.013,9.977-1.912.205a2.076,2.076,0,0,0,.206,4.134,1.958,1.958,0,0,0,.212-.011l3.919-.42a2.006,2.006,0,0,0,1.358-.756,2.107,2.107,0,0,0,.439-1.52Z"
        transform="translate(-920.663 -630.89)" fill="#0092ff" />
    <path id="Path_1455" data-name="Path 1455"
        d="M980.018,651.478l-.05-.173a4.227,4.227,0,0,0-2.155-2.765,5.088,5.088,0,0,0-4.293.154c-5.353,2.218-8.31,3.519-8.339,3.531a2.1,2.1,0,0,0-1.06,2.722,2,2,0,0,0,2.649,1.089c.029-.012,2.953-1.3,8.26-3.5a2.842,2.842,0,0,1,.994-.259,1.286,1.286,0,0,1,.078.21l.051.176a10.882,10.882,0,0,1,.43,1.814c-.032.016-.074.035-.126.055L952.6,663.972l-9.674-4.637a2,2,0,0,0-2.681,1,2.1,2.1,0,0,0,.975,2.755l10.451,5.01a1.969,1.969,0,0,0,1.578.056l24.653-9.754C981.607,656.939,980.573,653.387,980.018,651.478Z"
        transform="translate(-928.879 -633.448)" fill="#0092ff" />
    <path id="Path_1456" data-name="Path 1456"
        d="M970.831,634.1l3.628.538.325,1.6a2.043,2.043,0,0,0,1.664,1.625,1.98,1.98,0,0,0,.312.025,2.008,2.008,0,0,0,1.755-1.052l.816-1.48,2.527.375a2.005,2.005,0,0,0,2.076-1.09,2.116,2.116,0,0,0-.311-2.373l-1.61-1.776,1.427-2.589a2.116,2.116,0,0,0-.279-2.434,1.981,1.981,0,0,0-2.343-.459l-2.614,1.278-2.079-2.294a1.98,1.98,0,0,0-2.4-.429,2.091,2.091,0,0,0-1.047,2.263l.583,2.877-3,1.468a2.086,2.086,0,0,0-1.128,2.182A2.044,2.044,0,0,0,970.831,634.1Z"
        transform="translate(-941.182 -623.333)" fill="#0092ff" />
</svg>