
<svg xmlns="http://www.w3.org/2000/svg" width="38.899" height="39.476" viewBox="0 0 38.899 39.476">
  <g id="E-Commerce_development" data-name="E-Commerce development" transform="translate(-2318.499 -612.622)">
    <path id="Path_1492" data-name="Path 1492" d="M2343.066,647.379c0-1.034-.837-1.394-1.871-1.394l-13.455,0,.014-20.3h29.57v5.04c0,1.034.282,1.946,1.315,1.946s1.393-.873,1.393-1.907V615.824a1.988,1.988,0,0,0-1.872-2h-31.332a1.871,1.871,0,0,0-1.871,1.871l-.014,31.067a1.871,1.871,0,0,0,1.871,1.871l14.346.135C2342.194,648.767,2343.066,648.413,2343.066,647.379Zm14.258-30.953-.014,6.5h-29.57l.014-6.5Z" transform="translate(-6.444 -1.2)" fill="#ffc603"/>
    <path id="Path_1493" data-name="Path 1493" d="M2335.187,625.5h.207a1.647,1.647,0,1,0,0-3.295h-.207a1.647,1.647,0,0,0,0,3.295Z" transform="translate(-9.867 -5.183)" fill="#ffc603"/>
    <path id="Path_1494" data-name="Path 1494" d="M2344.188,625.5h.207a1.647,1.647,0,1,0,0-3.295h-.207a1.647,1.647,0,0,0,0,3.295Z" transform="translate(-14.631 -5.183)" fill="#ffc603"/>
    <path id="Path_1495" data-name="Path 1495" d="M2353.188,625.5h.207a1.647,1.647,0,1,0,0-3.295h-.207a1.647,1.647,0,0,0,0,3.295Z" transform="translate(-19.395 -5.183)" fill="#ffc603"/>
    <path id="Path_1927" data-name="Path 1927" d="M272.138,114.422H254.944l-.753-3.3h-4.975c-.588,0-.9.658-.9,1.247s.309,1.28.9,1.28h2.951l3.9,15.092H268.22c.592,0,.772-.578.772-1.169s-.18-1.207-.772-1.207H257.771l-.3-1.384h11.851Zm-15.2,8.421-1.3-5.934h13.353l-1.448,5.934Z" transform="translate(2085.261 518.977)" fill="#ffc603"/>
    <ellipse id="Ellipse_3" data-name="Ellipse 3" cx="1.486" cy="1.486" rx="1.486" ry="1.486" transform="translate(2341.629 649.125)" fill="#ffc603"/>
    <ellipse id="Ellipse_4" data-name="Ellipse 4" cx="1.486" cy="1.486" rx="1.486" ry="1.486" transform="translate(2350.293 649.125)" fill="#ffc603"/>
  </g>
</svg>
