<svg xmlns="http://www.w3.org/2000/svg" width="46.176" height="41.51" viewBox="0 0 46.176 41.51">
  <g id="Group_103805" data-name="Group 103805" transform="translate(-310 -4967.281)">
    <g id="Mobile_Commerce_App_Development" data-name="Mobile Commerce App Development" transform="translate(-940.326 3725.038)">
      <g id="Group_1036" data-name="Group 1036" transform="translate(1250.326 1242.244)">
        <circle id="Ellipse_3" data-name="Ellipse 3" cx="2.855" cy="2.855" r="2.855" transform="translate(14.145 35.8)" fill="#2680eb"/>
        <circle id="Ellipse_4" data-name="Ellipse 4" cx="2.855" cy="2.855" r="2.855" transform="translate(30.788 35.8)" fill="#2680eb"/>
        <path id="Path_1927" data-name="Path 1927" d="M294.55,117.449H260.333l-1.446-5.593h-8.843c-1.13,0-1.669,1.157-1.669,2.288s.626,2.184,1.757,2.184h5.357l7.4,28.619h23.663c1.136,0,2.087-.352,2.05-2.473a2.181,2.181,0,0,0-2.133-2.184H266.282l-.5-2.56H288.6Zm-30.044,16.174-2.718-10.933h26.807l-3.079,10.933Z" transform="translate(-248.374 -111.856)" fill="#2680eb"/>
      </g>
    </g>
  </g>
</svg>
