<svg xmlns="http://www.w3.org/2000/svg" width="53.297" height="39.27" viewBox="0 0 53.297 39.27">
  <g id="Group_103824" data-name="Group 103824" transform="translate(-1291.75 -4709.301)">
    <path id="Path_63971" data-name="Path 63971" d="M193.089,249.691h-3.117v-2.8a1.143,1.143,0,0,0-.968-1.075,47.073,47.073,0,0,0-21.177,2.365,47.255,47.255,0,0,0-21.177-2.365,1.143,1.143,0,0,0-.968,1.075v2.8h-3.332a1.016,1.016,0,0,0-1.075,1.075V283.23a1.016,1.016,0,0,0,1.075,1.075h50.632a1.016,1.016,0,0,0,1.075-1.075V250.766a.936.936,0,0,0-.968-1.075Zm-5.375-1.828v30.959c-5.59-.43-11.5.43-18.919,2.9V250.013a43.779,43.779,0,0,1,18.919-2.15Zm-39.988,0a43.581,43.581,0,0,1,18.919,2.15v31.711a52.357,52.357,0,0,0-16.232-3.01,22.478,22.478,0,0,0-2.687.107Zm-4.3,3.978h2.042V280a.96.96,0,0,0,1.183.967,39.728,39.728,0,0,1,13.437,1.075H143.425Zm48.59,30.314H175.246a40.15,40.15,0,0,1,13.545-1.075,2.028,2.028,0,0,0,.86-.215,1.162,1.162,0,0,0,.323-.752V251.84h2.042Z" transform="translate(1150.724 4464.016)" fill="#2680eb" stroke="#2680eb" stroke-width="0.5"/>
    <path id="Path_63972" data-name="Path 63972" d="M373.981,301.661H387.1a1.075,1.075,0,1,0,0-2.15H373.981a1.016,1.016,0,0,0-1.075,1.075A1.156,1.156,0,0,0,373.981,301.661Z" transform="translate(948.44 4416.882)" fill="#2680eb" stroke="#2680eb" stroke-width="0.5"/>
    <path id="Path_63973" data-name="Path 63973" d="M373.981,357.661H387.1a1.075,1.075,0,1,0,0-2.15H373.981a1.016,1.016,0,0,0-1.075,1.075A1.077,1.077,0,0,0,373.981,357.661Z" transform="translate(948.44 4367.977)" fill="#2680eb" stroke="#2680eb" stroke-width="0.5"/>
    <path id="Path_63974" data-name="Path 63974" d="M373.981,413.661H387.1a1.075,1.075,0,1,0,0-2.15H373.981a1.016,1.016,0,0,0-1.075,1.075A1.077,1.077,0,0,0,373.981,413.661Z" transform="translate(948.44 4319.072)" fill="#2680eb" stroke="#2680eb" stroke-width="0.5"/>
    <path id="Path_63975" data-name="Path 63975" d="M373.981,469.661H387.1a1.075,1.075,0,1,0,0-2.15H373.981a1.016,1.016,0,0,0-1.075,1.075A1.077,1.077,0,0,0,373.981,469.661Z" transform="translate(948.44 4270.167)" fill="#2680eb" stroke="#2680eb" stroke-width="0.5"/>
    <path id="Path_63976" data-name="Path 63976" d="M207.681,301.661H220.8a1.075,1.075,0,0,0,0-2.15H207.681a1.016,1.016,0,0,0-1.075,1.075A1.077,1.077,0,0,0,207.681,301.661Z" transform="translate(1093.671 4416.882)" fill="#2680eb" stroke="#2680eb" stroke-width="0.5"/>
    <path id="Path_63977" data-name="Path 63977" d="M207.681,357.661H220.8a1.075,1.075,0,0,0,0-2.15H207.681a1.075,1.075,0,1,0,0,2.15Z" transform="translate(1093.671 4367.977)" fill="#2680eb" stroke="#2680eb" stroke-width="0.5"/>
    <path id="Path_63978" data-name="Path 63978" d="M207.681,413.661H220.8a1.075,1.075,0,0,0,0-2.15H207.681a1.075,1.075,0,1,0,0,2.15Z" transform="translate(1093.671 4319.072)" fill="#2680eb" stroke="#2680eb" stroke-width="0.5"/>
    <path id="Path_63979" data-name="Path 63979" d="M207.681,469.661H220.8a1.075,1.075,0,0,0,0-2.15H207.681a1.075,1.075,0,1,0,0,2.15Z" transform="translate(1093.671 4270.167)" fill="#2680eb" stroke="#2680eb" stroke-width="0.5"/>
  </g>
</svg>
