<svg xmlns="http://www.w3.org/2000/svg" width="40.013" height="47.868" viewBox="0 0 40.013 47.868">
  <g id="Group_995" data-name="Group 995" transform="translate(-2324.428 -613.572)">
    <g id="Group_996" data-name="Group 996" transform="translate(306.871 2.572)">
      <path id="Path_1474" data-name="Path 1474" d="M2051.61,673.1a1.96,1.96,0,0,0-1.96,1.96v9.171a1.96,1.96,0,1,0,3.919,0V675.06A1.96,1.96,0,0,0,2051.61,673.1Z" transform="translate(-14.12 -27.328)" fill="#0092ff"/>
      <path id="Path_1475" data-name="Path 1475" d="M2066.9,665.744a1.96,1.96,0,0,0-1.96,1.96v13.289a1.96,1.96,0,1,0,3.919,0V667.7A1.96,1.96,0,0,0,2066.9,665.744Z" transform="translate(-20.85 -24.092)" fill="#0092ff"/>
      <path id="Path_1476" data-name="Path 1476" d="M2083.24,654.366a1.96,1.96,0,0,0-1.96,1.96v19.66a1.96,1.96,0,1,0,3.919,0v-19.66A1.96,1.96,0,0,0,2083.24,654.366Z" transform="translate(-28.043 -19.084)" fill="#0092ff"/>
      <path id="Path_1477" data-name="Path 1477" d="M2068.05,611.207a1.96,1.96,0,0,0-2.052.185l-8.959,6.719a1.96,1.96,0,1,0,2.352,3.135l5.7-4.272c-1.085,16.205-9,19.924-19.845,23.234a1.96,1.96,0,1,0,1.143,3.749c12.447-3.8,22.75-8.748,22.75-31a1.958,1.958,0,0,0-1.089-1.75Z" transform="translate(-11.569)" fill="#0092ff"/>
      <path id="Path_1478" data-name="Path 1478" d="M2022.84,645.312h6.106a1.96,1.96,0,0,0,0-3.919h-1.624V637.1a1.96,1.96,0,1,0-3.919,0v4.292h-.563c-3.012,0-5.283,1.677-5.283,3.9v5.123c0,2.224,2.271,3.9,5.283,3.9h2.783a2.823,2.823,0,0,1,1.363.3v4.037a2.814,2.814,0,0,1-1.363.3h-6.107a1.96,1.96,0,0,0,0,3.919h3.886v4.708a1.96,1.96,0,0,0,3.919,0v-4.826c0-.025-.007-.049-.007-.073,2.13-.5,3.591-1.927,3.591-3.71V654.3c0-2.224-2.271-3.9-5.283-3.9h-2.783a2.817,2.817,0,0,1-1.364-.3v-4.487a2.827,2.827,0,0,1,1.365-.3Z" transform="translate(0 -10.623)" fill="#0092ff"/>
    </g>
  </g>
</svg>
