<svg xmlns="http://www.w3.org/2000/svg" width="63.855" height="45.61" viewBox="0 0 63.855 45.61">
  <g id="Group_2412" data-name="Group 2412" transform="translate(-2555.463 -4607.586)">
    <path id="noun-logistics-4913184" d="M105,111.842A6.841,6.841,0,0,1,111.838,105H139.2a6.841,6.841,0,0,1,6.842,6.842v6.842h12.543a2.28,2.28,0,0,1,1.868.973l7.982,11.4a2.281,2.281,0,0,1,.412,1.308v11.4a2.281,2.281,0,0,1-2.281,2.281h-4.95a6.844,6.844,0,0,1-12.9,0H125.131a6.844,6.844,0,0,1-12.9,0h-4.95A2.281,2.281,0,0,1,105,143.769Zm43.719,29.647a6.844,6.844,0,0,1,12.9,0h2.67v-8.4l-6.889-9.841H146.046v18.244Zm-7.231-29.647v29.647H125.132a6.844,6.844,0,0,0-12.9,0h-2.67V111.842a2.281,2.281,0,0,1,2.281-2.281H139.2a2.281,2.281,0,0,1,2.281,2.281ZM116.4,143.769a2.281,2.281,0,1,1,2.281,2.281A2.281,2.281,0,0,1,116.4,143.769Zm36.488,0a2.281,2.281,0,1,1,2.281,2.281A2.281,2.281,0,0,1,152.888,143.769Z" transform="translate(2450.466 4502.586)" fill="#1992fb" fill-rule="evenodd"/>
  </g>
</svg>
