
<svg xmlns="http://www.w3.org/2000/svg" width="38.687" height="39.683" viewBox="0 0 38.687 39.683">
  <g id="Open_source_web_development_and_revamp" data-name="Open source web development and revamp" transform="translate(-239.054 -141.101)">
    <path id="Path_2065" data-name="Path 2065" d="M-25.687,399.42a8.714,8.714,0,0,0,4.5,5,8.756,8.756,0,0,0,3.781.863,8.726,8.726,0,0,0,2.929-.508,8.8,8.8,0,0,0,5.358-11.21,8.74,8.74,0,0,0-4.5-5,8.721,8.721,0,0,0-6.714-.355c-.027.011-.057.019-.084.031l.088-.829a1.142,1.142,0,0,0-1.016-1.257,1.136,1.136,0,0,0-1.26,1.02l-.4,3.777,3.88,1.7a1.147,1.147,0,0,0,.458.1,1.142,1.142,0,0,0,1.05-.687,1.144,1.144,0,0,0-.588-1.509l-.81-.355a6.483,6.483,0,0,1,4.4.435,6.451,6.451,0,0,1,3.323,3.7,6.5,6.5,0,0,1-3.961,8.284,6.432,6.432,0,0,1-4.961-.264,6.456,6.456,0,0,1-3.323-3.693,6.478,6.478,0,0,1-.344-2.773,1.142,1.142,0,0,0-1.031-1.249,1.142,1.142,0,0,0-1.249,1.031A8.675,8.675,0,0,0-25.687,399.42Z" transform="translate(286.362 -224.498)" fill="#ffc603"/>
    <path id="Path_2063" data-name="Path 2063" d="M676.429,161.659a4.519,4.519,0,1,0-5.933,4.286.225.225,0,0,0,.285-.16l.486-1.864a.226.226,0,0,0-.143-.266,2.15,2.15,0,1,1,1.836-.118.223.223,0,0,0-.112.256l.526,1.872a.225.225,0,0,0,.3.149A4.52,4.52,0,0,0,676.429,161.659Z" transform="translate(-416.508 0.285)" fill="#ffc603"/>
    <path id="Path_1492" data-name="Path 1492" d="M2343.066,647.379c0-1.034-.837-1.394-1.871-1.394l-13.455,0,.014-20.3h29.57v5.04c0,1.034.282,1.946,1.315,1.946s1.393-.873,1.393-1.907V615.824a1.988,1.988,0,0,0-1.872-2h-31.332a1.871,1.871,0,0,0-1.871,1.871l-.014,31.067a1.871,1.871,0,0,0,1.871,1.871l14.346.135C2342.194,648.767,2343.066,648.413,2343.066,647.379Zm14.258-30.953-.014,6.5h-29.57l.014-6.5Z" transform="translate(-2085.889 -472.721)" fill="#ffc603"/>
    <path id="Path_1493" data-name="Path 1493" d="M2335.187,625.5h.207a1.647,1.647,0,1,0,0-3.295h-.207a1.647,1.647,0,0,0,0,3.295Z" transform="translate(-2089.313 -476.704)" fill="#ffc603"/>
    <path id="Path_1494" data-name="Path 1494" d="M2344.188,625.5h.207a1.647,1.647,0,1,0,0-3.295h-.207a1.647,1.647,0,0,0,0,3.295Z" transform="translate(-2094.076 -476.704)" fill="#ffc603"/>
    <path id="Path_1495" data-name="Path 1495" d="M2353.188,625.5h.207a1.647,1.647,0,1,0,0-3.295h-.207a1.647,1.647,0,0,0,0,3.295Z" transform="translate(-2098.84 -476.704)" fill="#ffc603"/>
  </g>
</svg>
