<svg xmlns="http://www.w3.org/2000/svg" width="40.94" height="50.624" viewBox="0 0 40.94 50.624">
  <g id="Group_103748" data-name="Group 103748" transform="translate(-1585 -4526.281)">
    <g id="Group_103679" data-name="Group 103679">
      <path id="Path_2494" data-name="Path 2494" d="M474.159,161.342h2.493A1.138,1.138,0,0,0,477.8,160.2V132.344l.61.572a1.926,1.926,0,0,0,2.795-.16,2.117,2.117,0,0,0-.154-2.913l-17.845-16.676a2.73,2.73,0,0,0-3.761-.006l-18,16.676a2.117,2.117,0,0,0-.165,2.912,1.925,1.925,0,0,0,2.795.172l.241-.224v28.068l.017.446.026.768a1.071,1.071,0,0,0,1.05,1.057h31.346a1.073,1.073,0,0,0,1.05-1.094V158.47a1.139,1.139,0,0,0-1.14-1.138h-2.256c-.629,0-.566.51-.566,1.139H448.833V129.2L461.347,118.1l12.043,10.708V160.2C473.39,160.827,473.536,161.334,474.159,161.342Z" transform="translate(1144.223 4413.868)" fill="#1992fb"/>
      <g id="Rectangle_1168" data-name="Rectangle 1168" transform="translate(1600 4559.214)" fill="none" stroke="#1992fb" stroke-width="3">
        <rect width="12" height="15" stroke="none"/>
        <rect x="1.5" y="1.5" width="9" height="12" fill="none"/>
      </g>
    </g>
  </g>
</svg>
