<svg xmlns="http://www.w3.org/2000/svg" width="86.78" height="86.781" viewBox="0 0 86.78 86.781">
    <g id="Web_application_support_and_maintenance" data-name="Web application support and maintenance" transform="translate(-266.231 -116.367)">
    <ellipse id="Ellipse_10" data-name="Ellipse 10" cx="2.122" cy="2.122" rx="2.122" ry="2.122" transform="translate(278.245 125.771)" fill="#0092ff"/>
    <ellipse id="Ellipse_12" data-name="Ellipse 12" cx="2.122" cy="2.122" rx="2.122" ry="2.122" transform="translate(288.97 125.771)" fill="#0092ff"/>
    <ellipse id="Ellipse_11" data-name="Ellipse 11" cx="2.122" cy="2.122" rx="2.122" ry="2.122" transform="translate(283.607 125.771)" fill="#0092ff"/>
    <path id="Path_2067" data-name="Path 2067" d="M92.54,329.122l-5.3,5.227a1.081,1.081,0,0,1-1.494.023l-.085-.08a1.082,1.082,0,0,0-1.473,0l-3.658,3.414a1.082,1.082,0,0,0-.067,1.513l2.4,2.668a1.08,1.08,0,0,0,1.551.058l3.482-3.34a1.081,1.081,0,0,0,.082-1.472l-.34-.409a1.08,1.08,0,0,1,.062-1.451l5.425-5.5,3.021,3.2-2.517,2.55a1.081,1.081,0,0,0-.062,1.451l.41.492a1.081,1.081,0,0,1-.082,1.471l-9.715,9.321a1.081,1.081,0,0,1-1.552-.057l-8.317-9.256a1.08,1.08,0,0,1,.067-1.512l9.8-9.149a1.081,1.081,0,0,1,1.473,0h0a1.081,1.081,0,0,0,1.494-.023l2.387-2.355ZM98,317.561l2.533-2.5a1.081,1.081,0,0,0,.322-.769V310.37a1.081,1.081,0,0,1,.581-.958l11.656-6.076a1.079,1.079,0,0,1,1.263.193l4.692,4.692a1.081,1.081,0,0,1,.18,1.29l-6.114,10.98a1.082,1.082,0,0,1-.944.555h-3.791a1.081,1.081,0,0,0-.769.322l-3.032,3.07-3.014-3.2,4.209-4.262a1.081,1.081,0,0,1,.769-.322h3.045a1.082,1.082,0,0,0,.944-.555l3.243-5.824a1.082,1.082,0,0,0-.18-1.29l-.065-.065a1.082,1.082,0,0,0-1.264-.194l-6.433,3.354a1.081,1.081,0,0,0-.581.958v3.094a1.081,1.081,0,0,1-.322.769l-3.9,3.849Z" transform="translate(212.61 -155.703)" fill="#0092ff"/>
    <path id="Path_2068" data-name="Path 2068" d="M118.163,335.364c-1.224-2.785-4.387-5.7-8.083-5.889a7.331,7.331,0,0,0-.868.008h-.026l-13.97-14.25s-.025.221,0,.136a6.953,6.953,0,0,0,.16-.861c.481-3.661-1.822-7.3-4.344-9a2.422,2.422,0,0,0-3.771,2.27,4.074,4.074,0,0,1-.236,1.923,4.705,4.705,0,0,1-3.99,3.122,4.469,4.469,0,0,1-2.227-.405,2.348,2.348,0,0,0-2.556.363,2.445,2.445,0,0,0-.767,2.514,9.892,9.892,0,0,0,9.221,6.917c.076,0,.16-.017.236-.017l13.97,14.721a9.887,9.887,0,0,0,5.2,10.023,2.43,2.43,0,0,0,2.607-.3,2.349,2.349,0,0,0,.818-2.446,4.392,4.392,0,0,1,0-2.269,4.71,4.71,0,0,1,3.788-3.367,4.043,4.043,0,0,1,1.932.119,2.428,2.428,0,0,0,2.91-3.307Zm-28.633-17.9a4.984,4.984,0,0,1-2.185.912,5.738,5.738,0,0,1-4.742-1.747,6.33,6.33,0,0,0,.692-.017,8.437,8.437,0,0,0,7.3-5.61c.05-.135.092-.262.134-.4a5.378,5.378,0,0,1,.886,3.417,5.02,5.02,0,0,1-1.215,2.64A5.611,5.611,0,0,1,89.53,317.461Zm13.236,15.279L91.411,320.777a8.609,8.609,0,0,0,1.595-1.325L104.7,330.985A8.652,8.652,0,0,0,102.766,332.74Zm9.912,2.075a8.423,8.423,0,0,0-6.825,6.166,6.526,6.526,0,0,0-.143.684,5.818,5.818,0,0,1-.911-4.826c.017-.051.025-.1.042-.152a4.988,4.988,0,0,1,1.29-1.991,5.5,5.5,0,0,1,.945-.708,5.117,5.117,0,0,1,1.712-.633,4.825,4.825,0,0,1,1.1-.092,5.4,5.4,0,0,1,3.206,1.485A3.385,3.385,0,0,0,112.678,334.815Z" transform="translate(212.204 -155.93)" fill="#0092ff"/>
    <path id="Path_2062" data-name="Path 2062" d="M341.87,111.67H267.979a6.446,6.446,0,0,0-6.445,6.432v73.9a6.457,6.457,0,0,0,6.445,6.445h75.454a3.93,3.93,0,1,0,0-7.859H269.393V135.183h71.062V194.24a3.93,3.93,0,1,0,7.859,0V118.1A6.446,6.446,0,0,0,341.87,111.67Zm-72.476,15.653v-7.794h71.062v7.794Z" transform="translate(4.697 4.697)" fill="#0092ff"/>
    </g>
</svg>