
<svg xmlns="http://www.w3.org/2000/svg" width="38.025" height="41.374" viewBox="0 0 38.025 41.374">
  <g id="Website_development_and_maintenance" data-name="Website development and maintenance" transform="translate(-2318.499 -612.622)">
    <path id="Path_1492" data-name="Path 1492" d="M2343.066,647.379c0-1.034-.837-1.394-1.871-1.394l-13.455,0,.014-20.3h29.57v5.04c0,1.034.282,1.946,1.315,1.946s1.393-.873,1.393-1.907V615.824a1.988,1.988,0,0,0-1.872-2h-31.332a1.871,1.871,0,0,0-1.871,1.871l-.014,31.067a1.871,1.871,0,0,0,1.871,1.871l14.346.135C2342.194,648.767,2343.066,648.413,2343.066,647.379Zm14.258-30.953-.014,6.5h-29.57l.014-6.5Z" transform="translate(-6.444 -1.2)" fill="#0092ff"/>
    <path id="Path_1493" data-name="Path 1493" d="M2335.187,625.5h.207a1.647,1.647,0,1,0,0-3.295h-.207a1.647,1.647,0,0,0,0,3.295Z" transform="translate(-9.867 -5.183)" fill="#0092ff"/>
    <path id="Path_1494" data-name="Path 1494" d="M2344.188,625.5h.207a1.647,1.647,0,1,0,0-3.295h-.207a1.647,1.647,0,0,0,0,3.295Z" transform="translate(-14.631 -5.183)" fill="#0092ff"/>
    <path id="Path_1495" data-name="Path 1495" d="M2353.188,625.5h.207a1.647,1.647,0,1,0,0-3.295h-.207a1.647,1.647,0,0,0,0,3.295Z" transform="translate(-19.395 -5.183)" fill="#0092ff"/>
    <path id="Path_1668" data-name="Path 1668" d="M12.033.433A.955.955,0,0,0,10.711.155.946.946,0,0,0,10.4.493a.944.944,0,0,0-.149.383c-.023.153-.594,3.744-3.5,3.744S3.205,1.026,3.178.862a.952.952,0,0,0-.6-.737A.952.952,0,0,0,1.311.433a7.731,7.731,0,0,0,1.7,10.44l.524,10.742a.955.955,0,0,0,.953.908h.047a.955.955,0,0,0,.907-1l-.546-11.18a.956.956,0,0,0-.384-.72A5.619,5.619,0,0,1,2.091,3.5,5.2,5.2,0,0,0,6.751,6.53,5.068,5.068,0,0,0,11.3,3.646,5.6,5.6,0,0,1,8.833,9.622a.956.956,0,0,0-.384.72L7.9,21.522a.955.955,0,0,0,.907,1h.048a.955.955,0,0,0,.953-.908l.524-10.742A7.73,7.73,0,0,0,12.033.433Z" transform="translate(2331.979 636.492) rotate(-39)" fill="#0092ff"/>
  </g>
</svg>
