<svg xmlns="http://www.w3.org/2000/svg" viewBox="0 0 750 500"><g id="freepik--background-complete--inject-7"><path d="M72.27,321.46,67,341l6,1.6a4.8,4.8,0,0,1,3.44,3.68,29.94,29.94,0,0,0,.78,2.92,4.8,4.8,0,0,1-1.14,4.89l-4.37,4.38L86,372.73l4.37-4.38a4.81,4.81,0,0,1,4.9-1.14,27.23,27.23,0,0,0,2.91.79,4.8,4.8,0,0,1,3.69,3.44l1.59,6L123,372.18l-1.62-6a4.81,4.81,0,0,1,1.49-4.81c.37-.33.73-.67,1.08-1s.69-.71,1-1.07a4.79,4.79,0,0,1,4.79-1.49l6,1.61L141,339.88l-6-1.61a4.8,4.8,0,0,1-3.44-3.68,27.12,27.12,0,0,0-.77-2.91,4.79,4.79,0,0,1,1.14-4.89l4.37-4.38L122,308.12l-4.38,4.38a4.8,4.8,0,0,1-4.89,1.14,29.75,29.75,0,0,0-2.91-.78,4.79,4.79,0,0,1-3.68-3.43l-1.61-6-19.51,5.23,1.6,6a4.81,4.81,0,0,1-1.48,4.8c-.37.33-.73.68-1.09,1s-.69.72-1,1.08a4.83,4.83,0,0,1-4.82,1.49Zm20,7.26a16.55,16.55,0,1,1,0,23.4A16.54,16.54,0,0,1,92.32,328.72Z" style="fill:#ebebeb;opacity:0.5"></path><path d="M433,402.54l-5.23,19.51,6,1.6a4.79,4.79,0,0,1,3.44,3.68c.21,1,.47,1.95.78,2.92a4.76,4.76,0,0,1-1.14,4.89l-4.37,4.37,14.29,14.29,4.37-4.37a4.82,4.82,0,0,1,4.9-1.14,25.17,25.17,0,0,0,2.92.78,4.82,4.82,0,0,1,3.68,3.44l1.6,6,19.51-5.24-1.61-6a4.78,4.78,0,0,1,1.48-4.81c.37-.33.73-.68,1.08-1s.7-.71,1-1.08a4.79,4.79,0,0,1,4.79-1.48l6,1.61L501.75,421l-6-1.61a4.8,4.8,0,0,1-3.43-3.69,28.82,28.82,0,0,0-.78-2.9,4.81,4.81,0,0,1,1.14-4.9l4.38-4.37L482.78,389.2l-4.37,4.37a4.82,4.82,0,0,1-4.9,1.15,26.39,26.39,0,0,0-2.9-.78,4.79,4.79,0,0,1-3.69-3.44l-1.61-6-19.51,5.23,1.61,6a4.8,4.8,0,0,1-1.49,4.8c-.37.33-.73.68-1.08,1s-.7.71-1,1.08a4.81,4.81,0,0,1-4.81,1.49Zm20.05,7.26a16.55,16.55,0,1,1,0,23.4A16.55,16.55,0,0,1,453.06,409.8Z" style="fill:#ebebeb;opacity:0.5"></path><path d="M564.88,52.78l-5.23,19.51,6,1.6a4.8,4.8,0,0,1,3.44,3.68,29.2,29.2,0,0,0,.78,2.92,4.81,4.81,0,0,1-1.14,4.9l-4.37,4.37,14.29,14.29L583,99.68a4.81,4.81,0,0,1,4.9-1.14,29.75,29.75,0,0,0,2.91.78,4.82,4.82,0,0,1,3.69,3.44l1.59,6,19.52-5.24-1.62-6a4.83,4.83,0,0,1,1.49-4.82q.56-.5,1.08-1t1-1.08a4.8,4.8,0,0,1,4.79-1.48l6,1.61,5.24-19.51-6-1.61a4.82,4.82,0,0,1-3.44-3.69,27.12,27.12,0,0,0-.77-2.91,4.8,4.8,0,0,1,1.14-4.89l4.37-4.37L614.65,39.45l-4.38,4.37A4.8,4.8,0,0,1,605.38,45a27.12,27.12,0,0,0-2.91-.77,4.81,4.81,0,0,1-3.69-3.44l-1.6-6L577.67,40l1.6,6a4.81,4.81,0,0,1-1.48,4.8c-.37.33-.73.67-1.09,1s-.69.71-1,1.08a4.83,4.83,0,0,1-4.82,1.49Zm20,7.27a16.55,16.55,0,1,1,0,23.4A16.54,16.54,0,0,1,584.93,60.05Z" style="fill:#ebebeb"></path><path d="M650.42,132.5l4.58,7.94,2.43-1.4a2.17,2.17,0,0,1,2.29.07,12.55,12.55,0,0,0,1.18.69,2.16,2.16,0,0,1,1.21,1.94v2.8h9.17v-2.8a2.17,2.17,0,0,1,1.2-1.94,12.71,12.71,0,0,0,1.19-.69A2.16,2.16,0,0,1,676,139l2.43,1.4L683,132.5l-2.44-1.4a2.19,2.19,0,0,1-1.06-2c0-.22,0-.45,0-.67s0-.45,0-.68a2.14,2.14,0,0,1,1.06-2L683,124.3l-4.58-7.94-2.43,1.4a2.17,2.17,0,0,1-2.29-.08,12.47,12.47,0,0,0-1.18-.68,2.19,2.19,0,0,1-1.2-1.94v-2.8h-9.17v2.8A2.19,2.19,0,0,1,660.9,117c-.4.21-.8.43-1.18.68a2.16,2.16,0,0,1-2.28.08l-2.44-1.4-4.58,7.94,2.44,1.4a2.19,2.19,0,0,1,1.06,2c0,.22,0,.45,0,.68s0,.45,0,.67a2.19,2.19,0,0,1-1.07,2Zm8.76-4.1a7.51,7.51,0,1,1,7.51,7.51A7.51,7.51,0,0,1,659.18,128.4Z" style="fill:#ebebeb;opacity:0.5"></path><path d="M279.56,133l4.58,7.94,2.43-1.41a2.18,2.18,0,0,1,2.28.08c.39.25.78.48,1.19.69a2.18,2.18,0,0,1,1.21,1.93V145h9.16v-2.81a2.18,2.18,0,0,1,1.21-1.93c.41-.21.8-.44,1.19-.69a2.18,2.18,0,0,1,2.28-.08l2.43,1.41L312.1,133l-2.44-1.41a2.19,2.19,0,0,1-1.07-2c0-.22,0-.45,0-.67s0-.45,0-.68a2.17,2.17,0,0,1,1.06-2l2.45-1.42-4.58-7.93-2.44,1.4a2.18,2.18,0,0,1-2.28-.08,11.61,11.61,0,0,0-1.18-.68,2.2,2.2,0,0,1-1.21-1.94V112.7h-9.16v2.81a2.2,2.2,0,0,1-1.21,1.94,11.61,11.61,0,0,0-1.18.68,2.18,2.18,0,0,1-2.28.08l-2.44-1.4-4.58,7.93,2.44,1.41a2.18,2.18,0,0,1,1.06,2c0,.22,0,.45,0,.68s0,.45,0,.67a2.17,2.17,0,0,1-1.07,2Zm8.76-4.1a7.51,7.51,0,1,1,7.51,7.51A7.51,7.51,0,0,1,288.32,128.85Z" style="fill:#ebebeb;opacity:0.5"></path><path d="M137.08,281.2l4.58,7.94,2.43-1.4a2.18,2.18,0,0,1,2.28.08,12.63,12.63,0,0,0,1.19.68,2.19,2.19,0,0,1,1.2,1.94v2.8h9.17v-2.8a2.2,2.2,0,0,1,1.21-1.94c.41-.21.8-.43,1.19-.68a2.18,2.18,0,0,1,2.28-.08l2.43,1.4,4.58-7.94-2.44-1.4a2.18,2.18,0,0,1-1.07-2c0-.23,0-.45,0-.68s0-.45,0-.67a2.19,2.19,0,0,1,1.06-2l2.45-1.41L165,265.06l-2.44,1.41a2.18,2.18,0,0,1-2.28-.08c-.38-.25-.78-.48-1.18-.69a2.16,2.16,0,0,1-1.21-1.93V261h-9.17v2.81a2.17,2.17,0,0,1-1.2,1.93,12.55,12.55,0,0,0-1.18.69,2.2,2.2,0,0,1-2.29.08l-2.43-1.41L137.08,273l2.44,1.41a2.17,2.17,0,0,1,1.06,2c0,.23,0,.45,0,.68s0,.45,0,.68a2.18,2.18,0,0,1-1.07,2Zm8.76-4.1a7.51,7.51,0,1,1,7.51,7.51A7.5,7.5,0,0,1,145.84,277.1Z" style="fill:#ebebeb"></path></g><g id="freepik--Floor--inject-7"><path d="M21.26,465.6c226.63-.62,480.85-.62,707.48,0-226.63.62-480.85.62-707.48,0Z" style="fill:#263238"></path></g><g id="freepik--Gear--inject-7"><path d="M479.78,257.21l.89-30.37-23.19-2.5a88.17,88.17,0,0,0-12.77-31.49l15.34-16.91-20.86-22.13-18.08,14.61a88,88,0,0,0-31.42-13.86l-1.06-22.15-30.37-.89-2.38,22a88.81,88.81,0,0,0-33.12,12.58l-15.42-14L285.23,173l13,16.19a87.52,87.52,0,0,0-14.93,33.44l-19.55.93-.89,30.39,19.71,2.12a87.64,87.64,0,0,0,13.8,34.62l-12.89,14.18,20.84,22.09,15.51-12.5A87.63,87.63,0,0,0,354,328.6l1,19.78,30.37.89,2.25-20.88a88.92,88.92,0,0,0,33-13.94l15.64,14.2,22.12-20.84-14.07-17.47a87.74,87.74,0,0,0,13.15-32ZM371.65,285.58a45.19,45.19,0,1,1,45.33-45A45.2,45.2,0,0,1,371.65,285.58Z" style="fill:#3FAAF0"></path><path d="M371.68,278.92a38.53,38.53,0,1,1,38.64-38.41A38.57,38.57,0,0,1,371.68,278.92Zm.21-73.24A34.71,34.71,0,1,0,406.5,240.5,34.75,34.75,0,0,0,371.89,205.68Z" style="fill:#3FAAF0"></path><g style="opacity:0.5"><path d="M479.78,257.21l.89-30.37-23.19-2.5a88.17,88.17,0,0,0-12.77-31.49l15.34-16.91-20.86-22.13-18.08,14.61a88,88,0,0,0-31.42-13.86l-1.06-22.15-30.37-.89-2.38,22a88.81,88.81,0,0,0-33.12,12.58l-15.42-14L285.23,173l13,16.19a87.52,87.52,0,0,0-14.93,33.44l-19.55.93-.89,30.39,19.71,2.12a87.64,87.64,0,0,0,13.8,34.62l-12.89,14.18,20.84,22.09,15.51-12.5A87.63,87.63,0,0,0,354,328.6l1,19.78,30.37.89,2.25-20.88a88.92,88.92,0,0,0,33-13.94l15.64,14.2,22.12-20.84-14.07-17.47a87.74,87.74,0,0,0,13.15-32ZM371.65,285.58a45.19,45.19,0,1,1,45.33-45A45.2,45.2,0,0,1,371.65,285.58Z" style="fill:#fff"></path><path d="M371.68,278.92a38.53,38.53,0,1,1,38.64-38.41A38.57,38.57,0,0,1,371.68,278.92Zm.21-73.24A34.71,34.71,0,1,0,406.5,240.5,34.75,34.75,0,0,0,371.89,205.68Z" style="fill:#fff"></path></g></g><g id="freepik--Graphic--inject-7"><path d="M683.1,434.12l-39,31.34H372.22c-114.43,0-207.53-93.1-207.53-207.52v-5.23h62.66v5.23c0,79.86,65,144.85,144.87,144.85h271.9Z" style="fill:#3FAAF0"></path><g style="opacity:0.4"><path d="M683.1,434.12l-39,31.34H372.22c-114.43,0-207.53-93.1-207.53-207.52v-5.23h62.66v5.23c0,79.86,65,144.85,144.87,144.85h271.9Z"></path></g><path d="M377.44,50.4v62.67h-5.22a143.36,143.36,0,0,0-64.89,15.3,144.92,144.92,0,0,0-80,129.57v1.28l-31.54,26.09-31.12-26.09v-1.28A207.44,207.44,0,0,1,372.22,50.4Z" style="fill:#3FAAF0"></path><g style="opacity:0.30000000000000004"><path d="M377.44,50.4v62.67h-5.22a143.36,143.36,0,0,0-64.89,15.3,144.92,144.92,0,0,0-80,129.57v1.28l-31.54,26.09-31.12-26.09v-1.28A207.44,207.44,0,0,1,372.22,50.4Z"></path></g><path d="M579.74,257.94v5.22H517.08v-5.22A144.94,144.94,0,0,0,307.33,128.37l-1.06.53-41.78-12.46L278,73l1.25-.62a205.36,205.36,0,0,1,93-22A207.42,207.42,0,0,1,579.74,257.94Z" style="fill:#3FAAF0"></path><g style="opacity:0.2"><path d="M579.74,257.94v5.22H517.08v-5.22A144.94,144.94,0,0,0,307.33,128.37l-1.06.53-41.78-12.46L278,73l1.25-.62a205.36,205.36,0,0,1,93-22A207.42,207.42,0,0,1,579.74,257.94Z"></path></g><path d="M579.74,257.94c0,114.42-93.08,207.52-207.52,207.52H367V402.79h5.22c79.88,0,144.86-65,144.86-144.85a144.63,144.63,0,0,0-77.69-128.41l-1-.55-9.23-39.63,38.13-16,1.24.65A207.08,207.08,0,0,1,579.74,257.94Z" style="fill:#3FAAF0"></path><g style="opacity:0.1"><path d="M579.74,257.94c0,114.42-93.08,207.52-207.52,207.52H367V402.79h5.22c79.88,0,144.86-65,144.86-144.85a144.63,144.63,0,0,0-77.69-128.41l-1-.55-9.23-39.63,38.13-16,1.24.65A207.08,207.08,0,0,1,579.74,257.94Z"></path></g><path d="M579.74,256.64v1.3c0,114.42-93.08,207.52-207.52,207.52h-305V402.79H372.22c79.88,0,144.86-65,144.86-144.85v-1.3l30.58-26.8Z" style="fill:#3FAAF0"></path><path d="M233.73,366.38a.79.79,0,0,1,1.11-.21,1.08,1.08,0,0,1,.23.22h0a1.08,1.08,0,0,1,.22.55,1.49,1.49,0,0,1-.12.68,3.77,3.77,0,0,1-1.2,1.3,1.27,1.27,0,0,0-.39.52,1.31,1.31,0,0,0-.06.6,2.53,2.53,0,0,0,.22.86l1,1.36,2.5-1.92a.81.81,0,0,1,1,1.28l-6.79,5.22a.79.79,0,0,1-1.12-.15h0l-1.58-2.05a3.11,3.11,0,0,1,.59-4.37,3.07,3.07,0,0,1,2.57-.55,2.37,2.37,0,0,1,.12-.73,2.83,2.83,0,0,1,.95-1.34,3.62,3.62,0,0,0,.65-.56A.78.78,0,0,1,233.73,366.38Zm-3.39,5.17a1.5,1.5,0,0,0-.29,2.11l1.09,1.41,2.37-1.82-1.09-1.42A1.48,1.48,0,0,0,230.34,371.55Z" style="fill:#fff"></path><path d="M232.75,364.3l-7.06,4.85a.78.78,0,0,1-1.11-.2h0v0L221.89,365a.81.81,0,0,1,1.33-.91l2.23,3.25,2.19-1.51-1.92-2.79a.82.82,0,0,1,.21-1.11.81.81,0,0,1,1.12.2L229,365l2.2-1.51-2.23-3.25a.81.81,0,0,1,1.33-.91l2.67,3.88s0,0,0,0h0A.8.8,0,0,1,232.75,364.3Z" style="fill:#fff"></path><path d="M226.81,354.06a.49.49,0,0,0,0,.13s0,0,0,0a.36.36,0,0,1,0,.11,0,0,0,0,1,0,0,.34.34,0,0,0-.06.12l-5.43,7.43A.79.79,0,0,1,220,361l4.3-5.9L217,356.11a.79.79,0,0,1-.9-.68.81.81,0,0,1,.66-.91l9.12-1.31a.53.53,0,0,1,.13,0h0l.11,0h.05l.11,0,0,0,.12.06s0,0,0,0a.34.34,0,0,0,.08.09l0,0a.42.42,0,0,1,.08.12.27.27,0,0,1,.07.13v0a.25.25,0,0,0,0,.12v0h0a1,1,0,0,1,0,.16Z" style="fill:#fff"></path><path d="M215.27,352.56a.78.78,0,0,1-1.08-.31.82.82,0,0,1,.31-1.1L222,347a.81.81,0,0,1,1.09.33.78.78,0,0,1-.32,1.08Z" style="fill:#fff"></path><path d="M220.74,344.67l-7.67,3.82a.8.8,0,0,1-1.08-.36h0v0l-2.1-4.21a.81.81,0,0,1,.36-1.08.82.82,0,0,1,1.08.36l1.76,3.52,2.38-1.18-1.51-3a.8.8,0,0,1,.36-1.07.8.8,0,0,1,1.08.35l1.51,3,2.4-1.19-1.76-3.53a.83.83,0,0,1,.37-1.08.84.84,0,0,1,1.08.36l2.09,4.22s0,0,0,0h0A.8.8,0,0,1,220.74,344.67Z" style="fill:#fff"></path><path d="M204.29,327.76l9.19.09a.38.38,0,0,1,.15,0h0a.3.3,0,0,1,.11,0s0,0,0,0l.11.07h0c.05,0,.1,0,.13.09h0s0,0,0,0a.46.46,0,0,0,.07.1v0a.63.63,0,0,1,.07.12.5.5,0,0,1,0,.13l0,0a.34.34,0,0,0,0,.11s0,0,0,0a.33.33,0,0,1,0,.15v0a1,1,0,0,1,0,.12s0,0,0,0a.47.47,0,0,0-.06.09s0,0,0,0-.06.07-.1.1l-3.44,3.47,4.89.06h.14s0,0,0,0l.11.05h.05s.06,0,.1.06v0l.12.07h0s0,0,0,0a.21.21,0,0,0,.07.1l0,0a.39.39,0,0,1,.06.11.37.37,0,0,1,0,.14l0,0a.34.34,0,0,0,0,.11s0,0,0,0a.76.76,0,0,1,0,.16h0a.7.7,0,0,0,0,.12l0,0a.54.54,0,0,1-.05.11h0s-.07.07-.1.12l-6.49,6.52a.79.79,0,0,1-1.12,0,.78.78,0,0,1,0-1.11l5.15-5.19-4.84,0a.81.81,0,0,1-.74-.51.83.83,0,0,1,.17-.89l3.42-3.43-7.3-.07a.8.8,0,0,1-.79-.82A.78.78,0,0,1,204.29,327.76Z" style="fill:#fff"></path><path d="M214.08,194.9l-7.91-3.31a.8.8,0,0,1-.43-1.05l.67-1.58a5.09,5.09,0,0,1,9.38,3.93l-.66,1.58A.8.8,0,0,1,214.08,194.9Zm-.13-1.8.35-.83a3.48,3.48,0,0,0-6.41-2.69l-.34.83Z" style="fill:#fff"></path><path d="M217.83,186l-7.76-3.65a.78.78,0,0,1-.38-1.06h0l0,0,2-4.26a.8.8,0,0,1,1.06-.38.82.82,0,0,1,.4,1.07l-1.68,3.56,2.41,1.13,1.44-3.06a.81.81,0,0,1,1.46.68l-1.44,3.07,2.42,1.13,1.67-3.56a.83.83,0,0,1,1.08-.38.82.82,0,0,1,.38,1.06l-2,4.26s0,0,0,0v0A.8.8,0,0,1,217.83,186Z" style="fill:#fff"></path><path d="M220.35,173.83l-.84,1.57,2.78,1.49a.81.81,0,0,1-.76,1.42l-7.56-4a.8.8,0,0,1-.33-1.09h0l1.22-2.28a3.11,3.11,0,1,1,5.49,2.93Zm-2.27.81.85-1.57a1.5,1.5,0,1,0-2.65-1.41l-.84,1.58Z" style="fill:#fff"></path><path d="M225.54,171l-7.35-4.41a.8.8,0,0,1-.28-1.1.81.81,0,0,1,1.11-.28l6.65,4,2-3.38a.81.81,0,0,1,1.38.83l-2.42,4v0h0A.8.8,0,0,1,225.54,171Z" style="fill:#fff"></path><path d="M227.22,153.32a5.34,5.34,0,0,1,6.08,4.13,4.82,4.82,0,0,1-.67,3.75,4.9,4.9,0,0,1-3.29,2.07,5.44,5.44,0,0,1-6.08-4.13,4.85,4.85,0,0,1,.72-3.82A4.68,4.68,0,0,1,227.22,153.32Zm2.93,2.22a3.82,3.82,0,0,0-2.66-.61,3.14,3.14,0,0,0-2.61,3.85,3.65,3.65,0,0,0,1.55,2.24,3.61,3.61,0,0,0,2.64.61,3.1,3.1,0,0,0,2.61-3.85A3.7,3.7,0,0,0,230.15,155.54Z" style="fill:#fff"></path><path d="M233.86,144.66l1.43,4.85,3.11,2.38a.79.79,0,0,1,.15,1.13.8.8,0,0,1-1.12.14l-3.11-2.38-5-.15a.76.76,0,0,1-.78-.8.78.78,0,0,1,.81-.77l4.21.1-1.18-4a.8.8,0,0,1,.54-1A.81.81,0,0,1,233.86,144.66Z" style="fill:#fff"></path><path d="M364,85.56l-2.3.22.73,7.72a.79.79,0,0,1-.72.87.8.8,0,0,1-.87-.72l-.73-7.72-2.29.21a.81.81,0,0,1-.87-.73.79.79,0,0,1,.72-.87l6.18-.59a.8.8,0,0,1,.87.72A.82.82,0,0,1,364,85.56Z" style="fill:#fff"></path><path d="M367.87,93.08l-.34-8.56a.79.79,0,0,1,.77-.83h0l4.7-.19a.8.8,0,0,1,.83.76.82.82,0,0,1-.76.85l-3.94.16.11,2.65,3.38-.13a.81.81,0,0,1,.06,1.61l-3.38.13.11,2.67,3.93-.15a.81.81,0,0,1,.07,1.61l-4.71.19a0,0,0,0,1,0,0l0,0A.8.8,0,0,1,367.87,93.08Z" style="fill:#fff"></path><path d="M376.12,91.07a.76.76,0,0,1,1.06-.08,4.79,4.79,0,0,0,2.75,1.16,3.17,3.17,0,0,0,1.83-.51,1.34,1.34,0,0,0,.64-1,.83.83,0,0,0-.13-.47,1.35,1.35,0,0,0-.43-.44,5.73,5.73,0,0,0-2-.71h0a7.89,7.89,0,0,1-1.87-.6,3.11,3.11,0,0,1-1.33-1.15,2.32,2.32,0,0,1-.32-1.2,2.69,2.69,0,0,1,1.2-2.1A4.27,4.27,0,0,1,380,83.2a5.69,5.69,0,0,1,3.15,1.21.75.75,0,0,1-.85,1.24,4.16,4.16,0,0,0-2.32-1,2.82,2.82,0,0,0-1.64.47,1.14,1.14,0,0,0-.56.91.7.7,0,0,0,.09.4,1.42,1.42,0,0,0,.39.39,4.78,4.78,0,0,0,1.81.66h0a8.09,8.09,0,0,1,2,.64,3.36,3.36,0,0,1,1.43,1.22,2.28,2.28,0,0,1,.33,1.24,2.83,2.83,0,0,1-1.28,2.24,4.53,4.53,0,0,1-2.7.78,6.26,6.26,0,0,1-3.7-1.51A.77.77,0,0,1,376.12,91.07Z" style="fill:#fff"></path><path d="M392.53,85.73l-2.3-.16-.56,7.73a.78.78,0,0,1-.85.74.8.8,0,0,1-.74-.85l.55-7.74-2.29-.16a.81.81,0,0,1-.74-.87.8.8,0,0,1,.86-.74l6.19.44a.8.8,0,0,1,.74.85A.83.83,0,0,1,392.53,85.73Z" style="fill:#fff"></path><path d="M494.91,141l6.41-5.68a.79.79,0,0,1,1.13.07l1.14,1.28A5.08,5.08,0,0,1,496,143.4l-1.14-1.28A.79.79,0,0,1,494.91,141Zm1.68.67.59.67a3.47,3.47,0,0,0,5.2-4.6l-.6-.67Z" style="fill:#fff"></path><path d="M501.23,148.25l6.71-5.34a.79.79,0,0,1,1.12.13h0l0,0,2.93,3.69a.8.8,0,0,1-.13,1.12.81.81,0,0,1-1.13-.12l-2.45-3.08-2.08,1.66,2.1,2.65a.8.8,0,0,1-1.26,1L505,147.34,502.87,149l2.45,3.09a.8.8,0,0,1-1.26,1l-2.94-3.69s0,0,0,0h0A.79.79,0,0,1,501.23,148.25Z" style="fill:#fff"></path><path d="M507.89,158.07a.56.56,0,0,0,0-.13s0,0,0,0a.2.2,0,0,1,0-.11,0,0,0,0,1,0,0s0-.09.05-.13l4.9-7.8a.77.77,0,0,1,1.09-.24.79.79,0,0,1,.25,1.09l-3.87,6.19,7.14-1.55a.8.8,0,0,1,.35,1.56l-9,1.95a.27.27,0,0,1-.13,0h0s-.08,0-.11,0h-.06l-.11,0,0,0a.51.51,0,0,1-.12-.05h0a.18.18,0,0,0-.09-.08l0,0a.44.44,0,0,1-.09-.11.5.5,0,0,1-.08-.12v0l0-.11a0,0,0,0,0,0,0h0v-.16Z" style="fill:#fff"></path><path d="M512.38,163.49l7.28-4.54a.8.8,0,0,1,1.1.26h0v0l2.5,4a.81.81,0,0,1-.26,1.1.82.82,0,0,1-1.11-.24l-2.09-3.35-2.25,1.41,1.79,2.88a.82.82,0,0,1-.26,1.1.8.8,0,0,1-1.11-.25L516.2,163l-2.27,1.41,2.08,3.34a.81.81,0,0,1-.26,1.11.84.84,0,0,1-1.11-.25l-2.49-4s0,0,0,0h0A.79.79,0,0,1,512.38,163.49Z" style="fill:#fff"></path><path d="M516.85,170.81l7.49-4.15a.79.79,0,0,1,1.08.31.81.81,0,0,1-.3,1.1l-6.78,3.75,1.9,3.45a.81.81,0,0,1-.32,1.09.82.82,0,0,1-1.08-.31l-2.28-4.12,0,0v0A.79.79,0,0,1,516.85,170.81Z" style="fill:#fff"></path><path d="M531.25,181.06a5.32,5.32,0,0,1-6.62,3.19,4.77,4.77,0,0,1-2.91-2.45,4.91,4.91,0,0,1-.14-3.88,5.42,5.42,0,0,1,6.62-3.19,4.84,4.84,0,0,1,2.95,2.53A4.67,4.67,0,0,1,531.25,181.06Zm-3.39,1.43a3.77,3.77,0,0,0,1.86-2,3.12,3.12,0,0,0-2-4.18,3.74,3.74,0,0,0-4.57,2.2,3.12,3.12,0,0,0,.08,2.57,3.07,3.07,0,0,0,1.94,1.61A3.65,3.65,0,0,0,527.86,182.49Z" style="fill:#fff"></path><path d="M529.87,190.43l-.68-1.65L526.27,190a.81.81,0,0,1-.61-1.5l7.94-3.24a.8.8,0,0,1,1,.44v0l1,2.39a3.11,3.11,0,1,1-5.75,2.35Zm.81-2.26.68,1.65a1.5,1.5,0,1,0,2.77-1.13l-.67-1.65Z" style="fill:#fff"></path><path d="M509.9,376.86,503,371.75a.78.78,0,0,1-.17-1.12l1-1.38a5.09,5.09,0,0,1,8.16,6.07l-1,1.37A.8.8,0,0,1,509.9,376.86Zm.31-1.78.54-.73a3.47,3.47,0,0,0-5.57-4.13l-.54.72Z" style="fill:#fff"></path><path d="M515.79,368.78l-7.16-4.72a.79.79,0,0,1-.22-1.11h0l0,0L511,359a.8.8,0,0,1,1.11-.23.81.81,0,0,1,.24,1.11l-2.17,3.29,2.22,1.46,1.86-2.82a.83.83,0,0,1,1.11-.23.81.81,0,0,1,.24,1.12l-1.86,2.82L516,367l2.17-3.29a.81.81,0,0,1,1.11-.22.82.82,0,0,1,.23,1.11l-2.59,3.93s0,0,0,0v0A.79.79,0,0,1,515.79,368.78Z" style="fill:#fff"></path><path d="M519,360.72a.76.76,0,0,1,.44-1,4.75,4.75,0,0,0,2.37-1.84,3.23,3.23,0,0,0,.45-1.84,1.32,1.32,0,0,0-.59-1.06.84.84,0,0,0-.47-.13,1.63,1.63,0,0,0-.6.16,6,6,0,0,0-1.59,1.38v0a7.8,7.8,0,0,1-1.44,1.34,3.07,3.07,0,0,1-1.66.59,2.13,2.13,0,0,1-1.19-.31,2.64,2.64,0,0,1-1.25-2.07,4.22,4.22,0,0,1,.6-2.56,5.71,5.71,0,0,1,2.6-2.15.75.75,0,0,1,1,.34.74.74,0,0,1-.33,1,4.14,4.14,0,0,0-2,1.55,2.71,2.71,0,0,0-.39,1.65,1.15,1.15,0,0,0,.51.94.71.71,0,0,0,.4.12,1.49,1.49,0,0,0,.53-.15,5.08,5.08,0,0,0,1.46-1.25l0,0a8.42,8.42,0,0,1,1.53-1.43,3.4,3.4,0,0,1,1.78-.65,2.44,2.44,0,0,1,1.24.32,2.85,2.85,0,0,1,1.32,2.22,4.6,4.6,0,0,1-.64,2.74,6.33,6.33,0,0,1-3.13,2.48A.78.78,0,0,1,519,360.72Z" style="fill:#fff"></path><path d="M518,348.61a.78.78,0,0,1-.34-1.07.81.81,0,0,1,1.09-.35l7.59,4a.81.81,0,0,1,.33,1.09.79.79,0,0,1-1.08.33Z" style="fill:#fff"></path><path d="M523.5,347.07A5.3,5.3,0,0,1,521,340a5.36,5.36,0,0,1,2.42-2.53.82.82,0,0,1,1.13.35.85.85,0,0,1-.37,1.12,3.81,3.81,0,0,0-1.68,1.75,3.65,3.65,0,0,0-.13,2.82,3.44,3.44,0,0,0,4.56,2.11A3.66,3.66,0,0,0,529,343.7a4,4,0,0,0,.33-2l-1.8-.83-.87,1.88a.85.85,0,0,1-1.1.41.82.82,0,0,1-.39-1.1l1.19-2.59v0h0a.81.81,0,0,1,1.09-.42l2.91,1.34a1.53,1.53,0,0,1,.21.14l.05.06h0a.67.67,0,0,1,.21.39,5.37,5.37,0,0,1-.36,3.47A5.26,5.26,0,0,1,523.5,347.07Z" style="fill:#fff"></path><path d="M533.24,335.87a.79.79,0,1,1-.55,1.48l-7.9-3h0a.79.79,0,0,1,0-1.51l7.72-2.11-5.6-2.1a.78.78,0,0,1-.45-1,.79.79,0,0,1,1-.47l7.9,3a.8.8,0,0,1,.46,1,.77.77,0,0,1-.48.45.26.26,0,0,1-.1,0l-7.68,2.08Z" style="fill:#fff"></path><path d="M172.8,439.17H171v3.15a.81.81,0,0,1-1.61,0v-8.57a.8.8,0,0,1,.8-.8h2.59a3.11,3.11,0,1,1,0,6.22ZM171,437.55h1.78a1.5,1.5,0,1,0,0-3H171Z" style="fill:#fff"></path><path d="M177.89,442.32v-8.57a.8.8,0,0,1,.8-.8.81.81,0,0,1,.81.8v7.75h3.94a.81.81,0,0,1,0,1.62h-4.75A.8.8,0,0,1,177.89,442.32Z" style="fill:#fff"></path><path d="M191.25,440.72h-3.53l-.71,1.89a.81.81,0,0,1-.75.51.81.81,0,0,1-.76-1.09l3.21-8.56a.8.8,0,0,1,.77-.5.79.79,0,0,1,.77.5l3.21,8.56a.82.82,0,0,1-.48,1,.8.8,0,0,1-1-.46Zm-.59-1.6L189.48,436l-1.18,3.12Z" style="fill:#fff"></path><path d="M197.07,442.32a.79.79,0,1,1-1.58,0v-8.44h0a.77.77,0,0,1,.32-.67.79.79,0,0,1,1.1.17l4.69,6.49v-6a.79.79,0,0,1,.78-.78.8.8,0,0,1,.8.78v8.44a.81.81,0,0,1-.8.8.79.79,0,0,1-.59-.29.28.28,0,0,1-.07-.09l-4.65-6.45Z" style="fill:#fff"></path><path d="M522.35,442.32v-8.57a.8.8,0,0,1,.8-.8.81.81,0,0,1,.81.8v7.75h3.94a.81.81,0,0,1,0,1.62h-4.75A.8.8,0,0,1,522.35,442.32Z" style="fill:#fff"></path><path d="M535.72,440.72H532.2l-.71,1.89a.83.83,0,0,1-.76.51.87.87,0,0,1-.28-.05.82.82,0,0,1-.48-1l3.21-8.56a.8.8,0,0,1,.77-.5.78.78,0,0,1,.77.5l3.21,8.56a.82.82,0,0,1-.48,1,.72.72,0,0,1-.27.05.78.78,0,0,1-.74-.51Zm-.59-1.6L534,436l-1.17,3.12Z" style="fill:#fff"></path><path d="M543.76,443.12a4.19,4.19,0,0,1-4.19-4.2v-5.17a.79.79,0,0,1,.8-.8.81.81,0,0,1,.81.8v5.17a2.59,2.59,0,0,0,5.17,0v-5.17a.8.8,0,0,1,.81-.8.79.79,0,0,1,.8.8v5.17A4.2,4.2,0,0,1,543.76,443.12Z" style="fill:#fff"></path><path d="M552.79,442.32a.79.79,0,1,1-1.58,0v-8.44h0a.79.79,0,0,1,1.42-.5l4.69,6.49v-6a.79.79,0,0,1,.79-.78.81.81,0,0,1,.8.78v8.44a.79.79,0,0,1-1.4.51.28.28,0,0,1-.07-.09l-4.65-6.45Z" style="fill:#fff"></path><path d="M561.93,437.89a5.33,5.33,0,0,1,5.33-5.23,5.41,5.41,0,0,1,3.35,1.13.87.87,0,0,1,.15,1.17.85.85,0,0,1-1.16.16,3.59,3.59,0,0,0-2.34-.8,3.87,3.87,0,0,0-2.62,1,3.6,3.6,0,0,0-1.06,2.53,3.51,3.51,0,0,0,1.06,2.52,3.88,3.88,0,0,0,2.62,1,3.63,3.63,0,0,0,2.34-.8.87.87,0,0,1,1.16.16.85.85,0,0,1-.15,1.16,5.42,5.42,0,0,1-3.35,1.14A5.31,5.31,0,0,1,561.93,437.89Z" style="fill:#fff"></path><path d="M573.61,442.32v-8.57a.79.79,0,0,1,.8-.8.8.8,0,0,1,.81.8v3.49H579v-3.49a.79.79,0,0,1,.8-.8.8.8,0,0,1,.81.8v8.57a.8.8,0,0,1-.81.8.79.79,0,0,1-.8-.8v-3.49h-3.76v3.49a.8.8,0,0,1-.81.8A.79.79,0,0,1,573.61,442.32Z" style="fill:#fff"></path></g><g id="freepik--light-bulb--inject-7"><path d="M129.67,53.64a51.49,51.49,0,0,1-.23-14.51,51.12,51.12,0,0,1,.23,14.51Z" style="fill:#263238"></path><path d="M96.54,62.78a51.4,51.4,0,0,1-7.45-12.45,51.53,51.53,0,0,1,7.45,12.45Z" style="fill:#263238"></path><path d="M72.41,87.26A51.46,51.46,0,0,1,59.74,80.2a51.1,51.1,0,0,1,12.67,7.06Z" style="fill:#263238"></path><path d="M63.76,120.52a51.42,51.42,0,0,1-14.5.23,51.05,51.05,0,0,1,14.5-.23Z" style="fill:#263238"></path><path d="M72.9,153.65a51.34,51.34,0,0,1-12.44,7.45,51.34,51.34,0,0,1,12.44-7.45Z" style="fill:#263238"></path><path d="M187.9,152.81a51.07,51.07,0,0,1,12.67,7.05,51.43,51.43,0,0,1-12.67-7.05Z" style="fill:#263238"></path><path d="M196.55,119.54a51.12,51.12,0,0,1,14.51-.22,51.49,51.49,0,0,1-14.51.22Z" style="fill:#263238"></path><path d="M187.41,86.41A51,51,0,0,1,199.86,79a51.17,51.17,0,0,1-12.45,7.44Z" style="fill:#263238"></path><path d="M162.93,62.29A51.1,51.1,0,0,1,170,49.62a51.46,51.46,0,0,1-7.06,12.67Z" style="fill:#263238"></path><g style="opacity:0.5"><path d="M187.52,124.63c-2.94,35.54-32.6,46.18-32.6,46.18-2.19,5.39-5.7,21.53-5.7,21.53l-38.71-.11s-3-16.16-5.16-21.57c0,0-29.59-10.81-32.33-46.37-1.9-24.71,15.8-61.18,57.22-61.07h.43C172.08,63.35,189.57,99.93,187.52,124.63Z" style="fill:#3FAAF0"></path><path d="M187.52,124.63c-1.36,20.17-13.92,38.56-32.53,46.21-2.59,7-3.9,14.56-5.77,21.6l-38.83-.06c-1.06-5.49-2.19-11-3.59-16.37a47.4,47.4,0,0,0-1.62-5.28l.11.1a50.76,50.76,0,0,1-13.22-8.12C79.91,152.78,73,137.36,72.66,121.77,72.43,101.1,83.49,80.1,101.78,70c9.08-5.1,19.6-7.16,29.94-6.89a54.89,54.89,0,0,1,49.76,31.42,59.38,59.38,0,0,1,6,30.07Zm0,0a59.41,59.41,0,0,0-6.11-30c-11.93-25-38.65-35.54-65.07-29.76C90.51,70.1,72.58,96,73.14,121.76c.52,21.27,12.79,40.35,32.38,48.83,2.43,7,3.68,14.35,5.14,21.61-.88-.26,38.75.08,38.56,0a158.29,158.29,0,0,1,5.65-21.48c18.72-7.68,31.27-26.06,32.65-46.12Z" style="fill:#263238"></path></g><rect x="112.66" y="130.55" width="3" height="65.68" transform="translate(-27.64 23.31) rotate(-10.41)" style="fill:#263238"></rect><rect x="113.32" y="161.98" width="65.68" height="3" transform="matrix(0.19, -0.98, 0.98, 0.19, -41.67, 276.64)" style="fill:#263238"></rect><path d="M130.21,152.6h0c-3.66,0-7-3.41-9.38-7.78a4.87,4.87,0,0,1-3.47,1.9h0c-6.07,0-8.47-12.54-8.57-13.07l1-.19c0,.13,2.33,12.25,7.58,12.26h0a4.25,4.25,0,0,0,3-1.85,27.63,27.63,0,0,1-3-11.48c0-3.5,1.33-5.51,3.62-5.51h0a3.67,3.67,0,0,1,3.33,1.91c1.82,3.17.46,9.74-2,13.88a13.48,13.48,0,0,1-.85,1.31c2.2,4.24,5.34,7.61,8.71,7.62h0c2.52,0,5.06-2,7.15-5.58.18-.3.35-.62.52-.94-2.37-2.61-3.7-6.84-3.69-10.86,0-4.5,1.7-7.29,4.41-7.29h0a2.87,2.87,0,0,1,2.55,1.58c1.79,3.12.77,10.57-2.08,16.42a5.92,5.92,0,0,0,4.09,1.7h0c3.73,0,7-8.87,8-12.29l1,.27c-.15.53-3.72,13-9,13h0a6.84,6.84,0,0,1-4.55-1.82c-.13.24-.26.48-.4.72C136.61,149.3,133.92,152.6,130.21,152.6Zm8.39-24.67c-2.51,0-3.41,3.39-3.41,6.29,0,3.17,1,7.32,3.15,9.92,2.57-5.47,3.54-12.37,1.95-15.14a1.89,1.89,0,0,0-1.68-1.07ZM121,127.88c-2.26,0-2.61,2.83-2.62,4.51A26.51,26.51,0,0,0,121,143c.16-.25.33-.51.49-.79,2.22-3.82,3.56-10,1.94-12.88a2.65,2.65,0,0,0-2.46-1.41Z" style="fill:#263238"></path><rect x="104.35" y="192.28" width="51.37" height="28.27" transform="translate(0.61 -0.38) rotate(0.17)" style="fill:#c7c7c7"></rect><path d="M149.85,220.61c-3,5.35-8.84,10.13-19.89,10.09s-16.83-4.84-19.83-10.2Z" style="fill:#c7c7c7"></path><path d="M149.85,220.61a19.09,19.09,0,0,1-3.34,4.34l-35.36-2.82a16.87,16.87,0,0,1-1-1.63Z" style="fill:#a6a6a6"></path><polygon points="157.25 197.75 102.85 202.62 102.86 200.16 157.25 195.29 157.25 197.75" style="fill:#a6a6a6"></polygon><polygon points="157.22 205.22 102.83 210.09 102.84 207.62 157.23 202.75 157.22 205.22" style="fill:#a6a6a6"></polygon><polygon points="157.2 212.68 102.81 217.55 102.82 215.08 157.21 210.22 157.2 212.68" style="fill:#a6a6a6"></polygon><g style="opacity:0.7000000000000001"><path d="M83.74,112.35c1.88.32,4.35-9.39,14.84-20.61,4.65-5,22.29-11.19,21-17s-17,.11-24.91,9.25C81.94,98.73,82,112.05,83.74,112.35Z" style="fill:#fff"></path><path d="M177.83,118.27c3.46,0,3.49-5.37,0-5.38S174.36,118.26,177.83,118.27Z" style="fill:#fff"></path><path d="M161,159.9c1.89,1.44,11.11-7,15.28-17.12,3.47-8.39,4.09-19,1.78-19.63s-3.86,13.94-6.65,19.3C167.82,149.21,158.93,158.35,161,159.9Z" style="fill:#fff"></path></g></g><g id="freepik--character-2--inject-7"><path d="M541,464.78c2.52.84,74.21.63,76.94-1.1,1-.65,1.62-11.11,2-23.74q.11-4.1.17-8.42c.06-3.39.1-6.82.12-10.15.09-15-.12-28.16-.12-28.16H573.41l0,28.16v10.15l.24,8.42s-27.41,12.36-30.2,14.59S538.51,464,541,464.78Z" style="fill:#ad6359"></path><path d="M541,464.78c2.5.84,74.2.62,76.93-1.11,1-.6,1.54-9.7,1.87-21.15-5.74,2.66-55.32,12.83-67,13-11.21.11,6.64-8.93,9.49-10.34-7.89,3.67-17.25,8.12-18.81,9.37C540.71,456.75,538.52,464,541,464.78Z" style="fill:#263238"></path><path d="M645.29,179.13S620.82,302,619.1,311.07c-.4,2.06,4.73,121.24,4.73,121.24H570.31s0-105.27,2.16-123.39,29.89-129.79,29.89-129.79Z" style="fill:#263238"></path><path d="M645.29,179.13s-11.9,59.8-19.7,99.05l-23.23-99.05Z" style="fill:#37474f"></path><path d="M579.2,419.16c.2-36.05.28-72.08,1.21-108.12,5-27,11.19-55.63,17-82.38l-4.55,23.58c-3.29,17.18-8.41,41.78-11.46,58.89-.84,29.58-1.46,78.37-2.19,108Z" style="fill:#455a64"></path><path d="M602.62,465.29c2.52.81,74.21-.09,76.93-1.85,1-.65,1.5-11.11,1.72-23.75.05-2.73-1.77-46.48-1.77-46.48l-45.18.2.73,46.72S607.75,452.76,605,455,600.11,464.49,602.62,465.29Z" style="fill:#ad6359"></path><path d="M602.62,465.29c2.52.82,74.22-.09,76.93-1.85.91-.59,1.38-8.91,1.63-19.61-10.38,3.12-54.69,11.14-65.62,11-9.92-.11,3-6.89,8.15-9.41-7.85,3.74-17.16,8.29-18.72,9.55C602.23,457.25,600.11,464.49,602.62,465.29Z" style="fill:#263238"></path><path d="M631.3,433.27h54.51s-10.32-80.51-11.14-94c-.42-6.91-4.82-81.84-8.82-115a63.55,63.55,0,0,0-6.61-45.11H602.32s.9,24.59,7.43,41a98.77,98.77,0,0,1,14.83,6.61s2.87,102.35,3.78,119.92C629.52,369,631.3,433.27,631.3,433.27Z" style="fill:#263238"></path><path d="M639,427c-2-32.67-5.2-77.81-6.35-110.67-.57-26.66-1.11-59.5-1.36-86.2.86,26.71,1.68,59.5,2.31,86.18,1.23,32.89,4.16,77.93,5.4,110.69Z" style="fill:#455a64"></path><path d="M641,122.6a4.65,4.65,0,0,0,5.72-6.19,4.27,4.27,0,0,0,4.87-1.9,4.09,4.09,0,0,0-1.26-5.28s0,0,0,0a4.17,4.17,0,0,1,1,5.08,3.76,3.76,0,0,1-3.76,1.83,5.16,5.16,0,0,0,3.24-2.51,4,4,0,0,0-.51-4.38,5.86,5.86,0,0,0,2.29-4.74,4,4,0,0,0-2.6-3.49,4.45,4.45,0,0,0-3.72-7.29A3.74,3.74,0,0,0,643.69,88a2.51,2.51,0,0,0-.46-2.67,4.22,4.22,0,0,0-3-1.23,3,3,0,0,0-1.75-2.29,2.72,2.72,0,0,0-3.35,1.1,7.54,7.54,0,0,0-4.91-2.12,3.91,3.91,0,0,0-3.59,2.39,5.4,5.4,0,0,0-7.76,2.27,3.78,3.78,0,0,0-3.66,1,5.67,5.67,0,0,0-1.5,2.26,2.85,2.85,0,0,0-3,1.41,3.78,3.78,0,0,0-.11,3.22,2.32,2.32,0,0,1-.41.86,4.92,4.92,0,0,0-.83,4.6,3.37,3.37,0,0,0-.53,5,3.78,3.78,0,0,0,.68,5.27,5.53,5.53,0,0,0-.65,4.55,3.17,3.17,0,0,0,2.52,2.44,1.94,1.94,0,0,0,1,2.4,5.26,5.26,0,0,0,1,.42,4,4,0,0,1,1.29.45c.36.27.45.78.64,1.16a4.83,4.83,0,0,0,.5.77,5,5,0,0,0,6.16,1.2c.75,1.46,2.49,1.9,4,1.8a8.31,8.31,0,0,0,1.49-.27,2.16,2.16,0,0,1,1.33,0c.28.09.54.26.82.36a3.46,3.46,0,0,0,2.73-.4C634.47,127.74,639.65,126.39,641,122.6ZM610.81,90.75a3,3,0,0,1,2.87-2l0,.16s-.4.11-.59.18a4,4,0,0,0-.95.57,4,4,0,0,0-1.27,1.89,3.86,3.86,0,0,0-.15,1s0,.08,0,.13A3.57,3.57,0,0,1,610.81,90.75Zm27.84-8a2.88,2.88,0,0,0-3.3.28l-.08-.07c.82-.93,1.82-1.55,3.13-1a2.55,2.55,0,0,1,1.48,2h0A3.28,3.28,0,0,0,638.65,82.79Zm-6.16,41.05,0,0a5.22,5.22,0,0,0,7.27.15C637.74,126.17,634.69,126.88,632.49,123.84Z" style="fill:#263238"></path><path d="M609.45,73.14s-4.25,1.4-5.39,4.28c-1.86,4.71-.78,12.53-.78,12.53Z" style="fill:#263238"></path><path d="M625.68,124c-4.94,13.41-30.85,45.28-41.6,48-7.77,1.94-37.85-14.17-48.66-22.42-4.06-3.1,14.63-25.39,19.84-22.23,7.36,4.47,23.68,14.59,26.82,14.54,2.2,0,14.15-8.7,32.3-24.17C624.42,109.08,628.63,116,625.68,124Z" style="fill:#ad6359"></path><path d="M549.63,124c5.64,1.89,12.23,9.68,12.23,9.68L543.64,153.8s-12.06-5.3-17-6.75c-1.43-.42-9-4.68-16.28-6.66-8.29-2.25-16.69-5.67-17.25-6.54-1.06-1.69,1.08-4.24,7-4s17.46,2.58,18.18,2.54a4.06,4.06,0,0,0,.71-.18h0c.27-.17,4-7.76,7.72-8.42S548.77,123.3,549.63,124Z" style="fill:#ad6359"></path><path d="M528.9,137.05s-14.23,2.62-17,1.38-20.34-6.23-21.44-7.9,1.08-4.24,7-4S515,129.07,515.69,129s12.72-4.36,13.94-4.43S528.9,137.05,528.9,137.05Z" style="fill:#ad6359"></path><path d="M521.1,139.66c-1.59-.06-3.17-.19-4.75-.31-.79-.07-1.58-.16-2.37-.25-.39,0-.79-.1-1.19-.17l-.6-.11a6.2,6.2,0,0,1-.6-.18c-3-1-6-2-9-3s-6-2-9-3.14a10.17,10.17,0,0,1-2.15-1.16,4.63,4.63,0,0,1-.91-.86,2.1,2.1,0,0,1-.48-1.22,1.69,1.69,0,0,1,.53-1.18,3.61,3.61,0,0,1,1-.68,8.45,8.45,0,0,1,2.29-.66,9.88,9.88,0,0,0-2.19.86,3.4,3.4,0,0,0-.89.7,1.26,1.26,0,0,0-.35.95,2.47,2.47,0,0,0,1.28,1.65,9.62,9.62,0,0,0,2.07,1c3,1,6,1.94,9,3s6,2,9,3.17a10.72,10.72,0,0,0,2.25.53c.77.14,1.56.25,2.34.37Z" style="fill:#263238"></path><path d="M530.86,134.43s-15.62,2.81-18.36,1.56-20.34-6.23-21.44-7.89,1.08-4.24,7-4,17.45,2.57,18.18,2.54,12.74-3,14-3.07S530.86,134.43,530.86,134.43Z" style="fill:#ad6359"></path><path d="M523.5,137.93c-1.94-.17-3.87-.41-5.8-.65-1-.14-1.93-.28-2.89-.45l-1.44-.27a10.91,10.91,0,0,1-1.44-.42c-3.67-1.24-7.35-2.49-11-3.78l-5.49-2-1.37-.51a10.81,10.81,0,0,1-1.39-.58,5.63,5.63,0,0,1-1.28-.86,2.6,2.6,0,0,1-.87-1.39,1.51,1.51,0,0,1,.09-.89,2.1,2.1,0,0,1,.51-.68,4.69,4.69,0,0,1,1.34-.78,13.32,13.32,0,0,1,2.88-.71,16.78,16.78,0,0,1,5.83.2,17.93,17.93,0,0,0-5.76.2,12.54,12.54,0,0,0-2.74.8,3.91,3.91,0,0,0-1.15.71,1.09,1.09,0,0,0-.38,1,2.09,2.09,0,0,0,.71,1,6.22,6.22,0,0,0,1.15.73c.82.39,1.79.66,2.69,1l5.51,1.91c3.66,1.29,7.33,2.57,11,3.94a10.18,10.18,0,0,0,1.35.45q.69.18,1.41.33,1.41.3,2.85.57Z" style="fill:#263238"></path><path d="M530.83,134.93s-14.13-.72-16.68-1.88-14.78-3.82-15.8-5.36,1-4,6.53-3.77,12.09.41,12.77.38l12.58-.77C531.37,123.47,530.83,134.93,530.83,134.93Z" style="fill:#ad6359"></path><path d="M527,135.91c-2.49-.29-5-.62-7.46-.93q-1.86-.24-3.72-.51l-.93-.14a7.48,7.48,0,0,1-.94-.2c-.61-.17-1.21-.35-1.81-.54-2.39-.77-4.76-1.59-7.1-2.5-1.17-.45-2.33-.91-3.49-1.4-.58-.24-1.16-.49-1.73-.76a12.09,12.09,0,0,1-1.72-.93,1.47,1.47,0,0,1-.33-2.18,4.63,4.63,0,0,1,1.59-1.29,8.12,8.12,0,0,1,3.8-1c2.51,0,5,.07,7.51.14s5,.13,7.49.24c1.23,0,2.49-.07,3.74-.11s2.5,0,3.76,0c-2.49.37-5,.64-7.48.85l-7.52-.17c-2.5,0-5-.09-7.5-.08a7.52,7.52,0,0,0-3.41.85,3.84,3.84,0,0,0-1.32,1,.68.68,0,0,0,.14,1.09,10.74,10.74,0,0,0,1.58.86c.55.27,1.12.52,1.69.77,1.15.49,2.3,1,3.47,1.42,2.32.9,4.65,1.82,7,2.63.59.2,1.18.4,1.77.58a14.49,14.49,0,0,0,1.81.37l3.7.63Z" style="fill:#263238"></path><path d="M555.36,124.08l-11.86,36s31.87,15.48,41.29,12.7S617.87,142,626,125.05c4.94-10.31-1.2-17.07-12.9-7.83-12,9.5-28.92,22.65-30.21,23.13S555.36,124.08,555.36,124.08Z" style="fill:#3FAAF0"></path><path d="M626,125.05c-8.13,16.93-31.79,45-41.21,47.75-2.89.85-7.87,0-13.41-1.62l48.91-58h0a7.94,7.94,0,0,1,1-.23c.18,0,.35-.06.51-.07a5.55,5.55,0,0,1,1.14,0,4.07,4.07,0,0,1,.5,0l.48.08a4.7,4.7,0,0,1,2,.93,3.76,3.76,0,0,1,.72.77C628.19,116.8,628.13,120.58,626,125.05Z" style="opacity:0.1"></path><path d="M551.85,160.59c.21-1.26.65-2.49,1-3.73s.69-2.47,1.07-3.7c.72-2.36,1.48-4.72,2.25-7.06s1.54-4.7,2.32-7,1.5-4.93,2.49-7.29a.09.09,0,0,1,.17.06c-.54,2.49-1.4,5-2.14,7.39s-1.45,4.83-2.19,7.24-1.48,4.81-2.26,7.21c-.39,1.17-.78,2.34-1.21,3.5s-.77,2.38-1.32,3.5C552,160.76,551.84,160.68,551.85,160.59Z" style="fill:#263238"></path><path d="M598.63,184.34,663,184s-12.77-53.89-26.37-68.42c-6.18-6.61-12.23-5.6-17.36-1.35-1.28,1.06-17.13,22.11-18.47,29.13-1.19,6.19,3.85,13.07,3.85,13.07Z" style="fill:#3FAAF0"></path><path d="M612.4,154.2a49.08,49.08,0,0,1,7,1.16c1.15.29,2.27.64,3.4,1,.56.18,1.12.35,1.69.51a7.42,7.42,0,0,0,1.81.34s0,.09,0,.09a12.79,12.79,0,0,1-1.75,0,10.33,10.33,0,0,1-1.66-.31c-1.17-.29-2.32-.63-3.48-.93-2.34-.6-4.69-1.2-7.07-1.63C612.26,154.38,612.29,154.19,612.4,154.2Z" style="fill:#263238"></path><path d="M606.54,156.3a52.49,52.49,0,0,1,5.88-.28c1,0,2,.08,2.93.17l1.4.16c.51.07,1,.2,1.53.26.05,0,.05.09,0,.08-.49,0-1,0-1.47,0l-1.46,0c-1,0-2,0-2.94-.07-2-.06-3.91-.11-5.87-.11C606.43,156.46,606.44,156.31,606.54,156.3Z" style="fill:#263238"></path><polygon points="610.32 209.63 569.41 212.67 557.38 155.35 598.29 152.31 610.32 209.63" style="fill:#263238"></polygon><polygon points="608.31 209.78 567.4 212.82 555.37 155.5 596.28 152.46 608.31 209.78" style="fill:#455a64"></polygon><path d="M576.28,180.51a4.44,4.44,0,0,0,4.62,3.66,3.61,3.61,0,0,0,3.34-4.25,4.45,4.45,0,0,0-4.63-3.66A3.6,3.6,0,0,0,576.28,180.51Z" style="fill:#fff"></path><path d="M637.62,116.52c12.6,13.58,41.79,49.84,35.69,58.38-10,14-36.41,27.94-44.76,31.31-3.61,1.45-19.36-24.27-16.07-26.81,3.95-3,30.8-14.58,30.42-17.1-.21-1.42-5.27-16.54-9.62-31.65C628.23,113.11,633.3,111.87,637.62,116.52Z" style="fill:#ad6359"></path><path d="M625.81,176.27s-11.6-2.27-19.26-3.4c-4.27-.63-11.69-1.06-15-.08-5,1.45-25,10.74-22.89,15.64,1.94,4.44,18.13-5.72,18.13-5.72s-17.24,8.81-13.92,13.72,20.09-9,20.09-9-17.52,9.45-13.29,14c3.2,3.42,19.1-8.32,19.1-8.32s-15,8.22-11.87,11.88c3.46,4.05,18.82-5.88,18.82-5.88,9.53,8,17.33,8.7,22.87,7.12C629.85,205.83,625.81,176.27,625.81,176.27Z" style="fill:#ad6359"></path><path d="M591.72,179.72c-13.2,5.52-18,12.27-17.82,12.12,3.86-3.63,10.85-7.83,12.83-9s3.07-1.93,5-3.07C591.82,179.77,591.77,179.7,591.72,179.72Z" style="fill:#263238"></path><path d="M596.78,186.32a48.73,48.73,0,0,0-14.89,8.7c-.16.15-.06.18.13.06,2.47-1.52,12.26-7.3,14.79-8.7C596.85,186.36,596.82,186.31,596.78,186.32Z" style="fill:#263238"></path><path d="M601.51,191.71a36.25,36.25,0,0,0-11.33,7.07c-.16.15,0,.19.19.07,3.72-2.42,6.62-4.35,11.21-7C601.65,191.81,601.6,191.67,601.51,191.71Z" style="fill:#263238"></path><path d="M628.26,170.36,645.34,200s28.78-17.18,29.85-28.44-29.71-47.82-35.48-53.71c-1.64-1.67-6-5.4-7.92-4.75-2.15.74-1.64,4-.84,11.41,1.07,9.94,11.35,36.6,10.85,37.78S628.26,170.36,628.26,170.36Z" style="fill:#3FAAF0"></path><path d="M650.43,194.42c-.8-1-1.42-2.12-2.13-3.18s-1.37-2.15-2-3.24q-1.9-3.17-3.76-6.35l-3.69-6.39c-1.27-2.2-2.67-4.38-3.76-6.67a.09.09,0,0,1,.15-.1c1.5,2.06,2.75,4.33,4.08,6.49s2.62,4.27,3.92,6.41,2.59,4.29,3.85,6.46c.62,1.06,1.23,2.13,1.81,3.22s1.26,2.14,1.73,3.29C650.63,194.45,650.49,194.49,650.43,194.42Z" style="fill:#263238"></path><path d="M642.24,162.18a16.46,16.46,0,0,0-.91-3.46c-.81-2.42-3.66-11.47-4.52-13.88-1-2.67-1.89-5.36-2.94-8,0-.07-.14,0-.12,0,.45,1.62,1.1,3.76,1.8,6-.15-.24-.3-.49-.46-.72a14.84,14.84,0,0,1-1.31-2.25s0,0,0,0a16.67,16.67,0,0,0,1,2.33,11.19,11.19,0,0,0,.66,1.11,6.62,6.62,0,0,0,.45.63c1.68,5.34,5.59,17.5,5.66,17.7s-11.2,7-13.65,8.48c-.1.06.32.59.55.87a.09.09,0,0,0,.15-.09,2.18,2.18,0,0,0-.31-.54C632.55,168.51,642.12,162.71,642.24,162.18Z" style="fill:#263238"></path><path d="M630.67,114.69c-.33,1.15-5.1,7.13-10.4,6.63-1.72-.17-2.36-8.33-2.36-8.33l-.12-.71-1.72-9.88,11.84-6.82,1.71-.9s.29,2.74.62,6.15c0,.16,0,.31,0,.48s0,.38.06.56c0,.51.11,1,.15,1.55s.07.77.09,1.19.06.82.09,1.24A64.88,64.88,0,0,1,630.67,114.69Z" style="fill:#ad6359"></path><path d="M630.24,100.83a20.13,20.13,0,0,1-12.45,11.45l-1.72-9.88,11.84-6.82,1.71-.9S629.91,97.42,630.24,100.83Z" style="fill:#263238"></path><path d="M601.37,88c-1.58,17.54,8.75,20.46,12.53,20.79,3.43.31,15.16.91,18.54-16.37s-4.28-23.56-12.1-24.67S602.94,70.51,601.37,88Z" style="fill:#ad6359"></path><path d="M605.4,84.74a12.07,12.07,0,0,0,1.2-.22,2,2,0,0,0,1.18-.45.65.65,0,0,0,0-.77,1.54,1.54,0,0,0-1.52-.4,2.27,2.27,0,0,0-1.46.76A.67.67,0,0,0,605.4,84.74Z" style="fill:#263238"></path><path d="M617.68,85.13c-.41-.06-.78-.18-1.19-.28a2,2,0,0,1-1.15-.52.63.63,0,0,1,0-.77,1.58,1.58,0,0,1,1.54-.32,2.36,2.36,0,0,1,1.41.85A.67.67,0,0,1,617.68,85.13Z" style="fill:#263238"></path><path d="M614.77,89.37s.09.07.08.11c-.1,1.2,0,2.59,1.06,3,0,0,0,.07,0,.06C614.58,92.33,614.48,90.49,614.77,89.37Z" style="fill:#263238"></path><path d="M615.9,88.18c1.93-.05,1.89,3.82.1,3.86S614.28,88.22,615.9,88.18Z" style="fill:#263238"></path><path d="M616.66,88.39c.33.23.66.62,1.07.66s.83-.35,1.14-.73c0,0,.07,0,.07,0,0,.74-.3,1.5-1.09,1.6s-1.24-.57-1.42-1.32C616.4,88.5,616.52,88.3,616.66,88.39Z" style="fill:#263238"></path><path d="M607.65,88.94s-.09,0-.09.1c0,1.2-.13,2.58-1.22,3,0,0,0,.08,0,.07C607.68,91.9,607.88,90.07,607.65,88.94Z" style="fill:#263238"></path><path d="M606.59,87.68c-1.93-.15-2.1,3.71-.31,3.86S608.2,87.81,606.59,87.68Z" style="fill:#263238"></path><path d="M605.77,87.9c-.31.19-.63.55-1,.56s-.72-.42-1-.84c0,0-.06,0-.06,0,0,.74.16,1.52.86,1.69s1.15-.45,1.35-1.18C606,88,605.9,87.82,605.77,87.9Z" style="fill:#263238"></path><path d="M614.26,99.32c-.27.3-.52.71-1,.77a3.06,3.06,0,0,1-1.3-.2,0,0,0,0,0,0,.07,1.62,1.62,0,0,0,1.57.53,1.28,1.28,0,0,0,.86-1.13C614.39,99.29,614.3,99.27,614.26,99.32Z" style="fill:#263238"></path><path d="M608.92,94.94s-.21,1.79-.2,2.64c0,.08.21.11.49.12h0a4,4,0,0,0,3.87-1.57c.06-.08,0-.17-.13-.11a6.05,6.05,0,0,1-3.65,1.11c-.06-.23.48-3.06.34-3.07a7.48,7.48,0,0,0-1.91.47c.34-3.75,1.28-7.41,1.56-11.15a.12.12,0,0,0-.22-.06,60.8,60.8,0,0,0-2.19,12C606.86,95.75,608.59,95.09,608.92,94.94Z" style="fill:#263238"></path><path d="M609.57,97.57A4.62,4.62,0,0,0,611.44,99a2,2,0,0,0,1.26.06c.91-.25.92-1.08.75-1.8a5.08,5.08,0,0,0-.43-1.09A6,6,0,0,1,609.57,97.57Z" style="fill:#263238"></path><path d="M611.44,99a2,2,0,0,0,1.26.06c.91-.25.92-1.08.75-1.8A2.14,2.14,0,0,0,611.44,99Z" style="fill:#ff9cbd"></path><path d="M633.1,92.06c-2,.15-6.73.45-9.68-2-1.64-1.35-3.07-3.65-3.93-7.77-1.51-7.21-6.5-11.87-14.18-7.66,0,0-1.55-6.44,3-9.08s9.12,1.53,9.12,1.53,10-1,15.31,6.54S633.1,92.06,633.1,92.06Z" style="fill:#263238"></path><path d="M631.38,99a3.54,3.54,0,0,1-.82.21,2.6,2.6,0,0,1-.83,0,2.36,2.36,0,0,1-1-.33,3,3,0,0,1-.67-.51,3.51,3.51,0,0,1-.66-1l1-4.7s3.86-5.48,6.34-4.1S634.31,97.91,631.38,99Z" style="fill:#ad6359"></path><path d="M633.84,90.83s0,.06,0,.07c-2.05.83-3.14,2.73-3.9,4.7a1.64,1.64,0,0,1,2.46-.44c.05,0,0,.12-.06.11a1.83,1.83,0,0,0-2,.63,8.66,8.66,0,0,0-1,1.63c-.1.18-.43.08-.36-.13a.08.08,0,0,1,0,0C629,94.74,631,91.08,633.84,90.83Z" style="fill:#263238"></path><path d="M631.13,98.24a.81.81,0,1,1-.63-1A.82.82,0,0,1,631.13,98.24Z" style="fill:#fff"></path><path d="M632.81,97a.58.58,0,0,1-.68.45.59.59,0,0,1-.45-.69.57.57,0,0,1,.68-.44A.56.56,0,0,1,632.81,97Z" style="fill:#fff"></path></g><g id="freepik--character-1--inject-7"><path d="M520.86,462.77c-3,.06-80.55-23.91-82.93-26.69-.25-.31,1-11.79,3-20.91.09-.43-27.54-36.64-27.54-36.64l50-19.44,23.91,49.53,6.21,12.88s25.88,26,28.17,29.34S523.85,462.7,520.86,462.77Z" style="fill:#ebebeb"></path><path d="M523,463.2c-3.12.09-84.08-24.63-86.58-27.52-.95-1.1.5-6.1,4.43-20.51l53.08,6.4s27.4,25.72,29.79,29.19S526.16,463.12,523,463.2Z" style="fill:#455a64"></path><path d="M522.87,459.61C509.4,455.13,454.64,438.35,441,435c-.11,0-.14.05,0,.08,13.25,4.73,68.14,21.07,81.84,24.8C523.09,459.91,523.15,459.7,522.87,459.61Z" style="fill:#263238"></path><path d="M519.44,446.26a11.37,11.37,0,0,0-9.13.83,11,11,0,0,0-5.24,6.32c0,.08.12.13.16,0a13.17,13.17,0,0,1,14.16-7C519.5,446.45,519.55,446.29,519.44,446.26Z" style="fill:#263238"></path><path d="M499.45,426.92c-5.41-1.73-12.29-1.74-17,1.67-.18.14,0,.39.19.36a78.75,78.75,0,0,1,16.72-1.33A.36.36,0,0,0,499.45,426.92Z" style="fill:#263238"></path><path d="M503.15,429.84c-5.41-1.74-12.29-1.74-17,1.67-.18.13,0,.39.2.36A78.06,78.06,0,0,1,503,430.53.35.35,0,0,0,503.15,429.84Z" style="fill:#263238"></path><path d="M506.84,432.75c-5.41-1.73-12.29-1.74-17,1.67-.19.14,0,.39.19.36a78.75,78.75,0,0,1,16.72-1.33A.36.36,0,0,0,506.84,432.75Z" style="fill:#263238"></path><path d="M510.54,435.67c-5.41-1.74-12.29-1.74-17,1.67-.18.13,0,.39.2.36a78,78,0,0,1,16.72-1.34A.35.35,0,0,0,510.54,435.67Z" style="fill:#263238"></path><path d="M509.75,414.22c-2.05-3.12-6.2-2-8.62-.1A29.77,29.77,0,0,0,492,426.5a.15.15,0,0,0,.12.21c0,.42.36.89.84.74,4.69-1.5,9.88-2.52,14-5.4C509.27,420.36,511.69,417.17,509.75,414.22Zm-10.19,9.51c-2.29.79-4.6,1.46-6.85,2.34a87.94,87.94,0,0,1,5.52-7.12,33.17,33.17,0,0,1,3.1-3.06c1.73-1.43,8.44-4.34,7.18,1.73C507.81,421,502.28,422.78,499.56,423.73Z" style="fill:#263238"></path><path d="M477.85,424.4c4.5,2.17,9.79,2.31,14.66,3a.7.7,0,0,0,.71-.87.14.14,0,0,0,.09-.22,29.87,29.87,0,0,0-11.11-10.7c-2.69-1.42-7-1.89-8.48,1.53C472.3,420.38,475.21,423.13,477.85,424.4Zm-2.34-4.1c-2.25-5.78,4.85-4,6.8-2.89a31.21,31.21,0,0,1,3.56,2.5,88.88,88.88,0,0,1,6.62,6.1c-2.37-.49-4.76-.77-7.14-1.17C482.5,424.36,476.75,423.49,475.51,420.3Z" style="fill:#263238"></path><path d="M489.74,410.93l-55.08,8.14s-30.05-54.58-42.19-68.16l0,0a19.21,19.21,0,0,0-2.22-2.17h0a11.46,11.46,0,0,0-4-1h0c-16.29-2-71.1,3.35-109,.9L294.91,325l7.84-10.49c42.67-4.87,95-22.31,118.67-10.46C447.08,316.9,489.74,410.93,489.74,410.93Z" style="fill:#263238"></path><path d="M482.84,401.58c-9.36,1.2-6.69.73-16,2-4.57.64-27.58,3.8-31.75,5.1a.09.09,0,0,0,0,.18c4.37,0,27.3-3.61,31.86-4.33,9.32-1.48,6.63-1.15,15.94-2.73A.13.13,0,1,0,482.84,401.58Z" style="fill:#37474f"></path><path d="M435,407.94c-6.24-10.42-34.62-61.86-40.27-63.88-5.14-1.85-108,.29-109.53.3-.11,0-.12.17,0,.17,12.18-.16,106.21-.49,108.89.57,5.58,2.21,39.51,61.88,40.35,63.12C434.6,408.56,435.16,408.3,435,407.94Z" style="fill:#37474f"></path><path d="M248.45,327.1s-3.25,31,12.49,46.45c18.83,18.46,143.14,13.8,162.41,7.57s19.86-37.31-1.2-44.51c-20-6.85-108.85-10.79-110.95-11.63s-8.27-10.67-8.27-10.67Z" style="fill:#263238"></path><path d="M274.75,326.23c0-.15-.25-.1-.25,0a17.07,17.07,0,0,1-4,11c-2.95,3.4-7.3,5.31-11.24,7.3-.38.19-.09.79.3.67a34.58,34.58,0,0,0,7-3,16.81,16.81,0,0,0,5.24-4.35A15,15,0,0,0,274.75,326.23Z" style="fill:#37474f"></path><path d="M310.35,323c-.88-1.12-1.84-2.19-2.76-3.28-2.17-2.58-4.35-5.18-6.62-7.67-.22-.23-.64.1-.44.36,1.53,2,3.15,3.94,4.75,5.89q1.22,1.5,2.46,3a18.4,18.4,0,0,1,2.3,2.91c.59,1.11-.19,2.06-1.34,2.19a4,4,0,0,1-2.77-1,37.33,37.33,0,0,1-4.7-5c-.91-1-1.83-2.05-2.76-3.07s-2-2.1-3-3.18c-.06-.07-.18,0-.13.1.86,1.18,1.66,2.41,2.52,3.6s1.73,2.35,2.62,3.51,1.71,2.17,2.61,3.22a10.69,10.69,0,0,0,2.65,2.37c1.65,1,4.51,1.18,5.38-.95A3,3,0,0,0,310.35,323Z" style="fill:#37474f"></path><path d="M420.71,381.24c-6.63.12-13.26.51-19.89.65s-13.16.18-19.75.12q-19.81-.19-39.61-1.54c-13.33-.93-27.7-2.25-40.94-4.09-6.33-.87-12.75-1.6-19-2.95a30,30,0,0,1-15-7.66c-8.57-8.32-11.9-20.54-13.27-32.22-.18-1.57-.34-3.14-.46-4.71a.09.09,0,0,0-.17,0c.78,12,2.64,24.47,10.17,34.09a29.93,29.93,0,0,0,12.27,9.53c5.93,2.38,12.51,2.93,18.77,3.78,13.29,1.8,27.72,3.2,41.08,4.23s26.94,1.7,40.43,1.9,27,0,40.46-.66c1.64-.08,3.28-.18,4.93-.32A.08.08,0,0,0,420.71,381.24Z" style="fill:#37474f"></path><path d="M438.42,352.25a21.35,21.35,0,0,0-8.88-12.71c-4.78-3.26-10.49-4.74-16.14-5.56-6.4-.93-12.87-1.41-19.3-2q-19.8-1.92-39.62-3.55c-13.2-1.09-41.65-3.3-43.25-3.36a.13.13,0,0,0,0,.25c12.74,1.41,24.34,2.63,37.11,3.79s25.67,2.39,38.5,3.66q9.58.94,19.17,1.93c5.92.61,12,1.21,17.56,3.5,4.76,2,9,5.11,11.47,9.75a22.89,22.89,0,0,1,1.91,14.75,26.05,26.05,0,0,1-6.17,12.47,22.15,22.15,0,0,1-11.54,7c-1.17.25-2.58.43-3.66.64-.08,0-.16.19-.08.19,9.55.25,18.38-6.73,21.83-15.45A25.54,25.54,0,0,0,438.42,352.25Z" style="fill:#37474f"></path><path d="M298.64,256c5.21,22.92,16,50.41,20.67,54.87,5.87,5.65,42.29,13.15,44.23,13.37,4.81.49,11.61-30.2,8.78-30.23-7.87-.11-33-4.42-34.72-6.16s-13.68-16.93-25.93-34C303.22,242.11,295.41,241.82,298.64,256Z" style="fill:#eb9481"></path><path d="M360.82,323.81A94,94,0,0,0,373,329c3.33,1,13,3.52,14.44,0,1-2.43-4.52-4.6-8.39-6.22-2-.85-4.54-3-3.93-4.3,1.05-2.29,6.29,0,9.73,2,6.66,3.89,15.53,10.88,19.61,7.51,1.54-1.28-.24-3.61-2.85-5.9,4.24,2.67,8.76,4.87,10.53,3.52,1-.77,1.06-1.83.5-3a3,3,0,0,0,3.28-.5c1.38-1.44.72-3.57-.79-5.76a1.67,1.67,0,0,0,1.26-.82c2.93-4.45-11.66-17.27-16.72-18.48-14.87-3.58-30.55-3-30.55-3C363.29,298.74,360.81,323.8,360.82,323.81Z" style="fill:#eb9481"></path><path d="M382.73,310.16a25.34,25.34,0,0,1,9.92,3.85c3.76,2.49,6.26,5.41,9.42,8.36.08.07,0,.2-.12.13-1.51-1.4-7.74-6.66-9.36-7.86a24,24,0,0,0-9.87-4.42S382.69,310.16,382.73,310.16Z" style="fill:#263238"></path><path d="M385.52,303.86a59.55,59.55,0,0,1,11.54,4c4,2,7.06,5.34,10.11,8.53q2.74,2.86,5.37,5.85c.07.08,0,.22-.12.13q-4.65-4.93-9.58-9.58a31.68,31.68,0,0,0-10.51-6.66c-2.24-.86-4.53-1.54-6.83-2.23C385.46,303.91,385.47,303.84,385.52,303.86Z" style="fill:#263238"></path><path d="M389.71,298.34c3.8.79,7.11,1.47,10.47,3.51,4.45,2.71,8.74,7.26,10.24,8.87,1.66,1.79,3.26,3.62,4.84,5.48.06.08-.07.19-.14.12a125.58,125.58,0,0,0-11.56-11.51,25.17,25.17,0,0,0-6.47-4.23,45.89,45.89,0,0,0-7.39-2.21S389.69,298.34,389.71,298.34Z" style="fill:#263238"></path><path d="M368.81,290.5l-12.05,37.88s-32.38-9.33-38.28-15.72-16.75-39.39-19.93-55.38,4.9-15.57,12.31-5.48,25.82,34.55,26.86,35.08S368.81,290.5,368.81,290.5Z" style="fill:#455a64"></path><path d="M353.69,311.53c1.46-4.46,2.95-8.92,4.25-13.44.73-2.57,1.48-5.13,2.19-7.71,0-.1-.13-.15-.17-.06-1.64,4.43-3.28,8.87-4.72,13.36s-2.9,8.94-4.27,13.44c-.79,2.55-1.49,5.12-2.11,7.73,0,0,.07.08.09,0C350.74,320.51,352.22,316,353.69,311.53Z" style="fill:#263238"></path><path d="M340.43,323.13l-1.43-.51c-2.7-1-5.45-2-8-3.07l-1-.41-1.55-.66-.75-.33-.27-.13-.77-.36c-1-.47-2-1-2.91-1.43l-.63-.33a22,22,0,0,1-4-2.64l-.33-.3-.3-.3c-5.91-6.4-16.75-39.39-19.93-55.38,0-.19-.07-.37-.11-.55s0-.08,0-.12c-.22-1.21-.4-2.72-.56-4.34v0c-.44-7.95,3.33-9.24,8-5.74C317.43,271.43,335.08,312.56,340.43,323.13Z" style="opacity:0.1"></path><path d="M246.86,332.32c.18.22,76.22-10,77-10.8,1.06-1.14-7.65-58.4-20.35-76.33-3.18-4.48-14.41-5.11-19.78-1.3C257.12,262.8,246.21,331.54,246.86,332.32Z" style="fill:#3FAAF0"></path><path d="M282.51,244.39s11.37,21.15,12.8,29.66,3.33,51,3,52.63a5.06,5.06,0,0,1-1.6,2.62v4.09l-51.24,4.35v-3.58s-2.43-1.27-1.85-8.56S266.2,251.56,282.51,244.39Z" style="fill:#455a64"></path><path d="M248.17,334.23c15.05-2,30.27-3.34,45.43-4-15.05,2-30.26,3.34-45.43,4Z" style="fill:#37474f"></path><path d="M303.5,245.19s2.68,22,3.05,26,6.27,51.88,6.85,53.18S315,327.5,315,327.5l.4,2.73,10-2.2-.36-2.91s2.09-1.46,1.78-5.29S314.65,254.44,303.5,245.19Z" style="fill:#455a64"></path><path d="M316.08,327.54a16.9,16.9,0,0,1,8.07-1.88,16.87,16.87,0,0,1-8.07,1.88Z" style="fill:#37474f"></path><path d="M274.33,250.17c-14.71,9.5-54.71,49.51-47.94,60.35s59.29,11.74,74.89,8.61c4.64-.94-4.61-30.74-9.33-32.56C288,285,264.9,289.32,264.6,288c-.34-1.52,5.46-10.64,15-27.4C290.55,241.25,280.82,246,274.33,250.17Z" style="fill:#eb9481"></path><path d="M313.48,285c10.06,1.09,12.48,2.91,21.45-.68,5.89-2.35,9.92.4,5.64,5.42-7,8.2-20.28,9.52-25,8.65Z" style="fill:#eb9481"></path><path d="M285.32,287.82s12.44-3.31,23.28-3.21c7.49.07,23.77,2,34.95,21.4,2.65,4.59,3.17,13-3.88,7.09-5-4.21-6.92-8.4-10.28-10.32,0,0-.61,10.8-5.31,13.28a100.67,100.67,0,0,1-12.76,5.6,21.85,21.85,0,0,1-1.26-2.3s-4.61,1.9-11.76-.64Z" style="fill:#eb9481"></path><path d="M315.73,285.82c2.94,2.6,9.06,8.24,12.47,14.59,3.79,7.06,9.18,21.67,3.94,24.41-3.84,2-6.39-3.39-6.39-3.39s.95,6.51-2.91,7.56c-3.52,1-5.24-3.33-5.24-3.33s-.1,4-3.68,4.32c-4.29.33-3.38-8.2-8-11.63C304.86,317.58,315.73,285.82,315.73,285.82Z" style="fill:#eb9481"></path><path d="M320.08,303.17c2.36,2.9,6,10.88,5.76,18.12,0,.16-.13.25-.16.1A78.25,78.25,0,0,0,320,303.2S320.05,303.13,320.08,303.17Z" style="fill:#263238"></path><path d="M313.07,307.19c1.77,2.72,5.18,11.11,4.67,18.44,0,.16-.15.24-.17.09A83.86,83.86,0,0,0,313,307.23C313,307.18,313.05,307.16,313.07,307.19Z" style="fill:#263238"></path><path d="M329.41,302.72c2.93,1.73,4.6,3.8,6.8,6.33a46.76,46.76,0,0,0,3.43,3.61c1.12,1,2.75,2.55,4.4,1.8a2.67,2.67,0,0,0,1.24-2.44,13.18,13.18,0,0,0-.84-4c0-.05.07-.08.09,0a18.38,18.38,0,0,1,1.09,3.69,4.34,4.34,0,0,1-.33,2.54c-.91,1.63-3,1.34-4.36.49a13.63,13.63,0,0,1-2.19-1.83c-.66-.63-1.28-1.3-1.89-2-1.25-1.39-2.42-2.86-3.65-4.27a43.16,43.16,0,0,0-3.87-3.78C329.28,302.77,329.35,302.69,329.41,302.72Z" style="fill:#263238"></path><path d="M333.24,315.53a103.1,103.1,0,0,0-3.92-12.75s.05-.1.08,0c1.88,3,4.29,10.18,4.71,12.4s.84,5,.29,7.17c-.83,3.31-3.18,3.38-4,3.34a4.44,4.44,0,0,1-2.7-1.17,8.83,8.83,0,0,1-1.94-3,0,0,0,1,1,.08,0c.81,1.59,2.4,3.35,4.25,3.57a3.12,3.12,0,0,0,2.33-.59,4.07,4.07,0,0,0,1.2-2.53A18.87,18.87,0,0,0,333.24,315.53Z" style="fill:#263238"></path><path d="M285.44,286.37l7.48,37.39s-65.6-1.66-68.25-13.82,32.12-48.4,46.08-58c16.19-11.11,16.57-5.85,10.62,6.11-6.24,12.52-16.67,30.27-16.67,30.27Z" style="fill:#455a64"></path><path d="M243.59,292.48a75.51,75.51,0,0,1,10.4-3.05,72.61,72.61,0,0,1,10.6-1.44c2-.15,4.07-.2,6.11-.26.06,0,.06.09,0,.1A91.12,91.12,0,0,0,260,289.17q-5.28.91-10.5,2c-2,.42-3.93.93-5.89,1.42A.07.07,0,0,1,243.59,292.48Z" style="fill:#263238"></path><path d="M285.3,286.23c-.33,0-18.72,1.35-19.35,1.46.14-.23,5.45-8.5,6.24-9.71l.23-.36c.46-.51.92-1,1.36-1.55l1.67-2.05a0,0,0,0,0,0,0l-1.76,2q-.41.46-.78.93c.53-.85,1.05-1.72,1.58-2.59.83-1.38,1.62-2.79,2.4-4.2,0-.05,0-.08-.07,0-1.56,2.41-3.2,4.76-4.77,7.17s-7.5,11.21-7.47,11.21,20.36-1.9,20.76-2A.13.13,0,0,0,285.3,286.23Z" style="fill:#263238"></path><path d="M281,308.31c-.81-4.17-1.59-8.34-2.55-12.48-.55-2.35-1.09-4.71-1.66-7.05,0-.09-.18-.07-.16,0,.65,4.21,1.31,8.44,2.15,12.62s1.63,8.33,2.52,12.49q.76,3.54,1.74,7s.09,0,.08,0C282.58,316.69,281.78,312.5,281,308.31Z" style="fill:#263238"></path><path d="M293.59,324.49c-.36-1.19-.77-2.87-1.19-4-.11-.3-.32-.3-.25,0,.24,1.06.36,2.2.59,3.28-.91-.05-1.83-.11-2.75-.15l-3.17-.12c-2.08-.09-4.15-.2-6.23-.33-4.19-.27-8.39-.63-12.57-1.07a242.62,242.62,0,0,1-25-3.85q-3.47-.74-6.89-1.63a68.5,68.5,0,0,1-6.67-2c-.06,0-.1.08,0,.11a39,39,0,0,0,5.68,2.24c2.05.62,4.11,1.19,6.19,1.68,4.14,1,8.33,1.76,12.54,2.42,8.33,1.3,16.73,2.24,25.15,2.84q3.54.25,7.08.43c1.19.05,2.38.11,3.58.14S293.65,324.69,293.59,324.49Z" style="fill:#263238"></path><rect x="303.7" y="331" width="80.16" height="3.23" style="fill:#455a64"></rect><rect x="303.7" y="331" width="44.36" height="3.23" style="fill:#a6a6a6"></rect><polygon points="346.71 334.23 416.97 334.23 426.89 286.51 356.63 286.51 346.71 334.23" style="fill:#a6a6a6"></polygon><polygon points="349.89 334.23 420.15 334.23 430.08 286.51 359.82 286.51 349.89 334.23" style="fill:#c7c7c7"></polygon><path d="M385.3,311.43a4.15,4.15,0,0,0,4.19,4.69,5.33,5.33,0,0,0,5.18-4.69,4.14,4.14,0,0,0-4.19-4.68A5.34,5.34,0,0,0,385.3,311.43Z" style="fill:#ebebeb"></path><path d="M297.33,261.55s-13.42-12.89-22-12.52l-8.77,6s-3-1.47-3.78-3c-1.87-3.75-.18-10,7.6-15.94,7.12-5.48,18.87-5.18,28.68-2.69,9.43,2.39,17.65,8.56,14.82,14.72S297.33,261.55,297.33,261.55Z" style="fill:#3FAAF0"></path><path d="M298.25,258.66S309,250.86,310,246.27s-8.11-8.86-14-10.51c-9.16-2.57-15.38-1.92-20.46,3S298.25,258.66,298.25,258.66Z" style="opacity:0.1"></path><path d="M297,258.25c-3.39-.53-9.1-8.22-10.75-14.07-.11-.4,1.29-4,2.79-8.51.9-2.73,1.84-5.79,2.49-8.64l16.89,8.44A46.92,46.92,0,0,0,304.17,246a6.45,6.45,0,0,0-.15,1.2.79.79,0,0,1,0,.2C303.86,249.73,302.29,259.08,297,258.25Z" style="fill:#eb9481"></path><path d="M304,247.23c0,.05,0,.12,0,.2a11.53,11.53,0,0,1-1.87-.33c-10.12-2.56-9.77-15.52-9.41-19.46l15.68,7.83A47,47,0,0,0,304.16,246,7.25,7.25,0,0,0,304,247.23Z" style="fill:#263238"></path><path d="M283.53,212.57c-.6,6.78,6.64,24.47,12,27.62,7.82,4.56,18.69,2.86,22.08-6.09,3.28-8.69-6.56-31.57-12.4-34.23C296.63,196,284.42,202.56,283.53,212.57Z" style="fill:#eb9481"></path><path d="M301.53,219.13a15.36,15.36,0,0,0,1.46-.89c.55-.35,1-.57,1.31-1.19a.87.87,0,0,0-.36-1,2.19,2.19,0,0,0-2.2.24,3.19,3.19,0,0,0-1.51,1.74A.93.93,0,0,0,301.53,219.13Z" style="fill:#263238"></path><path d="M313.24,215.44a13.94,13.94,0,0,1-1.71,0,2.66,2.66,0,0,1-1.73-.35.87.87,0,0,1-.21-1,2.2,2.2,0,0,1,2-.92,3.24,3.24,0,0,1,2.19.72A.93.93,0,0,1,313.24,215.44Z" style="fill:#263238"></path><path d="M306.33,232.79a2,2,0,0,0,1.25.42,3.4,3.4,0,0,0,1.24-.7,0,0,0,0,1,.07.05,1.75,1.75,0,0,1-1.38,1.13,1.4,1.4,0,0,1-1.29-.81C306.18,232.81,306.27,232.76,306.33,232.79Z" style="fill:#263238"></path><path d="M306.55,228.71a4.38,4.38,0,0,0,3.36,1,5.18,5.18,0,0,0,1.53-.37l.28-.11.26-.12a.34.34,0,0,0,.17-.35h0a.26.26,0,0,0-.05-.12h0l0-.11c-.25-1-.76-2.38-.76-2.38.39.07,2.4.36,2.23-.13a66.31,66.31,0,0,0-5.33-12.27.12.12,0,0,0-.22.1c1.23,3.94,3.15,7.64,4.44,11.58a7.87,7.87,0,0,0-2.16,0c-.12.08,1,2.73,1.12,3.17a.12.12,0,0,1,0,.05,6,6,0,0,1-4.75-.09C306.52,228.52,306.45,228.63,306.55,228.71Z" style="fill:#263238"></path><path d="M304.79,220.92s-.08.09-.06.14c.42,1.21.7,2.66-.27,3.42,0,0,0,.08,0,.06C305.78,223.93,305.38,222,304.79,220.92Z" style="fill:#263238"></path><path d="M303.29,220c-2,.47-.91,4.45.95,4S305,219.6,303.29,220Z" style="fill:#263238"></path><path d="M311.71,218.67s.11,0,.12.09c.29,1.24.84,2.62,2.06,2.74a0,0,0,0,1,0,.07C312.49,221.74,311.79,219.9,311.71,218.67Z" style="fill:#263238"></path><path d="M312.47,217.09c1.95-.68,3.16,3.27,1.36,3.89S310.84,217.66,312.47,217.09Z" style="fill:#263238"></path><path d="M310.69,229.49a5.23,5.23,0,0,1-1.71,2,2.33,2.33,0,0,1-1.36.36c-1.05-.07-1.25-1-1.22-1.79a5.43,5.43,0,0,1,.21-1.29A6.68,6.68,0,0,0,310.69,229.49Z" style="fill:#263238"></path><path d="M309,231.45a2.33,2.33,0,0,1-1.36.36c-1.05-.07-1.25-1-1.22-1.79A2.38,2.38,0,0,1,309,231.45Z" style="fill:#ff9cbd"></path><path d="M288.47,231c2.9-.2,4.63-5.14,4.72-7s-3.52-10-3.11-12.93,3.8-5.23,6.2-5.36,6,1.81,7.59,1.1.45-3.85,1.57-4.24c2.45-.87,5.88,4.75,7.27,7.28,0,0-3.5-14.2-17.09-10.76-11.85,3-13.1,10.89-12.88,14.7C283.17,221.05,288.47,231,288.47,231Z" style="fill:#263238"></path><path d="M292.48,226.71s-4.62-5.81-7.28-4.13,1.07,10.29,4.38,11.29a3.29,3.29,0,0,0,4.29-2Z" style="fill:#eb9481"></path><path d="M286.33,225a0,0,0,0,0,0,.09c2.32.78,3.65,2.81,4.61,4.94a1.8,1.8,0,0,0-2.74-.33c-.06,0,0,.13.07.11a2.05,2.05,0,0,1,2.27.57,9.81,9.81,0,0,1,1.17,1.74c.12.19.48.06.39-.17a.08.08,0,0,1,0-.05C292,229,289.45,225.12,286.33,225Z" style="fill:#263238"></path><path d="M298.25,258.66s-10.83-18-24.17-19.62l1.21,10s7.95-.05,22,12.52Z" style="fill:#3FAAF0"></path><path d="M271.7,249.25a16.87,16.87,0,0,1,7.16.89,31.19,31.19,0,0,1,6.57,3,52.63,52.63,0,0,1,6,4.06l2.81,2.31,2.7,2.44.3.28.34-.18a61.28,61.28,0,0,0,7.14-4.39,35.77,35.77,0,0,0,3.29-2.6c1-.94,5.32-5,6.19-7.94-1.54,2.85-7.58,8.44-9.89,9.92-1.17.74-2.37,1.43-3.58,2.09s-2.42,1.33-3.65,1.92l.64.1L295,258.63c-.93-.81-1.89-1.59-2.85-2.37s-2-1.47-3-2.15-2.08-1.34-3.19-1.9a29,29,0,0,0-6.91-2.72,18.35,18.35,0,0,0-1.82-.38c-.61-.07-1.23-.16-1.85-.18A10.54,10.54,0,0,0,271.7,249.25Z" style="fill:#263238"></path><path d="M266.52,255a43.92,43.92,0,0,0,4.63-2.77,38.53,38.53,0,0,0,4.14-3.19,42.34,42.34,0,0,0-4.63,2.78A38.75,38.75,0,0,0,266.52,255Z" style="fill:#263238"></path><path d="M292.8,255.49a73.56,73.56,0,0,0-1.05,12.63c0,2.95,1.3,13.51,4.58,13.07s-2.19-7.17-3.22-12.74.39-9.68.53-13Z" style="fill:#263238"></path><path d="M304.45,255.87a107.14,107.14,0,0,1,2.65,12.23c.4,2.65.64,12.3-2.36,12.35s1-6.73,1.18-11.86-1.66-9.68-2.24-12.66Z" style="fill:#263238"></path></g><g id="freepik--speech-bubble--inject-7"><path d="M373.28,187a25.63,25.63,0,0,1-42.83,16.21l-12.82,1.88L324,194a25.64,25.64,0,1,1,49.24-7Z" style="fill:#fff"></path><path d="M373.28,187a25.91,25.91,0,0,1-5.17,13,23.66,23.66,0,0,1-5,5A25.85,25.85,0,0,1,350,210.07a23.49,23.49,0,0,1-3.56.07,22.38,22.38,0,0,1-3.55-.37,25.84,25.84,0,0,1-12.68-6.26l.31.09-12.82,2-.93.14.48-.82,6.37-11.1,0,.43a25.94,25.94,0,0,1,32.14-34.43,26.21,26.21,0,0,1,9.89,6.07A25.79,25.79,0,0,1,373.28,187Zm0,0A25.71,25.71,0,0,0,365.5,166a26,26,0,0,0-9.89-5.83,25.46,25.46,0,0,0-22,3.33,26.44,26.44,0,0,0-7.67,8.36,25.28,25.28,0,0,0-1.44,22l.09.22-.12.21L318,205.35l-.46-.68,12.84-1.8.18,0,.12.12A25.29,25.29,0,0,0,343,209.29a21.22,21.22,0,0,0,3.47.42,24.19,24.19,0,0,0,3.51,0,25.24,25.24,0,0,0,6.85-1.51,24,24,0,0,0,6.18-3.33,29.23,29.23,0,0,0,2.71-2.26A28,28,0,0,0,368,200,25.79,25.79,0,0,0,373.28,187Z" style="fill:#263238"></path><polygon points="344.54 198.98 333.59 187.9 337.27 184.26 343.66 190.73 356.95 169.9 361.31 172.68 344.54 198.98" style="fill:#3FAAF0"></polygon></g></svg>
