<svg xmlns="http://www.w3.org/2000/svg" width="56.624" height="79.867" viewBox="0 0 56.624 79.867">
  <g id="css" transform="translate(0.1)">
    <path id="Path_14087" data-name="Path 14087" d="M28.134,74.268l-23.086-6.4L-.1,10H56.524L51.376,67.716,28.134,74.268Z" transform="translate(0 5.599)" fill="#264de4"/>
    <path id="Path_14088" data-name="Path 14088" d="M36.663,62.449,41.03,13H18.1V67.6l18.563-5.148Z" transform="translate(10.19 7.279)" fill="#2965f1"/>
    <path id="Path_14089" data-name="Path 14089" d="M7.848,31.951l.624,7.176H24.383V31.951ZM6.6,17.6l.624,7.176H24.383V17.6ZM24.383,50.514h0L16.427,48.33l-.468-5.616H8.784L9.876,53.79l14.507,4.056h0Z" transform="translate(3.751 9.854)" fill="#ebebeb"/>
    <path id="Path_14090" data-name="Path 14090" d="M8.4,0h8.579V3.588H11.988V7.176h4.992v3.588H8.4ZM18.7,0h8.579V3.12H22.283v.624h4.992v7.176H18.7V7.643h4.992V7.02H18.7V0Zm10.3,0H37.57V3.12H32.578v.624H37.57v7.176H28.991V7.643h4.992V7.02H28.991V0Z" transform="translate(4.759)"/>
    <path id="Path_14091" data-name="Path 14091" d="M34.535,31.951,35.783,17.6H18v7.176h9.983l-.624,7.176H18v7.176h8.735l-.78,9.2L18,50.514V58l14.507-4.056.156-1.248,1.716-18.719.156-2.028Z" transform="translate(10.134 9.854)" fill="#fff"/>
  </g>
</svg>
