<svg id="Layer_2" data-name="Layer 2" xmlns="http://www.w3.org/2000/svg" width="120" height="76.5" viewBox="0 0 120 76.5">
  <g id="Layer_1" data-name="Layer 1">
    <path id="Path_77" data-name="Path 77" d="M9.57,29.5c-.23,0-.29-.12-.17-.29l1.21-1.56a.83.83,0,0,1,.64-.29H31.89c.23,0,.29.17.17.35l-1,1.5a.88.88,0,0,1-.58.35Z" fill="#00acd7"/>
    <path id="Path_78" data-name="Path 78" d="M.83,34.82c-.23,0-.29-.12-.17-.29L1.87,33a.83.83,0,0,1,.64-.29H28.88a.27.27,0,0,1,.29.35l-.46,1.39a.51.51,0,0,1-.52.35Z" fill="#00acd7"/>
    <path id="Path_79" data-name="Path 79" d="M14.83,40.14c-.23,0-.29-.17-.17-.35l.81-1.45A.77.77,0,0,1,16,38H27.61c.23,0,.35.17.35.4l-.12,1.39a.43.43,0,0,1-.4.4Z" fill="#00acd7"/>
    <path id="Path_80" data-name="Path 80" d="M74.87,28.46c-3.64.93-6.13,1.62-9.72,2.55-.87.23-.93.29-1.68-.58a7.74,7.74,0,0,0-2.72-2.2c-3.64-1.79-7.17-1.27-10.47.87a12.3,12.3,0,0,0-5.9,11,9.07,9.07,0,0,0,7.81,9.08A10.68,10.68,0,0,0,62,45.35c.52-.64,1-1.33,1.56-2.14H52.43c-1.21,0-1.5-.75-1.1-1.74.75-1.79,2.14-4.8,2.95-6.3a1.56,1.56,0,0,1,1.45-.93H76.78c-.12,1.56-.12,3.12-.35,4.69a24.67,24.67,0,0,1-4.74,11.34A24.1,24.1,0,0,1,55.2,60.1a20.49,20.49,0,0,1-15.56-3.82A18.17,18.17,0,0,1,32.3,43.44a22.7,22.7,0,0,1,4.92-16.95,25.67,25.67,0,0,1,16.2-10c5.44-1,10.64-.35,15.33,2.83a18.13,18.13,0,0,1,6.71,8.16C75.79,28,75.56,28.28,74.87,28.46Z" fill="#00acd7"/>
    <path id="Path_81" data-name="Path 81" d="M94,60.44a21.7,21.7,0,0,1-14.1-5.09,18.14,18.14,0,0,1-6.25-11.16,22.08,22.08,0,0,1,4.69-17.47c4.22-5.55,9.31-8.44,16.2-9.66C100.43,16,106,16.6,111,20a18,18,0,0,1,8.16,12.9,22.33,22.33,0,0,1-6.65,19.61,26.5,26.5,0,0,1-13.88,7.4C97.08,60.21,95.52,60.27,94,60.44Zm13.77-23.37a16.651,16.651,0,0,0-.17-1.91,9.53,9.53,0,0,0-11.8-7.69A12.64,12.64,0,0,0,85.69,37.54,9.53,9.53,0,0,0,91,48.47a10.6,10.6,0,0,0,9.43-.35,12.66,12.66,0,0,0,7.35-11Z" fill="#00acd7"/>
    <rect id="Rectangle_1314" data-name="Rectangle 1314" width="120" height="76.5" fill="none"/>
  </g>
</svg>
