<svg id="html" xmlns="http://www.w3.org/2000/svg" width="56.624" height="79.867" viewBox="0 0 56.624 79.867">
  <path id="Path_14092" data-name="Path 14092" d="M5.148,67.872,0,10H56.624L51.476,67.872l-23.242,6.4Z" transform="translate(0 5.599)" fill="#e44d26"/>
  <path id="Path_14093" data-name="Path 14093" d="M18.2,67.7l18.563-5.3L41.286,13.1H18.2Z" transform="translate(10.19 7.335)" fill="#f16529"/>
  <path id="Path_14094" data-name="Path 14094" d="M24.639,31.951H15.279l-.78-7.176H24.639V17.6H6.7l.312,1.872L8.728,39.127H24.639Z" transform="translate(3.751 9.854)" fill="#ebebeb"/>
  <path id="Path_14095" data-name="Path 14095" d="M23.8,41.555h-.156l-7.8-2.184L15.376,33.6H8.2l.936,11.231,14.507,4.056H23.8Z" transform="translate(4.591 18.812)" fill="#ebebeb"/>
  <path id="Path_14096" data-name="Path 14096" d="M3.4,0H6.988V3.588h3.276V0h3.588V10.763H10.264V7.176H6.988v3.588H3.4V0Z" transform="translate(1.904)"/>
  <path id="Path_14097" data-name="Path 14097" d="M14.32,3.588H11.2V0h9.827V3.588h-3.12v7.176H14.32V3.588Z" transform="translate(6.271)"/>
  <path id="Path_14098" data-name="Path 14098" d="M18.5,0h3.744l2.34,3.744L26.923,0h3.744V10.763H27.079V5.46L24.74,9.2h-.156l-2.5-3.744v5.3H18.656L18.5,0Z" transform="translate(10.358)"/>
  <path id="Path_14099" data-name="Path 14099" d="M27.4,0h3.588V7.176h5.148v3.588H27.4Z" transform="translate(15.341)"/>
  <path id="Path_14100" data-name="Path 14100" d="M18.1,26.8v7.176h8.735l-.78,9.2L18.1,45.363v7.331l14.507-4.056.156-1.092,1.716-18.719.156-2.028H18.1Z" transform="translate(10.134 15.005)" fill="#fff"/>
  <path id="Path_14101" data-name="Path 14101" d="M18.1,17.6v7.176H35.259l.156-1.56.312-3.744.156-1.872Z" transform="translate(10.134 9.854)" fill="#fff"/>
</svg>
