<svg xmlns="http://www.w3.org/2000/svg" width="80" height="80" viewBox="0 0 80 80">
  <g id="javascript-logo" transform="translate(0.339 0.339)">
    <rect id="Rectangle_1319" data-name="Rectangle 1319" width="80" height="80" transform="translate(-0.339 -0.339)" fill="#f7df1e"/>
    <path id="Path_14102" data-name="Path 14102" d="M198.415,311.974c1.6,2.62,3.692,4.546,7.384,4.546,3.1,0,5.083-1.55,5.083-3.692,0-2.567-2.036-3.476-5.45-4.969l-1.871-.8c-5.4-2.3-8.99-5.184-8.99-11.278,0-5.614,4.277-9.888,10.962-9.888,4.759,0,8.181,1.656,10.646,5.993l-5.829,3.743c-1.283-2.3-2.668-3.208-4.817-3.208a3.257,3.257,0,0,0-3.582,3.208c0,2.246,1.391,3.155,4.6,4.545l1.871.8c6.36,2.727,9.951,5.508,9.951,11.759,0,6.739-5.294,10.431-12.4,10.431-6.952,0-11.443-3.313-13.64-7.655Zm-26.442.649c1.176,2.086,2.246,3.85,4.817,3.85,2.459,0,4.011-.962,4.011-4.7V286.317h7.485v25.553c0,7.751-4.544,11.278-11.177,11.278-5.993,0-9.464-3.1-11.229-6.837Z" transform="translate(-144.973 -249.81)"/>
  </g>
</svg>
