<svg xmlns="http://www.w3.org/2000/svg" width="64.337" height="123.714" viewBox="0 0 64.337 123.714">
  <g id="layer1" transform="translate(3824.556 782.894)">
    <g id="Ebene_x0020_1" transform="translate(-3824.556 -782.894)">
      <g id="_198302696" transform="translate(0 0)">
        <path id="_227268128" d="M28.8,190.881s-3.259,1.984,2.267,2.551c6.66.85,10.2.708,17.572-.709a26.575,26.575,0,0,0,4.676,2.268c-16.58,7.086-37.553-.425-24.516-4.11Zm-2.126-9.211s-3.543,2.692,1.984,3.259A67.018,67.018,0,0,0,51.332,183.8a8.643,8.643,0,0,0,3.4,2.126c-19.981,5.952-42.372.567-28.059-4.251Zm39.112,16.155s2.409,1.984-2.693,3.543c-9.494,2.834-39.821,3.684-48.324,0-2.976-1.275,2.693-3.118,4.535-3.4a14.126,14.126,0,0,1,2.834-.425c-3.259-2.267-21.682,4.677-9.353,6.66,33.869,5.527,61.786-2.409,53-6.377ZM30.358,172.034s-15.446,3.684-5.527,4.96c4.251.567,12.612.425,20.406-.142,6.377-.567,12.754-1.7,12.754-1.7a34.083,34.083,0,0,0-3.826,1.984c-15.73,4.109-45.914,2.267-37.27-1.984a29.4,29.4,0,0,1,13.462-3.118ZM57.992,187.48c15.872-8.219,8.5-16.155,3.4-15.163a8.852,8.852,0,0,0-1.842.567,2.43,2.43,0,0,1,1.417-1.134c10.062-3.543,18,10.628-3.259,16.155a1.763,1.763,0,0,0,.283-.425Zm-26.075,22.39c15.3.992,38.687-.567,39.254-7.794,0,0-1.133,2.834-12.612,4.96a127.556,127.556,0,0,1-38.687.567s1.984,1.7,12.045,2.267Z" transform="translate(-6.834 -125.269)" fill="#4e7896"/>
        <path id="_230367536" d="M43.69,2.985s8.786,8.928-8.361,22.39c-13.746,10.912-3.118,17.147,0,24.233-8.078-7.227-13.888-13.6-9.92-19.556,5.81-8.786,21.824-13.037,18.281-27.067ZM39.155,43.656c4.109,4.677-1.134,8.928-1.134,8.928S48.508,47.2,43.69,40.539C39.3,34.162,35.9,31.044,54.318,20.416c0,0-29.051,7.227-15.163,23.24Zm-10.487,76.1V105.868c0-3.543-1.984-5.952-6.944-5.952a19.462,19.462,0,0,0-7.369,1.559l.709,2.551a16.772,16.772,0,0,1,5.668-1.134c2.692,0,3.968,1.134,3.968,3.4v1.842H23.283c-6.8,0-9.92,2.551-9.92,6.66,0,3.4,2.126,5.385,5.952,5.385a9.132,9.132,0,0,0,5.952-2.551l.283,2.126h3.118ZM24.7,115.22a6.839,6.839,0,0,1-4.393,1.984,2.8,2.8,0,0,1-2.976-3.118c0-1.984,1.134-3.4,5.668-3.4h1.7v4.535Zm17.289,4.535h-4.96l-5.952-19.414h4.251l3.684,11.9.85,3.543a68.385,68.385,0,0,0,3.826-15.446h4.251a80.745,80.745,0,0,1-5.952,19.414Zm22.957,0V105.868c0-3.543-1.984-5.952-6.944-5.952a19.461,19.461,0,0,0-7.369,1.559l.567,2.551a18.41,18.41,0,0,1,5.81-1.134c2.692,0,3.968,1.134,3.968,3.4v1.842H59.561c-6.8,0-9.92,2.551-9.92,6.66,0,3.4,1.984,5.385,5.81,5.385a9.2,9.2,0,0,0,6.094-2.551l.283,2.126Zm-3.968-4.535a6.84,6.84,0,0,1-4.393,1.984,2.8,2.8,0,0,1-2.976-3.118c0-1.984,1.134-3.4,5.668-3.4h1.7v4.535ZM8.97,123.015A9.424,9.424,0,0,1,4.01,126.7l-1.842-2.267a9.437,9.437,0,0,0,3.4-3.259c.567-.992.709-2.409.709-5.668V93.4h4.251v21.824c0,4.393-.425,6.093-1.559,7.794Z" transform="translate(-2.168 -2.985)" fill="#f58219"/>
      </g>
    </g>
  </g>
</svg>
