<svg id="Layer_2" data-name="Layer 2" xmlns="http://www.w3.org/2000/svg" width="110.44" height="76.5" viewBox="0 0 110.44 76.5">
  <g id="Layer_1" data-name="Layer 1">
    <rect id="Rectangle_1313" data-name="Rectangle 1313" width="110.44" height="76.5" fill="none"/>
    <path id="Path_74" data-name="Path 74" d="M22.45,29.61c3.46,0,5.69.61,6.81,1.93s1.42,3.46.81,6.5-1.83,5.49-3.56,6.81-4.47,2-8.13,2H12.9l3.35-17.28ZM.6,64.37H9.54l2.13-11H19.4a27.07,27.07,0,0,0,8.33-1.12,16.48,16.48,0,0,0,6-3.56,19.06,19.06,0,0,0,3.66-4.57,19.71,19.71,0,0,0,2-5.49c.91-4.88.2-8.74-2.13-11.38s-6.2-4.07-11.38-4.07H8.63Z" fill="#6082bb"/>
    <path id="Path_75" data-name="Path 75" d="M46,12.13h9l-2.13,11H60.8c5,0,8.44.91,10.37,2.64s2.44,4.57,1.73,8.44L69.1,53.39h-9L63.61,35.2c.41-2,.3-3.46-.41-4.27s-2.2-1.12-4.47-1.12H51.62L47,53.39H38.1Z" fill="#6082bb"/>
    <path id="Path_76" data-name="Path 76" d="M92.58,29.61c3.46,0,5.69.61,6.81,1.93s1.42,3.46.81,6.5-1.83,5.49-3.56,6.81-4.47,2-8.13,2H83l3.35-17.28ZM70.73,64.37h8.94l2.13-11h7.72a27.07,27.07,0,0,0,8.33-1.12,16.48,16.48,0,0,0,6-3.56,19.06,19.06,0,0,0,3.66-4.57,19.71,19.71,0,0,0,2-5.49c.91-4.88.2-8.74-2.13-11.38s-6.2-4.07-11.38-4.07H78.76l-8,41.16Z" fill="#6082bb"/>
  </g>
</svg>
