<?xml version="1.0" encoding="UTF-8"?> <svg xmlns="http://www.w3.org/2000/svg" width="516" height="496" viewBox="0 0 516 496" fill="none"> <path d="M202.28 351.926C206.947 351.926 211.594 352.095 216.262 352.095C219.084 352.095 221.269 352.223 223.39 352.35C227.304 352.675 231.239 352.632 235.145 352.223L234.912 350.101C231.119 350.5 227.297 350.542 223.497 350.229C221.375 350.229 219.253 349.974 216.262 349.974C211.615 349.974 192.923 349.634 188.34 349.634C180.546 349.579 172.756 349.94 165.001 350.717L165.235 352.838C172.898 352.071 180.596 351.717 188.297 351.777C192.986 351.756 197.633 351.862 202.28 351.926Z" fill="#E0DFE6"></path> <path d="M256.274 372.465C251.066 365.613 245.493 359.047 239.576 352.797L238.049 354.261C243.909 360.455 249.426 366.964 254.577 373.759C257.441 377.451 260.22 381.185 263.063 384.92L265.864 385.11C265.864 385.11 259.435 376.539 256.274 372.465Z" fill="#E0DFE6"></path> <path d="M327.547 371.276H280.997V373.398H327.547V371.276Z" fill="#E0DFE6"></path> <path d="M244.779 340.023L243.188 341.424C253.541 353.305 264.171 366.354 275.713 381.269L279.044 385.513H281.76L277.389 379.805C265.826 365.06 255.175 351.99 244.779 340.023Z" fill="#E0DFE6"></path> <path d="M324.031 380.335C319.126 380.111 314.211 380.253 309.327 380.76C305.911 381.057 302.368 381.354 298.91 381.354C295.672 381.385 292.44 381.05 289.277 380.357L288.811 382.478C292.126 383.209 295.515 383.557 298.91 383.518C302.453 383.518 306.039 383.221 309.518 382.924C314.289 382.419 319.091 382.277 323.882 382.5L324.031 380.335Z" fill="#E0DFE6"></path> <path d="M410.568 420.648C398.92 404.629 389.351 391.751 380.355 380.124C368.792 365.272 358.12 352.096 347.745 340.172L346.153 341.572C356.486 353.454 367.137 366.481 378.679 381.418C387.632 393.024 397.223 405.881 408.85 421.9L410.568 420.648Z" fill="#E0DFE6"></path> <path d="M327.603 403.505L325.99 404.905L330.234 409.806C334.265 414.389 338.848 419.609 341.861 423.512L343.558 422.218C340.482 418.251 335.877 413.031 331.825 408.406L327.603 403.505Z" fill="#E0DFE6"></path> <path d="M394.375 416.66C388.513 410.462 382.989 403.953 377.826 397.162C374.685 393.088 362.379 376.539 359.218 372.465C354.024 365.609 348.457 359.043 342.542 352.797L341.014 354.261C346.868 360.46 352.385 366.969 357.542 373.759C360.703 377.833 372.988 394.361 376.149 398.456C381.362 405.304 386.936 411.869 392.847 418.124L394.375 416.66Z" fill="#E0DFE6"></path> <path d="M379.203 419.884L380.752 418.441C377.251 414.665 373.643 410.358 369.697 405.287C365.751 400.216 361.826 394.678 358.07 389.459C354.315 384.239 350.432 378.85 346.464 373.694C344.343 370.851 342.221 368.305 340.099 365.95L338.444 367.287L339.06 368.072C340.842 370.194 342.667 372.485 344.64 375.01C348.565 380.123 352.448 385.619 356.203 390.732C359.959 395.845 363.884 401.34 367.873 406.602C371.861 411.864 375.638 416.065 379.203 419.884Z" fill="#E0DFE6"></path> <path d="M334.33 379.603L332.65 380.9L364.139 421.671L365.818 420.374L334.33 379.603Z" fill="#E0DFE6"></path> <path d="M341.825 339.598C337.052 339.471 333.338 339.323 330.029 339.195C322.666 338.919 317.299 338.729 306.881 338.729C289.801 338.729 274.567 339.132 260.31 339.98L260.436 342.102C274.652 341.274 289.844 340.871 306.881 340.871C317.32 340.871 322.624 341.062 329.944 341.338C333.275 341.465 336.988 341.614 341.762 341.741L341.825 339.598Z" fill="#E0DFE6"></path> <path d="M320.93 390.944H322.373V388.822H321.248C321.142 389.544 321.015 390.265 320.93 390.944Z" fill="#E0DFE6"></path> <path d="M229.843 380.463L232.559 380.994L231.285 379.339L229.843 380.463Z" fill="#E0DFE6"></path> <path d="M323.368 413.499C323.899 415.048 324.514 416.554 325.171 418.061C326.486 419.427 327.594 420.978 328.46 422.665L330.412 421.816C328.658 418.591 326.261 415.76 323.368 413.499Z" fill="#E0DFE6"></path> <path d="M182.146 361.601C187.98 361.601 193.985 361.792 199.777 362.004C205.57 362.216 211.659 362.407 217.578 362.407C223.498 362.407 228.59 362.195 233.279 361.771L233.088 359.649C228.463 360.073 223.392 360.264 217.578 360.264C211.765 360.264 205.676 360.052 199.841 359.861C194.006 359.67 188.023 359.458 182.146 359.458C179.6 359.458 177.287 359.458 175.017 359.585L178.475 361.707L182.146 361.601Z" fill="#E0DFE6"></path> <path d="M345.213 410.528C342.646 407.727 339.994 404.82 337.66 401.808C335.326 398.795 332.78 395.803 330.213 393.045L328.664 394.488C331.189 397.204 333.862 400.344 335.984 403.102C338.381 406.199 341.055 409.128 343.643 411.949C346.232 414.771 348.862 417.657 351.196 420.691C352.151 421.921 353 423.088 353.764 424.276L355.546 423.11C354.74 421.879 353.87 420.67 352.873 419.397C350.496 416.405 347.802 413.371 345.213 410.528Z" fill="#E0DFE6"></path> <path d="M237.192 365.95L235.559 367.287L236.153 368.072C237.935 370.194 239.76 372.485 241.733 375.01C243.706 377.535 245.977 380.632 248.098 383.497L250.962 383.836C248.501 380.42 245.997 377.004 243.451 373.716C241.245 370.851 239.208 368.305 237.192 365.95Z" fill="#E0DFE6"></path> <path d="M240.334 339.598C235.581 339.471 231.847 339.323 228.558 339.195C221.196 338.919 215.828 338.729 205.41 338.729C188.309 338.729 173.076 339.132 158.839 339.98L158.966 342.102C173.161 341.274 188.352 340.871 205.41 340.871C215.849 340.871 221.154 341.062 228.473 341.338C231.805 341.465 235.517 341.614 240.27 341.741L240.334 339.598Z" fill="#E0DFE6"></path> <path d="M334.569 359.67C329.944 360.095 324.873 360.286 319.06 360.286C313.246 360.286 307.157 360.073 301.343 359.882C295.53 359.692 289.504 359.479 283.648 359.479C280.402 359.479 277.453 359.479 274.652 359.67V361.792H275.543C278.068 361.792 280.72 361.643 283.606 361.643C289.419 361.643 295.424 361.835 301.216 362.047C307.008 362.259 313.098 362.45 319.017 362.45C324.937 362.45 330.029 362.238 334.718 361.813L334.569 359.67Z" fill="#E0DFE6"></path> <path d="M336.486 350.101C332.701 350.5 328.886 350.542 325.093 350.229C322.971 350.229 320.722 349.974 317.836 349.974C313.19 349.974 294.498 349.634 289.915 349.634C282.122 349.579 274.331 349.94 266.576 350.717L266.809 352.838C274.472 352.071 282.171 351.717 289.872 351.777C294.519 351.777 313.211 352.117 317.794 352.117C320.616 352.117 322.801 352.244 324.923 352.371C328.837 352.696 332.772 352.653 336.677 352.244L336.486 350.101Z" fill="#E0DFE6"></path> <path d="M204.385 373.42H226.005V371.298H198.72C200.693 372.04 202.475 372.741 204.385 373.42Z" fill="#E0DFE6"></path> <path d="M346.153 430.578C354.64 440.316 363.339 450.882 372.568 462.594C373.99 463.316 375.433 464.016 376.812 464.716C366.585 451.582 357.016 439.934 347.681 429.22L346.153 430.578Z" fill="#E0DFE6"></path> <path d="M342.509 441.865L343.103 442.438L342.551 441.844L342.509 441.865Z" fill="#E0DFE6"></path> <path d="M332.411 430.514L341.767 430.832V428.71L330.841 428.35C331.392 429.135 331.88 429.814 332.411 430.514Z" fill="#E0DFE6"></path> <path d="M439.902 457.163C441.684 459.285 443.531 461.576 445.483 464.101C449.089 468.769 452.633 473.67 456.091 478.465L458.488 478.147C454.818 473.055 451.041 467.814 447.18 462.807C445.058 459.964 442.936 457.418 440.814 455.062L439.181 456.399L439.775 457.184L439.902 457.163Z" fill="#E0DFE6"></path> <path d="M444.009 428.711C439.257 428.583 435.523 428.435 432.234 428.308C424.872 428.032 419.504 427.841 409.086 427.841C391.985 427.841 376.751 428.244 362.515 429.093L362.642 431.214C376.836 430.387 392.028 429.984 409.086 429.984C419.525 429.984 424.829 430.175 432.149 430.45C435.48 430.578 439.193 430.726 443.946 430.854L444.009 428.711Z" fill="#E0DFE6"></path> <path d="M429.726 460.388H383.176V462.509H429.726V460.388Z" fill="#E0DFE6"></path> <path d="M484.672 462.53H495.747C496.553 461.83 497.338 461.13 498.102 460.408H484.672V462.53Z" fill="#E0DFE6"></path> <path d="M505.018 448.995C499.204 448.783 493.179 448.592 487.323 448.592C484.077 448.592 481.128 448.592 478.327 448.783V450.904H479.218C481.743 450.904 484.395 450.756 487.281 450.756C493.094 450.756 499.099 450.947 504.891 451.159H505.846C506.312 450.48 506.715 449.78 507.14 449.037L505.018 448.995Z" fill="#E0DFE6"></path> <path d="M436.773 448.783C432.148 449.207 427.077 449.398 421.264 449.398C415.45 449.398 409.361 449.186 403.526 448.995C397.692 448.804 391.708 448.592 385.831 448.592C382.606 448.592 379.657 448.592 376.856 448.783V450.904H377.747C380.272 450.904 382.903 450.756 385.789 450.756C391.623 450.756 397.628 450.947 403.42 451.159C409.213 451.371 415.302 451.562 421.221 451.562C427.141 451.562 432.233 451.35 436.922 450.926L436.773 448.783Z" fill="#E0DFE6"></path> <path d="M469.264 473.925C466.188 469.787 463.111 465.65 459.95 461.576C454.742 454.724 449.168 448.159 443.252 441.908L441.725 443.372C447.586 449.571 453.11 456.08 458.274 462.871C461.414 466.944 468.034 475.834 468.267 476.153L470.389 475.537L469.264 473.925Z" fill="#E0DFE6"></path> <path d="M438.613 439.212C434.82 439.61 430.998 439.653 427.198 439.339C425.076 439.339 422.955 439.084 419.963 439.084C415.316 439.084 396.624 438.745 392.041 438.745C384.248 438.689 376.457 439.05 368.702 439.827L368.936 441.949C376.599 441.181 384.297 440.827 391.998 440.888C396.645 440.888 415.338 441.227 419.92 441.227C422.742 441.227 424.927 441.354 427.049 441.482C430.963 441.806 434.898 441.763 438.803 441.355L438.613 439.212Z" fill="#E0DFE6"></path> <path d="M493.485 440.867C498.132 440.867 509.886 441.079 511.117 441.101C511.393 440.422 511.668 439.7 511.923 438.979C510.438 438.979 498.153 438.724 493.485 438.724C485.692 438.669 477.901 439.03 470.146 439.806L470.38 441.928C478.057 441.159 485.77 440.805 493.485 440.867Z" fill="#E0DFE6"></path> <path d="M510.577 429.963H514.459C514.608 429.262 514.778 428.562 514.905 427.841H510.662C493.561 427.841 478.327 428.244 463.984 429.093L464.111 431.214C478.327 430.366 493.497 429.963 510.577 429.963Z" fill="#E0DFE6"></path> <path d="M481.065 469.129C469.502 454.277 458.851 441.102 448.455 429.178L446.863 430.578C457.217 442.46 467.847 455.508 479.389 470.424L480.535 471.93L482.529 471.039L481.065 469.129Z" fill="#E0DFE6"></path> <path d="M397.434 371.298H383.176V373.42H391.175C393.254 372.741 395.354 372.04 397.434 371.298Z" fill="#E0DFE6"></path> <path d="M442.588 423.511L444.265 422.217C440.021 416.658 435.099 410.336 429.158 405.965L427.906 407.684C433.635 411.863 438.345 418.059 442.588 423.511Z" fill="#E0DFE6"></path> <path d="M492.538 382.076V382.352L493.387 382.501L492.538 382.076Z" fill="#E0DFE6"></path> <path d="M411.65 382.796C416.42 382.291 421.222 382.149 426.014 382.372L426.183 380.25C421.272 380.026 416.35 380.168 411.459 380.675C408.043 380.972 404.521 381.269 401.062 381.269C397.824 381.299 394.593 380.965 391.43 380.271L390.963 382.393C394.279 383.123 397.667 383.472 401.062 383.433C404.605 383.39 408.191 383.093 411.65 382.796Z" fill="#E0DFE6"></path> <path d="M451.914 420.648C452.89 421.879 453.718 423.067 454.482 424.234L456.264 423.067C455.457 421.858 454.587 420.627 453.611 419.354C452.635 418.081 448.859 413.774 444.615 408.894C439.375 402.889 433.434 396.164 431.418 393.49L429.742 394.785C431.864 397.437 437.741 404.269 443.003 410.294C447.077 414.983 450.896 419.354 451.914 420.648Z" fill="#E0DFE6"></path> <path d="M428.71 423.194L430.386 421.899C429.261 420.457 428.476 419.311 427.797 418.314C426.605 416.398 425.179 414.638 423.554 413.073L422.111 414.622C423.643 416.083 424.996 417.721 426.142 419.502C426.758 420.648 427.543 421.708 428.71 423.194Z" fill="#E0DFE6"></path> <path d="M508.348 399.898C509.048 399.898 509.706 399.898 510.47 399.898H511.255C510.831 399.177 510.364 398.477 509.876 397.776H508.306C507.309 397.776 506.184 397.904 504.678 397.776V399.898H505.908C506.672 399.983 507.5 399.941 508.348 399.898Z" fill="#E0DFE6"></path> <path d="M504.413 391.157C503.734 390.478 503.055 389.841 502.292 389.184L499.958 389.459L500.255 391.581C501.485 391.39 502.886 391.263 504.413 391.157Z" fill="#E0DFE6"></path> <path d="M415.888 418.314C415.246 418.241 414.599 418.241 413.957 418.314L414.36 420.436C414.832 420.383 415.31 420.383 415.782 420.436H416.63C417.253 420.443 417.871 420.336 418.455 420.118L417.67 418.145C417.092 418.316 416.487 418.373 415.888 418.314Z" fill="#E0DFE6"></path> <path d="M421.371 397.713C419.143 397.713 411.484 397.713 408.853 397.713C408.11 397.713 407.41 397.713 406.731 397.713C406.052 397.713 404.609 397.84 403.103 397.713V399.835H404.333C405.352 399.835 406.179 399.835 406.922 399.835C407.664 399.835 408.28 399.835 409.043 399.835C411.696 399.835 419.44 399.835 421.774 399.835L421.371 397.713Z" fill="#E0DFE6"></path> <path d="M435.013 379.497L433.334 380.794L464.822 421.565L466.502 420.268L435.013 379.497Z" fill="#E0DFE6"></path> <path d="M515.323 410.783C515.175 410.061 515.005 409.361 514.814 408.661H513.01C511.633 408.565 510.25 408.565 508.873 408.661L509.107 410.783C510.393 410.707 511.682 410.707 512.968 410.783H515.323Z" fill="#E0DFE6"></path> <path d="M409.071 340.85C419.509 340.85 424.814 341.041 432.134 341.317C435.465 341.444 439.178 341.593 443.93 341.72V339.598C439.178 339.471 435.444 339.323 432.155 339.195C424.793 338.919 419.425 338.729 409.007 338.729C391.906 338.729 376.672 339.132 362.436 339.98L362.563 342.102C376.8 341.253 392.012 340.85 409.071 340.85Z" fill="#E0DFE6"></path> <path d="M424.563 388.823H420.32C413.036 388.578 405.744 388.791 398.487 389.459L398.785 391.581C405.937 390.94 413.121 390.735 420.299 390.966H424.542L424.563 388.823Z" fill="#E0DFE6"></path> <path d="M419.248 408.618C417.912 408.618 416.681 408.618 415.387 408.618C414.093 408.618 412.926 408.618 411.441 408.618C410.07 408.522 408.695 408.522 407.324 408.618L407.558 410.74C408.844 410.664 410.133 410.664 411.419 410.74C412.926 410.74 414.241 410.74 415.472 410.74C416.687 410.676 417.905 410.676 419.121 410.74L419.248 408.618Z" fill="#E0DFE6"></path> <path d="M448.455 340.023L446.863 341.424L447.118 341.7C447.627 341.212 448.136 340.745 448.646 340.236L448.455 340.023Z" fill="#E0DFE6"></path> <path d="M377.788 361.792C380.313 361.792 382.944 361.643 385.83 361.643C391.664 361.643 397.669 361.835 403.461 362.047C408.362 362.216 413.369 362.365 418.313 362.407C419.628 361.75 420.901 361.05 422.174 360.286H421.368C415.491 360.286 409.465 360.073 403.63 359.882C397.796 359.692 391.813 359.479 385.936 359.479C382.711 359.479 379.762 359.479 376.961 359.67V361.792H377.788Z" fill="#E0DFE6"></path> <path d="M392.041 351.756C396.687 351.756 415.38 352.095 419.963 352.095C422.785 352.095 424.97 352.223 427.092 352.35C429.213 352.478 431.632 352.605 434.263 352.541C435.303 351.777 436.385 351.014 437.361 350.229C433.979 350.506 430.58 350.506 427.198 350.229C425.076 350.229 422.955 349.974 419.963 349.974C415.316 349.974 396.624 349.634 392.041 349.634C384.248 349.579 376.457 349.94 368.702 350.717L368.936 352.838C376.612 352.062 384.325 351.701 392.041 351.756Z" fill="#E0DFE6"></path> <path d="M495.079 416.66C489.219 410.466 483.701 403.957 478.551 397.162C475.389 393.088 464.929 379.021 462.744 376.136L460.262 376.412C462.723 379.615 473.713 394.361 476.853 398.456C482.066 405.304 487.64 411.869 493.551 418.124L495.079 416.66Z" fill="#E0DFE6"></path> <path d="M468.711 406.581C472.679 411.715 476.328 416.065 479.871 419.884L481.42 418.441C477.919 414.686 474.312 410.358 470.387 405.287C466.462 400.216 462.516 394.678 458.739 389.459C455.875 385.491 452.925 381.418 449.934 377.429H448.3H447.388C450.655 381.906 464.701 401.383 468.711 406.581Z" fill="#E0DFE6"></path> <path d="M511.27 420.648C499.643 404.629 490.052 391.75 481.056 380.123L478.383 376.686C477.322 376.474 476.261 376.304 475.285 376.177L479.38 381.417C488.334 393.044 497.945 405.902 509.572 421.899L511.27 420.648Z" fill="#E0DFE6"></path> <path d="M516 418.335H515.533L515.831 420.457C515.831 420.457 515.831 420.35 515.831 420.308C516 419.65 515.979 418.993 516 418.335Z" fill="#E0DFE6"></path> <path d="M449.905 377.366L449.671 377.026L447.125 377.175L447.401 377.557L449.905 377.366Z" fill="#E0DFE6"></path> <path d="M401.062 292.157C397.824 292.188 394.593 291.853 391.43 291.16L390.963 293.281C394.279 294.012 397.667 294.36 401.062 294.321C404.605 294.321 408.191 294.024 411.671 293.727C416.441 293.222 421.243 293.08 426.035 293.303L426.205 291.181C421.293 290.957 416.371 291.099 411.48 291.605C408.043 291.86 404.521 292.157 401.062 292.157Z" fill="#E0DFE6"></path> <path d="M429.726 282.165H383.176V284.287H429.726V282.165Z" fill="#E0DFE6"></path> <path d="M415.888 329.203C415.246 329.13 414.599 329.13 413.957 329.203L414.36 331.325C414.832 331.272 415.31 331.272 415.782 331.325H416.63C417.253 331.332 417.871 331.224 418.455 331.007L417.67 329.033C417.092 329.204 416.487 329.262 415.888 329.203Z" fill="#E0DFE6"></path> <path d="M436.773 270.559C432.148 270.983 427.077 271.174 421.264 271.174C415.45 271.174 409.361 270.962 403.526 270.771C397.692 270.58 391.708 270.368 385.831 270.368C382.606 270.368 379.657 270.368 376.856 270.559V272.681H377.747C380.272 272.681 382.903 272.532 385.789 272.532C391.623 272.532 397.628 272.723 403.42 272.935C409.213 273.148 415.302 273.338 421.221 273.338C427.141 273.338 432.233 273.126 436.922 272.702L436.773 270.559Z" fill="#E0DFE6"></path> <path d="M442.588 334.4L444.265 333.106C440.021 327.547 435.099 321.224 429.158 316.854L427.906 318.572C433.635 322.752 438.345 328.947 442.588 334.4Z" fill="#E0DFE6"></path> <path d="M441.725 265.147C447.586 271.346 453.11 277.855 458.274 284.646C461.414 288.719 471.407 302.15 473.359 304.738C473.699 303.974 473.996 303.232 474.314 302.489C472.616 300.219 463.111 287.425 459.95 283.394C454.742 276.542 449.168 269.976 443.252 263.726L441.725 265.147Z" fill="#E0DFE6"></path> <path d="M392.041 262.644C396.687 262.644 415.38 262.983 419.963 262.983C422.785 262.983 424.97 263.111 427.092 263.238C431.005 263.562 434.94 263.52 438.846 263.111L438.613 260.989C434.82 261.387 430.998 261.43 427.198 261.116C425.076 261.116 422.955 260.861 419.963 260.861C415.316 260.861 396.624 260.522 392.041 260.522C384.248 260.466 376.457 260.828 368.702 261.604L368.936 263.726C376.612 262.95 384.325 262.589 392.041 262.644Z" fill="#E0DFE6"></path> <path d="M433.308 291.542L460.444 326.677L461.76 324.895L434.983 290.227L433.308 291.542Z" fill="#E0DFE6"></path> <path d="M481.671 262.899C481.671 262.178 481.671 261.478 481.671 260.777C477.597 260.947 473.863 261.223 470.277 261.605L470.51 263.727C473.969 263.345 477.661 263.069 481.671 262.899Z" fill="#E0DFE6"></path> <path d="M478.327 270.559V272.681H479.218C479.961 272.681 480.725 272.681 481.488 272.681C481.488 271.959 481.488 271.259 481.637 270.559C480.533 270.474 479.409 270.495 478.327 270.559Z" fill="#E0DFE6"></path> <path d="M479.028 288.297C468.25 274.421 458.236 262.179 448.455 250.955L446.863 252.355C456.899 263.898 467.232 276.522 478.371 290.907C478.668 290.037 478.816 289.103 479.028 288.297Z" fill="#E0DFE6"></path> <path d="M439.233 278.176L439.828 278.961C441.61 281.083 443.456 283.374 445.408 285.899C449.354 291.012 453.216 296.507 456.971 301.621C460.387 306.373 463.909 311.253 467.58 315.964C467.962 315.306 468.365 314.648 468.725 313.969C465.331 309.492 461.999 304.888 458.753 300.369C454.998 295.15 451.115 289.76 447.147 284.605C445.026 281.762 442.904 279.215 440.782 276.86L439.233 278.176Z" fill="#E0DFE6"></path> <path d="M421.371 308.601C419.143 308.601 411.484 308.601 408.853 308.601C408.11 308.601 407.41 308.601 406.731 308.601C406.052 308.601 404.609 308.728 403.103 308.601V310.722H404.333C405.352 310.722 406.179 310.722 406.922 310.722C407.664 310.722 408.28 310.722 409.043 310.722C411.696 310.722 419.44 310.722 421.774 310.722L421.371 308.601Z" fill="#E0DFE6"></path> <path d="M480.533 252.226C480.533 251.505 480.321 250.805 480.194 250.104C474.635 250.295 469.246 250.55 463.984 250.868L464.111 252.99C469.437 252.672 474.89 252.417 480.533 252.226Z" fill="#E0DFE6"></path> <path d="M428.71 334.082L430.386 332.788C429.261 331.345 428.476 330.2 427.797 329.202C426.605 327.287 425.179 325.527 423.554 323.962L422.111 325.511C423.643 326.972 424.996 328.61 426.142 330.39C426.758 331.536 427.543 332.597 428.71 334.082Z" fill="#E0DFE6"></path> <path d="M424.563 299.711H420.32C413.036 299.466 405.744 299.679 398.487 300.347L398.785 302.469C405.937 301.828 413.121 301.622 420.299 301.853H424.542L424.563 299.711Z" fill="#E0DFE6"></path> <path d="M419.248 319.506C417.912 319.506 416.681 319.506 415.387 319.506C414.093 319.506 412.926 319.506 411.441 319.506C410.07 319.409 408.695 319.409 407.324 319.506L407.558 321.628C408.844 321.552 410.133 321.552 411.419 321.628C412.926 321.628 414.241 321.628 415.472 321.628C416.687 321.564 417.905 321.564 419.121 321.628L419.248 319.506Z" fill="#E0DFE6"></path> <path d="M409.071 251.739C419.509 251.739 424.814 251.93 432.134 252.206C435.465 252.333 439.178 252.482 443.93 252.609V250.487C439.178 250.36 435.444 250.211 432.155 250.084C424.793 249.808 419.425 249.617 409.007 249.617C391.906 249.617 376.672 250.02 362.436 250.869L362.563 252.991C376.8 252.142 392.012 251.739 409.071 251.739Z" fill="#E0DFE6"></path> <path d="M451.882 331.537C452.667 332.555 453.368 333.51 454.004 334.486L455.447 332.831C454.853 331.982 454.238 331.134 453.559 330.243C452.498 328.864 448.806 324.662 444.563 319.783C439.322 313.778 433.381 307.052 431.366 304.379L429.689 305.673C431.811 308.326 437.688 315.157 442.95 321.183C447.045 325.872 450.864 330.243 451.882 331.537Z" fill="#E0DFE6"></path> <path d="M419.248 230.395C417.912 230.395 416.681 230.395 415.387 230.395C414.093 230.395 412.926 230.395 411.441 230.395C410.07 230.298 408.695 230.298 407.324 230.395L407.558 232.516C408.844 232.441 410.133 232.441 411.419 232.516C412.926 232.516 414.241 232.516 415.472 232.516C416.687 232.453 417.905 232.453 419.121 232.516L419.248 230.395Z" fill="#E0DFE6"></path> <path d="M415.888 240.092C415.246 240.018 414.599 240.018 413.957 240.092L414.36 242.213C414.832 242.16 415.31 242.16 415.782 242.213H416.63C417.253 242.221 417.871 242.113 418.455 241.895L417.67 239.922C417.092 240.093 416.487 240.151 415.888 240.092Z" fill="#E0DFE6"></path> <path d="M424.563 210.599H420.32C413.036 210.354 405.744 210.567 398.487 211.236L398.785 213.358C405.937 212.717 413.121 212.511 420.299 212.742H424.542L424.563 210.599Z" fill="#E0DFE6"></path> <path d="M435.013 201.339L433.334 202.637L464.837 243.397L466.515 242.099L435.013 201.339Z" fill="#E0DFE6"></path> <path d="M421.371 219.489C419.143 219.489 411.484 219.489 408.853 219.489C408.11 219.489 407.41 219.489 406.731 219.489C406.052 219.489 404.609 219.617 403.103 219.489V221.611H404.333C405.352 221.611 406.179 221.611 406.922 221.611C407.664 221.611 408.28 221.611 409.043 221.611C411.696 221.611 419.44 221.611 421.774 221.611L421.371 219.489Z" fill="#E0DFE6"></path> <path d="M442.588 245.289L444.265 243.995C440.021 238.436 435.099 232.113 429.158 227.742L427.906 229.461C433.635 233.641 438.345 239.836 442.588 245.289Z" fill="#E0DFE6"></path> <path d="M390.35 181.319H385.831C382.606 181.319 379.657 181.32 376.856 181.51V183.632H377.747C380.272 183.632 382.903 183.484 385.789 183.484C391.623 183.484 397.628 183.675 403.42 183.887H406.454C403.335 183.271 400.217 182.72 397.098 182.274C394.87 181.914 392.599 181.616 390.35 181.319Z" fill="#E0DFE6"></path> <path d="M401.062 203.045C397.824 203.076 394.593 202.742 391.43 202.048L390.963 204.17C394.279 204.9 397.667 205.249 401.062 205.21C404.605 205.21 408.191 204.913 411.671 204.616C416.441 204.11 421.243 203.968 426.035 204.191L426.205 202.07C421.293 201.846 416.371 201.988 411.48 202.494C408.043 202.749 404.521 203.045 401.062 203.045Z" fill="#E0DFE6"></path> <path d="M429.726 193.053H383.176V195.174H429.726V193.053Z" fill="#E0DFE6"></path> <path d="M451.914 242.425C452.89 243.655 453.718 244.843 454.482 246.01L456.264 244.843C455.457 243.634 454.587 242.403 453.611 241.13C452.635 239.857 448.859 235.55 444.615 230.67C439.375 224.666 433.434 217.94 431.418 215.267L429.742 216.561C431.864 219.213 437.741 226.045 443.003 232.071C447.077 236.76 450.896 241.13 451.914 242.425Z" fill="#E0DFE6"></path> <path d="M468.703 228.357C471.589 232.091 474.304 235.401 476.935 238.414C476.2 236.321 475.372 234.242 474.453 232.176C473.116 230.543 471.78 228.867 470.379 227.063C466.391 221.907 462.508 216.455 458.731 211.235L454.063 204.87C452.111 203.258 450.117 201.709 448.017 200.287C451.051 204.233 464.693 223.159 468.703 228.357Z" fill="#E0DFE6"></path> <path d="M428.71 244.971L430.386 243.677C429.261 242.234 428.476 241.088 427.797 240.091C426.605 238.176 425.179 236.416 423.554 234.851L422.111 236.399C423.643 237.861 424.996 239.499 426.142 241.279C426.758 242.425 427.543 243.486 428.71 244.971Z" fill="#E0DFE6"></path> <path d="M225.004 66.7463L226.68 65.4521C225.556 64.0093 224.771 62.8637 224.092 61.8665C222.899 59.9512 221.474 58.191 219.849 56.626L218.385 58.1748C219.929 59.6305 221.29 61.2691 222.437 63.0546C223.052 64.2003 223.837 65.2611 225.004 66.7463Z" fill="#E0DFE6"></path> <path d="M238.914 67.0651L240.59 65.7709C236.307 59.6998 231.225 54.2332 225.483 49.5186L224.231 51.2373C229.96 55.417 234.67 61.6123 238.914 67.0651Z" fill="#E0DFE6"></path> <path d="M205.204 41.2666C204.462 41.2666 203.762 41.2666 203.083 41.2666C202.404 41.2666 200.961 41.3939 199.454 41.2666V43.3883H200.685C201.703 43.3883 202.531 43.3883 203.273 43.3883C204.016 43.3883 204.631 43.3883 205.395 43.3883C208.047 43.3883 215.791 43.3883 218.125 43.3883V42.5611L212.672 41.3516C209.596 41.3303 206.647 41.2878 205.204 41.2666Z" fill="#E0DFE6"></path> <path d="M248.203 64.2007C249.179 65.4313 250.007 66.6194 250.77 67.7863L252.552 66.6195C251.746 65.4101 250.876 64.1796 249.879 62.9065C248.882 61.6335 245.147 57.3263 240.904 52.4464L236.024 46.8451L232.438 45.9541C234.645 48.5214 247.184 62.9065 248.203 64.2007Z" fill="#E0DFE6"></path> <path d="M262.766 63.6708L254.47 52.9348C253.197 52.4044 251.924 51.8952 250.608 51.4072L261.09 64.965L262.766 63.6708Z" fill="#E0DFE6"></path> <path d="M215.547 52.1712C214.211 52.1712 212.98 52.1712 211.686 52.1712C210.391 52.1712 209.225 52.1712 207.74 52.1712C206.369 52.0744 204.993 52.0744 203.623 52.1712L203.857 54.2929C205.143 54.217 206.432 54.217 207.718 54.2929C209.225 54.2929 210.54 54.2929 211.771 54.2929C212.986 54.2293 214.204 54.2293 215.42 54.2929L215.547 52.1712Z" fill="#E0DFE6"></path> <path d="M212.213 61.8681C211.571 61.7947 210.924 61.7947 210.282 61.8681L210.685 63.9899C211.15 63.9367 211.621 63.9367 212.086 63.9899H212.934C213.564 63.9974 214.189 63.8894 214.78 63.6715L213.995 61.6982C213.418 61.8693 212.812 61.9271 212.213 61.8681Z" fill="#E0DFE6"></path> <path d="M206.88 64.202C199.412 53.933 192.793 44.9371 186.618 36.7473L183.669 36.3652C190.183 44.9794 197.184 54.4633 205.162 65.4538L206.88 64.202Z" fill="#E0DFE6"></path> <path d="M123.928 47.0586L122.315 48.4587L126.559 53.36C130.59 57.9429 135.173 63.1622 138.186 67.0662L139.883 65.7719C136.807 61.8044 132.203 56.5849 128.15 51.9596L123.928 47.0586Z" fill="#E0DFE6"></path> <path d="M190.708 60.211C184.84 54.0178 179.315 47.5088 174.158 40.7126L169.915 35.0263L167.178 34.8779C168.96 37.2755 170.742 39.6517 172.567 42.0068C177.78 48.8546 183.354 55.42 189.265 61.6751L190.708 60.211Z" fill="#E0DFE6"></path> <path d="M124.786 66.3228L126.738 65.4741C124.851 61.9441 122.163 58.9065 118.888 56.6055L117.806 58.4089C120.692 60.4952 123.077 63.1987 124.786 66.3228Z" fill="#E0DFE6"></path> <path d="M141.525 54.0798C138.957 51.2792 136.305 48.3725 133.971 45.3597C132.635 43.5986 131.064 41.7316 129.473 39.8857C128.815 40.2252 128.2 40.5859 127.585 40.9466C129.261 42.8561 130.895 44.8292 132.295 46.6539C134.693 49.7516 137.366 52.6796 139.955 55.5015C142.543 58.3234 145.174 61.2089 147.508 64.2429C148.462 65.4735 149.311 66.6403 150.075 67.8285L151.857 66.6617C151.051 65.4311 150.181 64.2217 149.184 62.9487C146.807 59.9571 144.113 56.9229 141.525 54.0798Z" fill="#E0DFE6"></path> <path d="M175.528 63.4378L177.076 61.9949C173.576 58.2183 169.947 53.9113 166.022 48.8404C162.521 44.3 159.106 39.5684 155.774 34.9219L153.229 35.0493C156.835 40.0565 160.548 45.191 164.346 50.1346C168.144 55.0782 171.963 59.6187 175.528 63.4378Z" fill="#E0DFE6"></path> <path d="M113.724 63.735L113.13 61.6133C112.926 61.6368 112.719 61.6368 112.515 61.6133C112.303 62.3559 112.133 63.0773 111.984 63.735C112.562 63.8028 113.146 63.8028 113.724 63.735Z" fill="#E0DFE6"></path> <path d="M162.062 63.6716L141.036 36.4502C140.251 36.5775 139.487 36.7472 138.702 36.8957L160.386 64.9658L162.062 63.6716Z" fill="#E0DFE6"></path> <path d="M341.825 250.487C337.052 250.36 333.338 250.211 330.029 250.084C322.666 249.808 317.299 249.617 306.881 249.617C289.801 249.617 274.567 250.02 260.31 250.869L260.436 252.991C274.652 252.163 289.844 251.76 306.881 251.76C317.32 251.76 322.624 251.951 329.944 252.227C333.275 252.354 336.988 252.503 341.762 252.63L341.825 250.487Z" fill="#E0DFE6"></path> <path d="M314.166 331.325C315.276 331.418 316.394 331.332 317.476 331.07L316.903 328.948C316.04 329.139 315.153 329.196 314.272 329.118C313.461 329.045 312.644 329.045 311.832 329.118L312.129 331.24C312.809 331.205 313.491 331.233 314.166 331.325Z" fill="#E0DFE6"></path> <path d="M334.569 270.559C329.944 270.983 324.873 271.174 319.06 271.174C313.246 271.174 307.157 270.962 301.343 270.771C295.53 270.58 289.504 270.368 283.648 270.368C280.402 270.368 277.453 270.368 274.652 270.559V272.681H275.543C278.068 272.681 280.72 272.532 283.606 272.532C289.419 272.532 295.424 272.723 301.216 272.935C307.008 273.148 313.098 273.338 319.017 273.338C324.937 273.338 330.029 273.126 334.718 272.702L334.569 270.559Z" fill="#E0DFE6"></path> <path d="M336.486 260.989C332.701 261.387 328.886 261.43 325.093 261.116C322.971 261.116 320.722 260.861 317.836 260.861C313.19 260.861 294.498 260.522 289.915 260.522C282.122 260.466 274.331 260.828 266.576 261.604L266.809 263.726C274.472 262.958 282.171 262.604 289.872 262.665C294.519 262.665 313.211 263.004 317.794 263.004C320.616 263.004 322.801 263.132 324.923 263.259C328.837 263.583 332.772 263.541 336.677 263.132L336.486 260.989Z" fill="#E0DFE6"></path> <path d="M351.197 331.537C352.152 332.767 353.001 333.934 353.764 335.122L355.547 333.955C354.741 332.725 353.871 331.515 352.874 330.242C350.497 327.145 347.803 324.217 345.214 321.373C342.626 318.53 339.995 315.666 337.661 312.653C335.327 309.64 332.781 306.649 330.214 303.891L328.665 305.334C331.19 308.049 333.863 311.189 335.985 313.948C338.382 317.045 341.056 319.973 343.644 322.795C346.233 325.617 348.863 328.545 351.197 331.537Z" fill="#E0DFE6"></path> <path d="M307.604 331.536C295.977 315.517 286.386 302.638 277.39 291.012C265.827 276.16 255.176 262.984 244.78 251.06L243.188 252.46C253.542 264.342 264.172 277.39 275.714 292.306C284.668 303.933 294.258 316.79 305.885 332.788L307.604 331.536Z" fill="#E0DFE6"></path> <path d="M410.568 331.536C398.92 315.517 389.351 302.638 380.355 291.012C368.792 276.16 358.12 262.984 347.745 251.06L346.153 252.46C356.486 264.342 367.137 277.369 378.679 292.306C387.632 303.911 397.223 316.769 408.85 332.788L410.568 331.536Z" fill="#E0DFE6"></path> <path d="M327.547 282.165H280.997V284.287H327.547V282.165Z" fill="#E0DFE6"></path> <path d="M334.33 290.491L332.65 291.788L364.139 332.559L365.818 331.262L334.33 290.491Z" fill="#E0DFE6"></path> <path d="M394.375 327.548C388.513 321.349 382.989 314.841 377.826 308.05C374.685 303.976 362.379 287.427 359.218 283.353C354.024 276.496 348.457 269.93 342.542 263.685L341.014 265.148C346.868 271.348 352.385 277.857 357.542 284.647C360.703 288.721 372.988 305.249 376.149 309.344C381.362 316.192 386.936 322.757 392.847 329.012L394.375 327.548Z" fill="#E0DFE6"></path> <path d="M339.208 278.939C340.991 281.061 342.815 283.353 344.788 285.877C348.713 290.991 352.597 296.486 356.352 301.599C360.107 306.713 364.033 312.208 368.021 317.47C372.01 322.731 375.638 326.954 379.203 330.773L380.752 329.33C377.251 325.553 373.643 321.246 369.697 316.175C365.751 311.105 361.826 305.567 358.07 300.348C354.315 295.128 350.432 289.739 346.464 284.583C344.343 281.74 342.221 279.194 340.099 276.839L338.444 278.176L339.06 278.961L339.208 278.939Z" fill="#E0DFE6"></path> <path d="M313.346 321.628C314.561 321.565 315.779 321.565 316.995 321.628L317.143 319.507C315.785 319.507 314.576 319.507 313.282 319.507C311.988 319.507 310.799 319.507 309.335 319.507C307.958 319.411 306.576 319.411 305.198 319.507L305.432 321.628C306.718 321.553 308.007 321.553 309.293 321.628C310.799 321.692 312.115 321.671 313.346 321.628Z" fill="#E0DFE6"></path> <path d="M216.645 301.832H220.888V299.71H216.645C209.361 299.466 202.07 299.679 194.812 300.347L195.131 302.468C202.283 301.82 209.467 301.608 216.645 301.832Z" fill="#E0DFE6"></path> <path d="M309.497 293.685C314.268 293.18 319.069 293.038 323.861 293.261L324.031 291.139C319.126 290.915 314.211 291.057 309.327 291.564C305.911 291.861 302.368 292.157 298.91 292.157C295.672 292.188 292.44 291.854 289.277 291.16L288.811 293.282C292.126 294.012 295.515 294.361 298.91 294.322C302.453 294.279 306.039 293.982 309.497 293.685Z" fill="#E0DFE6"></path> <path d="M203.106 310.786C203.827 310.786 204.464 310.786 205.227 310.786C207.879 310.786 215.624 310.786 217.958 310.786V308.664C215.73 308.664 208.07 308.664 205.439 308.664C204.697 308.664 203.996 308.664 203.317 308.664C202.639 308.664 201.196 308.791 199.689 308.664V310.786H200.92C201.536 310.871 202.363 310.828 203.106 310.786Z" fill="#E0DFE6"></path> <path d="M319.192 308.601C316.964 308.601 309.304 308.601 306.674 308.601C305.931 308.601 305.231 308.601 304.552 308.601C303.873 308.601 302.43 308.728 300.924 308.601V310.722H302.155C303.173 310.722 304 310.722 304.764 310.722C305.528 310.722 306.101 310.722 306.886 310.722C309.538 310.722 317.304 310.722 319.616 310.722L319.192 308.601Z" fill="#E0DFE6"></path> <path d="M322.385 299.71H318.142C310.858 299.466 303.567 299.679 296.31 300.347L296.606 302.469C303.759 301.828 310.944 301.622 318.121 301.853H322.364L322.385 299.71Z" fill="#E0DFE6"></path> <path d="M343.606 333.107C340.529 329.139 335.925 323.92 331.873 319.295L327.629 314.394L326.017 315.794L330.26 320.695C334.291 325.278 338.874 330.497 341.887 334.401L343.606 333.107Z" fill="#E0DFE6"></path> <path d="M328.461 333.658L330.413 332.809C328.528 329.285 325.847 326.248 322.584 323.94L321.48 325.744C324.367 327.83 326.751 330.534 328.461 333.658Z" fill="#E0DFE6"></path> <path d="M207.783 291.563C204.367 291.86 200.845 292.157 197.386 292.157C194.148 292.188 190.917 291.853 187.754 291.16L187.287 293.282C190.603 294.012 193.991 294.361 197.386 294.321C200.93 294.321 204.515 294.025 207.995 293.727C212.765 293.222 217.567 293.08 222.359 293.303L222.529 291.181C217.611 290.942 212.682 291.07 207.783 291.563Z" fill="#E0DFE6"></path> <path d="M212.213 329.203C211.571 329.13 210.924 329.13 210.282 329.203L210.685 331.325C211.15 331.272 211.621 331.272 212.086 331.325H212.934C213.564 331.332 214.189 331.224 214.78 331.007L213.995 329.033C213.418 329.204 212.812 329.262 212.213 329.203Z" fill="#E0DFE6"></path> <path d="M207.823 321.671C209.329 321.671 210.644 321.671 211.875 321.671C213.091 321.607 214.309 321.607 215.524 321.671L215.652 319.549C214.315 319.549 213.084 319.549 211.79 319.549C210.496 319.549 209.329 319.549 207.844 319.549C206.474 319.452 205.098 319.452 203.728 319.549L203.961 321.671C205.247 321.595 206.537 321.595 207.823 321.671Z" fill="#E0DFE6"></path> <path d="M219.796 323.962L218.332 325.511C219.876 326.966 221.237 328.605 222.384 330.39C223.084 331.43 223.87 332.512 225.036 334.082L226.713 332.788C225.588 331.345 224.803 330.2 224.124 329.202C222.905 327.282 221.451 325.522 219.796 323.962Z" fill="#E0DFE6"></path> <path d="M231.312 290.385L229.633 291.682L261.121 332.452L262.801 331.156L231.312 290.385Z" fill="#E0DFE6"></path> <path d="M241.019 319.825C235.778 313.82 229.837 307.094 227.822 304.421L226.146 305.715C228.267 308.367 234.144 315.199 239.406 321.225C243.48 325.871 247.299 330.242 248.317 331.579C249.336 332.916 250.121 333.997 250.884 335.164L252.667 333.998C251.861 332.788 250.991 331.558 249.993 330.285C248.996 329.012 245.262 324.704 241.019 319.825Z" fill="#E0DFE6"></path> <path d="M276.19 330.773L277.739 329.33C274.238 325.574 270.632 321.246 266.706 316.175C262.781 311.105 258.835 305.567 255.058 300.348C251.282 295.128 247.42 289.739 243.452 284.583C241.33 281.74 239.209 279.194 237.087 276.839L235.453 278.176L236.047 278.961C237.83 281.082 239.654 283.374 241.628 285.899C245.574 291.012 249.435 296.507 253.191 301.621C256.946 306.734 260.871 312.229 264.86 317.491C268.849 322.753 272.647 326.954 276.19 330.773Z" fill="#E0DFE6"></path> <path d="M240.334 250.487C235.582 250.36 231.848 250.211 228.559 250.084C221.197 249.808 215.829 249.617 205.411 249.617C188.31 249.617 173.077 250.02 158.84 250.869L158.967 252.991C173.161 252.163 188.353 251.76 205.411 251.76C215.85 251.76 221.155 251.951 228.474 252.227C231.806 252.354 235.518 252.503 240.271 252.63L240.334 250.487Z" fill="#E0DFE6"></path> <path d="M225.509 316.854L224.258 318.572C229.944 322.816 234.718 328.947 238.94 334.4L240.616 333.106C236.333 327.035 231.252 321.568 225.509 316.854Z" fill="#E0DFE6"></path> <path d="M291.41 327.548C285.548 321.349 280.024 314.841 274.86 308.05C271.72 303.976 259.435 287.427 256.274 283.353C251.066 276.501 245.493 269.935 239.576 263.685L238.049 265.148C243.909 271.342 249.426 277.852 254.577 284.647C257.738 288.721 270.023 305.249 273.184 309.344C278.397 316.192 283.971 322.757 289.882 329.012L291.41 327.548Z" fill="#E0DFE6"></path> <path d="M226.025 282.165H179.475V284.287H226.025V282.165Z" fill="#E0DFE6"></path> <path d="M233.099 270.559C228.473 270.983 223.402 271.174 217.589 271.174C211.775 271.174 205.686 270.962 199.852 270.771C194.017 270.58 188.034 270.368 182.156 270.368C178.931 270.368 175.982 270.368 173.182 270.559V272.681H174.073C176.597 272.681 179.228 272.532 182.114 272.532C187.949 272.532 193.953 272.723 199.745 272.935C205.538 273.148 211.627 273.338 217.546 273.338C223.466 273.338 228.558 273.126 233.247 272.702L233.099 270.559Z" fill="#E0DFE6"></path> <path d="M234.912 260.989C231.119 261.387 227.297 261.43 223.497 261.116C221.375 261.116 219.253 260.861 216.262 260.861C211.615 260.861 192.923 260.522 188.34 260.522C180.546 260.466 172.756 260.828 165.001 261.604L165.235 263.726C172.898 262.958 180.596 262.604 188.297 262.665C192.944 262.665 211.636 263.004 216.219 263.004C219.041 263.004 221.226 263.132 223.348 263.259C227.261 263.583 231.197 263.541 235.102 263.132L234.912 260.989Z" fill="#E0DFE6"></path> <path d="M27.5303 270.707C28.2092 271.28 28.8882 271.853 29.652 272.404L29.4821 270.559L27.5303 270.707Z" fill="#E0DFE6"></path> <path d="M19.8047 261.117L17.1738 260.99C17.874 261.732 18.5742 262.496 19.2955 263.111H19.6985C23.612 263.436 27.5473 263.393 31.4529 262.984L31.2198 260.862C27.4311 261.303 23.6093 261.389 19.8047 261.117Z" fill="#E0DFE6"></path> <path d="M144.07 250.911L142.479 252.312C152.811 264.193 163.462 277.22 175.004 292.157C183.958 303.763 193.548 316.62 205.175 332.639L206.893 331.388C195.245 315.369 185.676 302.49 176.68 290.863C165.117 275.947 154.445 262.878 144.07 250.911Z" fill="#E0DFE6"></path> <path d="M190.7 327.548C184.833 321.355 179.308 314.846 174.151 308.05C171.011 303.976 158.705 287.427 155.543 283.353C150.349 276.496 144.782 269.93 138.867 263.685L137.339 265.148C143.193 271.348 148.71 277.857 153.867 284.647C157.028 288.721 169.313 305.249 172.474 309.344C177.687 316.192 183.261 322.757 189.173 329.012L190.7 327.548Z" fill="#E0DFE6"></path> <path d="M175.528 330.773L177.077 329.33C173.576 325.553 169.947 321.246 166.022 316.175C162.097 311.105 158.151 305.567 154.395 300.348C150.64 295.128 146.757 289.739 142.79 284.583C140.668 281.74 138.546 279.194 136.425 276.839L134.77 278.176L135.385 278.961C137.167 281.082 138.992 283.374 140.944 285.899C144.89 291.012 148.773 296.507 152.528 301.621C156.284 306.734 160.209 312.229 164.198 317.491C168.187 322.753 171.964 326.954 175.528 330.773Z" fill="#E0DFE6"></path> <path d="M130.654 290.47L128.975 291.767L160.463 332.537L162.142 331.24L130.654 290.47Z" fill="#E0DFE6"></path> <path d="M35.8752 263.641L34.3477 265.104C40.2077 271.298 45.7249 277.808 50.8753 284.603C51.9574 285.982 52.997 287.361 54.0579 288.847C55.5431 289.674 57.0285 290.502 58.5349 291.287C56.5617 288.634 54.5884 286.004 52.5728 283.394C47.3678 276.513 41.7939 269.919 35.8752 263.641Z" fill="#E0DFE6"></path> <path d="M107.37 308.643C110.107 309.258 112.886 309.81 115.645 310.298V308.601C114.096 308.664 110.468 308.664 107.37 308.643Z" fill="#E0DFE6"></path> <path d="M92.6348 300.348L92.9316 302.469C100.084 301.828 107.269 301.623 114.446 301.854H118.689V299.732H114.446C107.17 299.482 99.8852 299.687 92.6348 300.348Z" fill="#E0DFE6"></path> <path d="M41.0786 250.911L39.4873 252.312C49.8412 264.193 60.4712 277.241 72.0133 292.157C73.9016 294.597 75.811 297.122 77.763 299.689C79.0148 300.156 80.2454 300.644 81.4972 301.09C78.8239 297.568 76.235 294.151 73.689 290.863C62.1257 275.947 51.475 262.878 41.0786 250.911Z" fill="#E0DFE6"></path> <path d="M138.103 250.487C133.35 250.36 129.616 250.211 126.327 250.084C118.965 249.808 113.597 249.617 103.18 249.617C86.1 249.617 70.8663 250.02 56.6084 250.869L56.7353 252.991C70.9295 252.163 86.1425 251.76 103.18 251.76C113.619 251.76 118.923 251.951 126.242 252.227C129.574 252.354 133.287 252.503 138.061 252.63L138.103 250.487Z" fill="#E0DFE6"></path> <path d="M132.812 260.989C129.026 261.387 125.211 261.43 121.418 261.116C119.296 261.116 117.047 260.861 114.162 260.861C109.515 260.861 90.823 260.522 86.2402 260.522C78.4468 260.466 70.6561 260.828 62.9014 261.604L63.1345 263.726C70.7975 262.958 78.4966 262.604 86.1977 262.665C90.8442 262.665 109.536 263.004 114.119 263.004C116.941 263.004 119.127 263.132 121.248 263.259C125.162 263.583 129.097 263.541 133.003 263.132L132.812 260.989Z" fill="#E0DFE6"></path> <path d="M36.6401 250.487C31.8875 250.36 14.638 249.702 7.99707 249.639C8.37898 250.254 8.80355 250.869 9.29154 251.548L9.48268 251.782C15.2962 251.782 19.5183 252.015 24.7801 252.206C28.1112 252.333 31.8238 252.482 36.5764 252.609L36.6401 250.487Z" fill="#E0DFE6"></path> <path d="M130.867 270.559C126.242 270.983 121.171 271.174 115.357 271.174C109.544 271.174 103.454 270.962 97.6409 270.771C91.8275 270.58 85.8021 270.368 79.9462 270.368C76.7 270.368 73.7509 270.368 70.9502 270.559V272.681H71.8411C74.366 272.681 77.0182 272.532 79.9037 272.532C85.7172 272.532 91.7218 272.723 97.514 272.935C103.306 273.148 109.395 273.338 115.315 273.338C121.234 273.338 126.326 273.126 131.015 272.702L130.867 270.559Z" fill="#E0DFE6"></path> <path d="M123.846 282.165H77.2959V284.287H123.846V282.165Z" fill="#E0DFE6"></path> <path d="M120.33 291.223C115.425 290.999 110.51 291.141 105.626 291.647C102.21 291.944 98.6671 292.241 95.2087 292.241C91.9706 292.272 88.7392 291.938 85.5761 291.244L85.1094 293.366C88.4252 294.096 91.8137 294.445 95.2087 294.406C98.752 294.406 102.338 294.109 105.817 293.812C110.588 293.306 115.389 293.165 120.181 293.387L120.33 291.223Z" fill="#E0DFE6"></path> <path d="M126.46 303.953L124.911 305.396C127.033 307.518 129.154 310.106 131 312.461L133.907 312.716C131.828 309.894 129.112 306.69 126.46 303.953Z" fill="#E0DFE6"></path> <path d="M141.538 321.416C140.222 319.973 138.864 318.488 137.549 316.981C137.888 318.53 138.313 320.037 138.78 321.522L139.968 322.837C142.535 325.659 145.187 328.545 147.521 331.579C148.476 332.809 149.324 333.976 150.088 335.164L151.87 333.998C151.064 332.767 150.194 331.558 149.197 330.285C146.821 327.293 144.126 324.259 141.538 321.416Z" fill="#E0DFE6"></path> <path d="M313.346 232.516C314.561 232.452 315.779 232.452 316.995 232.516L317.143 230.394C315.785 230.394 314.576 230.394 313.282 230.394C311.988 230.394 310.799 230.394 309.335 230.394C307.958 230.298 306.576 230.298 305.198 230.394L305.432 232.516C306.718 232.44 308.007 232.44 309.293 232.516C310.799 232.58 312.115 232.559 313.346 232.516Z" fill="#E0DFE6"></path> <path d="M215.547 230.395C214.211 230.395 212.98 230.395 211.686 230.395C210.391 230.395 209.225 230.395 207.74 230.395C206.369 230.298 204.993 230.298 203.623 230.395L203.857 232.517C205.143 232.441 206.432 232.441 207.718 232.517C209.225 232.517 210.54 232.517 211.771 232.517C212.986 232.453 214.204 232.453 215.42 232.517L215.547 230.395Z" fill="#E0DFE6"></path> <path d="M225.509 227.742L224.258 229.461C229.944 233.704 234.718 239.836 238.94 245.289L240.616 243.995C236.333 237.923 231.252 232.457 225.509 227.742Z" fill="#E0DFE6"></path> <path d="M319.192 219.489C316.964 219.489 309.304 219.489 306.674 219.489C305.931 219.489 305.231 219.489 304.552 219.489C303.873 219.489 302.43 219.617 300.924 219.489V221.611H302.155C303.173 221.611 304 221.611 304.764 221.611C305.528 221.611 306.101 221.611 306.886 221.611C309.538 221.611 317.304 221.611 319.616 221.611L319.192 219.489Z" fill="#E0DFE6"></path> <path d="M298.91 203.046C295.672 203.076 292.44 202.742 289.277 202.048L288.811 204.17C292.126 204.9 295.515 205.249 298.91 205.21C302.453 205.21 306.039 204.913 309.518 204.616C314.289 204.111 319.091 203.969 323.882 204.191L324.052 202.07C319.147 201.846 314.232 201.988 309.349 202.494C305.911 202.749 302.368 203.046 298.91 203.046Z" fill="#E0DFE6"></path> <path d="M235.168 174L234.955 172.006C232.126 172.685 229.347 173.449 226.617 174.297C229.471 174.405 232.328 174.306 235.168 174Z" fill="#E0DFE6"></path> <path d="M334.569 181.447C329.944 181.871 324.873 182.062 319.06 182.062C313.246 182.062 307.157 181.85 301.343 181.659C295.53 181.468 289.504 181.256 283.648 181.256C280.402 181.256 277.453 181.256 274.652 181.447V183.568H275.543C278.068 183.568 280.72 183.42 283.606 183.42C289.419 183.42 295.424 183.611 301.216 183.823C307.008 184.035 313.098 184.226 319.017 184.226C324.937 184.226 330.029 184.014 334.718 183.59L334.569 181.447Z" fill="#E0DFE6"></path> <path d="M314.165 242.213C315.275 242.307 316.393 242.221 317.475 241.959L316.902 239.837C316.039 240.028 315.152 240.085 314.271 240.007C313.46 239.933 312.643 239.933 311.831 240.007L312.128 242.128C312.808 242.094 313.49 242.122 314.165 242.213Z" fill="#E0DFE6"></path> <path d="M410.582 242.425C398.934 226.406 389.365 213.528 380.369 201.901C373.897 193.541 367.639 185.776 361.698 178.562L358.791 178.371C365.156 186.115 371.776 194.369 378.692 203.301C387.646 214.907 397.237 227.764 408.864 243.783L410.582 242.425Z" fill="#E0DFE6"></path> <path d="M334.33 201.378L332.65 202.675L364.139 243.446L365.818 242.149L334.33 201.378Z" fill="#E0DFE6"></path> <path d="M327.547 193.053H280.997V195.174H327.547V193.053Z" fill="#E0DFE6"></path> <path d="M322.385 210.599H318.142C310.858 210.355 303.567 210.567 296.31 211.236L296.606 213.357C303.759 212.716 310.944 212.511 318.121 212.742H322.364L322.385 210.599Z" fill="#E0DFE6"></path> <path d="M351.197 242.425C352.152 243.656 353.001 244.823 353.764 246.011L355.547 244.844C354.741 243.613 353.871 242.404 352.874 241.131C350.497 238.033 347.803 235.105 345.214 232.262C342.626 229.419 339.995 226.555 337.661 223.542C335.327 220.529 332.781 217.538 330.214 214.779L328.665 216.222C331.19 218.938 333.863 222.078 335.985 224.836C338.382 227.934 341.056 230.862 343.644 233.684C346.233 236.506 348.863 239.434 351.197 242.425Z" fill="#E0DFE6"></path> <path d="M328.461 244.546L330.413 243.698C328.528 240.173 325.847 237.137 322.584 234.829L321.48 236.633C324.367 238.719 326.751 241.422 328.461 244.546Z" fill="#E0DFE6"></path> <path d="M343.606 243.996C340.529 240.028 335.925 234.809 331.873 230.183L327.629 225.282L326.017 226.682L330.26 231.584C334.291 236.167 338.874 241.386 341.887 245.29L343.606 243.996Z" fill="#E0DFE6"></path> <path d="M233.095 181.446C228.47 181.871 223.399 182.062 217.585 182.062C213.724 182.062 209.82 182.061 205.937 181.849L201.185 183.823C206.595 184.014 212.133 184.183 217.585 184.183C223.462 184.183 228.597 183.971 233.286 183.547L233.095 181.446Z" fill="#E0DFE6"></path> <path d="M226.025 193.053H179.475V195.174H226.025V193.053Z" fill="#E0DFE6"></path> <path d="M286.022 173.576C284.136 172.77 282.21 172.062 280.251 171.454C275.265 171.624 270.788 171.921 266.523 172.388L266.757 174.509C272.506 173.979 278.723 173.661 286.022 173.576Z" fill="#E0DFE6"></path> <path d="M225.004 244.971L226.68 243.677C225.556 242.234 224.771 241.088 224.092 240.091C222.899 238.176 221.474 236.416 219.849 234.851L218.385 236.399C219.929 237.855 221.29 239.494 222.437 241.279C223.052 242.425 223.837 243.486 225.004 244.971Z" fill="#E0DFE6"></path> <path d="M207.974 204.573C212.744 204.068 217.546 203.926 222.338 204.148L222.508 202.027C217.596 201.803 212.674 201.945 207.783 202.451C204.367 202.748 200.845 203.045 197.386 203.045C194.148 203.076 190.917 202.741 187.754 202.048L187.287 204.17C190.603 204.9 193.991 205.249 197.386 205.209C200.93 205.167 204.515 204.87 207.974 204.573Z" fill="#E0DFE6"></path> <path d="M394.384 238.436C388.523 232.237 382.998 225.728 377.835 218.937C374.695 214.864 362.389 198.314 359.228 194.241C354.22 187.748 349.765 182.401 345.458 177.67H342.509C347.219 182.698 352.056 188.448 357.551 195.577C360.713 199.651 372.997 216.179 376.159 220.274C381.372 227.122 386.946 233.687 392.857 239.942L394.384 238.436Z" fill="#E0DFE6"></path> <path d="M250.779 246.052L252.561 244.885C251.755 243.676 250.885 242.445 249.888 241.172C248.891 239.899 245.157 235.592 240.913 230.712C235.673 224.708 229.732 217.982 227.716 215.309L226.04 216.603C228.162 219.255 234.039 226.087 239.301 232.113C243.374 236.759 247.193 241.13 248.212 242.467C249.23 243.803 250.016 244.885 250.779 246.052Z" fill="#E0DFE6"></path> <path d="M339.208 189.828C340.991 191.95 342.815 194.241 344.788 196.766C348.713 201.879 352.597 207.375 356.352 212.488C360.107 217.601 364.033 223.096 368.021 228.358C372.01 233.62 375.638 237.842 379.203 241.661L380.752 240.219C377.251 236.442 373.643 232.135 369.697 227.064C365.751 221.993 361.826 216.456 358.07 211.236C354.315 206.017 350.432 200.628 346.464 195.472C344.343 192.629 342.221 190.083 340.099 187.728L338.444 189.064L339.06 189.849L339.208 189.828Z" fill="#E0DFE6"></path> <path d="M212.213 240.092C211.571 240.018 210.924 240.018 210.282 240.092L210.685 242.213C211.15 242.16 211.621 242.16 212.086 242.213H212.934C213.564 242.221 214.189 242.113 214.78 241.895L213.995 239.922C213.418 240.093 212.812 240.151 212.213 240.092Z" fill="#E0DFE6"></path> <path d="M220.888 210.599H216.645C209.361 210.355 202.07 210.567 194.812 211.235L195.131 213.357C202.283 212.716 209.468 212.511 216.645 212.742H220.888V210.599Z" fill="#E0DFE6"></path> <path d="M231.312 201.273L229.633 202.57L261.121 243.341L262.801 242.044L231.312 201.273Z" fill="#E0DFE6"></path> <path d="M291.41 238.436C285.548 232.237 280.024 225.728 274.86 218.937C271.72 214.864 259.435 198.314 256.274 194.241C251.066 187.388 245.493 180.823 239.576 174.572L238.049 176.036C243.909 182.23 249.426 188.739 254.577 195.535C257.738 199.608 270.023 216.137 273.184 220.231C278.397 227.079 283.971 233.645 289.882 239.9L291.41 238.436Z" fill="#E0DFE6"></path> <path d="M307.595 242.425C295.968 226.406 286.377 213.527 277.381 201.9C268.385 190.273 259.517 179.261 251.136 169.374L248.59 169.629C257.246 179.813 266.158 190.846 275.705 203.194C284.659 214.821 294.249 227.679 305.876 243.676L307.595 242.425Z" fill="#E0DFE6"></path> <path d="M276.19 241.661L277.739 240.219C274.238 236.463 270.632 232.135 266.706 227.064C262.781 221.993 258.835 216.456 255.058 211.236C251.282 206.017 247.42 200.628 243.452 195.472C241.33 192.629 239.209 190.083 237.087 187.728L235.453 189.064L236.047 189.849C237.83 191.971 239.654 194.262 241.628 196.787C245.574 201.901 249.435 207.396 253.191 212.509C256.946 217.623 260.871 223.118 264.86 228.38C268.849 233.641 272.647 237.842 276.19 241.661Z" fill="#E0DFE6"></path> <path d="M217.696 219.489C215.468 219.489 207.809 219.489 205.178 219.489C204.435 219.489 203.735 219.489 203.056 219.489C202.377 219.489 200.934 219.617 199.428 219.489V221.611H200.658C201.677 221.611 202.504 221.611 203.247 221.611C203.99 221.611 204.605 221.611 205.369 221.611C208.021 221.611 215.765 221.611 218.099 221.611L217.696 219.489Z" fill="#E0DFE6"></path> <path d="M37.3439 230.712C32.1033 224.708 26.1626 217.982 24.1469 215.309L22.4707 216.603C24.5924 219.255 30.4695 226.087 35.7314 232.113C39.8051 236.759 43.624 241.13 44.6425 242.467C45.6609 243.803 46.4458 244.885 47.2096 246.052L48.9921 244.885C48.1858 243.676 47.3159 242.445 46.3187 241.172C45.3215 239.899 41.5873 235.592 37.3439 230.712Z" fill="#E0DFE6"></path> <path d="M115.517 219.489C113.289 219.489 105.63 219.489 102.999 219.489C102.256 219.489 101.556 219.489 100.877 219.489C100.198 219.489 98.7554 219.617 97.249 219.489V221.611H98.4798C99.4982 221.611 100.326 221.611 101.089 221.611C101.853 221.611 102.426 221.611 103.211 221.611C105.863 221.611 113.629 221.611 115.941 221.611L115.517 219.489Z" fill="#E0DFE6"></path> <path d="M16.8314 203.728L15.1553 205.022L46.5794 245.719L48.2555 244.425L16.8314 203.728Z" fill="#E0DFE6"></path> <path d="M113.319 232.516L113.467 230.394C112.11 230.394 110.901 230.394 109.606 230.394C108.312 230.394 107.124 230.394 105.66 230.394C104.282 230.298 102.9 230.298 101.522 230.394L101.756 232.516C103.042 232.44 104.331 232.44 105.617 232.516C107.124 232.516 108.439 232.516 109.67 232.516C110.886 232.452 112.104 232.452 113.319 232.516Z" fill="#E0DFE6"></path> <path d="M72.5167 241.661L74.0655 240.218C70.5647 236.463 66.9579 232.135 63.0327 227.064C59.1075 221.993 55.14 216.455 51.3845 211.236C48.1808 206.802 44.8918 202.261 41.5395 197.827L38.5693 197.402C42.346 202.325 46.0589 207.48 49.6658 212.488C53.2727 217.495 57.3464 223.096 61.3352 228.358C65.324 233.62 68.9734 237.842 72.5167 241.661Z" fill="#E0DFE6"></path> <path d="M87.7133 238.436C81.8518 232.237 76.3273 225.729 71.1638 218.938C68.0237 214.864 50.7109 191.843 49.7986 190.719C49.2637 191.179 48.7533 191.668 48.2705 192.183C49.1404 193.265 66.3262 216.137 69.4876 220.232C74.7005 227.08 80.2746 233.645 86.1857 239.9L87.7133 238.436Z" fill="#E0DFE6"></path> <path d="M190.7 238.435C184.833 232.242 179.308 225.733 174.151 218.937C171.011 214.863 155.056 193.476 154.674 193.115L151.576 192.585C152.319 193.54 169.313 216.136 172.475 220.167C177.688 227.015 183.262 233.58 189.173 239.835L190.7 238.435Z" fill="#E0DFE6"></path> <path d="M206.882 242.426C195.233 226.407 185.664 213.528 176.668 201.901L170.155 193.562C169.731 193.562 169.285 193.711 168.861 193.817L167.885 194.114C170.219 197.063 172.573 200.076 174.992 203.195C183.946 214.801 193.536 227.658 205.163 243.677L206.882 242.426Z" fill="#E0DFE6"></path> <path d="M118.684 210.599H114.441C107.157 210.355 99.8654 210.567 92.6084 211.236L92.9052 213.357C100.057 212.716 107.242 212.511 114.42 212.742H118.663L118.684 210.599Z" fill="#E0DFE6"></path> <path d="M120.33 202.113C115.425 201.889 110.51 202.03 105.626 202.537C102.21 202.834 98.6671 203.131 95.2087 203.131C91.9706 203.162 88.7392 202.827 85.5761 202.134L85.1094 204.256C88.4252 204.986 91.8137 205.335 95.2087 205.295C98.752 205.295 102.338 204.998 105.817 204.701C110.588 204.196 115.389 204.054 120.181 204.277L120.33 202.113Z" fill="#E0DFE6"></path> <path d="M21.8335 227.742L20.582 229.461C26.2682 233.704 31.0419 239.836 35.2641 245.289L36.9403 243.995C32.6573 237.923 27.5758 232.457 21.8335 227.742Z" fill="#E0DFE6"></path> <path d="M18.6609 204.235L18.8308 202.113C16.5202 201.974 14.2033 201.974 11.8928 202.113C10.7902 202.807 9.73421 203.573 8.73145 204.404C12.0333 204.117 15.3511 204.06 18.6609 204.235Z" fill="#E0DFE6"></path> <path d="M11.8818 230.395C10.5451 230.395 9.31436 230.395 8.02012 230.395C6.72588 230.395 5.55923 230.395 4.07403 230.395C2.71786 230.298 1.35618 230.298 0 230.395C0 231.095 0.170006 231.795 0.276091 232.516C1.52706 232.452 2.78059 232.452 4.03156 232.516C5.55919 232.516 6.87448 232.516 8.10507 232.516C9.32069 232.453 10.5387 232.453 11.7543 232.516L11.8818 230.395Z" fill="#E0DFE6"></path> <path d="M123.846 193.053H77.2959V195.174H123.846V193.053Z" fill="#E0DFE6"></path> <path d="M9.25956 242.255C9.88912 242.263 10.5145 242.155 11.1052 241.937L10.3204 239.964C9.74007 240.121 9.13472 240.164 8.53799 240.091C7.8965 240.018 7.24891 240.018 6.60742 240.091L7.01042 242.213C7.47569 242.16 7.94582 242.16 8.41108 242.213L9.25956 242.255Z" fill="#E0DFE6"></path> <path d="M118.887 234.723L117.805 236.526C120.691 238.612 123.076 241.316 124.785 244.44L126.737 243.592C124.85 240.062 122.162 237.024 118.887 234.723Z" fill="#E0DFE6"></path> <path d="M110.49 242.213C111.6 242.307 112.718 242.221 113.8 241.959L113.206 239.837C112.35 240.028 111.47 240.085 110.597 240.007C109.785 239.933 108.968 239.933 108.156 240.007L108.454 242.128C109.134 242.094 109.815 242.122 110.49 242.213Z" fill="#E0DFE6"></path> <path d="M13.9994 219.489C11.7716 219.489 4.11241 219.489 1.4815 219.489C1.19192 219.467 0.900844 219.467 0.611264 219.489C0.611264 220.189 0.399321 220.91 0.314453 221.61C0.688982 221.589 1.06449 221.589 1.43902 221.61C4.09116 221.61 11.8354 221.61 14.1693 221.61L13.9994 219.489Z" fill="#E0DFE6"></path> <path d="M17.2079 210.598C16.0197 210.598 6.59923 210.598 3.28937 210.598C2.88114 211.276 2.52645 211.986 2.22852 212.719C5.89907 212.719 9.71825 212.719 12.9432 212.719H17.1867L17.2079 210.598Z" fill="#E0DFE6"></path> <path d="M130.654 201.356L128.975 202.653L160.463 243.424L162.142 242.127L130.654 201.356Z" fill="#E0DFE6"></path> <path d="M72.0193 203.088C80.9729 214.715 90.563 227.573 102.19 243.571L103.909 242.319C92.2817 226.3 82.6911 213.421 73.695 201.794C69.5789 196.49 65.5761 191.405 61.6863 186.539L59.2041 186.836C63.3626 192.013 67.6344 197.43 72.0193 203.088Z" fill="#E0DFE6"></path> <path d="M141.539 232.303C138.971 229.503 136.319 226.596 133.985 223.583C131.651 220.57 129.105 217.579 126.538 214.82L124.989 216.263C127.514 218.979 130.166 222.119 132.309 224.877C134.707 227.975 137.38 230.903 139.969 233.725C142.557 236.547 145.188 239.432 147.522 242.466C148.476 243.697 149.325 244.864 150.089 246.052L151.871 244.885C151.065 243.654 150.195 242.445 149.198 241.172C146.821 238.18 144.127 235.146 141.539 232.303Z" fill="#E0DFE6"></path> <path d="M123.928 225.282L122.315 226.682L126.559 231.584C130.59 236.167 135.173 241.386 138.186 245.29L139.883 243.996C136.807 240.028 132.203 234.809 128.15 230.183L123.928 225.282Z" fill="#E0DFE6"></path> <path d="M175.504 241.661L177.053 240.218C173.552 236.442 169.924 232.135 165.998 227.064C162.073 221.993 158.127 216.455 154.372 211.236C150.616 206.016 146.733 200.627 142.766 195.471C141.344 193.626 140.008 191.971 138.671 190.358L135.425 189.785C137.207 191.907 139.032 194.198 140.984 196.723C144.93 201.837 148.813 207.332 152.568 212.445C156.324 217.558 160.249 223.054 164.238 228.315C168.227 233.577 171.94 237.842 175.504 241.661Z" fill="#E0DFE6"></path> <path d="M16.1201 234.851L14.6562 236.399C16.2006 237.855 17.5613 239.494 18.7085 241.279C19.4087 242.319 20.1937 243.401 21.3607 244.971L23.0369 243.677C21.9124 242.234 21.1274 241.088 20.4485 240.091C19.2228 238.176 17.7694 236.416 16.1201 234.851Z" fill="#E0DFE6"></path> <path d="M277.389 112.682C265.826 97.8302 255.175 84.6545 244.779 72.7305L243.188 74.1309C253.541 86.0124 264.171 99.0607 275.713 113.976C279.745 119.196 283.903 124.585 288.316 130.568C288.677 129.868 289.059 129.168 289.377 128.447C285.197 122.888 281.229 117.668 277.389 112.682Z" fill="#E0DFE6"></path> <path d="M280.944 106.084H294.056C294.056 105.362 294.056 104.662 294.056 103.962H281.114L280.944 106.084Z" fill="#E0DFE6"></path> <path d="M288.811 115.122C290.295 115.454 291.796 115.701 293.308 115.865C293.436 115.164 293.5 114.464 293.584 113.743C292.157 113.583 290.741 113.342 289.341 113.021L288.811 115.122Z" fill="#E0DFE6"></path> <path d="M220.888 121.487H216.645C209.361 121.243 202.07 121.456 194.812 122.124L195.131 124.246C202.283 123.605 209.468 123.399 216.645 123.63H220.888V121.487Z" fill="#E0DFE6"></path> <path d="M266.706 137.951C262.718 132.795 258.835 127.342 255.058 122.123C251.282 116.904 247.42 111.514 243.452 106.359C241.33 103.515 239.209 100.969 237.087 98.6143L235.453 99.9509L236.047 100.736C237.83 102.858 239.654 105.149 241.628 107.674C245.574 112.787 249.435 118.283 253.191 123.396C256.946 128.509 260.871 134.004 264.86 139.266C267.364 142.47 269.719 145.356 271.989 148.029C272.626 147.668 273.241 147.307 273.835 146.904C271.65 144.167 269.252 141.239 266.706 137.951Z" fill="#E0DFE6"></path> <path d="M231.309 112.003L229.633 113.318L260.015 152.634L262.286 152.103L231.309 112.003Z" fill="#E0DFE6"></path> <path d="M274.86 129.826C271.72 125.752 259.435 109.203 256.274 105.129C251.066 98.2771 245.493 91.7114 239.576 85.4609L238.049 86.9248C243.909 93.1187 249.426 99.628 254.576 106.423C257.738 110.497 270.023 127.025 273.184 131.12C275.985 134.727 278.594 137.973 281.098 140.965C281.586 140.456 282.053 139.883 282.499 139.331C280.08 136.446 277.555 133.306 274.86 129.826Z" fill="#E0DFE6"></path> <path d="M249.888 152.062C248.848 150.683 245.157 146.482 240.913 141.602C235.673 135.597 229.732 128.872 227.716 126.198L226.04 127.492C228.162 130.145 234.039 136.977 239.301 143.002C243.374 147.649 247.193 152.02 248.212 153.356L248.318 153.483C249.23 153.483 250.121 153.483 251.034 153.483L249.888 152.062Z" fill="#E0DFE6"></path> <path d="M234.912 82.7662C231.119 83.1647 227.297 83.2074 223.497 82.8937C221.375 82.8937 219.253 82.6388 216.262 82.6388C211.615 82.6388 192.923 82.2995 188.34 82.2995C180.546 82.2438 172.756 82.605 165.001 83.3816L165.235 85.5033C172.898 84.7358 180.596 84.3816 188.297 84.4425C192.944 84.4425 211.636 84.7818 216.219 84.7818C219.041 84.7818 221.226 84.9091 223.348 85.0364C227.261 85.3606 231.197 85.3181 235.102 84.9092L234.912 82.7662Z" fill="#E0DFE6"></path> <path d="M225.509 138.63L224.258 140.349C228.167 143.402 231.68 146.93 234.718 150.851C235.906 151.254 237.115 151.615 238.303 151.933C234.647 146.951 230.345 142.478 225.509 138.63Z" fill="#E0DFE6"></path> <path d="M205.204 130.378C204.462 130.378 203.762 130.378 203.083 130.378C202.404 130.378 200.961 130.505 199.454 130.378V132.5H200.685C201.703 132.5 202.531 132.5 203.273 132.5C204.016 132.5 204.631 132.5 205.395 132.5C208.047 132.5 215.791 132.5 218.125 132.5V130.378C215.579 130.484 207.835 130.42 205.204 130.378Z" fill="#E0DFE6"></path> <path d="M240.334 72.2635C235.581 72.1362 231.847 71.9876 228.558 71.8603C221.196 71.5844 215.828 71.3936 205.41 71.3936C188.309 71.3936 173.076 71.7966 158.839 72.6453L158.966 74.767C173.161 73.9395 188.352 73.5365 205.41 73.5365C215.849 73.5365 221.154 73.7274 228.473 74.0032C231.805 74.1305 235.517 74.2792 240.27 74.4065L240.334 72.2635Z" fill="#E0DFE6"></path> <path d="M207.784 113.341C204.368 113.638 200.846 113.935 197.387 113.935C194.149 113.965 190.918 113.631 187.755 112.937L187.288 115.059C190.604 115.789 193.992 116.138 197.387 116.099C200.931 116.099 204.516 115.802 207.996 115.505C212.766 115 217.568 114.858 222.36 115.08L222.53 112.959C217.612 112.72 212.683 112.847 207.784 113.341Z" fill="#E0DFE6"></path> <path d="M233.099 92.3354C228.473 92.7598 223.402 92.9508 217.589 92.9508C211.775 92.9508 205.686 92.7385 199.852 92.5475C194.017 92.3566 188.034 92.1445 182.156 92.1445C178.931 92.1445 175.982 92.1445 173.182 92.3354V94.4571H174.073C176.597 94.4571 179.228 94.3085 182.114 94.3085C187.949 94.3085 193.953 94.4995 199.745 94.7117C205.538 94.9239 211.627 95.1147 217.546 95.1147C223.466 95.1147 228.558 94.9027 233.247 94.4784L233.099 92.3354Z" fill="#E0DFE6"></path> <path d="M226.025 103.941H179.475V106.063H226.025V103.941Z" fill="#E0DFE6"></path> <path d="M266.472 83.2962L266.705 85.4179C274.094 84.682 281.516 84.335 288.941 84.3783C288.601 83.6569 288.241 82.9567 287.88 82.2566C280.731 82.2378 273.585 82.5848 266.472 83.2962Z" fill="#E0DFE6"></path> <path d="M282.588 73.8121C282.057 73.112 281.484 72.433 280.911 71.6904C273.782 71.8814 266.929 72.1783 260.31 72.5814L260.436 74.7031C267.544 74.3424 274.971 74.0243 282.588 73.8121Z" fill="#E0DFE6"></path> <path d="M274.695 94.4564H275.586C278.111 94.4564 280.763 94.3078 283.648 94.3078C286.534 94.3078 289.504 94.3079 292.453 94.4352C292.284 93.7138 292.093 93.0136 291.88 92.3135C289.122 92.3135 286.364 92.3135 283.648 92.3135C280.402 92.3135 277.453 92.3134 274.652 92.5044L274.695 94.4564Z" fill="#E0DFE6"></path> <path d="M132.956 84.8888L132.722 82.7671C128.936 83.1654 125.122 83.2081 121.329 82.8945C119.207 82.8945 116.958 82.6396 114.072 82.6396H113.139C113.393 83.361 113.69 84.0612 114.008 84.7614C116.83 84.7614 119.016 84.8889 121.138 85.0162C125.072 85.3445 129.029 85.3017 132.956 84.8888Z" fill="#E0DFE6"></path> <path d="M138.132 72.263C133.379 72.1357 116.915 71.5204 111.25 71.4355C111.25 72.1569 111.25 72.8571 111.25 73.5573C116.894 73.5573 121.052 73.7905 126.102 73.9815C129.433 74.1088 133.146 74.2575 137.92 74.3848L138.132 72.263Z" fill="#E0DFE6"></path> <path d="M166.136 119.195C162.996 117.859 164.226 118.389 166.136 119.195V119.195Z" fill="#E0DFE6"></path> <path d="M142.79 106.359C140.668 103.515 138.546 100.969 136.425 98.6143L134.77 99.9509L135.385 100.736C137.146 102.858 138.971 105.107 140.902 107.61C142.344 108.374 143.787 109.138 145.251 109.859L142.79 106.359Z" fill="#E0DFE6"></path> <path d="M155.543 105.129C150.349 98.2727 144.782 91.7067 138.867 85.4609L137.339 86.9248C143.193 93.1241 148.71 99.6331 153.867 106.423C156.71 110.094 159.49 113.807 162.248 117.52L166.109 119.175C165.706 118.602 158.705 109.203 155.543 105.129Z" fill="#E0DFE6"></path> <path d="M130.891 92.335C127.433 92.6532 123.741 92.8442 119.667 92.9079C120.197 93.4383 120.749 93.9474 121.343 94.4354L122.001 94.9659C125.226 94.9659 128.238 94.69 131.082 94.4354L130.891 92.335Z" fill="#E0DFE6"></path> <path d="M144.07 72.6875L142.479 74.0879C152.811 85.9695 163.462 98.9966 175.004 113.933C178.293 118.177 181.666 122.633 185.188 127.321L188.965 128.828C184.722 123.099 180.605 117.731 176.68 112.639C165.117 97.7236 154.445 84.6539 144.07 72.6875Z" fill="#E0DFE6"></path> <path d="M201.908 183.207C196.731 186.835 192.127 191.248 187.056 194.876C180.967 199.226 173.286 201.072 166.348 203.618C150.223 209.537 132.974 214.353 119.946 225.959C112.117 232.918 115.851 248.089 126.312 250.126C145.704 253.923 168.491 248.831 187.396 243.76C206.3 238.689 228.578 228.06 232.842 206.991C236.152 190.654 218.161 171.834 201.908 183.207Z" fill="#D7DCE0"></path> <path d="M395.908 269.687C388.398 257.615 376.665 252.141 363.022 250.316C343.46 247.685 324.619 250.528 305.354 254.262C286.204 257.725 267.312 262.489 248.81 268.521C231.624 274.376 211.638 281.463 197.571 293.747H196.807C176.821 292.878 167.676 314.689 171.919 331.556C176.884 351.267 197.189 360.008 214.927 364.591C246.326 372.47 279.275 371.67 310.255 362.279C325.664 357.685 340.445 351.2 354.26 342.971C368.496 334.484 386.424 322.603 395.166 307.963C402.125 296.4 403.228 281.335 395.908 269.687Z" fill="#D7DCE0"></path> <path d="M204.829 86.3525V184.842L119.536 234.087V135.597L204.829 86.3525Z" fill="#3A3A3A"></path> <path d="M204.829 86.3523L119.536 135.597L34.2432 86.3523L119.536 37.1074L204.829 86.3523Z" fill="white"></path> <path d="M119.536 135.597V234.087L34.2432 184.842V86.3525L119.536 135.597Z" fill="white"></path> <path d="M119.523 138.801C118.965 138.798 118.417 138.652 117.931 138.376L32.6389 89.1315C32.1541 88.8525 31.7513 88.4505 31.4713 87.9663C31.1913 87.4821 31.0439 86.9325 31.0439 86.3732C31.0439 85.8139 31.1913 85.2646 31.4713 84.7804C31.7513 84.2961 32.1541 83.8942 32.6389 83.6151L117.931 34.3701C118.415 34.0887 118.964 33.9404 119.523 33.9404C120.082 33.9404 120.631 34.0887 121.114 34.3701L206.407 83.6151C206.891 83.8942 207.294 84.2961 207.574 84.7804C207.854 85.2646 208.001 85.8139 208.001 86.3732C208.001 86.9325 207.854 87.4821 207.574 87.9663C207.294 88.4505 206.891 88.8525 206.407 89.1315L121.114 138.376C120.629 138.652 120.081 138.798 119.523 138.801ZM40.5953 86.3732L119.523 131.926L198.45 86.3732L119.523 40.7989L40.5953 86.3732Z" fill="#3A3A3A"></path> <path d="M119.546 237.268C118.702 237.268 117.893 236.933 117.296 236.336C116.699 235.739 116.363 234.93 116.363 234.085V135.617C116.363 134.773 116.699 133.964 117.296 133.367C117.893 132.77 118.702 132.435 119.546 132.435C120.39 132.435 121.2 132.77 121.797 133.367C122.393 133.964 122.728 134.773 122.728 135.617V234.085C122.728 234.93 122.393 235.739 121.797 236.336C121.2 236.933 120.39 237.268 119.546 237.268Z" fill="#3A3A3A"></path> <path d="M119.545 237.269C118.987 237.267 118.439 237.121 117.954 236.845L32.6616 187.621C32.1803 187.338 31.7807 186.935 31.5018 186.452C31.2229 185.969 31.0742 185.421 31.0703 184.863V86.373C31.0703 85.5289 31.4053 84.7194 32.0022 84.1226C32.599 83.5257 33.4088 83.1904 34.2529 83.1904C35.0969 83.1904 35.9062 83.5257 36.503 84.1226C37.0999 84.7194 37.4354 85.5289 37.4354 86.373V183.017L119.545 230.416L201.655 183.017V86.373C201.655 85.5289 201.991 84.7194 202.588 84.1226C203.185 83.5257 203.994 83.1904 204.838 83.1904C205.682 83.1904 206.492 83.5257 207.089 84.1226C207.686 84.7194 208.021 85.5289 208.021 86.373V184.863C208.017 185.421 207.868 185.969 207.589 186.452C207.31 186.935 206.911 187.338 206.429 187.621L121.137 236.845C120.652 237.121 120.104 237.267 119.545 237.269Z" fill="#3A3A3A"></path> <path d="M407.149 495.086C396.862 495.29 386.695 492.858 377.614 488.02L324.805 457.552C324.106 457.128 323.595 456.452 323.378 455.663C323.161 454.874 323.254 454.032 323.638 453.309C323.847 452.947 324.125 452.629 324.457 452.374C324.788 452.119 325.167 451.933 325.571 451.824C325.975 451.716 326.396 451.688 326.811 451.743C327.226 451.797 327.626 451.933 327.988 452.142L380.797 482.61C395.331 491.097 418.988 491.097 433.5 482.61C439.866 478.897 443.494 474.123 443.494 469.243C443.494 464.363 439.95 459.568 433.5 455.855L369.849 419.15C358.795 412.784 340.824 412.784 329.791 419.15C325.038 421.887 322.429 425.345 322.429 428.888C322.429 432.431 325.038 435.869 329.791 438.606L375.853 465.212C380.156 467.347 384.895 468.458 389.698 468.458C394.501 468.458 399.239 467.347 403.542 465.212C406.597 463.451 408.337 461.202 408.337 459.059C408.337 456.916 406.597 454.667 403.542 452.906L369.043 432.983C368.68 432.774 368.363 432.496 368.108 432.164C367.854 431.832 367.667 431.454 367.559 431.05C367.45 430.646 367.422 430.225 367.477 429.81C367.531 429.396 367.667 428.996 367.876 428.633C368.085 428.271 368.363 427.954 368.695 427.699C369.026 427.445 369.405 427.258 369.809 427.149C370.213 427.041 370.634 427.013 371.049 427.068C371.464 427.122 371.863 427.258 372.225 427.467L406.724 447.39C411.88 450.36 414.702 454.519 414.702 459.059C414.702 463.599 411.88 467.758 406.724 470.728C401.46 473.447 395.622 474.865 389.698 474.865C383.773 474.865 377.935 473.447 372.671 470.728L326.609 444.122C319.798 440.197 316 434.786 316 428.888C316 422.99 319.734 417.558 326.609 413.633C339.615 406.122 360.026 406.122 373.032 413.633L436.683 450.339C445.17 455.24 449.859 461.966 449.859 469.243C449.859 476.52 445.191 483.225 436.683 488.126C427.593 492.927 417.426 495.323 407.149 495.086Z" fill="#3A3A3A"></path> <path d="M505.616 261.732L493.438 282.249L441.307 252.503L441.095 252.015L456.944 233.641L505.616 261.732Z" fill="#3FAAF0"></path> <path d="M493.462 282.248L505.64 316.832L456.968 288.741L441.331 252.502L493.462 282.248Z" fill="#3FAAF0"></path> <path d="M374.698 214.482C357.428 244.483 334.11 271.026 308.925 286.917C258.641 318.743 219.814 296.189 222.041 236.781C224.269 177.373 267.021 103.496 317.306 71.7972C367.59 40.0989 406.418 62.5253 404.169 121.954C402.938 151.552 391.778 184.715 374.698 214.482ZM351.614 201.349C363.072 181.426 370.71 159.403 372.089 139.819C374.656 100.695 350.32 86.6492 317.73 108.439C285.141 130.229 256.646 179.601 254.079 218.768C251.512 257.935 275.848 271.938 308.437 250.148C324.732 239.264 340.051 221.378 351.572 201.349H351.614Z" fill="white"></path> <path d="M398.572 228.146C376.739 266.146 346.462 299.329 313.024 318.616C281.199 337.074 252.068 339.493 230.49 328.545C207.151 316.663 192.427 289.018 192.427 249.002C192.427 172.09 246.424 78.5441 313.024 40.0776C344.85 21.6612 373.96 19.2211 395.538 30.1266C418.877 42.0082 433.58 69.6753 433.58 109.712C433.644 148.03 420.256 190.443 398.572 228.146ZM374.66 214.482C391.782 184.778 402.943 151.552 404.088 121.954C406.422 62.5464 367.531 40.0775 317.225 71.797C266.92 103.517 224.295 177.352 221.961 236.781C219.627 296.21 258.56 318.637 308.845 286.917C334.072 271.025 357.389 244.546 374.703 214.482H374.66Z" fill="white"></path> <path d="M355.317 9.73742L395.503 30.127C373.925 19.2214 344.9 21.6403 312.989 40.0779C246.389 78.5445 192.392 172.091 192.392 249.003C192.392 289.018 207.031 316.664 230.455 328.545L190.143 308.135C166.804 296.253 152.101 268.607 152.101 228.57C152.101 151.659 206.098 58.1125 272.698 19.6671C304.651 1.22948 333.718 -1.2106 355.317 9.73742Z" fill="#D7DCE0"></path> <path d="M351.575 201.349C340.054 221.378 324.735 239.264 308.377 250.148C275.787 271.938 251.452 257.892 254.019 218.768C256.586 179.644 285.123 130.272 317.67 108.439C350.217 86.6068 374.595 100.695 372.028 139.819C370.755 159.403 363.032 181.426 351.575 201.349ZM333.222 190.868C339.122 181.075 342.781 170.098 343.937 158.724C345.273 138.249 332.522 130.887 315.463 142.281C298.405 153.674 283.489 179.516 282.131 199.991C280.774 220.465 293.546 227.828 310.605 216.434C319.947 209.696 327.673 200.962 333.222 190.868Z" fill="white"></path> <path d="M333.218 190.868C327.657 200.924 319.932 209.62 310.601 216.328C293.628 227.722 280.898 220.381 282.128 199.885C283.359 179.389 298.402 153.568 315.46 142.174C332.519 130.781 345.27 138.143 343.933 158.618C342.793 170.028 339.133 181.043 333.218 190.868Z" fill="#3A3A3A"></path> <path d="M295.908 224.984C293.094 224.999 290.326 224.267 287.888 222.862C281.523 219.128 278.234 210.896 278.976 199.736C280.356 178.412 295.95 151.424 313.688 139.564C323.002 133.347 331.701 131.989 338.194 135.724C344.686 139.458 347.869 147.69 347.126 158.872C345.704 170.725 341.894 182.167 335.924 192.506C329.954 202.845 321.949 211.865 312.393 219.022C307.595 222.571 301.866 224.644 295.908 224.984ZM330.173 140.116C325.487 140.447 320.994 142.119 317.231 144.932C300.915 155.816 286.593 180.619 285.405 200.096C284.854 208.583 286.955 214.948 291.155 217.303C295.356 219.659 301.764 218.407 308.935 213.675C317.654 207.071 324.962 198.787 330.428 189.313C335.894 179.838 339.407 169.365 340.761 158.511C341.312 150.024 339.233 143.659 335.011 141.304C333.527 140.479 331.849 140.069 330.152 140.116H330.173Z" fill="#3A3A3A"></path> <path d="M280.263 263.641C275.412 263.711 270.63 262.488 266.408 260.098C255.036 253.542 249.435 238.881 250.814 218.597C253.445 178.688 282.639 128.106 315.908 105.871C332.712 94.6258 348.242 92.0372 359.615 98.6145C370.987 105.192 376.589 119.832 375.188 140.115C373.936 159.423 366.51 181.722 354.31 202.918C342.111 224.114 326.347 241.978 310.116 252.82C299.38 259.992 289.195 263.641 280.263 263.641ZM345.697 101.415C338.08 101.415 329.105 104.704 319.43 111.154C287.604 132.371 259.683 180.831 257.179 219.021C256.012 236.674 260.425 249.298 269.591 254.581C278.757 259.864 291.869 257.361 306.572 247.537C322.018 237.226 336.998 220.252 348.794 199.756C360.591 179.261 367.635 158.044 368.844 139.691C370.011 122.059 365.598 109.414 356.432 104.131C353.16 102.283 349.454 101.345 345.697 101.415Z" fill="#3A3A3A"></path> <path d="M266.486 304.527C258.633 304.633 250.892 302.649 244.059 298.777C226.576 288.678 217.58 266.612 218.747 236.653C221.124 176.418 264.513 101.246 315.497 69.0384C340.958 53.0407 364.487 49.7943 381.97 59.8724C399.453 69.9505 408.428 92.0376 407.24 121.996C406.116 151.127 395.507 184.502 377.387 216.009C359.268 247.517 335.378 273.868 310.511 289.547C294.853 299.519 279.831 304.527 266.486 304.527ZM359.48 60.5303C347.408 60.5303 333.553 65.2191 318.892 74.4698C269.477 105.616 227.404 178.434 225.112 236.865C224.052 264.448 231.902 284.392 247.242 293.239C262.582 302.087 283.841 298.883 307.116 284.222C331.113 269.073 354.112 243.74 371.85 212.89C389.587 182.04 399.793 149.897 400.875 121.805C401.957 94.223 394.106 74.2788 378.766 65.4313C372.894 62.1178 366.243 60.4332 359.502 60.5515L359.48 60.5303Z" fill="#3A3A3A"></path> <path d="M259.117 338.284C248.683 338.41 238.37 336.046 229.032 331.388C203.741 318.658 189.229 288.529 189.229 249.002C189.229 171.199 244.053 76.2311 311.417 37.319C343.243 19.0086 373.52 15.4442 396.944 27.2833C422.234 40.0136 436.747 70.1418 436.747 109.69C436.747 147.245 424.144 189.87 401.251 229.694C378.167 269.837 347.38 302.384 314.536 321.331C295.165 332.597 276.261 338.284 259.117 338.284ZM366.9 26.7954C350.881 26.7954 333.059 32.1846 314.6 42.8356C248.975 80.7293 195.594 173.214 195.594 249.002C195.594 286.577 208.493 313.841 231.896 325.723C253.346 336.586 281.586 333.085 311.417 315.878C343.243 297.462 373.265 265.742 395.798 226.554C418.139 187.706 430.445 146.205 430.445 109.733C430.445 72.115 417.545 44.8724 394.143 32.9909C385.679 28.801 376.343 26.6777 366.9 26.7954Z" fill="#3A3A3A"></path> <path d="M230.418 331.749C229.922 331.745 229.435 331.621 228.997 331.388L188.684 310.977C163.394 298.247 148.902 268.119 148.902 228.57C148.902 150.767 203.727 55.7992 271.091 16.9083C302.917 -1.42326 333.236 -4.98767 356.681 6.8939L396.994 27.326C397.682 27.7403 398.188 28.3997 398.411 29.1718C398.633 29.944 398.555 30.772 398.193 31.4891C397.83 32.2062 397.21 32.7596 396.456 33.0382C395.702 33.3167 394.871 33.2999 394.129 32.991L353.817 12.5802C332.345 1.69583 304.105 5.19668 274.274 22.4249C208.649 60.2974 155.267 152.783 155.267 228.57C155.267 266.167 168.167 293.409 191.57 305.291L231.882 325.723C232.523 326.045 233.036 326.575 233.338 327.225C233.64 327.876 233.714 328.61 233.547 329.307C233.38 330.005 232.982 330.626 232.418 331.069C231.854 331.512 231.157 331.751 230.439 331.749H230.418Z" fill="#3A3A3A"></path> <path d="M493.519 285.452C492.968 285.447 492.427 285.301 491.949 285.028L311.604 182.125C310.869 181.706 310.332 181.012 310.109 180.196C309.886 179.381 309.996 178.51 310.415 177.776C310.835 177.041 311.529 176.504 312.344 176.281C313.16 176.058 314.031 176.168 314.765 176.587L495.11 279.511C495.718 279.861 496.193 280.402 496.462 281.05C496.731 281.698 496.778 282.416 496.597 283.093C496.415 283.77 496.015 284.369 495.459 284.796C494.902 285.222 494.22 285.453 493.519 285.452Z" fill="#3A3A3A"></path> <path d="M505.609 320.037C505.052 320.029 504.505 319.884 504.018 319.613L455.325 291.5C454.745 291.151 454.285 290.633 454.009 290.015L438.181 253.352C437.93 252.799 437.842 252.185 437.929 251.583C438.015 250.982 438.272 250.417 438.669 249.957L454.519 231.562C455.002 231.004 455.664 230.631 456.391 230.507C457.119 230.383 457.867 230.516 458.507 230.883L507.179 258.996C507.913 259.42 508.453 260.112 508.685 260.926C508.791 261.337 508.813 261.764 508.751 262.183C508.689 262.602 508.544 263.004 508.325 263.366L496.932 282.61L508.601 315.794C508.815 316.407 508.836 317.071 508.662 317.697C508.487 318.323 508.125 318.88 507.625 319.295C507.061 319.771 506.347 320.034 505.609 320.037ZM459.462 286.514L499.774 309.853L490.482 283.395C490.328 282.954 490.27 282.485 490.314 282.02C490.358 281.555 490.502 281.105 490.736 280.701L501.344 262.963L457.743 237.779L445.013 252.631L459.462 286.514Z" fill="#3A3A3A"></path> </svg> 