<?xml version="1.0" encoding="UTF-8"?> <svg xmlns="http://www.w3.org/2000/svg" width="404" height="305" viewBox="0 0 404 305" fill="none"> <path d="M146.316 281.327C154.012 281.327 161.743 281.608 169.475 281.608C174.114 281.608 177.769 281.819 181.248 282.03C187.73 282.567 194.248 282.497 200.717 281.819L200.365 278.305C194.083 278.965 187.754 279.036 181.458 278.516C177.944 278.516 174.219 278.094 169.475 278.094C161.743 278.094 130.818 277.532 123.192 277.532C110.284 277.439 97.3796 278.037 84.5352 279.324L84.8865 282.838C97.5791 281.568 110.331 280.981 123.087 281.081C130.923 281.046 138.62 281.222 146.316 281.327Z" fill="#E0DFE6"></path> <path d="M189.662 263.755C195.179 263.966 201.33 264.212 209.202 264.423V260.909C201.33 260.698 195.144 260.452 189.662 260.241C177.503 259.784 168.577 259.468 151.357 259.468C123.032 259.468 97.7994 260.135 74.043 261.541L74.2536 265.055C97.764 263.685 122.926 263.017 151.181 263.017C168.752 262.982 177.503 263.298 189.662 263.755Z" fill="#E0DFE6"></path> <path d="M142.149 298.019C151.813 298.335 161.829 298.687 171.633 298.687C181.438 298.687 189.837 298.335 197.639 297.632L197.288 294.118C189.627 294.821 181.227 295.137 171.633 295.137C162.04 295.137 151.918 294.786 142.254 294.469C132.59 294.153 122.68 293.802 112.945 293.802C107.569 293.802 102.719 293.802 98.0449 294.118C100.071 294.886 102.15 295.509 104.265 295.981L110.942 297.281H112.945C122.61 297.351 132.52 297.667 142.149 298.019Z" fill="#E0DFE6"></path> <path d="M249.559 301.043C238.244 286.986 227.349 273.984 216.666 261.684L214.03 264.003C224.292 275.811 234.764 288.357 245.659 301.781L249.559 301.043Z" fill="#E0DFE6"></path> <path d="M314.436 277.813C306.705 277.813 299.008 277.532 291.277 277.532C278.369 277.439 265.465 278.038 252.62 279.324L252.971 282.838C265.676 281.567 278.439 280.98 291.207 281.081C297.743 281.081 304.28 281.081 310.781 281.327C313.066 280.238 315.315 279.078 317.564 277.813H314.436Z" fill="#E0DFE6"></path> <path d="M208.044 282.698L205.479 285.123C211.101 290.957 216.724 297.353 222.769 304.698L226.986 304.276C220.309 296.158 214.159 289.129 208.044 282.698Z" fill="#E0DFE6"></path> <path d="M266.236 297.458C270.418 296.403 274.671 295.173 278.958 293.943C274.425 293.943 270.172 293.944 266.166 294.26L266.236 297.458Z" fill="#E0DFE6"></path> <path d="M319.406 259.468C291.081 259.468 265.848 260.135 242.092 261.541L242.303 265.055C265.813 263.685 290.975 263.017 319.23 263.017C328.297 263.017 335.009 263.017 341.089 263.263C342.635 262.138 344.111 261.014 345.587 259.749C338.558 259.608 330.897 259.468 319.406 259.468Z" fill="#E0DFE6"></path> <path d="M353.725 165.778H276.622V169.293H353.725V165.778Z" fill="#E0DFE6"></path> <path d="M375.665 227.911C376.298 226.857 377.001 225.838 377.598 224.783C375.138 222.042 372.748 219.231 370.569 216.349C367.055 211.675 362.451 206.404 358.199 201.835L355.634 204.225C359.816 208.723 364.244 213.924 367.793 218.493C370.288 221.726 372.994 224.854 375.665 227.911Z" fill="#E0DFE6"></path> <path d="M339.937 209.566C336.422 209.566 323.56 209.566 319.202 209.566C317.972 209.566 316.813 209.566 315.688 209.566C314.563 209.566 312.174 209.777 309.679 209.566V213.081H311.717C313.404 213.081 314.775 213.081 316.005 213.081C317.235 213.081 318.254 213.081 319.519 213.081C323.912 213.081 336.739 213.081 340.604 213.081L339.937 209.566Z" fill="#E0DFE6"></path> <path d="M373.074 160.436C376.061 163.95 379.083 167.746 382.317 171.928C384.917 175.442 387.482 178.746 390.013 182.19C390.013 180.257 390.013 178.289 390.013 176.285C388.396 174.107 386.779 171.928 385.128 169.784C381.613 165.075 378.099 160.858 374.796 156.957L372.055 159.171L373.074 160.471V160.436Z" fill="#E0DFE6"></path> <path d="M383.389 145.642C381.942 142.191 380.215 138.865 378.223 135.697L376.079 137.735C378.504 140.09 380.929 142.726 383.389 145.642Z" fill="#E0DFE6"></path> <path d="M357.747 116.157H360.453C358.696 114.857 356.938 113.592 355.111 112.433C344.287 112.046 335.572 111.765 319.547 111.765C299.761 111.765 281.522 112.081 264.232 112.784L261.596 114.295C260.472 114.998 259.347 115.771 258.082 116.544C277.094 115.701 297.301 115.279 319.406 115.279C336.977 115.384 345.622 115.701 357.747 116.157Z" fill="#E0DFE6"></path> <path d="M331.653 247.204C333.491 247.359 335.342 247.216 337.135 246.782L336.151 243.268C334.733 243.584 333.275 243.679 331.829 243.549C330.472 243.427 329.108 243.427 327.752 243.549L328.279 247.063C329.406 247.005 330.535 247.052 331.653 247.204Z" fill="#E0DFE6"></path> <path d="M293.917 240.95C284.198 230.692 275.047 219.911 266.505 208.654C261.304 201.907 240.922 174.495 235.686 167.748C228.657 158.505 222.12 150.668 215.9 143.675L212.772 145.467C219.098 152.496 225.635 160.473 232.909 170.067C238.145 176.814 258.493 204.191 263.729 210.973C272.343 222.332 281.576 233.208 291.387 243.55L293.917 240.95Z" fill="#E0DFE6"></path> <path d="M368.631 130.704C362.349 131.364 356.019 131.435 349.724 130.915C346.21 130.915 342.695 130.493 337.74 130.493C330.044 130.493 299.084 129.931 291.493 129.931C278.584 129.839 265.68 130.437 252.836 131.723L253.187 135.238C265.892 133.966 278.655 133.38 291.423 133.481C299.119 133.481 330.079 134.043 337.67 134.043C342.344 134.043 345.964 134.253 349.478 134.464C355.96 135.001 362.478 134.931 368.947 134.254L368.631 130.704Z" fill="#E0DFE6"></path> <path d="M345.215 194.84H338.187C326.123 194.436 314.045 194.788 302.025 195.894L302.552 199.408C314.387 198.347 326.276 198.007 338.152 198.389H345.18L345.215 194.84Z" fill="#E0DFE6"></path> <path d="M233.749 195.895C227.529 187.25 221.063 178.324 214.491 169.784C210.977 165.075 207.462 160.858 204.159 156.957L201.418 159.171L202.437 160.471C205.424 163.986 208.446 167.781 211.679 171.963C218.216 180.432 224.647 189.534 230.868 198.004C237.088 206.473 243.554 215.575 250.196 224.291C256.838 233.006 262.847 239.999 268.716 246.325L271.282 243.935C265.483 237.715 259.509 230.546 252.972 222.147C246.435 213.748 239.969 204.576 233.749 195.895Z" fill="#E0DFE6"></path> <path d="M168.315 227.629C166.065 227.629 164.063 227.629 161.919 227.629C159.775 227.629 157.807 227.629 155.382 227.629C153.112 227.469 150.834 227.469 148.564 227.629L148.916 231.143C151.046 231.018 153.182 231.018 155.312 231.143C157.842 231.143 159.986 231.143 162.059 231.143C164.073 231.038 166.09 231.038 168.104 231.143L168.315 227.629Z" fill="#E0DFE6"></path> <path d="M330.252 231.143C332.265 231.038 334.283 231.038 336.296 231.143L336.507 227.629C334.293 227.629 332.255 227.629 330.111 227.629C327.968 227.629 326.034 227.629 323.574 227.629C321.305 227.469 319.027 227.469 316.757 227.629L317.108 231.143C319.238 231.018 321.374 231.018 323.504 231.143C326.035 231.249 328.213 231.214 330.252 231.143Z" fill="#E0DFE6"></path> <path d="M306.321 182.33C300.957 182.381 295.605 181.827 290.366 180.678L289.593 184.193C295.085 185.402 300.697 185.98 306.321 185.915C312.19 185.915 318.129 185.423 323.892 184.931C331.793 184.094 339.747 183.859 347.684 184.228L347.965 180.713C339.829 180.342 331.677 180.577 323.576 181.417C317.883 181.838 312.049 182.33 306.321 182.33Z" fill="#E0DFE6"></path> <path d="M345.533 234.798L343.705 237.785C348.496 241.239 352.457 245.717 355.302 250.893L357.411 249.979L358.324 249.101C355.187 243.434 350.815 238.546 345.533 234.798Z" fill="#E0DFE6"></path> <path d="M162.756 243.691C161.682 243.568 160.597 243.568 159.522 243.691L160.225 247.205C160.996 247.117 161.774 247.117 162.545 247.205H163.95C164.993 247.217 166.029 247.039 167.008 246.678L165.708 243.409C164.751 243.691 163.749 243.786 162.756 243.691Z" fill="#E0DFE6"></path> <path d="M360.949 227.279C358.348 224.327 355.888 221.551 353.92 219.161L351.25 221.48C353.323 223.87 364.252 236.275 367.169 239.684L369.383 236.873C366.537 233.499 363.655 230.371 360.949 227.279Z" fill="#E0DFE6"></path> <path d="M155.701 184.861C163.614 184.023 171.578 183.788 179.527 184.157L179.808 180.643C171.673 180.272 163.52 180.507 155.419 181.346C149.761 181.838 143.927 182.33 138.199 182.33C133.484 182.349 128.778 181.926 124.142 181.065L121.998 181.803L121.472 184.122C126.976 185.328 132.6 185.906 138.234 185.844C144.068 185.844 149.972 185.353 155.701 184.861Z" fill="#E0DFE6"></path> <path d="M226.621 253.565L229.572 251.633C228.237 249.63 226.797 247.591 225.145 245.483C223.493 243.374 217.308 236.24 210.244 228.157C201.564 218.212 191.724 207.072 188.421 202.644L185.609 204.787C189.124 209.18 198.893 220.496 207.608 230.477C214.321 238.173 220.682 245.412 222.368 247.626C224.055 249.84 225.355 251.632 226.621 253.565Z" fill="#E0DFE6"></path> <path d="M365.409 146.555C357.748 147.258 349.314 147.575 339.72 147.575C330.126 147.575 320.005 147.223 310.341 146.907C300.676 146.59 290.766 146.239 281.031 146.239C275.654 146.239 270.805 146.239 266.166 146.555V150.07H267.642C271.824 150.07 276.182 149.823 280.961 149.823C290.626 149.823 300.571 150.14 310.165 150.491C319.759 150.843 329.845 151.159 339.649 151.159C349.454 151.159 357.889 150.808 365.655 150.105L365.409 146.555Z" fill="#E0DFE6"></path> <path d="M320.73 247.555C301.471 221.022 285.587 199.69 270.686 180.432C257.684 163.634 245.384 148.277 233.435 133.974L230.343 135.731C242.362 150.139 254.767 165.602 267.875 182.576C282.74 201.834 298.625 223.13 317.883 249.628L320.73 247.555Z" fill="#E0DFE6"></path> <path d="M177.131 194.84H170.102C158.038 194.436 145.961 194.788 133.94 195.894L134.432 199.408C146.279 198.347 158.179 198.007 170.067 198.389H177.096L177.131 194.84Z" fill="#E0DFE6"></path> <path d="M185.634 165.778H165.707L156.289 169.293H185.634V165.778Z" fill="#E0DFE6"></path> <path d="M365.094 179.132L362.317 181.311L384.703 210.268C385.195 208.968 385.652 207.668 386.074 206.332L365.094 179.132Z" fill="#E0DFE6"></path> <path d="M194.355 179.344L191.573 181.492L243.729 249.022L246.51 246.874L194.355 179.344Z" fill="#E0DFE6"></path> <path d="M183.926 251.772L186.738 249.629C184.875 247.239 183.575 245.342 182.451 243.69C180.464 240.525 178.105 237.611 175.422 235.01L172.997 237.575C175.545 239.986 177.787 242.701 179.674 245.658C180.693 247.555 182.029 249.312 183.926 251.772Z" fill="#E0DFE6"></path> <path d="M206.981 252.3L209.757 250.157C202.684 240.095 194.279 231.039 184.771 223.237L182.662 226.084C192.151 233.007 199.952 243.269 206.981 252.3Z" fill="#E0DFE6"></path> <path d="M171.815 209.566C168.301 209.566 155.439 209.566 151.081 209.566C149.851 209.566 148.691 209.566 147.567 209.566C146.442 209.566 144.053 209.777 141.558 209.566V213.081H143.561C145.283 213.081 146.653 213.081 147.883 213.081C149.113 213.081 150.132 213.081 151.397 213.081C155.825 213.081 168.652 213.081 172.483 213.081L171.815 209.566Z" fill="#E0DFE6"></path> <path d="M323.541 33.748C317.883 34.24 312.049 34.7316 306.321 34.7316C300.957 34.7826 295.605 34.2286 290.366 33.08L289.593 36.5943C291.49 37.016 293.458 37.3324 295.497 37.6136H298.695C315.168 37.9637 331.638 36.7872 347.894 34.0993V33.1504C339.773 32.7459 331.633 32.9457 323.541 33.748Z" fill="#E0DFE6"></path> <path d="M320.296 99.9549C318.961 99.9549 317.625 99.6738 316.325 99.5684L317.872 101.712L320.296 99.9549Z" fill="#E0DFE6"></path> <path d="M79.6864 246.677L64.7507 227.313C64.329 228.789 64.0126 230.266 63.7314 231.777L76.9099 248.821L79.6864 246.677Z" fill="#E0DFE6"></path> <path d="M101.96 246.291L104.526 243.901C98.6921 237.646 92.718 230.512 86.2166 222.113C82.5266 217.298 78.9069 212.413 75.2872 207.458C74.5141 208.407 73.7761 209.391 73.0732 210.375C76.4704 215.061 79.9259 219.688 83.4402 224.256C90.0118 232.761 96.0564 239.965 101.96 246.291Z" fill="#E0DFE6"></path> <path d="M127.132 240.948C117.413 230.69 108.262 219.909 99.7202 208.652C96.2059 204.119 92.6917 199.55 89.1774 194.981C88.2286 195.614 87.2448 196.282 86.2959 196.984C89.8102 201.588 93.3244 206.227 96.8387 210.796C105.452 222.145 114.672 233.02 124.461 243.373L127.132 240.948Z" fill="#E0DFE6"></path> <path d="M153.934 247.555C136.644 223.764 122.095 204.189 108.53 186.513L105.016 187.707C118.756 205.595 133.516 225.415 151.088 249.629L153.934 247.555Z" fill="#E0DFE6"></path> <path d="M364.643 34.3806C405.865 58.1722 410.328 94.1231 374.659 114.752L308.309 153.057V77.4655C308.309 72.3347 304.795 67.1687 298.118 63.4085C290.491 59.5512 282.064 57.5416 273.518 57.5416C264.971 57.5416 256.545 59.5512 248.918 63.4085L105.958 145.994C99.1401 149.93 95.7312 155.061 95.7312 160.051V227.912C81.7961 224.818 68.3923 219.69 55.9499 212.694L39.3974 203.136C-1.78985 179.344 -6.28799 143.393 29.417 122.764L208.961 19.0936C244.631 -1.49999 306.939 1.06548 348.126 24.8571L364.643 34.3806Z" fill="#3A3A3A"></path> <path d="M308.297 77.4648V153.057L195.102 218.422C169.729 233.077 130.826 235.994 95.6836 227.876V160.015C95.6836 165.181 99.198 170.312 105.91 174.072C113.529 177.954 121.959 179.977 130.51 179.977C139.061 179.977 147.491 177.954 155.11 174.072L298.105 91.5571C304.888 87.7617 308.297 82.5957 308.297 77.4648Z" fill="#D7DCE0"></path> <path d="M298.105 63.2318C304.888 67.1678 308.297 72.3338 308.297 77.2889C308.297 82.244 304.782 87.5854 298.105 91.5214L155.11 174.036C147.491 177.918 139.061 179.942 130.51 179.942C121.959 179.942 113.529 177.918 105.91 174.036C99.0926 170.136 95.6836 165.005 95.6836 159.979C95.6836 154.954 99.198 149.718 105.91 145.922L248.871 63.3369C256.494 59.4576 264.922 57.4266 273.475 57.4083C282.029 57.39 290.466 59.3852 298.105 63.2318Z" fill="white"></path> <path d="M134.737 237.61C121.205 237.591 107.719 236.047 94.5339 233.007C80.0693 229.823 66.1628 224.493 53.2764 217.192L36.7243 207.669C13.3896 194.174 0 176.04 0 157.626C0 142.128 9.48847 128.106 26.7435 118.161L206.288 14.5244C243.363 -6.91265 308.201 -4.31204 350.724 20.2878L367.276 29.8118C390.611 43.3066 404 61.4402 404 79.8549C404 95.3528 394.512 109.375 377.292 119.32L197.748 222.956C181.09 232.585 158.704 237.61 134.737 237.61ZM269.369 10.3778C247.65 10.3778 226.952 14.7355 211.559 23.6266L32.0149 127.298C18.1687 135.275 10.5428 146.064 10.5428 157.626C10.5428 172.069 21.9993 187.005 42.1712 198.532L58.7233 208.09C70.7148 214.831 83.6337 219.768 97.064 222.745C131.89 230.757 169.423 227.278 192.652 213.854L372.196 110.183C386.042 102.206 393.633 91.452 393.633 79.8549C393.633 65.4113 382.177 50.5107 362.005 38.9488L345.453 29.3901C322.12 16.6875 295.934 10.1439 269.369 10.3778Z" fill="#3A3A3A"></path> <path d="M130.5 185.423C121.002 185.587 111.621 183.3 103.265 178.781C94.971 174.037 90.4023 167.359 90.4023 160.015C90.4023 152.67 94.971 145.958 103.265 141.249L246.225 58.6985C254.647 54.3358 263.994 52.0586 273.478 52.0586C282.963 52.0586 292.309 54.3358 300.731 58.6985C309.025 63.4779 313.558 70.1197 313.558 77.4645C313.558 84.8093 309.025 91.5215 300.731 96.2658L157.736 178.781C149.379 183.3 139.999 185.587 130.5 185.423ZM273.496 62.6344C265.843 62.4672 258.275 64.2446 251.497 67.8003L108.536 150.386C103.722 153.162 100.945 156.676 100.945 160.015C100.945 163.353 103.722 167.043 108.536 169.644C115.362 173.034 122.879 174.798 130.5 174.798C138.121 174.798 145.639 173.034 152.464 169.644L295.46 87.0936C300.274 84.3173 303.016 80.8031 303.016 77.4294C303.016 74.0557 300.274 70.4008 295.46 67.7651C288.685 64.2375 281.132 62.473 273.496 62.6344Z" fill="#3A3A3A"></path> <path d="M308.277 158.328C306.879 158.328 305.538 157.773 304.55 156.784C303.561 155.796 303.006 154.455 303.006 153.057V77.4648C303.006 76.0667 303.561 74.7259 304.55 73.7373C305.538 72.7487 306.879 72.1934 308.277 72.1934C309.675 72.1934 311.016 72.7487 312.005 73.7373C312.993 74.7259 313.549 76.0667 313.549 77.4648V153.057C313.549 154.455 312.993 155.796 312.005 156.784C311.016 157.773 309.675 158.328 308.277 158.328Z" fill="#3A3A3A"></path> <path d="M95.6737 233.148C94.2757 233.148 92.9348 232.592 91.9463 231.604C90.9577 230.615 90.4023 229.274 90.4023 227.876V160.016C90.4023 158.617 90.9577 157.277 91.9463 156.288C92.9348 155.299 94.2757 154.744 95.6737 154.744C97.0718 154.744 98.4126 155.299 99.4012 156.288C100.39 157.277 100.945 158.617 100.945 160.016V227.876C100.945 229.274 100.39 230.615 99.4012 231.604C98.4126 232.592 97.0718 233.148 95.6737 233.148Z" fill="#3A3A3A"></path> </svg> 