<?xml version="1.0" encoding="UTF-8"?> <svg xmlns="http://www.w3.org/2000/svg" width="752" height="531" viewBox="0 0 752 531" fill="none"> <path d="M66.5012 155.529C59.7749 146.269 53.4971 137.592 47.5107 129.588L43.7217 130.485C49.9771 138.96 56.5692 147.928 63.6094 157.637L66.5012 155.529Z" fill="#E7E6ED"></path> <path d="M36.4341 151.426L39.0347 148.937C34.8644 144.587 30.6719 139.968 26.3222 134.856L22.5107 135.888C27.4658 141.561 31.9499 146.672 36.4341 151.426Z" fill="#E7E6ED"></path> <path d="M13.4293 154.407L16.0524 151.964C12.891 148.556 9.68519 144.879 6.36688 140.91C5.15614 141.314 3.96761 141.74 2.7793 142.188C6.4115 146.583 9.9615 150.656 13.4293 154.407Z" fill="#E7E6ED"></path> <path d="M295.867 191.604L293.267 194.092L295.127 196.065C296.046 195.281 296.944 194.496 297.818 193.689L295.867 191.604Z" fill="#E7E6ED"></path> <path d="M230.307 190.169C238.177 190.326 246.002 190.46 253.939 190.46C258.715 190.46 262.414 190.684 265.979 190.886C272.601 191.433 279.26 191.351 285.866 190.639L285.485 187.075C279.072 187.757 272.608 187.832 266.181 187.299C262.571 187.097 258.804 186.873 253.939 186.873C246.069 186.873 214.612 186.312 206.72 186.312C193.574 186.204 180.431 186.802 167.349 188.106L167.73 191.671C180.686 190.386 193.701 189.795 206.72 189.9C214.59 189.9 222.527 190.034 230.307 190.169Z" fill="#E7E6ED"></path> <path d="M235.577 171.425C253.222 171.425 262.168 171.761 274.567 172.232C280.194 172.434 286.473 172.681 294.522 172.905V169.317C286.473 169.093 280.217 168.847 274.589 168.645C262.168 168.174 253.177 167.838 235.465 167.838C206.564 167.838 180.802 168.533 156.722 169.945L156.924 173.533C181.049 172.12 206.833 171.425 235.577 171.425Z" fill="#E7E6ED"></path> <path d="M88.2692 293.553L85.8721 296.084L89.7251 294.986C89.2771 294.516 88.7845 294.046 88.2692 293.553Z" fill="#E7E6ED"></path> <path d="M101.723 260.504L98.875 262.746C101.902 266.67 110.085 275.974 117.91 285.167L121.408 283.732C113.269 274.248 104.794 264.405 101.723 260.504Z" fill="#E7E6ED"></path> <path d="M304.655 170.103L301.965 172.345C304.611 175.416 307.301 178.533 309.969 181.672C310.799 180.797 311.606 179.901 312.413 179.004C309.813 176.029 307.226 173.062 304.655 170.103Z" fill="#E7E6ED"></path> <path d="M282.391 203.24C274.543 203.957 265.979 204.293 256.158 204.293C246.338 204.293 235.979 203.957 226.181 203.599C216.383 203.24 206.182 202.926 196.272 202.926C190.779 202.926 185.824 202.926 181.07 203.24V206.827H182.572C186.832 206.648 191.294 206.58 196.182 206.58C206.047 206.58 216.182 206.917 225.98 207.253C235.778 207.589 246.158 207.948 256.069 207.948C265.351 207.948 273.535 207.634 281.046 207.007C281.539 206.648 282.055 206.334 282.525 205.975L282.391 203.24Z" fill="#E7E6ED"></path> <path d="M130.603 170.103L127.89 172.345C145.4 192.524 163.405 214.496 182.888 239.742C184.637 241.984 186.408 244.226 188.18 246.626L191.902 245.594L185.736 237.545C166.118 212.366 148.091 190.259 130.603 170.103Z" fill="#E7E6ED"></path> <path d="M147.956 253.643C141.611 244.675 135.041 235.706 128.337 226.962C124.616 222.142 121.163 217.859 117.777 213.868L114.975 216.11L116.006 217.433C119.033 221.043 122.149 224.899 125.445 229.182C132.171 237.814 138.673 246.939 144.996 255.751C147.844 259.674 150.714 263.665 153.628 267.656L156.767 265.885C153.808 261.76 150.781 257.679 147.956 253.643Z" fill="#E7E6ED"></path> <path d="M191.744 226.492H246.227C248.783 225.348 251.317 224.25 253.85 222.904H191.744V226.492Z" fill="#E7E6ED"></path> <path d="M205.758 238.083L204.973 241.581H205.556C208.089 240.818 210.601 240.011 213.112 239.182C210.641 238.963 208.185 238.596 205.758 238.083Z" fill="#E7E6ED"></path> <path d="M165.713 245.773C160.511 238.777 155.287 231.782 150.018 224.876C141.217 213.29 131.802 202.183 121.813 191.604L119.212 194.092C129.121 204.579 138.461 215.588 147.193 227.073C152.507 233.957 167.753 254.45 170.197 257.701L173.202 255.75C170.676 252.432 168.179 249.106 165.713 245.773Z" fill="#E7E6ED"></path> <path d="M107.756 236.514L104.908 238.756L134.862 277.522L138.136 275.907L107.756 236.514Z" fill="#E7E6ED"></path> <path d="M562.071 253.621L562.587 257.164C569.957 256.35 577.37 255.984 584.784 256.065C580.539 254.914 576.242 253.816 571.892 252.77C568.215 252.949 564.851 253.195 562.071 253.621Z" fill="#E7E6ED"></path> <path d="M600.77 267.566C597.004 267.768 584.067 267.566 579.605 267.566C578.327 267.566 577.161 267.566 575.861 267.566C574.202 267.566 572.296 267.768 569.74 267.566L569.605 271.154H571.668C573.394 271.154 574.785 271.154 576.152 270.997C577.52 270.84 578.394 270.862 579.605 270.997C584.089 270.997 597.206 271.198 601.04 270.997L600.77 267.566Z" fill="#E7E6ED"></path> <path d="M465.079 311.197L467.904 308.955C462.348 301.372 456.225 294.221 449.586 287.565C449.025 288.731 448.532 289.808 448.039 291.108C454.177 297.403 459.87 304.115 465.079 311.197Z" fill="#E7E6ED"></path> <path d="M468.418 286.556L457.724 274.292C456.984 275.256 456.244 276.243 455.481 277.251C458.755 281.041 478.979 304.157 480.705 306.399C482.432 308.641 483.755 310.48 485.055 312.453L488.059 310.48C486.692 308.439 485.234 306.376 483.575 304.202C481.916 302.027 475.616 294.785 468.418 286.556Z" fill="#E7E6ED"></path> <path d="M553.776 299.606C543.867 289.128 534.527 278.126 525.795 266.648C520.683 259.921 515.683 253.195 510.683 246.469C509.316 246.626 507.948 246.783 506.603 247.007C506.804 247.276 517.611 261.827 522.97 268.733C531.772 280.319 541.187 291.426 551.176 302.006L553.776 299.606Z" fill="#E7E6ED"></path> <path d="M676.666 307.654L679.513 305.457L656.666 275.884L650.903 274.292L676.666 307.654Z" fill="#E7E6ED"></path> <path d="M702.203 305.078L704.826 302.634C700.028 297.455 695.073 291.625 689.826 285.033L683.997 283.419C690.432 291.715 696.418 298.822 702.203 305.078Z" fill="#E7E6ED"></path> <path d="M528.081 305.077L530.704 302.633C524.785 296.265 518.687 288.978 512.028 280.369C505.369 271.759 498.71 262.432 492.342 253.643L490.481 251.042C489.338 251.468 488.239 251.916 487.028 252.387L489.45 255.728C495.818 264.696 502.432 273.799 509.203 282.633C515.974 291.467 522.095 298.619 528.081 305.077Z" fill="#E7E6ED"></path> <path d="M590.905 289.607C592.959 289.494 595.017 289.494 597.071 289.607L597.295 286.042C595.121 285.918 592.943 285.918 590.77 286.042C588.752 286.042 586.6 286.042 584.044 286.042C581.711 285.946 579.375 285.998 577.049 286.199L577.43 289.764C579.608 289.603 581.793 289.558 583.977 289.629C586.6 289.719 588.82 289.674 590.905 289.607Z" fill="#E7E6ED"></path> <path d="M719.602 295.974C721.53 298.081 723.413 300.122 725.297 302.095L726.575 300.884C724.363 299.094 722.033 297.453 719.602 295.974Z" fill="#E7E6ED"></path> <path d="M592.318 305.996C594.19 306.147 596.074 306.003 597.901 305.57L596.915 302.117C595.444 302.444 593.931 302.542 592.43 302.409C591.058 302.275 589.677 302.275 588.305 302.409L588.798 305.951C589.97 305.852 591.149 305.867 592.318 305.996Z" fill="#E7E6ED"></path> <path d="M659.246 312.475L662.25 310.503C660.883 308.44 659.403 306.377 657.766 304.225C653.708 298.978 649.179 294.023 644.807 289.247C640.435 284.472 635.995 279.606 632.026 274.494C630.322 272.252 628.372 269.876 626.377 267.499L620.121 265.795C623.327 269.382 626.511 273.216 629.09 276.669C633.125 281.916 637.654 286.871 642.049 291.669C646.443 296.467 650.86 301.287 654.806 306.422C656.51 308.507 657.945 310.48 659.246 312.475Z" fill="#E7E6ED"></path> <path d="M444.34 308.464L443.846 307.812C443.846 308.172 443.846 308.554 443.846 308.913L444.34 308.464Z" fill="#E7E6ED"></path> <path d="M505.392 305.459L471.267 261.267C470.303 261.984 469.362 262.724 468.42 263.509L502.545 307.678L505.392 305.459Z" fill="#E7E6ED"></path> <path d="M642.025 309.024C636.846 302.297 629.066 293.463 622.205 285.661C619.559 282.656 617.07 279.809 614.963 277.365L612.25 279.607C614.358 282.051 616.869 284.899 619.514 287.925C626.353 295.683 634.088 304.472 639.2 311.086L642.025 309.024Z" fill="#E7E6ED"></path> <path d="M619.739 308.327C616.539 302.371 612.004 297.237 606.488 293.327L604.627 296.399C609.518 299.948 613.554 304.544 616.443 309.851L619.739 308.327Z" fill="#E7E6ED"></path> <path d="M581.265 306.198C564.516 283.127 550.257 263.934 537.028 246.603C535.414 246.446 533.822 246.311 532.208 246.222C545.975 264.158 560.794 284.113 578.373 308.305L581.265 306.198Z" fill="#E7E6ED"></path> <path d="M136.385 155.754C137.999 157.839 139.434 159.834 140.735 161.807L143.717 159.834C142.372 157.794 140.892 155.731 139.233 153.556C137.573 151.382 131.228 144.117 124.031 135.889C118.022 129.005 111.475 121.539 106.811 116.046L102.888 116.943C107.619 122.57 134.659 153.512 136.385 155.754Z" fill="#E7E6ED"></path> <path d="M92.6207 153.758C93.809 155.484 95.1767 157.48 97.1049 159.991L99.9524 157.749C98.0691 155.305 96.7458 153.264 95.5799 151.695C93.5316 148.409 91.0762 145.396 88.2712 142.727L85.7598 145.574C88.3792 148.005 90.6842 150.754 92.6207 153.758Z" fill="#E7E6ED"></path> <path d="M120.692 160.529L123.517 158.287C116.253 148.87 108.024 138.108 97.9795 130.799L95.8721 133.691C105.491 140.843 113.562 151.314 120.692 160.529Z" fill="#E7E6ED"></path> <path d="M164.794 131.898C171.52 140.575 177.708 147.952 183.695 154.319L186.318 151.875C180.399 145.508 174.301 138.221 167.641 129.611C160.982 121.002 154.323 111.674 147.956 102.885C145.288 99.1634 142.597 95.3967 139.84 91.6748L137.44 94.455C139.996 97.9751 142.552 101.518 145.041 104.993C151.431 113.939 158.045 123.154 164.794 131.898Z" fill="#E7E6ED"></path> <path d="M236.766 155.528C217.08 128.421 200.892 106.65 185.668 86.9872C177.619 76.5838 169.839 66.8083 162.238 57.3242C161.633 58.4453 160.982 59.5663 160.354 60.6874C167.641 69.6558 175.108 79.207 182.776 89.1844C197.932 108.825 214.165 130.574 233.806 157.636L236.766 155.528Z" fill="#E7E6ED"></path> <path d="M272.056 159.026L275.352 157.591C272.152 151.636 267.616 146.502 262.101 142.592L260.24 145.663C265.121 149.187 269.157 153.751 272.056 159.026Z" fill="#E7E6ED"></path> <path d="M246.518 138.847C248.572 138.735 250.63 138.735 252.684 138.847L252.908 135.282C250.735 135.159 248.557 135.159 246.383 135.282C244.366 135.282 242.213 135.282 239.657 135.282C237.324 135.186 234.988 135.239 232.662 135.439L233.043 139.004C235.222 138.843 237.407 138.799 239.59 138.869C242.214 139.049 244.433 139.004 246.518 138.847Z" fill="#E7E6ED"></path> <path d="M239.95 91.7629C248.021 90.901 256.146 90.6537 264.254 91.0231L264.523 87.4355C256.22 87.0537 247.901 87.3012 239.635 88.1756C233.873 88.6689 227.887 89.162 222.058 89.162C216.578 89.22 211.11 88.6558 205.758 87.4804L204.973 90.9782C210.581 92.2181 216.314 92.8122 222.058 92.7493C228.044 92.682 234.098 92.1665 239.95 91.7629Z" fill="#E7E6ED"></path> <path d="M247.932 155.327C249.797 155.481 251.674 155.337 253.493 154.901L252.528 151.448C251.057 151.775 249.545 151.873 248.044 151.74C246.672 151.607 245.291 151.607 243.919 151.74L244.412 155.282C245.584 155.183 246.763 155.198 247.932 155.327Z" fill="#E7E6ED"></path> <path d="M209.389 148.938C199.479 138.459 190.139 127.457 181.407 115.979C176.093 109.073 156.161 82.347 151.273 75.9346C150.601 77.0108 149.884 78.1768 149.188 79.1185C153.785 85.1273 173.224 111.248 178.582 118.154C187.384 129.74 196.799 140.846 206.788 151.426L209.389 148.938Z" fill="#E7E6ED"></path> <path d="M270.442 72.2344H191.744V75.8218H270.442V72.2344Z" fill="#E7E6ED"></path> <path d="M75.5136 151.739C74.4184 151.616 73.313 151.616 72.2178 151.739L72.9354 155.259C73.68 155.167 74.4329 155.167 75.1775 155.259H76.6122C77.6763 155.286 78.7357 155.103 79.729 154.721L78.406 151.402C77.4711 151.693 76.4902 151.807 75.5136 151.739Z" fill="#E7E6ED"></path> <path d="M297.638 158.354C292.459 151.627 284.679 142.794 277.818 134.991C275.172 131.987 272.684 129.139 270.576 126.695L267.863 129.05C269.971 131.494 272.482 134.341 275.128 137.368C281.966 145.125 289.701 153.915 294.813 160.529L297.638 158.354Z" fill="#E7E6ED"></path> <path d="M161.004 154.788L124.749 107.861L122.148 110.372L158.157 156.986L161.004 154.788Z" fill="#E7E6ED"></path> <path d="M256.383 116.897C252.617 117.099 239.679 116.897 235.217 116.897C233.939 116.897 232.774 116.897 231.473 116.897C229.814 116.897 227.908 117.099 225.352 116.897L225.218 120.485H227.281C229.007 120.485 230.397 120.485 231.765 120.328C233.133 120.171 234.007 120.193 235.217 120.328C239.702 120.328 252.818 120.53 256.652 120.328L256.383 116.897Z" fill="#E7E6ED"></path> <path d="M261.764 101.898H254.612C242.953 101.898 226.967 101.651 217.685 102.996L218.2 106.539C227.169 105.238 243.02 105.373 254.567 105.485H261.764V101.898Z" fill="#E7E6ED"></path> <path d="M81.2746 135.35C79.1015 135.227 76.9234 135.227 74.7503 135.35C72.7324 135.35 70.5575 135.35 68.024 135.35C65.6987 135.255 63.3694 135.307 61.0508 135.507L61.4318 139.072C63.6027 138.912 65.7809 138.868 67.9566 138.938C70.535 138.938 72.7549 138.938 74.8176 138.938C76.8788 138.826 78.9441 138.826 81.0053 138.938L81.2746 135.35Z" fill="#E7E6ED"></path> <path d="M186.316 1.29365C186.324 1.25708 186.324 1.21918 186.316 1.18262C186.251 1.32755 186.176 1.46846 186.094 1.60425L186.316 1.29365Z" fill="#E7E6ED"></path> <path d="M708.93 377.16H748.637C748.996 375.972 749.333 374.783 749.647 373.572H708.93V377.16Z" fill="#E7E6ED"></path> <path d="M713.548 353.597C708.055 353.597 703.1 353.597 698.347 353.911V357.498H699.849C704.109 357.319 708.571 357.251 713.458 357.251C723.301 357.251 733.458 357.587 743.256 357.924L752 358.215C752 357.027 752 355.839 752 354.628L743.301 354.336C733.548 353.933 723.369 353.597 713.548 353.597Z" fill="#E7E6ED"></path> <path d="M734.871 404.29L735.05 405.5C735.364 405.052 735.655 404.603 735.946 404.133L734.871 404.29Z" fill="#E7E6ED"></path> <path d="M674.223 324.202C695.747 322.924 718.639 322.251 743.908 322.117C743.28 320.906 742.607 319.718 741.889 318.552C717.338 318.686 695.052 319.381 674.021 320.614L674.223 324.202Z" fill="#E7E6ED"></path> <path d="M722.944 388.752L722.137 392.25C727.753 393.488 733.492 394.083 739.244 394.021H741.845C742.45 392.81 743.033 391.622 743.616 390.389C742.158 390.389 740.701 390.389 739.244 390.389C733.766 390.461 728.298 389.912 722.944 388.752Z" fill="#E7E6ED"></path> <path d="M747.494 340.838H750.611C750.364 339.628 750.072 338.417 749.781 337.229C749.041 337.229 731.845 336.915 723.908 336.915C710.754 336.807 697.603 337.406 684.514 338.709L684.917 342.273C697.873 340.989 710.889 340.398 723.908 340.502C731.777 340.637 739.624 340.637 747.494 340.838Z" fill="#E7E6ED"></path> <path d="M455.168 504.58C447.343 505.298 438.778 505.634 428.958 505.634H423.733C425.594 506.889 427.478 508.1 429.361 509.266C439.114 509.266 447.679 508.907 455.504 508.19L455.168 504.58Z" fill="#E7E6ED"></path> <path d="M649.043 471.44L646.353 473.795L649.536 477.494L652.608 475.566L649.043 471.44Z" fill="#E7E6ED"></path> <path d="M467.432 470.679C459.383 470.455 453.128 470.208 447.5 470.006C435.079 469.536 426.087 469.199 408.375 469.199C397.164 469.199 386.312 469.311 375.887 469.513C377.389 470.701 378.914 471.755 380.371 473.033C389.339 472.876 398.645 472.787 408.308 472.787C425.953 472.787 434.899 473.123 447.298 473.594C452.926 473.796 459.203 474.042 467.252 474.266L467.432 470.679Z" fill="#E7E6ED"></path> <path d="M536.132 527.516C540.863 526.619 545.571 525.52 550.212 524.242H536.132V527.516Z" fill="#E7E6ED"></path> <path d="M458.263 488.414C451.857 489.097 445.401 489.172 438.981 488.638C435.349 488.436 431.604 488.212 426.739 488.212C418.869 488.212 401.111 487.898 400.08 487.876L404.789 491.553C412.098 491.553 419.407 491.8 426.739 491.8C431.492 491.8 435.191 492.024 438.779 492.226C445.393 492.773 452.045 492.69 458.644 491.979L458.263 488.414Z" fill="#E7E6ED"></path> <path d="M494.338 526.215C485.536 514.629 476.121 503.522 466.132 492.942L463.531 495.431C473.44 505.918 482.781 516.927 491.513 528.412C491.849 528.861 492.208 529.309 492.544 529.78C494.143 529.914 495.735 530.027 497.32 530.116C496.311 528.816 495.347 527.493 494.338 526.215Z" fill="#E7E6ED"></path> <path d="M610.568 488.615C606.959 488.413 603.192 488.189 598.327 488.189C590.457 488.189 559 487.629 551.108 487.629C537.961 487.521 524.818 488.119 511.736 489.422L512.117 492.987C525.073 491.702 538.089 491.111 551.108 491.216C558.978 491.216 590.434 491.776 598.327 491.776C603.102 491.776 606.801 492.001 610.366 492.202C614.843 492.525 619.334 492.607 623.819 492.449C625.859 491.35 627.9 490.207 629.917 489.086V488.391C623.489 489.076 617.011 489.152 610.568 488.615Z" fill="#E7E6ED"></path> <path d="M474.922 471.44L472.231 473.795C487.052 490.835 502.23 509.287 518.374 529.847C519.786 529.735 521.221 529.623 522.634 529.466C505.908 508.099 490.235 489.041 474.922 471.44Z" fill="#E7E6ED"></path> <path d="M570.569 504.937C560.748 504.601 550.569 504.265 540.659 504.265C535.166 504.265 530.211 504.265 525.458 504.579V508.166H526.96C531.22 507.987 535.682 507.919 540.57 507.919C550.435 507.919 560.569 508.256 570.367 508.592C576.891 508.816 583.551 509.04 590.21 509.175C592.721 508.054 595.232 506.933 597.743 505.677C588.753 505.565 579.537 505.251 570.569 504.937Z" fill="#E7E6ED"></path> <path d="M618.954 473.57C624.581 473.772 630.859 474.019 638.908 474.243L639.02 470.656C630.971 470.431 624.716 470.185 619.088 469.983C606.667 469.512 597.676 469.176 579.963 469.176C551.062 469.176 525.301 469.871 501.221 471.283L501.422 474.871C525.435 473.458 551.13 472.763 579.896 472.763C597.608 472.763 606.577 473.1 618.954 473.57Z" fill="#E7E6ED"></path> <path d="M462.164 515.206L459.361 517.448L460.393 518.771C462.075 520.744 463.756 522.807 465.483 524.982C467.389 525.497 469.294 525.991 471.2 526.417C468.083 522.358 465.101 518.659 462.164 515.206Z" fill="#E7E6ED"></path> <path d="M614.828 373.572H536.13V377.16H614.828V373.572Z" fill="#E7E6ED"></path> <path d="M472.231 323.125C487.68 340.883 503.621 360.143 520.414 381.779L525.1 382.228H525.347C507.612 359.425 491.065 339.246 474.922 320.704L472.231 323.125Z" fill="#E7E6ED"></path> <path d="M425.706 436.665C423.533 436.553 421.355 436.553 419.181 436.665C417.163 436.665 414.989 436.777 412.455 436.665C410.13 436.57 407.801 436.622 405.482 436.822L405.863 440.387C408.034 440.227 410.212 440.183 412.388 440.253C414.966 440.253 417.186 440.253 419.271 440.253C421.325 440.141 423.383 440.141 425.437 440.253L425.706 436.665Z" fill="#E7E6ED"></path> <path d="M466.132 342.273L463.531 344.762C473.146 354.918 482.217 365.576 490.706 376.69C492.639 377.395 494.607 378.002 496.602 378.506L494.36 375.546C485.546 363.964 476.123 352.858 466.132 342.273Z" fill="#E7E6ED"></path> <path d="M600.77 418.235C597.004 418.437 584.067 418.235 579.605 418.235C578.327 418.235 577.161 418.235 575.861 418.348C574.202 418.348 572.296 418.549 569.74 418.348L569.605 421.935H571.668C573.394 421.935 574.785 421.935 576.152 421.778C577.52 421.621 578.394 421.643 579.605 421.778C584.089 421.778 597.206 421.98 601.04 421.778L600.77 418.235Z" fill="#E7E6ED"></path> <path d="M639.02 319.988C630.971 319.763 624.716 319.517 619.088 319.315C606.667 318.844 597.676 318.508 579.963 318.508C551.062 318.508 525.301 319.203 501.221 320.615L501.422 324.203C525.435 322.79 551.13 322.095 579.896 322.095C597.541 322.095 606.51 322.431 618.886 322.902C624.514 323.104 630.792 323.351 638.841 323.575L639.02 319.988Z" fill="#E7E6ED"></path> <path d="M606.151 403.236H598.999C587.34 403.124 571.354 402.99 562.071 404.335L562.587 407.878C571.555 406.577 587.407 406.712 598.954 406.824H606.151V403.236Z" fill="#E7E6ED"></path> <path d="M584.336 393.034C592.407 392.173 600.532 391.925 608.64 392.295L608.91 388.707C600.607 388.325 592.287 388.573 584.022 389.447C578.26 389.94 572.273 390.433 566.444 390.433C560.972 390.493 555.511 389.929 550.166 388.752L549.359 392.25C554.968 393.49 560.7 394.084 566.444 394.021C572.43 394.021 578.485 393.505 584.336 393.034Z" fill="#E7E6ED"></path> <path d="M616.443 460.432L619.739 458.997C616.539 453.041 612.004 447.907 606.488 443.997L604.627 447.069C609.507 450.592 613.543 455.157 616.443 460.432Z" fill="#E7E6ED"></path> <path d="M437.03 455.097C438.196 456.823 439.564 458.818 441.515 461.33L444.34 459.087C442.456 456.644 441.134 454.715 439.99 453.034C437.926 449.753 435.463 446.741 432.658 444.065L430.192 446.666C432.812 449.182 435.109 452.014 437.03 455.097Z" fill="#E7E6ED"></path> <path d="M592.318 456.666C594.19 456.817 596.074 456.673 597.901 456.24L596.959 452.742C595.489 453.069 593.976 453.167 592.475 453.034C591.103 452.9 589.722 452.9 588.35 453.034L588.843 456.576C590.001 456.495 591.165 456.525 592.318 456.666Z" fill="#E7E6ED"></path> <path d="M666.466 404.312C660.098 395.344 653.529 386.375 646.825 377.631C643.103 372.81 639.65 368.528 636.265 364.537L633.484 366.779L634.493 368.102C637.52 371.712 640.614 375.568 643.91 379.851C650.636 388.483 657.138 397.608 663.483 406.419C669.829 415.231 676.465 424.491 683.236 433.325C687.026 438.257 690.658 442.719 694.201 446.777L697.025 444.535C693.505 440.387 689.873 435.925 686.062 431.083C679.425 422.316 672.856 413.168 666.466 404.312Z" fill="#E7E6ED"></path> <path d="M610.568 337.969C606.959 337.767 603.192 337.543 598.327 337.543C590.457 337.543 559 336.982 551.108 336.982C537.961 336.874 524.818 337.473 511.736 338.776L512.117 342.341C525.073 341.056 538.089 340.465 551.108 340.569C558.978 340.569 590.434 341.13 598.327 341.13C603.102 341.13 606.801 341.354 610.366 341.556C616.988 342.103 623.648 342.021 630.254 341.31L629.873 337.744C623.459 338.427 616.996 338.502 610.568 337.969Z" fill="#E7E6ED"></path> <path d="M465.078 461.867L467.904 459.625C460.639 450.208 452.411 439.446 442.366 432.137L440.259 435.029C449.877 442.181 457.949 452.741 465.078 461.867Z" fill="#E7E6ED"></path> <path d="M429.182 418.235C425.415 418.437 412.456 418.235 408.016 418.235C406.761 418.235 405.573 418.235 404.272 418.348C402.591 418.348 400.707 418.549 398.129 418.348L398.017 421.935H400.079C401.806 421.935 403.196 421.935 404.563 421.778C405.931 421.621 406.806 421.643 408.016 421.778C412.5 421.778 425.617 421.98 429.451 421.778L429.182 418.235Z" fill="#E7E6ED"></path> <path d="M626.778 353.911C618.931 354.628 610.366 354.964 600.546 354.964C590.726 354.964 580.367 354.628 570.569 354.269C560.771 353.91 550.569 353.597 540.659 353.597C535.166 353.597 530.211 353.597 525.458 353.911V357.498H526.96C531.22 357.319 535.682 357.251 540.57 357.251C550.435 357.251 560.569 357.587 570.367 357.924C580.165 358.26 590.546 358.619 600.456 358.619C610.366 358.619 619.065 358.283 627.002 357.543L626.778 353.911Z" fill="#E7E6ED"></path> <path d="M626.304 387.435L623.465 389.628L676.708 458.567L679.548 456.374L626.304 387.435Z" fill="#E7E6ED"></path> <path d="M485.122 463.145L488.126 461.172C486.758 459.132 485.301 457.069 483.642 454.894C481.983 452.719 475.638 445.455 468.44 437.226C459.472 427.092 449.517 415.59 446.019 411.173L443.172 413.415C446.647 417.899 456.624 429.446 465.593 439.625C472.454 447.473 478.933 454.894 480.66 457.136C482.386 459.378 483.822 461.172 485.122 463.145Z" fill="#E7E6ED"></path> <path d="M642.026 459.692C636.847 452.965 629.067 444.132 622.206 436.329L614.896 428.078L612.184 430.32C614.291 432.764 616.802 435.612 619.448 438.638C626.286 446.396 634.022 455.185 639.134 461.799L642.026 459.692Z" fill="#E7E6ED"></path> <path d="M434.563 403.236H427.411C415.729 403.124 399.766 402.99 390.483 404.335L390.999 407.878C399.967 406.577 415.82 406.712 427.366 406.824H434.563V403.236Z" fill="#E7E6ED"></path> <path d="M458.262 337.745C454.927 338.119 451.574 338.306 448.218 338.306C448.644 339.516 449.092 340.727 449.608 341.893C452.276 341.893 455.191 341.691 458.577 341.31L458.262 337.745Z" fill="#E7E6ED"></path> <path d="M419.832 453.079C418.737 452.955 417.631 452.955 416.536 453.079L417.254 456.599C418.043 456.497 418.841 456.497 419.63 456.599H421.065C422.122 456.624 423.173 456.441 424.159 456.06L422.837 452.742C421.866 453.048 420.846 453.162 419.832 453.079Z" fill="#E7E6ED"></path> <path d="M684.222 396.443C679.02 389.447 673.819 382.452 668.527 375.546C659.726 363.96 650.311 352.853 640.322 342.273L637.721 344.762C647.635 355.244 656.976 366.254 665.702 377.744C671.016 384.627 691.823 412.586 697.092 419.492C701.307 424.962 705.298 429.94 709.132 434.558L711.777 432.137C708.011 427.653 704.087 422.698 699.917 417.317C694.603 410.411 689.401 403.416 684.222 396.443Z" fill="#E7E6ED"></path> <path d="M590.905 440.276C592.959 440.164 595.017 440.164 597.071 440.276L597.295 436.689C595.121 436.576 592.944 436.576 590.77 436.689C588.752 436.689 586.6 436.801 584.044 436.689C581.711 436.593 579.375 436.645 577.049 436.846L577.43 440.411C579.608 440.25 581.793 440.205 583.977 440.276C586.6 440.388 588.82 440.343 590.905 440.276Z" fill="#E7E6ED"></path> <path d="M394.856 390.434C389.376 390.492 383.908 389.928 378.555 388.752L377.748 392.25C383.365 393.489 389.104 394.083 394.856 394.021C400.842 394.021 406.896 393.505 412.792 393.035C420.863 392.173 428.988 391.925 437.096 392.295L437.366 388.707C429.063 388.325 420.743 388.573 412.478 389.447C406.671 389.963 400.685 390.434 394.856 390.434Z" fill="#E7E6ED"></path> <path d="M659.244 463.145L662.248 461.172C660.881 459.11 659.401 457.047 657.764 454.894C653.706 449.648 649.177 444.693 644.805 439.917C640.433 435.142 635.993 430.276 632.024 425.164C628.37 420.411 623.774 415.007 619.424 410.366L616.801 412.81C621.083 417.294 625.589 422.676 629.199 427.339C633.235 432.586 637.764 437.541 642.159 442.339C646.553 447.137 650.97 451.957 654.917 457.092C656.508 459.177 657.943 461.15 659.244 463.145Z" fill="#E7E6ED"></path> <path d="M443.241 373.572H364.543V377.16H443.241V373.572Z" fill="#E7E6ED"></path> <path d="M649.043 320.771L646.353 323.014C663.841 343.193 681.823 365.165 701.329 390.411C708.481 399.649 715.858 409.402 723.75 419.917L726.149 417.159C718.459 406.846 711.194 397.294 704.199 388.214C684.625 363.057 666.599 340.928 649.043 320.771Z" fill="#E7E6ED"></path> <path d="M467.433 319.987C459.384 319.763 445.169 319.225 444.048 319.18C444.048 320.368 444.317 321.579 444.474 322.789C445.415 322.789 459.271 323.35 467.321 323.574L467.433 319.987Z" fill="#E7E6ED"></path> <path d="M553.776 450.276C543.866 439.797 534.526 428.795 525.794 417.317C520.996 411.084 516.31 404.784 511.624 398.483L508.238 399.941C513.104 406.487 517.969 413.035 522.969 419.492C531.771 431.078 541.186 442.185 551.175 452.765L553.776 450.276Z" fill="#E7E6ED"></path> <path d="M398.87 357.857L410.08 358.215L400.125 354.314H399.072C389.251 353.978 379.072 353.642 369.162 353.642H368.153C365.238 354.657 362.404 355.893 359.678 357.341C362.682 357.341 365.821 357.341 369.162 357.341C378.915 357.184 389.072 357.52 398.87 357.857Z" fill="#E7E6ED"></path> <path d="M581.264 456.845C562.229 430.657 546.444 409.447 531.669 390.3L529.001 391.667L528.418 391.936C543.261 411.196 559.157 432.541 578.372 458.975L581.264 456.845Z" fill="#E7E6ED"></path> <path d="M528.081 455.745L530.704 453.301C524.785 446.933 518.687 439.646 512.028 431.037C505.369 422.427 498.71 413.1 492.342 404.311L489.718 400.634C489.217 400.506 488.708 400.409 488.194 400.343L487.858 400.163C486.199 399.266 484.584 398.347 482.947 397.405C485.189 400.41 487.297 403.414 489.45 406.374C495.817 415.342 502.432 424.445 509.203 433.279C515.974 442.113 522.095 449.288 528.081 455.745Z" fill="#E7E6ED"></path> <path d="M440.61 390.262L437.776 392.45L490.911 461.264L493.745 459.076L440.61 390.262Z" fill="#E7E6ED"></path> <path d="M410.864 456.845C391.178 429.738 374.99 407.967 359.766 388.326C354.497 381.6 349.363 374.874 344.318 368.618C343.489 369.515 342.726 370.479 342.076 371.443C346.964 377.616 351.941 383.977 357.008 390.524C372.165 410.142 388.398 431.89 408.061 458.975L410.864 456.845Z" fill="#E7E6ED"></path> <path d="M383.512 450.275C373.602 439.797 364.262 428.795 355.53 417.316C350.216 410.411 335.687 390.882 333.602 388.169L333.132 389.447C332.773 390.389 332.481 391.331 332.212 392.295C333.781 394.537 347.346 412.653 352.705 419.558C361.507 431.145 370.922 442.252 380.91 452.831L383.512 450.275Z" fill="#E7E6ED"></path> <path d="M335.238 422.384C338.067 428.748 341.847 434.645 346.449 439.872C350.709 444.715 354.924 449.625 359.318 454.334L360.417 453.302C354.498 446.912 348.377 439.626 341.74 431.038C339.558 428.198 337.391 425.313 335.238 422.384Z" fill="#E7E6ED"></path> <g style="mix-blend-mode:multiply"> <path d="M689.243 370.995C688.481 353.484 677.652 340.121 664.917 329.247C650.141 316.602 632.271 303.934 613.169 298.889C604.474 296.612 595.251 297.537 587.183 301.497C579.115 305.457 572.74 312.187 569.223 320.458C561.488 338.776 569.38 355.682 584.47 366.982C591.538 371.95 599.151 376.095 607.16 379.336C604.312 380.972 601.51 382.631 598.64 384.223C581.847 393.595 564.672 402.16 547.654 411.129C539.493 415.433 531.466 420.097 523.327 424.357C519.045 426.599 513.261 431.083 508.44 431.397C500.234 432.07 490.503 425.523 482.364 424.671C473.755 423.707 465.145 423.617 457.32 427.743C454.952 429.159 453.109 431.308 452.07 433.864C451.03 436.42 450.85 439.246 451.558 441.913C455.369 456.845 470.773 466.464 483.822 472.473C499.517 479.737 516.713 482.786 533.664 477.697C564.538 468.392 594.2 452.832 622.653 438.012C650.074 423.729 690.857 408.057 689.243 370.995Z" fill="#D7DCE0"></path> </g> <path d="M112.979 358.978C112.39 358.976 111.811 358.821 111.298 358.529L63.3396 330.839C62.5665 330.393 62.0025 329.659 61.7713 328.797C61.54 327.935 61.6603 327.016 62.1063 326.243C62.5523 325.47 63.2872 324.906 64.1491 324.674C65.0111 324.443 65.9297 324.564 66.7027 325.01L109.616 349.673V244.631C109.616 243.739 109.971 242.883 110.602 242.253C111.232 241.622 112.087 241.268 112.979 241.268C113.871 241.268 114.727 241.622 115.358 242.253C115.989 242.883 116.343 243.739 116.343 244.631V355.503C116.341 356.093 116.185 356.672 115.89 357.184C115.595 357.695 115.171 358.12 114.661 358.417C114.159 358.748 113.579 358.942 112.979 358.978Z" fill="#3A3A3A"></path> <path d="M256.945 442.115C256.363 442.109 255.792 441.955 255.286 441.666L207.305 413.976C206.796 413.677 206.374 413.252 206.079 412.741C205.784 412.23 205.627 411.651 205.623 411.062V300.279C205.623 299.387 205.978 298.532 206.608 297.901C207.239 297.27 208.094 296.916 208.986 296.916C209.878 296.916 210.734 297.27 211.365 297.901C211.995 298.532 212.349 299.387 212.349 300.279V409.2L258.649 435.926C259.293 436.297 259.796 436.87 260.079 437.557C260.363 438.244 260.411 439.005 260.217 439.722C260.022 440.439 259.596 441.072 259.004 441.521C258.412 441.97 257.688 442.21 256.945 442.204V442.115Z" fill="#3A3A3A"></path> <path d="M161.992 442.002C161.1 442.002 160.245 441.647 159.614 441.017C158.983 440.386 158.629 439.531 158.629 438.639V272.992C158.629 272.1 158.983 271.245 159.614 270.614C160.245 269.983 161.1 269.629 161.992 269.629C162.884 269.629 163.739 269.983 164.37 270.614C165.001 271.245 165.355 272.1 165.355 272.992V438.639C165.355 439.531 165.001 440.386 164.37 441.017C163.739 441.647 162.884 442.002 161.992 442.002Z" fill="#3A3A3A"></path> <path d="M59.7052 338.148C57.5911 338.098 55.5271 337.495 53.719 336.399C50.4284 334.263 47.6949 331.373 45.7452 327.969C43.7955 324.564 42.6857 320.744 42.5085 316.825C42.2618 315.025 42.557 313.193 43.3559 311.561C44.1547 309.929 45.4209 308.572 46.9938 307.663C48.5667 306.754 50.3748 306.334 52.1874 306.456C54.0001 306.579 55.7354 307.238 57.1719 308.35C60.4626 310.486 63.196 313.376 65.1457 316.78C67.0955 320.184 68.2053 324.004 68.3824 327.924C68.5162 329.709 68.1712 331.499 67.3829 333.107C66.5947 334.715 65.3918 336.083 63.8982 337.071C62.6201 337.794 61.1733 338.165 59.7052 338.148ZM51.0959 313.327C50.8084 313.312 50.5217 313.374 50.2661 313.507C49.8364 313.936 49.5119 314.459 49.3175 315.035C49.123 315.611 49.0638 316.223 49.145 316.825C49.3249 319.572 50.1345 322.239 51.5108 324.623C52.8872 327.006 54.7934 329.041 57.0822 330.569C57.497 331.011 58.0499 331.298 58.6499 331.384C59.2498 331.47 59.861 331.349 60.3829 331.041C60.9049 330.733 61.3064 330.257 61.5215 329.69C61.7366 329.123 61.7525 328.5 61.5664 327.924C61.3865 325.177 60.5769 322.509 59.2006 320.126C57.8242 317.743 55.918 315.708 53.6292 314.179C52.865 313.697 51.9964 313.405 51.0959 313.327Z" fill="#3A3A3A"></path> <path d="M270.89 460.074C268.767 460.015 266.695 459.405 264.88 458.302C261.593 456.169 258.861 453.282 256.912 449.882C254.962 446.482 253.851 442.666 253.67 438.751C253.428 436.955 253.725 435.127 254.523 433.5C255.321 431.873 256.584 430.519 258.153 429.611C259.722 428.703 261.524 428.282 263.333 428.4C265.142 428.519 266.874 429.171 268.311 430.276C271.602 432.412 274.336 435.302 276.285 438.706C278.235 442.11 279.344 445.93 279.521 449.85C279.651 451.635 279.304 453.422 278.516 455.029C277.728 456.637 276.527 458.006 275.037 458.997C273.772 459.712 272.343 460.083 270.89 460.074ZM262.28 435.253C261.992 435.236 261.705 435.298 261.451 435.433C261.021 435.862 260.696 436.385 260.501 436.961C260.307 437.536 260.248 438.149 260.329 438.751C260.507 441.496 261.313 444.162 262.685 446.545C264.057 448.929 265.959 450.964 268.244 452.495C268.73 452.864 269.294 453.116 269.892 453.233C270.491 453.349 271.108 453.327 271.697 453.168C272.126 452.738 272.451 452.216 272.646 451.64C272.84 451.064 272.899 450.452 272.818 449.85C272.638 447.103 271.829 444.435 270.452 442.052C269.076 439.669 267.169 437.634 264.88 436.105C264.099 435.607 263.205 435.313 262.28 435.253Z" fill="#3A3A3A"></path> <path d="M166.206 465.521C164.091 465.475 162.026 464.872 160.22 463.772C156.929 461.637 154.195 458.747 152.246 455.342C150.296 451.938 149.186 448.118 149.009 444.199C148.768 442.401 149.066 440.571 149.867 438.943C150.668 437.316 151.935 435.963 153.507 435.056C155.079 434.15 156.884 433.732 158.695 433.855C160.505 433.978 162.237 434.636 163.672 435.746C166.96 437.88 169.692 440.766 171.641 444.166C173.591 447.566 174.702 451.382 174.883 455.297C175.014 457.083 174.668 458.871 173.88 460.479C173.092 462.086 171.891 463.455 170.399 464.445C169.121 465.167 167.674 465.539 166.206 465.521ZM157.596 440.701C157.31 440.695 157.025 440.756 156.767 440.88C156.337 441.31 156.012 441.833 155.818 442.408C155.624 442.984 155.564 443.597 155.646 444.199C155.825 446.945 156.635 449.613 158.011 451.997C159.388 454.38 161.294 456.414 163.583 457.943C164.061 458.317 164.621 458.573 165.217 458.69C165.813 458.807 166.429 458.782 167.013 458.616C167.708 458.212 168.134 456.956 168.134 455.297C167.957 452.553 167.151 449.886 165.779 447.503C164.406 445.12 162.504 443.084 160.22 441.553C159.403 441.043 158.469 440.749 157.507 440.701H157.596Z" fill="#3A3A3A"></path> <path d="M643.796 319.426V389.491L497.746 473.817V403.751L643.796 319.426Z" fill="#3A3A3A"></path> <path d="M643.796 319.427L497.746 403.752L351.673 319.427L497.746 235.102L643.796 319.427Z" fill="white"></path> <path d="M497.746 403.751V473.817L351.673 389.491V319.426L497.746 403.751Z" fill="#D7DCE0"></path> <path d="M497.746 477.181C497.156 477.178 496.577 477.024 496.064 476.732C495.554 476.435 495.131 476.01 494.836 475.499C494.541 474.987 494.385 474.408 494.383 473.818V403.752C494.387 403.162 494.544 402.583 494.839 402.073C495.134 401.562 495.556 401.136 496.064 400.837L642.115 316.512C642.625 316.214 643.205 316.058 643.796 316.058C644.387 316.058 644.967 316.214 645.478 316.512C645.988 316.809 646.412 317.234 646.707 317.745C647.002 318.257 647.158 318.836 647.159 319.427V389.492C647.155 390.082 646.998 390.661 646.703 391.172C646.409 391.683 645.986 392.108 645.478 392.407L499.428 476.732C498.915 477.024 498.336 477.178 497.746 477.181ZM501.109 405.703V467.988L640.433 387.542V325.256L501.109 405.703Z" fill="#3A3A3A"></path> <path d="M497.746 477.181C497.156 477.184 496.576 477.029 496.065 476.733L350.015 392.407C349.503 392.112 349.078 391.687 348.783 391.175C348.488 390.664 348.333 390.083 348.333 389.493V319.427C348.333 318.836 348.487 318.256 348.782 317.744C349.077 317.233 349.502 316.808 350.013 316.513C350.525 316.217 351.105 316.062 351.696 316.062C352.286 316.061 352.866 316.217 353.378 316.512L499.428 400.837C499.811 401.058 500.146 401.352 500.416 401.703C500.685 402.053 500.882 402.453 500.996 402.88C501.111 403.307 501.14 403.752 501.083 404.19C501.025 404.629 500.882 405.051 500.661 405.434C500.44 405.817 500.146 406.152 499.796 406.421C499.445 406.69 499.045 406.888 498.618 407.002C498.192 407.117 497.747 407.146 497.309 407.089C496.87 407.031 496.448 406.888 496.065 406.667L355.059 325.256V387.542L499.428 470.903C500.07 471.273 500.573 471.844 500.857 472.529C501.141 473.213 501.191 473.972 500.999 474.688C500.807 475.404 500.385 476.036 499.796 476.487C499.208 476.938 498.488 477.182 497.746 477.181Z" fill="#3A3A3A"></path> <path d="M351.695 322.701C350.954 322.701 350.233 322.458 349.645 322.007C349.057 321.556 348.634 320.923 348.443 320.208C348.251 319.492 348.301 318.733 348.585 318.048C348.869 317.364 349.371 316.792 350.014 316.423L496.064 232.097C496.578 231.811 497.157 231.66 497.746 231.66C498.334 231.66 498.913 231.811 499.427 232.097L645.477 316.423C646.25 316.869 646.815 317.604 647.046 318.466C647.278 319.327 647.157 320.246 646.711 321.019C646.265 321.792 645.53 322.356 644.668 322.588C643.806 322.819 642.887 322.698 642.114 322.252L497.746 238.891L353.377 322.252C352.862 322.538 352.284 322.692 351.695 322.701Z" fill="#3A3A3A"></path> <path d="M384.43 276.714C385.147 281.795 385.514 286.919 385.529 292.05C385.529 316.018 376.942 332.677 363.108 340.099L304.343 371.645C314.499 366.017 321.742 355.367 324.791 340.502C325.857 335.006 326.383 329.419 326.36 323.821C326.36 277.006 293.513 220.056 252.976 196.649C250.286 195.102 247.617 193.756 244.994 192.546C239.299 137.143 200.802 74.6111 154.122 47.661C145.651 42.6161 136.445 38.9245 126.836 36.7196C113.383 33.76 101.388 35.0604 91.4326 40.0827L149.727 8.82793C166.207 -0.140481 188.628 1.60843 213.38 15.913C260.038 42.8183 298.58 105.373 304.23 160.798C306.957 162.019 309.614 163.388 312.19 164.901C331.136 175.82 348.445 194.048 361.516 215.258C373.243 233.977 381.04 254.887 384.43 276.714Z" fill="#D7DCE0"></path> <path d="M326.339 323.821C326.362 329.419 325.837 335.006 324.77 340.502C321.721 355.367 314.478 366.017 304.322 371.645L303.918 371.869C296.75 375.571 288.624 377.002 280.622 375.972C273.522 375.122 266.612 373.099 260.175 369.986C257.798 368.865 255.377 367.744 252.955 366.219L66.2553 258.441C31.5252 238.374 3.36426 189.609 3.36426 149.542C3.36426 110.754 29.6642 94.2747 62.8249 111.427C62.8419 111.437 62.861 111.442 62.8807 111.442C62.9004 111.442 62.92 111.437 62.9371 111.427V110.62C62.668 107.256 62.5331 103.893 62.5331 100.575C62.5331 70.6878 73.2728 49.8809 90.5369 40.621L91.479 40.1053C101.434 35.083 113.497 33.7826 126.882 36.7422C136.491 38.9472 145.697 42.6388 154.168 47.6837C200.849 74.5889 239.368 137.166 245.041 192.568C247.664 193.779 250.332 195.124 253.023 196.672C293.493 220.057 326.339 277.006 326.339 323.821Z" fill="white"></path> <path d="M285.711 379.604C283.891 379.605 282.072 379.508 280.263 379.312C272.788 378.434 265.513 376.312 258.738 373.034C256.362 371.913 96.5899 279.808 64.5727 261.355C28.9681 240.773 0 190.617 0 149.542C0 129.363 6.88306 113.937 19.4164 106.314C30.2682 99.5876 44.2589 99.5875 59.2137 105.933C59.2137 104.139 59.2137 102.346 59.2137 100.552C59.2137 70.2835 69.7965 47.9296 88.9889 37.6383L89.9085 37.1227C90.6934 36.6945 91.6164 36.5956 92.4741 36.8479C93.3319 37.1002 94.0538 37.683 94.4819 38.4679C94.9101 39.2528 95.009 40.1757 94.7567 41.0335C94.5044 41.8913 93.9219 42.6137 93.137 43.0419L92.1955 43.5575C75.2452 52.5259 65.94 72.8843 65.94 100.552C65.94 103.848 66.0749 107.121 66.3216 110.327V111.157C66.3503 111.618 66.2857 112.08 66.1316 112.515C65.9775 112.951 65.7367 113.35 65.4244 113.691C64.8879 114.236 64.1876 114.591 63.4303 114.7C62.673 114.81 61.9008 114.668 61.2319 114.296C46.5238 106.74 32.9364 105.955 22.9367 112.054C12.4885 118.421 6.74875 131.739 6.74875 149.542C6.74875 188.487 34.2146 236.02 67.9582 255.526C133.54 293.328 258.537 365.389 261.698 366.981C267.776 369.918 274.3 371.827 281.003 372.631C288.331 373.602 295.781 372.303 302.348 368.909L302.706 368.707C303.484 368.295 304.391 368.204 305.235 368.454C306.078 368.703 306.791 369.273 307.219 370.042C307.647 370.81 307.757 371.716 307.525 372.564C307.294 373.413 306.739 374.137 305.98 374.582L305.576 374.806C299.461 378.045 292.63 379.695 285.711 379.604Z" fill="#3A3A3A"></path> <path d="M304.32 375.008C303.575 375.008 302.852 374.761 302.263 374.305C301.674 373.85 301.253 373.211 301.066 372.491C300.879 371.77 300.936 371.008 301.229 370.323C301.521 369.639 302.033 369.071 302.683 368.708C312.189 363.439 318.669 353.462 321.472 339.83C322.487 334.555 322.991 329.193 322.974 323.821C322.974 278.127 290.8 222.388 251.227 199.564C248.828 198.196 246.317 196.896 243.514 195.596C242.984 195.351 242.526 194.972 242.188 194.496C241.849 194.02 241.642 193.464 241.586 192.882C235.913 137.861 197.573 76.6743 152.372 50.5762C144.208 45.7096 135.335 42.1467 126.073 40.016C113.741 37.2806 102.261 38.3568 92.8893 43.0876C92.0984 43.5009 91.1757 43.5829 90.3242 43.3159C89.4728 43.0489 88.7625 42.4548 88.3493 41.6639C87.936 40.873 87.854 39.9503 88.121 39.0988C88.388 38.2474 88.9822 37.5369 89.773 37.1236L148.068 5.86853C166.296 -3.92946 190.062 -1.39576 214.994 12.9985C261.361 39.7468 300.755 102.033 307.302 158.533C309.544 159.565 311.629 160.775 313.804 162.009C332.548 172.793 350.462 191.156 364.251 213.577C376.244 232.701 384.237 254.057 387.748 276.356C388.489 281.555 388.871 286.799 388.892 292.051C388.892 316.579 380.282 334.65 364.677 343.058L305.911 374.605C305.421 374.866 304.875 375.005 304.32 375.008ZM248.11 190.416C250.352 191.537 252.595 192.658 254.635 193.847C296.024 217.747 329.7 276.109 329.7 323.889C329.716 329.705 329.168 335.509 328.064 341.22C326.898 347.264 324.795 353.089 321.831 358.484L361.493 337.206C374.834 330.054 382.165 314.046 382.165 292.118C382.151 287.144 381.792 282.177 381.089 277.253C377.711 255.88 370.03 235.415 358.511 217.097C345.305 195.618 328.22 178.129 310.441 167.883C307.967 166.428 305.414 165.11 302.795 163.937C302.253 163.697 301.785 163.317 301.438 162.837C301.091 162.356 300.879 161.791 300.822 161.201C295.149 106.158 256.809 44.9709 211.631 18.8953C188.806 5.68929 167.35 3.20053 151.251 11.855L113.943 31.8771C118.516 31.9606 123.068 32.509 127.53 33.5138C137.471 35.7613 147.003 39.5434 155.78 44.7243C202.169 71.5847 241.585 133.803 248.11 190.416Z" fill="#3A3A3A"></path> <path d="M535.503 185.932V310.727C535.503 316.332 531.825 321.938 524.426 326.175C509.673 334.695 485.795 334.695 471.042 326.175C463.643 321.915 459.966 316.332 459.966 310.727V185.932C459.966 191.514 463.643 197.142 471.042 201.335C485.795 209.855 509.673 209.855 524.426 201.335C531.78 197.142 535.503 191.582 535.503 185.932Z" fill="#3FAAF0"></path> <path d="M524.426 170.596C531.78 174.856 535.503 180.416 535.503 185.999C535.503 191.582 531.78 197.21 524.426 201.403C509.673 209.923 485.795 209.923 471.042 201.403C463.643 197.143 459.966 191.582 459.966 185.999C459.966 180.416 463.643 174.789 471.042 170.596C485.795 162.076 509.673 162.076 524.426 170.596Z" fill="white"></path> <path d="M497.745 211.201C487.85 211.376 478.076 209.006 469.361 204.317C461.132 199.586 456.603 193.107 456.603 185.999C456.603 178.892 461.087 172.367 469.383 167.659C485.279 158.489 510.211 158.489 526.108 167.659C534.336 172.412 538.866 178.87 538.866 185.977C538.866 193.084 534.381 199.429 526.13 204.295C517.415 208.988 507.642 211.366 497.745 211.201ZM497.745 167.525C489.031 167.354 480.418 169.415 472.724 173.511C466.648 176.964 463.329 181.403 463.329 185.999C463.329 190.596 466.67 194.968 472.724 198.488C486.513 206.47 508.956 206.447 522.745 198.488C528.798 194.99 532.139 190.551 532.139 185.999C532.139 181.448 528.798 177.031 522.745 173.488C515.054 169.408 506.45 167.355 497.745 167.525Z" fill="#3A3A3A"></path> <path d="M497.745 336.152C487.85 336.328 478.076 333.958 469.361 329.269C461.132 324.516 456.603 318.059 456.603 310.906V185.932C456.603 185.04 456.957 184.184 457.588 183.553C458.219 182.923 459.074 182.568 459.966 182.568C460.858 182.568 461.713 182.923 462.344 183.553C462.975 184.184 463.329 185.04 463.329 185.932V310.727C463.329 315.211 466.67 319.695 472.724 323.26C486.513 331.22 508.956 331.22 522.745 323.26C528.798 319.763 532.139 315.323 532.139 310.727V185.932C532.139 185.04 532.493 184.184 533.124 183.553C533.755 182.923 534.611 182.568 535.503 182.568C536.395 182.568 537.25 182.923 537.88 183.553C538.511 184.184 538.866 185.04 538.866 185.932V310.727C538.866 317.834 534.381 324.336 526.108 329.09C517.416 333.838 507.649 336.27 497.745 336.152Z" fill="#3A3A3A"></path> </svg> 