<?xml version="1.0" encoding="UTF-8"?> <svg xmlns="http://www.w3.org/2000/svg" width="530" height="358" viewBox="0 0 530 358" fill="none"> <path d="M465.527 202.382C463.077 202.26 460.627 202.088 457.171 202.088C451.805 202.088 430.215 201.696 424.898 201.696C415.896 201.619 406.898 202.036 397.942 202.946L398.187 205.396C407.038 204.511 415.93 204.101 424.824 204.171C430.215 204.171 451.78 204.563 457.098 204.563C460.357 204.563 462.881 204.71 465.307 204.857C469.827 205.232 474.372 205.183 478.883 204.71L478.638 202.26C474.281 202.707 469.892 202.748 465.527 202.382Z" fill="#E0DFE6"></path> <path d="M390.981 193.046C407.375 192.09 424.921 191.624 444.623 191.624C456.68 191.624 462.782 191.845 471.261 192.163C475.108 192.31 479.396 192.482 484.885 192.629V190.178C479.396 190.031 475.083 189.86 471.261 189.713C462.782 189.394 456.557 189.174 444.55 189.174C424.799 189.174 407.204 189.639 390.638 190.62L390.981 193.046Z" fill="#E0DFE6"></path> <path d="M323.813 204.342C329.18 204.342 334.571 204.539 339.962 204.539C343.197 204.539 345.721 204.686 348.171 204.833C352.691 205.207 357.236 205.158 361.747 204.686L361.502 202.235C357.122 202.695 352.708 202.744 348.318 202.382C345.868 202.26 343.27 202.088 339.962 202.088C334.571 202.088 313.006 201.696 307.689 201.696C298.687 201.62 289.689 202.037 280.733 202.946L281.003 205.396C289.853 204.51 298.745 204.101 307.64 204.171C313.08 204.146 318.446 204.244 323.813 204.342Z" fill="#E0DFE6"></path> <path d="M291.27 215.738C294.162 215.616 297.225 215.567 300.557 215.567C307.296 215.567 314.207 215.787 320.922 216.032C327.636 216.277 334.644 216.498 341.457 216.498C348.269 216.498 354.175 216.253 359.591 215.763L359.37 213.312C354.028 213.802 348.171 214.023 341.457 214.023C334.742 214.023 327.709 213.778 320.995 213.557C314.28 213.337 307.321 213.092 300.557 213.092C296.808 213.092 293.426 213.092 290.167 213.312V215.763L291.27 215.738Z" fill="#E0DFE6"></path> <path d="M468.444 226.716H414.679V229.166H468.444V226.716Z" fill="#E0DFE6"></path> <path d="M330.381 239.998C335.899 239.414 341.453 239.25 346.995 239.508L347.167 237.057C341.502 236.799 335.825 236.962 330.185 237.547C326.239 237.89 322.171 238.233 318.177 238.233C314.437 238.27 310.705 237.884 307.052 237.082L306.488 239.532C310.324 240.394 314.246 240.805 318.177 240.757C322.269 240.684 326.387 240.341 330.381 239.998Z" fill="#E0DFE6"></path> <path d="M453.054 283.471C454.336 283.578 455.627 283.479 456.877 283.177L456.191 280.726C455.194 280.947 454.169 281.013 453.152 280.922C452.215 280.838 451.271 280.838 450.334 280.922L450.701 283.373C451.487 283.332 452.274 283.365 453.054 283.471Z" fill="#E0DFE6"></path> <path d="M351.21 226.716H297.446V229.166H351.21V226.716Z" fill="#E0DFE6"></path> <path d="M340.378 249.407H345.279V246.956H340.378C331.965 246.675 323.543 246.92 315.162 247.692L315.505 250.142C323.773 249.393 332.08 249.147 340.378 249.407Z" fill="#E0DFE6"></path> <path d="M469.546 286.166L471.8 285.185C469.606 281.119 466.503 277.614 462.733 274.942L461.459 277.025C464.8 279.434 467.562 282.556 469.546 286.166Z" fill="#E0DFE6"></path> <path d="M447.615 239.998C453.124 239.414 458.67 239.25 464.205 239.508L464.401 237.057C458.727 236.798 453.043 236.962 447.394 237.547C443.449 237.89 439.381 238.234 435.386 238.234C431.646 238.269 427.914 237.883 424.261 237.082L423.697 239.532C427.533 240.394 431.456 240.805 435.386 240.758C439.479 240.684 443.62 240.341 447.615 239.998Z" fill="#E0DFE6"></path> <path d="M362.239 222.085L362.949 222.992C365.032 225.442 367.139 228.089 369.394 231.005C373.952 236.91 378.436 243.135 382.749 249.163C387.062 255.191 391.62 261.416 396.252 267.493C400.883 273.57 405.073 278.447 409.166 282.858L410.955 281.191C406.912 276.854 402.746 271.855 398.188 265.998C393.63 260.141 389.096 253.746 384.759 247.717C380.421 241.689 375.912 235.465 371.33 229.51C368.879 226.226 366.429 223.286 364.125 220.566L362.239 222.085Z" fill="#E0DFE6"></path> <path d="M357.33 236.134L355.391 237.632L391.76 284.721L393.699 283.224L357.33 236.134Z" fill="#E0DFE6"></path> <path d="M365.08 207.038C371.857 214.191 378.238 221.709 384.194 229.559C387.846 234.264 402.034 253.353 405.686 258.083C411.692 266.003 418.13 273.587 424.971 280.799L426.735 279.108C419.959 271.955 413.578 264.437 407.621 256.588C403.994 251.883 389.782 232.769 386.13 228.064C380.131 220.145 373.701 212.561 366.869 205.347L365.08 207.038Z" fill="#E0DFE6"></path> <path d="M273.626 190.595V193.045C290.045 192.09 307.591 191.624 327.293 191.624C339.35 191.624 345.451 191.845 353.906 192.163C357.753 192.31 362.041 192.482 367.555 192.629V190.178C362.066 190.031 357.753 189.86 353.93 189.713C345.451 189.394 339.227 189.173 327.219 189.173C307.664 189.1 290.143 189.566 273.626 190.595Z" fill="#E0DFE6"></path> <path d="M344.054 274.967L342.364 276.756C344.14 278.437 345.704 280.33 347.02 282.392C347.828 283.593 348.759 284.842 350.083 286.656L352.019 285.161C350.744 283.495 349.838 282.171 349.054 281.019C347.638 278.807 345.959 276.775 344.054 274.967Z" fill="#E0DFE6"></path> <path d="M366.109 287.023L368.045 285.528C363.113 278.512 357.251 272.198 350.621 266.757L349.151 268.742C355.605 274.04 361.31 280.19 366.109 287.023Z" fill="#E0DFE6"></path> <path d="M368.412 270.189C362.36 263.254 355.498 255.485 353.195 252.398L351.234 253.893C353.685 256.956 360.497 264.846 366.574 271.806C371.255 277.173 375.691 282.221 376.867 283.764C378.043 285.308 378.95 286.558 379.832 287.906L381.89 286.558C380.959 285.161 379.955 283.74 378.803 282.27C377.651 280.799 373.46 275.825 368.412 270.189Z" fill="#E0DFE6"></path> <path d="M371.011 192.261C382.969 205.984 395.271 221.055 408.577 238.282C418.943 251.711 430.019 266.561 443.448 285.038L445.433 283.592C431.98 265.091 420.928 250.216 410.513 236.787C397.182 219.511 384.856 204.416 372.873 190.644L371.011 192.261Z" fill="#E0DFE6"></path> <path d="M330.184 272.32C331.948 272.32 333.443 272.32 334.865 272.32C336.277 272.247 337.692 272.247 339.104 272.32L339.251 269.87C337.683 269.87 336.286 269.87 334.791 269.87C333.296 269.87 331.924 269.87 330.233 269.87C328.642 269.759 327.046 269.759 325.455 269.87L325.724 272.32C327.21 272.233 328.699 272.233 330.184 272.32Z" fill="#E0DFE6"></path> <path d="M324.745 259.749C325.578 259.749 326.313 259.749 327.196 259.749C330.283 259.749 339.228 259.872 341.899 259.749L341.752 257.299C339.301 257.421 330.357 257.299 327.294 257.299C326.436 257.299 325.627 257.299 324.843 257.299C324.059 257.299 322.392 257.446 320.653 257.299V259.749H322.049C322.907 259.847 323.863 259.798 324.745 259.749Z" fill="#E0DFE6"></path> <path d="M488.905 272.027C485.939 268.792 482.876 265.435 480.181 261.955C477.485 258.475 474.52 255.02 471.555 251.834L469.766 253.501C472.682 256.637 475.77 260.264 478.245 263.45C480.989 267.027 484.102 270.409 487.091 273.668C490.081 276.928 493.12 280.26 495.815 283.764C496.918 285.186 497.874 286.534 498.78 287.906L500.814 286.558C499.883 285.137 498.878 283.74 497.751 282.27C494.982 278.814 491.894 275.31 488.905 272.027Z" fill="#E0DFE6"></path> <path d="M518.36 222.624C511.671 214.218 505.201 206.352 498.756 198.878C497.114 197.555 495.448 196.231 493.684 194.982C492.508 194.149 491.233 193.34 490.106 192.531C500.276 204.245 510.715 216.914 521.816 231.078C520.86 228.184 519.706 225.359 518.36 222.624Z" fill="#E0DFE6"></path> <path d="M503.142 229.559C506.769 234.264 527.255 261.415 528.505 263.033C527.824 260.603 527.006 258.214 526.054 255.877C522.599 251.393 508.754 232.769 505.102 228.064C499.102 220.138 492.664 212.554 485.817 205.347L484.052 207.038C490.821 214.192 497.194 221.71 503.142 229.559Z" fill="#E0DFE6"></path> <path d="M476.605 213.287C471.238 213.777 465.381 213.997 458.691 213.997C452.002 213.997 444.944 213.752 438.205 213.532C431.466 213.311 424.555 213.066 417.768 213.066C414.018 213.066 410.637 213.066 407.377 213.287V215.737H408.407C411.323 215.615 414.362 215.566 417.694 215.566C424.433 215.566 431.368 215.786 438.058 216.031C444.748 216.276 451.781 216.497 458.618 216.497C465.455 216.497 471.312 216.252 476.752 215.762L476.605 213.287Z" fill="#E0DFE6"></path> <path d="M335.282 281.019C334.533 280.921 333.775 280.921 333.027 281.019L333.517 283.469C334.054 283.408 334.597 283.408 335.135 283.469H336.115C336.842 283.478 337.564 283.353 338.247 283.102L337.34 280.823C336.673 281.019 335.974 281.086 335.282 281.019Z" fill="#E0DFE6"></path> <path d="M462.512 246.956H457.611C449.198 246.675 440.777 246.92 432.395 247.692L432.762 250.142C441.015 249.402 449.305 249.165 457.586 249.432H462.487L462.512 246.956Z" fill="#E0DFE6"></path> <path d="M468.591 240.091L466.655 241.586L502.949 288.59L504.885 287.095L468.591 240.091Z" fill="#E0DFE6"></path> <path d="M487.018 285.528C483.49 280.946 478.172 274.918 473.491 269.575C471.678 267.517 469.963 265.581 468.59 263.915L466.728 265.532C468.174 267.198 469.865 269.134 471.629 271.193C476.285 276.486 481.431 282.514 485.058 287.023L487.018 285.528Z" fill="#E0DFE6"></path> <path d="M456.313 272.271L456.46 269.821C454.916 269.821 453.495 269.821 452 269.821C450.505 269.821 449.157 269.821 447.442 269.821C445.859 269.709 444.271 269.709 442.688 269.821L442.933 272.271C444.418 272.184 445.908 272.184 447.393 272.271C449.158 272.271 450.677 272.271 452.098 272.271C453.502 272.198 454.909 272.198 456.313 272.271Z" fill="#E0DFE6"></path> <path d="M481.284 222.085L481.995 222.992C484.078 225.442 486.185 228.089 488.44 231.005C492.998 236.91 497.482 243.135 501.795 249.163C506.108 255.191 510.666 261.416 515.297 267.493C519.929 273.57 524.095 278.447 528.212 282.858L530 281.191C525.933 276.83 521.767 271.855 517.233 265.998C512.7 260.141 508.142 253.746 503.78 247.717C499.418 241.689 494.958 235.465 490.375 229.51C487.925 226.226 485.474 223.286 483.171 220.566L481.284 222.085Z" fill="#E0DFE6"></path> <path d="M458.837 257.225C456.387 257.348 447.418 257.225 444.379 257.225C443.497 257.225 442.713 257.225 441.929 257.225C441.144 257.225 439.478 257.372 437.763 257.225V259.676H439.184C440.36 259.676 441.316 259.676 442.174 259.676C443.032 259.676 443.742 259.676 444.624 259.676C447.712 259.676 456.657 259.798 459.328 259.676L458.837 257.225Z" fill="#E0DFE6"></path> <path d="M139.607 71.745L136.74 72.186C139.19 74.8816 140.906 77.0871 141.641 77.9203C142.744 79.3416 143.724 80.7139 144.606 82.0617L146.664 80.7139C145.733 79.3171 144.728 77.8958 143.577 76.4255C142.915 75.6168 141.494 73.9259 139.607 71.745Z" fill="#E0DFE6"></path> <path d="M132.819 79.6844C131.422 77.871 129.952 75.9841 128.433 74.0972L125.982 74.8569C127.697 76.9888 129.364 79.1208 130.883 81.1792L132.819 79.6844Z" fill="#E0DFE6"></path> <path d="M114.782 80.8101L116.716 79.3165L116.422 78.9247C115.688 79.292 114.953 79.6838 114.243 80.1L114.782 80.8101Z" fill="#E0DFE6"></path> <path d="M189.671 74.9545L191.46 73.2636L190.48 72.2345L186.853 71.9403L189.671 74.9545Z" fill="#E0DFE6"></path> <path d="M173.939 76.9892L175.729 75.3228C174.503 73.9995 173.278 72.6027 171.979 71.1569C170.901 71.1569 169.798 71.1569 168.72 71.1569C170.484 73.1663 172.224 75.1513 173.939 76.9892Z" fill="#E0DFE6"></path> <path d="M217.804 77.6256C219.077 77.7337 220.36 77.6344 221.602 77.3315L221.185 75.8367C219.617 75.5672 218.024 75.3711 216.456 75.1506C215.999 75.1149 215.54 75.1149 215.083 75.1506L215.427 77.6011C216.218 77.5365 217.014 77.5446 217.804 77.6256Z" fill="#E0DFE6"></path> <path d="M156.492 78.753L158.428 77.2582L153.527 71.0338H150.464L156.492 78.753Z" fill="#E0DFE6"></path> <path d="M208.197 79.1942L210.182 77.7484L207.389 73.9256L204.08 73.558L208.197 79.1942Z" fill="#E0DFE6"></path> <path d="M234.294 80.3199L236.546 79.3405L236.154 78.6059L232.898 77.9694C233.443 78.7029 233.91 79.4906 234.294 80.3199Z" fill="#E0DFE6"></path> <path d="M233.683 239.773L231.747 241.268L268.042 288.272L269.978 286.777L233.683 239.773Z" fill="#E0DFE6"></path> <path d="M135.759 192.261C147.718 205.984 160.019 221.055 173.326 238.282C183.691 251.711 194.768 266.561 208.197 285.038L210.182 283.592C196.728 265.091 185.676 250.216 175.262 236.787C161.931 219.511 149.605 204.416 137.622 190.644L135.759 192.261Z" fill="#E0DFE6"></path> <path d="M113.067 202.382C110.616 202.26 108.019 202.088 104.711 202.088C99.3195 202.088 77.7551 201.696 72.4374 201.696C63.4361 201.62 54.4373 202.037 45.4817 202.946L45.7512 205.396C54.6018 204.51 63.4937 204.101 72.3884 204.171C77.7795 204.171 99.3442 204.563 104.662 204.563C107.897 204.563 110.421 204.71 112.871 204.857C117.391 205.232 121.936 205.183 126.447 204.71L126.202 202.26C121.837 202.708 117.44 202.749 113.067 202.382Z" fill="#E0DFE6"></path> <path d="M267.893 229.559C271.52 234.264 285.732 253.353 289.384 258.083C295.389 265.997 301.82 273.58 308.645 280.799L310.409 279.108C303.648 271.948 297.276 264.431 291.32 256.588C287.668 251.883 273.48 232.769 269.829 228.064C263.821 220.144 257.383 212.56 250.543 205.347L248.779 207.038C255.555 214.191 261.936 221.709 267.893 229.559Z" fill="#E0DFE6"></path> <path d="M122.084 236.135L120.144 237.633L156.513 284.722L158.453 283.224L122.084 236.135Z" fill="#E0DFE6"></path> <path d="M246.034 222.085L246.744 222.992C248.803 225.442 250.935 228.089 253.189 231.005C257.747 236.91 262.232 243.135 266.545 249.163C270.857 255.191 275.415 261.416 280.047 267.493C284.678 273.57 288.844 278.447 292.937 282.858L294.75 281.191C290.682 276.83 286.516 271.855 281.983 265.998C277.45 260.141 272.892 253.746 268.53 247.717C264.168 241.689 259.708 235.465 255.125 229.51C252.675 226.226 250.224 223.286 247.921 220.566L246.034 222.085Z" fill="#E0DFE6"></path> <path d="M38.3751 190.595V193.045C54.7937 192.09 72.3395 191.624 92.0417 191.624C104.098 191.624 110.2 191.845 118.654 192.163C122.502 192.31 126.79 192.482 132.304 192.629V190.178C126.814 190.031 122.502 189.86 118.679 189.713C110.2 189.394 103.976 189.173 91.9681 189.173C72.4129 189.1 54.8917 189.566 38.3751 190.595Z" fill="#E0DFE6"></path> <path d="M124.119 213.287C118.777 213.777 112.92 213.997 106.205 213.997C99.4909 213.997 92.4579 213.752 85.7435 213.532C79.029 213.311 72.0696 213.066 65.3062 213.066C61.5569 213.066 58.1507 213.066 54.916 213.287V215.737H55.9695C58.8612 215.615 61.9244 215.566 65.2571 215.566C71.9961 215.566 78.9067 215.786 85.5966 216.031C92.2865 216.276 99.3196 216.497 106.157 216.497C112.993 216.497 118.875 216.252 124.29 215.762L124.119 213.287Z" fill="#E0DFE6"></path> <path d="M105.128 249.407H110.029V246.956H105.128C96.7159 246.675 88.294 246.92 79.9123 247.692L80.2554 250.142C88.5238 249.393 96.8301 249.147 105.128 249.407Z" fill="#E0DFE6"></path> <path d="M155.584 190.595L155.731 193.045C172.125 192.09 189.671 191.624 209.373 191.624C221.43 191.624 227.532 191.845 236.011 192.163C239.858 192.31 244.146 192.482 249.635 192.629V190.178C244.146 190.031 239.833 189.86 236.011 189.713C227.532 189.394 221.307 189.173 209.3 189.173C189.671 189.1 172.027 189.566 155.584 190.595Z" fill="#E0DFE6"></path> <path d="M133.163 270.189C127.11 263.254 120.249 255.485 117.921 252.398L115.985 253.893C118.436 256.956 125.248 264.846 131.325 271.806C136.006 277.173 140.441 282.221 141.617 283.764C142.794 285.308 143.7 286.558 144.582 287.906L146.641 286.558C145.71 285.161 144.705 283.74 143.553 282.27C142.402 280.799 138.211 275.825 133.163 270.189Z" fill="#E0DFE6"></path> <path d="M230.276 202.382C227.826 202.26 225.228 202.088 221.92 202.088C216.529 202.088 194.964 201.696 189.646 201.696C180.645 201.619 171.646 202.036 162.691 202.946L162.936 205.396C171.786 204.511 180.678 204.101 189.573 204.171C194.964 204.171 216.529 204.563 221.846 204.563C225.106 204.563 227.63 204.71 230.056 204.857C234.576 205.232 239.121 205.183 243.632 204.71L243.387 202.26C239.03 202.707 234.64 202.748 230.276 202.382Z" fill="#E0DFE6"></path> <path d="M253.654 272.027C250.689 268.792 247.626 265.435 244.93 261.955C242.235 258.475 239.27 255.02 236.305 251.834L234.516 253.501C237.432 256.637 240.519 260.264 242.994 263.45C245.739 267.027 248.851 270.409 251.841 273.668C254.83 276.928 257.845 280.26 260.565 283.764C261.668 285.186 262.623 286.534 263.53 287.906L265.564 286.558C264.633 285.137 263.628 283.74 262.501 282.27C259.731 278.814 256.644 275.31 253.654 272.027Z" fill="#E0DFE6"></path> <path d="M241.352 213.287C235.986 213.777 230.129 213.997 223.439 213.997C216.749 213.997 209.692 213.752 202.953 213.532C196.214 213.311 189.303 213.066 182.515 213.066C178.766 213.066 175.384 213.066 172.125 213.287V215.737H173.154C176.07 215.615 179.109 215.566 182.442 215.566C189.181 215.566 196.091 215.786 202.806 216.031C209.52 216.276 216.529 216.497 223.366 216.497C230.203 216.497 236.059 216.252 241.5 215.762L241.352 213.287Z" fill="#E0DFE6"></path> <path d="M233.192 226.716H179.428V229.166H233.192V226.716Z" fill="#E0DFE6"></path> <path d="M227.484 274.819L226.21 276.902C229.55 279.311 232.313 282.433 234.296 286.043L236.551 285.062C234.356 280.996 231.254 277.491 227.484 274.819Z" fill="#E0DFE6"></path> <path d="M251.768 285.528C248.239 280.946 242.921 274.918 238.241 269.575C236.428 267.517 234.712 265.581 233.34 263.915L231.478 265.532L236.379 271.193C241.059 276.486 246.328 282.514 249.832 287.023L251.768 285.528Z" fill="#E0DFE6"></path> <path d="M212.338 239.998C217.855 239.414 223.41 239.25 228.952 239.508L229.148 237.057C223.475 236.798 217.791 236.962 212.142 237.547C208.196 237.89 204.128 238.234 200.134 238.234C196.394 238.269 192.662 237.883 189.009 237.082L188.445 239.532C192.28 240.394 196.203 240.805 200.134 240.758C204.227 240.684 208.343 240.341 212.338 239.998Z" fill="#E0DFE6"></path> <path d="M217.902 281.02C216.964 280.935 216.021 280.935 215.083 281.02L215.427 283.471C216.242 283.393 217.062 283.393 217.877 283.471C219.151 283.579 220.434 283.48 221.676 283.177L221.014 280.726C219.998 280.987 218.948 281.086 217.902 281.02Z" fill="#E0DFE6"></path> <path d="M126.987 222.085L127.698 222.992C129.781 225.442 131.888 228.089 134.143 231.005C138.701 236.91 143.185 243.135 147.498 249.163C151.811 255.191 156.369 261.416 161 267.493C165.632 273.57 169.798 278.447 173.915 282.858L175.704 281.191C171.66 276.854 167.47 271.855 162.936 265.998C158.403 260.141 153.845 253.746 149.507 247.717C145.17 241.689 140.661 235.465 136.079 229.51C133.628 226.226 131.177 223.286 128.874 220.566L126.987 222.085Z" fill="#E0DFE6"></path> <path d="M161.638 242.326C158.085 237.547 154.531 232.769 150.88 228.064C144.88 220.138 138.441 212.554 131.594 205.347L129.83 207.038C136.607 214.191 142.988 221.709 148.944 229.559C152.595 234.264 166.784 253.353 170.435 258.083C176.441 265.997 182.871 273.58 189.696 280.799L191.485 279.108C184.708 271.955 178.327 264.437 172.371 256.588C168.72 251.858 165.167 247.104 161.638 242.326Z" fill="#E0DFE6"></path> <path d="M212.143 272.32C213.907 272.32 215.426 272.32 216.848 272.32C218.252 272.246 219.659 272.246 221.063 272.32L221.21 269.869C219.641 269.869 218.245 269.869 216.75 269.869C215.255 269.869 213.907 269.869 212.192 269.869C210.609 269.758 209.02 269.758 207.438 269.869L207.683 272.32C209.168 272.233 210.658 272.233 212.143 272.32Z" fill="#E0DFE6"></path> <path d="M222.337 249.407H227.238V246.956H222.337C213.925 246.675 205.503 246.92 197.121 247.692L197.464 250.142C205.733 249.393 214.039 249.148 222.337 249.407Z" fill="#E0DFE6"></path> <path d="M206.826 259.749C207.659 259.749 208.394 259.749 209.276 259.749C212.364 259.749 221.308 259.872 223.979 259.749L223.857 257.299C221.406 257.421 212.437 257.299 209.399 257.299C208.517 257.299 207.732 257.299 206.948 257.299C206.164 257.299 204.498 257.446 202.782 257.299V259.749H204.179C204.89 259.847 205.845 259.798 206.826 259.749Z" fill="#E0DFE6"></path> <path d="M254.709 192.261C266.668 205.984 278.945 221.03 292.275 238.282C302.617 251.687 313.693 266.537 327.146 285.038L329.131 283.592C315.678 265.091 304.626 250.216 294.211 236.787C280.856 219.511 268.554 204.416 256.571 190.644L254.709 192.261Z" fill="#E0DFE6"></path> <path d="M107.946 275.799L112.132 278.737C111.118 277.384 109.987 276.123 108.754 274.967L107.946 275.799Z" fill="#E0DFE6"></path> <path d="M89.4946 259.749C90.3033 259.749 91.063 259.749 91.9452 259.749C95.0328 259.749 103.977 259.872 106.648 259.749L106.501 257.299C104.051 257.421 95.1064 257.299 92.0433 257.299C91.1856 257.299 90.3769 257.299 89.5928 257.299C88.8086 257.299 87.142 257.446 85.4022 257.299V258.328L87.1177 259.774L89.4946 259.749Z" fill="#E0DFE6"></path> <path d="M91.6524 272.346L90.2776 271.56V272.395C90.7343 272.349 91.1936 272.333 91.6524 272.346Z" fill="#E0DFE6"></path> <path d="M115.96 226.716H62.1954V229.166H115.96V226.716Z" fill="#E0DFE6"></path> <path d="M115.371 266.757L113.925 268.742C120.379 274.04 126.084 280.19 130.883 287.023L132.819 285.528C127.885 278.506 122.015 272.191 115.371 266.757Z" fill="#E0DFE6"></path> <path d="M111.744 239.605L111.916 237.155C106.251 236.896 100.574 237.06 94.9334 237.645C90.988 237.988 86.8956 238.331 82.9258 238.331C79.1857 238.368 75.4538 237.981 71.8006 237.179L71.237 239.63C75.0724 240.492 78.995 240.903 82.9258 240.855C87.0181 240.855 91.135 240.512 95.1784 240.169C100.678 239.563 106.216 239.374 111.744 239.605Z" fill="#E0DFE6"></path> <path d="M103.903 269.821C102.482 269.748 101.059 269.748 99.6386 269.821L102.898 272.272H103.755L103.903 269.821Z" fill="#E0DFE6"></path> <path d="M173.228 112.816C176.144 112.693 179.183 112.644 182.515 112.644C189.254 112.644 196.165 112.865 202.879 113.11C209.594 113.355 216.602 113.575 223.439 113.575C230.276 113.575 236.133 113.33 241.573 112.84L241.352 110.389C235.986 110.88 230.129 111.1 223.439 111.1C216.749 111.1 209.692 110.855 202.953 110.635C196.214 110.414 189.303 110.169 182.515 110.169C178.766 110.169 175.384 110.169 172.125 110.389V112.84L173.228 112.816Z" fill="#E0DFE6"></path> <path d="M233.806 136.998L231.87 138.492L268.165 185.496L270.101 184.002L233.806 136.998Z" fill="#E0DFE6"></path> <path d="M205.771 101.42C211.137 101.42 216.529 101.616 221.92 101.616C225.179 101.616 227.703 101.763 230.129 101.91C234.649 102.285 239.194 102.235 243.705 101.763L243.46 99.3125C239.079 99.7726 234.666 99.8219 230.276 99.4595C227.826 99.337 225.228 99.1655 221.92 99.1655C216.529 99.1655 194.964 98.7734 189.646 98.7734C180.645 98.6963 171.646 99.1136 162.691 100.023L162.936 102.474C171.786 101.588 180.678 101.179 189.573 101.248C195.038 101.224 200.404 101.322 205.771 101.42Z" fill="#E0DFE6"></path> <path d="M108.805 172.045L107.114 173.834C108.891 175.515 110.454 177.408 111.77 179.47C112.579 180.671 113.51 181.921 114.833 183.734L116.769 182.239C115.495 180.573 114.588 179.249 113.804 178.098C112.389 175.885 110.71 173.853 108.805 172.045Z" fill="#E0DFE6"></path> <path d="M130.86 184.101L132.796 182.607C127.862 175.584 121.992 169.269 115.348 163.836L113.902 165.821C120.356 171.119 126.061 177.268 130.86 184.101Z" fill="#E0DFE6"></path> <path d="M254.709 89.3395C266.668 103.062 278.945 118.109 292.275 135.36C302.617 148.765 313.693 163.615 327.146 182.116L329.131 180.671C315.678 162.169 304.626 147.294 294.211 133.866C280.856 116.589 268.554 101.494 256.571 87.7222L254.709 89.3395Z" fill="#E0DFE6"></path> <path d="M233.192 123.794H179.428V126.244H233.192V123.794Z" fill="#E0DFE6"></path> <path d="M267.893 126.637C271.52 131.342 285.732 150.431 289.384 155.161C295.389 163.075 301.82 170.658 308.645 177.877L310.409 176.186C303.648 169.026 297.276 161.509 291.32 153.666C287.668 148.961 273.48 129.847 269.829 125.142C263.821 117.222 257.383 109.638 250.543 102.426L248.779 104.116C255.555 111.269 261.936 118.787 267.893 126.637Z" fill="#E0DFE6"></path> <path d="M246.034 119.162L246.744 120.069C248.803 122.519 250.935 125.166 253.189 128.082C257.747 133.988 262.232 140.212 266.545 146.24C270.857 152.269 275.415 158.493 280.047 164.57C284.678 170.648 288.844 175.524 292.937 179.935L294.75 178.269C290.682 173.907 286.516 168.932 281.983 163.075C277.45 157.219 272.892 150.823 268.53 144.795C264.168 138.766 259.708 132.542 255.125 126.587C252.675 123.303 250.224 120.363 247.921 117.643L246.034 119.162Z" fill="#E0DFE6"></path> <path d="M212.143 169.398C213.907 169.398 215.426 169.398 216.848 169.398C218.252 169.325 219.659 169.325 221.063 169.398L221.21 166.948C219.641 166.948 218.245 166.948 216.75 166.948C215.255 166.948 213.907 166.948 212.192 166.948C210.609 166.836 209.02 166.836 207.438 166.948L207.683 169.398C209.168 169.311 210.658 169.311 212.143 169.398Z" fill="#E0DFE6"></path> <path d="M122.077 133.212L120.138 134.71L156.506 181.8L158.446 180.302L122.077 133.212Z" fill="#E0DFE6"></path> <path d="M126.987 119.162L127.698 120.069C129.781 122.519 131.888 125.166 134.143 128.082C138.701 133.988 143.185 140.212 147.498 146.24C151.811 152.269 156.369 158.493 161 164.57C165.632 170.648 169.798 175.524 173.915 179.935L175.704 178.269C171.66 173.931 167.47 168.932 162.936 163.075C158.403 157.219 153.845 150.823 149.507 144.795C145.17 138.766 140.661 132.542 136.079 126.587C133.628 123.303 131.177 120.363 128.874 117.643L126.987 119.162Z" fill="#E0DFE6"></path> <path d="M217.902 178.097C216.964 178.013 216.021 178.013 215.083 178.097L215.427 180.548C216.242 180.471 217.062 180.471 217.877 180.548C219.151 180.656 220.434 180.557 221.676 180.254L221.014 177.803C219.998 178.064 218.948 178.164 217.902 178.097Z" fill="#E0DFE6"></path> <path d="M161.638 139.404C158.085 134.625 154.531 129.847 150.88 125.142C144.88 117.216 138.441 109.632 131.594 102.426L129.83 104.116C136.607 111.269 142.988 118.787 148.944 126.637C152.595 131.342 166.784 150.431 170.435 155.161C176.441 163.075 182.871 170.658 189.696 177.877L191.485 176.186C184.708 169.033 178.327 161.515 172.371 153.666C168.72 148.937 165.167 144.182 161.638 139.404Z" fill="#E0DFE6"></path> <path d="M113.067 99.4609C110.617 99.3383 108.019 99.1668 104.711 99.1668C100.986 99.1668 97.3596 99.1668 93.5613 99.1668C93.0222 99.951 92.5075 100.76 91.9929 101.617C96.2323 101.617 100.472 101.74 104.711 101.74C107.946 101.74 110.47 101.887 112.92 102.034C117.44 102.409 121.985 102.359 126.496 101.887L126.251 99.4363C121.867 99.8556 117.453 99.8638 113.067 99.4609Z" fill="#E0DFE6"></path> <path d="M155.731 90.1238C172.125 89.1681 189.671 88.7025 209.373 88.7025C221.43 88.7025 227.531 88.9231 236.01 89.2417C239.857 89.3887 244.146 89.5602 249.635 89.7072V87.2567C244.146 87.1096 239.833 86.9382 236.01 86.7911C227.531 86.4726 221.307 86.252 209.299 86.252C189.548 86.252 171.953 86.7176 155.388 87.6978L155.731 90.1238Z" fill="#E0DFE6"></path> <path d="M222.337 146.486H227.238V144.036H222.337C213.925 143.754 205.503 143.999 197.121 144.771L197.464 147.221C205.733 146.472 214.039 146.227 222.337 146.486Z" fill="#E0DFE6"></path> <path d="M212.338 137.076C217.855 136.492 223.41 136.328 228.952 136.586L229.148 134.135C223.475 133.877 217.791 134.04 212.142 134.626C208.196 134.969 204.128 135.312 200.134 135.312C196.394 135.347 192.662 134.961 189.009 134.16L188.445 136.611C192.28 137.472 196.203 137.884 200.134 137.836C204.227 137.762 208.343 137.419 212.338 137.076Z" fill="#E0DFE6"></path> <path d="M115.96 123.794H83.441C83.294 124.603 83.1714 125.436 83.0734 126.244H115.96V123.794Z" fill="#E0DFE6"></path> <path d="M251.768 182.607C248.239 178.024 242.921 171.996 238.241 166.654C236.428 164.595 234.712 162.659 233.34 160.993L231.478 162.61L236.379 168.271C241.059 173.564 246.328 179.592 249.832 184.101L251.768 182.607Z" fill="#E0DFE6"></path> <path d="M227.484 171.897L226.21 173.98C229.55 176.389 232.313 179.511 234.296 183.121L236.551 182.141C234.356 178.074 231.254 174.569 227.484 171.897Z" fill="#E0DFE6"></path> <path d="M206.826 156.826C207.659 156.826 208.394 156.826 209.276 156.826C212.364 156.826 221.308 156.949 223.979 156.826L223.857 154.376C221.406 154.498 212.437 154.376 209.399 154.376C208.517 154.376 207.732 154.376 206.948 154.376C206.164 154.376 204.498 154.523 202.782 154.376V156.826H204.179C204.89 156.924 205.845 156.875 206.826 156.826Z" fill="#E0DFE6"></path> <path d="M105.128 146.486H110.029V144.036H105.128C96.7159 143.754 88.294 143.999 79.9123 144.771L80.2554 147.221C88.5238 146.472 96.8301 146.226 105.128 146.486Z" fill="#E0DFE6"></path> <path d="M100.031 178.097C99.283 177.999 98.5251 177.999 97.7768 178.097L98.2668 180.548C98.8041 180.486 99.3468 180.486 99.8842 180.548H100.864C101.584 180.558 102.299 180.433 102.972 180.18L102.065 177.901C101.406 178.099 100.716 178.165 100.031 178.097Z" fill="#E0DFE6"></path> <path d="M118.778 89.1679C122.625 89.315 126.914 89.4865 132.428 89.6335V87.183C126.938 87.036 109.981 86.3989 105.202 86.3009C104.271 87.0605 103.364 87.8692 102.458 88.7514C108.535 88.7759 113.142 88.9719 118.778 89.1679Z" fill="#E0DFE6"></path> <path d="M95.1296 137.076C100.647 136.492 106.201 136.328 111.744 136.586L111.916 134.135C106.251 133.877 100.574 134.041 94.9334 134.625C90.988 134.968 86.8956 135.312 82.9258 135.312C79.1857 135.348 75.4538 134.962 71.8006 134.16L71.237 136.61C75.0724 137.472 78.995 137.883 82.9258 137.836C87.0181 137.762 91.1353 137.419 95.1296 137.076Z" fill="#E0DFE6"></path> <path d="M94.9337 169.399C96.6735 169.399 98.1929 169.399 99.6142 169.399C101.026 169.325 102.441 169.325 103.854 169.399L104.001 166.948C102.432 166.948 101.035 166.948 99.5406 166.948C98.0458 166.948 96.6736 166.948 94.9827 166.948C93.3918 166.837 91.7952 166.837 90.2043 166.948L90.4738 169.399C91.9592 169.311 93.4483 169.311 94.9337 169.399Z" fill="#E0DFE6"></path> <path d="M253.654 169.104C250.689 165.869 247.626 162.512 244.93 159.032C242.235 155.552 239.27 152.097 236.305 148.911L234.516 150.578C237.432 153.714 240.519 157.341 242.994 160.527C245.739 164.105 248.851 167.486 251.841 170.746C254.83 174.005 257.845 177.337 260.565 180.842C261.668 182.263 262.623 183.611 263.53 184.983L265.564 183.635C264.633 182.214 263.628 180.817 262.501 179.347C259.731 175.892 256.644 172.387 253.654 169.104Z" fill="#E0DFE6"></path> <path d="M89.4946 156.826C90.3033 156.826 91.063 156.826 91.9452 156.826C95.0328 156.826 103.977 156.949 106.648 156.826L106.501 154.376C104.051 154.498 95.1064 154.376 92.0433 154.376C91.1856 154.376 90.3769 154.376 89.5928 154.376C88.8086 154.376 87.142 154.523 85.4022 154.376V156.826H86.7991C87.6568 156.924 88.6125 156.875 89.4946 156.826Z" fill="#E0DFE6"></path> <path d="M133.163 167.266C127.11 160.331 120.249 152.563 117.921 149.475L115.985 150.97C118.436 154.033 125.248 161.924 131.325 168.883C136.006 174.25 140.441 179.298 141.617 180.842C142.794 182.386 143.7 183.635 144.582 184.983L146.641 183.635C145.71 182.239 144.705 180.817 143.553 179.347C142.402 177.877 138.211 172.902 133.163 167.266Z" fill="#E0DFE6"></path> <path d="M124.119 110.364C118.777 110.854 112.92 111.075 106.206 111.075C99.9324 111.075 93.5121 110.879 87.2387 110.658C86.9201 111.467 86.5773 112.276 86.2833 113.109C92.8507 113.329 99.5893 113.55 106.206 113.55C112.822 113.55 118.924 113.305 124.34 112.815L124.119 110.364Z" fill="#E0DFE6"></path> <path d="M135.759 89.3395C147.718 103.062 160.019 118.133 173.326 135.36C183.691 148.789 194.768 163.639 208.197 182.116L210.182 180.671C196.728 162.169 185.676 147.294 175.262 133.866C161.931 116.589 149.605 101.494 137.622 87.7222L135.759 89.3395Z" fill="#E0DFE6"></path> <path d="M57.0256 135.36C67.3668 148.764 78.4431 163.614 91.8965 182.116L93.8816 180.67C80.4282 162.168 69.3763 147.294 58.9616 133.865L56.8296 131.12C56.07 131.463 55.3102 131.831 54.5751 132.223L57.0256 135.36Z" fill="#E0DFE6"></path> <path d="M45.336 139.404L45.0911 139.134C44.5029 139.698 43.8904 140.261 43.3267 140.874C43.3267 140.874 50.5311 150.529 54.1824 155.259C60.1882 163.173 66.618 170.756 73.4435 177.975L75.2081 176.284C68.4468 169.124 62.0744 161.607 56.1184 153.764C52.4426 148.936 48.8893 144.182 45.336 139.404Z" fill="#E0DFE6"></path> <path d="M57.6133 179.911L59.4267 178.244C55.3588 173.882 51.193 168.908 46.6595 163.051C43.3023 158.714 40.0431 154.205 36.8574 149.745C36.4163 150.578 36.0243 151.386 35.6322 152.195C38.6218 156.337 41.6604 160.478 44.7726 164.448C49.3061 170.476 53.5209 175.5 57.6133 179.911Z" fill="#E0DFE6"></path> <path d="M40.1893 181.675L42.1253 180.181L31.9065 166.972C31.9065 168.246 31.9065 169.545 31.9065 170.82L40.1893 181.675Z" fill="#E0DFE6"></path> <path d="M371.011 295.184C382.969 308.907 395.271 323.978 408.577 341.205C412.596 346.4 416.688 351.791 421.001 357.525L424.162 357.672C419.408 351.326 414.899 345.42 410.513 339.71C397.182 322.434 384.856 307.339 372.873 293.567L371.011 295.184Z" fill="#E0DFE6"></path> <path d="M365.08 309.96C371.857 317.113 378.238 324.631 384.194 332.48C387.846 337.185 399.706 353.138 402.132 356.348L405.391 356.569C402.524 352.82 389.782 335.691 386.13 330.986C380.131 323.066 373.701 315.483 366.869 308.269L365.08 309.96Z" fill="#E0DFE6"></path> <path d="M362.239 325.006L362.949 325.912C365.032 328.363 367.139 331.009 369.394 333.926C373.952 339.831 378.436 346.056 382.749 352.084C383.509 353.113 384.269 354.142 385.004 355.196C386.057 355.196 387.136 355.196 388.19 355.417L384.759 350.638C380.421 344.61 375.912 338.385 371.33 332.431C368.879 329.147 366.429 326.206 364.125 323.486L362.239 325.006Z" fill="#E0DFE6"></path> <path d="M390.981 295.967C407.375 295.012 424.921 294.546 444.623 294.546C456.68 294.546 462.782 294.767 471.261 295.085C475.108 295.232 479.396 295.404 484.885 295.551V293.1C479.396 292.953 475.083 292.782 471.261 292.635C462.782 292.316 456.557 292.096 444.55 292.096C424.799 292.096 407.204 292.561 390.638 293.541L390.981 295.967Z" fill="#E0DFE6"></path> <path d="M355.376 340.445L365.521 353.604L368.83 353.873L357.312 338.925L355.376 340.445Z" fill="#E0DFE6"></path> <path d="M330.381 342.919C335.899 342.336 341.453 342.172 346.995 342.429L347.167 339.979C341.502 339.72 335.825 339.884 330.185 340.469C326.239 340.812 322.171 341.155 318.177 341.155C314.437 341.192 310.705 340.806 307.052 340.003L306.488 342.454C310.324 343.316 314.246 343.727 318.177 343.679C322.269 343.606 326.387 343.263 330.381 342.919Z" fill="#E0DFE6"></path> <path d="M351.21 329.638H297.446V332.089H351.21V329.638Z" fill="#E0DFE6"></path> <path d="M291.27 318.659C294.162 318.537 297.225 318.488 300.557 318.488C307.296 318.488 314.207 318.708 320.922 318.953C327.636 319.198 334.644 319.419 341.457 319.419C348.269 319.419 354.175 319.174 359.591 318.684L359.37 316.233C354.028 316.723 348.171 316.944 341.457 316.944C334.742 316.944 327.709 316.699 320.995 316.478C314.28 316.258 307.321 316.013 300.557 316.013C296.808 316.013 293.426 316.013 290.167 316.233V318.684L291.27 318.659Z" fill="#E0DFE6"></path> <path d="M323.813 307.265C329.18 307.265 334.571 307.461 339.962 307.461C343.197 307.461 345.721 307.608 348.171 307.755C352.691 308.13 357.236 308.081 361.747 307.608L361.502 305.158C357.122 305.618 352.708 305.667 348.318 305.305C345.868 305.182 343.27 305.011 339.962 305.011C334.571 305.011 313.006 304.619 307.689 304.619C298.687 304.543 289.689 304.96 280.733 305.868L281.003 308.319C289.853 307.433 298.745 307.024 307.64 307.094C313.08 307.069 318.446 307.167 323.813 307.265Z" fill="#E0DFE6"></path> <path d="M468.444 329.638H414.679V332.089H468.444V329.638Z" fill="#E0DFE6"></path> <path d="M408.48 318.659C411.396 318.537 414.435 318.488 417.768 318.488C424.506 318.488 431.442 318.708 438.132 318.953C444.821 319.198 451.854 319.419 458.691 319.419C465.528 319.419 471.385 319.174 476.825 318.684L476.605 316.233C471.238 316.723 465.381 316.944 458.691 316.944C452.002 316.944 444.944 316.699 438.205 316.478C431.466 316.258 424.555 316.013 417.768 316.013C414.018 316.013 410.637 316.013 407.377 316.233V318.684L408.48 318.659Z" fill="#E0DFE6"></path> <path d="M481.284 325.006L481.995 325.912C484.078 328.363 486.185 331.009 488.44 333.926C489.738 335.616 490.89 337.356 492.311 339.096L494.762 338.116C493.341 336.205 491.944 334.293 490.498 332.431C488.048 329.147 485.597 326.206 483.293 323.486L481.284 325.006Z" fill="#E0DFE6"></path> <path d="M441.022 307.265C446.389 307.265 451.78 307.461 457.171 307.461C460.431 307.461 462.954 307.609 465.381 307.756C469.9 308.13 474.446 308.081 478.957 307.609L478.711 305.158C474.331 305.618 469.917 305.667 465.527 305.305C463.077 305.182 460.627 305.011 457.171 305.011C451.805 305.011 430.215 304.619 424.898 304.619C415.896 304.542 406.898 304.959 397.942 305.869L398.187 308.319C407.038 307.433 415.93 307.024 424.824 307.094C430.289 307.069 435.655 307.167 441.022 307.265Z" fill="#E0DFE6"></path> <path d="M503.143 332.48C503.315 332.701 503.486 332.946 503.682 333.166C504.368 332.725 505.03 332.26 505.692 331.794L505.079 330.986C499.079 323.06 492.64 315.476 485.793 308.269L484.029 309.96C490.806 317.113 497.187 324.631 503.143 332.48Z" fill="#E0DFE6"></path> <path d="M457.586 352.33H462.487V349.879H457.586C449.174 349.597 440.752 349.843 432.371 350.614L432.738 353.065C440.998 352.315 449.296 352.07 457.586 352.33Z" fill="#E0DFE6"></path> <path d="M345.303 349.88C343.906 349.88 333.05 349.88 329.178 349.88C334.537 350.533 339.912 351.146 345.303 351.717V349.88Z" fill="#E0DFE6"></path> <path d="M489.958 295.184C497.849 304.226 505.862 313.857 514.243 324.321L515.909 322.483C507.602 312.117 499.638 302.56 491.821 293.567L489.958 295.184Z" fill="#E0DFE6"></path> <path d="M447.615 342.92C453.124 342.336 458.67 342.172 464.205 342.43L464.401 339.979C458.727 339.72 453.043 339.884 447.394 340.469C443.449 340.812 439.381 341.155 435.386 341.155C431.646 341.191 427.914 340.804 424.261 340.004L423.697 342.454C427.533 343.316 431.456 343.727 435.386 343.679C439.479 343.606 443.62 343.263 447.615 342.92Z" fill="#E0DFE6"></path> <path d="M474.3 340.445L478.294 345.591L480.352 344.243L476.26 338.925L474.3 340.445Z" fill="#E0DFE6"></path> <path d="M273.626 293.518V295.968C290.045 295.012 307.591 294.547 327.293 294.547C339.35 294.547 345.451 294.767 353.906 295.086C357.753 295.233 362.041 295.404 367.555 295.551V293.101C362.066 292.954 357.753 292.782 353.93 292.635C345.451 292.317 339.227 292.096 327.219 292.096C307.664 292.023 290.143 292.488 273.626 293.518Z" fill="#E0DFE6"></path> <path d="M226.429 329.638L233.192 331.525V329.638H226.429Z" fill="#E0DFE6"></path> <path d="M136.838 294.252L139.458 295.721L137.621 293.567L136.838 294.252Z" fill="#E0DFE6"></path> <path d="M254.709 295.183C266.668 308.906 278.945 323.952 292.275 341.204L295.045 344.978L298.573 345.566L294.113 339.758C280.758 322.482 268.456 307.387 256.473 293.615L254.709 295.183Z" fill="#E0DFE6"></path> <path d="M155.584 293.518L155.731 295.968C172.125 295.012 189.671 294.547 209.373 294.547C221.43 294.547 227.532 294.767 236.011 295.086C239.858 295.233 244.146 295.404 249.635 295.551V293.101C244.146 292.954 239.833 292.782 236.011 292.635C227.532 292.317 221.307 292.096 209.3 292.096C189.671 292.023 172.027 292.488 155.584 293.518Z" fill="#E0DFE6"></path> <path d="M241.353 316.209C235.987 316.699 230.13 316.919 223.44 316.919C216.75 316.919 209.693 316.674 202.954 316.454C196.999 316.233 190.873 316.062 184.82 316.013C187.271 316.895 189.525 317.728 191.853 318.463L202.88 318.806C209.619 319.027 216.603 319.272 223.44 319.272C230.277 319.272 236.134 319.027 241.574 318.537L241.353 316.209Z" fill="#E0DFE6"></path> <path d="M255.052 332.407C252.602 329.124 250.151 326.183 247.847 323.463L245.936 325.007L246.647 325.913C248.705 328.364 250.837 331.01 253.092 333.927C253.9 334.956 254.684 336.059 255.542 337.112L259.267 337.97C257.821 336.083 256.449 334.221 255.052 332.407Z" fill="#E0DFE6"></path> <path d="M267.893 332.48C270.098 335.339 272.287 338.231 274.46 341.155L278.038 341.841C275.318 338.19 272.598 334.49 269.829 330.986C263.821 323.066 257.383 315.482 250.543 308.269L248.779 309.96C255.555 317.113 261.936 324.631 267.893 332.48Z" fill="#E0DFE6"></path> <path d="M189.671 307.069C195.062 307.069 216.627 307.461 221.944 307.461C225.204 307.461 227.728 307.609 230.154 307.756C234.674 308.13 239.219 308.081 243.73 307.609L243.484 305.158C239.104 305.618 234.69 305.667 230.3 305.305C227.85 305.182 225.253 305.011 221.944 305.011C216.553 305.011 194.989 304.619 189.671 304.619C180.67 304.542 171.671 304.959 162.715 305.869L162.862 307.216L164.994 308.099C172.272 307.413 180.163 307.069 189.671 307.069Z" fill="#E0DFE6"></path> <path d="M516.302 308.22C519.12 307.926 522.036 307.681 525.075 307.51C525.442 306.652 525.81 305.819 526.153 305.059C522.6 305.255 519.267 305.525 516.057 305.868L516.302 308.22Z" fill="#E0DFE6"></path> <path d="M509.024 295.968C515.542 295.6 522.281 295.281 529.241 295.061C529.437 294.228 529.608 293.419 529.755 292.61C522.551 292.855 515.616 293.149 508.877 293.566L509.024 295.968Z" fill="#E0DFE6"></path> <path d="M351.235 150.97C353.686 154.033 360.498 161.924 366.575 168.883C371.256 174.25 375.692 179.298 376.868 180.842C378.044 182.386 378.951 183.635 379.833 184.983L381.891 183.635C380.96 182.239 379.956 180.817 378.804 179.347C377.652 177.877 373.339 172.902 368.413 167.266C362.361 160.331 355.499 152.563 353.196 149.475L351.235 150.97Z" fill="#E0DFE6"></path> <path d="M281.052 102.377C289.903 101.491 298.795 101.082 307.689 101.151C309.919 101.151 312.125 101.151 314.33 101.151C312.174 100.294 309.993 99.4605 307.812 98.7009C298.81 98.6248 289.812 99.042 280.856 99.9507L281.052 102.377Z" fill="#E0DFE6"></path> <path d="M366.11 184.101L368.046 182.607C363.114 175.59 357.252 169.276 350.622 163.836L349.152 165.821C355.606 171.119 361.311 177.268 366.11 184.101Z" fill="#E0DFE6"></path> <path d="M453.055 180.548C454.337 180.655 455.628 180.556 456.878 180.254L456.192 177.803C455.195 178.024 454.17 178.09 453.153 177.999C452.216 177.915 451.272 177.915 450.335 177.999L450.702 180.45C451.488 180.409 452.275 180.442 453.055 180.548Z" fill="#E0DFE6"></path> <path d="M470.72 182.605L468.884 181.895C469.127 182.291 469.348 182.7 469.545 183.12L470.72 182.605Z" fill="#E0DFE6"></path> <path d="M357.348 133.212L355.408 134.71L391.777 181.8L393.717 180.302L357.348 133.212Z" fill="#E0DFE6"></path> <path d="M330.185 169.399C331.949 169.399 333.444 169.399 334.866 169.399C336.278 169.325 337.693 169.325 339.105 169.399L339.252 166.948C337.684 166.948 336.287 166.948 334.792 166.948C333.297 166.948 331.925 166.948 330.234 166.948C328.643 166.837 327.047 166.837 325.456 166.948L325.725 169.399C327.211 169.311 328.7 169.311 330.185 169.399Z" fill="#E0DFE6"></path> <path d="M344.054 172.045L342.364 173.834C344.14 175.515 345.704 177.408 347.02 179.47C347.828 180.671 348.759 181.921 350.083 183.734L352.019 182.239C350.744 180.573 349.838 179.249 349.054 178.098C347.638 175.885 345.959 173.853 344.054 172.045Z" fill="#E0DFE6"></path> <path d="M424.921 177.876L426.686 176.185C419.909 169.033 413.528 161.515 407.572 153.665L403.528 148.348C401.495 146.926 399.387 145.554 397.329 144.157C400.073 147.833 402.818 151.509 405.636 155.16C411.642 163.081 418.08 170.664 424.921 177.876Z" fill="#E0DFE6"></path> <path d="M382.773 146.216C387.135 152.269 391.644 158.469 396.276 164.546C400.907 170.623 405.097 175.5 409.19 179.911L410.979 178.244C406.935 173.907 402.769 168.908 398.211 163.051C393.653 157.195 389.12 150.799 384.782 144.77C381.082 139.624 377.259 134.356 373.363 129.234C371.55 128.18 369.736 127.127 367.898 126.097L369.418 128.058C373.976 133.964 378.362 140.188 382.773 146.216Z" fill="#E0DFE6"></path> <path d="M290.143 110.365V112.816H291.197C294.088 112.693 297.151 112.644 300.484 112.644C307.223 112.644 314.134 112.865 320.848 113.11C327.562 113.355 334.571 113.576 341.383 113.576H343.001L340.991 112.595L337.536 111.076C331.998 111.076 307.247 110.194 300.484 110.194C296.808 110.145 293.427 110.218 290.143 110.365Z" fill="#E0DFE6"></path> <path d="M351.21 123.794H297.446V126.244H351.21V123.794Z" fill="#E0DFE6"></path> <path d="M324.746 156.826C325.579 156.826 326.314 156.826 327.196 156.826C330.284 156.826 339.229 156.949 341.9 156.826L341.753 154.376C339.302 154.498 330.358 154.376 327.295 154.376C326.437 154.376 325.628 154.376 324.844 154.376C324.06 154.376 322.393 154.523 320.653 154.376V156.826H322.05C322.908 156.924 323.864 156.875 324.746 156.826Z" fill="#E0DFE6"></path> <path d="M335.283 178.097C334.534 177.999 333.776 177.999 333.028 178.097L333.518 180.548C334.055 180.486 334.598 180.486 335.136 180.548H336.116C336.843 180.556 337.565 180.432 338.248 180.18L337.341 177.901C336.674 178.097 335.975 178.164 335.283 178.097Z" fill="#E0DFE6"></path> <path d="M330.381 137.076C335.899 136.492 341.453 136.328 346.995 136.586L347.167 134.135C341.502 133.877 335.825 134.041 330.185 134.625C326.239 134.968 322.171 135.312 318.177 135.312C314.437 135.348 310.705 134.962 307.052 134.16L306.488 136.61C310.324 137.472 314.246 137.883 318.177 137.836C322.269 137.762 326.387 137.419 330.381 137.076Z" fill="#E0DFE6"></path> <path d="M340.379 146.486H345.28V144.036H340.379C331.966 143.754 323.544 143.999 315.163 144.771L315.506 147.221C323.774 146.472 332.08 146.226 340.379 146.486Z" fill="#E0DFE6"></path> <path d="M273.749 90.1238L280.954 89.7563C278.503 89.0211 276.248 88.3595 273.896 87.6733H273.626L273.749 90.1238Z" fill="#E0DFE6"></path> <path d="M443.449 182.116L445.433 180.67L441.047 174.642C439.895 174.471 438.768 174.275 437.616 174.128L443.449 182.116Z" fill="#E0DFE6"></path> <g style="mix-blend-mode:multiply"> <path d="M469.154 230.685C448.251 216.815 423.966 209.439 400.539 201.279C378.068 193.437 348.318 177.215 324.573 183.096C318.669 184.504 313.217 187.384 308.726 191.468C304.236 195.551 300.852 200.705 298.891 206.45L295.926 204.906C268.431 191.085 239.564 180.401 211.04 168.565C183.03 156.998 156.344 141.437 127.158 133.596C112.872 129.748 96.7231 147.024 106.476 160.551C116.732 174.883 129.818 186.959 144.925 196.035C159.26 204.906 174.331 212.796 189.034 220.54C218.931 236.076 249.44 250.78 278.429 268.031C307.419 285.283 333.149 311.283 366.648 319.296C385.767 324.07 405.915 322.567 424.113 315.008C432.424 311.588 440.37 307.344 447.834 302.339C455.186 297.266 461.851 290.356 469.252 285.577C489.787 272.148 489.395 244.114 469.154 230.685Z" fill="#D7DCE0"></path> </g> <path d="M83.4408 58.0213C86.2001 62.5316 87.6824 67.7069 87.7292 72.9941C87.7292 78.0177 86.2588 81.3503 83.3917 82.9677L30.0192 113.771C32.8128 112.129 34.2098 108.87 34.2098 103.969C34.1598 98.6896 32.6776 93.5232 29.9214 89.0205C27.3158 84.425 23.5462 80.5964 18.9919 77.9196C14.6299 75.4691 11.0278 74.881 8.11168 76.4248L61.3615 45.6707L61.6311 45.5236C64.5227 44.0043 68.1493 44.519 72.5112 47.0185C77.0482 49.6746 80.8152 53.4667 83.4408 58.0213Z" fill="#3A3A3A"></path> <path d="M29.9223 88.9223C32.6786 93.425 34.1607 98.5914 34.2108 103.87C34.2108 108.772 32.8138 112.129 30.0202 113.673C27.104 115.29 23.4774 114.824 19.14 112.325C14.6129 109.61 10.8845 105.747 8.33307 101.126C5.53236 96.6093 4.00789 91.418 3.92201 86.1042C3.92201 81.2031 5.26988 77.8459 7.98997 76.3021L8.25949 76.1551C11.1756 74.6112 14.778 75.1259 19.14 77.6499C23.6624 80.3943 27.3815 84.2825 29.9223 88.9223Z" fill="white"></path> <path d="M30.0182 117.446C29.2062 117.453 28.4151 117.19 27.7681 116.699C27.1212 116.209 26.6548 115.517 26.4421 114.734C26.2294 113.95 26.2822 113.118 26.5922 112.367C26.9023 111.617 27.452 110.99 28.1558 110.585C29.7487 109.654 30.6064 107.399 30.6064 103.87C30.549 99.2484 29.2454 94.7275 26.8327 90.7847C24.5616 86.7195 21.245 83.3354 17.2266 80.9826C14.0409 79.1447 11.5904 78.6791 9.87501 79.5368C9.44583 79.8024 8.96648 79.9768 8.46697 80.049C7.96747 80.1213 7.45844 80.0899 6.97159 79.9568C6.48474 79.8238 6.03046 79.5919 5.63714 79.2756C5.24382 78.9593 4.92003 78.5655 4.68559 78.1186C4.45115 77.6716 4.31119 77.1811 4.27458 76.6778C4.23796 76.1744 4.30531 75.6689 4.4726 75.1927C4.6399 74.7165 4.90366 74.2799 5.24707 73.91C5.59048 73.5401 6.00627 73.245 6.46874 73.0429C10.5121 70.9109 15.3642 71.4501 20.8778 74.6113C25.9751 77.614 30.1989 81.8969 33.1305 87.0354C36.2602 92.09 37.9545 97.9014 38.0315 103.846C38.0315 110.168 36.0222 114.555 32.0278 116.907C31.4239 117.277 30.726 117.464 30.0182 117.446Z" fill="#3A3A3A"></path> <path d="M26.1717 118.5C22.9694 118.376 19.8573 117.403 17.1537 115.682C12.045 112.662 7.81965 108.352 4.90105 103.185C1.78113 98.0987 0.0881943 92.2666 0 86.3006C0 79.9537 1.98501 75.5673 5.90585 73.2883C6.32325 73.0242 6.78966 72.847 7.27709 72.7672C7.76451 72.6874 8.26303 72.7066 8.74286 72.8237C9.22268 72.9409 9.67402 73.1536 10.0698 73.449C10.4656 73.7444 10.7977 74.1166 11.0465 74.5433C11.2953 74.97 11.4555 75.4424 11.5176 75.9324C11.5798 76.4224 11.5423 76.9199 11.4079 77.3952C11.2734 77.8705 11.0447 78.3138 10.7351 78.6986C10.4255 79.0835 10.0416 79.402 9.60616 79.6351C8.11134 80.5173 7.35157 82.7473 7.35157 86.3006C7.43379 90.9591 8.78048 95.5076 11.2478 99.4599C13.5165 103.486 16.7825 106.862 20.7316 109.262C23.7948 111.026 26.1716 111.492 27.8379 110.659C28.6074 110.145 29.5423 109.94 30.456 110.086C31.3696 110.231 32.1948 110.715 32.7671 111.442C33.3393 112.169 33.6164 113.085 33.5431 114.007C33.4697 114.93 33.0516 115.79 32.3716 116.418L31.9549 116.761L31.5628 117.006C29.9224 117.955 28.0668 118.469 26.1717 118.5Z" fill="#3A3A3A"></path> <path d="M29.9954 117.446C29.2066 117.459 28.4349 117.216 27.7958 116.753C27.1567 116.291 26.6845 115.634 26.45 114.881C26.2155 114.128 26.2312 113.319 26.4949 112.575C26.7585 111.832 27.2559 111.193 27.9125 110.756L28.182 110.585L81.5545 79.7815C83.2209 78.8503 84.005 76.5468 84.005 72.9691C83.9477 68.347 82.6438 63.8261 80.2311 59.8833C77.9458 55.8288 74.6328 52.4479 70.6253 50.0812C67.4396 48.2433 64.9645 47.7532 63.2737 48.6354L63.0042 48.7824L9.58261 79.6345C9.15621 79.8614 8.68913 80.0021 8.20838 80.0485C7.72762 80.0949 7.24253 80.0462 6.7806 79.9051C6.31867 79.764 5.88923 79.5334 5.51645 79.2263C5.14367 78.9191 4.83485 78.5416 4.60797 78.1152C4.3811 77.6888 4.2404 77.2219 4.19397 76.7411C4.14754 76.2603 4.19647 75.7752 4.33755 75.3133C4.47864 74.8513 4.70918 74.4217 5.01629 74.0489C5.32341 73.6761 5.70089 73.3675 6.12729 73.1406L60.0388 42.0435C64.0822 39.9605 68.8852 40.5241 74.3743 43.6608C79.4666 46.6699 83.689 50.9513 86.627 56.0849C89.7454 61.1445 91.4387 66.9528 91.528 72.8956C91.528 79.3404 89.4453 83.7758 85.3039 86.1038L32.005 116.858C31.404 117.24 30.7072 117.443 29.9954 117.446Z" fill="#3A3A3A"></path> <path d="M168.082 99.6318L184.918 126.931C183.838 127.856 182.672 128.676 181.438 129.381L131.398 157.807L114.563 130.508L163.206 102.376C164.974 101.742 166.623 100.815 168.082 99.6318Z" fill="#3A3A3A"></path> <path d="M163.205 102.376L168.107 99.5575C166.645 100.769 164.988 101.722 163.205 102.376Z" fill="white"></path> <path d="M163.205 102.376L114.562 130.459C108.517 135.36 101.166 135.36 92.5074 130.459C87.3201 127.414 82.7285 123.454 78.9559 118.77C74.9902 113.931 71.8749 108.453 69.7422 102.572C67.5878 96.8187 66.4757 90.7278 66.4583 84.5848C66.1878 79.632 67.3266 74.7039 69.7422 70.3717C70.6924 68.7498 72.0331 67.3912 73.6424 66.4197C75.2516 65.4482 77.0781 64.8945 78.9559 64.8091C83.7647 64.774 88.4776 66.1546 92.5074 68.7789C101.133 73.68 108.485 82.1343 114.562 94.1419L131.299 86.3247L132.5 87.8685C136.275 92.56 140.876 96.5215 146.076 99.5575C152.496 103.282 158.206 104.222 163.205 102.376Z" fill="#3A3A3A"></path> <path d="M114.562 130.532L131.397 157.831C129.044 159.825 126.31 161.319 123.361 162.22C120.411 163.122 117.309 163.413 114.244 163.075C106.038 162.152 98.1475 159.388 91.1598 154.989C81.1279 149.123 72.2033 141.542 64.7921 132.591C57.0882 123.445 50.8922 113.13 46.4377 102.033C42.1385 91.6135 39.8757 80.4668 39.772 69.1958C39.772 58.3971 41.9941 50.0164 46.4377 44.0535C48.2985 41.5034 50.6682 39.3672 53.3971 37.7801C56.887 35.8377 60.7989 34.7776 64.7921 34.6924C72.5848 34.4147 81.374 37.1021 91.1598 42.7547C99.7579 47.7311 107.543 53.9954 114.244 61.3296C121.123 68.7927 126.899 77.2015 131.397 86.3005L114.562 94.1666C108.517 82.2244 101.166 73.7701 92.5074 68.8037C88.4776 66.1794 83.7647 64.7988 78.9559 64.8339C77.0781 64.9193 75.2516 65.4729 73.6423 66.4445C72.0331 67.416 70.6924 68.7747 69.7422 70.3966C67.3265 74.7288 66.1878 79.6568 66.4583 84.6096C66.4757 90.7527 67.5878 96.8435 69.7422 102.596C71.8748 108.478 74.9901 113.955 78.9559 118.794C82.7285 123.479 87.3201 127.439 92.5074 130.483C101.166 135.466 108.517 135.482 114.562 130.532Z" fill="white"></path> <path d="M53.4468 37.78L106.942 6.80533C110.441 4.86455 114.361 3.8048 118.361 3.71765C126.154 3.45626 134.943 6.14369 144.729 11.7799C153.33 16.7622 161.122 23.0256 167.837 30.3548C174.723 37.8216 180.5 46.2395 184.991 55.3502L131.471 86.2268C126.974 77.1278 121.197 68.719 114.318 61.256C107.617 53.9218 99.8318 47.6575 91.2337 42.681C81.4316 37.0285 72.6424 34.3411 64.866 34.6188C60.8583 34.7225 56.9374 35.808 53.4468 37.78Z" fill="#D7DCE0"></path> <path d="M116.377 166.824C115.617 166.824 114.833 166.824 114.074 166.824C105.303 165.846 96.8621 162.915 89.3723 158.247C78.982 152.153 69.7289 144.301 62.0247 135.041C54.0744 125.584 47.6803 114.921 43.0822 103.454C38.5886 92.5694 36.2338 80.9213 36.147 69.1463C36.147 57.5798 38.5975 48.3903 43.4985 41.8229C45.6504 38.8428 48.3954 36.3399 51.5609 34.4714C55.5679 32.2347 60.059 31.0067 64.6466 30.8935C73.1744 30.5995 82.6581 33.4666 92.9993 39.4459C101.914 44.6202 109.994 51.1141 116.965 58.707C124.054 66.4458 130.011 75.15 134.658 84.5601C135.076 85.4327 135.136 86.4344 134.825 87.3505C134.513 88.2666 133.855 89.0243 132.992 89.4611H132.722L116.157 97.4743C115.285 97.8991 114.281 97.9623 113.363 97.6502C112.445 97.3381 111.688 96.676 111.256 95.808C105.546 84.5846 98.6353 76.5468 90.6711 71.9644C87.2702 69.7065 83.285 68.4887 79.2029 68.4601C77.9045 68.519 76.642 68.9047 75.5325 69.5816C74.423 70.2584 73.5022 71.2044 72.8558 72.3319C70.8214 76.0815 69.8791 80.3264 70.1357 84.5845C70.156 90.2931 71.1933 95.9524 73.1989 101.297C75.1878 106.796 78.0963 111.917 81.8003 116.441C85.2897 120.784 89.5414 124.455 94.3469 127.273C103.977 132.835 109.05 130.164 112.211 127.665C112.612 127.331 113.08 127.088 113.583 126.952C114.087 126.817 114.613 126.793 115.127 126.881C115.63 126.979 116.107 127.18 116.529 127.471C116.951 127.762 117.308 128.136 117.578 128.571L134.413 155.87C134.867 156.613 135.044 157.492 134.914 158.352C134.784 159.213 134.355 160 133.702 160.575C128.893 164.719 122.724 166.943 116.377 166.824ZM65.8964 38.3432H64.9652C61.5325 38.3791 58.1631 39.272 55.1631 40.9407C52.881 42.2832 50.9032 44.0858 49.3553 46.2338C45.41 51.5025 43.4007 59.2217 43.4007 69.1708C43.558 79.9929 45.7958 90.6835 49.9925 100.66C54.307 111.394 60.2952 121.378 67.7343 130.238C74.8782 138.848 83.4694 146.145 93.1217 151.802C99.6384 155.905 106.989 158.501 114.637 159.399C118.774 159.852 122.948 158.995 126.571 156.949L113.51 135.752C108.315 138.496 100.792 139.501 90.7938 133.718C85.2173 130.468 80.2836 126.224 76.2375 121.195C72.0464 116.057 68.7343 110.261 66.4354 104.042C64.1368 97.8793 62.9505 91.3578 62.9313 84.7806C62.6596 79.1264 63.9933 73.5107 66.7785 68.5826C68.0366 66.4672 69.793 64.6914 71.8944 63.4101C73.9958 62.1288 76.3785 61.3807 78.8352 61.231C84.3815 61.1329 89.8319 62.6853 94.4941 65.691C103.77 71.4789 111.3 79.6778 116.279 89.4121L126.473 84.6581C122.447 77.1519 117.509 70.1722 111.77 63.8777C105.305 56.8294 97.8114 50.7983 89.544 45.9888C80.6241 40.8917 72.7333 38.3432 65.8964 38.3432Z" fill="#3A3A3A"></path> <path d="M131.398 161.507C130.582 161.512 129.788 161.246 129.14 160.75C128.492 160.254 128.028 159.556 127.82 158.767C127.613 157.978 127.673 157.143 127.992 156.392C128.312 155.641 128.872 155.018 129.584 154.621L180.016 125.974L166.955 104.802C166.166 105.228 165.347 105.597 164.504 105.905C158.452 108.085 151.664 107.007 144.287 102.768C138.66 99.5212 133.676 95.2684 129.584 90.2212L128.285 88.5793C127.948 88.1252 127.717 87.6005 127.611 87.0445C127.505 86.4885 127.526 85.9157 127.673 85.3691C127.805 84.8373 128.055 84.3417 128.402 83.9179C128.75 83.4941 129.187 83.1528 129.682 82.9186L179.967 53.8799C175.909 46.249 170.894 39.167 165.043 32.8053C158.58 25.7619 151.086 19.7388 142.817 14.9411C133.701 9.67244 125.517 7.1239 118.312 7.36895C114.881 7.41714 111.515 8.30923 108.51 9.9665L54.9905 40.8676C54.1495 41.2984 53.1746 41.3887 52.2687 41.1198C51.3628 40.8509 50.5955 40.2435 50.1257 39.4237C49.6558 38.6038 49.5198 37.6345 49.7458 36.7169C49.9717 35.7994 50.5424 35.0041 51.3393 34.4962L104.834 3.59512C108.851 1.36192 113.35 0.134391 117.944 0.0173779C126.399 -0.25218 135.956 2.61491 146.297 8.56968C155.209 13.7486 163.288 20.242 170.263 27.8308C177.357 35.5604 183.307 44.2665 187.931 53.6839C188.373 54.5288 188.469 55.5123 188.199 56.4267C187.93 57.3411 187.315 58.115 186.485 58.5849L136.642 87.3786C139.81 90.9472 143.523 93.991 147.645 96.3965C153.134 99.5577 157.741 100.415 161.686 98.994C163.074 98.4772 164.367 97.7318 165.509 96.7886C165.912 96.4588 166.38 96.2184 166.883 96.0832C167.385 95.948 167.911 95.9211 168.425 96.0044C168.926 96.1067 169.402 96.3092 169.823 96.5997C170.244 96.8903 170.602 97.2629 170.876 97.6953L187.686 124.994C188.15 125.734 188.333 126.615 188.203 127.478C188.072 128.341 187.637 129.129 186.976 129.699C185.723 130.801 184.36 131.77 182.908 132.591L133.309 161.017C132.728 161.349 132.067 161.518 131.398 161.507Z" fill="#3A3A3A"></path> <path d="M114.563 134.233C113.753 134.234 112.965 133.967 112.323 133.475C111.68 132.982 111.218 132.291 111.008 131.508C110.799 130.726 110.853 129.896 111.164 129.148C111.474 128.4 112.023 127.776 112.725 127.372L166.244 96.4705C166.663 96.2292 167.125 96.0726 167.604 96.0097C168.082 95.9468 168.569 95.9789 169.035 96.104C169.502 96.2292 169.939 96.445 170.322 96.7392C170.705 97.0333 171.027 97.4 171.268 97.8184C171.509 98.2367 171.666 98.6985 171.729 99.1773C171.792 99.6562 171.76 100.143 171.634 100.609C171.509 101.076 171.294 101.513 170.999 101.896C170.705 102.279 170.338 102.601 169.92 102.842L116.401 133.743C115.845 134.073 115.209 134.242 114.563 134.233Z" fill="#3A3A3A"></path> <path d="M233.462 152.17C237.796 162.539 240.085 173.648 240.201 184.885C240.201 195.594 237.946 203.876 233.462 209.807C231.605 212.323 229.253 214.433 226.551 216.006C222.988 217.993 218.99 219.07 214.911 219.143C207.021 219.437 198.142 216.725 188.274 211.007C178.131 205.097 169.113 197.44 161.637 188.389C153.854 179.192 147.591 168.809 143.086 157.635C138.74 147.27 136.451 136.159 136.347 124.921C136.347 114.212 138.577 105.929 143.086 99.9741C144.942 97.4731 147.285 95.3727 149.972 93.7988C153.523 91.807 157.517 90.737 161.588 90.6867C169.462 90.409 178.341 93.1208 188.225 98.8224C198.354 104.752 207.369 112.407 214.862 121.441C222.638 130.643 228.915 141.014 233.462 152.17ZM213.514 169.471C213.491 163.306 212.354 157.196 210.157 151.435C208.031 145.611 204.968 140.173 201.09 135.335C197.553 130.817 193.207 126.994 188.274 124.063C184.472 121.585 179.992 120.351 175.458 120.534C173.608 120.689 171.821 121.278 170.241 122.253C168.662 123.228 167.334 124.562 166.366 126.146C163.92 130.459 162.763 135.383 163.034 140.334C163.06 146.497 164.189 152.605 166.366 158.37C168.516 164.188 171.586 169.624 175.458 174.47C178.99 178.993 183.337 182.817 188.274 185.742C192.075 188.224 196.555 189.457 201.09 189.271C202.937 189.118 204.722 188.53 206.298 187.554C207.874 186.579 209.196 185.244 210.157 183.66C212.623 179.354 213.789 174.426 213.514 169.471Z" fill="white"></path> <path d="M210.156 151.387C212.353 157.147 213.49 163.257 213.514 169.422C213.789 174.377 212.623 179.305 210.156 183.611C209.196 185.196 207.873 186.53 206.297 187.506C204.721 188.481 202.937 189.07 201.09 189.223C196.554 189.409 192.074 188.175 188.273 185.694C183.336 182.768 178.989 178.945 175.457 174.422C171.585 169.575 168.516 164.14 166.366 158.322C164.188 152.556 163.06 146.448 163.033 140.286C162.763 135.335 163.92 130.41 166.366 126.097C167.333 124.513 168.661 123.18 170.241 122.205C171.82 121.23 173.607 120.641 175.457 120.486C179.992 120.303 184.471 121.536 188.273 124.014C193.207 126.946 197.552 130.768 201.09 135.287C204.968 140.124 208.03 145.562 210.156 151.387Z" fill="#3A3A3A"></path> <path d="M150.021 93.7745L203.492 62.8979C207.063 60.9089 211.069 59.8314 215.156 59.7612C223.014 59.4671 231.893 62.1791 241.793 67.8969C251.924 73.8145 260.933 81.471 268.406 90.5153C276.191 99.7153 282.462 110.097 286.981 121.269C291.316 131.638 293.604 142.747 293.72 153.984C293.72 164.668 291.474 172.975 286.981 178.906C285.117 181.415 282.767 183.524 280.071 185.106L226.551 216.007C229.253 214.433 231.605 212.323 233.462 209.807C237.946 203.877 240.201 195.594 240.201 184.885C240.085 173.648 237.796 162.539 233.462 152.171C228.932 141.008 222.672 130.63 214.911 121.416C207.418 112.382 198.403 104.728 188.274 98.7981C178.374 93.0802 169.495 90.3683 161.637 90.6623C157.566 90.7127 153.572 91.7826 150.021 93.7745Z" fill="#D7DCE0"></path> <path d="M213.785 222.844C205.551 222.844 196.362 219.928 186.437 214.193C175.93 208.062 166.582 200.133 158.82 190.766C150.784 181.235 144.323 170.48 139.681 158.91C135.17 148.105 132.79 136.53 132.672 124.823C132.672 113.354 135.123 104.238 140.024 97.6708C142.182 94.7671 144.909 92.3327 148.037 90.5154C152.085 88.247 156.631 87.0178 161.27 86.9376C169.798 86.6435 179.453 89.5351 189.892 95.5634C200.387 101.702 209.726 109.63 217.485 118.99C225.49 128.503 231.956 139.211 236.648 150.725C241.159 161.538 243.539 173.12 243.657 184.836C243.657 196.304 241.206 205.42 236.305 211.988C234.134 214.889 231.4 217.323 228.267 219.143C224.188 221.427 219.611 222.673 214.937 222.77L213.785 222.844ZM151.738 97.0338C149.482 98.3324 147.528 100.095 146.003 102.204C142.034 107.448 140.024 115.094 140.024 124.921C140.148 135.687 142.344 146.328 146.493 156.263C150.869 167.075 156.931 177.125 164.456 186.037C171.665 194.746 180.35 202.12 190.113 207.822C199.327 213.164 207.634 215.737 214.765 215.468C218.248 215.416 221.666 214.507 224.714 212.821C226.992 211.484 228.976 209.7 230.547 207.577C234.516 202.333 236.526 194.712 236.526 184.885C236.402 174.119 234.205 163.478 230.056 153.543C225.66 142.741 219.599 132.695 212.094 123.769C204.867 115.077 196.186 107.705 186.437 101.984C177.223 96.6662 168.867 94.0931 161.76 94.3382C158.326 94.3878 154.958 95.2887 151.958 96.9602L151.738 97.0338Z" fill="#3A3A3A"></path> <path d="M199.767 193.045C195.042 192.874 190.445 191.462 186.437 188.953C181.092 185.775 176.395 181.618 172.591 176.7C168.469 171.54 165.209 165.747 162.936 159.546C160.593 153.377 159.381 146.836 159.358 140.236C159.058 134.567 160.43 128.934 163.304 124.038C164.557 121.971 166.279 120.229 168.331 118.952C170.383 117.674 172.708 116.898 175.115 116.687C180.41 116.445 185.649 117.849 190.113 120.706C195.447 123.896 200.142 128.051 203.958 132.958C208.077 138.12 211.338 143.912 213.613 150.112C215.96 156.28 217.172 162.822 217.191 169.422C217.488 175.091 216.117 180.723 213.245 185.62C211.988 187.683 210.264 189.422 208.213 190.699C206.162 191.976 203.84 192.754 201.434 192.972C200.895 193.045 200.331 193.045 199.767 193.045ZM176.782 124.161H175.801C174.503 124.266 173.249 124.682 172.144 125.372C171.04 126.063 170.117 127.009 169.454 128.131C167.394 131.871 166.442 136.121 166.71 140.383C166.737 146.104 167.791 151.773 169.822 157.12C171.834 162.573 174.705 167.669 178.325 172.216C181.57 176.386 185.568 179.91 190.113 182.606C193.263 184.685 196.974 185.754 200.748 185.669C202.048 185.559 203.303 185.139 204.407 184.444C205.511 183.749 206.433 182.799 207.095 181.675C209.16 177.936 210.113 173.684 209.839 169.422C209.814 163.701 208.76 158.032 206.727 152.685C204.72 147.23 201.849 142.133 198.224 137.59C194.978 133.421 190.98 129.897 186.437 127.199C183.535 125.367 180.209 124.312 176.782 124.136V124.161Z" fill="#3A3A3A"></path> <path d="M226.551 219.682C225.741 219.683 224.953 219.417 224.31 218.924C223.668 218.431 223.206 217.74 222.996 216.958C222.786 216.175 222.841 215.346 223.152 214.597C223.462 213.849 224.011 213.225 224.713 212.821L278.232 181.92C280.499 180.587 282.474 178.812 284.04 176.7C288.01 171.456 290.044 163.81 290.044 153.984C289.92 143.218 287.724 132.577 283.574 122.641C279.182 111.838 273.121 101.791 265.612 92.8676C258.393 84.1679 249.71 76.7955 239.955 71.0825C230.692 65.7404 222.385 63.1673 215.278 63.4368C211.795 63.488 208.378 64.397 205.329 66.0834L151.614 97.0825C151.185 97.3004 150.717 97.4307 150.237 97.466C149.758 97.5012 149.276 97.4406 148.819 97.2878C148.363 97.135 147.942 96.8931 147.58 96.576C147.219 96.2588 146.924 95.8729 146.713 95.4407C146.286 94.5722 146.22 93.5704 146.527 92.6529C146.834 91.7353 147.491 90.976 148.355 90.5397L201.678 59.761C205.765 57.4712 210.35 56.2176 215.033 56.1098C223.586 55.7912 233.192 58.7074 243.656 64.7357C254.147 70.8792 263.484 78.8072 271.249 88.1627C279.28 97.702 285.748 108.454 290.411 120.019C294.927 130.823 297.307 142.398 297.42 154.106C297.42 165.575 294.97 174.691 289.922 181.258C287.765 184.154 285.048 186.588 281.933 188.414L228.389 219.315C227.821 219.603 227.186 219.73 226.551 219.682Z" fill="#3A3A3A"></path> <path d="M416.125 170.648V278.692L362.606 309.593V201.672L416.125 170.648Z" fill="#3A3A3A"></path> <path d="M416.125 170.647L362.606 201.671L362.483 201.524L340.723 188.977L394.218 158.076L416.125 170.647Z" fill="#D7DCE0"></path> <path d="M362.605 201.671V309.592L338.32 295.575V238.233L314.158 270.899L302.395 264.111L278.503 205.298V260.949L254.071 246.859V138.962L275.832 151.509L308.669 232.744L340.722 188.978L361.943 201.23L362.188 201.843L362.605 201.671Z" fill="white"></path> <path d="M362.479 201.524L362.6 201.669L362.188 201.839L362.43 201.524H362.479Z" fill="white"></path> <path d="M362.43 201.523L362.186 201.84L361.943 201.23L362.43 201.523Z" fill="white"></path> <path d="M329.327 120.607L353.906 181.356L340.722 188.977L308.669 232.744L275.832 151.509L329.327 120.607Z" fill="#3A3A3A"></path> <path d="M329.327 120.608L275.832 151.509L254.071 138.962L307.59 108.037L329.327 120.608Z" fill="#D7DCE0"></path> <path d="M278.502 205.298L296.808 250.364L278.502 260.95V205.298Z" fill="#3A3A3A"></path> <path d="M362.752 313.268C362.107 313.266 361.474 313.097 360.914 312.778L336.604 298.761C336.035 298.441 335.558 297.98 335.219 297.422C334.88 296.864 334.69 296.228 334.669 295.575V249.408L317.123 273.129C316.587 273.888 315.782 274.416 314.871 274.602C313.961 274.789 313.013 274.621 312.222 274.133L300.459 267.345C299.759 266.931 299.21 266.304 298.891 265.556L282.08 224.167V260.925C282.086 261.572 281.918 262.208 281.595 262.768C281.272 263.328 280.805 263.792 280.242 264.111C279.684 264.436 279.05 264.607 278.404 264.607C277.759 264.607 277.124 264.436 276.566 264.111L252.061 250.02C251.505 249.694 251.044 249.228 250.722 248.67C250.4 248.112 250.228 247.479 250.223 246.834V139.011C250.225 138.366 250.396 137.733 250.719 137.174C251.041 136.615 251.504 136.15 252.061 135.826C252.619 135.501 253.253 135.329 253.899 135.329C254.545 135.329 255.179 135.501 255.737 135.826L277.498 148.372C278.213 148.768 278.768 149.4 279.066 150.161L309.453 225.294L337.585 186.846C338.124 186.09 338.929 185.567 339.838 185.381C340.747 185.194 341.693 185.359 342.486 185.841L364.197 198.388C364.785 198.695 365.282 199.151 365.639 199.709C365.996 200.268 366.2 200.911 366.231 201.573V309.641C366.257 310.277 366.111 310.909 365.809 311.469C365.508 312.029 365.061 312.498 364.516 312.827C363.973 313.117 363.367 313.268 362.752 313.268ZM341.996 293.443L358.953 303.246V203.656L341.799 193.854L311.732 234.949C311.343 235.479 310.82 235.896 310.218 236.159C309.615 236.421 308.954 236.52 308.301 236.444C307.652 236.363 307.036 236.108 306.518 235.707C306.001 235.306 305.601 234.774 305.36 234.165L272.989 154.058L257.844 145.309V244.727L274.998 254.529V205.298C275 204.446 275.298 203.621 275.841 202.965C276.384 202.308 277.138 201.861 277.975 201.699C278.811 201.537 279.678 201.67 280.427 202.076C281.175 202.483 281.76 203.136 282.08 203.926L305.336 261.66L313.153 266.169L335.208 236.15C335.662 235.525 336.303 235.06 337.038 234.822C337.774 234.584 338.566 234.586 339.3 234.827C340.049 235.063 340.707 235.523 341.184 236.146C341.662 236.768 341.937 237.523 341.971 238.307L341.996 293.443Z" fill="#3A3A3A"></path> <path d="M362.751 313.268C361.941 313.269 361.154 313.002 360.511 312.51C359.868 312.017 359.406 311.326 359.197 310.543C358.987 309.761 359.042 308.931 359.352 308.183C359.663 307.435 360.212 306.811 360.913 306.407L412.374 276.584V172.755L394.142 162.316L342.461 192.163C341.616 192.651 340.612 192.782 339.67 192.53C338.728 192.277 337.925 191.66 337.438 190.815C336.95 189.97 336.818 188.967 337.071 188.024C337.324 187.082 337.94 186.279 338.785 185.792L392.305 154.891C392.862 154.566 393.497 154.394 394.142 154.394C394.788 154.394 395.422 154.566 395.98 154.891L417.741 167.462C418.313 167.777 418.795 168.233 419.143 168.786C419.49 169.339 419.691 169.971 419.726 170.623V278.814C419.749 279.449 419.602 280.079 419.301 280.639C418.999 281.199 418.554 281.669 418.011 281.999L364.491 312.901C363.952 313.171 363.353 313.297 362.751 313.268Z" fill="#3A3A3A"></path> <path d="M362.212 205.519C361.402 205.52 360.615 205.253 359.972 204.761C359.329 204.268 358.867 203.577 358.657 202.794C358.448 202.012 358.503 201.182 358.813 200.434C359.124 199.686 359.673 199.062 360.375 198.658L414.163 167.462C414.581 167.181 415.052 166.988 415.548 166.896C416.043 166.804 416.552 166.815 417.043 166.928C417.534 167.041 417.997 167.254 418.402 167.553C418.807 167.853 419.147 168.232 419.399 168.668C419.652 169.104 419.812 169.587 419.87 170.088C419.928 170.588 419.882 171.095 419.736 171.577C419.589 172.06 419.346 172.507 419.019 172.89C418.693 173.274 418.291 173.587 417.839 173.809L363.928 205.029C363.407 205.336 362.817 205.504 362.212 205.519Z" fill="#3A3A3A"></path> <path d="M275.831 155.184C275.022 155.185 274.234 154.919 273.591 154.426C272.948 153.933 272.486 153.242 272.277 152.46C272.067 151.677 272.122 150.848 272.432 150.1C272.743 149.352 273.292 148.727 273.994 148.323L327.513 117.422C328.358 116.934 329.362 116.803 330.304 117.055C331.246 117.308 332.049 117.925 332.537 118.77C333.024 119.615 333.156 120.618 332.903 121.561C332.65 122.503 332.034 123.306 331.189 123.793L277.669 154.694C277.108 155.01 276.476 155.178 275.831 155.184Z" fill="#3A3A3A"></path> <path d="M353.856 185.032C353.122 185.035 352.405 184.817 351.798 184.406C351.19 183.995 350.72 183.411 350.45 182.729L326.337 123.157L307.516 112.276L255.835 142.148C254.99 142.636 253.986 142.767 253.044 142.515C252.102 142.262 251.299 141.645 250.811 140.8C250.324 139.955 250.192 138.951 250.445 138.009C250.697 137.067 251.314 136.264 252.159 135.777L305.752 104.827C306.31 104.502 306.944 104.33 307.59 104.33C308.236 104.33 308.87 104.502 309.428 104.827L331.189 117.398C331.895 117.816 332.445 118.452 332.757 119.211L357.262 179.935C357.458 180.39 357.56 180.879 357.563 181.373C357.566 181.868 357.47 182.359 357.28 182.815C357.091 183.272 356.811 183.687 356.459 184.034C356.106 184.381 355.688 184.654 355.228 184.836C354.786 184.981 354.321 185.047 353.856 185.032Z" fill="#3A3A3A"></path> <path d="M362.212 205.518H361.722C361.073 205.435 360.459 205.179 359.942 204.778C359.425 204.378 359.025 203.847 358.782 203.239L358.537 202.602C358.25 201.869 358.206 201.063 358.412 200.303C358.618 199.543 359.062 198.87 359.679 198.381C360.297 197.893 361.055 197.616 361.841 197.59C362.628 197.565 363.403 197.793 364.05 198.24C364.268 198.339 364.473 198.462 364.663 198.608C365.437 199.197 365.949 200.067 366.086 201.03C366.224 201.993 365.976 202.972 365.398 203.754L365.153 204.073C364.805 204.522 364.36 204.886 363.85 205.136C363.34 205.387 362.78 205.518 362.212 205.518Z" fill="#3A3A3A"></path> <path d="M278.503 264.625C277.69 264.637 276.897 264.378 276.248 263.888C275.6 263.399 275.133 262.707 274.922 261.922C274.711 261.137 274.768 260.304 275.083 259.556C275.399 258.807 275.956 258.185 276.665 257.788L294.97 247.202C295.809 246.752 296.79 246.646 297.706 246.905C298.622 247.164 299.401 247.768 299.881 248.591C300.36 249.413 300.502 250.389 300.276 251.314C300.05 252.239 299.475 253.04 298.67 253.548L280.34 264.11C279.787 264.449 279.151 264.627 278.503 264.625Z" fill="#3A3A3A"></path> </svg> 