<?xml version="1.0" encoding="UTF-8"?> <svg xmlns="http://www.w3.org/2000/svg" width="21" height="13" viewBox="0 0 21 13" fill="none"> <path d="M20.369 9.48315L20.8897 10.0712C20.7447 9.85168 20.5694 9.6537 20.369 9.48315Z" fill="#E0DFE6"></path> <path d="M9.82234 7.37402C9.52476 7.37402 9.23937 7.49224 9.02895 7.70266C8.81853 7.91308 8.70032 8.19847 8.70032 8.49605V11.1889C8.70032 11.4865 8.81853 11.7719 9.02895 11.9823C9.23937 12.1927 9.52476 12.3109 9.82234 12.3109C10.1199 12.3109 10.4053 12.1927 10.6157 11.9823C10.8262 11.7719 10.9444 11.4865 10.9444 11.1889V8.49605C10.9444 8.19847 10.8262 7.91308 10.6157 7.70266C10.4053 7.49224 10.1199 7.37402 9.82234 7.37402Z" fill="#3A3A3A"></path> <path d="M9.82234 2.24548e-08C9.52476 2.24548e-08 9.23937 0.118202 9.02895 0.328622C8.81853 0.539043 8.70032 0.824445 8.70032 1.12202V4.22329C8.70032 4.52087 8.81853 4.80627 9.02895 5.01669C9.23937 5.22711 9.52476 5.34531 9.82234 5.34531C10.1199 5.34531 10.4053 5.22711 10.6157 5.01669C10.8262 4.80627 10.9444 4.52087 10.9444 4.22329V1.14446C10.9474 0.995235 10.9205 0.846913 10.8655 0.708182C10.8104 0.569451 10.7283 0.443103 10.6238 0.336525C10.5193 0.229947 10.3946 0.145279 10.257 0.0874938C10.1194 0.0297087 9.9716 -2.98313e-05 9.82234 2.24548e-08Z" fill="#3A3A3A"></path> <path d="M5.46201 5.02661H1.12202C0.824445 5.02661 0.539054 5.14483 0.328634 5.35525C0.118214 5.56567 0 5.85106 0 6.14864C0 6.44621 0.118214 6.7316 0.328634 6.94202C0.539054 7.15244 0.824445 7.27066 1.12202 7.27066H5.46201C5.75959 7.27066 6.04499 7.15244 6.25541 6.94202C6.46583 6.7316 6.58404 6.44621 6.58404 6.14864C6.58404 5.85106 6.46583 5.56567 6.25541 5.35525C6.04499 5.14483 5.75959 5.02661 5.46201 5.02661Z" fill="#3A3A3A"></path> <path d="M18.5205 5.02661H13.8394C13.5419 5.02661 13.2565 5.14483 13.046 5.35525C12.8356 5.56567 12.7174 5.85106 12.7174 6.14864C12.7174 6.44621 12.8356 6.7316 13.046 6.94202C13.2565 7.15244 13.5419 7.27066 13.8394 7.27066H18.5205C18.8181 7.27066 19.1035 7.15244 19.3139 6.94202C19.5243 6.7316 19.6425 6.44621 19.6425 6.14864C19.6425 5.85106 19.5243 5.56567 19.3139 5.35525C19.1035 5.14483 18.8181 5.02661 18.5205 5.02661Z" fill="#3A3A3A"></path> </svg> 