<?xml version="1.0" encoding="UTF-8"?> <svg xmlns="http://www.w3.org/2000/svg" width="333" height="229" viewBox="0 0 333 229" fill="none"> <path d="M42.8168 46.4794C40.8773 47.7315 38.9623 48.9344 37.1701 50.432C36.8991 50.5895 36.637 50.7615 36.3847 50.9475H37.563C46.4005 50.004 55.2969 49.7333 64.1754 50.1374L64.47 46.2094C57.2549 45.7904 50.0193 45.8806 42.8168 46.4794Z" fill="#E7E6ED"></path> <path d="M163.799 119.516L166.671 116.84C160.19 109.868 153.488 101.889 146.221 92.4618C138.954 83.0345 131.638 72.8214 124.666 63.1977C117.694 53.574 110.525 43.5578 103.16 33.9832L102.301 32.8782L97.7098 33.3694C98.4954 34.3514 99.2565 35.3579 100.165 36.389C107.53 45.8409 114.649 55.8328 121.573 65.481C128.496 75.1293 135.787 85.2686 143.202 94.9414C150.616 104.614 157.22 112.446 163.799 119.516Z" fill="#E7E6ED"></path> <path d="M271.302 44.6606L268.193 47.0616L326.493 122.547L329.601 120.146L271.302 44.6606Z" fill="#E7E6ED"></path> <path d="M80.6381 44.5617L77.5294 46.9627L135.829 122.448L138.938 120.047L80.6381 44.5617Z" fill="#E7E6ED"></path> <path d="M191.91 113.526C181.068 102.052 170.849 90.0048 161.296 77.4373C155.453 69.8758 126.385 31.1109 126.164 30.7918L121.426 31.0864C122.187 32.0929 152.335 72.2325 158.251 79.794C167.889 92.4872 178.207 104.649 189.16 116.227L191.91 113.526Z" fill="#E7E6ED"></path> <path d="M258.858 89.1732L255.888 91.6282C258.195 94.3042 260.798 97.422 263.842 100.736C271.207 109.231 279.775 118.854 285.372 126.097L288.49 123.642C282.819 116.276 274.3 106.604 266.788 98.0604C263.964 94.967 261.313 91.8492 258.858 89.1732Z" fill="#E7E6ED"></path> <path d="M98.4459 99.2387C88.6258 88.1419 77.75 75.5476 73.8956 70.7112L70.8023 73.1663C74.583 78.0763 85.5324 90.7196 95.3525 101.865C102.865 110.458 110.083 118.584 111.85 121.039C113.618 123.494 115.165 125.507 116.589 127.668L119.878 125.507C118.405 123.273 116.785 121.015 114.968 118.633C113.151 116.252 106.327 108.249 98.4459 99.2387Z" fill="#E7E6ED"></path> <path d="M291.584 102.184C286.821 96.979 281.911 91.6271 277.59 86.0297C273.564 80.825 268.531 74.9085 263.793 69.8266L260.921 72.5025C265.585 77.4125 270.544 83.3045 274.472 88.411C278.916 94.1557 283.875 99.5815 288.663 104.835C293.45 110.089 298.335 115.367 302.656 120.989C304.424 123.272 305.971 125.433 307.394 127.618L310.684 125.458C309.211 123.199 307.591 120.94 305.774 118.583C301.33 112.839 296.371 107.413 291.584 102.184Z" fill="#E7E6ED"></path> <path d="M234.11 120.523C236.16 120.691 238.223 120.533 240.223 120.056L239.143 116.275C237.533 116.634 235.876 116.742 234.233 116.595C232.731 116.449 231.218 116.449 229.716 116.595L230.28 120.474C231.556 120.365 232.839 120.382 234.11 120.523Z" fill="#E7E6ED"></path> <path d="M64.0779 118.805C65.3791 120.695 66.8521 122.88 68.988 125.63L72.1059 123.175C70.0191 120.499 68.5952 118.265 67.1959 116.546C64.9371 112.96 62.2494 109.662 59.1925 106.726L56.4917 109.574C59.3963 112.321 61.9451 115.423 64.0779 118.805Z" fill="#E7E6ED"></path> <path d="M61.3998 62.0195H53.5439C44.313 62.0195 32.6269 61.8231 23.0278 62.3387C21.8002 63.6644 20.5728 65.0639 19.4435 66.4878C29.4355 65.7268 43.0609 65.8493 53.5193 65.9475H61.3998V62.0195Z" fill="#E7E6ED"></path> <path d="M243.367 78.4434C239.267 78.6644 225.077 78.4434 220.191 78.4434C218.816 78.4434 217.54 78.4434 216.116 78.4434C214.274 78.4434 212.212 78.6644 209.389 78.4434L209.242 82.3714H211.5C213.415 82.3714 214.937 82.3713 216.41 82.1994C217.883 82.0275 218.865 82.0521 220.191 82.1994C225.101 82.1994 239.463 82.4204 243.661 82.1994L243.367 78.4434Z" fill="#E7E6ED"></path> <path d="M260.551 124.648L264.16 123.077C260.647 116.554 255.673 110.933 249.626 106.653L247.613 110.016C252.957 113.874 257.376 118.872 260.551 124.648Z" fill="#E7E6ED"></path> <path d="M69.9436 93.7385L67.4886 96.9056C78.0207 104.663 86.8832 116.128 94.6656 126.218L97.7836 123.763C89.952 113.526 80.9176 101.84 69.9436 93.7385Z" fill="#E7E6ED"></path> <path d="M45.2711 116.717C44.0802 116.582 42.8779 116.582 41.6869 116.717L42.4478 120.571C43.3117 120.461 44.1863 120.461 45.0503 120.571H46.6215C47.7789 120.603 48.9309 120.403 50.0095 119.982L48.5608 116.349C47.4985 116.684 46.3812 116.809 45.2711 116.717Z" fill="#E7E6ED"></path> <path d="M232.564 102.578C234.821 102.455 237.083 102.455 239.34 102.578L239.585 98.6742C237.206 98.5392 234.821 98.5392 232.441 98.6742C230.232 98.6742 227.85 98.6742 225.076 98.6742C222.53 98.5697 219.98 98.627 217.441 98.846L217.858 102.75C220.235 102.574 222.62 102.525 225.002 102.602C227.85 102.7 230.281 102.651 232.564 102.578Z" fill="#E7E6ED"></path> <path d="M249.282 62.0199H241.426C228.66 62.0199 211.18 61.7498 201.016 63.2228L201.581 67.1019C211.401 65.678 228.758 65.8251 241.402 65.9478H249.282V62.0199Z" fill="#E7E6ED"></path> <path d="M185.477 29.5401H172.613V33.4681H242.655C225.789 31.5777 208.873 30.2522 191.86 29.6875C189.749 29.6139 187.662 29.5892 185.477 29.5401Z" fill="#E7E6ED"></path> <path d="M55.4836 78.4434C51.3837 78.6644 37.1935 78.4434 32.308 78.4434C30.9332 78.4434 29.6322 78.4434 28.2083 78.4434C26.3916 78.4434 24.3291 78.6644 21.5058 78.4434L21.3587 82.3714H23.6174C25.5078 82.3714 27.0545 82.3713 28.5275 82.1994C30.0005 82.0275 30.9823 82.0521 32.308 82.1994C37.2181 82.1994 51.5801 82.4204 55.7782 82.1994L55.4836 78.4434Z" fill="#E7E6ED"></path> <path d="M51.7031 98.6488C49.3236 98.5138 46.9383 98.5138 44.5589 98.6488C42.3248 98.6488 39.968 98.6488 37.1938 98.6488C34.6477 98.544 32.0975 98.6012 29.5587 98.8205L29.9761 102.724C32.3532 102.549 34.738 102.5 37.1204 102.577C39.9191 102.577 42.3494 102.577 44.6326 102.577C46.8895 102.454 49.1515 102.454 51.4085 102.577L51.7031 98.6488Z" fill="#E7E6ED"></path> <path d="M205.806 47.9772C199.806 48.0406 193.818 47.4229 187.958 46.1359L187.074 49.9659C193.224 51.3234 199.508 51.9739 205.806 51.9051C212.361 51.9051 218.965 51.3406 225.446 50.8251C234.283 49.8816 243.18 49.6106 252.058 50.0147L252.378 46.0867C243.286 45.668 234.177 45.939 225.127 46.8971C218.719 47.4617 212.213 47.9772 205.806 47.9772Z" fill="#E7E6ED"></path> <path d="M222.034 120.744C200.479 91.063 182.753 67.2245 166.059 45.6939C161.787 40.1701 157.614 34.8183 153.465 29.5646H148.555C153.285 35.5385 158.088 41.676 162.966 47.9773C179.562 69.4833 197.336 93.2971 218.842 122.929L222.034 120.744Z" fill="#E7E6ED"></path> <path d="M35.4522 120.745C25.6321 107.291 16.7204 95.0899 8.27514 83.7232C7.58773 85.0734 6.94935 86.3989 6.36015 87.7492C14.4372 98.6249 22.9805 110.262 32.2605 123.052L35.4522 120.745Z" fill="#E7E6ED"></path> <path d="M5.47466 113.526L0.564608 108.174C0.319106 109.868 0.122751 111.587 0 113.33L2.74962 116.251L5.47466 113.526Z" fill="#E7E6ED"></path> <path d="M271.846 172.988C263.278 173.773 253.9 174.141 243.147 174.141C232.393 174.141 221.051 173.773 210.323 173.38C199.594 172.987 188.424 172.644 177.573 172.644C171.558 172.644 166.108 172.644 160.928 172.988V176.916H162.597C167.262 176.719 172.147 176.646 177.499 176.646C188.277 176.646 199.373 177.014 210.102 177.382C220.83 177.75 232.197 178.143 243.073 178.143C253.949 178.143 263.45 177.775 272.141 176.965L271.846 172.988Z" fill="#E7E6ED"></path> <path d="M258.76 194.518H172.589V198.446H258.76V194.518Z" fill="#E7E6ED"></path> <path d="M225.372 215.828C234.21 214.884 243.106 214.614 251.985 215.018L252.304 211.089C243.213 210.671 234.103 210.942 225.053 211.9C218.719 212.44 212.189 212.98 205.806 212.98C199.806 213.043 193.818 212.426 187.958 211.139L187.074 214.969C193.224 216.326 199.508 216.977 205.806 216.908C212.361 216.908 218.965 216.343 225.372 215.828Z" fill="#E7E6ED"></path> <path d="M80.6483 209.42L77.5304 211.875L79.2488 214.109C81.4419 214.862 83.6516 215.574 85.8775 216.245L80.6483 209.42Z" fill="#E7E6ED"></path> <path d="M201.115 228.79C209.044 228.422 216.974 227.808 224.88 226.9C216.907 226.826 208.937 227.244 201.016 228.152L201.115 228.79Z" fill="#E7E6ED"></path> <path d="M105.592 136.702L102.622 139.157C121.795 161.252 141.485 185.311 162.843 212.955C166.837 218.126 170.929 223.462 175.119 228.961C176.763 228.961 178.408 228.961 180.029 228.961C175.217 222.611 170.511 216.457 165.912 210.5C144.554 183.003 124.815 158.772 105.592 136.702Z" fill="#E7E6ED"></path> <path d="M293.228 139.279C305.356 153.199 317.778 168.003 330.545 183.986C331.404 182.955 332.239 181.923 333 180.843C320.307 165.082 308.106 150.474 296.174 136.653L293.228 139.279Z" fill="#E7E6ED"></path> <path d="M280.388 188.503C283.702 192.456 287.09 196.678 290.723 201.367C292.851 204.133 294.979 206.949 297.106 209.813C298.309 209.248 299.562 208.659 300.691 208.045C298.416 204.984 296.133 201.957 293.841 198.962C289.766 193.683 285.985 188.994 282.254 184.624L279.209 187.079L280.339 188.528L280.388 188.503Z" fill="#E7E6ED"></path> <path d="M275.233 155.287C268.219 156.034 261.149 156.117 254.119 155.532C250.142 155.311 246.042 155.066 240.715 155.066C232.098 155.066 197.654 154.452 189.012 154.452C174.609 154.333 160.21 154.989 145.877 156.416L146.295 160.32C160.489 158.913 174.749 158.265 189.012 158.38C197.629 158.38 232.073 158.994 240.715 158.994C245.92 158.994 249.97 159.239 253.898 159.46C261.141 160.06 268.424 159.969 275.65 159.19L275.233 155.287Z" fill="#E7E6ED"></path> <path d="M285.274 135.843C276.46 135.598 269.586 135.327 263.449 135.106C249.823 134.591 240.003 134.223 220.609 134.223C188.963 134.223 160.755 134.984 134.388 136.53L134.609 140.459C160.902 138.912 189.037 138.151 220.535 138.151C239.856 138.151 249.652 138.519 263.228 139.034C269.39 139.255 276.264 139.526 285.078 139.771L285.274 135.843Z" fill="#E7E6ED"></path> <path d="M75.3923 139.034C81.579 139.255 88.4286 139.526 97.2667 139.771V135.843C88.4777 135.598 81.6036 135.327 75.4415 135.106C61.8406 134.591 52.0204 134.223 32.6257 134.223C21.4798 134.223 10.8005 134.223 0.464851 134.517C0.661254 135.827 0.882254 137.128 1.12776 138.421C11.267 138.249 21.7253 138.151 32.6257 138.151C52.0449 138.151 61.8406 138.519 75.3923 139.034Z" fill="#E7E6ED"></path> <path d="M46.8668 198.446H70.877V194.517H41.2201C43.0368 195.892 44.9519 197.194 46.8668 198.446Z" fill="#E7E6ED"></path> <path d="M126.852 196.678C117.208 183.99 106.89 171.828 95.9434 160.246L93.12 162.971C103.968 174.448 114.188 186.503 123.734 199.084C129.577 206.621 143.522 225.377 144.823 227.096C146.591 227.292 148.333 227.464 150.101 227.612C148.088 224.936 132.695 204.24 126.852 196.678Z" fill="#E7E6ED"></path> <path d="M83.9625 172.987C75.3944 173.773 65.9915 174.141 55.2631 174.141C44.5346 174.141 33.1678 173.773 22.4394 173.38L17.5293 173.233C18.6095 174.608 19.7634 175.958 20.9173 177.284H22.1939C33.0206 177.652 44.2893 178.045 55.1651 178.045C66.0408 178.045 75.5172 177.676 84.2325 176.866L83.9625 172.987Z" fill="#E7E6ED"></path> <path d="M286.601 160.246L283.778 162.971C294.625 174.449 304.844 186.504 314.392 199.084L314.539 199.256C315.595 198.47 316.601 197.66 317.632 196.801V196.654C307.954 183.966 297.595 171.812 286.601 160.246Z" fill="#E7E6ED"></path> <path d="M89.7301 188.503C93.0444 192.456 96.4322 196.678 100.066 201.367C105.54 208.462 110.942 215.852 116.245 223.168L121.719 224.076C115.68 215.68 109.444 207.137 103.159 198.962C99.1083 193.683 95.3276 188.994 91.596 184.624L88.5518 187.079L89.681 188.528L89.7301 188.503Z" fill="#E7E6ED"></path> <path d="M87.3507 155.287C80.3365 156.034 73.2673 156.117 66.2376 155.532C62.2604 155.311 58.1603 155.066 52.8329 155.066C44.2158 155.066 13.0125 154.526 6.01567 154.476C6.58032 155.827 7.19406 157.128 7.83236 158.429C14.1909 158.429 44.1912 158.994 52.8329 158.994C58.0376 158.994 62.0883 159.239 66.0164 159.46C73.2591 160.06 80.5426 159.969 87.7682 159.19L87.3507 155.287Z" fill="#E7E6ED"></path> <path d="M271.306 209.42L268.188 211.875L272.877 217.939L276.977 216.81L271.306 209.42Z" fill="#E7E6ED"></path> <g style="mix-blend-mode:multiply"> <path d="M257.949 97.3725C238.309 83.2316 214.249 76.9959 190.73 74.1481C168.856 71.5212 147.841 95.3349 148.774 116.104C148.961 124.538 151.615 132.731 156.409 139.673C150.815 141.059 145.401 143.094 140.279 145.736C120.786 156.17 128.004 182.562 145.951 189.215C165.591 196.58 192.4 189.903 211.917 184.624C229.102 179.984 251.394 174.534 263.964 161.056C267.893 157.131 271.011 152.469 273.138 147.339C275.265 142.208 276.361 136.708 276.362 131.154C276.656 116.718 269.218 105.548 257.949 97.3725Z" fill="#D7DCE0"></path> </g> <path d="M209.168 45.6699V129.681L136.45 171.662V87.6754L209.168 45.6699Z" fill="#3A3A3A"></path> <path d="M209.169 45.6694L136.451 87.6749L63.7081 45.6694L136.451 3.68847L209.169 45.6694Z" fill="white"></path> <path d="M136.451 87.6754V171.662L63.7081 129.681V45.6699L136.451 87.6754Z" fill="#D7DCE0"></path> <path d="M136.451 175.344C135.804 175.353 135.167 175.183 134.61 174.853C134.046 174.533 133.578 174.069 133.255 173.508C132.931 172.946 132.763 172.309 132.769 171.661V87.6748C132.766 87.0275 132.934 86.391 133.258 85.8303C133.581 85.2696 134.048 84.8046 134.61 84.4832L207.352 42.4777C207.915 42.1638 208.549 41.9991 209.194 41.9991C209.838 41.9991 210.472 42.1638 211.035 42.4777C211.592 42.8048 212.054 43.271 212.377 43.8305C212.7 44.3899 212.872 45.0235 212.876 45.6693V129.68C212.872 130.326 212.7 130.96 212.377 131.519C212.054 132.079 211.592 132.545 211.035 132.872L138.292 174.853C137.736 175.183 137.098 175.353 136.451 175.344ZM140.134 89.8107V165.303L205.511 127.544V52.0523L140.134 89.8107Z" fill="#3A3A3A"></path> <path d="M136.452 175.344C135.804 175.353 135.167 175.183 134.61 174.853L61.8678 132.872C61.3076 132.548 60.8424 132.083 60.5192 131.523C60.196 130.962 60.0261 130.327 60.0265 129.68V45.6693C60.0261 45.0225 60.196 44.3868 60.5192 43.8266C60.8424 43.2663 61.3076 42.8011 61.8678 42.4777C62.4307 42.1638 63.0645 41.9991 63.7091 41.9991C64.3536 41.9991 64.9874 42.1638 65.5503 42.4777L138.293 84.4832C139.139 84.9715 139.757 85.7762 140.01 86.72C140.264 87.6639 140.131 88.6696 139.643 89.5161C139.155 90.3625 138.35 90.9804 137.406 91.2336C136.462 91.4868 135.457 91.3545 134.61 90.8662L67.367 52.0523V127.544L138.268 168.494C138.979 168.892 139.536 169.515 139.852 170.265C140.169 171.015 140.226 171.85 140.014 172.636C139.803 173.422 139.335 174.115 138.685 174.606C138.036 175.096 137.241 175.356 136.427 175.344H136.452Z" fill="#3A3A3A"></path> <path d="M209.169 49.3523C208.529 49.3583 207.901 49.1882 207.352 48.8611L136.451 7.93568L65.5494 48.8611C65.1303 49.1029 64.6677 49.2599 64.1879 49.3229C63.7082 49.3859 63.2207 49.3536 62.7533 49.2282C62.286 49.1028 61.8479 48.8867 61.4641 48.592C61.0803 48.2973 60.7583 47.9301 60.5165 47.511C60.2747 47.0919 60.118 46.629 60.055 46.1492C59.992 45.6695 60.024 45.1823 60.1494 44.7149C60.2748 44.2476 60.4909 43.8095 60.7856 43.4257C61.0803 43.0419 61.4477 42.7199 61.8669 42.4781L134.609 0.497179C135.168 0.171546 135.804 0 136.451 0C137.098 0 137.733 0.171546 138.292 0.497179L211.034 42.4781C211.739 42.8839 212.29 43.5117 212.601 44.2636C212.911 45.0155 212.964 45.8493 212.751 46.6344C212.538 47.4196 212.071 48.112 211.423 48.6037C210.775 49.0953 209.982 49.3587 209.169 49.3523Z" fill="#3A3A3A"></path> </svg> 