<?xml version="1.0" encoding="UTF-8"?> <svg xmlns="http://www.w3.org/2000/svg" width="554" height="318" viewBox="0 0 554 318" fill="none"> <path d="M91.6097 284.773L102.331 291.13L57.6809 317.579L0 283.405L43.5799 257.592L54.3011 263.93L23.9775 281.903L36.5011 289.319L63.2763 273.446L73.6596 279.61L46.8845 295.464L60.2345 303.363L91.6097 284.773Z" fill="#3A3A3A"></path> <path d="M153.303 267.766L117.865 264.208L124.471 283.918L108.477 292.879L100.127 263.238L49.4009 258.52L65.2185 249.654L98.5979 252.831L92.6592 234.263L107.712 225.835L115.788 253.897L169.375 258.748L153.303 267.766Z" fill="#3A3A3A"></path> <path d="M207.705 221.266L218.777 227.606L172.587 254.064L112.917 219.898L158.019 194.076L169.091 200.416L137.722 218.376L150.677 225.795L178.376 209.936L189.117 216.083L161.419 231.961L175.229 239.862L207.705 221.266Z" fill="#3A3A3A"></path> <path d="M234.292 214.221C227.001 215.469 219.55 215.581 212.222 214.551C205.313 213.664 198.645 211.498 192.581 208.172C186.799 204.937 183.004 201.26 181.195 197.142C180.292 195.184 179.875 193.048 179.977 190.906C180.079 188.764 180.698 186.675 181.783 184.806C184.01 180.663 188.121 176.919 194.118 173.573C199.219 170.73 204.734 168.647 210.476 167.396C216.355 166.109 222.391 165.621 228.409 165.944L227.745 175.246C220.3 174.691 212.847 176.209 206.263 179.622C203.206 181.123 200.671 183.463 198.976 186.35C198.369 187.486 198.052 188.747 198.052 190.027C198.052 191.307 198.369 192.567 198.976 193.704C200.66 196.599 203.198 198.941 206.263 200.432C209.984 202.492 214.061 203.875 218.295 204.514C222.693 205.216 227.18 205.216 231.578 204.514C235.813 203.878 239.891 202.495 243.61 200.432C249.429 197.185 252.01 193.164 251.352 188.372L268.014 188.005C268.297 189.772 268.214 191.575 267.771 193.311C267.328 195.047 266.533 196.68 265.433 198.116C262.481 201.932 258.697 205.07 254.351 207.308C248.145 210.755 241.351 213.096 234.292 214.221Z" fill="#3A3A3A"></path> <path d="M286.947 179.962C277.827 179.937 268.882 177.398 261.047 172.612L229.363 153.849L242.442 146.102L273.647 164.581C283.778 170.577 293.05 171.087 301.463 166.112C305.552 163.668 307.45 161.092 307.155 158.384C306.86 155.675 304.097 152.759 298.865 149.635L267.66 131.156L280.555 123.503L312.239 142.266C320.529 147.179 324.661 152.293 324.636 157.609C324.612 162.925 320.559 167.963 312.479 172.725C304.744 177.416 295.932 179.913 286.947 179.962Z" fill="#3A3A3A"></path> <path d="M318.262 117.007L300.086 127.917L289.35 121.471L338.9 91.7449L349.617 98.171L331.422 109.1L377.567 136.786L364.406 144.675L318.262 117.007Z" fill="#3A3A3A"></path> <path d="M345.809 88.4636L359.076 81.1591L416.382 112.688L403.115 119.974L345.809 88.4636Z" fill="#3A3A3A"></path> <path d="M438.616 97.692C431.339 99.0358 423.902 99.1613 416.586 98.0635C409.755 97.1306 403.16 94.8472 397.157 91.337C391.504 87.9347 387.735 84.0435 385.851 79.6048C384.947 77.5089 384.533 75.2215 384.641 72.9283C384.749 70.6351 385.376 68.4005 386.472 66.406C388.696 61.9738 392.817 57.9523 398.835 54.3414C405.054 50.6621 411.857 48.1656 418.923 46.9696C426.208 45.6448 433.649 45.5194 440.972 46.598C447.816 47.5124 454.426 49.7897 460.438 53.305C466.104 56.7073 469.836 60.6181 471.632 65.0372C472.521 67.1361 472.929 69.4201 472.824 71.7101C472.72 74.0001 472.105 76.2338 471.029 78.236C468.818 82.6551 464.71 86.6637 458.705 90.2616C452.488 93.9602 445.685 96.4765 438.616 97.692ZM454.257 76.4957C454.851 75.2842 455.161 73.9442 455.161 72.5849C455.161 71.2257 454.851 69.8856 454.257 68.6742C452.58 65.5937 450.063 63.0969 447.021 61.498C443.323 59.3194 439.275 57.8553 435.073 57.1767C430.748 56.4531 426.339 56.4531 422.014 57.1767C417.931 57.8044 413.995 59.2098 410.405 61.3221C407.472 62.8592 405.059 65.2874 403.489 68.2832C402.895 69.4947 402.585 70.8347 402.585 72.194C402.585 73.5532 402.895 74.8933 403.489 76.1047C405.173 79.175 407.689 81.6638 410.726 83.2613C414.42 85.4515 418.469 86.9227 422.673 87.6023C427.004 88.3355 431.421 88.3355 435.752 87.6023C439.835 86.9873 443.771 85.588 447.36 83.4764C450.277 81.9403 452.681 79.5283 454.257 76.5544V76.4957Z" fill="#3A3A3A"></path> <path d="M496.946 0L554 33.1218L543.169 39.4173L480.059 35.8304L514.707 55.9501L501.665 63.5159L444.612 30.3943L455.536 24.0426L518.534 27.6855L483.886 7.58454L496.946 0Z" fill="#3A3A3A"></path> </svg> 