<?xml version="1.0" encoding="UTF-8"?> <svg xmlns="http://www.w3.org/2000/svg" width="156" height="164" viewBox="0 0 156 164" fill="none"> <path d="M78.1009 4.66167L4.60887 116.913L78.1009 159.338V4.66167Z" fill="#3A3A3A"></path> <path d="M78.1264 4.66167V159.338L151.618 116.913L78.1264 4.66167Z" fill="white"></path> <path d="M78.0847 163.846C78.8787 163.84 79.6568 163.622 80.3381 163.214L153.74 120.82C154.29 120.501 154.765 120.067 155.133 119.549C155.501 119.031 155.754 118.439 155.874 117.815C156.018 117.219 156.039 116.6 155.935 115.996C155.832 115.391 155.606 114.814 155.272 114.3L81.8404 2.139C81.5757 1.71462 81.2402 1.33865 80.8487 1.02732C80.6684 0.860461 80.4664 0.718901 80.2479 0.606631C79.5245 0.171274 78.6873 -0.0380191 77.8441 0.00567809C77.5296 0.0263897 77.2183 0.0766517 76.9132 0.155871C75.8401 0.411244 74.9047 1.06681 74.2989 1.98862L0.746775 114.3C0.409249 114.813 0.179641 115.389 0.0711863 115.993C-0.0372684 116.597 -0.0221989 117.217 0.115936 117.815C0.248425 118.435 0.506153 119.021 0.872946 119.538C1.23976 120.054 1.70781 120.49 2.24908 120.82L75.6809 163.214C76.3622 163.622 77.1403 163.84 77.9343 163.846H78.0847ZM73.5778 19.7759V151.557L10.9921 115.502L73.5778 19.7759ZM145.207 115.412L82.5916 151.467V19.6857L145.207 115.412Z" fill="#3A3A3A"></path> </svg> 