<?xml version="1.0" encoding="UTF-8"?> <svg xmlns="http://www.w3.org/2000/svg" width="569" height="330" viewBox="0 0 569 330" fill="none"> <path d="M272.281 178.395L243.34 161.692L224.465 166.218L209.69 157.673L299.801 137.723L314.008 145.943L279.506 198.04L264.366 189.293L272.281 178.395ZM278.694 169.444L292.677 149.961L258.926 158.079L278.694 169.444Z" fill="#3A3A3A"></path> <path d="M147.81 49.2563L85.4632 85.2398L73.6311 78.4003L80.3894 38.6216L42.5388 60.4593L28.2915 52.2397L90.6385 16.2563L102.572 23.1364L95.7123 62.8744L133.563 41.0368L147.81 49.2563Z" fill="#3A3A3A"></path> <path d="M62.3469 0L76.7769 8.34134L14.4299 44.3248L0 35.9834L62.3469 0Z" fill="#3A3A3A"></path> <path d="M159.906 56.2178L174.336 64.5388L111.989 100.522L97.5593 92.2012L159.906 56.2178Z" fill="#3A3A3A"></path> <path d="M243.868 105.048L258.298 113.39L195.971 149.373L181.541 141.052L243.868 105.048Z" fill="#3A3A3A"></path> <path d="M403.551 197.939L417.981 206.26L355.634 242.244L341.224 233.923L403.551 197.939Z" fill="#3A3A3A"></path> <path d="M389.608 259.109C388.434 257.036 387.763 254.716 387.651 252.337C387.538 249.957 387.986 247.584 388.958 245.41C390.988 240.884 395.047 236.866 401.136 233.233C407.604 229.598 414.705 227.229 422.06 226.251C429.946 225.122 437.961 225.252 445.805 226.637C453.429 227.898 460.768 230.502 467.481 234.328C473.962 238.063 478.386 242.223 480.754 246.81C481.916 248.89 482.582 251.211 482.698 253.591C482.814 255.971 482.378 258.346 481.424 260.53C479.502 265.062 475.443 269.121 469.247 272.707C462.773 276.359 455.654 278.723 448.281 279.668C440.402 280.788 432.395 280.657 424.556 279.282C416.941 278.039 409.608 275.448 402.901 271.631C396.461 267.897 392.03 263.723 389.608 259.109ZM427.722 268.83C432.387 269.581 437.142 269.581 441.807 268.83C446.332 268.123 450.691 266.603 454.674 264.345C457.945 262.687 460.655 260.104 462.468 256.917C463.109 255.66 463.444 254.269 463.444 252.858C463.444 251.447 463.109 250.056 462.468 248.799C460.818 245.704 458.281 243.174 455.182 241.533C451.306 239.35 447.061 237.899 442.66 237.251C438.002 236.49 433.252 236.49 428.595 237.251C424.066 237.953 419.705 239.48 415.728 241.757C412.458 243.415 409.748 245.998 407.934 249.185C407.279 250.434 406.928 251.821 406.91 253.232C406.893 254.642 407.209 256.037 407.833 257.303C409.524 260.412 412.122 262.932 415.281 264.528C419.127 266.719 423.345 268.178 427.722 268.83Z" fill="#3A3A3A"></path> <path d="M568.489 293.996L506.142 330L494.31 323.161L501.069 283.362L463.218 305.22L448.971 296.98L511.318 260.996L523.251 267.897L516.392 307.635L554.242 285.777L568.489 293.996Z" fill="#3A3A3A"></path> <path d="M188.827 86.8836L168.877 75.3762L180.648 68.5773L234.958 99.9537L223.207 106.732L203.257 95.2249L152.681 124.43L138.251 116.088L188.827 86.8836Z" fill="#3A3A3A"></path> <path d="M342.888 175.594L322.938 164.067L334.709 157.288L389.019 188.644L377.268 195.423L357.318 183.915L306.743 213.12L292.313 204.799L342.888 175.594Z" fill="#3A3A3A"></path> </svg> 