<?xml version="1.0" encoding="UTF-8"?> <svg xmlns="http://www.w3.org/2000/svg" width="516" height="434" viewBox="0 0 516 434" fill="none"> <path d="M454.473 306.218C458.127 310.927 471.371 328.734 474.511 332.829C474.756 331.799 474.977 330.745 475.222 329.715C472.5 326.158 460.065 309.431 456.41 304.722C450.405 296.79 443.961 289.199 437.108 281.986L435.342 283.679C442.125 290.838 448.512 298.362 454.473 306.218Z" fill="#E0DFE6"></path> <path d="M359.728 292.385C362.646 292.385 365.687 292.214 369.023 292.214C375.768 292.214 382.709 292.434 389.404 292.68C396.1 292.925 403.139 293.146 409.982 293.146C416.825 293.146 422.711 292.9 428.132 292.41L427.911 289.957C422.564 290.448 416.678 290.668 409.982 290.668C403.286 290.668 396.223 290.423 389.478 290.202C382.733 289.982 375.817 289.736 369.023 289.736C365.27 289.736 361.886 289.737 358.648 289.957V292.41L359.728 292.385Z" fill="#E0DFE6"></path> <path d="M392.298 280.981C397.67 280.981 403.066 281.177 408.462 281.177C411.724 281.177 414.25 281.324 416.702 281.471C421.226 281.846 425.775 281.797 430.29 281.324L430.02 278.871C425.636 279.332 421.218 279.381 416.825 279.019C414.372 279.019 411.92 278.724 408.462 278.724C403.09 278.724 381.482 278.332 376.185 278.332C367.176 278.255 358.169 278.673 349.206 279.583L349.451 282.035C358.317 281.148 367.225 280.739 376.136 280.809C381.556 280.784 386.927 280.883 392.298 280.981Z" fill="#E0DFE6"></path> <path d="M398.896 316.667C404.41 316.083 409.961 315.919 415.5 316.176L415.696 313.724C410.018 313.465 404.329 313.628 398.675 314.214C394.726 314.557 390.655 314.901 386.657 314.901C382.914 314.936 379.178 314.55 375.522 313.748L374.982 316.201C378.812 317.065 382.731 317.476 386.657 317.427C390.753 317.353 394.898 317.01 398.896 316.667Z" fill="#E0DFE6"></path> <path d="M427.627 312.9L425.686 314.399L462.086 361.529L464.027 360.03L427.627 312.9Z" fill="#E0DFE6"></path> <path d="M408.878 326.084H413.783V323.631H408.878C400.458 323.349 392.03 323.595 383.641 324.367L384.008 326.82C392.276 326.07 400.581 325.824 408.878 326.084Z" fill="#E0DFE6"></path> <path d="M310.576 289.932C305.23 290.422 299.368 290.643 292.672 290.643C285.976 290.643 278.913 290.398 272.168 290.177C265.423 289.956 258.507 289.711 251.713 289.711C247.961 289.711 244.576 289.711 241.314 289.932V292.384H242.344C245.263 292.384 248.304 292.213 251.639 292.213C258.384 292.213 265.301 292.434 272.021 292.679C278.741 292.924 285.756 293.145 292.599 293.145C299.441 293.145 305.303 292.9 310.748 292.409L310.576 289.932Z" fill="#E0DFE6"></path> <path d="M319.627 346.883C313.569 339.943 306.702 332.168 304.396 329.077L302.435 330.574C304.887 333.639 311.705 341.537 317.788 348.502C322.472 353.874 326.912 358.926 328.089 360.471C329.266 362.016 330.174 363.267 331.057 364.616L333.117 363.267C332.185 361.869 331.179 360.447 330.027 358.975C328.874 357.503 324.68 352.525 319.627 346.883Z" fill="#E0DFE6"></path> <path d="M440.223 348.723C437.255 345.485 434.19 342.125 431.492 338.643C428.794 335.16 425.826 331.702 422.859 328.513L421.068 330.181C423.987 333.32 427.077 336.95 429.554 340.139C432.326 343.72 435.416 347.104 438.408 350.366C441.4 353.628 444.442 356.964 447.14 360.471C448.243 361.894 449.2 363.243 450.107 364.616L452.143 363.267C451.235 361.844 450.23 360.446 449.077 358.975C446.306 355.517 443.215 352.009 440.223 348.723Z" fill="#E0DFE6"></path> <path d="M393.353 336.435C394.187 336.435 394.923 336.435 395.806 336.435C398.872 336.435 407.824 336.435 410.522 336.435L410.399 333.982C407.946 333.982 398.97 333.982 395.929 333.982C395.07 333.982 394.261 333.982 393.476 333.982C392.691 333.982 391.023 334.13 389.282 333.982V336.435H390.705C391.416 336.533 392.372 336.484 393.353 336.435Z" fill="#E0DFE6"></path> <path d="M432.596 298.738L433.307 299.646C435.392 302.098 437.501 304.747 439.758 307.666C444.32 313.577 448.808 319.807 453.125 325.84C457.441 331.873 462.003 338.103 466.639 344.186C467.84 345.731 469.091 347.202 470.17 348.649L471.053 345.829L468.601 342.69C464.014 336.73 459.501 330.426 455.16 324.393C450.819 318.359 446.306 312.13 441.72 306.17C439.267 302.883 436.815 299.94 434.509 297.218L432.596 298.738Z" fill="#E0DFE6"></path> <path d="M322.227 268.889C334.196 282.624 346.483 297.708 359.801 314.95C370.176 328.39 381.262 343.253 394.702 361.746L396.689 360.299C383.248 341.781 372.162 326.894 361.763 313.453C348.396 296.162 336.06 281.054 324.066 267.27L322.227 268.889Z" fill="#E0DFE6"></path> <path d="M398.677 349.017C400.443 349.017 401.963 349.017 403.386 349.017C404.791 348.943 406.199 348.943 407.605 349.017L407.752 346.564C406.207 346.564 404.784 346.564 403.288 346.564C401.792 346.564 400.443 346.564 398.726 346.564C397.142 346.452 395.552 346.452 393.968 346.564L394.213 349.017C395.7 348.929 397.19 348.929 398.677 349.017Z" fill="#E0DFE6"></path> <path d="M308.537 312.802L306.596 314.302L342.996 361.432L344.937 359.933L308.537 312.802Z" fill="#E0DFE6"></path> <path d="M313.447 298.738L314.158 299.646C316.243 302.098 318.352 304.747 320.609 307.666C325.171 313.577 329.659 319.807 334 325.84C338.341 331.873 342.854 338.103 347.49 344.186C352.125 350.268 356.319 355.149 360.415 359.564L362.206 357.896C358.159 353.555 353.989 348.551 349.427 342.69C344.865 336.828 340.328 330.426 335.987 324.393C331.646 318.359 327.133 312.13 322.546 306.17C320.094 302.883 317.641 299.94 315.335 297.218L313.447 298.738Z" fill="#E0DFE6"></path> <path d="M404.464 357.723C403.518 357.639 402.566 357.639 401.619 357.723L401.987 360.176C402.803 360.097 403.624 360.097 404.44 360.176C405.723 360.284 407.015 360.185 408.266 359.882L407.579 357.429C406.563 357.693 405.512 357.793 404.464 357.723Z" fill="#E0DFE6"></path> <path d="M342.068 267.221L342.215 269.674C358.623 268.717 376.184 268.251 395.903 268.251C407.97 268.251 414.102 268.472 422.563 268.791C426.414 268.938 430.706 269.11 436.2 269.257V266.804C430.706 266.657 426.389 266.485 422.588 266.338C414.077 266.019 407.872 265.799 395.83 265.799C376.184 265.725 358.525 266.191 342.068 267.221Z" fill="#E0DFE6"></path> <path d="M348.127 318.997C344.57 314.091 341.014 309.431 337.36 304.722C331.355 296.796 324.919 289.206 318.082 281.986L316.291 283.679C323.074 290.838 329.46 298.362 335.422 306.218C339.076 310.927 353.277 330.033 356.932 334.767C362.943 342.695 369.387 350.285 376.234 357.503L378 355.811C371.217 348.651 364.83 341.127 358.869 333.271C355.239 328.537 351.658 323.779 348.127 318.997Z" fill="#E0DFE6"></path> <path d="M419.745 303.374H365.934V305.827H419.745V303.374Z" fill="#E0DFE6"></path> <path d="M317.322 363.732L319.259 362.236C314.323 355.214 308.457 348.894 301.821 343.449L300.349 345.436C306.971 350.268 312.416 357.429 317.322 363.732Z" fill="#E0DFE6"></path> <path d="M295.248 351.666L293.556 353.456C295.334 355.139 296.899 357.033 298.216 359.097C299.025 360.299 299.957 361.55 301.282 363.365L303.244 361.869C301.944 360.201 301.037 358.876 300.252 357.724C298.835 355.51 297.155 353.475 295.248 351.666Z" fill="#E0DFE6"></path> <path d="M438.334 362.236C434.802 357.65 429.48 351.616 424.796 346.27C422.981 344.21 421.264 342.272 419.89 340.604L418.027 342.223C419.474 343.891 421.166 345.828 422.932 347.889C427.592 353.186 432.89 359.22 436.372 363.732L438.334 362.236Z" fill="#E0DFE6"></path> <path d="M441.277 268.889C452.927 282.256 464.895 296.898 477.821 313.6C477.821 312.399 478.066 311.148 478.164 310.044C465.901 294.151 454.325 280.122 443.141 267.27L441.277 268.889Z" fill="#E0DFE6"></path> <path d="M286.467 357.723C285.718 357.625 284.96 357.625 284.211 357.723L284.701 360.176C285.239 360.114 285.782 360.114 286.32 360.176H287.301C288.029 360.184 288.752 360.06 289.435 359.808L288.527 357.527C287.859 357.723 287.16 357.79 286.467 357.723Z" fill="#E0DFE6"></path> <path d="M281.562 316.667C287.085 316.082 292.643 315.918 298.191 316.176L298.387 313.724C292.709 313.465 287.019 313.628 281.366 314.214C277.417 314.557 273.346 314.901 269.348 314.901C265.605 314.938 261.869 314.551 258.213 313.748L257.649 316.201C261.488 317.063 265.414 317.475 269.348 317.427C273.444 317.353 277.564 317.01 281.562 316.667Z" fill="#E0DFE6"></path> <path d="M275.92 336.435C276.754 336.435 277.489 336.435 278.372 336.435C281.463 336.435 290.415 336.435 293.088 336.435V333.982C290.636 333.982 281.659 333.982 278.618 333.982C277.759 333.982 276.95 333.982 276.165 333.982C275.38 333.982 273.712 334.13 271.971 333.982V336.435H273.369C274.105 336.533 275.061 336.484 275.92 336.435Z" fill="#E0DFE6"></path> <path d="M281.366 349.017C283.132 349.017 284.628 349.017 286.075 349.017C287.48 348.943 288.888 348.943 290.294 349.017L290.441 346.564C288.871 346.564 287.473 346.564 285.977 346.564C284.481 346.564 283.107 346.564 281.415 346.564C279.831 346.452 278.241 346.452 276.657 346.564L276.902 349.017C278.389 348.929 279.879 348.929 281.366 349.017Z" fill="#E0DFE6"></path> <path d="M414.029 351.519L412.754 353.604C416.098 356.014 418.862 359.14 420.848 362.752L423.104 361.771C420.908 357.701 417.802 354.193 414.029 351.519Z" fill="#E0DFE6"></path> <path d="M224.759 267.221L224.906 269.674C241.314 268.717 258.875 268.251 278.594 268.251C290.661 268.251 296.768 268.472 305.254 268.791C309.105 268.938 313.397 269.11 318.891 269.257V266.804C313.397 266.657 309.08 266.485 305.254 266.338C296.768 266.019 290.539 265.799 278.521 265.799C258.826 265.725 241.29 266.191 224.759 267.221Z" fill="#E0DFE6"></path> <path d="M302.435 303.374H248.624V305.827H302.435V303.374Z" fill="#E0DFE6"></path> <path d="M299.515 279.019C297.062 279.019 294.462 278.724 291.151 278.724C285.756 278.724 264.173 278.332 258.85 278.332C249.841 278.255 240.835 278.672 231.871 279.583L232.117 282.035C240.975 281.149 249.875 280.739 258.777 280.809C264.173 280.809 285.756 281.202 291.078 281.202C294.316 281.202 296.866 281.349 299.294 281.496C303.818 281.871 308.367 281.822 312.882 281.349L312.637 278.896C308.276 279.344 303.883 279.385 299.515 279.019Z" fill="#E0DFE6"></path> <path d="M291.568 326.084H296.474V323.631H291.568C283.149 323.349 274.72 323.595 266.331 324.367L266.674 326.82C274.95 326.07 283.263 325.824 291.568 326.084Z" fill="#E0DFE6"></path> <path d="M197.142 298.738L197.854 299.646C199.938 302.098 202.048 304.747 204.304 307.666C208.866 313.577 213.354 319.807 217.671 325.84C221.987 331.873 226.549 338.103 231.185 344.186C235.82 350.268 239.99 355.149 244.11 359.564L245.901 357.896C241.829 353.53 237.66 348.551 233.123 342.69C228.585 336.828 224.023 330.426 219.682 324.393C215.341 318.359 210.828 312.13 206.242 306.17C203.789 302.883 201.336 299.94 199.031 297.218L197.142 298.738Z" fill="#E0DFE6"></path> <path d="M183.851 316.76L181.913 318.256L218.239 365.301L220.176 363.805L183.851 316.76Z" fill="#E0DFE6"></path> <path d="M205.824 268.889C217.793 282.624 230.081 297.683 243.423 314.95C253.773 328.365 264.883 343.228 278.324 361.746L280.311 360.299C266.846 341.781 255.784 326.894 245.361 313.453C231.994 296.162 219.682 281.054 207.688 267.27L205.824 268.889Z" fill="#E0DFE6"></path> <path d="M178.577 351.519L177.301 353.604C180.645 356.014 183.409 359.14 185.395 362.752L187.651 361.771C185.455 357.701 182.35 354.193 178.577 351.519Z" fill="#E0DFE6"></path> <path d="M168.987 357.723C168.049 357.639 167.105 357.639 166.167 357.723L166.534 360.176C167.35 360.097 168.171 360.097 168.987 360.176C170.27 360.284 171.562 360.185 172.813 359.882L172.127 357.429C171.102 357.693 170.043 357.792 168.987 357.723Z" fill="#E0DFE6"></path> <path d="M187.109 268.717C190.96 268.865 195.252 269.036 200.746 269.183V266.731C195.252 266.584 178.452 265.946 173.767 265.848C174.208 266.682 174.65 267.516 175.116 268.3C179.261 268.423 182.891 268.57 187.109 268.717Z" fill="#E0DFE6"></path> <path d="M124.372 314.949C134.747 328.39 145.833 343.253 159.274 361.745L161.26 360.298C147.795 341.781 136.734 326.894 126.335 313.453C119.786 304.992 113.483 297.045 107.351 289.54C107.032 290.472 106.738 291.404 106.493 292.361C112.281 299.498 118.216 306.978 124.372 314.949Z" fill="#E0DFE6"></path> <path d="M202.882 362.236C199.35 357.65 194.027 351.616 189.343 346.27C187.528 344.21 185.811 342.272 184.438 340.604L182.574 342.223C184.021 343.891 185.713 345.828 187.479 347.889C192.139 353.186 197.437 359.22 200.92 363.732L202.882 362.236Z" fill="#E0DFE6"></path> <path d="M156.084 268.178H164.962C161.995 268.079 159.002 268.055 156.084 268.178Z" fill="#E0DFE6"></path> <path d="M181.373 279.019C178.92 279.019 176.468 278.724 173.01 278.724C167.638 278.724 146.031 278.332 140.733 278.332C131.724 278.255 122.717 278.673 113.754 279.583L113.999 282.035C122.866 281.148 131.773 280.739 140.684 280.809C146.055 280.809 167.663 281.202 172.961 281.202C176.223 281.202 178.749 281.349 181.177 281.496C185.709 281.871 190.266 281.822 194.789 281.349L194.519 278.896C190.151 279.345 185.749 279.386 181.373 279.019Z" fill="#E0DFE6"></path> <path d="M219.02 306.218C222.65 310.927 236.875 330.033 240.53 334.767C246.541 342.688 252.976 350.278 259.808 357.503L261.598 355.811C254.815 348.651 248.429 341.127 242.467 333.271C238.813 328.562 224.612 309.431 220.958 304.722C214.953 296.79 208.508 289.199 201.655 281.986L199.89 283.679C206.672 290.838 213.059 298.362 219.02 306.218Z" fill="#E0DFE6"></path> <path d="M112.675 318.996L108.285 313.11C109.686 316.307 111.572 319.269 113.877 321.89C115.029 324.79 116.423 327.588 118.046 330.254L121.48 334.767C123.516 337.391 125.453 339.819 127.342 342.124C131.338 346.272 135.687 350.063 140.341 353.456C135.043 347.741 129.598 341.192 123.417 333.246C119.788 328.537 116.207 323.779 112.675 318.996Z" fill="#E0DFE6"></path> <path d="M204.769 348.723C201.802 345.485 198.736 342.125 196.038 338.643C193.34 335.16 190.373 331.702 187.405 328.513L185.615 330.181C188.533 333.32 191.623 336.95 194.101 340.139C196.847 343.72 199.962 347.104 202.954 350.366C205.947 353.628 208.988 356.964 211.686 360.471C212.79 361.894 213.746 363.243 214.654 364.616L216.689 363.267C215.782 361.844 214.776 360.446 213.623 358.975C210.852 355.517 207.762 352.009 204.769 348.723Z" fill="#E0DFE6"></path> <path d="M163.443 316.667C168.957 316.082 174.508 315.918 180.047 316.176L180.243 313.724C174.565 313.465 168.876 313.628 163.222 314.214C159.273 314.557 155.202 314.901 151.204 314.901C147.461 314.936 143.726 314.55 140.069 313.748L139.53 316.201C143.36 317.065 147.278 317.476 151.204 317.427C155.3 317.353 159.445 317.01 163.443 316.667Z" fill="#E0DFE6"></path> <path d="M184.291 303.374H130.48V305.827H184.291V303.374Z" fill="#E0DFE6"></path> <path d="M163.222 349.017C164.988 349.017 166.509 349.017 167.931 349.017C169.336 348.943 170.745 348.943 172.15 349.017L172.297 346.564C170.752 346.564 169.329 346.564 167.833 346.564C166.337 346.564 164.988 346.564 163.271 346.564C161.687 346.452 160.097 346.452 158.513 346.564L158.758 349.017C160.245 348.929 161.736 348.929 163.222 349.017Z" fill="#E0DFE6"></path> <path d="M157.901 336.435C158.735 336.435 159.47 336.435 160.353 336.435C163.444 336.435 172.396 336.435 175.069 336.435L174.946 333.982C172.494 333.982 163.517 333.982 160.476 333.982C159.618 333.982 158.808 333.982 158.023 333.982C157.239 333.982 155.571 334.13 153.829 333.982V336.435H155.252C155.963 336.533 156.92 336.484 157.901 336.435Z" fill="#E0DFE6"></path> <path d="M173.425 326.084H178.331V323.631H173.425C165.006 323.349 156.577 323.595 148.188 324.367L148.556 326.82C156.823 326.07 165.128 325.824 173.425 326.084Z" fill="#E0DFE6"></path> <path d="M192.458 289.932C187.087 290.422 181.225 290.643 174.529 290.643C167.834 290.643 160.77 290.398 154.025 290.177C147.281 289.956 140.364 289.711 133.57 289.711C129.818 289.711 126.433 289.711 123.196 289.932V292.384H124.226C127.144 292.384 130.186 292.213 133.521 292.213C140.266 292.213 147.207 292.434 153.903 292.679C160.598 292.924 167.637 293.145 174.48 293.145C181.323 293.145 187.185 292.9 192.63 292.409L192.458 289.932Z" fill="#E0DFE6"></path> <path d="M231.725 215.986C228.168 211.204 224.612 206.421 220.958 201.712C214.953 193.779 208.508 186.189 201.655 178.976L199.89 180.668C206.672 187.828 213.059 195.352 219.02 203.208C222.65 207.917 236.875 227.023 240.53 231.757C246.541 239.678 252.976 247.267 259.808 254.493L261.598 252.8C254.815 245.641 248.429 238.117 242.467 230.261C238.837 225.527 235.281 220.769 231.725 215.986Z" fill="#E0DFE6"></path> <path d="M197.142 195.727L197.854 196.634C199.938 199.087 202.048 201.736 204.304 204.655C208.866 210.565 213.354 216.795 217.671 222.829C221.987 228.862 226.549 235.092 231.185 241.174C235.82 247.257 239.99 252.138 244.11 256.552L245.901 254.884C241.829 250.519 237.66 245.54 233.123 239.678C228.585 233.816 224.023 227.415 219.682 221.382C215.341 215.348 210.828 209.118 206.242 203.158C203.789 199.872 201.336 196.929 199.031 194.206L197.142 195.727Z" fill="#E0DFE6"></path> <path d="M202.882 259.226C199.35 254.64 194.027 248.606 189.343 243.259C187.528 241.199 185.811 239.262 184.438 237.594L182.574 239.213C184.021 240.88 185.713 242.818 187.479 244.878C192.139 250.176 197.437 256.209 200.92 260.722L202.882 259.226Z" fill="#E0DFE6"></path> <path d="M174.677 230.898C173.23 230.898 169.772 230.898 166.559 230.898C166.559 231.707 166.559 232.516 166.559 233.35C169.894 233.35 173.426 233.35 174.922 233.35L174.677 230.898Z" fill="#E0DFE6"></path> <path d="M172.151 245.957L172.298 243.504C170.753 243.504 169.331 243.504 167.835 243.504H166.903C166.903 243.823 166.903 244.141 166.903 244.46C166.903 244.779 167.05 245.466 167.123 245.957H167.835C169.273 245.88 170.714 245.88 172.151 245.957Z" fill="#E0DFE6"></path> <path d="M183.973 213.897L182.035 215.393L218.361 262.437L220.298 260.941L183.973 213.897Z" fill="#E0DFE6"></path> <path d="M278.325 258.735L280.312 257.288C266.847 238.771 255.785 223.883 245.362 210.443C234.129 195.874 223.607 182.875 213.477 170.931L211.221 172.059C221.522 184.101 232.142 197.223 243.498 211.939C253.774 225.355 264.885 240.242 278.325 258.735Z" fill="#E0DFE6"></path> <path d="M169.304 254.713C169.573 255.546 169.818 256.355 170.112 257.163C170.988 257.182 171.861 257.083 172.71 256.869L172.024 254.419C171.138 254.66 170.22 254.759 169.304 254.713Z" fill="#E0DFE6"></path> <path d="M186.032 189.817C188.313 189.694 190.545 189.547 192.679 189.351L192.458 186.898L188.779 187.168C187.847 188.051 186.915 188.909 186.032 189.817Z" fill="#E0DFE6"></path> <path d="M184.291 200.363H177.228C176.664 201.172 176.148 201.982 175.633 202.815H184.291V200.363Z" fill="#E0DFE6"></path> <path d="M185.615 227.17C188.533 230.309 191.623 233.939 194.101 237.127C196.847 240.708 199.962 244.093 202.954 247.355C205.947 250.617 208.988 253.953 211.686 257.46C212.79 258.882 213.746 260.231 214.654 261.605L216.689 260.256C215.782 258.833 214.776 257.435 213.623 255.964C210.852 252.383 207.762 248.998 204.769 245.712C201.777 242.425 198.736 239.114 196.038 235.631C193.34 232.149 190.373 228.69 187.405 225.502L185.615 227.17Z" fill="#E0DFE6"></path> <path d="M179.975 213.264L180.171 210.811C177.272 210.626 174.364 210.626 171.464 210.811C171.097 211.645 170.753 212.479 170.41 213.264C173.595 213.055 176.79 213.055 179.975 213.264Z" fill="#E0DFE6"></path> <path d="M178.354 220.621H168.127C167.93 221.431 167.783 222.265 167.636 223.074H178.354V220.621Z" fill="#E0DFE6"></path> <path d="M185.395 259.863L187.651 258.882C185.455 254.812 182.35 251.304 178.577 248.63L177.301 250.715C180.645 253.126 183.409 256.251 185.395 259.863Z" fill="#E0DFE6"></path> <path d="M281.562 213.656C287.085 213.072 292.643 212.908 298.191 213.166L298.387 210.713C292.709 210.454 287.019 210.618 281.366 211.204C277.417 211.547 273.346 211.891 269.348 211.891C265.605 211.927 261.869 211.541 258.213 210.738L257.649 213.19C261.488 214.053 265.414 214.465 269.348 214.417C273.444 214.343 277.564 214 281.562 213.656Z" fill="#E0DFE6"></path> <path d="M342.215 166.664L351.535 166.198C348.739 165.487 345.918 164.824 343.073 164.162H342.068L342.215 166.664Z" fill="#E0DFE6"></path> <path d="M310.576 186.922C305.23 187.413 299.368 187.634 292.672 187.634C285.976 187.634 278.913 187.388 272.168 187.168C265.423 186.947 258.507 186.702 251.713 186.702C247.961 186.702 244.576 186.702 241.314 186.922V189.375H242.344C245.263 189.252 248.304 189.203 251.639 189.203C258.384 189.203 265.301 189.424 272.021 189.669C278.741 189.915 285.756 190.135 292.599 190.135C299.441 190.135 305.303 189.89 310.748 189.4L310.576 186.922Z" fill="#E0DFE6"></path> <path d="M478.877 211.939C489.056 225.134 499.945 239.727 513.214 257.803H515.152L515.887 257.263C502.422 238.746 491.361 223.858 480.937 210.418C471.348 197.983 462.273 186.701 453.468 176.081L451.334 177.356C460.066 188.05 469.189 199.406 478.877 211.939Z" fill="#E0DFE6"></path> <path d="M286.467 254.714C285.718 254.616 284.96 254.616 284.211 254.714L284.701 257.166C285.239 257.105 285.782 257.105 286.32 257.166H287.301C288.029 257.175 288.752 257.05 289.435 256.798L288.527 254.517C287.859 254.714 287.16 254.781 286.467 254.714Z" fill="#E0DFE6"></path> <path d="M281.366 246.007C283.132 246.007 284.628 246.007 286.075 246.007C287.48 245.934 288.888 245.934 290.294 246.007L290.441 243.555C288.871 243.555 287.473 243.555 285.977 243.555C284.481 243.555 283.107 243.555 281.415 243.555C279.831 243.443 278.241 243.443 276.657 243.555L276.902 246.007C278.389 245.92 279.879 245.92 281.366 246.007Z" fill="#E0DFE6"></path> <path d="M291.568 223.074H296.474V220.621H291.568C283.149 220.339 274.72 220.585 266.331 221.357L266.674 223.809C274.95 223.06 283.263 222.814 291.568 223.074Z" fill="#E0DFE6"></path> <path d="M275.92 233.424C276.754 233.424 277.489 233.424 278.372 233.424C281.463 233.424 290.415 233.424 293.088 233.424V230.971C290.636 230.971 281.659 230.971 278.618 230.971C277.759 230.971 276.95 230.971 276.165 230.971C275.38 230.971 273.712 231.118 271.971 230.971V233.424H273.369C274.105 233.522 275.061 233.473 275.92 233.424Z" fill="#E0DFE6"></path> <path d="M468.502 239.654C463.916 233.694 459.403 227.391 455.062 221.357C450.721 215.324 446.208 209.094 441.621 203.134C439.169 199.847 436.716 196.904 434.41 194.182L433.895 194.599C433.601 195.212 433.331 195.85 433.086 196.487V196.635C435.171 199.087 437.28 201.736 439.536 204.655C444.098 210.565 448.587 216.795 452.903 222.829C457.22 228.862 461.782 235.092 466.417 241.174C470.366 246.3 474.069 250.715 477.626 254.688L480.765 255.228L481.133 254.885C477.233 250.494 473.039 245.516 468.502 239.654Z" fill="#E0DFE6"></path> <path d="M224.906 166.664C241.314 165.707 258.875 165.241 278.594 165.241C290.661 165.241 296.768 165.462 305.254 165.781C309.105 165.928 313.397 166.1 318.891 166.247V163.794C313.397 163.647 309.08 163.475 305.254 163.328C296.768 163.009 290.538 162.789 278.521 162.789C261.352 162.789 245.655 163.132 231.013 163.868C228.928 164.554 226.844 165.29 224.783 166.051L224.906 166.664Z" fill="#E0DFE6"></path> <path d="M322.227 165.879C334.196 179.614 346.483 194.697 359.801 211.939C370.176 225.38 381.262 240.243 394.702 258.735L396.689 257.288C383.248 238.771 372.162 223.884 361.763 210.443C348.396 193.152 336.06 178.044 324.066 164.26L322.227 165.879Z" fill="#E0DFE6"></path> <path d="M316.291 180.668C323.074 187.828 329.46 195.352 335.422 203.208C339.076 207.917 353.277 227.023 356.932 231.757C362.943 239.684 369.387 247.274 376.234 254.493L378 252.8C371.217 245.641 364.83 238.117 358.869 230.261C355.239 225.552 341.014 206.421 337.36 201.712C331.355 193.786 324.919 186.196 318.082 178.976L316.291 180.668Z" fill="#E0DFE6"></path> <path d="M349.5 178.927C358.367 178.04 367.274 177.63 376.185 177.7C380.477 177.7 384.744 177.7 389.037 177.848C386.805 176.965 384.573 176.131 382.341 175.395H376.185C367.176 175.318 358.169 175.736 349.206 176.646L349.5 178.927Z" fill="#E0DFE6"></path> <path d="M313.447 195.727L314.158 196.634C316.243 199.087 318.352 201.736 320.609 204.655C325.171 210.565 329.659 216.795 334 222.829C338.341 228.862 342.854 235.092 347.49 241.174C352.125 247.257 356.319 252.138 360.415 256.552L362.206 254.884C358.159 250.543 353.989 245.54 349.427 239.678C344.865 233.816 340.328 227.415 335.987 221.382C331.646 215.348 327.133 209.118 322.546 203.158C320.094 199.872 317.641 196.929 315.335 194.206L313.447 195.727Z" fill="#E0DFE6"></path> <path d="M467.178 215.986C463.621 211.204 460.065 206.421 456.411 201.712C451.162 194.894 446.429 189.179 441.891 184.102C441.249 184.617 440.635 185.165 440.052 185.745C444.565 190.773 449.249 196.439 454.473 203.208C458.128 207.917 472.328 227.023 475.983 231.757C481.994 239.678 488.429 247.267 495.261 254.493L497.051 252.8C490.268 245.641 483.882 238.117 477.92 230.261C474.29 225.527 470.734 220.769 467.178 215.986Z" fill="#E0DFE6"></path> <path d="M308.555 209.79L306.614 211.289L343.014 258.419L344.955 256.92L308.555 209.79Z" fill="#E0DFE6"></path> <path d="M299.515 176.008C297.062 175.886 294.462 175.714 291.151 175.714C285.756 175.714 264.173 175.322 258.85 175.322C249.841 175.245 240.835 175.662 231.871 176.573L232.117 179.025C240.975 178.139 249.875 177.729 258.777 177.799C264.173 177.799 285.756 178.191 291.078 178.191C294.316 178.191 296.866 178.338 299.294 178.486C303.818 178.861 308.367 178.811 312.882 178.338L312.637 175.886C308.276 176.334 303.883 176.375 299.515 176.008Z" fill="#E0DFE6"></path> <path d="M302.435 200.363H248.624V202.815H302.435V200.363Z" fill="#E0DFE6"></path> <path d="M419.745 200.363H365.934V202.815H419.745V200.363Z" fill="#E0DFE6"></path> <path d="M393.353 233.424C394.187 233.424 394.923 233.424 395.806 233.424C398.872 233.424 407.824 233.424 410.522 233.424L410.399 230.971C407.946 230.971 398.97 230.971 395.929 230.971C395.07 230.971 394.261 230.971 393.476 230.971C392.691 230.971 391.023 231.118 389.282 230.971V233.424H390.705C391.416 233.522 392.372 233.473 393.353 233.424Z" fill="#E0DFE6"></path> <path d="M408.878 223.074H413.783V220.621H408.878C400.458 220.339 392.03 220.585 383.641 221.357L384.008 223.809C392.276 223.06 400.581 222.814 408.878 223.074Z" fill="#E0DFE6"></path> <path d="M398.896 213.656C404.41 213.072 409.961 212.908 415.5 213.166L415.696 210.713C410.018 210.454 404.329 210.618 398.675 211.204C394.726 211.547 390.655 211.891 386.657 211.891C382.914 211.926 379.178 211.539 375.522 210.738L374.982 213.19C378.812 214.055 382.731 214.466 386.657 214.417C390.753 214.343 394.898 214 398.896 213.656Z" fill="#E0DFE6"></path> <path d="M358.648 186.923V189.375H359.678C362.597 189.253 365.638 189.204 368.974 189.204C375.719 189.204 382.66 189.424 389.355 189.67C396.051 189.915 403.09 190.136 409.933 190.136H414.274C412.835 189.302 411.364 188.484 409.859 187.683C403.09 187.683 396.149 187.438 389.429 187.217C382.709 186.996 375.768 186.751 368.974 186.751C365.271 186.702 361.886 186.776 358.648 186.923Z" fill="#E0DFE6"></path> <path d="M440.223 245.712C437.255 242.474 434.19 239.114 431.492 235.631C428.794 232.149 425.826 228.69 422.859 225.502L421.068 227.17C423.987 230.309 427.077 233.939 429.554 237.127C432.326 240.708 435.416 244.093 438.408 247.355C441.4 250.617 444.442 253.953 447.14 257.46C448.243 258.882 449.2 260.231 450.107 261.605L452.143 260.256C451.235 258.833 450.23 257.435 449.077 255.964C446.306 252.505 443.215 248.998 440.223 245.712Z" fill="#E0DFE6"></path> <path d="M427.645 209.888L425.704 211.387L462.104 258.517L464.045 257.018L427.645 209.888Z" fill="#E0DFE6"></path> <path d="M414.029 248.508L412.754 250.592C416.098 253.003 418.862 256.128 420.848 259.741L423.104 258.76C420.908 254.69 417.802 251.182 414.029 248.508Z" fill="#E0DFE6"></path> <path d="M398.677 246.007C400.443 246.007 401.963 246.007 403.386 246.007C404.791 245.934 406.199 245.934 407.605 246.007L407.752 243.555C406.207 243.555 404.784 243.555 403.288 243.555C401.792 243.555 400.443 243.555 398.726 243.555C397.142 243.443 395.552 243.443 393.968 243.555L394.213 246.007C395.7 245.92 397.19 245.92 398.677 246.007Z" fill="#E0DFE6"></path> <path d="M295.248 248.654L293.556 250.445C295.334 252.128 296.899 254.022 298.216 256.086C299.025 257.288 299.957 258.539 301.282 260.353L303.244 258.857C301.944 257.19 301.037 255.865 300.252 254.712C298.835 252.498 297.155 250.464 295.248 248.654Z" fill="#E0DFE6"></path> <path d="M404.464 254.713C403.518 254.628 402.566 254.628 401.619 254.713L401.987 257.166C402.803 257.086 403.624 257.086 404.44 257.166C405.723 257.274 407.015 257.175 408.266 256.871L407.579 254.419C406.563 254.683 405.512 254.782 404.464 254.713Z" fill="#E0DFE6"></path> <path d="M438.334 259.226C434.802 254.64 429.48 248.606 424.796 243.259C422.981 241.199 421.264 239.262 419.89 237.594L418.027 239.213C419.474 240.88 421.166 242.818 422.932 244.878C427.592 250.176 432.89 256.209 436.372 260.722L438.334 259.226Z" fill="#E0DFE6"></path> <path d="M319.627 243.872C313.569 236.931 306.702 229.156 304.396 226.066L302.435 227.562C304.887 230.628 311.705 238.525 317.788 245.491C322.472 250.862 326.912 255.915 328.089 257.46C329.266 259.005 330.174 260.256 331.057 261.605L333.117 260.256C332.185 258.858 331.179 257.435 330.027 255.964C328.874 254.492 324.68 249.513 319.627 243.872Z" fill="#E0DFE6"></path> <path d="M317.322 260.722L319.259 259.226C314.323 252.204 308.457 245.884 301.821 240.439L300.349 242.426C306.971 247.257 312.416 254.419 317.322 260.722Z" fill="#E0DFE6"></path> <path d="M460.359 269.675C465.485 269.38 470.758 269.135 476.129 268.939C475.957 268.105 475.761 267.296 475.59 266.486C470.341 266.715 465.215 266.969 460.212 267.247L460.359 269.675Z" fill="#E0DFE6"></path> <path d="M460.212 370.232V371.874C460.506 371.31 460.824 370.747 461.118 370.158L460.212 370.232Z" fill="#E0DFE6"></path> <path d="M416.825 382.03C414.372 382.03 411.92 381.736 408.462 381.736C403.09 381.736 381.482 381.343 376.185 381.343C367.176 381.266 358.169 381.684 349.206 382.594L349.451 385.047C358.317 384.159 367.225 383.75 376.136 383.82C381.507 383.82 403.115 384.213 408.412 384.213C411.674 384.213 414.201 384.36 416.653 384.507C421.177 384.882 425.726 384.833 430.241 384.36L429.971 381.907C425.602 382.357 421.201 382.398 416.825 382.03Z" fill="#E0DFE6"></path> <path d="M313.447 401.748L314.158 402.655C316.243 405.108 318.352 407.757 320.609 410.675C325.171 416.586 329.659 422.816 334 428.849L336.256 431.964L339.666 432.528L335.987 427.402C331.646 421.369 327.133 415.139 322.546 409.179C320.094 405.893 317.641 402.949 315.335 400.227L313.447 401.748Z" fill="#E0DFE6"></path> <path d="M224.759 370.232L224.906 372.684C241.314 371.728 258.875 371.262 278.594 371.262C290.661 371.262 296.768 371.482 305.254 371.801C309.105 371.948 313.397 372.12 318.891 372.267V369.815C313.397 369.667 309.08 369.496 305.254 369.349C296.768 369.03 290.539 368.809 278.521 368.809C258.826 368.735 241.29 369.201 224.759 370.232Z" fill="#E0DFE6"></path> <path d="M306.578 417.2L313.936 426.814L317.885 427.918L308.442 415.655L306.578 417.2Z" fill="#E0DFE6"></path> <path d="M441.277 371.9C445.005 376.168 448.766 380.575 452.559 385.12C453.025 384.409 453.466 383.673 453.932 382.937C450.302 378.604 446.705 374.386 443.141 370.282L441.277 371.9Z" fill="#E0DFE6"></path> <path d="M322.227 371.9C334.196 385.635 346.483 400.719 359.801 417.961C363.701 422.866 367.674 428.213 371.819 433.756C372.8 433.756 373.757 433.609 374.713 433.486C370.2 427.501 365.908 421.86 361.763 416.465C348.396 399.174 336.06 384.065 324.066 370.282L322.227 371.9Z" fill="#E0DFE6"></path> <path d="M298.19 419.285L298.386 416.832C293.694 416.571 288.988 416.661 284.308 417.102L290.121 419.211C292.81 419.074 295.504 419.099 298.19 419.285Z" fill="#E0DFE6"></path> <path d="M444.147 396.45L445.741 394.537C442.798 391.079 439.953 387.94 437.108 384.997L435.342 386.689C438.236 389.681 441.13 392.919 444.147 396.45Z" fill="#E0DFE6"></path> <path d="M310.821 395.371L310.576 392.919C305.23 393.409 299.368 393.63 292.672 393.63C285.976 393.63 278.913 393.385 272.168 393.164C265.423 392.943 258.507 392.698 251.713 392.698C247.961 392.698 244.576 392.698 241.314 392.919V395.371H242.344C245.263 395.371 248.304 395.2 251.639 395.2C258.384 395.2 265.301 395.42 272.021 395.666C278.741 395.911 285.756 396.132 292.599 396.132C299.441 396.132 305.377 395.862 310.821 395.371Z" fill="#E0DFE6"></path> <path d="M302.411 408.836V406.383H256.276L262.702 408.836H302.411Z" fill="#E0DFE6"></path> <path d="M389.404 395.641C396.149 395.862 403.139 396.107 409.982 396.107C416.825 396.107 422.711 395.862 428.132 395.371L427.911 392.919C422.564 393.409 416.678 393.63 409.982 393.63C403.286 393.63 396.223 393.385 389.478 393.164C382.733 392.943 375.817 392.698 369.023 392.698C365.27 392.698 361.886 392.698 358.648 392.919V395.371H359.678C362.597 395.371 365.638 395.2 368.974 395.2C375.768 395.175 382.709 395.396 389.404 395.641Z" fill="#E0DFE6"></path> <path d="M299.515 382.03C297.062 382.03 294.462 381.736 291.151 381.736C285.756 381.736 264.173 381.343 258.85 381.343C249.841 381.266 240.835 381.684 231.871 382.594L232.117 385.047C240.975 384.16 249.875 383.751 258.777 383.82C264.173 383.82 285.756 384.213 291.078 384.213C294.316 384.213 296.866 384.36 299.294 384.507C303.818 384.882 308.367 384.833 312.882 384.36L312.637 381.907C308.276 382.355 303.883 382.396 299.515 382.03Z" fill="#E0DFE6"></path> <path d="M419.745 406.383H365.934V408.836H419.745V406.383Z" fill="#E0DFE6"></path> <path d="M342.068 370.232L342.215 372.684C358.623 371.728 376.184 371.262 395.903 371.262C407.97 371.262 414.102 371.482 422.563 371.801C426.414 371.948 430.706 372.12 436.2 372.267V369.815C430.706 369.667 426.389 369.496 422.588 369.349C414.077 369.03 407.872 368.809 395.83 368.809C376.184 368.735 358.525 369.201 342.068 370.232Z" fill="#E0DFE6"></path> <path d="M434.41 400.204L432.497 401.749L433.209 402.656L435.661 405.624L437.427 403.907C436.422 402.607 435.416 401.381 434.41 400.204Z" fill="#E0DFE6"></path> <path d="M337.36 407.733C331.355 399.807 324.919 392.217 318.082 384.997L316.291 386.689C323.074 393.848 329.46 401.373 335.422 409.229C339.076 413.938 351.413 430.518 354.062 434C355.116 434 356.171 434 357.25 434C354.111 430.101 341.014 412.442 337.36 407.733Z" fill="#E0DFE6"></path> <path d="M383.666 427.378L384.034 429.831C387.941 429.37 391.872 429.124 395.807 429.095C398.259 428.384 400.466 427.526 402.821 426.643C396.427 426.478 390.029 426.724 383.666 427.378Z" fill="#E0DFE6"></path> <path d="M398.896 419.677C404.41 419.093 409.961 418.929 415.5 419.187L415.696 416.734C410.018 416.475 404.329 416.639 398.675 417.224C394.726 417.568 390.655 417.911 386.657 417.911C382.914 417.947 379.178 417.56 375.522 416.758L374.982 419.211C378.812 420.075 382.731 420.487 386.657 420.437C390.753 420.364 394.898 420.02 398.896 419.677Z" fill="#E0DFE6"></path> <path d="M171.194 371.262C177.031 371.262 195.254 372.047 200.625 372.194V369.741C195.132 369.594 190.815 369.423 186.989 369.275C179.901 369.006 174.456 368.809 165.798 368.76L171.194 371.262Z" fill="#E0DFE6"></path> <path d="M205.824 371.9C212.054 379.037 218.357 386.616 224.857 394.538L229.468 396.304C222.11 387.058 214.752 378.424 207.688 370.282L205.824 371.9Z" fill="#E0DFE6"></path> <g style="mix-blend-mode:multiply"> <path d="M384.278 325.815C366.962 291.478 316.193 268.864 278.815 270.63C252.498 271.857 226.892 286.597 218.725 312.84C214.668 325.458 215.734 339.164 221.693 351.003C221.808 352.213 222.221 353.376 222.895 354.388C227.456 361.451 230.253 368.858 235.894 375.333C241.903 382.323 250.094 387.008 258.262 391.079C274.768 399.32 292.942 403.097 311.189 404.937C331.129 406.923 351.658 404.936 367.845 392.232C388.447 375.946 396.492 350.096 384.278 325.815Z" fill="#D7DCE0"></path> </g> <g style="mix-blend-mode:multiply"> <path d="M346.557 195.311C337.335 183.538 320.681 181.797 310.503 180.423C297.773 178.682 285.437 176.989 272.585 178.461C248.623 181.257 238.935 205.023 253.798 223.859C269.053 243.186 297.577 253.879 321.76 255.204C335.422 255.94 348.911 245.81 353.816 233.621C359.531 219.42 355.68 206.961 346.557 195.311Z" fill="#D7DCE0"></path> </g> <path d="M284.039 18.7447C284.039 22.4727 281.586 26.1027 276.534 29.0458C270.91 31.8869 264.697 33.367 258.397 33.367C252.096 33.367 245.883 31.8869 240.259 29.0458C235.354 26.1517 232.754 22.3501 232.754 18.573C232.754 14.796 235.207 10.9944 240.259 8.10031C245.879 5.24593 252.093 3.7582 258.397 3.7582C264.7 3.7582 270.914 5.24593 276.534 8.10031C281.611 11.0435 284.113 14.8941 284.039 18.7447Z" fill="white"></path> <path d="M284.039 18.7447V182.237C284.039 186.014 281.586 189.816 276.534 192.685C270.914 195.54 264.7 197.027 258.397 197.027C252.093 197.027 245.879 195.54 240.259 192.685C235.354 189.816 232.754 186.014 232.754 182.237V18.573C232.754 22.35 235.207 26.1517 240.259 29.0458C245.883 31.8869 252.096 33.367 258.397 33.367C264.697 33.367 270.91 31.8869 276.534 29.0458C281.464 26.2007 283.965 22.4727 284.039 18.7447Z" fill="white"></path> <path d="M258.458 37.0663C251.486 37.1581 244.606 35.4698 238.469 32.161C232.46 28.6783 229.124 23.822 229.124 18.4998C229.124 13.1776 232.46 8.32139 238.469 4.83865C244.647 1.65885 251.496 0 258.445 0C265.394 0 272.243 1.65885 278.422 4.83865C284.456 8.34592 287.865 13.3984 287.766 18.7451C287.668 24.0919 284.333 28.7273 278.422 32.161C272.293 35.4688 265.421 37.1572 258.458 37.0663ZM258.458 7.46299C252.784 7.33442 247.172 8.65106 242.148 11.2891C238.567 13.3738 236.482 16.0227 236.482 18.647C236.482 21.2713 238.567 23.8466 242.148 26.0049C247.212 28.5219 252.79 29.8317 258.445 29.8317C264.101 29.8317 269.679 28.5219 274.743 26.0049C278.299 23.9447 280.359 21.3204 280.409 18.8187C280.409 16.2434 278.398 13.5455 274.743 11.4608C269.742 8.76619 264.138 7.39029 258.458 7.46299Z" fill="#3A3A3A"></path> <path d="M258.458 200.731C251.485 200.834 244.602 199.145 238.469 195.826C232.46 192.368 229.124 187.511 229.124 182.189V18.5739C229.124 17.5982 229.512 16.6624 230.202 15.9725C230.892 15.2825 231.827 14.895 232.803 14.895C233.779 14.895 234.715 15.2825 235.405 15.9725C236.095 16.6624 236.482 17.5982 236.482 18.5739V182.238C236.482 184.691 238.567 187.438 242.148 189.596C247.212 192.113 252.79 193.423 258.445 193.423C264.101 193.423 269.679 192.113 274.743 189.596C278.348 187.536 280.409 184.862 280.409 182.238V18.7456C280.402 17.7611 280.785 16.8139 281.474 16.1109C282.164 15.4078 283.103 15.006 284.087 14.9931C284.566 14.98 285.042 15.0629 285.488 15.2369C285.934 15.411 286.34 15.6727 286.683 16.0065C287.026 16.3404 287.299 16.7396 287.485 17.1805C287.671 17.6215 287.767 18.0953 287.766 18.5739V182.238C287.766 187.56 284.456 192.392 278.422 195.875C272.293 199.177 265.419 200.849 258.458 200.731Z" fill="#3A3A3A"></path> <path d="M303.294 331.75C303.294 355.958 295.225 373.004 282.495 380.337C277.801 383.023 272.476 384.412 267.068 384.359C258.621 384.095 250.392 381.617 243.204 377.173L63.7204 273.549C30.5363 254.394 3.67999 203.012 3.67999 158.791C3.67999 134.583 11.7246 117.562 24.4537 110.253C29.1399 107.545 34.4686 106.147 39.8809 106.206C48.3236 106.469 56.5472 108.957 63.7204 113.417L243.204 217.016C276.388 236.171 303.294 287.554 303.294 331.75Z" fill="white"></path> <path d="M24.4518 110.253L72.6215 82.4158C83.1433 76.3087 96.9026 76.8729 111.864 85.5797L291.347 189.203C324.507 208.334 351.412 259.717 351.412 303.938C351.412 328.145 343.368 345.166 330.639 352.524L282.444 380.362C295.174 373.004 303.218 355.835 303.218 331.75C303.218 287.603 276.239 236.098 243.129 217.016L63.6448 113.417C56.4717 108.957 48.2481 106.469 39.8053 106.206C34.4179 106.16 29.1164 107.557 24.4518 110.253Z" fill="#3A3A3A"></path> <g clip-path="url(#clip0_302_304)"> <path d="M204.821 299.309V242.867L216.488 250.853V275.913L240.031 266.974L255.695 277.709L233.968 284.815L256.919 334.954L241.829 324.631L225.974 287.228L216.526 290.183V307.238L204.821 299.309Z" fill="#3A3A3A"></path> </g> <path d="M267.067 388.039C257.98 387.791 249.121 385.143 241.388 380.363L61.8799 276.739C27.7638 257.118 0 204.116 0 158.792C0 134.265 8.2408 115.307 22.6378 107.066C27.8464 104.032 33.7788 102.464 39.8062 102.528C48.8975 102.772 57.7602 105.43 65.4852 110.23L244.994 213.829C279.11 233.45 306.898 286.451 306.898 331.751C306.898 356.278 298.657 375.236 284.26 383.526C279.03 386.527 273.097 388.084 267.067 388.039ZM39.8798 109.886C35.1246 109.832 30.4414 111.051 26.3167 113.418C14.2497 120.359 7.3579 136.89 7.3579 158.792C7.3579 201.786 33.4539 251.845 65.5588 270.362L245.067 374.01C258.287 381.638 270.967 382.766 280.655 377.15C292.697 370.209 299.614 353.678 299.614 331.751C299.614 288.781 273.493 238.747 241.388 220.206L61.8799 116.582C55.261 112.458 47.6737 110.149 39.8798 109.886Z" fill="#3A3A3A"></path> <path d="M282.519 384.041C281.708 384.042 280.92 383.775 280.276 383.282C279.633 382.788 279.171 382.097 278.961 381.314C278.751 380.531 278.806 379.7 279.117 378.952C279.427 378.203 279.977 377.578 280.679 377.173L328.873 349.336C340.916 342.37 347.808 325.815 347.808 303.938C347.808 260.967 321.687 210.909 289.582 192.392L110.099 88.7681C96.8299 81.0914 84.1742 79.9632 74.4618 85.6043L26.2675 113.417C25.4362 113.88 24.4565 113.998 23.5391 113.746C22.6217 113.493 21.8399 112.891 21.3622 112.068C20.8718 111.226 20.7358 110.223 20.9841 109.28C21.2324 108.337 21.8449 107.532 22.6867 107.04L70.881 79.2274C82.9725 72.2374 98.2525 73.3411 113.876 82.3914L293.359 186.015C327.5 205.636 355.264 258.613 355.264 303.938C355.264 328.464 347.023 347.374 332.675 355.713L284.456 383.525C283.874 383.881 283.201 384.06 282.519 384.041Z" fill="#3A3A3A"></path> <path d="M95.7263 185.418C98.5804 190.118 100.177 195.473 100.362 200.968C100.362 205.628 98.8166 209.38 95.7263 211.171L66.2947 228.119L36.8631 177.276C30.7315 166.607 30.7315 155.202 36.8631 151.523C39.9534 149.732 44.0004 150.297 48.0227 152.627C52.6952 155.523 56.5393 159.579 59.182 164.399L66.221 176.662L73.2846 172.591C79.5879 168.986 89.5702 174.749 95.7263 185.418Z" fill="#3FAAF0"></path> <path d="M66.3683 231.797C65.7226 231.795 65.0887 231.624 64.5294 231.301C63.9701 230.978 63.5047 230.515 63.1798 229.957L33.7482 179.114C26.3903 166.508 27.0526 152.994 35.0727 148.334C39.2422 145.881 44.5153 146.323 49.7885 149.437C55.0123 152.668 59.3192 157.187 62.2968 162.559L67.4964 171.585L71.3715 169.353C79.4161 164.717 91.4095 170.971 98.6938 183.578C101.871 188.837 103.637 194.826 103.82 200.967C103.82 207.197 101.515 211.955 97.3451 214.359L67.9135 231.306C67.4403 231.58 66.9129 231.748 66.3683 231.797ZM41.1306 154.146C40.3341 154.132 39.5479 154.327 38.8498 154.711C35.0973 156.893 34.7292 165.944 40.1986 175.435L67.7171 223.09L93.8868 207.982C94.9068 207.143 95.6981 206.061 96.187 204.834C96.6759 203.608 96.8465 202.277 96.6828 200.967C96.478 196.121 95.0521 191.405 92.5377 187.257C87.0438 177.765 79.0482 173.547 75.3693 175.73L68.3057 179.801C67.4587 180.283 66.4562 180.411 65.515 180.159C64.5739 179.906 63.77 179.293 63.278 178.452L56.2389 166.189C53.9097 161.936 50.5328 158.348 46.4284 155.765C44.8325 154.776 43.0069 154.218 41.1306 154.146Z" fill="#3A3A3A"></path> <path d="M137.863 201.727V265.594L125.06 258.211V206.191L113.998 199.79V187.943L137.863 201.727Z" fill="#3A3A3A"></path> <path d="M188.852 282.983V295.025L147.157 270.892V261.326L168.495 250.363C170.34 249.546 171.926 248.24 173.082 246.586C173.886 245.167 174.292 243.557 174.259 241.926C174.259 239.36 173.481 236.854 172.027 234.74C170.294 232.307 168.03 230.302 165.405 228.878C163.432 227.624 161.185 226.867 158.856 226.671C157.946 226.626 157.036 226.779 156.19 227.118C155.343 227.456 154.58 227.973 153.951 228.633L144.631 216.37C145.747 215.132 147.132 214.167 148.68 213.551C150.228 212.934 151.897 212.682 153.558 212.813C158.204 213.175 162.687 214.684 166.607 217.203C170.61 219.494 174.247 222.371 177.398 225.739C180.357 228.908 182.784 232.536 184.584 236.481C186.213 240.088 187.05 244.002 187.037 247.959C187.143 250.961 186.484 253.94 185.124 256.617C183.357 259.372 180.789 261.52 177.766 262.773L165.037 269.297L188.852 282.983Z" fill="#3A3A3A"></path> <defs> <clipPath id="clip0_302_304"> <rect width="13" height="23" fill="white" transform="translate(204.821 242.867) scale(4.00458)"></rect> </clipPath> </defs> </svg> 