<?xml version="1.0" encoding="UTF-8"?> <svg xmlns="http://www.w3.org/2000/svg" width="231" height="148" viewBox="0 0 231 148" fill="none"> <path d="M34.648 132.426C36.4188 132.301 38.196 132.301 39.9668 132.426L39.6927 135.168C38.0308 135.07 36.3648 135.07 34.7029 135.168C32.7289 135.168 31.0289 135.168 29.4387 135.168C27.8679 135.085 26.2939 135.085 24.7231 135.168L24.5584 132.426C26.3131 132.426 27.8761 132.426 29.5485 132.426C31.2209 132.426 32.7563 132.453 34.648 132.426Z" fill="#E0DFE6"></path> <path d="M21.9116 118.279C24.6533 118.279 34.688 118.279 38.0878 118.279C39.0473 118.279 39.9521 118.279 40.8295 118.279C41.7068 118.279 43.571 118.444 45.4902 118.279V121.021H43.9276C42.5842 121.021 41.515 121.021 40.5554 121.021C39.5958 121.021 38.8007 121.021 37.8136 121.021C34.3591 121.021 24.3519 121.021 21.3634 121.021L21.9116 118.279Z" fill="#E0DFE6"></path> <path d="M17.7906 106.792H23.274C32.686 106.477 42.1087 106.752 51.4863 107.615L51.1024 110.357C41.8601 109.529 32.576 109.263 23.3015 109.562H17.818L17.7906 106.792Z" fill="#E0DFE6"></path> <path d="M4.35933 94.5371L6.52539 96.237L0.630647 103.859C0.383893 102.653 0.16461 101.446 0.000107765 100.212L4.35933 94.5371Z" fill="#E0DFE6"></path> <path d="M59.851 58.8934C53.8192 58.8934 29.6924 59.3319 23.7429 59.3319C20.0964 59.3319 17.2721 59.4967 14.5579 59.6612C11.8436 59.8257 9.92446 59.9353 7.45692 59.9353C8.03268 58.9757 8.66342 58.0709 9.32143 57.1936C11.0213 57.1936 12.6663 57.0563 14.3935 56.9466C17.1352 56.9466 20.0415 56.6176 23.7429 56.6176C29.7746 56.6176 53.9014 56.1792 59.851 56.1792C69.9216 56.1068 79.989 56.5736 90.0098 57.5775L89.7357 60.3192C79.807 59.3067 69.8309 58.8307 59.851 58.8934Z" fill="#E0DFE6"></path> <path d="M37.7898 44.8017C31.8403 44.8017 27.2068 44.8017 23.0394 44.8017C24.398 44.0218 25.7981 43.317 27.234 42.6905L28.9341 41.9502H37.7898C59.888 41.9502 79.5735 42.471 98.1074 43.5677L97.9428 46.3094C79.4911 45.3224 59.8332 44.8017 37.7898 44.8017Z" fill="#E0DFE6"></path> <path d="M2.93745 69.1765C8.66763 69.6701 14.9187 69.9169 22.1294 69.9169C29.7514 69.9169 37.5104 69.6425 45.0501 69.3958C52.5898 69.149 60.3217 68.875 67.9162 68.875C72.111 68.875 75.8945 68.8749 79.541 69.1217V71.8634H78.3894C75.1267 71.8634 71.7272 71.6713 67.9985 71.6713C60.4588 71.6713 52.727 71.9182 45.2147 72.1924C37.7025 72.4665 29.8611 72.7131 22.2118 72.7131C14.5624 72.7131 8.20182 72.4666 2.19747 71.9183C2.30714 70.9587 2.71812 70.0539 2.93745 69.1765Z" fill="#E0DFE6"></path> <path d="M11.1543 84.1191H71.3076V86.8609H11.1543V84.1191Z" fill="#E0DFE6"></path> <path d="M8.9748 112.879L11.168 114.551C10.181 115.812 8.42631 117.842 6.42486 120.282C5.95877 119.377 5.52015 118.5 5.1089 117.54C6.78134 115.621 8.23454 113.948 8.9748 112.879Z" fill="#E0DFE6"></path> <path d="M15.6712 95.8245C22.0185 95.5349 28.3787 95.7181 34.6988 96.3727C39.113 96.7565 43.6643 97.1405 48.1333 97.1405C52.3177 97.1816 56.4931 96.7494 60.5804 95.8519L61.2109 98.5936C56.9165 99.5346 52.5294 99.9853 48.1333 99.9371C43.5546 99.9371 38.9485 99.5531 34.4247 99.1693C28.2513 98.516 22.037 98.3328 15.8358 98.6211L15.6712 95.8245Z" fill="#E0DFE6"></path> <path d="M143.119 125.765L145.203 127.574L143.037 130.042L136.759 133.057C137.088 132.728 141.529 127.629 143.119 125.765Z" fill="#E0DFE6"></path> <path d="M93.78 147.233L134.33 94.5371L136.496 96.237L96.9056 147.479L94.6301 148L93.78 147.233Z" fill="#E0DFE6"></path> <path d="M130.096 123.57C132.837 119.924 136.429 115.811 139.747 112.247L141.748 114.112C138.485 117.621 135.031 121.679 132.262 125.243C129.164 129.246 125.709 133.029 122.364 136.676L118.745 140.706L113.481 142.598C115.729 139.856 118.032 137.361 120.335 134.839C123.653 131.22 127.08 127.464 130.096 123.57Z" fill="#E0DFE6"></path> <path d="M155.368 109.533H149.885V106.792H155.368C162.661 106.792 172.12 106.627 179.221 107.176L178.919 107.395C177.905 108.19 176.863 108.93 175.821 109.698C169.296 109.534 161.537 109.533 155.368 109.533Z" fill="#E0DFE6"></path> <path d="M153.951 118.279C155.624 118.279 159.709 118.279 163.465 118.279C162.039 119.239 160.586 120.144 159.106 121.021C156.857 121.021 154.856 121.021 153.814 121.021L153.951 118.279Z" fill="#E0DFE6"></path> <path d="M166.776 96.2645C171.19 96.6483 175.741 97.0319 180.21 97.0319C184.179 97.07 188.141 96.6842 192.027 95.8806L188.436 99.2528C185.708 99.6015 182.96 99.7754 180.21 99.7736C175.632 99.7736 170.998 99.39 166.502 99.0062C160.338 98.3533 154.133 98.1698 147.94 98.4576L147.721 95.7159C154.078 95.425 160.447 95.6084 166.776 96.2645Z" fill="#E0DFE6"></path> <path d="M143.225 84.1455H203.378V84.6117L201.102 86.8872H143.225V84.1455Z" fill="#E0DFE6"></path> <path d="M90.1675 101.611C94.143 96.2643 98.1185 90.9181 102.204 85.654C108.917 76.7864 116.12 68.3012 123.781 60.2383L125.755 62.1299C118.173 70.1328 111.034 78.5443 104.369 87.3264C100.284 92.5905 84.41 113.948 80.3249 119.24C73.6054 128.094 66.4113 136.579 58.7748 144.656L56.7734 142.764C64.3555 134.761 71.4947 126.35 78.1588 117.568C82.2166 112.276 86.1921 106.957 90.1675 101.611Z" fill="#E0DFE6"></path> <path d="M117.031 43.7324L119.114 45.542C105.735 60.8956 91.9989 77.7295 77.084 97.0311C66.1171 111.343 54.1907 127.19 40.0709 146.601L37.3292 145.669C51.6957 125.929 63.6769 109.862 74.8905 95.3587C89.8602 76.0845 103.624 59.1957 117.031 43.7324Z" fill="#E0DFE6"></path> <path d="M134.084 69.1217C140.061 69.67 146.641 69.9169 154.126 69.9169C161.61 69.9169 169.507 69.6425 177.046 69.3958C184.586 69.149 192.318 68.875 199.912 68.875C204.107 68.875 207.891 68.8749 211.51 69.1217V71.8634H210.358C207.095 71.8634 203.696 71.6713 199.967 71.6713C192.427 71.6713 184.668 71.9182 177.183 72.1924C169.699 72.4665 161.83 72.7131 154.181 72.7131C146.531 72.7131 139.951 72.4392 133.892 71.8908L134.084 69.1217Z" fill="#E0DFE6"></path> <path d="M128.151 79.9506C125.821 82.6923 123.463 85.6534 120.94 88.916C115.841 95.5236 110.823 102.625 105.998 109.232C101.173 115.84 96.0731 122.941 90.8912 129.74C85.7094 136.54 81.0484 141.996 76.4424 146.931L74.441 145.066C78.9648 140.186 83.653 134.62 88.7252 128.068C93.7973 121.515 98.8969 114.359 103.75 107.615C108.603 100.87 113.647 93.906 118.774 87.2436C121.516 83.5697 124.258 80.2796 126.835 77.2363L128.974 78.9636L128.178 79.978L128.151 79.9506Z" fill="#E0DFE6"></path> <path d="M124.728 43.1838C130.87 43.0193 135.695 42.8272 139.945 42.6627C149.459 42.3062 156.395 42.0596 169.857 42.0596C187.87 42.0596 204.265 42.416 219.701 43.1289C219.975 44.0336 220.195 44.9658 220.387 45.8706C204.786 45.1303 188.144 44.7738 169.857 44.7738C156.368 44.7738 149.513 45.0205 140.054 45.3769C135.75 45.5414 130.952 45.7335 124.811 45.898L124.728 43.1838Z" fill="#E0DFE6"></path> <path d="M131.572 56.7555C136.473 57.2703 141.411 57.3255 146.322 56.9201C149.064 56.9201 151.806 56.5908 155.672 56.5908C161.676 56.5908 185.83 56.1524 191.752 56.1524C201.437 56.0799 211.119 56.5099 220.76 57.4409C220.76 58.3457 220.513 59.2504 220.348 60.1826C210.844 59.2756 201.3 58.8547 191.752 58.9215C185.748 58.9215 161.594 59.36 155.672 59.36C152.025 59.36 149.201 59.5244 146.459 59.6889C141.402 60.108 136.317 60.0531 131.27 59.5246L131.572 56.7555Z" fill="#E0DFE6"></path> <path d="M160.285 29.7499C161.343 29.6551 162.408 29.6551 163.466 29.7499L163.054 32.4916C162.143 32.403 161.225 32.403 160.313 32.4916C158.879 32.6127 157.435 32.5016 156.036 32.1626L156.803 29.4209C157.939 29.7161 159.115 29.8272 160.285 29.7499Z" fill="#E0DFE6"></path> <path d="M191.899 29.5039L189.925 27.612C192.008 25.446 194.092 23.1704 196.203 20.7852C197.19 21.0319 198.15 21.3059 199.109 21.6349C196.614 24.5411 194.229 27.0364 191.899 29.5039Z" fill="#E0DFE6"></path> <path d="M181.626 19.9346C178.281 24.4858 174.799 29.2566 171.18 34.2466L168.959 32.6287L177.815 20.5106H178.445C179.515 20.209 180.557 20.0717 181.626 19.9346Z" fill="#E0DFE6"></path> <path d="M112.59 32.7667C111.357 34.3569 110.287 35.8646 109.273 37.4L106.997 35.8923C108.012 34.3021 109.136 32.7393 110.425 31.0943C110.836 30.5459 111.274 30.0522 111.713 29.5313C113.111 29.2571 114.455 28.9557 115.963 28.709C114.811 30.025 113.66 31.4232 112.59 32.7667Z" fill="#E0DFE6"></path> <path d="M124.597 36.4668L122.432 34.7943C124.351 32.3268 126.709 29.3109 129.258 26.5692L133.48 25.8838C130.163 29.6125 127.01 33.3686 124.597 36.4668Z" fill="#E0DFE6"></path> <path d="M211.645 29.4212C210.932 30.2162 210.219 31.0387 209.506 31.779L207.505 29.9145C208.217 29.1742 208.93 28.3517 209.643 27.5566C210.343 28.142 211.011 28.7644 211.645 29.4212Z" fill="#E0DFE6"></path> <path d="M141.984 35.5063L139.461 34.4096C141.752 30.2183 144.878 26.5418 148.646 23.6074H149.907L151.031 25.4167C147.309 28.0723 144.22 31.5178 141.984 35.5063Z" fill="#E0DFE6"></path> <path d="M93.7792 32.0803L94.1906 31.5321L97.8369 31.3125L95.9453 33.7527L93.7792 32.0803Z" fill="#E0DFE6"></path> <path d="M46.2989 83.3775C47.015 83.3745 47.7167 83.1755 48.3277 82.8019L178.449 7.67895C179.394 7.13359 180.084 6.23527 180.367 5.18122C180.65 4.12717 180.503 3.00393 179.957 2.05864C179.412 1.11335 178.513 0.423379 177.459 0.140585C176.405 -0.142209 175.282 0.00520991 174.337 0.55057L44.2151 75.7009C43.4277 76.1542 42.8127 76.8552 42.4658 77.695C42.1189 78.5347 42.0598 79.4658 42.2978 80.3426C42.5358 81.2195 43.0572 81.9927 43.7811 82.5418C44.5049 83.0909 45.3904 83.3846 46.2989 83.3775Z" fill="#3A3A3A"></path> <path d="M71.0391 97.6628C71.7611 97.6662 72.471 97.4767 73.0954 97.1143L203.217 21.9913C203.685 21.7213 204.095 21.362 204.424 20.9334C204.753 20.5048 204.995 20.0155 205.135 19.4936C205.275 18.9717 205.311 18.4273 205.24 17.8915C205.17 17.3557 204.995 16.8391 204.725 16.371C204.455 15.903 204.095 15.4926 203.667 15.1635C203.238 14.8344 202.749 14.593 202.227 14.453C201.705 14.313 201.161 14.2772 200.625 14.3476C200.089 14.4179 199.572 14.5929 199.104 14.863L68.9828 89.9859C68.1975 90.438 67.5835 91.1366 67.2361 91.9736C66.8888 92.8105 66.8273 93.7389 67.0618 94.6142C67.2962 95.4895 67.8135 96.2628 68.5327 96.8141C69.2519 97.3653 70.133 97.6638 71.0391 97.6628Z" fill="#3A3A3A"></path> <path d="M95.8064 111.947C96.5287 111.953 97.2392 111.764 97.8626 111.399L227.984 36.2759C228.452 36.0058 228.863 35.6462 229.192 35.2176C229.521 34.789 229.762 34.2997 229.902 33.7778C230.043 33.2559 230.078 32.7114 230.008 32.1757C229.938 31.6399 229.762 31.1233 229.492 30.6552C229.222 30.1872 228.863 29.7768 228.434 29.4477C228.005 29.1186 227.516 28.8772 226.994 28.7372C226.473 28.5971 225.928 28.5614 225.392 28.6317C224.857 28.7021 224.34 28.8774 223.872 29.1475L93.7501 104.298C92.9568 104.742 92.3344 105.438 91.9813 106.275C91.6281 107.113 91.5645 108.045 91.8006 108.923C92.0366 109.801 92.5586 110.575 93.2842 111.123C94.0098 111.67 94.8973 111.961 95.8064 111.947Z" fill="#3A3A3A"></path> </svg> 