<?xml version="1.0" encoding="UTF-8"?> <svg xmlns="http://www.w3.org/2000/svg" width="2388" height="8" viewBox="0 0 2388 8" fill="none"> <path fill-rule="evenodd" clip-rule="evenodd" d="M4.01332 7.99976L-6.99361e-07 7.99976L0 0L4.01332 3.50856e-07L4.01332 7.99976ZM24.0799 7.99976L16.0533 7.99976L16.0533 1.40342e-06L24.0799 2.10514e-06L24.0799 7.99976ZM44.1466 7.99976L36.1199 7.99976L36.1199 3.1577e-06L44.1466 3.85941e-06L44.1466 7.99976ZM64.2132 7.99976L56.1865 7.99976L56.1865 4.91198e-06L64.2132 5.61369e-06L64.2132 7.99976ZM84.2798 7.99976L76.2531 7.99976L76.2531 6.66626e-06L84.2798 7.36797e-06L84.2798 7.99976ZM104.346 7.99976L96.3198 7.99976L96.3198 8.42054e-06L104.346 9.12225e-06L104.346 7.99976ZM124.413 7.99977L116.386 7.99977L116.386 1.01748e-05L124.413 1.08765e-05L124.413 7.99977ZM144.48 7.99977L136.453 7.99977L136.453 1.19291e-05L144.48 1.26308e-05L144.48 7.99977ZM164.546 7.99977L156.52 7.99977L156.52 1.36834e-05L164.546 1.43851e-05L164.546 7.99977ZM184.613 7.99977L176.586 7.99977L176.586 1.54377e-05L184.613 1.61394e-05L184.613 7.99977ZM204.679 7.99977L196.653 7.99977L196.653 1.71919e-05L204.679 1.78937e-05L204.679 7.99977ZM224.746 7.99978L216.719 7.99977L216.719 1.89462e-05L224.746 1.96479e-05L224.746 7.99978ZM244.813 7.99978L236.786 7.99978L236.786 2.07005e-05L244.813 2.14022e-05L244.813 7.99978ZM264.879 7.99978L256.853 7.99978L256.853 2.24548e-05L264.879 2.31565e-05L264.879 7.99978ZM284.946 7.99978L276.919 7.99978L276.919 2.42091e-05L284.946 2.49108e-05L284.946 7.99978ZM305.013 7.99978L296.986 7.99978L296.986 2.59633e-05L305.013 2.6665e-05L305.013 7.99978ZM325.079 7.99978L317.053 7.99978L317.053 2.77176e-05L325.079 2.84193e-05L325.079 7.99978ZM345.146 7.99979L337.119 7.99979L337.119 2.94719e-05L345.146 3.01736e-05L345.146 7.99979ZM365.212 7.99979L357.186 7.99979L357.186 3.12262e-05L365.212 3.19279e-05L365.212 7.99979ZM385.279 7.99979L377.252 7.99979L377.252 3.29805e-05L385.279 3.36822e-05L385.279 7.99979ZM405.346 7.99979L397.319 7.99979L397.319 3.47347e-05L405.346 3.54364e-05L405.346 7.99979ZM425.412 7.99979L417.386 7.99979L417.386 3.6489e-05L425.412 3.71907e-05L425.412 7.99979ZM445.479 7.99979L437.452 7.99979L437.452 3.82433e-05L445.479 3.8945e-05L445.479 7.99979ZM465.545 7.9998L457.519 7.9998L457.519 3.99976e-05L465.545 4.06993e-05L465.545 7.9998ZM485.612 7.9998L477.585 7.9998L477.585 4.17518e-05L485.612 4.24536e-05L485.612 7.9998ZM505.679 7.9998L497.652 7.9998L497.652 4.35061e-05L505.679 4.42078e-05L505.679 7.9998ZM525.745 7.9998L517.719 7.9998L517.719 4.52604e-05L525.745 4.59621e-05L525.745 7.9998ZM545.812 7.9998L537.785 7.9998L537.785 4.70147e-05L545.812 4.77164e-05L545.812 7.9998ZM565.879 7.99981L557.852 7.9998L557.852 4.8769e-05L565.879 4.94707e-05L565.879 7.99981ZM585.945 7.99981L577.919 7.99981L577.919 5.05233e-05L585.945 5.1225e-05L585.945 7.99981ZM606.012 7.99981L597.985 7.99981L597.985 5.22775e-05L606.012 5.29792e-05L606.012 7.99981ZM626.079 7.99981L618.052 7.99981L618.052 5.40318e-05L626.079 5.47335e-05L626.079 7.99981ZM646.145 7.99981L638.119 7.99981L638.119 5.57861e-05L646.145 5.64878e-05L646.145 7.99981ZM666.212 7.99981L658.185 7.99981L658.185 5.75404e-05L666.212 5.82421e-05L666.212 7.99981ZM686.279 7.99982L678.252 7.99982L678.252 5.92947e-05L686.279 5.99964e-05L686.279 7.99982ZM706.345 7.99982L698.318 7.99982L698.318 6.10489e-05L706.345 6.17507e-05L706.345 7.99982ZM726.412 7.99982L718.385 7.99982L718.385 6.28032e-05L726.412 6.35049e-05L726.412 7.99982ZM746.479 7.99982L738.452 7.99982L738.452 6.45575e-05L746.479 6.52592e-05L746.479 7.99982ZM766.545 7.99982L758.518 7.99982L758.518 6.63118e-05L766.545 6.70135e-05L766.545 7.99982ZM786.612 7.99982L778.585 7.99982L778.585 6.80661e-05L786.612 6.87678e-05L786.612 7.99982ZM806.678 7.99983L798.652 7.99983L798.652 6.98204e-05L806.678 7.05221e-05L806.678 7.99983ZM826.745 7.99983L818.718 7.99983L818.718 7.15746e-05L826.745 7.22764e-05L826.745 7.99983ZM846.812 7.99983L838.785 7.99983L838.785 7.33289e-05L846.812 7.40306e-05L846.812 7.99983ZM866.878 7.99983L858.852 7.99983L858.852 7.50832e-05L866.878 7.57849e-05L866.878 7.99983ZM886.945 7.99983L878.918 7.99983L878.918 7.68375e-05L886.945 7.75392e-05L886.945 7.99983ZM907.012 7.99984L898.985 7.99983L898.985 7.85918e-05L907.012 7.92935e-05L907.012 7.99984ZM927.078 7.99984L919.052 7.99984L919.052 8.0346e-05L927.078 8.10478e-05L927.078 7.99984ZM947.145 7.99984L939.118 7.99984L939.118 8.21003e-05L947.145 8.2802e-05L947.145 7.99984ZM967.212 7.99984L959.185 7.99984L959.185 8.38546e-05L967.212 8.45563e-05L967.212 7.99984ZM987.278 7.99984L979.252 7.99984L979.252 8.56089e-05L987.278 8.63106e-05L987.278 7.99984ZM1007.34 7.99984L999.318 7.99984L999.318 8.73632e-05L1007.34 8.80649e-05L1007.34 7.99984ZM1027.41 7.99985L1019.38 7.99984L1019.38 8.91175e-05L1027.41 8.98192e-05L1027.41 7.99985ZM1047.48 7.99985L1039.45 7.99985L1039.45 9.08717e-05L1047.48 9.15734e-05L1047.48 7.99985ZM1067.54 7.99985L1059.52 7.99985L1059.52 9.2626e-05L1067.54 9.33277e-05L1067.54 7.99985ZM1087.61 7.99985L1079.58 7.99985L1079.58 9.43803e-05L1087.61 9.5082e-05L1087.61 7.99985ZM1107.68 7.99985L1099.65 7.99985L1099.65 9.61345e-05L1107.68 9.68363e-05L1107.68 7.99985ZM1127.74 7.99985L1119.72 7.99985L1119.72 9.78888e-05L1127.74 9.85905e-05L1127.74 7.99985ZM1147.81 7.99986L1139.78 7.99986L1139.78 9.96431e-05L1147.81 0.000100345L1147.81 7.99986ZM1167.88 7.99986L1159.85 7.99986L1159.85 0.000101397L1167.88 0.000102099L1167.88 7.99986ZM1187.94 7.99986L1179.92 7.99986L1179.92 0.000103152L1187.94 0.000103853L1187.94 7.99986ZM1208.01 7.99986L1199.98 7.99986L1199.98 0.000104906L1208.01 0.000105608L1208.01 7.99986ZM1228.08 7.99986L1220.05 7.99986L1220.05 0.00010666L1228.08 0.000107362L1228.08 7.99986ZM1248.14 7.99986L1240.12 7.99986L1240.12 0.000108414L1248.14 0.000109116L1248.14 7.99986ZM1268.21 7.99987L1260.18 7.99987L1260.18 0.000110169L1268.21 0.00011087L1268.21 7.99987ZM1288.28 7.99987L1280.25 7.99987L1280.25 0.000111923L1288.28 0.000112625L1288.28 7.99987ZM1308.34 7.99987L1300.32 7.99987L1300.32 0.000113677L1308.34 0.000114379L1308.34 7.99987ZM1328.41 7.99987L1320.38 7.99987L1320.38 0.000115432L1328.41 0.000116133L1328.41 7.99987ZM1348.48 7.99987L1340.45 7.99987L1340.45 0.000117186L1348.48 0.000117888L1348.48 7.99987ZM1368.54 7.99988L1360.52 7.99987L1360.52 0.00011894L1368.54 0.000119642L1368.54 7.99988ZM1388.61 7.99988L1380.58 7.99988L1380.58 0.000120694L1388.61 0.000121396L1388.61 7.99988ZM1408.68 7.99988L1400.65 7.99988L1400.65 0.000122449L1408.68 0.00012315L1408.68 7.99988ZM1428.74 7.99988L1420.72 7.99988L1420.72 0.000124203L1428.74 0.000124905L1428.74 7.99988ZM1448.81 7.99988L1440.78 7.99988L1440.78 0.000125957L1448.81 0.000126659L1448.81 7.99988ZM1468.88 7.99988L1460.85 7.99988L1460.85 0.000127711L1468.88 0.000128413L1468.88 7.99988ZM1488.94 7.99989L1480.92 7.99989L1480.92 0.000129466L1488.94 0.000130167L1488.94 7.99989ZM1509.01 7.99989L1500.98 7.99989L1500.98 0.00013122L1509.01 0.000131922L1509.01 7.99989ZM1529.07 7.99989L1521.05 7.99989L1521.05 0.000132974L1529.07 0.000133676L1529.07 7.99989ZM1549.14 7.99989L1541.11 7.99989L1541.11 0.000134729L1549.14 0.00013543L1549.14 7.99989ZM1569.21 7.99989L1561.18 7.99989L1561.18 0.000136483L1569.21 0.000137184L1569.21 7.99989ZM1589.27 7.99989L1581.25 7.99989L1581.25 0.000138237L1589.27 0.000138939L1589.27 7.99989ZM1609.34 7.9999L1601.31 7.9999L1601.31 0.000139991L1609.34 0.000140693L1609.34 7.9999ZM1629.41 7.9999L1621.38 7.9999L1621.38 0.000141746L1629.41 0.000142447L1629.41 7.9999ZM1649.47 7.9999L1641.45 7.9999L1641.45 0.0001435L1649.47 0.000144202L1649.47 7.9999ZM1669.54 7.9999L1661.51 7.9999L1661.51 0.000145254L1669.54 0.000145956L1669.54 7.9999ZM1689.61 7.9999L1681.58 7.9999L1681.58 0.000147008L1689.61 0.00014771L1689.61 7.9999ZM1709.67 7.99991L1701.65 7.9999L1701.65 0.000148763L1709.67 0.000149464L1709.67 7.99991ZM1729.74 7.99991L1721.71 7.99991L1721.71 0.000150517L1729.74 0.000151219L1729.74 7.99991ZM1749.81 7.99991L1741.78 7.99991L1741.78 0.000152271L1749.81 0.000152973L1749.81 7.99991ZM1769.87 7.99991L1761.85 7.99991L1761.85 0.000154026L1769.87 0.000154727L1769.87 7.99991ZM1789.94 7.99991L1781.91 7.99991L1781.91 0.00015578L1789.94 0.000156481L1789.94 7.99991ZM1810.01 7.99991L1801.98 7.99991L1801.98 0.000157534L1810.01 0.000158236L1810.01 7.99991ZM1830.07 7.99992L1822.05 7.99992L1822.05 0.000159288L1830.07 0.00015999L1830.07 7.99992ZM1850.14 7.99992L1842.11 7.99992L1842.11 0.000161043L1850.14 0.000161744L1850.14 7.99992ZM1870.21 7.99992L1862.18 7.99992L1862.18 0.000162797L1870.21 0.000163499L1870.21 7.99992ZM1890.27 7.99992L1882.25 7.99992L1882.25 0.000164551L1890.27 0.000165253L1890.27 7.99992ZM1910.34 7.99992L1902.31 7.99992L1902.31 0.000166305L1910.34 0.000167007L1910.34 7.99992ZM1930.41 7.99992L1922.38 7.99992L1922.38 0.00016806L1930.41 0.000168761L1930.41 7.99992ZM1950.47 7.99993L1942.45 7.99993L1942.45 0.000169814L1950.47 0.000170516L1950.47 7.99993ZM1970.54 7.99993L1962.51 7.99993L1962.51 0.000171568L1970.54 0.00017227L1970.54 7.99993ZM1990.6 7.99993L1982.58 7.99993L1982.58 0.000173322L1990.6 0.000174024L1990.6 7.99993ZM2010.67 7.99993L2002.64 7.99993L2002.64 0.000175077L2010.67 0.000175778L2010.67 7.99993ZM2030.74 7.99993L2022.71 7.99993L2022.71 0.000176831L2030.74 0.000177533L2030.74 7.99993ZM2050.8 7.99994L2042.78 7.99993L2042.78 0.000178585L2050.8 0.000179287L2050.8 7.99994ZM2070.87 7.99994L2062.84 7.99994L2062.84 0.00018034L2070.87 0.000181041L2070.87 7.99994ZM2090.94 7.99994L2082.91 7.99994L2082.91 0.000182094L2090.94 0.000182796L2090.94 7.99994ZM2111 7.99994L2102.98 7.99994L2102.98 0.000183848L2111 0.00018455L2111 7.99994ZM2131.07 7.99994L2123.04 7.99994L2123.04 0.000185602L2131.07 0.000186304L2131.07 7.99994ZM2151.14 7.99994L2143.11 7.99994L2143.11 0.000187357L2151.14 0.000188058L2151.14 7.99994ZM2171.2 7.99995L2163.18 7.99994L2163.18 0.000189111L2171.2 0.000189813L2171.2 7.99995ZM2191.27 7.99995L2183.24 7.99995L2183.24 0.000190865L2191.27 0.000191567L2191.27 7.99995ZM2211.34 7.99995L2203.31 7.99995L2203.31 0.000192619L2211.34 0.000193321L2211.34 7.99995ZM2231.4 7.99995L2223.38 7.99995L2223.38 0.000194374L2231.4 0.000195075L2231.4 7.99995ZM2251.47 7.99995L2243.44 7.99995L2243.44 0.000196128L2251.47 0.00019683L2251.47 7.99995ZM2271.54 7.99995L2263.51 7.99995L2263.51 0.000197882L2271.54 0.000198584L2271.54 7.99995ZM2291.6 7.99996L2283.58 7.99996L2283.58 0.000199637L2291.6 0.000200338L2291.6 7.99996ZM2311.67 7.99996L2303.64 7.99996L2303.64 0.000201391L2311.67 0.000202093L2311.67 7.99996ZM2331.74 7.99996L2323.71 7.99996L2323.71 0.000203145L2331.74 0.000203847L2331.74 7.99996ZM2351.8 7.99996L2343.78 7.99996L2343.78 0.000204899L2351.8 0.000205601L2351.8 7.99996ZM2371.87 7.99996L2363.84 7.99996L2363.84 0.000206654L2371.87 0.000207355L2371.87 7.99996ZM2387.93 7.99996L2383.91 7.99996L2383.91 0.000208408L2387.93 0.000208759L2387.93 7.99996Z" fill="#D9DBE0"></path> </svg> 