<?xml version="1.0" encoding="UTF-8"?> <svg xmlns="http://www.w3.org/2000/svg" width="642" height="608" viewBox="0 0 642 608" fill="none"> <path d="M174.66 124.974L173.385 126.725C175.165 128.041 176.848 129.486 178.42 131.046L180.58 130.268C178.75 128.35 176.77 126.58 174.66 124.974Z" fill="#E0DFE6"></path> <path d="M210.119 57.8162L210.249 59.977C224.705 59.1343 240.176 58.7237 257.549 58.7237H261.482C261.763 58.0107 262 57.2976 262.259 56.5629H257.463C240.176 56.4981 224.618 56.9087 210.119 57.8162Z" fill="#E0DFE6"></path> <path d="M156.639 129.879C158.173 129.879 159.513 129.879 160.766 129.879C162.011 129.815 163.259 129.815 164.504 129.879L164.634 127.719C163.251 127.719 162.019 127.719 160.701 127.719C159.383 127.719 158.173 127.719 156.682 127.719C155.279 127.621 153.871 127.621 152.469 127.719L152.706 129.879C154.016 129.802 155.329 129.802 156.639 129.879Z" fill="#E0DFE6"></path> <path d="M168.867 132.213L167.377 133.789L167.895 134.307L170.292 133.659C169.838 133.206 169.363 132.731 168.867 132.213Z" fill="#E0DFE6"></path> <path d="M178.852 99.196L197.457 123.289L199.423 122.295L180.559 97.8563L178.852 99.196Z" fill="#E0DFE6"></path> <path d="M205.971 90.8557C200.68 83.8669 195.003 77.1797 188.965 70.825L187.409 72.316C193.385 78.6233 199.012 85.2525 204.264 92.1739C207.483 96.3227 216.861 108.942 218.417 111.038L220.189 109.784C218.568 107.667 209.191 95.0045 205.971 90.8557Z" fill="#E0DFE6"></path> <path d="M224.704 77.8262V79.987H225.612C228.183 79.987 230.863 79.8358 233.801 79.8358C239.16 79.8358 244.606 80.0086 249.986 80.1814C250.483 79.49 250.958 78.7769 251.434 78.0206C245.643 77.8262 239.657 77.6317 233.801 77.6317C230.56 77.6317 227.578 77.6966 224.704 77.8262Z" fill="#E0DFE6"></path> <path d="M242.552 89.6664H231.143V91.8272H240.629L242.552 89.6664Z" fill="#E0DFE6"></path> <path d="M175.2 113.63C177.101 116.093 182.33 122.1 187.3 127.805L189.461 126.919C184.362 121.106 178.895 114.818 176.95 112.312L175.2 113.63Z" fill="#E0DFE6"></path> <path d="M240.176 67.6055C232.239 67.5376 224.304 67.9054 216.407 68.7074L216.623 70.8682C224.427 70.087 232.268 69.7264 240.111 69.7878C244.865 69.7878 255.647 69.9824 256.296 70.004C256.684 69.2909 257.03 68.5778 257.398 67.8432C256.425 67.8216 244.93 67.6055 240.176 67.6055Z" fill="#E0DFE6"></path> <path d="M184.902 85.5827L185.528 86.3822C187.365 88.543 189.223 90.8767 191.211 93.4481C195.23 98.6556 199.185 104.144 202.988 109.46L208.649 117.282L210.529 116.18C208.563 113.5 206.639 110.821 204.76 108.185C200.913 102.869 196.959 97.3808 192.918 92.13C190.758 89.2345 188.597 86.6415 186.565 84.243L184.902 85.5827Z" fill="#E0DFE6"></path> <path d="M151.842 118.794C152.555 118.794 153.225 118.794 154.003 118.794C156.725 118.794 164.612 118.794 166.967 118.794L166.838 116.633C164.677 116.633 156.79 116.633 154.089 116.633C153.333 116.633 152.62 116.633 151.928 116.633C151.237 116.633 149.767 116.763 148.233 116.633V118.794H149.465C150.221 118.88 151.064 118.837 151.842 118.794Z" fill="#E0DFE6"></path> <path d="M192.638 59.2855C203.183 71.3861 214.03 84.6751 225.764 99.8657L228.465 103.388C229.026 102.934 229.567 102.459 230.107 101.983C229.221 100.838 228.357 99.6711 227.471 98.5475C215.716 83.3137 204.847 70.0032 194.281 57.8594L192.638 59.2855Z" fill="#E0DFE6"></path> <path d="M106.767 602.341V603.399L109.876 602.168L106.767 602.341Z" fill="#E0DFE6"></path> <path d="M90.0855 603.812L93.6722 607.939L95.833 607.248L91.6412 602.386L90.0855 603.812Z" fill="#E0DFE6"></path> <path d="M32.3482 601.174C33.6447 601.909 34.9413 602.622 36.2594 603.335C40.7539 603.335 45.3565 603.335 50.1103 603.335C60.7415 603.335 66.1219 603.53 73.5983 603.81C76.9908 603.94 80.7721 604.091 85.6123 604.221V602.06C80.7721 601.93 76.9692 601.779 73.5983 601.65C66.1219 601.369 60.6334 601.174 50.0454 601.174C43.9519 601.023 38.0527 601.066 32.3482 601.174Z" fill="#E0DFE6"></path> <path d="M486.963 323.597L488.951 322.733C487.016 319.147 484.28 316.056 480.956 313.701L479.832 315.537C482.778 317.661 485.214 320.414 486.963 323.597Z" fill="#E0DFE6"></path> <path d="M373.066 291.183H377.388V289.023H373.066C365.648 288.774 358.222 288.991 350.831 289.671L351.134 291.832C358.425 291.171 365.749 290.954 373.066 291.183Z" fill="#E0DFE6"></path> <path d="M502.369 323.034C499.257 318.994 494.568 313.678 490.441 308.968C488.842 307.152 487.329 305.445 486.119 303.976L484.477 305.402C485.752 306.872 487.243 308.579 488.799 310.394C492.904 315.061 497.442 320.377 500.64 324.353L502.369 323.034Z" fill="#E0DFE6"></path> <path d="M364.25 282.887C369.115 282.372 374.012 282.227 378.9 282.454L379.051 280.294C374.056 280.066 369.05 280.21 364.077 280.726C360.598 281.028 357.011 281.331 353.489 281.331C350.191 281.363 346.9 281.022 343.679 280.315L343.182 282.476C346.564 283.236 350.023 283.599 353.489 283.556C357.097 283.492 360.727 283.189 364.25 282.887Z" fill="#E0DFE6"></path> <path d="M329.763 261.494C332.313 261.494 335.014 261.343 337.953 261.343C343.895 261.343 349.989 261.537 355.909 261.753C361.83 261.97 368.009 262.164 374.017 262.164C380.024 262.164 385.231 261.948 390.007 261.516L389.812 259.355C385.102 259.787 379.937 259.982 374.017 259.982C368.096 259.982 361.894 259.765 355.974 259.571C350.053 259.377 343.917 259.16 337.953 259.16C334.647 259.16 331.665 259.161 328.791 259.355V261.516L329.763 261.494Z" fill="#E0DFE6"></path> <path d="M382.638 295.138C384.324 297.299 388.58 302.247 392.967 307.282L394.35 305.553C390.028 300.648 385.966 295.916 384.367 293.82L382.638 295.138Z" fill="#E0DFE6"></path> <path d="M527.78 284.939C524.646 280.617 521.513 276.512 518.294 272.363C512.848 265.297 508.051 259.571 503.363 254.515L501.202 255.357C506.02 260.5 510.969 266.377 516.608 273.681C519.806 277.83 532.339 294.662 535.558 298.833C540.854 305.811 546.524 312.498 552.543 318.864L554.12 317.373C548.144 311.065 542.518 304.436 537.266 297.515C534.046 293.344 530.913 289.152 527.78 284.939Z" fill="#E0DFE6"></path> <path d="M485.991 273.335V271.175H474.495C473.609 271.866 472.745 272.601 471.902 273.335H485.991Z" fill="#E0DFE6"></path> <path d="M380.822 308.234C383.099 309.942 385.218 311.851 387.154 313.938L388.645 312.361C386.647 310.229 384.479 308.264 382.162 306.484L380.822 308.234Z" fill="#E0DFE6"></path> <path d="M386.291 280.704L399.817 298.207C400.228 297.559 400.617 296.889 401.006 296.219L388.041 279.364L386.291 280.704Z" fill="#E0DFE6"></path> <path d="M392.34 267.092L392.967 267.891C394.803 270.052 396.662 272.386 398.65 274.957C400.638 277.529 403.101 280.835 405.284 283.838C405.478 282.844 405.629 281.829 405.737 280.813C403.965 278.393 402.172 275.973 400.357 273.639C398.196 270.744 396.035 268.151 394.004 265.752L392.34 267.092Z" fill="#E0DFE6"></path> <path d="M433.997 320.42L433.676 320.613L433.997 320.42Z" fill="#E0DFE6"></path> <path d="M358.459 251.447C363.191 251.447 367.945 251.62 372.699 251.62C375.551 251.62 377.777 251.75 379.938 251.879C383.923 252.21 387.931 252.166 391.908 251.75L391.692 249.589C387.83 249.995 383.938 250.038 380.067 249.719C377.906 249.719 375.616 249.459 372.699 249.459C367.945 249.459 348.93 249.114 344.241 249.114C336.304 249.046 328.369 249.414 320.472 250.215L320.71 252.376C328.514 251.595 336.355 251.234 344.198 251.296C348.995 251.274 353.727 251.361 358.459 251.447Z" fill="#E0DFE6"></path> <path d="M405.521 265.903C405.305 264.455 405.046 263.008 404.744 261.582C401.87 258.211 399.147 255.099 396.425 252.333L394.847 253.824C398.304 257.411 401.783 261.365 405.521 265.903Z" fill="#E0DFE6"></path> <path d="M465.701 321.436C461.574 315.753 457.684 310.459 454.011 305.468C453.853 306.447 453.745 307.42 453.687 308.385H453.536C456.842 312.879 460.278 317.59 463.951 322.625L465.701 321.436Z" fill="#E0DFE6"></path> <path d="M538.086 281.374C547.205 293.194 556.972 306.288 568.835 322.602L570.585 321.327C558.722 305.013 548.977 291.897 539.794 280.056C531.626 269.468 523.89 259.831 516.392 250.863C515.592 251.014 514.793 251.187 514.015 251.382C521.707 260.565 529.724 270.483 538.086 281.374Z" fill="#E0DFE6"></path> <path d="M447.613 318.865L449.169 317.374C447.937 316.099 446.706 314.759 445.453 313.376L443.594 314.543C444.977 316.056 446.317 317.482 447.613 318.865Z" fill="#E0DFE6"></path> <path d="M382.639 271.175H335.23V273.335H382.639V271.175Z" fill="#E0DFE6"></path> <path d="M380.628 319.059C379.407 317.113 377.956 315.321 376.307 313.722L374.816 315.299C376.382 316.782 377.761 318.451 378.921 320.269L379.375 320.918C379.958 320.485 380.498 320.01 381.06 319.556L380.628 319.059Z" fill="#E0DFE6"></path> <path d="M480.761 289.024H476.439C471.188 289.024 464.468 288.894 459.153 289.218C458.785 289.953 458.418 290.709 458.072 291.379C463.539 290.969 470.864 291.033 476.504 291.098H480.826L480.761 289.024Z" fill="#E0DFE6"></path> <path d="M482.186 282.541L482.359 280.38C477.356 280.152 472.344 280.296 467.363 280.812L464.446 281.05C463.841 281.784 463.257 282.562 462.696 283.34L467.557 282.973C472.416 282.458 477.306 282.313 482.186 282.541Z" fill="#E0DFE6"></path> <path d="M492.901 279.574L491.191 280.895L523.26 322.418L524.97 321.097L492.901 279.574Z" fill="#E0DFE6"></path> <path d="M493.186 259.334H492.624C491.889 259.723 491.176 260.112 490.463 260.544L488.302 261.798C490.053 261.798 491.76 261.582 493.402 261.43L493.186 259.334Z" fill="#E0DFE6"></path> <path d="M538.628 320.658L540.206 319.188C536.619 315.342 532.945 310.956 528.948 305.791C524.95 300.627 520.931 294.987 517.085 289.672C513.239 284.356 509.306 278.868 505.265 273.617C503.105 270.721 500.944 268.128 498.912 265.73L497.227 267.091L497.854 267.891C499.69 270.051 501.549 272.385 503.537 274.956C507.556 280.164 511.51 285.653 515.313 290.968C519.116 296.284 523.135 301.772 527.219 307.131C531.303 312.49 534.998 316.768 538.628 320.658Z" fill="#E0DFE6"></path> <path d="M502.434 312.576C505.048 315.449 507.749 318.388 510.126 321.478C511.099 322.731 511.941 323.92 512.741 325.13L514.534 323.941C513.713 322.688 512.827 321.456 511.833 320.16C509.391 317.005 506.669 314.023 504.032 311.128C501.396 308.232 498.717 305.315 496.34 302.247C493.963 299.178 491.349 296.132 488.734 293.323L487.157 294.792C489.728 297.558 492.451 300.756 494.633 303.565C497.053 306.72 499.797 309.702 502.434 312.576Z" fill="#E0DFE6"></path> <path d="M477.521 298.078C475.36 298.078 467.451 298.078 464.772 298.078C463.994 298.078 463.302 298.078 462.611 298.078C461.919 298.078 460.45 298.208 458.938 298.078V300.239H460.191C461.228 300.239 462.071 300.239 462.827 300.239C463.583 300.239 464.21 300.239 464.988 300.239C467.711 300.239 475.598 300.239 477.953 300.239L477.521 298.078Z" fill="#E0DFE6"></path> <path d="M475.294 311.345L475.423 309.184C474.062 309.184 472.809 309.184 471.491 309.184C470.173 309.184 468.984 309.184 467.472 309.184C466.076 309.086 464.675 309.086 463.28 309.184L463.496 311.345C464.805 311.268 466.119 311.268 467.429 311.345C468.984 311.345 470.324 311.345 471.577 311.345C472.815 311.28 474.056 311.28 475.294 311.345Z" fill="#E0DFE6"></path> <path d="M368.572 319.059C367.912 318.972 367.244 318.972 366.584 319.059L367.016 321.219C367.49 321.165 367.968 321.165 368.442 321.219H369.307C369.948 321.227 370.585 321.117 371.186 320.895L370.387 318.886C369.799 319.059 369.182 319.117 368.572 319.059Z" fill="#E0DFE6"></path> <path d="M472.42 321.22C473.551 321.314 474.689 321.227 475.791 320.96L475.186 318.8C474.307 318.994 473.404 319.052 472.507 318.972C471.68 318.898 470.848 318.898 470.022 318.972L470.346 321.133C471.039 321.098 471.733 321.127 472.42 321.22Z" fill="#E0DFE6"></path> <path d="M364.077 311.389C365.633 311.389 366.951 311.389 368.205 311.389C369.45 311.324 370.698 311.324 371.943 311.389L372.073 309.228C370.69 309.228 369.458 309.228 368.14 309.228C366.822 309.228 365.612 309.228 364.121 309.228C362.718 309.13 361.31 309.13 359.907 309.228L360.145 311.389C361.455 311.311 362.768 311.311 364.077 311.389Z" fill="#E0DFE6"></path> <path d="M314.313 241.485C328.791 240.643 344.262 240.232 361.635 240.232C372.266 240.232 377.647 240.426 385.102 240.707C388.278 240.837 391.822 240.967 396.23 241.096C395.733 240.34 395.214 239.605 394.696 238.935L385.188 238.59C377.712 238.309 372.223 238.114 361.635 238.114C344.219 238.114 328.704 238.525 314.097 239.389L314.313 241.485Z" fill="#E0DFE6"></path> <path d="M359.28 300.302C360.015 300.302 360.663 300.302 361.441 300.302C364.164 300.302 372.051 300.302 374.406 300.302L374.276 298.141C372.116 298.141 364.229 298.141 361.528 298.141C360.771 298.141 360.058 298.141 359.367 298.141C358.675 298.141 357.206 298.271 355.672 298.141V300.302H356.903C357.66 300.389 358.502 300.345 359.28 300.302Z" fill="#E0DFE6"></path> <path d="M396.425 433.798L394.847 435.289C400.823 441.596 406.449 448.225 411.701 455.146C414.294 458.496 416.823 461.888 419.351 465.281L421.317 464.308C418.702 460.786 416.088 457.286 413.409 453.828C408.118 446.845 402.448 440.158 396.425 433.798Z" fill="#E0DFE6"></path> <path d="M417.557 420.834L417.686 422.994C432.142 422.152 447.614 421.741 464.987 421.741C475.618 421.741 480.998 421.936 488.475 422.217L498.133 422.562L500.532 421.071V420.466C495.692 420.337 491.889 420.185 488.518 420.056C481.042 419.775 475.553 419.58 464.965 419.58C447.614 419.516 432.056 419.926 417.557 420.834Z" fill="#E0DFE6"></path> <path d="M441.305 440.648C437.999 440.648 435.017 440.648 432.143 440.843V443.004H433.05C435.622 443.004 438.301 442.852 441.24 442.852C447.182 442.852 453.297 443.047 459.196 443.263H462.135L465.808 441.21L459.326 441.016C453.405 440.843 447.29 440.648 441.305 440.648Z" fill="#E0DFE6"></path> <path d="M438.581 452.683V454.844H440.31L444.632 452.683H438.581Z" fill="#E0DFE6"></path> <path d="M314.313 422.995C328.79 422.152 344.261 421.741 361.634 421.741C372.265 421.741 377.646 421.936 385.101 422.217C388.493 422.347 392.275 422.498 397.137 422.627V420.467C392.296 420.337 388.493 420.186 385.122 420.056C377.646 419.775 372.158 419.581 361.57 419.581C344.153 419.581 328.639 419.991 314.032 420.856L314.313 422.995Z" fill="#E0DFE6"></path> <path d="M476.051 430.968C471.319 430.968 452.282 430.622 447.593 430.622C439.656 430.554 431.721 430.922 423.824 431.724L424.04 433.885C431.844 433.104 439.685 432.743 447.528 432.804C452.282 432.804 478.817 433.193 479.94 433.258L483.333 431.27C481.237 431.119 478.99 430.968 476.051 430.968Z" fill="#E0DFE6"></path> <path d="M358.459 432.955C363.191 432.955 367.945 433.128 372.699 433.128C375.551 433.128 377.777 433.258 379.938 433.388C383.923 433.718 387.931 433.675 391.908 433.258L391.692 431.097C387.83 431.503 383.938 431.546 380.067 431.227C377.906 431.227 375.616 430.967 372.699 430.967C367.945 430.967 348.93 430.622 344.241 430.622C336.304 430.555 328.369 430.922 320.472 431.724L320.71 433.885C328.514 433.103 336.355 432.743 344.198 432.804C348.995 432.783 353.727 432.869 358.459 432.955Z" fill="#E0DFE6"></path> <path d="M386.291 462.212L396.9 475.955L398.91 475.026L388.106 460.873L386.291 462.212Z" fill="#E0DFE6"></path> <path d="M384.367 475.329L382.638 476.647C383.373 477.598 384.626 479.111 386.139 480.969L388.3 480.04C386.506 477.987 385.145 476.345 384.367 475.329Z" fill="#E0DFE6"></path> <path d="M392.34 448.6L392.967 449.4C394.803 451.56 396.662 453.894 398.65 456.466C402.129 460.982 405.543 465.692 408.892 470.338L410.88 469.387C407.444 464.633 403.944 459.793 400.357 455.147C398.196 452.252 396.035 449.659 394.004 447.26L392.34 448.6Z" fill="#E0DFE6"></path> <path d="M400.076 422.303C409.886 433.539 419.934 445.834 430.738 459.707L432.704 458.734C421.9 444.667 411.615 432.264 401.718 420.877L400.076 422.303Z" fill="#E0DFE6"></path> <path d="M329.763 443.002C332.313 443.002 335.014 442.851 337.953 442.851C343.895 442.851 349.989 443.046 355.909 443.262C361.83 443.478 368.009 443.672 374.017 443.672C380.024 443.672 385.231 443.456 390.007 443.024L389.812 440.863C385.102 441.295 379.937 441.49 374.017 441.49C368.096 441.49 361.894 441.274 355.974 441.079C350.053 440.885 343.917 440.669 337.953 440.669C334.647 440.669 331.665 440.669 328.791 440.863V443.024L329.763 443.002Z" fill="#E0DFE6"></path> <path d="M359.907 490.822L360.102 492.443L363.991 490.736C362.63 490.666 361.265 490.695 359.907 490.822Z" fill="#E0DFE6"></path> <path d="M373.066 472.693H377.388V470.532H373.066C365.648 470.283 358.222 470.5 350.831 471.18L351.134 473.341C358.425 472.68 365.749 472.463 373.066 472.693Z" fill="#E0DFE6"></path> <path d="M359.28 481.811C360.015 481.811 360.663 481.811 361.441 481.811C364.164 481.811 372.051 481.811 374.406 481.811L374.276 479.651C372.116 479.651 364.229 479.651 361.528 479.651C360.771 479.651 360.058 479.651 359.367 479.651C358.675 479.651 357.206 479.78 355.672 479.651V481.811H356.903C357.66 481.898 358.502 481.855 359.28 481.811Z" fill="#E0DFE6"></path> <path d="M364.25 464.396C369.115 463.881 374.012 463.736 378.9 463.964L379.051 461.803C374.056 461.575 369.05 461.719 364.077 462.235C360.598 462.537 357.011 462.84 353.489 462.84C350.191 462.872 346.9 462.532 343.679 461.824L343.182 463.985C346.564 464.745 350.023 465.108 353.489 465.066C357.097 465.001 360.727 464.698 364.25 464.396Z" fill="#E0DFE6"></path> <path d="M382.639 452.683H335.23V454.844H382.639V452.683Z" fill="#E0DFE6"></path> <path d="M476.418 381.939H480.74V379.778H476.418C469 379.53 461.574 379.746 454.183 380.426L454.507 382.587C461.791 381.926 469.108 381.71 476.418 381.939Z" fill="#E0DFE6"></path> <path d="M422.895 375.695C419.761 371.373 416.628 367.267 413.409 363.119C408.118 356.136 402.448 349.449 396.425 343.088L394.847 344.579C400.823 350.886 406.449 357.515 411.701 364.437C414.921 368.586 427.432 385.418 430.652 389.589C435.948 396.573 441.625 403.26 447.657 409.619L449.213 408.128C443.237 401.821 437.611 395.192 432.359 388.27C429.161 384.1 426.006 379.908 422.895 375.695Z" fill="#E0DFE6"></path> <path d="M462.739 391.057C463.474 391.057 464.122 391.057 464.9 391.057C467.623 391.057 475.51 391.057 477.865 391.057L477.757 388.896C475.596 388.896 467.688 388.896 465.008 388.896C464.23 388.896 463.539 388.896 462.848 388.896C462.156 388.896 460.687 389.026 459.174 388.896V391.057H460.427C461.032 391.143 461.875 391.1 462.739 391.057Z" fill="#E0DFE6"></path> <path d="M467.623 373.64C472.481 373.125 477.372 372.981 482.252 373.208L482.425 371.047C477.422 370.819 472.41 370.964 467.429 371.48C463.95 371.782 460.363 372.085 456.841 372.085C453.543 372.116 450.252 371.775 447.031 371.069L446.534 373.23C449.916 373.99 453.375 374.352 456.841 374.31C460.449 374.245 464.101 373.943 467.623 373.64Z" fill="#E0DFE6"></path> <path d="M382.638 385.893C384.799 388.594 390.806 395.551 396.165 401.688C400.292 406.42 404.203 410.872 405.24 412.233C406.278 413.594 407.077 414.696 407.855 415.885L409.67 414.696C408.849 413.465 407.963 412.211 406.948 410.915C405.932 409.618 402.129 405.232 397.785 400.262C392.448 394.147 386.398 387.297 384.367 384.574L382.638 385.893Z" fill="#E0DFE6"></path> <path d="M467.429 402.142C468.984 402.142 470.324 402.142 471.577 402.142C472.815 402.077 474.056 402.077 475.294 402.142L475.423 399.981C474.062 399.981 472.809 399.981 471.491 399.981C470.173 399.981 468.984 399.981 467.472 399.981C466.076 399.882 464.675 399.882 463.28 399.981L463.496 402.142C464.805 402.065 466.119 402.065 467.429 402.142Z" fill="#E0DFE6"></path> <path d="M472.507 409.813C471.68 409.738 470.848 409.738 470.022 409.813L470.346 411.973C471.065 411.904 471.788 411.904 472.507 411.973C473.637 412.068 474.775 411.981 475.878 411.714L475.273 409.553C474.37 409.786 473.437 409.873 472.507 409.813Z" fill="#E0DFE6"></path> <path d="M485.991 361.929H438.583V364.09H485.991V361.929Z" fill="#E0DFE6"></path> <path d="M497.313 357.845L497.94 358.645C499.776 360.806 501.635 363.139 503.623 365.711C507.642 370.918 511.596 376.407 515.399 381.722C519.202 387.038 523.221 392.527 527.305 397.885C528.472 399.398 529.595 400.802 530.719 402.207L532.599 401.105C531.432 399.657 530.244 398.166 529.012 396.589C524.95 391.338 520.996 385.785 517.149 380.469C513.303 375.154 509.37 369.665 505.329 364.414C503.169 361.519 501.008 358.926 498.977 356.527L497.313 357.845Z" fill="#E0DFE6"></path> <path d="M461.811 342.201C466.543 342.201 471.297 342.374 476.051 342.374C478.925 342.374 481.15 342.503 483.29 342.633C487.275 342.964 491.283 342.92 495.261 342.504L495.044 340.343C491.182 340.748 487.29 340.792 483.419 340.472C481.258 340.472 479.098 340.213 476.051 340.213C471.319 340.213 452.282 339.867 447.593 339.867C439.656 339.799 431.721 340.167 423.824 340.969L424.04 343.13C431.844 342.349 439.685 341.988 447.528 342.05C452.347 342.028 457.079 342.115 461.811 342.201Z" fill="#E0DFE6"></path> <path d="M491.153 371.459L519.978 408.754L521.815 407.609L492.99 370.119L491.153 371.459Z" fill="#E0DFE6"></path> <path d="M480.956 404.347L479.832 406.183C482.778 408.307 485.214 411.061 486.963 414.243L488.951 413.379C487.016 409.793 484.28 406.703 480.956 404.347Z" fill="#E0DFE6"></path> <path d="M504.032 401.883C501.418 399.031 498.717 396.071 496.34 393.002C493.963 389.934 491.349 386.887 488.734 384.078L487.157 385.548C489.728 388.313 492.451 391.511 494.633 394.32C497.053 397.475 499.797 400.457 502.434 403.331C505.07 406.205 507.749 409.144 510.126 412.234C510.623 412.882 511.098 413.509 511.53 414.135L513.367 412.968C512.87 412.298 512.373 411.607 511.833 410.807C509.391 407.869 506.669 404.779 504.032 401.883Z" fill="#E0DFE6"></path> <path d="M502.369 413.79C499.257 409.749 494.568 404.434 490.441 399.723C488.842 397.908 487.329 396.201 486.119 394.732L484.477 396.158C485.752 397.627 487.243 399.334 488.799 401.149C492.904 405.817 497.442 411.132 500.64 415.108L502.369 413.79Z" fill="#E0DFE6"></path> <path d="M433.115 352.249C435.687 352.249 438.366 352.097 441.305 352.097C447.247 352.097 453.362 352.292 459.261 352.508C465.16 352.724 471.362 352.919 477.39 352.919C483.419 352.919 488.583 352.703 493.381 352.27L493.186 350.11C488.454 350.542 483.289 350.736 477.39 350.736C471.491 350.736 465.268 350.52 459.326 350.326C453.384 350.131 447.29 349.915 441.305 349.915C437.999 349.915 435.017 349.915 432.143 350.11V352.27L433.115 352.249Z" fill="#E0DFE6"></path> <path d="M343.182 373.167C346.564 373.927 350.023 374.289 353.489 374.247C357.097 374.247 360.727 373.945 364.293 373.642C369.158 373.127 374.056 372.983 378.943 373.21L379.094 371.049C374.099 370.821 369.094 370.966 364.12 371.481C360.641 371.784 357.054 372.086 353.532 372.086C350.234 372.119 346.943 371.778 343.722 371.071L343.182 373.167Z" fill="#E0DFE6"></path> <path d="M359.28 391.057C360.015 391.057 360.663 391.057 361.441 391.057C364.164 391.057 372.051 391.057 374.406 391.057L374.276 388.896C372.116 388.896 364.229 388.896 361.528 388.896C360.771 388.896 360.058 388.896 359.367 388.896C358.675 388.896 357.206 389.026 355.672 388.896V391.057H356.903C357.66 391.143 358.502 391.1 359.28 391.057Z" fill="#E0DFE6"></path> <path d="M382.616 361.929H357.507L353.186 364.09H382.702L382.616 361.929Z" fill="#E0DFE6"></path> <path d="M376.307 404.476L374.816 406.053C376.382 407.536 377.761 409.205 378.921 411.023C379.634 412.082 380.455 413.184 381.622 414.783L383.329 413.465C382.206 411.995 381.406 410.829 380.715 409.813C379.466 407.862 377.986 406.07 376.307 404.476Z" fill="#E0DFE6"></path> <path d="M373.066 381.939H377.388V379.778H373.066C365.648 379.53 358.222 379.746 350.831 380.426L351.134 382.587C358.425 381.926 365.749 381.71 373.066 381.939Z" fill="#E0DFE6"></path> <path d="M464.9 330.921C475.531 330.921 480.911 331.116 488.388 331.397C491.78 331.526 495.562 331.678 500.402 331.807V329.646C495.562 329.517 491.759 329.365 488.388 329.236C480.911 328.955 475.423 328.761 464.835 328.761C447.548 328.761 432.034 329.171 417.578 330.014H417.405L417.535 332.175C432.142 331.332 447.613 330.921 464.9 330.921Z" fill="#E0DFE6"></path> <path d="M433.202 372.128C442.342 383.969 452.11 397.063 463.951 413.356L465.701 412.081C453.838 395.767 444.093 382.651 434.909 370.809C425.056 358.039 415.851 346.651 406.819 336.236L404.917 337.317C413.993 347.797 423.262 359.271 433.202 372.128Z" fill="#E0DFE6"></path> <path d="M398.671 365.688C402.69 370.896 406.645 376.385 410.448 381.7C414.251 387.016 418.27 392.504 422.354 397.863C426.438 403.222 430.133 407.522 433.741 411.411L435.319 409.942C431.754 406.117 428.08 401.709 424.061 396.545C420.042 391.381 416.044 385.741 412.22 380.425C408.395 375.11 404.419 369.621 400.379 364.37C398.218 361.475 396.057 358.882 394.026 356.483L392.34 357.845L392.967 358.644C394.825 360.783 396.683 363.117 398.671 365.688Z" fill="#E0DFE6"></path> <path d="M516.588 364.437C519.786 368.586 532.319 385.418 535.538 389.589C537.396 391.987 539.169 394.213 540.897 396.352L542.842 395.315C541.027 393.154 539.19 390.777 537.245 388.27C534.026 384.122 521.514 367.267 518.295 363.119C513.004 356.13 507.327 349.443 501.289 343.088L499.734 344.579C505.709 350.886 511.336 357.515 516.588 364.437Z" fill="#E0DFE6"></path> <path d="M368.572 409.813C367.912 409.727 367.244 409.727 366.584 409.813L367.016 411.974C367.49 411.92 367.968 411.92 368.442 411.974H369.307C369.948 411.982 370.585 411.872 371.186 411.65L370.387 409.64C369.799 409.813 369.182 409.872 368.572 409.813Z" fill="#E0DFE6"></path> <path d="M552.434 391.058L554.595 390.259C549.388 383.279 544.547 376.883 539.858 370.811C528.082 355.578 517.235 342.267 506.668 330.123L505.026 331.549C515.571 343.65 526.397 356.917 538.152 372.129C542.689 378.05 547.378 384.273 552.434 391.058Z" fill="#E0DFE6"></path> <path d="M390.008 352.227L389.813 350.066C386.766 350.347 383.504 350.52 379.981 350.607L375.66 352.767C380.954 352.832 385.686 352.638 390.008 352.227Z" fill="#E0DFE6"></path> <path d="M388.007 370.266L386.297 371.586L418.366 413.109L420.076 411.788L388.007 370.266Z" fill="#E0DFE6"></path> <path d="M380.822 398.988C386.513 403.66 391.544 409.083 395.775 415.108L397.482 413.79C393.133 407.603 387.965 402.035 382.119 397.238L380.822 398.988Z" fill="#E0DFE6"></path> <path d="M364.077 402.142C365.633 402.142 366.951 402.142 368.205 402.142C369.45 402.077 370.698 402.077 371.943 402.142L372.073 399.981C370.69 399.981 369.458 399.981 368.14 399.981C366.822 399.981 365.612 399.981 364.121 399.981C362.718 399.883 361.31 399.883 359.907 399.981L360.145 402.142C361.455 402.065 362.768 402.065 364.077 402.142Z" fill="#E0DFE6"></path> <path d="M314.205 330.08V332.24C327.169 331.484 340.696 331.074 355.735 331.009C358.285 330.339 360.878 329.648 363.45 328.848H361.527C344.218 328.762 328.768 329.172 314.205 330.08Z" fill="#E0DFE6"></path> <path d="M296.594 311.128C293.979 308.275 291.278 305.315 288.902 302.247C286.525 299.178 283.91 296.132 281.295 293.323L279.718 294.792C282.289 297.558 285.012 300.756 287.194 303.565C289.615 306.72 292.359 309.702 294.995 312.576C297.631 315.449 300.289 318.388 302.688 321.478C303.66 322.731 304.503 323.92 305.302 325.13L307.095 323.941C306.274 322.688 305.388 321.456 304.394 320.16C301.953 317.113 299.23 314.023 296.594 311.128Z" fill="#E0DFE6"></path> <path d="M278.552 271.175H231.144V273.335H278.552V271.175Z" fill="#E0DFE6"></path> <path d="M309.149 273.682C312.347 277.831 324.88 294.664 328.1 298.834C333.395 305.812 339.065 312.499 345.084 318.865L346.64 317.374C340.678 311.06 335.059 304.431 329.807 297.516C326.587 293.367 314.076 276.513 310.856 272.364C305.559 265.38 299.882 258.693 293.851 252.333L292.295 253.824C298.271 260.132 303.897 266.761 309.149 273.682Z" fill="#E0DFE6"></path> <path d="M190.347 309.508C185.81 304.322 180.797 298.574 178.117 295.311L176.604 296.867C179.349 300.195 184.275 305.835 188.727 310.934C192.854 315.666 196.765 320.118 197.802 321.479C198.839 322.84 199.639 323.942 200.417 325.131L202.232 323.942C201.411 322.711 200.525 321.457 199.509 320.161C198.494 318.864 194.799 314.478 190.347 309.508Z" fill="#E0DFE6"></path> <path d="M281.037 240.643C284.43 240.772 288.211 240.924 293.051 241.053V238.892C288.211 238.763 276.521 238.309 274.339 238.244L269.693 240.275C273.647 240.362 277.061 240.491 281.037 240.643Z" fill="#E0DFE6"></path> <path d="M297.524 240.794C308.069 252.894 318.894 266.162 330.649 281.374C339.768 293.194 349.535 306.288 361.398 322.602L363.148 321.327C351.285 305.013 341.54 291.897 332.356 280.056C320.58 264.822 309.733 251.511 299.166 239.368L297.524 240.794Z" fill="#E0DFE6"></path> <path d="M289.874 267.092L290.501 267.891C292.316 270.052 294.196 272.386 296.184 274.957C300.203 280.165 304.157 285.653 307.96 290.969C311.763 296.285 315.783 301.773 319.866 307.132C323.95 312.491 327.624 316.791 331.232 320.68L332.831 319.211C329.244 315.364 325.571 310.978 321.574 305.814C317.576 300.649 313.557 295.01 309.711 289.694C305.865 284.378 301.932 278.89 297.891 273.639C295.73 270.744 293.569 268.151 291.538 265.752L289.874 267.092Z" fill="#E0DFE6"></path> <path d="M294.93 323.034C291.818 318.994 287.129 313.678 283.002 308.968C281.403 307.152 279.891 305.445 278.681 303.976L277.039 305.402L281.36 310.394C285.487 315.061 290.133 320.377 293.223 324.353L294.93 323.034Z" fill="#E0DFE6"></path> <path d="M260.163 282.886C265.029 282.371 269.926 282.226 274.813 282.454L274.986 280.293C269.984 280.065 264.971 280.209 259.99 280.725C256.511 281.027 252.924 281.33 249.402 281.33C246.104 281.361 242.814 281.021 239.592 280.314L239.095 282.475C242.477 283.235 245.936 283.598 249.402 283.556C253.011 283.491 256.641 283.188 260.163 282.886Z" fill="#E0DFE6"></path> <path d="M251.823 261.71C257.765 261.905 263.923 262.121 269.952 262.121C275.981 262.121 281.145 261.905 285.942 261.473L285.747 259.312C281.015 259.744 275.851 259.939 269.952 259.939C264.053 259.939 257.83 259.722 251.888 259.528C245.945 259.334 239.852 259.117 233.866 259.117H230.085L225.763 261.408C228.291 261.408 230.949 261.257 233.823 261.257C239.809 261.3 245.902 261.494 251.823 261.71Z" fill="#E0DFE6"></path> <path d="M163.725 320.937L163.207 319.599C163.077 320.117 162.991 320.635 162.883 321.153C163.17 321.11 163.452 321.037 163.725 320.937Z" fill="#E0DFE6"></path> <path d="M188.316 324.353L190.023 323.035C185.673 316.843 180.497 311.274 174.638 306.484L173.363 308.234C179.054 312.906 184.085 318.328 188.316 324.353Z" fill="#E0DFE6"></path> <path d="M174.141 324.029L175.848 322.711C174.725 321.242 173.925 320.075 173.234 319.059C172.013 317.113 170.562 315.321 168.912 313.722L167.421 315.299C168.988 316.782 170.367 318.451 171.527 320.269C172.153 321.436 172.974 322.517 174.141 324.029Z" fill="#E0DFE6"></path> <path d="M225.763 281.374C234.904 293.215 244.671 306.31 256.512 322.602L258.262 321.327C246.399 305.013 236.654 291.897 227.47 280.056C223.84 275.345 220.296 270.851 216.818 266.486L214.959 267.609C218.568 272.039 222.068 276.598 225.763 281.374Z" fill="#E0DFE6"></path> <path d="M273.517 313.592L272.394 315.429C275.339 317.553 277.775 320.306 279.524 323.489L281.512 322.624C279.577 319.039 276.842 315.948 273.517 313.592Z" fill="#E0DFE6"></path> <path d="M285.468 279.553L283.757 280.874L315.826 322.396L317.537 321.075L285.468 279.553Z" fill="#E0DFE6"></path> <path d="M275.98 249.719C273.819 249.719 271.529 249.46 268.612 249.46C263.858 249.46 251.541 249.244 250.115 249.222L245.793 251.383C248.689 251.383 263.944 251.685 268.698 251.685C271.572 251.685 273.798 251.815 275.937 251.945C279.922 252.275 283.93 252.232 287.908 251.815L287.692 249.654C283.798 250.044 279.877 250.065 275.98 249.719Z" fill="#E0DFE6"></path> <path d="M268.979 291.183H273.301V289.023H268.979C261.562 288.774 254.136 288.991 246.745 289.671L247.047 291.832C254.338 291.171 261.662 290.955 268.979 291.183Z" fill="#E0DFE6"></path> <path d="M216.623 305.791C212.582 300.54 208.606 294.987 204.782 289.671C202.297 286.236 199.747 282.713 197.175 279.235L195.425 280.531C197.997 284.01 200.546 287.489 203.01 290.946C206.856 296.284 210.832 301.75 214.916 307.109C219 312.468 222.673 316.768 226.303 320.658L227.881 319.188C224.315 315.364 220.728 310.955 216.623 305.791Z" fill="#E0DFE6"></path> <path d="M255.301 300.302C256.036 300.302 256.684 300.302 257.462 300.302C260.184 300.302 268.071 300.302 270.427 300.302L270.318 298.141C268.158 298.141 260.249 298.141 257.57 298.141C256.792 298.141 256.1 298.141 255.409 298.141C254.718 298.141 253.248 298.271 251.735 298.141V300.302H252.967C253.594 300.389 254.437 300.345 255.301 300.302Z" fill="#E0DFE6"></path> <path d="M265.068 319.059C264.242 318.984 263.41 318.984 262.583 319.059L262.886 321.22C263.605 321.152 264.328 321.152 265.047 321.22C266.17 321.315 267.301 321.228 268.396 320.96L267.813 318.8C266.917 319.03 265.991 319.117 265.068 319.059Z" fill="#E0DFE6"></path> <path d="M210.919 322.214L212.626 320.896L186.696 287.403L185.054 288.829L210.919 322.214Z" fill="#E0DFE6"></path> <path d="M215.457 284.939C212.454 280.92 209.471 276.901 206.381 272.904L204.588 274.114C207.678 278.133 219.995 294.663 223.214 298.833C228.51 305.812 234.18 312.499 240.198 318.864L241.776 317.373C235.8 311.066 230.173 304.437 224.921 297.515C221.702 293.345 218.569 289.153 215.457 284.939Z" fill="#E0DFE6"></path> <path d="M259.991 311.388C261.547 311.388 262.886 311.388 264.14 311.388C265.378 311.323 266.618 311.323 267.856 311.388L267.986 309.227C266.603 309.227 265.371 309.227 264.053 309.227C262.735 309.227 261.547 309.227 260.034 309.227C258.638 309.129 257.238 309.129 255.842 309.227L256.058 311.388C257.368 311.311 258.681 311.311 259.991 311.388Z" fill="#E0DFE6"></path> <path d="M43.9511 298.207V300.366H44.2966C44.5773 299.653 44.858 298.941 45.117 298.207H43.9511Z" fill="#E0DFE6"></path> <path d="M332.766 228.52C330.065 225.625 327.299 222.405 324.382 218.775L322.222 219.466C325.355 223.399 328.337 226.878 331.211 229.989L332.766 228.52Z" fill="#E0DFE6"></path> <path d="M345.083 228.111L346.638 226.62C343.484 223.314 340.286 219.727 336.915 215.643L334.495 216.118C338.19 220.613 341.733 224.524 345.083 228.111Z" fill="#E0DFE6"></path> <path d="M361.397 231.847L363.147 230.572C359.106 225.019 355.325 219.768 351.694 214.949C350.765 214.949 349.815 214.798 348.864 214.777C352.797 220.071 356.859 225.732 361.397 231.847Z" fill="#E0DFE6"></path> <path d="M315.803 231.459L317.51 230.141L311.978 223.01L309.818 223.81L315.803 231.459Z" fill="#E0DFE6"></path> <path d="M300.138 227.657C301.002 228.672 301.867 229.667 302.688 230.725C303.509 231.784 304.503 233.167 305.302 234.377L307.096 233.189C306.275 231.935 305.389 230.704 304.395 229.407C303.703 228.521 302.969 227.679 302.234 226.814L300.138 227.657Z" fill="#E0DFE6"></path> <path d="M294.928 232.279L293.395 230.336L291.236 231.178C291.905 232.02 292.575 232.84 293.158 233.596L294.928 232.279Z" fill="#E0DFE6"></path> <path d="M175.201 543.438H127.793V545.599H175.201V543.438Z" fill="#E0DFE6"></path> <path d="M151.842 572.565C152.555 572.565 153.225 572.565 154.003 572.565C156.725 572.565 164.612 572.565 166.967 572.565L166.838 570.404C164.677 570.404 156.79 570.404 154.089 570.404C153.333 570.404 152.62 570.404 151.928 570.404C151.237 570.404 149.767 570.534 148.233 570.404V572.565H149.465C150.221 572.651 151.064 572.608 151.842 572.565Z" fill="#E0DFE6"></path> <path d="M297.524 513.057L301.176 517.379L303.336 516.514L299.231 511.739L297.524 513.057Z" fill="#E0DFE6"></path> <path d="M231.143 545.599H232.569L233.239 545.362L237.863 543.438H231.143V545.599Z" fill="#E0DFE6"></path> <path d="M152.469 581.576V581.944L153.313 581.533C153.031 581.527 152.749 581.542 152.469 581.576Z" fill="#E0DFE6"></path> <path d="M192.94 545.88C190.779 542.984 188.618 540.391 186.587 537.993L184.902 539.354L185.528 540.153C187.365 542.314 189.223 544.648 191.211 547.219C194.344 551.26 197.391 555.452 200.395 559.622L202.426 558.736C199.336 554.415 196.181 550.072 192.94 545.88Z" fill="#E0DFE6"></path> <path d="M189.764 511.155C184.924 511.025 181.12 510.874 177.749 510.744C170.273 510.463 164.785 510.269 154.197 510.269C136.78 510.269 121.266 510.679 106.659 511.544V513.704C121.136 512.862 136.608 512.451 153.981 512.451C164.612 512.451 169.992 512.646 177.447 512.927C180.839 513.056 184.621 513.207 189.483 513.337L189.764 511.155Z" fill="#E0DFE6"></path> <path d="M184.254 521.852C180.391 522.257 176.499 522.301 172.629 521.981C170.468 521.981 168.177 521.722 165.26 521.722C160.506 521.722 141.491 521.376 136.802 521.376C128.865 521.309 120.93 521.677 113.033 522.478L113.271 524.639C121.075 523.858 128.916 523.497 136.759 523.559C141.513 523.559 160.528 523.905 165.217 523.905C168.07 523.905 170.295 524.034 172.456 524.164C176.442 524.494 180.449 524.451 184.427 524.034L184.254 521.852Z" fill="#E0DFE6"></path> <path d="M192.638 513.057C202.297 524.12 212.086 536.199 222.89 549.791L225.051 548.905C214.247 535.075 204.264 522.845 194.497 511.609L192.638 513.057Z" fill="#E0DFE6"></path> <path d="M182.374 531.597C177.663 532.029 172.499 532.224 166.578 532.224C160.657 532.224 154.456 532.008 148.535 531.813C142.615 531.619 136.478 531.403 130.514 531.403C127.208 531.403 124.205 531.403 121.352 531.597V533.758H122.281C124.831 533.758 127.532 533.607 130.471 533.607C136.413 533.607 142.507 533.801 148.406 534.017C154.305 534.233 160.506 534.428 166.535 534.428C172.564 534.428 177.749 534.212 182.525 533.78L182.374 531.597Z" fill="#E0DFE6"></path> <path d="M171.462 554.804L171.614 552.643C166.618 552.415 161.613 552.56 156.639 553.076C153.16 553.378 149.551 553.681 146.051 553.681C142.753 553.713 139.462 553.372 136.241 552.665L135.744 554.826C139.126 555.586 142.585 555.948 146.051 555.906C149.66 555.906 153.29 555.604 156.855 555.301C161.705 554.767 166.588 554.601 171.462 554.804Z" fill="#E0DFE6"></path> <path d="M180.559 551.627L178.852 552.967L188.23 565.089L190.24 564.182L180.559 551.627Z" fill="#E0DFE6"></path> <path d="M176.907 566.083L175.2 567.401C175.718 568.071 176.475 568.978 177.361 570.08L179.392 569.151C178.354 567.876 177.512 566.817 176.907 566.083Z" fill="#E0DFE6"></path> <path d="M165.628 563.447H169.949V561.286H165.628C158.21 561.038 150.784 561.254 143.393 561.935L143.695 564.095C150.986 563.435 158.311 563.218 165.628 563.447Z" fill="#E0DFE6"></path> <path d="M251.887 531.813C245.967 531.597 239.852 531.403 233.866 531.403C230.56 531.403 227.578 531.403 224.704 531.597V533.758H225.612C228.183 533.758 230.863 533.607 233.801 533.607C239.744 533.607 245.837 533.801 251.758 534.017L259.969 534.277L264.96 532.116C260.617 532.094 256.209 531.965 251.887 531.813Z" fill="#E0DFE6"></path> <path d="M205.971 544.627C200.68 537.638 195.003 530.951 188.965 524.596L187.409 526.087C193.385 532.394 199.012 539.024 204.264 545.945C206.554 548.927 208.816 551.923 211.049 554.934L213.08 554.026C210.746 550.893 208.391 547.738 205.971 544.627Z" fill="#E0DFE6"></path> <path d="M210.119 511.588L210.249 513.749C224.705 512.906 240.176 512.496 257.549 512.496C268.18 512.496 273.561 512.69 281.037 512.971C284.43 513.101 288.211 513.252 293.051 513.382V511.221C288.211 511.091 284.408 510.94 281.037 510.81C273.561 510.53 268.072 510.335 257.484 510.335C240.176 510.27 224.618 510.681 210.119 511.588Z" fill="#E0DFE6"></path> <path d="M275.982 521.982C273.821 521.982 271.531 521.722 268.613 521.722C263.86 521.722 244.844 521.377 240.155 521.377C232.218 521.309 224.283 521.676 216.386 522.478L216.602 524.639C224.407 523.858 232.247 523.497 240.091 523.559C244.844 523.559 263.86 523.905 268.549 523.905C271.422 523.905 273.648 524.034 275.787 524.164C278.534 524.369 281.29 524.42 284.042 524.315L287.65 522.846V521.874C283.773 522.275 279.866 522.311 275.982 521.982Z" fill="#E0DFE6"></path> <path d="M18.3235 553.637C27.4637 565.478 37.2308 578.573 49.0721 594.865L50.8222 593.59C38.9593 577.276 29.2141 564.16 20.0306 552.319C14.9743 545.836 10.091 539.592 5.29395 533.671C4.905 534.341 4.51599 535.011 4.14865 535.681C8.75119 541.385 13.4616 547.349 18.3235 553.637Z" fill="#E0DFE6"></path> <path d="M52.5524 583.65C54.1082 583.65 55.4477 583.65 56.701 583.65C57.939 583.585 59.1798 583.585 60.4178 583.65L60.5473 581.489C59.1644 581.489 57.9329 581.489 56.6148 581.489C55.2967 581.489 54.108 581.489 52.5954 581.489C51.1998 581.391 49.7992 581.391 48.4036 581.489L48.6196 583.65C49.9294 583.573 51.2427 583.573 52.5524 583.65Z" fill="#E0DFE6"></path> <path d="M61.5408 563.447H65.8625V561.286H61.5408C54.123 561.038 46.697 561.254 39.3062 561.935L39.6088 564.095C46.8996 563.435 54.2237 563.218 61.5408 563.447Z" fill="#E0DFE6"></path> <path d="M7.30288 575.526C10.52 581.691 14.7409 587.277 19.7925 592.056L20.4408 591.451C16.8755 587.626 13.1803 583.218 9.18278 578.054L7.30288 575.526Z" fill="#E0DFE6"></path> <path d="M47.8623 572.565C48.597 572.565 49.2452 572.565 50.0231 572.565C52.7458 572.565 60.6327 572.565 62.988 572.565L62.8799 570.404C60.7191 570.404 52.8107 570.404 50.1313 570.404C49.3534 570.404 48.6619 570.404 47.9705 570.404C47.279 570.404 45.8095 570.534 44.2969 570.404V572.565H45.5287C46.1554 572.651 46.998 572.608 47.8623 572.565Z" fill="#E0DFE6"></path> <path d="M89.1554 583.392C86.5408 580.539 83.8399 577.579 81.463 574.511C79.0861 571.442 76.4715 568.395 73.8569 565.586L72.2796 567.056C74.8509 569.822 77.5735 573.02 79.7559 575.829C82.176 578.983 84.9202 581.965 87.5564 584.839C90.1926 587.713 92.8505 590.652 95.249 593.742C96.2214 594.995 97.064 596.184 97.8636 597.394L99.6569 596.205C98.8358 594.952 97.9499 593.72 96.9559 592.424C94.5142 589.377 91.7916 586.287 89.1554 583.392Z" fill="#E0DFE6"></path> <path d="M36.0435 512.408L35.8489 512.538C40.473 512.538 45.2054 512.43 50.1104 512.43C60.7417 512.43 66.1221 512.624 73.5985 512.905C76.991 513.035 80.7723 513.186 85.6125 513.315V511.155C80.7723 511.025 76.9694 510.874 73.5985 510.744C66.1221 510.463 60.6336 510.269 50.0456 510.269H39.6519C38.4851 510.895 37.3183 511.544 36.173 512.235C34.9198 512.466 34.8767 512.523 36.0435 512.408Z" fill="#E0DFE6"></path> <path d="M91.7277 511.588L90.0855 513.014C100.63 525.114 111.456 538.382 123.211 553.594C130.385 562.885 137.969 573.041 146.634 584.818L148.6 583.824C139.827 571.874 132.156 561.654 124.831 552.276C113.141 537.085 102.294 523.775 91.7277 511.588Z" fill="#E0DFE6"></path> <path d="M101.711 545.945C104.909 550.094 117.441 566.926 120.661 571.097C126.452 578.616 131.465 584.624 136.5 589.918L138.531 588.902C132.817 582.811 127.422 576.428 122.368 569.779C119.149 565.63 106.637 548.776 103.418 544.627C98.1143 537.648 92.4375 530.962 86.4122 524.596L84.8564 526.087C90.826 532.4 96.4523 539.029 101.711 545.945Z" fill="#E0DFE6"></path> <path d="M8.01681 557.202C5.46704 553.788 2.90997 550.381 0.345804 546.981C0.176102 548.026 0.0606296 549.079 0 550.136C2.16082 552.924 12.5544 566.926 15.7741 571.096C21.0698 578.075 26.7394 584.761 32.758 591.127L34.3354 589.636C28.3597 583.329 22.7331 576.699 17.4809 569.778C14.2613 565.608 11.1284 561.416 8.01681 557.202Z" fill="#E0DFE6"></path> <path d="M78.0085 551.819L76.2983 553.139L108.367 594.662L110.077 593.341L78.0085 551.819Z" fill="#E0DFE6"></path> <path d="M82.4368 539.355L83.0635 540.154C84.8786 542.315 86.7585 544.649 88.7465 547.22C92.7656 552.428 96.7198 557.916 100.523 563.232C104.326 568.547 108.345 574.036 112.429 579.395C116.513 584.754 120.186 589.054 123.795 592.943L125.394 591.474C121.807 587.627 118.134 583.241 114.136 578.077C110.139 572.912 106.119 567.273 102.273 561.957C98.4269 556.641 94.4941 551.153 90.4533 545.902C88.2925 543.007 86.1318 540.414 84.1007 538.015L82.4368 539.355Z" fill="#E0DFE6"></path> <path d="M68.5413 521.981C66.3805 521.981 64.0902 521.722 61.1731 521.722C56.4193 521.722 37.4041 521.376 32.7151 521.376C26.5136 521.376 21.0684 521.549 16.0553 521.873C15.0829 522.63 14.132 523.429 13.2245 524.25C18.9939 523.775 25.3035 523.537 32.6718 523.537C37.4256 523.537 56.4409 523.883 61.1299 523.883C64.0038 523.883 66.2294 524.013 68.3686 524.142C72.3542 524.473 76.362 524.429 80.3396 524.013L80.1235 521.852C76.2753 522.255 72.3976 522.298 68.5413 521.981Z" fill="#E0DFE6"></path> <path d="M57.6307 591.322C56.8041 591.247 55.9724 591.247 55.1457 591.322L55.4483 593.483C56.1669 593.414 56.8904 593.414 57.6091 593.483C58.7322 593.578 59.8634 593.49 60.9585 593.223L60.375 591.063C59.4796 591.293 58.5534 591.38 57.6307 591.322Z" fill="#E0DFE6"></path> <path d="M66.0789 585.856L64.9552 587.693C67.9009 589.817 70.3366 592.57 72.0857 595.752L74.0521 594.888C72.1324 591.299 69.4025 588.206 66.0789 585.856Z" fill="#E0DFE6"></path> <path d="M87.4916 595.297C84.38 591.257 79.6912 585.941 75.5425 581.23C73.9651 579.415 72.4525 577.708 71.2208 576.239L69.5786 577.665L73.9002 582.657C78.0274 587.324 82.6731 592.639 85.7631 596.615L87.4916 595.297Z" fill="#E0DFE6"></path> <path d="M52.7255 555.15C57.5909 554.635 62.4885 554.49 67.3759 554.717L67.5487 552.557C62.5462 552.328 57.5338 552.473 52.5527 552.989C49.0738 553.291 45.4868 553.594 41.9647 553.594C38.6668 553.626 35.3758 553.286 32.1545 552.578L31.6575 554.739C35.0395 555.499 38.4986 555.862 41.9647 555.819C45.5732 555.755 49.2034 555.452 52.7255 555.15Z" fill="#E0DFE6"></path> <path d="M71.1142 543.438H23.706V545.599H71.1142V543.438Z" fill="#E0DFE6"></path> <path d="M78.2861 531.597C73.5756 532.029 68.4114 532.224 62.5123 532.224C56.6133 532.224 50.3902 532.008 44.448 531.813C38.5057 531.619 32.412 531.403 26.4266 531.403C23.1205 531.403 20.1386 531.403 17.2647 531.597V533.758H18.1724C20.7437 533.758 23.4232 533.607 26.3619 533.607C32.3042 533.607 38.3975 533.801 44.3182 534.017C50.2388 534.233 56.4188 534.428 62.4475 534.428C68.4761 534.428 73.6405 534.212 78.4376 533.78L78.2861 531.597Z" fill="#E0DFE6"></path> <path d="M296.594 492.637C293.979 489.785 291.278 486.824 288.902 483.756C286.525 480.688 283.91 477.641 281.295 474.832L279.718 476.301C282.289 479.067 285.012 482.265 287.194 485.074C289.615 488.229 292.359 491.211 294.995 494.085C297.631 496.959 300.289 499.897 302.688 502.987C303.66 504.241 304.503 505.429 305.302 506.639L307.095 505.451C306.274 504.197 305.388 502.966 304.394 501.669C301.953 498.622 299.23 495.532 296.594 492.637Z" fill="#E0DFE6"></path> <path d="M226.303 502.167L227.88 500.698C224.315 496.873 220.62 492.465 216.622 487.301C212.625 482.136 208.606 476.496 204.781 471.181C200.957 465.865 196.981 460.377 192.94 455.126C190.779 452.23 188.618 449.637 186.587 447.239L184.902 448.6L185.528 449.4C187.365 451.561 189.223 453.894 191.211 456.466C195.23 461.673 199.185 467.162 202.988 472.477C206.791 477.793 210.81 483.281 214.894 488.64C218.978 493.999 222.673 498.277 226.303 502.167Z" fill="#E0DFE6"></path> <path d="M190.347 491.017C185.01 484.901 178.959 478.052 176.907 475.329L175.2 476.647C177.361 479.348 183.367 486.306 188.726 492.443C192.853 497.175 196.765 501.626 197.802 502.988C198.839 504.349 199.638 505.451 200.416 506.639L202.231 505.451C201.41 504.219 200.525 502.966 199.509 501.669C198.493 500.373 194.798 495.986 190.347 491.017Z" fill="#E0DFE6"></path> <path d="M182.569 442.982L182.375 440.821L179.242 441.059L173.732 443.5C176.865 443.414 179.803 443.241 182.569 442.982Z" fill="#E0DFE6"></path> <path d="M180.557 461.02L178.847 462.341L210.916 503.863L212.627 502.543L180.557 461.02Z" fill="#E0DFE6"></path> <path d="M268.979 472.693H273.301V470.532H268.979C261.562 470.283 254.136 470.5 246.745 471.18L247.047 473.341C254.338 472.68 261.662 472.464 268.979 472.693Z" fill="#E0DFE6"></path> <path d="M175.179 452.683H153.29L148.514 454.844H175.179V452.683Z" fill="#E0DFE6"></path> <path d="M188.316 505.862L190.023 504.544C185.673 498.351 180.497 492.783 174.638 487.992L173.363 489.742C179.054 494.414 184.085 499.836 188.316 505.862Z" fill="#E0DFE6"></path> <path d="M164.548 490.692C163.165 490.692 161.934 490.692 160.616 490.692C159.297 490.692 158.087 490.692 156.596 490.692C155.193 490.594 153.785 490.594 152.383 490.692L152.62 492.853C153.93 492.776 155.243 492.776 156.553 492.853C158.087 492.853 159.427 492.853 160.68 492.853C161.925 492.788 163.173 492.788 164.418 492.853L164.548 490.692Z" fill="#E0DFE6"></path> <path d="M156.812 464.396C161.678 463.881 166.575 463.736 171.462 463.964L171.614 461.803C166.618 461.575 161.613 461.719 156.639 462.235C153.16 462.537 149.551 462.84 146.051 462.84C142.753 462.872 139.462 462.532 136.241 461.824L135.744 463.985C139.126 464.745 142.585 465.108 146.051 465.066C149.66 465.001 153.29 464.698 156.812 464.396Z" fill="#E0DFE6"></path> <path d="M227.859 419.969L222.349 422.346C233.326 421.892 244.93 421.676 257.549 421.676C268.18 421.676 273.56 421.87 281.037 422.151C284.429 422.281 288.211 422.432 293.051 422.562V420.401C288.211 420.271 284.408 420.12 281.037 419.99C273.56 419.71 268.072 419.515 257.484 419.515C246.896 419.515 237.194 419.666 227.859 419.969Z" fill="#E0DFE6"></path> <path d="M278.552 452.683H231.144V454.844H278.552V452.683Z" fill="#E0DFE6"></path> <path d="M166.707 479.586C164.546 479.586 156.659 479.586 153.958 479.586C153.202 479.586 152.489 479.586 151.797 479.586C151.106 479.586 149.636 479.716 148.102 479.586V481.747H149.334C150.371 481.747 151.214 481.747 151.991 481.747C152.769 481.747 153.374 481.747 154.152 481.747C156.875 481.747 164.762 481.747 167.117 481.747L166.707 479.586Z" fill="#E0DFE6"></path> <path d="M169.971 470.532H165.649C158.231 470.283 150.805 470.5 143.414 471.18L143.717 473.341C151.001 472.688 158.318 472.479 165.628 472.714H169.949L169.971 470.532Z" fill="#E0DFE6"></path> <path d="M161.133 500.568C160.474 500.482 159.805 500.482 159.145 500.568L159.577 502.729C160.051 502.674 160.53 502.674 161.004 502.729H161.868C162.502 502.738 163.133 502.628 163.726 502.404L162.927 500.395C162.346 500.569 161.737 500.628 161.133 500.568Z" fill="#E0DFE6"></path> <path d="M294.93 504.544C291.818 500.503 287.129 495.187 283.002 490.477C281.403 488.662 279.891 486.955 278.681 485.485L277.039 486.911L281.36 491.903C285.487 496.57 290.133 501.886 293.223 505.862L294.93 504.544Z" fill="#E0DFE6"></path> <path d="M275.982 431.227C273.821 431.227 271.531 430.968 268.613 430.968C263.86 430.968 244.844 430.622 240.155 430.622C232.218 430.554 224.283 430.922 216.386 431.724L216.602 433.885C224.407 433.104 232.247 432.743 240.091 432.804C244.844 432.804 263.86 433.15 268.549 433.15C271.422 433.15 273.648 433.28 275.787 433.409C279.773 433.74 283.781 433.696 287.758 433.28L287.542 431.119C283.7 431.513 279.83 431.55 275.982 431.227Z" fill="#E0DFE6"></path> <path d="M225.762 462.883C234.902 474.724 244.67 487.819 256.511 504.111L258.261 502.836C246.398 486.522 236.653 473.406 227.469 461.565C218.826 450.372 210.68 440.216 202.75 430.795L200.589 431.702C208.714 441.232 216.989 451.517 225.762 462.883Z" fill="#E0DFE6"></path> <path d="M273.517 495.101L272.394 496.938C275.339 499.062 277.775 501.815 279.524 504.998L281.512 504.134C279.577 500.548 276.842 497.457 273.517 495.101Z" fill="#E0DFE6"></path> <path d="M260.163 464.395C265.029 463.88 269.926 463.736 274.813 463.963L274.986 461.802C269.984 461.574 264.971 461.718 259.99 462.234C256.511 462.537 252.924 462.839 249.402 462.839C246.104 462.871 242.814 462.53 239.592 461.824L239.095 463.984C242.477 464.744 245.936 465.107 249.402 465.065C253.011 465 256.641 464.697 260.163 464.395Z" fill="#E0DFE6"></path> <path d="M174.141 505.537L175.848 504.219C174.725 502.75 173.925 501.583 173.234 500.568C172.013 498.622 170.562 496.83 168.912 495.23L167.421 496.808C168.988 498.29 170.367 499.959 171.527 501.778C172.153 502.944 172.974 504.025 174.141 505.537Z" fill="#E0DFE6"></path> <path d="M297.524 422.303C308.069 434.404 318.894 447.671 330.649 462.883C337.974 472.369 345.775 482.698 354.613 494.82L356.644 493.934C347.612 481.639 339.768 471.159 332.356 461.522C320.58 446.288 309.733 432.978 299.166 420.834L297.524 422.303Z" fill="#E0DFE6"></path> <path d="M215.456 466.449C212.323 462.127 209.189 458.021 205.97 453.873C200.481 446.763 195.663 440.908 190.844 435.938L188.683 436.845C193.502 442.01 198.45 447.887 204.09 455.191C207.309 459.34 219.82 476.172 223.04 480.343C228.336 487.321 234.006 494.008 240.024 500.373L241.602 498.882C235.626 492.575 229.999 485.946 224.747 479.024C221.7 474.854 218.567 470.662 215.456 466.449Z" fill="#E0DFE6"></path> <path d="M255.301 481.811C256.036 481.811 256.684 481.811 257.462 481.811C260.184 481.811 268.071 481.811 270.427 481.811L270.318 479.651C268.158 479.651 260.249 479.651 257.57 479.651C256.792 479.651 256.1 479.651 255.409 479.651C254.718 479.651 253.248 479.78 251.735 479.651V481.811H252.967C253.594 481.898 254.437 481.855 255.301 481.811Z" fill="#E0DFE6"></path> <path d="M285.747 440.843C281.015 441.275 275.851 441.469 269.952 441.469C264.053 441.469 257.83 441.253 251.887 441.059C245.945 440.864 239.852 440.648 233.866 440.648C230.56 440.648 227.578 440.648 224.704 440.843V443.004H225.612C228.183 443.004 230.863 442.852 233.801 442.852C239.744 442.852 245.837 443.047 251.758 443.263C257.678 443.479 263.858 443.673 269.887 443.673C275.916 443.673 281.08 443.457 285.877 443.025L285.747 440.843Z" fill="#E0DFE6"></path> <path d="M265.068 500.567C264.242 500.492 263.41 500.492 262.583 500.567L262.886 502.728C263.605 502.66 264.328 502.66 265.047 502.728C266.17 502.823 267.301 502.736 268.396 502.469L267.813 500.308C266.917 500.538 265.991 500.626 265.068 500.567Z" fill="#E0DFE6"></path> <path d="M289.874 448.6L290.501 449.4C292.316 451.56 294.196 453.894 296.184 456.466C300.203 461.673 304.157 467.162 307.96 472.477C311.763 477.793 315.783 483.281 319.866 488.64C323.95 493.999 327.624 498.299 331.232 502.188L332.831 500.719C329.244 496.873 325.571 492.486 321.574 487.322C317.576 482.158 313.557 476.518 309.711 471.202C305.865 465.887 301.932 460.398 297.891 455.147C295.73 452.252 293.569 449.659 291.538 447.26L289.874 448.6Z" fill="#E0DFE6"></path> <path d="M285.457 461.086L283.747 462.406L315.816 503.929L317.526 502.608L285.457 461.086Z" fill="#E0DFE6"></path> <path d="M320.342 466.448C317.209 462.127 314.076 458.021 310.856 453.872C305.559 446.889 299.882 440.202 293.851 433.842L292.295 435.332C298.271 441.64 303.897 448.269 309.149 455.19C312.347 459.339 324.88 476.172 328.1 480.342C333.955 487.927 339.077 493.999 344.09 499.314L346.25 498.407C340.451 492.213 334.976 485.721 329.85 478.959C326.609 474.854 323.476 470.662 320.342 466.448Z" fill="#E0DFE6"></path> <path d="M259.991 492.896C261.547 492.896 262.886 492.896 264.14 492.896C265.378 492.831 266.618 492.831 267.856 492.896L267.986 490.735C266.603 490.735 265.371 490.735 264.053 490.735C262.735 490.735 261.547 490.735 260.034 490.735C258.638 490.637 257.238 490.637 255.842 490.735L256.058 492.896C257.368 492.819 258.681 492.819 259.991 492.896Z" fill="#E0DFE6"></path> <path d="M153.96 504.11L155.71 502.836C144.906 487.904 135.766 475.696 127.296 464.654L125.286 465.605C133.821 476.711 142.94 489.028 153.96 504.11Z" fill="#E0DFE6"></path> <path d="M87.4922 504.544C84.4454 500.611 79.9293 495.447 75.867 490.844L73.9871 491.968C78.0926 496.635 82.6305 501.908 85.7853 505.862L87.4922 504.544Z" fill="#E0DFE6"></path> <path d="M72.0859 505.106L74.0523 504.242C72.3644 501.115 70.0816 498.347 67.3322 496.096L65.3225 497.306C68.0995 499.402 70.404 502.06 72.0859 505.106Z" fill="#E0DFE6"></path> <path d="M137.644 500.374L139.2 498.883C133.238 492.569 127.619 485.941 122.367 479.025C120.076 476.065 117.851 473.104 115.625 470.122L113.637 471.073C115.949 474.163 118.283 477.275 120.66 480.343C125.956 487.322 131.625 494.008 137.644 500.374Z" fill="#E0DFE6"></path> <path d="M87.5568 494.085C90.1714 496.959 92.8509 499.898 95.2494 502.988C96.2218 504.241 97.0644 505.43 97.8639 506.64L99.6573 505.451C98.8362 504.198 97.9503 502.966 96.9563 501.67C94.5146 498.515 91.792 495.533 89.1558 492.638C87.2975 490.606 85.4177 488.51 83.6242 486.371C82.976 486.717 82.3494 487.084 81.7227 487.452C83.6242 489.742 85.5905 491.946 87.5568 494.085Z" fill="#E0DFE6"></path> <path d="M108.367 503.722L110.074 502.404L93.565 481.034C92.8952 481.358 92.2468 481.704 91.5986 482.049L108.367 503.722Z" fill="#E0DFE6"></path> <path d="M57.5424 502.728C58.6655 502.823 59.7967 502.736 60.8918 502.469L60.3083 500.308C60.078 500.32 59.847 500.32 59.6167 500.308L55.4681 502.469C56.1661 502.49 56.8606 502.577 57.5424 502.728Z" fill="#E0DFE6"></path> <path d="M123.73 502.167L125.329 500.698C121.742 496.852 118.068 492.465 114.071 487.301C111.024 483.346 108.042 479.241 105.103 475.179L103.137 476.151C106.162 480.343 109.209 484.535 112.364 488.619C116.405 493.848 120.121 498.278 123.73 502.167Z" fill="#E0DFE6"></path> <path d="M269.952 350.716C263.945 350.716 257.83 350.5 251.887 350.305C245.945 350.111 239.852 349.895 233.866 349.895C230.56 349.895 227.578 349.895 224.704 350.089V352.25H225.612C228.183 352.25 230.863 352.099 233.801 352.099C239.744 352.099 245.837 352.293 251.758 352.509C257.678 352.725 263.858 352.92 269.887 352.92C275.527 352.92 280.475 352.725 285.013 352.336L285.834 352.034L285.661 350.132C281.015 350.521 275.851 350.716 269.952 350.716Z" fill="#E0DFE6"></path> <path d="M161.91 330.965C167.939 330.965 172.26 331.203 177.662 331.397C181.055 331.527 184.836 331.678 189.698 331.808V329.647C184.858 329.518 167.917 328.869 161.888 328.804C161.932 329.518 161.91 330.252 161.91 330.965Z" fill="#E0DFE6"></path> <path d="M192.638 331.549C203.183 343.65 214.03 356.939 225.764 372.129L227.557 374.485L229.848 373.88L227.471 370.811C215.716 355.578 204.847 342.267 194.281 330.123L192.638 331.549Z" fill="#E0DFE6"></path> <path d="M275.982 340.472C273.821 340.472 271.531 340.213 268.613 340.213C263.86 340.213 244.844 339.867 240.155 339.867C232.218 339.799 224.283 340.167 216.386 340.969L216.602 343.13C224.407 342.349 232.247 341.988 240.091 342.05C244.844 342.05 263.86 342.395 268.549 342.395C271.422 342.395 273.648 342.525 275.787 342.655C279.773 342.985 283.781 342.942 287.758 342.525L287.542 340.364C283.7 340.759 279.83 340.795 275.982 340.472Z" fill="#E0DFE6"></path> <path d="M315.803 412.968L317.51 411.649L299.791 388.702L297.76 389.609L315.803 412.968Z" fill="#E0DFE6"></path> <path d="M231.144 364.09H254.913L260.509 361.929H231.144V364.09Z" fill="#E0DFE6"></path> <path d="M287.173 394.299C289.615 397.454 292.359 400.457 294.996 403.331C297.632 406.205 300.29 409.144 302.688 412.234C303.661 413.487 304.503 414.676 305.303 415.886L307.096 414.697C306.275 413.444 305.389 412.212 304.395 410.916C301.953 407.761 299.231 404.779 296.595 401.883C293.958 398.988 291.517 396.33 289.226 393.391L287.173 394.299Z" fill="#E0DFE6"></path> <path d="M328.1 389.588C333.396 396.567 339.066 403.254 345.084 409.619L346.64 408.128C340.678 401.815 335.059 395.186 329.807 388.27C327.3 385.029 324.859 381.788 322.417 378.482L320.408 379.411C322.936 382.825 325.485 386.261 328.1 389.588Z" fill="#E0DFE6"></path> <path d="M256.511 413.357L258.261 412.104L255.366 408.15L253.335 409.014L256.511 413.357Z" fill="#E0DFE6"></path> <path d="M361.398 413.356L363.148 412.082C352.02 396.783 342.75 384.337 334.107 373.079L332.097 374.008C340.806 385.352 350.162 397.907 361.398 413.356Z" fill="#E0DFE6"></path> <path d="M297.524 331.549C301.068 335.612 304.669 339.818 308.328 344.169L310.489 343.477C306.643 338.853 302.861 334.402 299.145 330.123L297.524 331.549Z" fill="#E0DFE6"></path> <path d="M182.375 350.088C177.686 350.499 172.521 350.715 166.622 350.715C166.989 351.449 167.378 352.162 167.767 352.875C173.234 352.875 178.118 352.638 182.569 352.227L182.375 350.088Z" fill="#E0DFE6"></path> <path d="M192.94 364.37C190.779 361.475 188.618 358.882 186.587 356.483L184.902 357.845L185.528 358.644C187.365 360.805 189.223 363.139 191.211 365.71C193.955 369.254 196.635 372.927 199.293 376.514C200.287 376.709 201.302 376.86 202.318 376.99C199.271 372.798 196.138 368.498 192.94 364.37Z" fill="#E0DFE6"></path> <path d="M293.224 415.107L294.931 413.789C291.819 409.748 287.13 404.432 283.003 399.722L280.713 397.129L278.552 398.036L281.274 401.148C285.553 405.815 290.134 411.131 293.224 415.107Z" fill="#E0DFE6"></path> <path d="M298.043 347.582C296.638 346.027 295.234 344.514 293.851 343.088L292.295 344.579C293.462 345.789 294.65 347.064 295.817 348.36L297.027 347.928L298.043 347.582Z" fill="#E0DFE6"></path> <path d="M210.119 330.079L210.249 332.24C224.705 331.397 240.176 330.987 257.549 330.987C268.18 330.987 273.561 331.181 281.037 331.462C284.43 331.592 288.211 331.743 293.051 331.873V329.712C288.211 329.582 284.408 329.431 281.037 329.301C273.561 329.02 268.072 328.826 257.484 328.826C240.176 328.761 224.618 329.172 210.119 330.079Z" fill="#E0DFE6"></path> <path d="M174.118 361.929L175.179 363.098V361.929H174.118Z" fill="#E0DFE6"></path> <path d="M172.629 340.472C170.468 340.472 168.178 340.213 165.26 340.213H163.1C163.272 340.926 163.445 341.661 163.64 342.374H165.369C168.221 342.374 170.446 342.503 172.607 342.633C176.593 342.964 180.601 342.92 184.578 342.504L184.362 340.343C180.464 340.755 176.535 340.798 172.629 340.472Z" fill="#E0DFE6"></path> <path d="M273.517 404.347L272.394 406.183C275.339 408.307 277.775 411.061 279.524 414.243L281.512 413.379C279.577 409.793 276.842 406.703 273.517 404.347Z" fill="#E0DFE6"></path> <path d="M264.982 411.973C266.105 412.069 267.236 411.981 268.331 411.714L267.748 409.553C266.869 409.748 265.965 409.806 265.068 409.726C264.242 409.651 263.41 409.651 262.583 409.726L262.886 411.887C263.586 411.851 264.287 411.88 264.982 411.973Z" fill="#E0DFE6"></path> <path d="M205.971 363.119C200.68 356.13 195.003 349.443 188.965 343.088L187.409 344.579C193.385 350.886 199.012 357.515 204.264 364.437C207.483 368.586 213.793 377.099 213.836 377.142C214.657 377.142 215.478 376.969 216.299 376.84C216.019 376.451 209.191 367.267 205.971 363.119Z" fill="#E0DFE6"></path> <path d="M331.168 411.413L332.767 409.943C329.18 406.097 325.507 401.711 321.509 396.546C318.181 392.225 315.027 387.773 311.764 383.344L309.754 384.251C313.017 388.789 316.366 393.413 319.802 397.864C323.843 403.093 327.559 407.523 331.168 411.413Z" fill="#E0DFE6"></path> <path d="M368.572 228.304C367.912 228.218 367.244 228.218 366.584 228.304L367.016 230.465C367.49 230.411 367.968 230.411 368.442 230.465H369.307C369.948 230.472 370.585 230.362 371.186 230.141L370.387 228.131C369.799 228.304 369.182 228.363 368.572 228.304Z" fill="#E0DFE6"></path> <path d="M374.774 224.546C376.34 226.028 377.719 227.698 378.879 229.516C379.592 230.575 380.413 231.677 381.58 233.276L383.287 231.958C382.164 230.488 381.364 229.321 380.673 228.306C379.654 226.764 378.496 225.317 377.215 223.984L375.984 223.293L374.774 224.546Z" fill="#E0DFE6"></path> <path d="M364.121 218.472C362.718 218.374 361.31 218.374 359.907 218.472L360.145 220.633C361.455 220.556 362.768 220.556 364.077 220.633C365.633 220.633 366.951 220.633 368.205 220.633H370.603C369.069 219.92 367.492 219.228 365.893 218.472H364.121Z" fill="#E0DFE6"></path> <path d="M259.99 39.1252C261.546 39.1252 262.886 39.1252 264.139 39.1252H266.3C266.3 38.4122 266.451 37.6775 266.494 36.9644H264.139C262.929 36.9644 261.632 36.9644 260.12 36.9644C258.724 36.8658 257.324 36.8658 255.928 36.9644L256.144 39.1252C257.425 39.0516 258.709 39.0516 259.99 39.1252Z" fill="#E0DFE6"></path> <path d="M262.583 46.8614L262.886 49.0204C263.425 48.9782 263.966 48.9782 264.505 49.0204C264.678 48.3079 264.85 47.5955 265.001 46.8614C264.197 46.7868 263.388 46.7868 262.583 46.8614Z" fill="#E0DFE6"></path> <path d="M255.301 28.0403C256.036 28.0403 256.684 28.0403 257.462 28.0403C259.299 28.0403 263.512 28.0403 266.754 28.0403C266.754 27.3056 266.753 26.5926 266.602 25.8795C263.426 25.8795 259.32 25.8795 257.527 25.8795C256.749 25.8795 256.057 25.8795 255.366 25.8795C254.675 25.8795 253.205 26.0092 251.692 25.8795V28.0403H252.924C253.594 28.1268 254.437 28.0835 255.301 28.0403Z" fill="#E0DFE6"></path> <path d="M528.191 252.29C535.996 251.509 543.836 251.148 551.68 251.21C556.433 251.21 575.448 251.555 580.137 251.555C582.99 251.555 585.237 251.685 587.376 251.815C590.57 252.045 593.776 252.045 596.97 251.815C592.649 250.929 588.478 250.129 584.221 249.438C582.99 249.438 581.65 249.438 580.137 249.438C575.384 249.438 556.369 249.092 551.68 249.092C543.742 249.024 535.807 249.392 527.911 250.194L528.191 252.29Z" fill="#E0DFE6"></path> <path d="M619.14 273.682C622.36 277.831 640.532 301.967 641.72 303.436C641.483 301.902 641.202 300.389 640.856 298.877C640.51 298.423 624.067 276.512 620.847 272.364C615.51 265.449 610.799 259.809 606.218 254.839C605.051 254.35 603.863 253.896 602.653 253.478L602.285 253.824C608.261 260.131 613.888 266.76 619.14 273.682Z" fill="#E0DFE6"></path> <path d="M619.657 289.672C615.833 284.356 611.857 278.868 607.816 273.617C605.655 270.721 603.494 268.128 601.463 265.73L599.778 267.091L600.404 267.891C602.241 270.051 604.099 272.385 606.087 274.956C610.106 280.164 614.061 285.653 617.864 290.968C621.667 296.284 625.686 301.772 629.77 307.131C633.854 312.49 637.549 316.79 641.157 320.679L641.741 320.139C641.741 319.556 641.935 318.972 642 318.389C638.651 314.759 635.215 310.632 631.477 305.813C627.458 300.541 623.482 295.009 619.657 289.672Z" fill="#E0DFE6"></path> <path d="M603.193 324.353L604.9 323.035C600.552 316.849 595.383 311.281 589.537 306.484L588.24 308.234C593.931 312.906 598.962 318.328 603.193 324.353Z" fill="#E0DFE6"></path> <path d="M595.458 279.51L593.748 280.831L625.817 322.353L627.527 321.032L595.458 279.51Z" fill="#E0DFE6"></path> <path d="M571.688 282.886C576.554 282.371 581.451 282.226 586.338 282.454L586.511 280.293C581.509 280.065 576.496 280.209 571.515 280.725C568.036 281.027 564.449 281.33 560.927 281.33C557.629 281.362 554.338 281.022 551.117 280.314L550.62 282.475C554.002 283.235 557.461 283.598 560.927 283.556C564.536 283.491 568.166 283.188 571.688 282.886Z" fill="#E0DFE6"></path> <path d="M566.719 300.302C567.453 300.302 568.102 300.302 568.88 300.302C571.602 300.302 579.489 300.302 581.845 300.302L581.715 298.141C579.554 298.141 571.667 298.141 568.966 298.141C568.21 298.141 567.497 298.141 566.805 298.141C566.114 298.141 564.644 298.271 563.11 298.141V300.302H564.342C565.12 300.389 565.963 300.345 566.719 300.302Z" fill="#E0DFE6"></path> <path d="M537.201 261.494C539.772 261.494 542.452 261.343 545.39 261.343C551.332 261.343 557.426 261.537 563.347 261.753C569.267 261.97 575.447 262.164 581.454 262.164C587.461 262.164 592.669 261.948 597.444 261.516L597.25 259.355C592.539 259.787 587.375 259.982 581.454 259.982C575.533 259.982 569.354 259.765 563.411 259.571C557.469 259.377 551.376 259.16 545.39 259.16C542.084 259.16 539.102 259.161 536.228 259.355V261.516L537.201 261.494Z" fill="#E0DFE6"></path> <path d="M571.515 311.388C573.071 311.388 574.389 311.388 575.642 311.388C576.887 311.323 578.135 311.323 579.38 311.388L579.51 309.227C578.127 309.227 576.895 309.227 575.577 309.227C574.259 309.227 573.049 309.227 571.558 309.227C570.163 309.129 568.762 309.129 567.366 309.227L567.582 311.388C568.892 311.311 570.205 311.311 571.515 311.388Z" fill="#E0DFE6"></path> <path d="M590.076 295.138C592.237 297.839 598.244 304.797 603.602 310.934C607.73 315.666 611.641 320.117 612.678 321.478C613.715 322.84 614.515 323.942 615.292 325.13L617.107 323.942C616.286 322.71 615.401 321.457 614.385 320.16C613.369 318.864 609.566 314.477 605.223 309.507C599.886 303.392 593.836 296.542 591.804 293.82L590.076 295.138Z" fill="#E0DFE6"></path> <path d="M583.744 313.722L582.253 315.299C583.82 316.782 585.198 318.451 586.359 320.269C587.072 321.328 587.893 322.43 589.06 324.029L590.767 322.711C589.643 321.242 588.844 320.075 588.152 319.059C586.904 317.109 585.424 315.316 583.744 313.722Z" fill="#E0DFE6"></path> <path d="M590.077 271.175H542.669V273.335H590.077V271.175Z" fill="#E0DFE6"></path> <path d="M580.504 291.183H584.825V289.023H580.504C573.086 288.774 565.66 288.991 558.269 289.671L558.571 291.832C565.862 291.171 573.187 290.954 580.504 291.183Z" fill="#E0DFE6"></path> <path d="M576.01 319.059C575.351 318.972 574.682 318.972 574.022 319.059L574.455 321.219C574.928 321.165 575.407 321.165 575.881 321.219H576.745C577.386 321.227 578.023 321.117 578.625 320.895L577.826 318.886C577.237 319.059 576.621 319.117 576.01 319.059Z" fill="#E0DFE6"></path> <path d="M607.816 364.37C605.655 361.475 603.494 358.882 601.463 356.483L599.778 357.845L600.404 358.644C602.241 360.805 604.099 363.139 606.087 365.71C606.671 366.466 607.233 367.244 607.794 368.001C608.378 367.568 608.961 367.136 609.523 366.682L607.816 364.37Z" fill="#E0DFE6"></path> <path d="M521.643 330.079L521.773 332.24C536.229 331.397 551.7 330.987 569.073 330.987C579.704 330.987 585.085 331.181 592.539 331.462C595.953 331.592 599.713 331.743 604.575 331.873V329.712C599.735 329.582 595.932 329.431 592.561 329.301C585.085 329.02 579.596 328.826 569.008 328.826C551.657 328.761 536.207 329.172 521.643 330.079Z" fill="#E0DFE6"></path> <path d="M631.284 340.883L631.5 343.042H631.737L633.443 340.71L631.284 340.883Z" fill="#E0DFE6"></path> <path d="M587.506 340.472C585.345 340.472 583.054 340.213 580.137 340.213C575.384 340.213 556.369 339.867 551.68 339.867C543.742 339.799 535.807 340.167 527.911 340.969L528.127 343.13C535.931 342.349 543.772 341.988 551.615 342.05C556.368 342.05 575.384 342.395 580.073 342.395C582.925 342.395 585.172 342.525 587.311 342.655C591.297 342.985 595.305 342.942 599.282 342.525L599.066 340.364C595.224 340.759 591.354 340.795 587.506 340.472Z" fill="#E0DFE6"></path> <path d="M625.125 332.24C629.447 331.98 634.027 331.764 638.63 331.591C638.933 330.878 639.192 330.144 639.451 329.431C634.524 329.604 629.684 329.841 624.995 330.122L625.125 332.24Z" fill="#E0DFE6"></path> <path d="M590.077 361.929H542.669V364.09H590.077V361.929Z" fill="#E0DFE6"></path> <path d="M584.847 379.778H580.525C573.107 379.53 565.681 379.746 558.29 380.426L558.593 382.587C565.631 381.935 572.704 381.718 579.769 381.939C581.454 381.312 583.161 380.664 584.847 379.994V379.778Z" fill="#E0DFE6"></path> <path d="M593.729 371.459L596.43 374.938L598.375 373.922L595.436 370.119L593.729 371.459Z" fill="#E0DFE6"></path> <path d="M602.285 344.579C606.78 349.246 611.296 354.497 616.352 360.871L617.908 359.359C612.874 353.006 608.336 347.755 603.863 343.088L602.285 344.579Z" fill="#E0DFE6"></path> <path d="M607.514 331.549C613.111 338.032 618.816 344.795 624.801 352.012L626.227 350.327C620.415 343.196 614.797 336.498 609.243 330.123L607.514 331.549Z" fill="#E0DFE6"></path> <path d="M563.347 352.465C569.289 352.66 575.447 352.876 581.454 352.876C587.461 352.876 592.669 352.66 597.444 352.227L597.25 350.067C592.539 350.499 587.375 350.693 581.454 350.693C575.533 350.693 569.354 350.477 563.411 350.283C557.469 350.088 551.376 349.872 545.39 349.872C542.084 349.872 539.102 349.872 536.228 350.067V352.227H537.136C539.707 352.227 542.387 352.076 545.325 352.076C551.332 352.055 557.426 352.249 563.347 352.465Z" fill="#E0DFE6"></path> <path d="M571.688 373.64C576.554 373.125 581.451 372.981 586.338 373.208L586.511 371.047C581.509 370.819 576.496 370.964 571.515 371.48C568.036 371.782 564.449 372.085 560.927 372.085C557.629 372.117 554.338 371.776 551.117 371.069L550.62 373.23C554.002 373.99 557.461 374.352 560.927 374.31C564.536 374.245 568.166 373.943 571.688 373.64Z" fill="#E0DFE6"></path> <path d="M314.205 511.869L315.135 511.479H314.205V511.869Z" fill="#E0DFE6"></path> <path d="M613.003 263.504C604.359 252.7 592.648 249.913 579.359 252.03C571.708 253.585 564.765 257.572 559.566 263.396C554.091 268.947 550.992 276.409 550.922 284.205C547.249 290.947 543.424 297.609 539.448 304.192C529.206 297.537 515.031 296.046 504.703 302.312C456.3 331.728 407.372 360.258 357.918 387.902C333.523 401.58 240.608 451.56 237.28 453.289C228.637 442.225 213.338 436.802 199.768 445.726C173.838 462.775 147.908 479.78 122.368 497.434C108.906 506.726 95.4008 515.844 82.5656 526.022C70.6379 535.443 58.5589 545.599 54.475 560.876C52.5518 568.05 56.8517 577.752 64.8467 579.135C95.0981 584.385 125.76 560.357 150.523 545.664C169.97 534.103 189.202 522.175 208.347 510.118C211.15 511.711 214.112 513.007 217.184 513.986C235.313 519.755 252.6 513.662 268.849 505.58C299.511 490.303 329.741 474.097 359.906 457.848C410.066 430.838 459.649 402.798 508.657 373.727C524.431 387.233 546.601 392.591 564.125 379.086C576.226 369.751 585.15 351.752 593.123 338.809C601.096 325.865 608.443 312.576 615.336 299.05C621.386 287.489 621.322 273.898 613.003 263.504Z" fill="#D7DCE0"></path> <path d="M199.316 354.453C215.717 381.463 248.755 387.362 286.786 365.408L543.253 217.328V155.464L634.288 208.036L543.253 365.776V303.868L286.786 451.949C259.948 467.442 234.494 475.07 211.784 475.567C195.173 476.161 178.722 472.153 164.246 463.985L164.03 463.877C132.893 445.769 113.575 407.263 113.38 352.595L151.973 356.571L188.317 305.295C188.317 306.353 188.317 307.455 188.317 308.514C188.317 327.357 192.25 342.85 199.316 354.453Z" fill="white"></path> <path d="M543.253 303.89V365.733L501.074 341.38V328.243L543.253 303.89Z" fill="#3A3A3A"></path> <path d="M543.253 155.486V217.328L501.074 192.976V131.112L543.253 155.486Z" fill="#3A3A3A"></path> <path d="M543.253 217.329L286.786 365.409C248.756 387.363 215.717 381.464 199.316 354.454C212.843 354.757 228.444 350.759 244.564 341.079L245.169 340.711L501.074 192.976L543.253 217.329Z" fill="#D7DCE0"></path> <path d="M332.12 124.456C319.455 124.462 306.966 127.422 295.645 133.1L269.715 106.543L292.879 47.8121C338.256 23.4597 379.312 21.8823 409.347 39.1689C440.765 57.3197 460.213 96.1712 460.213 151.402C460.213 155.968 460.083 160.571 459.824 165.209L418.509 160.888L384.562 208.707C385.038 203.924 385.276 199.22 385.276 194.596C385.34 150.732 363.711 125.169 332.12 124.456Z" fill="#3FAAF0"></path> <path d="M367.212 14.8817L409.412 39.2342C379.355 21.9476 338.322 23.5034 292.945 47.8774C290.784 48.9578 288.86 50.0381 286.786 51.2914C191.105 106.479 113.294 241.314 113.294 351.796V352.596C113.294 407.264 132.742 445.77 163.944 463.878L121.959 439.633C109.512 432.323 99.0501 422.069 91.4915 409.771C78.5266 389.2 71.1152 361.412 71.1152 327.422C71.1152 216.961 148.905 82.1696 244.586 26.9391C292.426 -0.676122 335.794 -3.24753 367.212 14.8817Z" fill="#EBEDEF"></path> <path d="M385.34 194.726C385.34 199.35 385.102 204.053 384.627 208.836C382.297 229.999 376.57 250.648 367.665 269.987L245.168 340.711C271.292 325.434 295.796 299.525 314.314 267.524C332.832 235.522 343.183 200.755 343.183 170.287C343.183 151.445 339.228 135.952 332.184 124.37C363.71 125.169 385.34 150.732 385.34 194.726Z" fill="#3A3A3A"></path> <path d="M384.628 208.836L418.574 161.017L459.889 165.339C458.711 184.457 455.723 203.42 450.965 221.974L367.665 269.987C376.57 250.648 382.298 229.999 384.628 208.836Z" fill="white"></path> <path d="M269.78 106.608L295.71 133.164C292.793 134.547 289.854 136.125 286.85 137.853C233.435 168.667 189.83 243.172 188.339 305.295L151.951 356.571L113.359 352.595V351.796C113.359 241.313 191.148 106.478 286.85 51.291C289.011 50.1026 290.956 48.9575 293.009 47.877L269.78 106.608Z" fill="white"></path> <path d="M211.783 475.567L58.8841 563.836V477.404L123.039 440.281L164.094 464.05C178.621 472.223 195.128 476.209 211.783 475.567Z" fill="white"></path> <path d="M121.959 439.633L123.039 440.26L58.8842 477.318L16.662 452.943L91.4695 409.727C99.0286 422.043 109.499 432.313 121.959 439.633Z" fill="#EBEDEF"></path> <path d="M58.8842 477.318V563.837L16.662 539.484V452.965L58.8842 477.318Z" fill="#3A3A3A"></path> <path d="M200.677 357.694H199.229C198.375 357.672 197.564 357.315 196.97 356.701C196.376 356.087 196.047 355.264 196.053 354.41C196.055 353.987 196.142 353.569 196.306 353.179C196.47 352.79 196.71 352.437 197.011 352.14C197.312 351.843 197.668 351.608 198.06 351.449C198.452 351.289 198.871 351.209 199.294 351.212C212.648 351.536 227.73 347.042 242.942 338.247C243.311 338.034 243.718 337.896 244.141 337.841C244.563 337.785 244.992 337.813 245.403 337.924C245.815 338.034 246.2 338.224 246.538 338.484C246.876 338.743 247.159 339.067 247.372 339.435C247.585 339.804 247.723 340.211 247.778 340.634C247.834 341.056 247.806 341.485 247.695 341.896C247.585 342.308 247.395 342.693 247.135 343.031C246.876 343.369 246.553 343.652 246.184 343.865C230.474 352.94 214.787 357.694 200.677 357.694Z" fill="#3A3A3A"></path> <path d="M245.191 343.951C244.475 343.957 243.777 343.725 243.207 343.292C242.636 342.86 242.225 342.25 242.037 341.559C241.85 340.868 241.896 340.134 242.17 339.473C242.443 338.811 242.928 338.258 243.549 337.901L497.833 191.095V131.089C497.833 130.52 497.982 129.961 498.267 129.468C498.551 128.975 498.961 128.565 499.454 128.28C499.949 128.004 500.507 127.859 501.074 127.859C501.642 127.859 502.2 128.004 502.695 128.28L544.853 152.676C545.222 152.889 545.545 153.172 545.804 153.51C546.064 153.848 546.254 154.233 546.364 154.645C546.475 155.056 546.503 155.485 546.447 155.907C546.392 156.33 546.254 156.737 546.041 157.106C545.828 157.474 545.545 157.798 545.207 158.057C544.869 158.317 544.484 158.507 544.072 158.617C543.661 158.728 543.232 158.756 542.81 158.7C542.387 158.645 541.98 158.507 541.611 158.294L504.294 136.686V192.867C504.29 193.436 504.139 193.993 503.855 194.486C503.571 194.978 503.164 195.388 502.673 195.676L246.768 343.411C246.298 343.724 245.754 343.91 245.191 343.951Z" fill="#3A3A3A"></path> <path d="M244.498 344.32C243.79 344.323 243.1 344.095 242.534 343.67C241.968 343.245 241.556 342.646 241.363 341.964C241.169 341.283 241.204 340.558 241.462 339.898C241.72 339.239 242.186 338.682 242.791 338.313L243.439 337.945C269.563 322.128 293.699 296.544 311.397 265.904C329.72 234.14 339.811 200.215 339.811 170.352C339.811 152.871 336.203 137.616 329.375 126.293C328.995 125.74 328.792 125.085 328.791 124.413C328.785 123.783 328.965 123.164 329.307 122.635C329.65 122.105 330.141 121.688 330.718 121.435C331.296 121.181 331.935 121.103 332.557 121.21C333.179 121.317 333.755 121.605 334.215 122.036C334.451 122.251 334.655 122.499 334.82 122.771C342.448 135.304 346.294 151.337 346.294 170.309C346.294 201.274 335.9 236.365 316.993 269.102C298.778 300.693 273.777 327.076 246.788 343.434L246.205 343.779C245.697 344.115 245.106 344.302 244.498 344.32Z" fill="#3A3A3A"></path> <path d="M209.472 478.83C193.035 479.063 176.834 474.909 162.539 466.794C161.794 466.364 161.25 465.656 161.027 464.825C160.804 463.995 160.92 463.109 161.35 462.364C161.78 461.619 162.488 461.076 163.319 460.853C164.15 460.63 165.035 460.746 165.78 461.176C179.763 469.081 195.668 472.941 211.719 472.326C234.645 471.829 259.365 464.05 285.187 449.14L541.654 301.06C542.149 300.783 542.707 300.638 543.274 300.638C543.842 300.638 544.4 300.783 544.895 301.06C545.388 301.344 545.798 301.754 546.082 302.247C546.367 302.74 546.516 303.299 546.516 303.869V353.567L629.88 209.16L546.516 160.996V217.177C546.518 217.746 546.37 218.307 546.085 218.8C545.8 219.294 545.39 219.703 544.895 219.986L288.428 368.067C249.857 390.323 214.636 385.699 196.571 355.988C188.901 343.412 185.033 327.378 185.033 308.45C185.033 307.369 185.033 306.289 185.033 305.208C185.789 242.761 230.691 166.419 285.165 135.001C288.363 133.143 291.323 131.587 294.262 130.204C306.025 124.273 319.011 121.173 332.184 121.15C366.973 121.993 388.582 150.148 388.582 194.618C388.582 199.285 388.344 204.125 387.869 209.03C385.474 230.552 379.637 251.549 370.582 271.219C370.197 271.949 369.549 272.504 368.769 272.773C367.989 273.041 367.135 273.002 366.383 272.663C365.631 272.324 365.036 271.711 364.72 270.949C364.405 270.186 364.391 269.333 364.683 268.561C373.426 249.529 379.065 229.219 381.386 208.404C381.84 203.715 382.078 199.069 382.078 194.618C382.078 153.994 362.89 128.302 332.011 127.633C319.845 127.665 307.855 130.552 297.006 136.06C294.241 137.356 291.431 138.847 288.363 140.597C235.661 171 192.185 244.878 191.472 305.273C191.472 306.354 191.472 307.434 191.472 308.45C191.472 326.039 195.124 341.337 202.06 352.725C218.115 379.108 249.944 382.976 285.144 362.556L540.012 215.556V155.464C540.011 154.895 540.161 154.335 540.445 153.842C540.729 153.349 541.139 152.94 541.631 152.655C542.124 152.371 542.683 152.221 543.252 152.22C543.821 152.22 544.381 152.37 544.873 152.655L635.909 205.249C636.629 205.674 637.157 206.362 637.378 207.169C637.6 207.976 637.499 208.837 637.097 209.571L546.062 367.31C545.706 367.929 545.155 368.413 544.495 368.687C543.836 368.961 543.104 369.009 542.414 368.824C541.724 368.639 541.115 368.232 540.68 367.665C540.246 367.098 540.011 366.404 540.012 365.69V309.508L288.406 454.758C261.634 470.208 235.877 478.29 211.849 478.808L209.472 478.83Z" fill="#3A3A3A"></path> <path d="M163.943 467.118C163.365 467.116 162.798 466.959 162.301 466.664C128.7 447.217 110.16 406.615 110.052 352.595V351.795C110.052 240.254 188.598 104.187 285.078 48.4815C287.412 47.1418 289.4 45.9966 291.345 45.0242C291.722 44.8029 292.141 44.6603 292.575 44.6051C293.009 44.5499 293.45 44.5832 293.871 44.7031C294.292 44.8229 294.684 45.0268 295.024 45.3024C295.364 45.5779 295.645 45.9194 295.849 46.3064C296.054 46.6934 296.178 47.1179 296.214 47.554C296.25 47.9902 296.197 48.4292 296.059 48.8444C295.921 49.2597 295.699 49.6426 295.409 49.9702C295.119 50.2978 294.765 50.5631 294.37 50.7503C292.36 51.8091 290.351 52.9112 288.319 54.0997C193.546 108.768 116.448 242.307 116.448 351.795V352.595C116.448 404.217 133.951 442.744 165.477 461.068C166.096 461.424 166.58 461.975 166.854 462.634C167.128 463.294 167.176 464.026 166.991 464.715C166.806 465.405 166.399 466.015 165.832 466.449C165.265 466.884 164.571 467.119 163.857 467.118H163.943Z" fill="#3A3A3A"></path> <path d="M450.964 225.15C450.695 225.145 450.426 225.109 450.165 225.042C449.752 224.939 449.364 224.755 449.024 224.501C448.683 224.247 448.395 223.928 448.178 223.562C447.961 223.197 447.819 222.792 447.76 222.371C447.7 221.95 447.724 221.521 447.831 221.11C452.525 202.752 455.476 183.992 456.647 165.08C456.907 160.607 457.036 156.026 457.036 151.467C457.036 99.2397 439.533 60.3666 407.791 42.0429C377.54 24.6267 337.37 27.6951 294.478 50.6861C294.102 50.9079 293.685 51.0513 293.252 51.108C292.82 51.1648 292.38 51.1336 291.96 51.0163C291.539 50.8989 291.147 50.698 290.807 50.4254C290.466 50.1528 290.183 49.8141 289.977 49.4298C289.77 49.0455 289.643 48.6234 289.603 48.1888C289.564 47.7542 289.612 47.316 289.746 46.9006C289.88 46.4852 290.096 46.1012 290.382 45.7714C290.668 45.4417 291.017 45.173 291.41 44.9816C336.355 20.8669 378.815 17.8201 411.032 36.3383C444.871 55.7856 463.519 96.7331 463.519 151.38C463.519 156.047 463.367 160.758 463.108 165.361C461.936 184.691 458.919 203.866 454.097 222.622C453.94 223.337 453.544 223.977 452.975 224.437C452.405 224.896 451.696 225.148 450.964 225.15Z" fill="#3A3A3A"></path> <path d="M384.627 212.077C384.032 212.076 383.449 211.912 382.942 211.602C382.434 211.292 382.022 210.848 381.749 210.319C381.477 209.79 381.356 209.197 381.398 208.604C381.441 208.01 381.646 207.44 381.991 206.956L415.915 159.137C416.25 158.669 416.701 158.297 417.224 158.058C417.748 157.819 418.325 157.722 418.897 157.776L460.212 162.097C461.065 162.185 461.849 162.607 462.392 163.271C462.935 163.935 463.192 164.788 463.108 165.641C463.01 166.494 462.582 167.274 461.915 167.816C461.249 168.357 460.397 168.616 459.542 168.537L420.107 164.474L387.285 210.737C386.981 211.157 386.581 211.497 386.119 211.73C385.656 211.963 385.145 212.082 384.627 212.077Z" fill="#3A3A3A"></path> <path d="M295.645 136.405C295.214 136.407 294.787 136.322 294.39 136.155C293.993 135.988 293.633 135.742 293.333 135.433L267.403 108.876C266.963 108.431 266.662 107.867 266.535 107.253C266.408 106.64 266.462 106.003 266.69 105.419L289.876 46.7745C290.18 45.9693 290.791 45.3178 291.575 44.9632C292.359 44.6086 293.252 44.58 294.057 44.8838C294.862 45.1875 295.514 45.7986 295.868 46.5827C296.223 47.3669 296.252 48.2598 295.948 49.065L273.54 105.851L297.957 130.895C298.405 131.352 298.708 131.931 298.827 132.56C298.946 133.189 298.877 133.839 298.627 134.428C298.378 135.017 297.959 135.519 297.425 135.871C296.89 136.223 296.264 136.409 295.624 136.405H295.645Z" fill="#3A3A3A"></path> <path d="M151.887 359.813H151.584L113.014 355.837C112.154 355.751 111.364 355.327 110.817 354.658C110.27 353.99 110.011 353.131 110.097 352.271C110.183 351.412 110.607 350.622 111.275 350.074C111.944 349.527 112.802 349.268 113.662 349.354L150.396 353.114L185.704 303.415C185.941 303.047 186.251 302.732 186.615 302.487C186.978 302.242 187.387 302.073 187.817 301.991C188.248 301.909 188.69 301.915 189.118 302.008C189.546 302.102 189.951 302.281 190.307 302.536C190.664 302.79 190.966 303.114 191.194 303.488C191.422 303.862 191.571 304.279 191.634 304.713C191.696 305.146 191.67 305.588 191.557 306.011C191.444 306.434 191.246 306.831 190.976 307.175L154.588 358.43C154.285 358.863 153.88 359.216 153.409 359.457C152.938 359.698 152.416 359.82 151.887 359.813Z" fill="#3A3A3A"></path> <path d="M58.8842 567.078C58.3158 567.075 57.7577 566.926 57.2636 566.645C56.7691 566.362 56.3584 565.953 56.0737 565.46C55.789 564.966 55.6404 564.406 55.643 563.836V477.404C55.6404 476.834 55.789 476.274 56.0737 475.78C56.3584 475.287 56.7691 474.878 57.2636 474.595L121.332 437.45C121.701 437.237 122.108 437.099 122.53 437.044C122.952 436.988 123.381 437.017 123.793 437.127C124.204 437.237 124.59 437.428 124.928 437.687C125.265 437.946 125.549 438.27 125.762 438.639C125.974 439.008 126.112 439.415 126.168 439.837C126.223 440.259 126.195 440.688 126.085 441.1C125.974 441.511 125.784 441.897 125.525 442.234C125.265 442.572 124.942 442.855 124.573 443.068L62.1254 479.176V558.218L210.098 472.693C210.742 472.305 211.5 472.151 212.244 472.258C212.988 472.364 213.673 472.724 214.182 473.277C214.47 473.588 214.693 473.954 214.839 474.352C214.984 474.75 215.05 475.173 215.032 475.597C215.014 476.02 214.913 476.436 214.733 476.821C214.554 477.205 214.301 477.55 213.988 477.836C213.821 477.998 213.631 478.137 213.426 478.246L60.5264 566.537C60.034 566.854 59.4687 567.04 58.8842 567.078Z" fill="#3A3A3A"></path> <path d="M164.159 467.226C163.59 467.231 163.03 467.082 162.538 466.794L120.338 442.442C107.437 434.864 96.5904 424.24 88.7466 411.499C75.0902 389.891 67.873 360.763 67.873 327.422C67.873 215.924 146.419 79.8786 242.899 24.1296C290.199 -3.18314 334.907 -7.46146 368.767 12.0723L410.967 36.4246C411.712 36.8544 412.256 37.5627 412.479 38.3934C412.702 39.2241 412.586 40.1094 412.156 40.8544C411.726 41.5994 411.018 42.1431 410.187 42.3659C409.356 42.5888 408.471 42.4726 407.726 42.0428L365.504 17.6904C333.74 -0.633332 291.323 3.64512 246.119 29.7478C151.367 84.4596 74.269 217.998 74.269 327.422C74.269 359.532 81.1405 387.406 94.1486 408.042C101.441 419.881 111.514 429.761 123.492 436.824L165.693 461.176C166.312 461.532 166.796 462.083 167.07 462.743C167.344 463.403 167.392 464.134 167.207 464.824C167.022 465.514 166.615 466.123 166.048 466.558C165.481 466.992 164.787 467.227 164.073 467.226H164.159Z" fill="#3A3A3A"></path> <path d="M58.8844 480.558C58.316 480.556 57.7578 480.407 57.2638 480.126L15.0416 455.752C14.6429 455.556 14.2885 455.281 14.0008 454.942C13.7131 454.603 13.498 454.209 13.369 453.784C13.24 453.359 13.1998 452.912 13.2509 452.471C13.3019 452.029 13.4434 451.603 13.666 451.219C13.8887 450.834 14.1878 450.5 14.5452 450.236C14.9026 449.972 15.3106 449.784 15.7435 449.685C16.1764 449.585 16.6253 449.575 17.0621 449.656C17.4989 449.737 17.9145 449.907 18.2828 450.156L60.505 474.508C61.1239 474.864 61.6079 475.415 61.8816 476.075C62.1554 476.734 62.2036 477.466 62.0188 478.156C61.834 478.846 61.4266 479.455 60.8598 479.89C60.293 480.324 59.5986 480.559 58.8844 480.558Z" fill="#3A3A3A"></path> <path d="M58.8842 567.078C58.3145 567.086 57.7537 566.937 57.2636 566.646L15.0415 542.294C14.5513 542.006 14.1441 541.595 13.86 541.103C13.576 540.611 13.4248 540.053 13.4209 539.484V453.052C13.4205 452.482 13.57 451.923 13.8545 451.43C14.139 450.937 14.5484 450.527 15.0415 450.243L89.8489 407.026C90.2178 406.814 90.625 406.676 91.0472 406.62C91.4695 406.565 91.8986 406.593 92.3099 406.703C92.7212 406.814 93.1066 407.004 93.4444 407.263C93.7822 407.523 94.0656 407.846 94.2784 408.215C94.4912 408.584 94.6294 408.991 94.6849 409.413C94.7403 409.836 94.7119 410.264 94.6015 410.676C94.4912 411.087 94.3009 411.473 94.0416 411.811C93.7822 412.148 93.459 412.432 93.0901 412.645L19.9033 454.889V537.518L60.5049 560.941C61.1238 561.298 61.6077 561.848 61.8815 562.508C62.1552 563.168 62.2034 563.899 62.0186 564.589C61.8339 565.279 61.4264 565.888 60.8596 566.323C60.2928 566.757 59.5984 566.992 58.8842 566.992V567.078Z" fill="#3A3A3A"></path> <path d="M543.253 220.569C542.685 220.561 542.128 220.412 541.632 220.137L499.475 195.784C499.106 195.571 498.782 195.288 498.523 194.95C498.263 194.613 498.073 194.227 497.963 193.816C497.852 193.404 497.824 192.975 497.88 192.553C497.935 192.131 498.073 191.724 498.286 191.355C498.499 190.986 498.782 190.662 499.12 190.403C499.458 190.144 499.843 189.953 500.255 189.843C500.666 189.733 501.095 189.704 501.517 189.76C501.94 189.815 502.347 189.953 502.716 190.166L544.852 214.519C545.471 214.875 545.955 215.426 546.228 216.085C546.502 216.745 546.55 217.477 546.365 218.166C546.181 218.856 545.773 219.466 545.206 219.9C544.64 220.335 543.945 220.57 543.231 220.569H543.253Z" fill="#3A3A3A"></path> <path d="M543.253 368.974C542.682 368.968 542.123 368.812 541.632 368.52L499.475 344.168C498.98 343.885 498.57 343.476 498.285 342.982C498 342.489 497.852 341.929 497.854 341.359V328.243C497.854 327.383 498.196 326.559 498.803 325.951C499.411 325.343 500.236 325.002 501.095 325.002C501.955 325.002 502.779 325.343 503.387 325.951C503.995 326.559 504.337 327.383 504.337 328.243V339.501L544.852 362.924C545.471 363.28 545.955 363.831 546.228 364.491C546.502 365.15 546.55 365.882 546.366 366.572C546.181 367.261 545.773 367.871 545.207 368.305C544.64 368.74 543.945 368.975 543.231 368.974H543.253Z" fill="#3A3A3A"></path> </svg> 