<?xml version="1.0" encoding="UTF-8"?> <svg xmlns="http://www.w3.org/2000/svg" width="976" height="612" viewBox="0 0 976 612" fill="none"> <path fill-rule="evenodd" clip-rule="evenodd" d="M3.94118 8H0V0H3.94118V8ZM23.6471 8H15.7647V0H23.6471V8ZM43.3529 8H35.4706V0H43.3529V8ZM63.0588 8H55.1765V0H63.0588V8ZM82.7647 8H74.8824V0H82.7647V8ZM102.471 8H94.5882V0H102.471V8ZM122.176 8H114.294V0H122.176V8ZM141.882 8H134V0H141.882V8ZM161.588 8H153.706V0H161.588V8ZM181.294 8H173.412V0H181.294V8ZM201 8H193.118V0H201V8ZM220.706 8H212.824V0H220.706V8ZM240.412 8H232.529V0H240.412V8ZM260.118 8H252.235V0H260.118V8ZM279.824 8H271.941V0H279.824V8ZM299.529 8H291.647V0H299.529V8ZM319.235 8H311.353V0H319.235V8ZM338.941 8H331.059V0H338.941V8ZM358.647 8H350.765V0H358.647V8ZM378.353 8H370.471V0H378.353V8ZM398.059 8H390.176V0H398.059V8ZM417.765 8H409.882V0H417.765V8ZM437.471 8H429.588V0H437.471V8ZM457.176 8H449.294V0H457.176V8ZM476.882 8H469V0H476.882V8ZM496.588 8H488.706V0H496.588V8ZM516.294 8H508.412V0H516.294V8ZM536 8H528.118V0H536V8ZM555.706 8H547.823V0H555.706V8ZM575.412 8H567.529V0H575.412V8ZM595.118 8H587.235V0H595.118V8ZM614.823 8H606.941V0H614.823V8ZM634.529 8H626.647V0H634.529V8ZM654.235 8H646.353V0H654.235V8ZM670 8H666.059V0H670C671.343 0 672.683 0.00864959 674.022 0.0258968L673.919 8.02523C672.615 8.00843 671.308 8 670 8ZM693.408 8.90565C690.816 8.70426 688.214 8.53602 685.603 8.40138L686.015 0.411998C688.695 0.550213 691.366 0.72292 694.028 0.929686L693.408 8.90565ZM712.785 11.0479C710.218 10.6789 707.64 10.3426 705.053 10.0394L705.984 2.09377C708.641 2.40507 711.287 2.75041 713.923 3.12935L712.785 11.0479ZM731.984 14.4544C729.447 13.9177 726.898 13.4133 724.338 12.9417L725.788 5.07408C728.417 5.55845 731.034 6.07643 733.64 6.62757L731.984 14.4544ZM750.925 19.1181C748.423 18.4139 745.908 17.7416 743.38 17.1015L745.344 9.34623C747.94 10.0036 750.523 10.6942 753.093 11.4174L750.925 19.1181ZM769.507 25.0172C767.06 24.1503 764.597 23.3145 762.12 22.5103L764.591 14.9014C767.135 15.7274 769.664 16.5858 772.178 17.4761L769.507 25.0172ZM787.662 32.1285C785.278 31.1025 782.877 30.1068 780.46 29.1418L783.427 21.7123C785.909 22.7033 788.375 23.726 790.824 24.7797L787.662 32.1285ZM805.316 40.4217C803.001 39.2395 800.668 38.0868 798.318 36.9639L801.767 29.7456C804.18 30.8987 806.576 32.0826 808.954 33.2966L805.316 40.4217ZM822.383 49.8533C820.151 48.5225 817.9 47.22 815.631 45.9465L819.546 38.9701C821.876 40.2779 824.188 41.6153 826.48 42.9819L822.383 49.8533ZM838.799 60.383C836.658 58.909 834.497 57.4622 832.316 56.0431L836.68 49.3378C838.919 50.7949 841.138 52.2805 843.336 53.794L838.799 60.383ZM854.494 71.9627C852.452 70.3512 850.389 68.7658 848.305 67.207L853.097 60.8006C855.237 62.4011 857.355 64.0288 859.451 65.6834L854.494 71.9627ZM869.4 84.539C867.468 82.7983 865.514 81.0826 863.536 79.3923L868.735 73.3114C870.765 75.0468 872.772 76.8084 874.755 78.5955L869.4 84.539ZM883.459 98.0588C881.643 96.1959 879.804 94.3566 877.941 92.5415L883.524 86.8115C885.437 88.675 887.325 90.5634 889.189 92.476L883.459 98.0588ZM896.608 112.464C894.917 110.486 893.202 108.532 891.461 106.6L897.405 101.245C899.192 103.228 900.953 105.235 902.689 107.265L896.608 112.464ZM908.793 127.695C907.234 125.611 905.649 123.548 904.037 121.506L910.317 116.549C911.971 118.645 913.599 120.764 915.199 122.903L908.793 127.695ZM919.957 143.684C918.538 141.503 917.091 139.342 915.617 137.201L922.206 132.664C923.72 134.862 925.205 137.081 926.662 139.32L919.957 143.684ZM930.054 160.369C928.78 158.1 927.478 155.849 926.147 153.617L933.018 149.52C934.385 151.812 935.722 154.124 937.03 156.454L930.054 160.369ZM939.036 177.682C937.913 175.332 936.76 172.999 935.578 170.684L942.703 167.046C943.917 169.424 945.101 171.82 946.254 174.233L939.036 177.682ZM946.858 195.54C945.893 193.123 944.898 190.722 943.872 188.338L951.22 185.176C952.274 187.625 953.297 190.091 954.288 192.573L946.858 195.54ZM953.49 213.88C952.685 211.403 951.85 208.94 950.983 206.493L958.524 203.822C959.414 206.336 960.273 208.865 961.099 211.409L953.49 213.88ZM958.899 232.62C958.258 230.092 957.586 227.577 956.882 225.075L964.583 222.907C965.306 225.477 965.996 228.06 966.654 230.656L958.899 232.62ZM963.058 251.662C962.587 249.102 962.082 246.553 961.546 244.016L969.372 242.36C969.924 244.966 970.442 247.583 970.926 250.212L963.058 251.662ZM965.961 270.947C965.657 268.36 965.321 265.782 964.952 263.215L972.871 262.077C973.25 264.713 973.595 267.359 973.906 270.016L965.961 270.947ZM967.599 290.397C967.464 287.786 967.296 285.184 967.094 282.592L975.07 281.972C975.277 284.634 975.45 287.305 975.588 289.985L967.599 290.397ZM968 306C968 304.692 967.992 303.385 967.975 302.081L975.974 301.978C975.991 303.317 976 304.657 976 306C976 307.343 975.991 308.683 975.974 310.022L967.975 309.919C967.992 308.615 968 307.308 968 306ZM967.094 329.408C967.296 326.816 967.464 324.214 967.599 321.603L975.588 322.015C975.45 324.695 975.277 327.366 975.07 330.028L967.094 329.408ZM964.952 348.785C965.321 346.218 965.657 343.64 965.961 341.053L973.906 341.984C973.595 344.641 973.25 347.287 972.871 349.923L964.952 348.785ZM961.546 367.984C962.082 365.447 962.587 362.898 963.058 360.338L970.926 361.788C970.442 364.417 969.924 367.034 969.372 369.64L961.546 367.984ZM956.882 386.925C957.586 384.423 958.258 381.908 958.899 379.38L966.654 381.344C965.996 383.94 965.306 386.523 964.583 389.093L956.882 386.925ZM950.983 405.507C951.85 403.06 952.685 400.597 953.49 398.12L961.099 400.591C960.273 403.135 959.414 405.664 958.524 408.178L950.983 405.507ZM943.872 423.662C944.898 421.278 945.893 418.877 946.858 416.46L954.288 419.427C953.297 421.909 952.274 424.375 951.22 426.824L943.872 423.662ZM935.578 441.316C936.76 439.001 937.913 436.668 939.036 434.318L946.254 437.767C945.101 440.18 943.917 442.576 942.703 444.954L935.578 441.316ZM926.147 458.383C927.478 456.151 928.78 453.9 930.054 451.631L937.03 455.546C935.722 457.876 934.385 460.188 933.018 462.48L926.147 458.383ZM915.617 474.799C917.091 472.658 918.538 470.497 919.957 468.316L926.662 472.68C925.205 474.919 923.72 477.138 922.206 479.336L915.617 474.799ZM904.037 490.494C905.649 488.452 907.234 486.389 908.793 484.305L915.199 489.097C913.599 491.237 911.971 493.355 910.317 495.451L904.037 490.494ZM891.461 505.4C893.202 503.468 894.917 501.514 896.608 499.536L902.689 504.735C900.953 506.765 899.192 508.772 897.405 510.755L891.461 505.4ZM877.941 519.459C879.804 517.643 881.643 515.804 883.458 513.941L889.188 519.524C887.325 521.437 885.437 523.325 883.524 525.189L877.941 519.459ZM863.536 532.608C865.514 530.917 867.468 529.202 869.4 527.461L874.755 533.405C872.772 535.192 870.765 536.953 868.735 538.689L863.536 532.608ZM848.305 544.793C850.389 543.234 852.452 541.649 854.494 540.037L859.451 546.317C857.355 547.971 855.237 549.599 853.097 551.199L848.305 544.793ZM832.316 555.957C834.497 554.538 836.658 553.091 838.799 551.617L843.336 558.206C841.138 559.72 838.919 561.205 836.68 562.662L832.316 555.957ZM815.631 566.054C817.9 564.78 820.151 563.478 822.383 562.147L826.48 569.018C824.188 570.385 821.876 571.722 819.546 573.03L815.631 566.054ZM798.318 575.036C800.668 573.913 803.001 572.76 805.316 571.578L808.954 578.703C806.576 579.917 804.18 581.101 801.767 582.254L798.318 575.036ZM780.46 582.858C782.877 581.893 785.278 580.898 787.662 579.872L790.824 587.22C788.375 588.274 785.909 589.297 783.427 590.288L780.46 582.858ZM762.12 589.49C764.597 588.685 767.06 587.85 769.507 586.983L772.178 594.524C769.664 595.414 767.135 596.273 764.591 597.099L762.12 589.49ZM743.38 594.898C745.908 594.258 748.423 593.586 750.925 592.882L753.093 600.583C750.523 601.306 747.94 601.996 745.344 602.654L743.38 594.898ZM724.338 599.058C726.898 598.587 729.447 598.082 731.984 597.546L733.64 605.372C731.034 605.924 728.417 606.442 725.788 606.926L724.338 599.058ZM705.053 601.961C707.641 601.657 710.218 601.321 712.785 600.952L713.923 608.871C711.287 609.25 708.641 609.595 705.984 609.906L705.053 601.961ZM685.603 603.599C688.214 603.464 690.816 603.296 693.408 603.094L694.028 611.07C691.366 611.277 688.695 611.45 686.015 611.588L685.603 603.599ZM670 604C671.308 604 672.615 603.992 673.919 603.975L674.022 611.974C672.683 611.991 671.343 612 670 612H666.059V604H670ZM0 604H3.94136V612H0V604ZM15.7649 604H23.6472V612H15.7649V604ZM35.4708 604H43.3531V612H35.4708V604ZM55.1766 604H63.059V612H55.1766V604ZM74.8825 604H82.7648V612H74.8825V604ZM94.5884 604H102.471V612H94.5884V604ZM114.294 604H122.177V612H114.294V604ZM134 604H141.882V612H134V604ZM153.706 604H161.588V612H153.706V604ZM173.412 604H181.294V612H173.412V604ZM193.118 604H201V612H193.118V604ZM212.824 604H220.706V612H212.824V604ZM232.53 604H240.412V612H232.53V604ZM252.235 604H260.118V612H252.235V604ZM271.941 604H279.824V612H271.941V604ZM291.647 604H299.529V612H291.647V604ZM311.353 604H319.235V612H311.353V604ZM331.059 604H338.941V612H331.059V604ZM350.765 604H358.647V612H350.765V604ZM370.471 604H378.353V612H370.471V604ZM390.176 604H398.059V612H390.176V604ZM409.882 604H417.765V612H409.882V604ZM429.588 604H437.471V612H429.588V604ZM449.294 604H457.176V612H449.294V604ZM469 604H476.882V612H469V604ZM488.706 604H496.588V612H488.706V604ZM508.412 604H516.294V612H508.412V604ZM528.118 604H536V612H528.118V604ZM547.824 604H555.706V612H547.824V604ZM567.529 604H575.412V612H567.529V604ZM587.235 604H595.118V612H587.235V604ZM606.941 604H614.824V612H606.941V604ZM626.647 604H634.529V612H626.647V604ZM646.353 604H654.235V612H646.353V604Z" fill="#D9DBE0"></path> </svg> 