<?xml version="1.0" encoding="UTF-8"?> <svg xmlns="http://www.w3.org/2000/svg" width="131" height="135" viewBox="0 0 131 135" fill="none"> <path d="M65.4478 3.62246L47.2536 130.591L3.68013 84.4185L65.4478 3.62246Z" fill="white"></path> <path d="M47.2798 134.269H46.6668C45.8622 134.146 45.1253 133.747 44.5826 133.141L1.00909 86.9928C0.406028 86.3603 0.0498376 85.5326 0.00484867 84.6598C-0.0401402 83.787 0.229113 82.927 0.763939 82.2358L62.6053 1.31721C63.163 0.62331 63.958 0.160382 64.8367 0.017613C65.0486 -0.00587099 65.2624 -0.00587099 65.4743 0.017613C66.1912 0.0130852 66.8924 0.226902 67.4849 0.630632C67.6466 0.724963 67.7951 0.840444 67.9264 0.973959C68.2039 1.23316 68.4434 1.53032 68.6376 1.85667L130.454 103.52C130.747 103.996 130.927 104.533 130.982 105.089C131.038 105.646 130.966 106.207 130.773 106.732C130.56 107.262 130.228 107.737 129.803 108.119C129.378 108.502 128.871 108.782 128.321 108.939L48.457 134.073C48.0779 134.201 47.6801 134.268 47.2798 134.269ZM67.6322 14.3133L51.7427 125.319L121.651 103.25L67.6322 14.3133ZM8.51259 84.1729L44.6316 122.523L59.7365 17.0841L8.51259 84.1729Z" fill="#3A3A3A"></path> </svg> 