<?xml version="1.0" encoding="UTF-8"?> <svg xmlns="http://www.w3.org/2000/svg" width="166" height="113" viewBox="0 0 166 113" fill="none"> <path d="M22.7029 76.3217L20.9625 77.8533C29.827 88.0405 38.9 99.0166 48.4838 111.153C49.528 111.153 50.5493 111.315 51.5935 111.362C41.5224 98.5756 31.9851 87.0426 22.7029 76.3217Z" fill="#E0DFE6"></path> <path d="M16.1888 75.8585C10.9908 75.7193 3.24006 75.4175 3.24006 75.4175C3.54173 76.2064 3.84374 76.9954 4.16861 77.738L16.1192 78.1326L16.1888 75.8585Z" fill="#E0DFE6"></path> <path d="M9.26233 87.4373L10.4691 89.2241L10.26 87.3443L9.26233 87.4373Z" fill="#E0DFE6"></path> <path d="M15.313 91.893C18.6313 95.3739 21.9965 99.1563 25.5701 103.496C27.2977 104.575 29.0878 105.552 30.9307 106.42C25.988 100.224 21.4629 95.026 17.0075 90.3617L15.313 91.893Z" fill="#E0DFE6"></path> <path d="M42.3789 66.4599L9.40417 23.7619C8.94006 24.4349 8.47577 25.1079 8.05807 25.804L40.5456 67.8754L42.3789 66.4599Z" fill="#E0DFE6"></path> <path d="M19.9372 55.9714C17.1294 52.9083 14.2285 49.7292 11.676 46.4341C9.12336 43.1389 6.33869 39.8669 3.53084 36.8502L2.53317 37.7785C2.41714 38.1266 2.30079 38.4978 2.20797 38.8458C4.85339 41.7233 7.61492 44.9489 9.84264 47.8495C12.4648 51.2375 15.389 54.44 18.22 57.5263C21.0511 60.6126 23.9281 63.7685 26.4807 67.0869C27.525 68.4328 28.4531 69.709 29.2885 71.0085L31.2379 69.7324C30.3561 68.3864 29.4047 67.0637 28.314 65.6714C25.6918 62.3995 22.7683 59.081 19.9372 55.9714Z" fill="#E0DFE6"></path> <path d="M57.0776 66.2052L58.7716 64.6271C54.9427 60.4965 50.9741 55.786 46.6811 50.2399C42.3881 44.6938 38.072 38.6371 33.9646 32.9286C29.8573 27.2201 25.5875 21.3259 21.2481 15.687C20.5055 14.7124 19.7863 13.8306 19.0669 12.9023C18.4868 13.4129 17.9067 13.9235 17.3498 14.4572C18.0227 15.3158 18.7186 16.1743 19.4148 17.1025C23.731 22.695 27.978 28.5893 32.0854 34.2978C36.1928 40.0063 40.4857 45.9004 44.8484 51.6554C49.211 57.4103 53.1791 62.0282 57.0776 66.2052Z" fill="#E0DFE6"></path> <path d="M33.4326 15.756C36.8903 20.2114 50.3262 38.2883 53.7838 42.767C59.4783 50.262 65.5751 57.4432 72.0467 64.2785L73.7174 62.6772C67.3001 55.9037 61.2575 48.7845 55.6171 41.3515C52.1827 36.896 38.7236 18.7958 35.266 14.3404C32.9454 11.3933 30.8568 8.70153 28.7683 6.14893C28.0722 6.52022 27.3995 6.91473 26.7265 7.33243C28.9775 9.93143 31.0889 12.7161 33.4326 15.756Z" fill="#E0DFE6"></path> <path d="M56.4884 24.0168C66.3042 36.7102 76.793 50.7727 89.5096 68.2927L91.3888 66.9234C78.649 49.4033 68.1834 35.3177 58.3443 22.6012C52.4038 14.9434 46.7419 7.74979 41.1494 0.904204L38.8288 1.67002C44.5141 8.70125 50.3853 16.1038 56.4884 24.0168Z" fill="#E0DFE6"></path> <path d="M1.26679 68.5714C1.38282 68.8034 1.52182 69.0353 1.61464 69.2442L3.74936 68.3162C2.83059 66.5013 1.67582 64.8158 0.315005 63.3037C0.547059 65.0673 0.872297 66.831 1.26679 68.5714Z" fill="#E0DFE6"></path> <path d="M3.59695 55.1826C8.00597 60.1949 13.0183 65.9034 16.3135 70.1732L18.1468 68.7577C14.8052 64.4183 9.76958 58.7097 5.33735 53.6509L0.696275 48.2905L0.185824 48.7314C0.185824 49.4972 0.0464108 50.263 0 51.0519L3.59695 55.1826Z" fill="#E0DFE6"></path> <path d="M61.4544 110.527V110.852H61.9184C64.3782 111.641 66.8611 112.314 69.3672 112.894H110.882L112.367 112.523V110.573L61.4544 110.527Z" fill="#E0DFE6"></path> <path d="M124.581 104.679L122.794 106.141L123.444 107C123.746 107.348 124.048 107.742 124.35 108.113C125.092 107.789 125.765 107.394 126.484 107.046C125.881 106.234 125.231 105.422 124.581 104.679Z" fill="#E0DFE6"></path> <path d="M149.976 78.6429L157.912 78.2251C158.4 77.4361 158.887 76.6703 159.328 75.9045L149.837 76.4153L149.976 78.6429Z" fill="#E0DFE6"></path> <path d="M132.823 76.3217L131.082 77.8533C135.631 83.0977 140.272 88.5586 145.006 94.2362C145.586 93.7024 146.119 93.1456 146.676 92.6119C141.942 86.9962 137.371 81.5661 132.823 76.3217Z" fill="#E0DFE6"></path> <path d="M136.692 100.967C133.397 97.0454 130.241 93.5414 127.132 90.2927L125.461 91.8937C128.501 95.0729 131.564 98.5072 134.743 102.313C135.439 101.849 136.042 101.408 136.692 100.967Z" fill="#E0DFE6"></path> <path d="M122.059 87.3443C117.911 87.78 113.731 87.8268 109.574 87.4837C107.253 87.4837 104.933 87.2049 101.661 87.2049C96.5791 87.2049 76.1348 86.8338 71.1225 86.8338C62.5988 86.7729 54.078 87.168 45.5965 88.0173L45.8288 90.3379C54.2177 89.4984 62.6455 89.1111 71.076 89.1776C76.158 89.1776 96.6023 89.5487 101.615 89.5487C104.701 89.5487 107.091 89.6879 109.411 89.8271C113.692 90.1818 117.996 90.1353 122.267 89.6881L122.059 87.3443Z" fill="#E0DFE6"></path> <path d="M83.6142 100.363C89.9956 100.572 96.6089 100.804 103.083 100.804C109.558 100.804 115.127 100.572 120.256 100.108L120.047 97.7872C114.988 98.2513 109.418 98.4602 103.083 98.4602C96.7482 98.4602 90.0653 98.228 83.6838 98.0192C77.3024 97.8103 70.7582 97.5784 64.3303 97.5784C60.8031 97.5784 57.5776 97.5783 54.5145 97.7872V100.108H55.489C58.2504 100.108 61.128 99.9454 64.2839 99.9454C70.7118 99.9222 77.2791 100.131 83.6142 100.363Z" fill="#E0DFE6"></path> <path d="M127.961 75.8577C122.762 75.7185 118.679 75.5559 115.082 75.4167C107.03 75.115 101.158 74.9062 89.7645 74.9062C71.061 74.9062 54.3996 75.347 38.8288 76.2753L38.9682 78.5958C54.4926 77.6908 71.1074 77.25 89.7645 77.25C101.182 77.25 106.983 77.4588 114.989 77.7604C118.632 77.8997 122.693 78.0623 127.891 78.2015L127.961 75.8577Z" fill="#E0DFE6"></path> <path d="M102.052 34.5523H106.693V32.2318H102.052C94.0854 31.9649 86.1103 32.1974 78.1732 32.9279L78.5216 35.2485C86.3436 34.5391 94.2013 34.3066 102.052 34.5523Z" fill="#E0DFE6"></path> <path d="M92.4079 56.2492C94.0786 56.2492 95.5172 56.2492 96.8631 56.2492C98.1926 56.1796 99.5248 56.1796 100.854 56.2492L100.994 53.9287C99.5318 53.9287 98.1857 53.9287 96.7702 53.9287C95.3547 53.9287 94.0787 53.9287 92.4543 53.9287C90.9556 53.8229 89.4508 53.8229 87.952 53.9287L88.1843 56.2492C89.5909 56.1666 91.0013 56.1666 92.4079 56.2492Z" fill="#E0DFE6"></path> <path d="M92.5966 25.6415C97.8139 25.0889 103.066 24.9339 108.307 25.1775L108.492 22.857C103.12 22.6119 97.7373 22.7669 92.3881 23.321C88.652 23.6459 84.7996 23.9708 81.0171 23.9708C77.4755 24.0044 73.9413 23.6385 70.4818 22.8801L69.9713 25.2006C73.5951 26.0182 77.3025 26.4076 81.0171 26.3609C84.8924 26.2913 88.8141 25.9664 92.5966 25.6415Z" fill="#E0DFE6"></path> <path d="M87.2431 44.3451C88.032 44.3451 88.7282 44.3451 89.5636 44.3451C92.4643 44.3451 100.934 44.3451 103.487 44.3451V42.0246C101.05 42.0246 92.6728 42.0246 89.7953 42.0246C88.9831 42.0246 88.2174 42.0246 87.4748 42.0246C86.7322 42.0246 85.1543 42.1638 83.5067 42.0246V44.3451H84.8528C85.5258 44.438 86.4309 44.3916 87.2431 44.3451Z" fill="#E0DFE6"></path> <path d="M55.5354 2.66896C58.2969 2.66896 61.1744 2.5065 64.3303 2.5065C69.8532 2.5065 75.492 2.669 81.0149 2.85464C78.4784 1.82357 75.8734 0.97055 73.2182 0.301963C70.2479 0.301963 67.2774 0.185964 64.3303 0.185964C60.8031 0.185964 57.5776 0.186027 54.5145 0.394875V2.71541L55.5354 2.66896Z" fill="#E0DFE6"></path> <path d="M107.163 25.6684L105.33 27.0839L139.699 71.5946L141.532 70.1791L107.163 25.6684Z" fill="#E0DFE6"></path> <path d="M112.339 13.0417H61.426V15.3622H112.339V13.0417Z" fill="#E0DFE6"></path> <path d="M120.257 2.6445L120.048 0.323963C114.989 0.78807 109.42 0.996868 103.085 0.996868H97.7242C95.4037 1.60021 93.0832 2.29638 90.7626 3.17818C94.8932 3.17818 99.0472 3.38709 103.155 3.38709C109.49 3.34068 115.129 3.10861 120.257 2.6445Z" fill="#E0DFE6"></path> <path d="M144.093 32.9279C139.986 27.2193 135.738 21.3252 131.399 15.6863C129.079 12.5768 126.758 9.79206 124.437 7.21626L122.651 8.67821L123.3 9.5368C125.25 11.8573 127.246 14.3636 129.404 17.125C133.72 22.7175 137.943 28.6118 142.051 34.3203C146.158 40.0288 150.451 45.9229 154.813 51.6779C158.178 56.0173 161.334 59.8694 164.398 63.2806C164.676 62.3755 164.908 61.4704 165.117 60.5654C162.402 57.4559 159.617 54.068 156.67 50.2391C152.47 44.6002 148.2 38.6596 144.093 32.9279Z" fill="#E0DFE6"></path> <path d="M143.536 15.7559C146.994 20.2114 165.303 44.577 166 45.4588C165.81 43.8296 165.539 42.2109 165.187 40.6088C161.915 36.3854 148.827 18.7957 145.393 14.3403C142.469 10.581 139.754 7.16984 137.132 4.03711C135.517 3.16432 133.851 2.38941 132.143 1.71657C135.693 5.87034 139.452 10.4651 143.536 15.7559Z" fill="#E0DFE6"></path> <path d="M139.414 71.008L141.363 69.7319C140.481 68.4092 139.53 67.0633 138.439 65.671C137.348 64.2786 133.264 59.5678 128.623 54.2306C122.891 47.6634 116.394 40.3073 114.189 37.3834L112.356 38.7991C114.677 41.6997 121.105 49.1719 126.86 55.7622C131.315 60.8442 135.492 65.6245 136.606 67.0864C137.72 68.5484 138.579 69.7317 139.414 71.008Z" fill="#E0DFE6"></path> <path d="M97.2323 64.4879C96.5307 64.4076 95.8225 64.4076 95.1209 64.4879L95.5616 66.8084C96.0705 66.7503 96.5847 66.7503 97.0935 66.8084H98.0215C98.7101 66.8166 99.394 66.6986 100.04 66.4603L99.1818 64.3021C98.5501 64.4891 97.888 64.5524 97.2323 64.4879Z" fill="#E0DFE6"></path> <path d="M105.555 58.7558L103.954 60.4499C105.643 62.0419 107.131 63.8341 108.386 65.7869C109.152 66.924 110.01 68.1075 111.286 69.8247L113.12 68.4092C111.89 66.8312 111.031 65.5782 110.289 64.4876C108.948 62.3927 107.359 60.468 105.555 58.7558Z" fill="#E0DFE6"></path> <path d="M126.435 70.1724L128.268 68.7569C123.584 62.1169 118.026 56.1381 111.746 50.9816L110.377 52.8613C116.643 57.4327 121.794 64.2086 126.435 70.1724Z" fill="#E0DFE6"></path> <path d="M117.759 35.7584C112.143 28.4952 100.192 22.717 90.9329 26.6155C88.4036 27.6598 85.7116 28.5416 83.2983 29.8179C81.8595 30.7925 80.4904 31.8599 79.1677 32.9505C79.5157 32.5328 77.7756 33.8555 77.1491 34.2268C75.9656 34.923 74.8285 35.712 73.6683 36.5473C73.2738 36.8026 71.3475 38.1253 69.9552 38.8679C68.8645 39.2392 67.7973 39.68 66.7299 40.1442C64.0364 41.2431 61.6136 42.9138 59.6289 45.0406C55.4519 49.8441 52.435 56.8057 54.802 63.2568C64.6643 89.943 107.2 87.2511 119.777 64.0921C122.249 59.6898 123.377 54.6588 123.018 49.6225C122.659 44.5861 120.83 39.7658 117.759 35.7584Z" fill="#D7DCE0"></path> <path d="M82.7385 3.48065C87.3281 3.48065 91.8145 4.84162 95.6306 7.39146C99.4467 9.9413 102.421 13.5655 104.177 17.8057C105.934 22.0459 106.393 26.7118 105.498 31.2132C104.603 35.7146 102.392 39.8495 99.1471 43.0948C95.9018 46.3401 91.7671 48.5502 87.2657 49.4456C82.7643 50.3409 78.0988 49.8815 73.8586 48.1251C69.6183 46.3687 65.9937 43.3944 63.4439 39.5783C60.894 35.7622 59.5331 31.2756 59.5331 26.686C59.5331 20.5316 61.978 14.6293 66.3298 10.2774C70.6817 5.92555 76.584 3.48065 82.7385 3.48065Z" fill="white"></path> <path d="M82.7209 53.3723C77.4429 53.3723 72.2837 51.8072 67.8952 48.8749C63.5067 45.9425 60.0862 41.7748 58.0664 36.8985C56.0465 32.0223 55.5178 26.6565 56.5475 21.4799C57.5772 16.3033 60.1191 11.5483 63.8513 7.81616C67.5834 4.08403 72.3384 1.54247 77.515 0.512778C82.6916 -0.516915 88.0571 0.0115677 92.9334 2.03138C97.8096 4.0512 101.978 7.47158 104.91 11.8601C107.842 16.2486 109.407 21.4081 109.407 26.6861C109.401 33.7619 106.588 40.5461 101.584 45.5494C96.5811 50.5527 89.7967 53.3662 82.7209 53.3723ZM82.7209 6.96154C78.8198 6.96154 75.0067 8.11833 71.763 10.2857C68.5193 12.4531 65.9912 15.5337 64.4983 19.1379C63.0053 22.742 62.6143 26.708 63.3754 30.5342C64.1365 34.3604 66.0154 37.875 68.7739 40.6336C71.5324 43.3921 75.0468 45.2706 78.873 46.0317C82.6992 46.7928 86.6653 46.4021 90.2695 44.9092C93.8737 43.4163 96.9543 40.8882 99.1216 37.6445C101.289 34.4008 102.446 30.5873 102.446 26.6861C102.439 21.4567 100.359 16.4433 96.6617 12.7456C92.964 9.04786 87.9503 6.96768 82.7209 6.96154Z" fill="#3A3A3A"></path> </svg> 