<?xml version="1.0" encoding="UTF-8"?> <svg xmlns="http://www.w3.org/2000/svg" width="166" height="113" viewBox="0 0 166 113" fill="none"> <path d="M143.297 76.3217L145.037 77.8533C136.173 88.0405 127.1 99.0166 117.516 111.153C116.472 111.153 115.451 111.315 114.406 111.362C124.478 98.5756 134.015 87.0426 143.297 76.3217Z" fill="#E0DFE6"></path> <path d="M149.811 75.8585C155.009 75.7193 162.76 75.4175 162.76 75.4175C162.458 76.2064 162.156 76.9954 161.831 77.738L149.881 78.1326L149.811 75.8585Z" fill="#E0DFE6"></path> <path d="M156.738 87.4373L155.531 89.2241L155.74 87.3443L156.738 87.4373Z" fill="#E0DFE6"></path> <path d="M150.687 91.893C147.369 95.3739 144.003 99.1563 140.43 103.496C138.702 104.575 136.912 105.552 135.069 106.42C140.012 100.224 144.537 95.026 148.993 90.3617L150.687 91.893Z" fill="#E0DFE6"></path> <path d="M123.621 66.4599L156.596 23.7619C157.06 24.4349 157.524 25.1079 157.942 25.804L125.454 67.8754L123.621 66.4599Z" fill="#E0DFE6"></path> <path d="M146.063 55.9714C148.871 52.9083 151.771 49.7292 154.324 46.4341C156.877 43.1389 159.661 39.8669 162.469 36.8502L163.467 37.7785C163.583 38.1266 163.699 38.4978 163.792 38.8458C161.147 41.7233 158.385 44.9489 156.157 47.8495C153.535 51.2375 150.611 54.44 147.78 57.5263C144.949 60.6126 142.072 63.7685 139.519 67.0869C138.475 68.4328 137.547 69.709 136.712 71.0085L134.762 69.7324C135.644 68.3864 136.595 67.0637 137.686 65.6714C140.308 62.3995 143.232 59.081 146.063 55.9714Z" fill="#E0DFE6"></path> <path d="M108.922 66.2052L107.228 64.6271C111.057 60.4965 115.026 55.786 119.319 50.2399C123.612 44.6938 127.928 38.6371 132.035 32.9286C136.143 27.2201 140.412 21.3259 144.752 15.687C145.494 14.7124 146.214 13.8306 146.933 12.9023C147.513 13.4129 148.093 13.9235 148.65 14.4572C147.977 15.3158 147.281 16.1743 146.585 17.1025C142.269 22.695 138.022 28.5893 133.915 34.2978C129.807 40.0063 125.514 45.9004 121.152 51.6554C116.789 57.4103 112.821 62.0282 108.922 66.2052Z" fill="#E0DFE6"></path> <path d="M132.567 15.756C129.11 20.2114 115.674 38.2883 112.216 42.767C106.522 50.262 100.425 57.4432 93.9533 64.2785L92.2826 62.6772C98.6999 55.9037 104.742 48.7845 110.383 41.3515C113.817 36.896 127.276 18.7958 130.734 14.3404C133.055 11.3933 135.143 8.70153 137.232 6.14893C137.928 6.52022 138.601 6.91473 139.273 7.33243C137.023 9.93143 134.911 12.7161 132.567 15.756Z" fill="#E0DFE6"></path> <path d="M109.512 24.0168C99.6958 36.7102 89.207 50.7727 76.4904 68.2927L74.6112 66.9234C87.351 49.4033 97.8166 35.3177 107.656 22.6012C113.596 14.9434 119.258 7.74979 124.851 0.904204L127.171 1.67002C121.486 8.70125 115.615 16.1038 109.512 24.0168Z" fill="#E0DFE6"></path> <path d="M164.733 68.5714C164.617 68.8034 164.478 69.0353 164.385 69.2442L162.251 68.3162C163.169 66.5013 164.324 64.8158 165.685 63.3037C165.453 65.0673 165.128 66.831 164.733 68.5714Z" fill="#E0DFE6"></path> <path d="M162.403 55.1826C157.994 60.1949 152.982 65.9034 149.687 70.1732L147.853 68.7577C151.195 64.4183 156.23 58.7097 160.663 53.6509L165.304 48.2905L165.814 48.7314C165.814 49.4972 165.954 50.263 166 51.0519L162.403 55.1826Z" fill="#E0DFE6"></path> <path d="M104.546 110.527V110.852H104.082C101.622 111.641 99.1389 112.314 96.6328 112.894H55.118L53.6331 112.523V110.573L104.546 110.527Z" fill="#E0DFE6"></path> <path d="M41.4188 104.679L43.2056 106.141L42.5558 107C42.2541 107.348 41.9522 107.742 41.6505 108.113C40.9079 107.789 40.2351 107.394 39.5158 107.046C40.1191 106.234 40.769 105.422 41.4188 104.679Z" fill="#E0DFE6"></path> <path d="M16.0243 78.6429L8.08767 78.2251C7.60036 77.4361 7.11336 76.6703 6.67246 75.9045L16.1631 76.4153L16.0243 78.6429Z" fill="#E0DFE6"></path> <path d="M33.1773 76.3217L34.9177 77.8533C30.3694 83.0977 25.7283 88.5586 20.9944 94.2362C20.4143 93.7024 19.8806 93.1456 19.3237 92.6119C24.0576 86.9962 28.629 81.5661 33.1773 76.3217Z" fill="#E0DFE6"></path> <path d="M29.3078 100.967C32.603 97.0454 35.7586 93.5414 38.8681 90.2927L40.5388 91.8937C37.4989 95.0729 34.4358 98.5072 31.2567 102.313C30.5605 101.849 29.9575 101.408 29.3078 100.967Z" fill="#E0DFE6"></path> <path d="M43.9413 87.3443C48.0893 87.78 52.2693 87.8268 56.4261 87.4837C58.7466 87.4837 61.0669 87.2049 64.3389 87.2049C69.4209 87.2049 89.8652 86.8338 94.8775 86.8338C103.401 86.7729 111.922 87.168 120.403 88.0173L120.171 90.3379C111.782 89.4984 103.355 89.1111 94.924 89.1776C89.842 89.1776 69.3977 89.5487 64.3853 89.5487C61.299 89.5487 58.9092 89.6879 56.5886 89.8271C52.3084 90.1818 48.0043 90.1353 43.7328 89.6881L43.9413 87.3443Z" fill="#E0DFE6"></path> <path d="M82.3858 100.363C76.0044 100.572 69.3911 100.804 62.9168 100.804C56.4425 100.804 50.8728 100.572 45.7444 100.108L45.9535 97.7872C51.0123 98.2513 56.5817 98.4602 62.9168 98.4602C69.2518 98.4602 75.9347 98.228 82.3162 98.0192C88.6976 97.8103 95.2418 97.5784 101.67 97.5784C105.197 97.5784 108.422 97.5783 111.485 97.7872V100.108H110.511C107.75 100.108 104.872 99.9454 101.716 99.9454C95.2882 99.9222 88.7209 100.131 82.3858 100.363Z" fill="#E0DFE6"></path> <path d="M38.0395 75.8577C43.2375 75.7185 47.3212 75.5559 50.918 75.4167C58.9703 75.115 64.8416 74.9062 76.2355 74.9062C94.939 74.9062 111.6 75.347 127.171 76.2753L127.032 78.5958C111.507 77.6908 94.8926 77.25 76.2355 77.25C64.8184 77.25 59.0168 77.4588 51.0109 77.7604C47.3677 77.8997 43.3072 78.0623 38.1092 78.2015L38.0395 75.8577Z" fill="#E0DFE6"></path> <path d="M63.9484 34.5523H59.3073V32.2318H63.9484C71.9146 31.9649 79.8897 32.1974 87.8268 32.9279L87.4784 35.2485C79.6564 34.5391 71.7987 34.3066 63.9484 34.5523Z" fill="#E0DFE6"></path> <path d="M73.5921 56.2492C71.9214 56.2492 70.4828 56.2492 69.1369 56.2492C67.8074 56.1796 66.4752 56.1796 65.1456 56.2492L65.0063 53.9287C66.4682 53.9287 67.8143 53.9287 69.2298 53.9287C70.6453 53.9287 71.9213 53.9287 73.5457 53.9287C75.0444 53.8229 76.5492 53.8229 78.048 53.9287L77.8157 56.2492C76.4091 56.1666 74.9987 56.1666 73.5921 56.2492Z" fill="#E0DFE6"></path> <path d="M73.4034 25.6415C68.1861 25.0889 62.9342 24.9339 57.6934 25.1775L57.5075 22.857C62.8798 22.6119 68.2627 22.7669 73.6119 23.321C77.348 23.6459 81.2004 23.9708 84.9829 23.9708C88.5245 24.0044 92.0587 23.6385 95.5182 22.8801L96.0287 25.2006C92.4049 26.0182 88.6975 26.4076 84.9829 26.3609C81.1076 26.2913 77.1859 25.9664 73.4034 25.6415Z" fill="#E0DFE6"></path> <path d="M78.7569 44.3451C77.968 44.3451 77.2718 44.3451 76.4364 44.3451C73.5357 44.3451 65.0658 44.3451 62.5132 44.3451V42.0246C64.9497 42.0246 73.3272 42.0246 76.2047 42.0246C77.0169 42.0246 77.7826 42.0246 78.5252 42.0246C79.2678 42.0246 80.8457 42.1638 82.4933 42.0246V44.3451H81.1472C80.4742 44.438 79.5691 44.3916 78.7569 44.3451Z" fill="#E0DFE6"></path> <path d="M110.465 2.66896C107.703 2.66896 104.826 2.5065 101.67 2.5065C96.1468 2.5065 90.508 2.669 84.9851 2.85464C87.5216 1.82357 90.1266 0.97055 92.7818 0.301963C95.7521 0.301963 98.7226 0.185964 101.67 0.185964C105.197 0.185964 108.422 0.186027 111.485 0.394875V2.71541L110.465 2.66896Z" fill="#E0DFE6"></path> <path d="M58.8366 25.6684L60.6698 27.0839L26.3008 71.5946L24.4676 70.1791L58.8366 25.6684Z" fill="#E0DFE6"></path> <path d="M53.6615 13.0417H104.574V15.3622H53.6615V13.0417Z" fill="#E0DFE6"></path> <path d="M45.7428 2.6445L45.9519 0.323963C51.0107 0.78807 56.5801 0.996868 62.9152 0.996868H68.2758C70.5963 1.60021 72.9168 2.29638 75.2374 3.17818C71.1068 3.17818 66.9528 3.38709 62.8455 3.38709C56.5104 3.34068 50.8712 3.10861 45.7428 2.6445Z" fill="#E0DFE6"></path> <path d="M21.9071 32.9279C26.0145 27.2193 30.2616 21.3252 34.601 15.6863C36.9215 12.5768 39.242 9.79206 41.5626 7.21626L43.3494 8.67821L42.6996 9.5368C40.7504 11.8573 38.7544 14.3636 36.5963 17.125C32.2801 22.7175 28.0568 28.6118 23.9495 34.3203C19.8421 40.0288 15.5491 45.9229 11.1865 51.6779C7.82174 56.0173 4.66551 59.8694 1.6024 63.2806C1.32394 62.3755 1.09231 61.4704 0.883465 60.5654C3.59849 57.4559 6.38289 54.068 9.32998 50.2391C13.5302 44.6002 17.7998 38.6596 21.9071 32.9279Z" fill="#E0DFE6"></path> <path d="M22.4636 15.7559C19.006 20.2114 0.696507 44.577 0.000343926 45.4588C0.190019 43.8296 0.461315 42.2109 0.812761 40.6088C4.08472 36.3854 17.1726 18.7957 20.607 14.3403C23.5309 10.581 26.2455 7.16984 28.8677 4.03711C30.4828 3.16432 32.1492 2.38941 33.8572 1.71657C30.3068 5.87034 26.5477 10.4651 22.4636 15.7559Z" fill="#E0DFE6"></path> <path d="M26.586 71.008L24.6371 69.7319C25.5189 68.4092 26.4704 67.0633 27.561 65.671C28.6517 64.2786 32.7358 59.5678 37.3769 54.2306C43.1086 47.6634 49.606 40.3073 51.8105 37.3834L53.6438 38.7991C51.3233 41.6997 44.8954 49.1719 39.1405 55.7622C34.685 60.8442 30.5082 65.6245 29.3943 67.0864C28.2805 68.5484 27.4214 69.7317 26.586 71.008Z" fill="#E0DFE6"></path> <path d="M68.7677 64.4879C69.4693 64.4076 70.1775 64.4076 70.8791 64.4879L70.4384 66.8084C69.9295 66.7503 69.4153 66.7503 68.9065 66.8084H67.9785C67.2899 66.8166 66.606 66.6986 65.9599 66.4603L66.8182 64.3021C67.4499 64.4891 68.112 64.5524 68.7677 64.4879Z" fill="#E0DFE6"></path> <path d="M60.4452 58.7558L62.0463 60.4499C60.3572 62.0419 58.869 63.8341 57.6142 65.7869C56.8485 66.924 55.9899 68.1075 54.7136 69.8247L52.8803 68.4092C54.1101 66.8312 54.9687 65.5782 55.7112 64.4876C57.0518 62.3927 58.6414 60.468 60.4452 58.7558Z" fill="#E0DFE6"></path> <path d="M39.565 70.1724L37.7316 68.7569C42.4161 62.1169 47.9737 56.1381 54.2541 50.9816L55.6229 52.8613C49.3574 57.4327 44.206 64.2086 39.565 70.1724Z" fill="#E0DFE6"></path> <path d="M48.2415 35.7584C53.8572 28.4952 65.8081 22.717 75.0671 26.6155C77.5964 27.6598 80.2884 28.5416 82.7017 29.8179C84.1405 30.7925 85.5096 31.8599 86.8323 32.9505C86.4843 32.5328 88.2244 33.8555 88.8509 34.2268C90.0344 34.923 91.1715 35.712 92.3317 36.5473C92.7262 36.8026 94.6525 38.1253 96.0448 38.8679C97.1355 39.2392 98.2027 39.68 99.2701 40.1442C101.964 41.2431 104.386 42.9138 106.371 45.0406C110.548 49.8441 113.565 56.8057 111.198 63.2568C101.336 89.943 58.8002 87.2511 46.2229 64.0921C43.7505 59.6898 42.6235 54.6588 42.9823 49.6225C43.3412 44.5861 45.1699 39.7658 48.2415 35.7584Z" fill="#D7DCE0"></path> <path d="M83.2615 3.48065C78.6719 3.48065 74.1855 4.84162 70.3694 7.39146C66.5533 9.9413 63.579 13.5655 61.8226 17.8057C60.0663 22.0459 59.6066 26.7118 60.502 31.2132C61.3974 35.7146 63.6076 39.8495 66.8529 43.0948C70.0982 46.3401 74.2329 48.5502 78.7343 49.4456C83.2357 50.3409 87.9012 49.8815 92.1414 48.1251C96.3817 46.3687 100.006 43.3944 102.556 39.5783C105.106 35.7622 106.467 31.2756 106.467 26.686C106.467 20.5316 104.022 14.6293 99.6702 10.2774C95.3183 5.92555 89.416 3.48065 83.2615 3.48065Z" fill="white"></path> <path d="M83.2791 53.3723C88.5571 53.3723 93.7163 51.8072 98.1048 48.8749C102.493 45.9425 105.914 41.7748 107.934 36.8985C109.953 32.0223 110.482 26.6565 109.453 21.4799C108.423 16.3033 105.881 11.5483 102.149 7.81616C98.4166 4.08403 93.6616 1.54247 88.485 0.512778C83.3084 -0.516915 77.9429 0.0115677 73.0666 2.03138C68.1904 4.0512 64.0224 7.47158 61.09 11.8601C58.1577 16.2486 56.5929 21.4081 56.5929 26.6861C56.599 33.7619 59.4123 40.5461 64.4156 45.5494C69.4189 50.5527 76.2033 53.3662 83.2791 53.3723ZM83.2791 6.96154C87.1802 6.96154 90.9933 8.11833 94.237 10.2857C97.4807 12.4531 100.009 15.5337 101.502 19.1379C102.995 22.742 103.386 26.708 102.625 30.5342C101.864 34.3604 99.9846 37.875 97.2261 40.6336C94.4676 43.3921 90.9532 45.2706 87.127 46.0317C83.3008 46.7928 79.3347 46.4021 75.7305 44.9092C72.1263 43.4163 69.0457 40.8882 66.8784 37.6445C64.711 34.4008 63.5545 30.5873 63.5545 26.6861C63.5606 21.4567 65.6405 16.4433 69.3383 12.7456C73.036 9.04786 78.0497 6.96768 83.2791 6.96154Z" fill="#3A3A3A"></path> </svg> 