<?xml version="1.0" encoding="UTF-8"?> <svg xmlns="http://www.w3.org/2000/svg" width="127" height="146" viewBox="0 0 127 146" fill="none"> <path d="M123.234 38.222V107.2L63.5142 141.677V72.7237L123.234 38.222Z" fill="#3A3A3A"></path> <path d="M123.242 38.2219L63.5229 72.7237L3.80364 38.2219L63.5229 3.74535L123.242 38.2219Z" fill="white"></path> <path d="M63.5229 72.7237V141.677L3.80364 107.2V38.222L63.5229 72.7237Z" fill="#D7DCE0"></path> <path d="M63.5127 76.4873C62.8527 76.4845 62.2045 76.3118 61.6308 75.9855L1.8862 41.5089C1.31289 41.1789 0.836824 40.7036 0.505702 40.1309C0.174581 39.5582 0 38.9084 0 38.2468C0 37.5853 0.174581 36.9355 0.505702 36.3628C0.836824 35.7901 1.31289 35.3148 1.8862 34.9847L61.6308 0.508153C62.2021 0.175332 62.8515 0 63.5127 0C64.1739 0 64.8233 0.175332 65.3946 0.508153L125.114 34.9847C125.687 35.3148 126.163 35.7901 126.495 36.3628C126.826 36.9355 127 37.5853 127 38.2468C127 38.9084 126.826 39.5582 126.495 40.1309C126.163 40.7036 125.687 41.1789 125.114 41.5089L65.3946 75.9855C64.8184 76.3057 64.1718 76.478 63.5127 76.4873ZM11.2958 38.2468L63.5127 68.3574L115.704 38.2468L63.5127 8.13626L11.2958 38.2468Z" fill="#3A3A3A"></path> <path d="M63.5084 145.441C62.8468 145.45 62.1955 145.277 61.6265 144.939L1.88191 110.462C1.31109 110.13 0.837042 109.654 0.506928 109.082C0.176813 108.509 0.00210134 107.861 0 107.2V38.247C0 37.2488 0.396522 36.2915 1.10238 35.5856C1.80823 34.8797 2.76559 34.4832 3.76382 34.4832C4.76205 34.4832 5.71942 34.8797 6.42527 35.5856C7.13112 36.2915 7.52765 37.2488 7.52765 38.247V105.042L63.5084 137.336L119.464 105.042V38.247C119.464 37.2488 119.86 36.2915 120.566 35.5856C121.272 34.8797 122.229 34.4832 123.228 34.4832C124.226 34.4832 125.183 34.8797 125.889 35.5856C126.595 36.2915 126.991 37.2488 126.991 38.247V107.2C126.989 107.861 126.815 108.509 126.484 109.082C126.154 109.654 125.68 110.13 125.109 110.462L65.3903 144.939C64.8188 145.271 64.1692 145.444 63.5084 145.441Z" fill="#3A3A3A"></path> </svg> 