<?xml version="1.0" encoding="UTF-8"?> <svg xmlns="http://www.w3.org/2000/svg" width="106" height="111" viewBox="0 0 106 111" fill="none"> <path d="M52.8541 3.87502L101.93 78.8627L52.8541 107.219V3.87502Z" fill="#3A3A3A"></path> <path d="M52.8425 3.87502V107.219L3.74134 78.8627L52.8425 3.87502Z" fill="white"></path> <path d="M52.8188 111C52.1527 110.995 51.4999 110.813 50.9284 110.471L1.90293 82.1645C1.4418 81.8967 1.04334 81.5332 0.73463 81.0984C0.425915 80.6636 0.213911 80.1676 0.113096 79.644C-0.0135616 79.1486 -0.0340867 78.6322 0.0527891 78.1283C0.139665 77.6244 0.332166 77.1443 0.6174 76.72L49.6681 1.78277C49.8968 1.43178 50.1771 1.11737 50.4997 0.85016L51.004 0.49724C51.6154 0.145013 52.3159 -0.0212631 53.0203 0.018475C53.2886 -0.00615835 53.5588 -0.00615835 53.8271 0.018475C54.728 0.261128 55.5084 0.826249 56.02 1.60646L105.146 76.6194C105.424 77.0515 105.611 77.5352 105.696 78.0415C105.782 78.5478 105.764 79.0663 105.644 79.5655C105.524 80.0647 105.304 80.5344 104.997 80.9464C104.691 81.3584 104.304 81.7043 103.861 81.963L54.8354 110.269C54.2545 110.611 53.5937 110.794 52.9197 110.798L52.8188 111ZM56.5997 16.5786V100.691L96.5763 77.6021L56.5997 16.5786ZM9.01087 77.6021L48.9622 100.666V16.5786L9.01087 77.6021Z" fill="#3A3A3A"></path> </svg> 