<?xml version="1.0" encoding="UTF-8"?> <svg xmlns="http://www.w3.org/2000/svg" width="551" height="636" viewBox="0 0 551 636" fill="none"> <path d="M71.3763 165.256H19.0098V167.643H71.3763V165.256Z" fill="#E0DFE6"></path> <path d="M86.3019 207.454C86.7316 206.738 87.209 206.046 87.6148 205.33C85.944 203.468 84.321 201.559 82.8412 199.602C80.4544 196.427 77.3276 192.847 74.4396 189.744L72.6973 191.367C75.5376 194.422 78.5448 197.955 80.9555 201.057C82.6501 203.253 84.488 205.378 86.3019 207.454Z" fill="#E0DFE6"></path> <path d="M62.0357 194.995C59.6489 194.995 50.9131 194.995 47.9535 194.995C47.1181 194.995 46.3305 194.995 45.5667 194.995C44.8029 194.995 43.18 195.139 41.4854 194.995V197.382H42.8699C44.0156 197.382 44.9463 197.382 45.7817 197.382C46.6171 197.382 47.3093 197.382 48.1685 197.382C51.152 197.382 59.8638 197.382 62.4893 197.382L62.0357 194.995Z" fill="#E0DFE6"></path> <path d="M84.5184 161.627C86.5472 164.014 88.5999 166.592 90.7957 169.432C92.562 171.819 94.3042 174.062 96.0227 176.402C96.0227 175.089 96.0227 173.752 96.0227 172.392C94.9248 170.912 93.8268 169.432 92.705 167.976C90.3182 164.778 87.9315 161.914 85.688 159.264L83.8262 160.768L84.5184 161.651V161.627Z" fill="#E0DFE6"></path> <path d="M91.5475 151.579C90.5652 149.235 89.3918 146.976 88.0389 144.824L86.583 146.208C88.2299 147.808 89.8767 149.598 91.5475 151.579Z" fill="#E0DFE6"></path> <path d="M56.4101 220.557C57.6585 220.663 58.916 220.566 60.1336 220.271L59.4652 217.884C58.5024 218.099 57.5121 218.163 56.5295 218.075C55.6085 217.993 54.6818 217.993 53.7607 218.075L54.1188 220.462C54.8839 220.422 55.6509 220.455 56.4101 220.557Z" fill="#E0DFE6"></path> <path d="M65.6217 184.994H60.8481C52.6544 184.72 44.4518 184.959 36.2881 185.71L36.6459 188.097C44.6838 187.376 52.7582 187.145 60.8242 187.405H65.5978L65.6217 184.994Z" fill="#E0DFE6"></path> <path d="M55.4582 209.649C56.8257 209.578 58.1962 209.578 59.5637 209.649L59.7068 207.263C58.2031 207.263 56.8189 207.263 55.3629 207.263C53.907 207.263 52.594 207.263 50.9232 207.263C49.3817 207.154 47.8345 207.154 46.293 207.263L46.5316 209.649C47.9783 209.564 49.429 209.564 50.8757 209.649C52.5942 209.721 54.0739 209.697 55.4582 209.649Z" fill="#E0DFE6"></path> <path d="M39.2059 176.496C35.5632 176.531 31.9281 176.155 28.3698 175.375L27.8447 177.761C31.5749 178.583 35.3867 178.975 39.2059 178.931C43.1919 178.931 47.2256 178.597 51.1399 178.263C56.5063 177.694 61.9081 177.535 67.2986 177.785L67.4895 175.399C61.9638 175.146 56.4272 175.306 50.9252 175.876C47.0586 176.162 43.0964 176.496 39.2059 176.496Z" fill="#E0DFE6"></path> <path d="M65.8369 212.132L64.5957 214.161C67.8495 216.507 70.5399 219.548 72.472 223.063L73.9043 222.443L74.5246 221.846C72.3937 217.997 69.4247 214.678 65.8369 212.132Z" fill="#E0DFE6"></path> <path d="M76.308 207.024C74.5418 205.019 72.871 203.134 71.5344 201.511L69.7207 203.086C71.1289 204.709 78.5517 213.135 80.5327 215.45L82.0364 213.54C80.1031 211.249 78.1459 209.125 76.308 207.024Z" fill="#E0DFE6"></path> <path d="M79.122 174.325L77.2363 175.805L92.4403 195.472C92.7744 194.589 93.0847 193.706 93.3711 192.799L79.122 174.325Z" fill="#E0DFE6"></path> <path d="M71.3763 65.0099H19.0098V67.3967H71.3763V65.0099Z" fill="#E0DFE6"></path> <path d="M50.9013 75.5835C47.0586 75.9176 43.0964 76.2516 39.2059 76.2516C35.5632 76.2862 31.9281 75.9099 28.3698 75.1298L27.8447 77.5166C29.1336 77.8031 30.47 78.018 31.8544 78.2089H34.0265C45.2147 78.4467 56.4009 77.6477 67.4417 75.8221V75.1776C61.9257 74.9029 56.3972 75.0386 50.9013 75.5835Z" fill="#E0DFE6"></path> <path d="M102.241 64.0079C102.957 63.626 103.672 63.2678 104.365 62.862C99.3255 56.3835 93.9644 50.1622 88.3014 44.2213L86.583 45.868C91.5714 51.0474 96.6077 56.8953 102.241 64.0079Z" fill="#E0DFE6"></path> <path d="M115.423 55.2719C108.12 46.2498 101.103 37.8483 94.1812 29.9002L92.3672 31.4756C99.2651 39.3759 106.258 47.7535 113.514 56.7278C114.135 56.2505 114.779 55.797 115.423 55.2719Z" fill="#E0DFE6"></path> <path d="M48.6971 120.55C47.7901 120.55 46.8831 120.359 46 120.287L47.0503 121.743L48.6971 120.55Z" fill="#E0DFE6"></path> <path d="M92.6799 67.7308C90.2931 64.5324 87.9062 61.6682 85.6626 59.0189L83.8008 60.5226L84.4931 61.4057C86.5218 63.7925 88.5745 66.3703 90.7704 69.2106L93.1572 68.2797L92.6799 67.7308Z" fill="#E0DFE6"></path> <path d="M129.013 41.0221C125.05 41.213 121.327 41.4994 117.771 41.8813L118.009 44.2681C120.969 43.9578 124.048 43.719 127.27 43.5281C127.891 42.6927 128.464 41.7859 129.013 41.0221Z" fill="#E0DFE6"></path> <path d="M278.099 521.534C267.668 507.213 258.67 495.064 250.34 484.108L246.426 482.891C255.329 494.515 264.9 507.428 276.165 522.942L278.099 521.534Z" fill="#E0DFE6"></path> <path d="M318.607 523.299C315.17 518.836 309.99 512.964 305.431 507.761C303.665 505.756 301.994 503.871 300.658 502.248L298.844 503.823L303.617 509.337C308.152 514.492 313.308 520.364 316.697 524.755L318.607 523.299Z" fill="#E0DFE6"></path> <path d="M301.595 523.921L303.791 522.966C301.654 519.005 298.632 515.591 294.96 512.989L293.719 515.018C296.973 517.364 299.663 520.405 301.595 523.921Z" fill="#E0DFE6"></path> <path d="M294.745 485.731H289.971C281.778 485.456 273.575 485.695 265.411 486.447L265.769 488.834C273.815 488.113 281.897 487.881 289.971 488.141H294.745V485.731Z" fill="#E0DFE6"></path> <path d="M327.193 521.533C328.267 522.917 329.198 524.23 330.081 525.566L332.086 524.254C331.179 522.87 330.2 521.509 329.078 520.077C326.381 516.592 323.374 513.298 320.462 510.1C317.55 506.902 314.591 503.68 311.965 500.29C309.34 496.901 306.476 493.536 303.588 490.433L301.821 492.056C304.662 495.111 307.669 498.643 310.08 501.746C312.777 505.231 315.784 508.525 318.696 511.699C321.608 514.874 324.567 518.167 327.193 521.533Z" fill="#E0DFE6"></path> <path d="M291.184 495.732C288.678 495.732 280.062 495.732 277.102 495.732C276.267 495.732 275.479 495.732 274.715 495.732C273.951 495.732 272.328 495.875 270.634 495.732V498.119H272.018C273.164 498.119 274.095 498.119 274.93 498.119C275.766 498.119 276.458 498.119 277.317 498.119C280.3 498.119 289.012 498.119 291.638 498.119L291.184 495.732Z" fill="#E0DFE6"></path> <path d="M308.152 475.328L306.263 476.787L341.686 522.651L343.575 521.193L308.152 475.328Z" fill="#E0DFE6"></path> <path d="M375.759 517.047C369.158 510.08 362.943 502.757 357.142 495.112C353.585 490.53 339.766 471.912 336.209 467.33C330.366 459.617 324.103 452.23 317.449 445.204L315.707 446.851C322.308 453.818 328.522 461.14 334.324 468.786C337.88 473.368 351.7 491.962 355.256 496.568C361.106 504.283 367.377 511.669 374.04 518.694L375.759 517.047Z" fill="#E0DFE6"></path> <path d="M393.977 521.534C380.874 503.513 370.109 489.025 359.965 475.946C346.957 459.238 334.976 444.416 323.304 431.002L321.49 432.577C333.138 445.944 345.096 460.599 358.08 477.402C368.176 490.457 378.965 504.921 392.044 522.942L393.977 521.534Z" fill="#E0DFE6"></path> <path d="M358.656 520.674L360.399 519.05C356.46 514.802 352.379 509.957 347.963 504.252C343.547 498.548 339.108 492.318 334.883 486.447C330.659 480.575 326.267 474.513 321.804 468.713C319.417 465.515 317.03 462.65 314.787 460.001L312.925 461.505L313.617 462.388C315.646 464.775 317.698 467.352 319.894 470.193C324.334 475.945 328.702 482.127 332.903 487.879C337.103 493.631 341.543 499.813 346.054 505.732C350.565 511.651 354.647 516.377 358.656 520.674Z" fill="#E0DFE6"></path> <path d="M242.815 520.674L244.558 519.051C240.619 514.827 236.562 509.958 232.122 504.253C227.683 498.549 223.267 492.319 219.043 486.448C215.343 481.316 211.524 476.041 207.634 470.934L203.695 469.669L204.077 470.17C208.517 475.922 212.885 482.104 217.109 487.856C221.334 493.608 225.75 499.79 230.237 505.709C234.724 511.628 238.829 516.378 242.815 520.674Z" fill="#E0DFE6"></path> <path d="M192.309 475.217L190.42 476.676L225.843 522.541L227.732 521.082L192.309 475.217Z" fill="#E0DFE6"></path> <path d="M214.223 525.615L216.228 524.302C215.321 522.942 214.342 521.557 213.221 520.125C212.099 518.693 207.898 513.848 203.1 508.358C197.205 501.603 190.522 494.037 188.278 491.03L186.369 492.486C188.756 495.469 195.391 503.155 201.31 509.933C205.869 515.161 210.189 520.077 211.335 521.581C212.481 523.085 213.364 524.302 214.223 525.615Z" fill="#E0DFE6"></path> <path d="M200.861 524.755L202.746 523.299C197.942 516.465 192.234 510.315 185.776 505.016L184.344 506.949C190.788 511.651 196.087 518.621 200.861 524.755Z" fill="#E0DFE6"></path> <path d="M285.534 521.294C286.782 521.4 288.04 521.303 289.257 521.008L288.589 518.621C287.626 518.836 286.636 518.9 285.653 518.812C284.74 518.729 283.821 518.729 282.908 518.812L283.243 521.199C284.008 521.159 284.775 521.191 285.534 521.294Z" fill="#E0DFE6"></path> <path d="M185.201 524.397L187.111 522.941C185.846 521.318 184.963 520.029 184.199 518.907C182.85 516.758 181.247 514.779 179.425 513.012L177.778 514.754C179.516 516.386 181.039 518.23 182.313 520.244C183.005 521.533 183.912 522.726 185.201 524.397Z" fill="#E0DFE6"></path> <path d="M180.586 485.731H175.812C167.619 485.456 159.416 485.695 151.252 486.447L151.586 488.834C159.632 488.113 167.714 487.882 175.788 488.141H180.562L180.586 485.731Z" fill="#E0DFE6"></path> <path d="M284.607 510.386C285.974 510.315 287.345 510.315 288.712 510.386L288.856 507.999C287.352 507.999 285.967 507.999 284.511 507.999C283.055 507.999 281.742 507.999 280.072 507.999C278.53 507.891 276.983 507.891 275.441 507.999L275.704 510.386C277.143 510.301 278.585 510.301 280.024 510.386C281.742 510.458 283.223 510.434 284.607 510.386Z" fill="#E0DFE6"></path> <path d="M259.918 517.046C253.317 510.079 247.102 502.756 241.301 495.111C237.769 490.529 228.794 478.403 227.768 477.091L223.901 475.921C225.596 478.165 235.835 491.961 239.416 496.567C245.273 504.276 251.543 511.662 258.2 518.693L259.918 517.046Z" fill="#E0DFE6"></path> <path d="M177.001 495.732C174.614 495.732 165.879 495.732 162.919 495.732C162.083 495.732 161.296 495.732 160.532 495.732C159.768 495.732 158.145 495.875 156.475 495.732V498.119H157.835C159.005 498.119 159.935 498.119 160.771 498.119C161.606 498.119 162.298 498.119 163.157 498.119C166.165 498.119 174.877 498.119 177.478 498.119L177.001 495.732Z" fill="#E0DFE6"></path> <path d="M310.637 442.172C306.371 442.62 302.072 442.668 297.796 442.315C295.41 442.315 292.903 442.029 289.657 442.029C284.43 442.029 271.708 441.814 270.563 441.79C269.847 442.554 269.155 443.317 268.486 444.177C270.276 444.177 284.382 444.439 289.633 444.439C292.808 444.439 295.266 444.582 297.653 444.726C302.055 445.09 306.482 445.043 310.876 444.583L310.637 442.172Z" fill="#E0DFE6"></path> <path d="M300.526 466.016H256.537C256.298 466.804 256.06 467.592 255.845 468.403H300.526V466.016Z" fill="#E0DFE6"></path> <path d="M174.598 507.999C173.071 507.999 171.71 507.999 170.255 507.999C168.799 507.999 167.462 507.999 165.815 507.999C164.273 507.891 162.726 507.891 161.185 507.999L161.423 510.386C162.87 510.301 164.321 510.301 165.767 510.386C167.486 510.386 168.965 510.386 170.35 510.386C171.717 510.315 173.088 510.315 174.455 510.386L174.598 507.999Z" fill="#E0DFE6"></path> <path d="M316.619 430.357C311.273 430.213 292.751 429.497 286.092 429.426C284.779 430.142 283.491 430.953 282.226 431.813C290.89 431.813 296.26 432.075 303.277 432.338C307.024 432.481 311.201 432.648 316.548 432.791L316.619 430.357Z" fill="#E0DFE6"></path> <path d="M143.954 444.033H144.765L140.827 441.647C133.126 441.659 125.431 442.057 117.771 442.84L118.009 445.227C126.63 444.364 135.291 443.965 143.954 444.033Z" fill="#E0DFE6"></path> <path d="M308.47 452.937C303.266 453.414 297.538 453.629 291.022 453.629C284.506 453.629 277.632 453.39 271.068 453.175L262.428 452.889C261.975 453.677 261.497 454.44 261.067 455.276C264.409 455.276 267.726 455.467 270.996 455.586C277.56 455.801 284.363 456.04 291.022 456.04C297.681 456.04 303.409 455.801 308.684 455.323L308.47 452.937Z" fill="#E0DFE6"></path> <path d="M268.329 477.234C264.686 477.268 261.051 476.892 257.493 476.112L256.968 478.499C260.698 479.32 264.51 479.713 268.329 479.668C272.315 479.668 276.349 479.334 280.263 479C285.629 478.432 291.031 478.272 296.422 478.523L296.613 476.136C291.087 475.884 285.55 476.044 280.048 476.613C276.181 476.9 272.219 477.234 268.329 477.234Z" fill="#E0DFE6"></path> <path d="M186.366 465.993H133.999V468.38H186.366V465.993Z" fill="#E0DFE6"></path> <path d="M127.971 455.324C130.812 455.324 133.771 455.157 137.017 455.157C143.581 455.157 150.312 455.372 156.852 455.61L167.521 455.945L161.959 453.391L156.923 453.224C150.383 452.985 143.629 452.77 137.017 452.77C133.366 452.77 130.072 452.77 126.897 452.985V455.372L127.971 455.324Z" fill="#E0DFE6"></path> <path d="M170.823 518.908C170.093 518.825 169.357 518.825 168.627 518.908L169.104 521.295C169.628 521.235 170.156 521.235 170.68 521.295H171.634C172.343 521.303 173.046 521.182 173.711 520.937L172.828 518.717C172.178 518.908 171.497 518.973 170.823 518.908Z" fill="#E0DFE6"></path> <path d="M126.305 432.434L122.868 430.047C118.763 430.214 114.729 430.429 110.791 430.668L110.934 433.055C115.93 432.832 121.054 432.625 126.305 432.434Z" fill="#E0DFE6"></path> <path d="M154.169 477.234C150.526 477.27 146.891 476.893 143.333 476.112L142.784 478.499C146.523 479.318 150.342 479.71 154.169 479.668C158.155 479.668 162.165 479.335 166.103 479C171.477 478.432 176.887 478.272 182.286 478.523L182.477 476.136C176.951 475.884 171.414 476.044 165.912 476.614C162.022 476.9 158.059 477.234 154.169 477.234Z" fill="#E0DFE6"></path> <path d="M62.0357 495.732C59.6489 495.732 50.9131 495.732 47.9535 495.732C47.1181 495.732 46.3305 495.732 45.5667 495.732C44.8029 495.732 43.18 495.875 41.4854 495.732V498.119H42.8699C44.0156 498.119 44.9463 498.119 45.7817 498.119C46.6171 498.119 47.3093 498.119 48.1685 498.119C51.152 498.119 59.8638 498.119 62.4893 498.119L62.0357 495.732Z" fill="#E0DFE6"></path> <path d="M55.4582 510.386C56.8257 510.315 58.1962 510.315 59.5637 510.386L59.7068 507.999C58.2031 507.999 56.8189 507.999 55.3629 507.999C53.907 507.999 52.594 507.999 50.9232 507.999C49.3817 507.891 47.8345 507.891 46.293 507.999L46.5316 510.386C47.9783 510.301 49.429 510.301 50.8757 510.386C52.5942 510.458 54.0739 510.434 55.4582 510.386Z" fill="#E0DFE6"></path> <path d="M65.6217 485.731H60.8481C52.6544 485.456 44.4518 485.695 36.2881 486.447L36.6459 488.834C44.6838 488.113 52.7582 487.882 60.8242 488.141H65.5978L65.6217 485.731Z" fill="#E0DFE6"></path> <path d="M56.4101 521.294C57.6585 521.4 58.916 521.303 60.1336 521.008L59.4652 518.621C58.5024 518.836 57.5121 518.9 56.5295 518.812C55.6085 518.729 54.6818 518.729 53.7607 518.812L54.1188 521.199C54.8839 521.159 55.6509 521.191 56.4101 521.294Z" fill="#E0DFE6"></path> <path d="M14.9881 475.826C10.2145 469.644 5.44097 463.749 1.02539 458.092C1.38341 459.93 1.83671 461.744 2.31407 463.558C5.84653 467.973 9.47449 472.532 13.0786 477.282C23.1747 490.362 33.9633 504.826 47.043 522.822L48.9762 521.414C35.8965 503.393 25.0843 488.906 14.9881 475.826Z" fill="#E0DFE6"></path> <path d="M146.635 517.047C140.034 510.08 133.819 502.757 128.018 495.112C124.462 490.53 110.642 471.912 107.086 467.33C101.242 459.61 94.9705 452.223 88.3014 445.204L86.583 446.851C93.1837 453.818 99.3987 461.14 105.2 468.786C108.757 473.368 122.576 491.962 126.132 496.568C131.982 504.276 138.245 511.663 144.893 518.694L146.635 517.047Z" fill="#E0DFE6"></path> <path d="M87.4763 430.357C82.1299 430.214 77.929 430.047 74.2295 429.904C65.9473 429.593 59.9089 429.379 48.1897 429.379C30.7899 429.379 15.1325 429.76 0.453644 430.524C0.286568 431.312 0.143208 432.123 0 432.911C14.822 432.123 30.6467 431.741 48.2136 431.741C59.9566 431.741 65.9236 431.956 74.1581 432.266C77.9054 432.41 82.0821 432.577 87.4286 432.72L87.4763 430.357Z" fill="#E0DFE6"></path> <path d="M81.5249 442.171C77.2584 442.619 72.9593 442.667 68.6839 442.314C66.2971 442.314 63.9102 442.028 60.5448 442.028C55.3177 442.028 34.2902 441.646 29.1347 441.646C20.3677 441.583 11.6035 441.99 2.87988 442.863L3.11851 445.25C11.747 444.387 20.4156 443.988 29.0869 444.057C34.314 444.057 55.3415 444.438 60.497 444.438C63.6715 444.438 66.1301 444.582 68.5169 444.725C72.9194 445.09 77.3461 445.042 81.7396 444.582L81.5249 442.171Z" fill="#E0DFE6"></path> <path d="M164.854 521.534C151.751 503.513 140.986 489.025 130.842 475.946C117.834 459.238 105.853 444.416 94.1812 431.002L92.3672 432.577C104.015 445.944 115.973 460.599 128.957 477.402C139.029 490.457 149.841 504.921 162.921 522.942L164.854 521.534Z" fill="#E0DFE6"></path> <path d="M79.3369 452.937C74.1336 453.414 68.4055 453.629 61.8895 453.629C55.3735 453.629 48.4996 453.39 41.9359 453.175C35.3722 452.96 28.6412 452.722 22.0297 452.722C18.3779 452.722 15.0842 452.722 11.9336 452.937V455.323H12.9362C15.7765 455.323 18.7362 455.156 21.9822 455.156C28.5459 455.156 35.3004 455.371 41.8164 455.61C48.3324 455.848 55.1825 456.063 61.8417 456.063C68.5009 456.063 74.2293 455.825 79.5041 455.347L79.3369 452.937Z" fill="#E0DFE6"></path> <path d="M51.116 478.952C56.4824 478.384 61.8842 478.224 67.2747 478.475L67.4656 476.088C61.9399 475.836 56.4033 475.996 50.9013 476.566C47.0586 476.9 43.0964 477.234 39.2059 477.234C35.5632 477.268 31.9281 476.892 28.3698 476.112L27.8447 478.499C31.5749 479.32 35.3867 479.713 39.2059 479.668C43.1919 479.62 47.2256 479.286 51.116 478.952Z" fill="#E0DFE6"></path> <path d="M72.472 523.921L74.6679 522.966C72.5306 519.005 69.5086 515.591 65.8369 512.989L64.5957 515.018C67.8495 517.364 70.5399 520.405 72.472 523.921Z" fill="#E0DFE6"></path> <path d="M71.3763 465.993H19.0098V468.38H71.3763V465.993Z" fill="#E0DFE6"></path> <path d="M84.5169 462.364C86.5457 464.751 88.5984 467.328 90.7942 470.169C95.2337 475.921 99.6014 482.103 103.802 487.855C108.003 493.607 112.442 499.789 116.953 505.708C121.465 511.628 125.522 516.377 129.532 520.674L131.274 519.05C127.336 514.802 123.255 509.957 118.839 504.252C114.424 498.548 109.984 492.318 105.76 486.447C101.535 480.575 97.1432 474.513 92.6799 468.713C90.2931 465.515 87.9062 462.65 85.6626 460.001L83.8008 461.505L84.4931 462.388L84.5169 462.364Z" fill="#E0DFE6"></path> <path d="M79.0033 475.328L77.1143 476.787L112.537 522.651L114.426 521.193L79.0033 475.328Z" fill="#E0DFE6"></path> <path d="M98.069 521.533C99.143 522.917 100.074 524.23 100.957 525.566L102.938 524.254C102.055 522.87 101.076 521.509 99.9544 520.077C97.2573 516.592 94.2499 513.298 91.338 510.1C88.4261 506.902 85.4667 503.68 82.8412 500.29C80.2157 496.901 77.3276 493.536 74.4396 490.433L72.6973 492.056C75.5376 495.111 78.5448 498.643 80.9555 501.746C83.6526 505.231 86.6599 508.525 89.5718 511.699C92.4837 514.874 95.4435 518.167 98.069 521.533Z" fill="#E0DFE6"></path> <path d="M89.4832 523.299C86.0462 518.836 80.8668 512.964 76.308 507.761C74.5418 505.756 72.871 503.871 71.5344 502.248L69.7207 503.823C71.1289 505.446 72.7758 507.332 74.4943 509.337C79.0292 514.492 84.1847 520.364 87.5739 524.755L89.4832 523.299Z" fill="#E0DFE6"></path> <path d="M318.608 423.053L317.056 421.072L314.12 421.287C315.075 422.409 315.958 423.507 316.722 424.509L318.608 423.053Z" fill="#E0DFE6"></path> <path d="M302.578 423.126L301.504 423.365V423.555L302.578 423.126Z" fill="#E0DFE6"></path> <path d="M327.197 421.287C328.272 422.672 329.202 423.984 330.085 425.321L332.091 424.008C331.494 423.125 330.873 422.218 330.205 421.335L327.055 421.12L327.197 421.287Z" fill="#E0DFE6"></path> <path d="M55.4582 410.141C56.8257 410.069 58.1962 410.069 59.5637 410.141L59.7068 407.754C58.2031 407.754 56.8189 407.754 55.3629 407.754C53.907 407.754 52.594 407.754 50.9232 407.754C49.3817 407.645 47.8345 407.645 46.293 407.754L46.5316 410.141C47.9783 410.056 49.429 410.056 50.8757 410.141C52.5942 410.213 54.0739 410.189 55.4582 410.141Z" fill="#E0DFE6"></path> <path d="M56.4101 421.049C57.6585 421.154 58.916 421.058 60.1336 420.762L59.4652 418.376C58.5024 418.591 57.5121 418.655 56.5295 418.566C55.6085 418.484 54.6818 418.484 53.7607 418.566L54.1188 420.953C54.8839 420.914 55.6509 420.946 56.4101 421.049Z" fill="#E0DFE6"></path> <path d="M98.0444 421.288C99.1184 422.672 100.049 423.985 100.932 425.321L102.913 424.009C102.03 422.624 101.052 421.264 99.9297 419.832C97.2326 416.347 94.2253 413.053 91.3134 409.855L88.2821 406.513C86.3727 405.392 84.4156 404.341 82.4346 403.315C84.8214 406.131 87.2082 408.852 89.595 411.454C92.4353 414.676 95.4189 417.922 98.0444 421.288Z" fill="#E0DFE6"></path> <path d="M89.4832 423.054C86.0462 418.591 80.8668 412.719 76.308 407.516C74.5418 405.511 72.871 403.626 71.5344 402.002L69.7207 403.578C71.1289 405.201 72.7758 407.086 74.4943 409.091C79.0292 414.247 84.1847 420.118 87.5739 424.51L89.4832 423.054Z" fill="#E0DFE6"></path> <path d="M72.472 423.674L74.6679 422.72C72.5306 418.759 69.5086 415.345 65.8369 412.743L64.5957 414.772C67.8495 417.118 70.5399 420.159 72.472 423.674Z" fill="#E0DFE6"></path> <path d="M47.9535 395.487C47.1181 395.487 46.3305 395.487 45.5667 395.487C44.8029 395.487 43.18 395.63 41.4854 395.487V397.874H42.8699C44.0156 397.874 44.9463 397.874 45.7817 397.874C46.6171 397.874 47.3093 397.874 48.1685 397.874C51.152 397.874 59.8638 397.874 62.4893 397.874L62.3699 395.797L61.2243 395.535C57.6441 395.606 50.4835 395.534 47.9535 395.487Z" fill="#E0DFE6"></path> <path d="M291.184 595.978C288.678 595.978 280.062 595.978 277.102 595.978C276.267 595.978 275.479 595.978 274.715 595.978C273.951 595.978 272.328 596.121 270.634 595.978V598.365H272.018C273.164 598.365 274.095 598.365 274.93 598.365C275.766 598.365 276.458 598.365 277.317 598.365C280.3 598.365 289.012 598.365 291.638 598.365L291.184 595.978Z" fill="#E0DFE6"></path> <path d="M285.534 621.54C286.782 621.646 288.04 621.549 289.257 621.254L288.589 618.867C287.626 619.082 286.636 619.146 285.653 619.058C284.74 618.975 283.821 618.975 282.908 619.058L283.243 621.445C284.008 621.405 284.775 621.437 285.534 621.54Z" fill="#E0DFE6"></path> <path d="M294.745 585.977H289.971C281.778 585.702 273.575 585.942 265.411 586.693L265.769 589.08C273.815 588.359 281.897 588.127 289.971 588.388H294.745V585.977Z" fill="#E0DFE6"></path> <path d="M300.525 566.238H248.158V568.625H300.525V566.238Z" fill="#E0DFE6"></path> <path d="M310.648 542.417C306.381 542.865 302.083 542.913 297.807 542.56C295.42 542.56 292.914 542.274 289.668 542.274C284.441 542.274 263.413 541.892 258.258 541.892C249.491 541.829 240.727 542.236 232.003 543.109L232.265 545.496C240.886 544.633 249.547 544.234 258.21 544.303C263.437 544.303 284.465 544.684 289.62 544.684C292.795 544.684 295.253 544.828 297.64 544.971C302.042 545.336 306.469 545.288 310.863 544.828L310.648 542.417Z" fill="#E0DFE6"></path> <path d="M284.607 610.632C285.974 610.561 287.345 610.561 288.712 610.632L288.856 608.246C287.352 608.246 285.967 608.246 284.511 608.246C283.055 608.246 281.742 608.246 280.072 608.246C278.53 608.137 276.983 608.137 275.441 608.246L275.704 610.632C277.143 610.547 278.585 610.547 280.024 610.632C281.742 610.704 283.223 610.68 284.607 610.632Z" fill="#E0DFE6"></path> <path d="M280.239 579.198C285.605 578.63 291.007 578.47 296.398 578.721L296.589 576.334C291.063 576.082 285.526 576.242 280.024 576.811C276.181 577.146 272.219 577.48 268.329 577.48C264.686 577.514 261.051 577.138 257.493 576.358L256.968 578.745C260.698 579.566 264.51 579.958 268.329 579.914C272.315 579.866 276.349 579.532 280.239 579.198Z" fill="#E0DFE6"></path> <path d="M301.595 624.166L303.791 623.211C301.654 619.251 298.632 615.837 294.96 613.234L293.719 615.263C296.973 617.609 299.663 620.65 301.595 624.166Z" fill="#E0DFE6"></path> <path d="M308.46 553.183C303.257 553.66 297.529 553.875 291.013 553.875C284.497 553.875 277.622 553.636 271.059 553.421C264.495 553.207 257.765 552.968 251.153 552.968C247.525 552.968 244.207 552.968 241.057 553.183V555.57H242.059C244.9 555.57 247.859 555.402 251.105 555.402C257.669 555.402 264.424 555.617 270.94 555.856C277.456 556.095 284.306 556.309 290.965 556.309C297.624 556.309 303.352 556.071 308.627 555.593L308.46 553.183Z" fill="#E0DFE6"></path> <path d="M195.13 553.731C189.903 554.208 184.199 554.423 177.683 554.423C171.167 554.423 164.293 554.185 157.729 553.97C151.165 553.755 144.435 553.516 137.823 553.516C134.171 553.516 130.878 553.516 127.703 553.731V556.118H128.706C131.546 556.118 134.505 555.951 137.751 555.951C144.315 555.951 151.046 556.166 157.586 556.404C164.126 556.643 170.952 556.858 177.611 556.858C184.27 556.858 189.975 556.619 195.273 556.142L195.13 553.731Z" fill="#E0DFE6"></path> <path d="M548.394 537.362C543.167 537.84 537.462 538.055 530.946 538.055C524.43 538.055 517.556 537.816 510.993 537.601C504.429 537.386 497.698 537.148 491.087 537.148C487.435 537.148 484.141 537.147 480.967 537.362V539.749H481.969C484.81 539.749 487.769 539.582 491.015 539.582C497.579 539.582 504.31 539.797 510.85 540.036C517.389 540.274 524.216 540.489 530.875 540.489C537.534 540.489 543.238 540.25 548.537 539.773L548.394 537.362Z" fill="#E0DFE6"></path> <path d="M181.672 572.727C176.146 572.475 170.61 572.634 165.108 573.204C161.265 573.538 157.303 573.873 153.412 573.873C149.769 573.909 146.134 573.532 142.576 572.751L142.027 575.138C145.766 575.957 149.585 576.349 153.412 576.307C157.398 576.307 161.408 575.973 165.346 575.639C170.72 575.07 176.13 574.911 181.529 575.162L181.672 572.727Z" fill="#E0DFE6"></path> <path d="M534.936 556.358C529.41 556.105 523.873 556.265 518.371 556.835C514.529 557.169 510.566 557.503 506.676 557.503C503.033 557.539 499.398 557.163 495.84 556.381L495.291 558.768C499.03 559.587 502.849 559.98 506.676 559.938C510.662 559.938 514.672 559.604 518.61 559.269C523.984 558.701 529.394 558.541 534.792 558.792L534.936 556.358Z" fill="#E0DFE6"></path> <path d="M278.111 621.779C265.031 603.759 254.242 589.271 244.122 576.191C231.114 559.483 219.109 544.661 207.438 531.247L205.647 532.823C217.295 546.189 229.253 560.868 242.237 577.647C252.309 590.727 263.098 605.191 276.178 623.187L278.111 621.779Z" fill="#E0DFE6"></path> <path d="M163.153 532.011C174.896 532.011 180.839 532.225 189.098 532.536C192.845 532.679 197.022 532.846 202.369 532.989V530.603C197.022 530.459 192.821 530.292 189.098 530.149C180.839 529.839 174.777 529.624 163.082 529.624C143.844 529.624 126.707 530.077 110.572 531.032L110.715 533.419C126.85 532.464 143.963 532.011 163.153 532.011Z" fill="#E0DFE6"></path> <path d="M230.821 581.466C227.36 576.812 223.9 572.158 220.343 567.575C214.5 559.862 208.237 552.476 201.583 545.449L199.864 547.096C206.45 554.07 212.656 561.392 218.458 569.031C222.014 573.614 235.834 592.207 239.39 596.813C245.247 604.523 251.518 611.909 258.174 618.939L259.892 617.292C253.292 610.325 247.077 603.003 241.275 595.358C237.743 590.751 234.258 586.12 230.821 581.466Z" fill="#E0DFE6"></path> <path d="M197.795 562.61C199.824 564.997 201.877 567.575 204.073 570.415C208.512 576.167 212.88 582.349 217.105 588.101C221.329 593.853 225.745 600.035 230.232 605.954C234.719 611.874 238.824 616.623 242.81 620.92L244.553 619.297C240.615 615.072 236.557 610.203 232.118 604.498C227.678 598.794 223.263 592.565 219.038 586.693C214.813 580.821 210.445 574.759 205.982 568.959C203.595 565.761 201.209 562.896 198.822 560.247L196.96 561.751L197.652 562.634L197.795 562.61Z" fill="#E0DFE6"></path> <path d="M144.416 544.279C149.667 544.279 170.671 544.661 175.85 544.661C179.024 544.661 181.483 544.804 183.846 544.947C188.248 545.312 192.675 545.264 197.069 544.804L196.83 542.417C192.564 542.865 188.264 542.913 183.989 542.561C181.602 542.561 179.072 542.274 175.85 542.274C170.599 542.274 149.595 541.892 144.416 541.892C135.649 541.829 126.885 542.235 118.161 543.109L118.4 545.496C127.044 544.623 135.728 544.216 144.416 544.279Z" fill="#E0DFE6"></path> <path d="M497.655 527.909C502.906 527.909 523.91 528.291 529.089 528.291C532.264 528.291 534.722 528.435 537.085 528.578C541.488 528.943 545.914 528.895 550.308 528.435L550.069 526.048C545.803 526.496 541.504 526.544 537.228 526.191C534.842 526.191 532.311 525.904 529.089 525.904C523.838 525.904 502.835 525.523 497.655 525.523C488.888 525.46 480.124 525.866 471.4 526.74L471.639 529.127C480.283 528.253 488.968 527.847 497.655 527.909Z" fill="#E0DFE6"></path> <path d="M318.607 623.545C315.17 619.082 309.99 613.211 305.431 608.007C303.665 606.002 301.994 604.117 300.658 602.494L298.844 604.069L303.617 609.583C308.152 614.738 313.308 620.61 316.697 625.001L318.607 623.545Z" fill="#E0DFE6"></path> <path d="M203.1 608.603C197.205 601.849 190.522 594.283 188.278 591.275L186.369 592.731C188.398 595.357 193.84 601.634 199.162 607.72L203.602 609.176L203.1 608.603Z" fill="#E0DFE6"></path> <path d="M190.396 576.764L219.347 614.26L223.357 615.525L192.281 575.308L190.396 576.764Z" fill="#E0DFE6"></path> <path d="M176.13 587.042H180.903V584.655H176.13C167.936 584.381 159.733 584.62 151.569 585.371L151.904 587.758C159.957 587.029 168.047 586.789 176.13 587.042Z" fill="#E0DFE6"></path> <path d="M529.393 570.673H534.167V568.286H529.393C521.2 568.011 512.997 568.251 504.833 569.002L505.167 571.389C513.221 570.659 521.311 570.42 529.393 570.673Z" fill="#E0DFE6"></path> <path d="M327.193 621.779C328.267 623.163 329.198 624.476 330.081 625.812L332.086 624.5C331.179 623.116 330.2 621.755 329.078 620.323C326.381 616.838 323.374 613.544 320.462 610.346C317.55 607.148 314.591 603.926 311.965 600.536C309.34 597.147 306.476 593.782 303.588 590.679L301.821 592.302C304.662 595.357 307.669 598.889 310.08 601.992C312.777 605.477 315.784 608.771 318.696 611.945C321.608 615.12 324.567 618.414 327.193 621.779Z" fill="#E0DFE6"></path> <path d="M308.152 575.574L306.263 577.033L341.686 622.898L343.575 621.439L308.152 575.574Z" fill="#E0DFE6"></path> <path d="M393.977 621.779C380.874 603.759 370.109 589.271 359.965 576.191C346.957 559.483 334.976 544.661 323.304 531.247L321.49 532.823C333.138 546.189 345.096 560.844 358.08 577.647C368.176 590.703 378.965 605.167 392.044 623.187L393.977 621.779Z" fill="#E0DFE6"></path> <path d="M177.136 594.092C175.203 594.092 169.713 594.092 165.895 594.092C168.09 594.928 170.31 595.715 172.506 596.479C174.535 596.479 176.301 596.479 177.28 596.479L177.136 594.092Z" fill="#E0DFE6"></path> <path d="M530.4 577.724C528.467 577.724 522.977 577.724 519.158 577.724C521.354 578.559 523.574 579.347 525.77 580.11C527.799 580.11 529.565 580.11 530.543 580.11L530.4 577.724Z" fill="#E0DFE6"></path> <path d="M313.641 562.61C315.67 564.997 317.722 567.575 319.918 570.415C324.357 576.167 328.726 582.349 332.927 588.101C337.127 593.853 341.567 600.035 346.078 605.954C350.589 611.874 354.647 616.623 358.656 620.92L360.399 619.297C356.46 615.048 352.379 610.203 347.963 604.498C343.547 598.794 339.108 592.565 334.883 586.693C330.659 580.821 326.267 574.759 321.804 568.959C319.417 565.761 317.03 562.896 314.787 560.247L312.925 561.751L313.617 562.634L313.641 562.61Z" fill="#E0DFE6"></path> <path d="M375.759 617.292C369.158 610.325 362.943 603.003 357.142 595.358C353.585 590.775 339.766 572.158 336.209 567.575C330.366 559.862 324.103 552.476 317.449 545.449L315.707 547.096C322.308 554.063 328.522 561.386 334.324 569.031C337.88 573.614 351.7 592.207 355.256 596.813C361.106 604.528 367.377 611.915 374.04 618.939L375.759 617.292Z" fill="#E0DFE6"></path> <path d="M187.245 563.064H134.878V565.451H187.245V563.064Z" fill="#E0DFE6"></path> <path d="M540.483 546.695H488.116V549.081H540.483V546.695Z" fill="#E0DFE6"></path> <path d="M316.624 530.603C311.278 530.459 307.077 530.292 303.378 530.149C295.095 529.839 289.057 529.624 277.338 529.624C258.1 529.624 240.963 530.077 224.828 531.032L224.971 533.419C240.939 532.488 258.028 532.035 277.218 532.035C288.961 532.035 294.929 532.249 303.163 532.56C306.91 532.703 311.087 532.87 316.433 533.013L316.624 530.603Z" fill="#E0DFE6"></path> <path d="M87.483 530.603C82.1365 530.459 77.9356 530.292 74.2361 530.149C65.9539 529.839 59.9155 529.624 48.1963 529.624L50.8217 532.011C60.894 532.011 66.5747 532.249 74.1886 532.536C77.9359 532.679 82.1126 532.846 87.4591 532.989L87.483 530.603Z" fill="#E0DFE6"></path> <path d="M78.0664 553.278C78.5199 553.564 78.9732 553.851 79.4029 554.161V553.182L78.0664 553.278Z" fill="#E0DFE6"></path> <path d="M130.842 576.072C117.834 559.364 105.853 544.542 94.1812 531.128L92.3672 532.704C104.015 546.07 115.973 560.725 128.957 577.528C130.317 579.27 131.678 581.06 133.038 582.85L137.478 584.736C135.186 581.776 132.975 578.888 130.842 576.072Z" fill="#E0DFE6"></path> <path d="M81.5146 542.417C77.2481 542.865 72.949 542.913 68.6736 542.56C67.0028 542.56 65.2843 542.369 63.3272 542.321C64.4012 543.157 65.4514 544.016 66.5493 544.851H68.5541C72.9566 545.216 77.3836 545.168 81.7771 544.708L81.5146 542.417Z" fill="#E0DFE6"></path> <path d="M107.086 567.575C101.242 559.855 94.9705 552.469 88.3014 545.449L86.583 547.096C93.1837 554.063 99.3987 561.386 105.2 569.031L105.964 570.033C107.587 570.869 109.21 571.704 110.737 572.42L107.086 567.575Z" fill="#E0DFE6"></path> <path d="M373.076 444.033C378.327 444.033 409.38 444.534 411.432 444.653C409.427 443.746 407.375 442.887 405.346 442.052C405.059 442.052 378.351 441.646 373.076 441.646C364.309 441.583 355.545 441.989 346.821 442.863L347.06 445.25C355.704 444.377 364.389 443.97 373.076 444.033Z" fill="#E0DFE6"></path> <path d="M414.325 524.397L416.235 522.941C414.97 521.318 414.087 520.029 413.323 518.907C411.974 516.758 410.371 514.779 408.549 513.012L406.902 514.754C408.64 516.386 410.163 518.23 411.437 520.244C412.129 521.533 413.036 522.726 414.325 524.397Z" fill="#E0DFE6"></path> <path d="M415.49 465.993H363.123V468.38H415.49V465.993Z" fill="#E0DFE6"></path> <path d="M377.46 431.861C374.954 431.073 372.424 430.333 369.894 429.617C359.392 429.832 349.463 430.214 339.939 430.787L340.083 433.174C351.754 432.457 364.094 432.052 377.46 431.861Z" fill="#E0DFE6"></path> <path d="M395.18 478.952C400.554 478.384 405.964 478.224 411.362 478.475L411.553 476.088C406.028 475.836 400.491 475.996 394.989 476.566C391.146 476.9 387.184 477.234 383.293 477.234C379.651 477.268 376.016 476.892 372.457 476.112L371.908 478.499C375.647 479.318 379.466 479.71 383.293 479.668C387.279 479.62 391.289 479.286 395.18 478.952Z" fill="#E0DFE6"></path> <path d="M443.347 525.615L445.351 524.302C444.444 522.942 443.466 521.557 442.344 520.125C441.222 518.693 437.021 513.848 432.224 508.358C426.328 501.603 419.645 494.037 417.402 491.03L415.492 492.486C417.879 495.469 424.514 503.155 430.434 509.933C434.992 515.161 439.312 520.077 440.458 521.581C441.604 523.085 442.487 524.302 443.347 525.615Z" fill="#E0DFE6"></path> <path d="M423.449 452.937C418.222 453.414 412.517 453.629 406.001 453.629C399.485 453.629 392.611 453.39 386.048 453.175C379.484 452.96 372.753 452.722 366.142 452.722C362.49 452.722 359.196 452.722 356.022 452.937V455.323H357.024C359.864 455.323 362.824 455.156 366.07 455.156C372.634 455.156 379.388 455.371 385.904 455.61C392.42 455.848 399.27 456.063 405.929 456.063C412.589 456.063 418.293 455.825 423.592 455.347L423.449 452.937Z" fill="#E0DFE6"></path> <path d="M507.262 521.533C494.182 503.513 483.394 489.025 473.273 475.945C465.636 466.064 458.332 456.851 451.243 448.33C450.193 448.33 449.096 448.187 448.022 448.163C455.516 457.209 463.249 466.899 471.388 477.401C481.461 490.481 492.249 504.945 505.329 522.941L507.262 521.533Z" fill="#E0DFE6"></path> <path d="M489.02 517.045C482.42 510.078 476.205 502.756 470.403 495.111C466.871 490.528 453.027 471.911 449.471 467.328C443.647 459.786 438.492 453.604 433.479 448.234H430.305C435.723 453.986 441.26 460.55 447.585 468.76C451.141 473.343 464.961 491.936 468.517 496.543C474.382 504.246 480.652 511.632 487.302 518.669L489.02 517.045Z" fill="#E0DFE6"></path> <path d="M414.923 505.016L413.491 506.949C419.912 511.723 425.282 518.621 430.008 524.755L431.917 523.299C427.099 516.469 421.383 510.32 414.923 505.016Z" fill="#E0DFE6"></path> <path d="M421.432 475.217L419.543 476.676L454.966 522.541L456.855 521.082L421.432 475.217Z" fill="#E0DFE6"></path> <path d="M471.958 520.674L473.7 519.05C469.762 514.826 465.704 509.957 461.265 504.252C456.826 498.548 452.41 492.318 448.185 486.447C443.961 480.575 439.592 474.513 435.129 468.713C432.742 465.515 430.355 462.65 427.969 460.001L426.107 461.505L426.799 462.388C428.828 464.775 430.881 467.352 433.077 470.193C437.516 475.945 441.884 482.127 446.109 487.879C450.333 493.631 454.749 499.813 459.236 505.732C463.723 511.651 467.972 516.377 471.958 520.674Z" fill="#E0DFE6"></path> <path d="M399.947 518.908C399.217 518.825 398.481 518.825 397.751 518.908L398.228 521.295C398.752 521.235 399.281 521.235 399.804 521.295H400.758C401.467 521.303 402.17 521.182 402.835 520.937L401.952 518.717C401.302 518.908 400.621 518.973 399.947 518.908Z" fill="#E0DFE6"></path> <path d="M409.734 485.731H404.961C396.767 485.456 388.564 485.695 380.4 486.447L380.735 488.834C388.781 488.113 396.863 487.882 404.937 488.141H409.71L409.734 485.731Z" fill="#E0DFE6"></path> <path d="M403.722 507.999C402.194 507.999 400.834 507.999 399.378 507.999C397.922 507.999 396.609 507.999 394.938 507.999C393.397 507.891 391.849 507.891 390.308 507.999L390.547 510.386C391.993 510.301 393.444 510.301 394.891 510.386C396.609 510.386 398.089 510.386 399.473 510.386C400.841 510.315 402.211 510.315 403.578 510.386L403.722 507.999Z" fill="#E0DFE6"></path> <path d="M406.121 495.732C403.615 495.732 394.999 495.732 392.039 495.732C391.204 495.732 390.416 495.732 389.533 495.732C388.65 495.732 387.146 495.875 385.476 495.732V498.119H386.836C388.005 498.119 388.936 498.119 389.771 498.119C390.607 498.119 391.299 498.119 392.158 498.119C395.166 498.119 403.877 498.119 406.479 498.119L406.121 495.732Z" fill="#E0DFE6"></path> <path d="M431.592 530.603C426.245 530.459 422.045 530.292 418.322 530.149C410.063 529.839 404.001 529.624 392.305 529.624C373.068 529.624 355.931 530.077 339.915 531.032L340.058 533.419C356.026 532.488 373.115 532.035 392.305 532.035C404.048 532.035 409.992 532.249 418.25 532.56C421.997 532.703 426.174 532.87 431.52 533.013L431.592 530.603Z" fill="#E0DFE6"></path> <path d="M399.947 619.154C399.217 619.07 398.481 619.07 397.751 619.154L398.228 621.54C398.752 621.481 399.281 621.481 399.804 621.54H400.758C401.467 621.549 402.17 621.427 402.835 621.182L401.952 618.962C401.302 619.154 400.621 619.219 399.947 619.154Z" fill="#E0DFE6"></path> <path d="M507.259 621.779C494.179 603.759 483.39 589.271 473.27 576.191C460.262 559.483 448.257 544.661 436.585 531.247L434.795 532.823C446.443 546.189 458.401 560.868 471.385 577.647C481.457 590.727 492.245 605.191 505.325 623.187L507.259 621.779Z" fill="#E0DFE6"></path> <path d="M471.958 620.92L473.7 619.297C469.762 615.072 465.704 610.203 461.265 604.498C456.826 598.794 452.41 592.565 448.185 586.693C443.961 580.821 439.592 574.759 435.129 568.959C432.742 565.761 430.355 562.896 427.969 560.247L426.107 561.751L426.799 562.634C428.828 565.021 430.881 567.598 433.077 570.439C437.516 576.191 441.884 582.373 446.109 588.125C450.333 593.877 454.749 600.059 459.236 605.978C463.723 611.898 467.972 616.623 471.958 620.92Z" fill="#E0DFE6"></path> <path d="M489.04 617.292C482.439 610.325 476.224 603.003 470.422 595.358C466.89 590.775 453.046 572.158 449.49 567.575C443.647 559.862 437.384 552.476 430.73 545.449L429.012 547.096C435.597 554.07 441.803 561.392 447.604 569.031C451.161 573.614 464.98 592.207 468.537 596.813C474.401 604.517 480.672 611.903 487.321 618.939L489.04 617.292Z" fill="#E0DFE6"></path> <path d="M421.456 575.464L419.567 576.923L454.99 622.788L456.879 621.329L421.456 575.464Z" fill="#E0DFE6"></path> <path d="M403.722 608.246C402.194 608.246 400.834 608.246 399.378 608.246C397.922 608.246 396.609 608.246 394.938 608.246C393.397 608.137 391.849 608.137 390.308 608.246L390.547 610.632C391.993 610.547 393.444 610.547 394.891 610.632C396.609 610.632 398.089 610.632 399.473 610.632C400.841 610.561 402.211 610.561 403.578 610.632L403.722 608.246Z" fill="#E0DFE6"></path> <path d="M432.224 608.603C426.328 601.849 419.645 594.283 417.402 591.275L415.492 592.731C417.879 595.715 424.514 603.4 430.434 610.179C434.992 615.406 439.312 620.323 440.458 621.826C441.604 623.33 442.487 624.547 443.347 625.86L445.351 624.547C444.444 623.187 443.466 621.803 442.344 620.371C441.222 618.938 437.141 614.093 432.224 608.603Z" fill="#E0DFE6"></path> <path d="M423.449 553.183C418.222 553.66 412.517 553.875 406.001 553.875C399.485 553.875 392.611 553.636 386.048 553.421C379.484 553.207 372.753 552.968 366.142 552.968C362.49 552.968 359.196 552.968 356.022 553.183V555.57H357.024C359.864 555.57 362.824 555.402 366.07 555.402C372.634 555.402 379.388 555.617 385.904 555.856C392.42 556.095 399.27 556.309 405.929 556.309C412.589 556.309 418.293 556.071 423.592 555.593L423.449 553.183Z" fill="#E0DFE6"></path> <path d="M415.49 566.238H363.123V568.625H415.49V566.238Z" fill="#E0DFE6"></path> <path d="M425.491 542.417C421.224 542.865 416.925 542.913 412.65 542.561C410.263 542.561 407.733 542.274 404.511 542.274C399.284 542.274 378.256 541.892 373.076 541.892C364.309 541.829 355.545 542.235 346.821 543.109L347.06 545.496C355.681 544.633 364.341 544.235 373.004 544.303C378.255 544.303 399.26 544.685 404.439 544.685C407.613 544.685 410.072 544.828 412.434 544.971C416.837 545.336 421.264 545.288 425.657 544.828L425.491 542.417Z" fill="#E0DFE6"></path> <path d="M547.549 542.285C542.9 542.877 538.216 542.941 533.558 542.474C530.957 542.474 528.226 542.095 524.689 542.095C518.994 542.095 496.083 541.591 490.465 541.591C480.913 541.508 471.364 542.045 461.858 543.2L462.144 546.356C471.537 545.214 480.974 544.688 490.413 544.778C496.109 544.778 519.02 545.283 524.637 545.283C528.096 545.283 530.775 545.472 533.376 545.661C538.173 546.144 542.996 546.08 547.783 545.472L547.549 542.285Z" fill="#E0DFE6"></path> <path d="M429.983 625L431.893 623.544C427.075 616.715 421.358 610.565 414.899 605.261L413.467 607.195C419.911 611.897 425.21 618.866 429.983 625Z" fill="#E0DFE6"></path> <path d="M406.121 595.978C403.615 595.978 394.999 595.978 392.039 595.978C391.204 595.978 390.416 595.978 389.533 595.978C388.65 595.978 387.146 596.121 385.476 595.978V598.365H386.836C388.005 598.365 388.936 598.365 389.771 598.365C390.607 598.365 391.299 598.365 392.158 598.365C395.166 598.365 403.877 598.365 406.479 598.365L406.121 595.978Z" fill="#E0DFE6"></path> <path d="M409.734 585.977H404.961C396.767 585.702 388.564 585.942 380.4 586.693L380.735 589.08C388.781 588.359 396.863 588.128 404.937 588.388H409.71L409.734 585.977Z" fill="#E0DFE6"></path> <path d="M414.325 624.643L416.235 623.187C414.97 621.564 414.087 620.275 413.323 619.153C411.974 617.004 410.371 615.025 408.549 613.258L406.902 615C408.64 616.632 410.163 618.476 411.437 620.49C412.129 621.779 413.036 622.972 414.325 624.643Z" fill="#E0DFE6"></path> <path d="M395.18 579.199C400.554 578.63 405.964 578.47 411.362 578.721L411.553 576.334C406.028 576.082 400.491 576.242 394.989 576.812C391.146 577.146 387.184 577.48 383.293 577.48C379.651 577.514 376.016 577.138 372.457 576.358L371.908 578.745C375.647 579.564 379.466 579.956 383.293 579.914C387.279 579.867 391.289 579.533 395.18 579.199Z" fill="#E0DFE6"></path> <path d="M545.751 530.603C540.405 530.459 536.204 530.292 532.504 530.149C524.222 529.839 518.184 529.624 506.464 529.624C487.227 529.624 470.09 530.077 454.074 531.032L454.217 533.419C470.185 532.488 487.275 532.035 506.464 532.035C518.208 532.035 524.174 532.249 532.409 532.56C536.156 532.703 540.333 532.87 545.679 533.013L545.751 530.603Z" fill="#E0DFE6"></path> <path d="M417.9 537.644L391.956 515.494C381.191 506.281 369.496 495.35 355.056 492.939C334.386 489.502 309.993 506.138 318.155 529.863C319.496 533.662 321.215 537.316 323.287 540.771C306.27 532.489 193.278 479.955 154.302 461.004C136.329 452.268 118.237 443.795 101.076 433.508C87.4473 425.369 57.3498 404.102 45.4158 426.18C34.9139 445.633 53.1252 463.08 66.897 474.346C81.9748 486.76 97.858 498.162 114.442 508.477C148.192 529.099 184.137 546.523 219.462 564.185C256.815 582.826 293.882 602.374 331.832 619.702C350.926 628.509 371.477 636.672 392.958 635.956C415.06 635.216 438.522 623.044 445.468 600.799C453.845 573.613 437.138 554.065 417.9 537.644Z" fill="#D7DCE0"></path> <path d="M405.593 228.315V562.109C405.593 570.224 402.896 575.929 398.624 578.411L368.908 595.572C373.013 593.018 375.615 587.362 375.615 579.413V245.643C375.615 230.797 366.569 213.565 355.446 207.12L36.9514 23.3364C32.1778 20.52 27.5951 20.2574 24.1104 22.0952L53.7784 4.95785C57.3109 2.92906 61.9175 3.12018 66.9536 6.03208L385.449 189.816C396.571 196.236 405.593 213.469 405.593 228.315Z" fill="#D7DCE0"></path> <path d="M375.621 245.642V579.341C375.621 587.289 373.019 592.946 368.914 595.5L368.628 595.667C365.095 597.696 360.489 597.505 355.452 594.593L36.9574 410.809C25.8349 404.388 16.7891 387.132 16.7891 372.286V38.4917C16.7891 30.3766 19.5101 24.6483 23.7825 22.1899L24.1164 21.9988C27.6011 20.161 32.0883 20.4236 36.9574 23.24L355.452 207.024C366.575 213.635 375.621 230.796 375.621 245.642ZM301.105 454.559V286.982C300.916 277.365 298.463 267.929 293.944 259.438C290.034 251.365 283.982 244.521 276.449 239.651C262.773 231.751 251.674 240.153 251.674 258.388V426.061C251.674 444.296 262.773 465.467 276.449 473.367C290.125 481.267 301.105 472.794 301.105 454.559ZM212.125 403.171V235.594C211.938 225.985 209.485 216.556 204.964 208.074C201.045 200 194.985 193.156 187.445 188.287C173.769 180.387 162.694 188.765 162.694 207V374.577C162.694 392.813 173.769 414.007 187.445 421.908C201.122 429.808 212.101 421.406 212.101 403.171H212.125ZM123.145 351.807V184.23C122.956 174.614 120.502 165.177 115.984 156.686C112.072 148.607 106.011 141.761 98.4653 136.899C84.789 128.999 73.7142 137.401 73.7142 155.636V323.213C73.7142 341.449 84.789 362.619 98.4653 370.52C112.142 378.42 123.121 370.042 123.121 351.807H123.145Z" fill="white"></path> <path d="M301.1 367.847V454.56C301.1 472.795 290.025 481.173 276.349 473.272C262.673 465.372 251.574 444.201 251.574 425.966V339.253C251.574 323.477 262.673 317.056 276.349 324.932C290.025 332.809 301.1 352.07 301.1 367.847Z" fill="#D7DCE0"></path> <path d="M301.1 286.983V367.847C301.1 352.071 290.025 332.857 276.349 324.885C262.673 316.913 251.574 323.405 251.574 339.206V258.341C251.574 240.106 262.673 231.704 276.349 239.605C283.882 244.475 289.934 251.319 293.844 259.391C298.403 267.888 300.889 277.342 301.1 286.983Z" fill="#3A3A3A"></path> <path d="M212.101 371.737V403.171C212.101 421.406 201.003 429.784 187.326 421.908C173.65 414.031 162.575 392.813 162.575 374.577V343.143C162.575 327.342 173.65 320.946 187.326 328.822C201.003 336.699 212.101 355.936 212.101 371.737Z" fill="#3FAAF0"></path> <path d="M212.101 235.594V371.642C212.101 355.841 201.003 336.651 187.326 328.679C173.65 320.708 162.575 327.176 162.575 343V206.953C162.575 188.717 173.65 180.34 187.326 188.24C194.866 193.109 200.926 199.953 204.846 208.027C209.407 216.514 211.893 225.961 212.101 235.594Z" fill="#3A3A3A"></path> <path d="M123.102 226.333V351.807C123.102 370.043 112.004 378.42 98.3273 370.52C84.6509 362.62 73.5762 341.449 73.5762 323.214V197.739C73.5762 181.939 84.6509 175.542 98.3273 183.418C112.004 191.295 123.102 210.532 123.102 226.333Z" fill="white"></path> <path d="M123.102 184.23V226.333C123.102 210.533 112.004 191.343 98.3273 183.371C84.6509 175.399 73.5762 181.867 73.5762 197.692V155.636C73.5762 137.401 84.6509 128.999 98.3273 136.9C105.873 141.762 111.934 148.607 115.846 156.686C120.398 165.169 122.884 174.606 123.102 184.23Z" fill="#3A3A3A"></path> <path d="M368.891 599.08C368.107 599.09 367.342 598.842 366.712 598.374C366.083 597.906 365.625 597.244 365.408 596.49C365.191 595.737 365.227 594.933 365.511 594.202C365.796 593.471 366.313 592.854 366.982 592.445C370.18 590.464 372.018 585.69 372.018 579.341V245.643C372.018 232.205 363.593 215.999 353.616 210.222L35.1447 26.4388C32.6147 24.9828 28.9392 23.5746 25.7647 25.2693C24.9292 25.6856 23.9647 25.7615 23.0743 25.4811C22.1839 25.2006 21.4371 24.5856 20.9911 23.7656C20.5622 22.9323 20.4794 21.9635 20.7609 21.0696C21.0425 20.1757 21.6657 19.429 22.4948 18.992C27.2684 16.4858 33.0205 16.9633 38.7966 20.3048L357.292 204.089C369.607 211.249 379.25 229.508 379.25 245.714V579.413C379.25 588.292 376.171 595.285 370.848 598.508C370.268 598.891 369.586 599.09 368.891 599.08Z" fill="#3A3A3A"></path> <path d="M363.442 600.584C359.982 600.501 356.606 599.505 353.656 597.696L35.1606 413.913C22.8447 406.752 13.2021 388.517 13.2021 372.287V38.4924C13.2021 29.3748 16.4006 22.3098 21.9857 19.0876C22.8086 18.6129 23.7862 18.4845 24.7038 18.7307C25.6214 18.9769 26.4037 19.5776 26.8785 20.4005C27.3532 21.2234 27.4816 22.2013 27.2354 23.1189C26.9892 24.0365 26.3888 24.8185 25.5659 25.2933C22.296 27.155 20.3626 32.0957 20.3626 38.4924V372.191C20.3626 385.629 28.764 401.859 38.7408 407.611L357.236 591.395C359.837 592.899 363.609 594.307 366.783 592.469C367.19 592.231 367.64 592.075 368.107 592.012C368.574 591.949 369.049 591.979 369.504 592.102C369.96 592.224 370.386 592.435 370.759 592.724C371.132 593.012 371.444 593.372 371.676 593.782C372.108 594.595 372.213 595.542 371.969 596.43C371.724 597.317 371.15 598.078 370.363 598.556C368.275 599.831 365.888 600.53 363.442 600.584Z" fill="#3A3A3A"></path> <path d="M368.635 599.248C367.846 599.248 367.079 598.989 366.453 598.509C365.827 598.029 365.377 597.356 365.173 596.594C364.969 595.832 365.022 595.023 365.324 594.295C365.627 593.566 366.161 592.958 366.845 592.564L396.847 575.236C400.117 573.327 402.027 568.505 402.027 562.037V228.315C402.027 214.877 393.601 198.647 383.648 192.895L65.1772 9.11085C62.5517 7.60716 58.7805 6.19878 55.63 8.03661L25.6516 25.3648C24.8287 25.8396 23.8508 25.9679 22.9332 25.7217C22.0156 25.4755 21.2336 24.8749 20.7588 24.052C20.2841 23.229 20.1554 22.2512 20.4016 21.3336C20.6478 20.416 21.2485 19.634 22.0714 19.1592L52.0736 1.83099C56.8472 -0.937703 62.8381 -0.555931 68.7813 2.90493L387.276 186.689C399.568 193.849 409.211 212.108 409.211 228.315V562.109C409.211 571.203 406.013 578.267 400.451 581.49L370.449 598.842C369.892 599.136 369.265 599.277 368.635 599.248Z" fill="#3A3A3A"></path> <path d="M108.178 377.083C104.06 376.969 100.043 375.776 96.5305 373.623C81.6368 365.006 69.9893 342.881 69.9893 323.213V155.636C69.9893 144.728 73.7603 136.279 80.3479 132.484C85.9808 129.238 92.998 129.692 100.111 133.797C108.251 138.987 114.794 146.332 119.014 155.015C123.84 164.011 126.466 174.023 126.676 184.23V351.807C126.676 362.691 122.904 371.116 116.317 374.935C113.841 376.358 111.033 377.099 108.178 377.083ZM88.487 137.496C86.8876 137.476 85.3125 137.888 83.9281 138.69C79.608 141.076 77.1497 147.354 77.1497 155.636V323.213C77.1497 340.279 87.4368 360.09 100.111 367.417C103.5 369.374 108.44 371.188 112.737 368.73C117.033 366.271 119.515 360.066 119.515 351.807V184.23C119.311 175.178 116.963 166.303 112.665 158.333C109.064 150.862 103.484 144.522 96.5305 140.002C94.1074 138.494 91.3382 137.631 88.487 137.496Z" fill="#3A3A3A"></path> <path d="M123.096 229.914C122.146 229.914 121.235 229.537 120.564 228.866C119.893 228.194 119.515 227.284 119.515 226.334C119.515 211.703 109.204 193.85 96.5305 186.546C91.0647 183.396 86.1238 182.775 82.5914 184.804C79.0589 186.833 77.1497 191.415 77.1497 197.74C77.1497 198.69 76.7722 199.6 76.1008 200.272C75.4294 200.943 74.519 201.32 73.5695 201.32C72.6199 201.32 71.7093 200.943 71.0379 200.272C70.3664 199.6 69.9893 198.69 69.9893 197.74C69.9893 188.766 73.1874 181.963 79.0112 178.646C84.835 175.328 92.3297 175.901 100.111 180.388C115.004 188.981 126.676 209.197 126.676 226.382C126.663 227.323 126.28 228.221 125.61 228.883C124.94 229.544 124.037 229.914 123.096 229.914Z" fill="#3A3A3A"></path> <path d="M197.153 428.448C193.044 428.343 189.035 427.158 185.53 425.011C170.636 416.418 158.988 394.245 158.988 374.578V207C158.988 196.093 162.76 187.667 169.323 183.872C174.98 180.602 181.997 181.08 189.11 185.185C197.251 190.405 203.793 197.773 208.013 206.475C212.842 215.462 215.467 225.466 215.675 235.666V403.243C215.675 414.127 211.904 422.552 205.316 426.371C202.826 427.772 200.01 428.488 197.153 428.448ZM177.486 188.885C175.879 188.864 174.296 189.276 172.904 190.078C168.607 192.465 166.149 198.718 166.149 207V374.578C166.149 391.643 176.436 411.501 189.11 418.805C192.499 420.762 197.44 422.576 201.736 420.094C206.032 417.612 208.514 411.43 208.514 403.172V235.594C208.314 226.556 205.966 217.696 201.664 209.745C198.077 202.259 192.494 195.908 185.53 191.391C183.106 189.882 180.337 189.019 177.486 188.885Z" fill="#3A3A3A"></path> <path d="M212.095 375.318C211.145 375.318 210.234 374.941 209.563 374.27C208.892 373.598 208.514 372.687 208.514 371.738C208.514 357.107 198.203 339.253 185.53 331.95C180.064 328.799 175.123 328.179 171.591 330.208C168.058 332.236 166.149 336.819 166.149 343.144C166.149 344.094 165.772 345.004 165.1 345.676C164.429 346.347 163.518 346.724 162.568 346.724C161.619 346.724 160.708 346.347 160.037 345.676C159.365 345.004 158.988 344.094 158.988 343.144C158.988 334.17 162.187 327.367 168.034 324.05C173.882 320.732 181.329 321.305 189.11 325.792C204.003 334.384 215.675 354.601 215.675 371.786C215.662 372.727 215.28 373.625 214.61 374.286C213.94 374.948 213.036 375.318 212.095 375.318Z" fill="#3A3A3A"></path> <path d="M286.152 479.835C282.041 479.718 278.034 478.524 274.528 476.374C259.635 467.757 247.963 445.632 247.963 425.964V258.387C247.963 247.48 251.734 239.03 258.322 235.235C263.979 231.989 270.996 232.443 278.109 236.548C286.244 241.747 292.779 249.101 296.988 257.791C301.816 266.777 304.442 276.782 304.649 286.981V454.558C304.649 465.466 300.878 473.892 294.291 477.687C291.816 479.112 289.007 479.854 286.152 479.835ZM266.485 240.248C264.878 240.227 263.295 240.639 261.902 241.441C257.582 243.828 255.123 250.105 255.123 258.387V426.06C255.123 443.102 265.435 462.936 278.109 470.264C281.498 472.221 286.438 474.035 290.71 471.576C294.983 469.118 297.489 462.936 297.489 454.654V287.077C297.285 278.024 294.937 269.149 290.639 261.18C287.026 253.717 281.448 247.38 274.504 242.849C272.102 241.301 269.338 240.404 266.485 240.248Z" fill="#3A3A3A"></path> <path d="M301.094 371.427C300.144 371.427 299.234 371.05 298.562 370.379C297.891 369.707 297.513 368.797 297.513 367.847C297.513 353.216 287.202 335.363 274.552 328.059C269.086 324.909 264.146 324.288 260.614 326.317C257.081 328.346 255.148 332.952 255.148 339.253C255.148 340.203 254.77 341.114 254.099 341.785C253.427 342.456 252.517 342.834 251.568 342.834C250.618 342.834 249.708 342.456 249.036 341.785C248.365 341.114 247.987 340.203 247.987 339.253C247.987 330.279 251.186 323.5 257.033 320.159C262.881 316.817 270.351 317.414 278.132 321.901C293.002 330.494 304.674 350.71 304.674 367.895C304.661 368.836 304.279 369.735 303.609 370.396C302.939 371.057 302.035 371.428 301.094 371.427Z" fill="#3A3A3A"></path> </svg> 