<?xml version="1.0" encoding="UTF-8"?> <svg xmlns="http://www.w3.org/2000/svg" width="514" height="316" viewBox="0 0 514 316" fill="none"> <path d="M2.12343 36.7229C0.853719 34.4654 0.131974 31.941 0.0164578 29.3534C-0.0990579 26.7659 0.394778 24.1876 1.45827 21.8258C3.67511 16.8823 8.10878 12.4708 14.7593 8.52482C21.8479 4.52343 29.6352 1.91232 37.7032 0.832188C46.2643 -0.398245 54.9665 -0.263444 63.4853 1.23134C71.7311 2.60289 79.6708 5.41698 86.9397 9.54448C92.0035 12.2359 96.4031 16.0225 99.8191 20.6287C101.1 22.346 102.029 24.2989 102.554 26.3759C103.079 28.4528 103.189 30.6129 102.879 32.7325L83.4369 32.2671C84.1463 26.5476 81.0941 21.7222 74.2811 17.7911C69.9368 15.3044 65.1733 13.6363 60.2267 12.8697C55.0887 12.0224 49.8467 12.0224 44.7088 12.8697C39.764 13.6436 35.0013 15.3112 30.6539 17.7911C27.082 19.6022 24.1214 22.4239 22.141 25.9048C21.4421 27.2782 21.078 28.7974 21.078 30.3384C21.078 31.8795 21.4421 33.3987 22.141 34.7721C24.1214 38.253 27.082 41.0747 30.6539 42.8858C38.3781 47.015 47.1313 48.824 55.8596 48.0953L56.6351 59.3346C49.554 59.7542 42.4491 59.172 35.5308 57.6054C28.804 56.0793 22.3416 53.5615 16.3554 50.1346C10.4483 47.086 5.51696 42.4389 2.12343 36.7229Z" fill="#3A3A3A"></path> <path d="M72.1076 77.1139C70.8251 74.8498 70.093 72.3158 69.9698 69.7165C69.8466 67.1173 70.3361 64.5256 71.3986 62.1503C73.5268 57.1994 77.9605 52.7657 84.6996 48.8493C91.7686 44.8696 99.5341 42.2811 107.577 41.2235C116.182 39.9793 124.932 40.1214 133.492 41.6445C141.823 43.0083 149.841 45.8539 157.168 50.0464C164.232 54.1254 169.065 58.6697 171.666 63.6798C172.936 65.948 173.662 68.4796 173.789 71.0758C173.916 73.672 173.44 76.2622 172.397 78.6434C170.284 83.6092 165.895 88.0428 159.229 91.9445C152.149 95.9299 144.366 98.5118 136.307 99.5483C127.7 100.771 118.955 100.629 110.392 99.1273C102.079 97.775 94.076 94.9444 86.7612 90.7697C79.6377 86.676 74.753 82.124 72.1076 77.1139ZM113.74 87.7327C118.835 88.5527 124.029 88.5527 129.125 87.7327C134.07 86.9622 138.834 85.2941 143.18 82.8111C146.761 81.0131 149.725 78.1885 151.692 74.6977C152.397 73.3258 152.764 71.806 152.764 70.264C152.764 68.722 152.397 67.2022 151.692 65.8303C149.848 62.4398 147.019 59.688 143.578 57.9382C139.349 55.5445 134.711 53.9584 129.901 53.2607C124.814 52.4296 119.625 52.4296 114.538 53.2607C109.593 54.0312 104.829 55.699 100.483 58.1821C96.9114 59.9932 93.9508 62.8149 91.9704 66.2958C91.2663 67.6676 90.8993 69.1874 90.8993 70.7294C90.8993 72.2714 91.2663 73.7913 91.9704 75.1631C93.8148 78.5536 96.6441 81.3054 100.084 83.0552C104.314 85.4234 108.943 86.9938 113.74 87.6883V87.7327Z" fill="#3A3A3A"></path> <path d="M267.501 115.176L199.399 154.503L186.475 147.032L193.857 103.56L152.513 127.413L136.951 118.435L205.052 79.1307L218.087 86.6457L210.594 130.074L251.938 106.198L267.501 115.176Z" fill="#3A3A3A"></path> <path d="M284.904 140.05L263.112 127.481L275.97 120.076L335.292 154.326L322.457 161.731L300.665 149.161L245.422 181.062L229.66 171.95L284.904 140.05Z" fill="#3A3A3A"></path> <path d="M319.065 223.558L324.895 205.025L310.397 196.668L291.421 207.619L275.659 198.507L343.827 159.136L373.311 176.162C378.312 178.737 382.651 182.431 385.991 186.958C387.149 188.492 387.911 190.288 388.209 192.186C388.506 194.085 388.331 196.028 387.698 197.842C386.412 201.345 383.264 204.493 378.166 207.486C373.023 210.44 367.324 212.297 361.428 212.939C355.151 213.638 348.8 213.255 342.652 211.809L336.001 233.267L319.065 223.558ZM367.259 191.126C366.838 188.532 364.244 185.849 359.522 183.122L346.687 175.718L322.944 189.418L335.78 196.823C339.996 199.4 344.771 200.921 349.701 201.256C354.043 201.544 358.373 200.533 362.138 198.352C365.995 196.135 367.68 193.741 367.259 191.126Z" fill="#3A3A3A"></path> <path d="M364.422 245.837C363.141 243.573 362.409 241.039 362.286 238.44C362.163 235.841 362.652 233.249 363.712 230.874C365.841 225.937 370.274 221.504 377.013 217.573C384.078 213.583 391.846 210.994 399.891 209.947C408.497 208.703 417.246 208.845 425.806 210.368C434.132 211.738 442.148 214.575 449.482 218.748C456.546 222.827 461.379 227.379 463.98 232.403C465.249 234.672 465.976 237.203 466.103 239.799C466.23 242.395 465.754 244.986 464.712 247.367C462.613 252.333 458.224 256.766 451.544 260.668C444.463 264.654 436.68 267.235 428.621 268.272C420.015 269.494 411.269 269.352 402.707 267.851C394.388 266.492 386.378 263.662 379.053 259.493C371.944 255.414 367.067 250.862 364.422 245.837ZM406.076 256.456C411.164 257.276 416.351 257.276 421.439 256.456C426.385 255.686 431.148 254.018 435.494 251.535C439.07 249.73 442.032 246.907 444.006 243.421C444.71 242.049 445.078 240.529 445.078 238.987C445.078 237.445 444.71 235.926 444.006 234.554C442.162 231.163 439.333 228.411 435.893 226.662C431.66 224.27 427.024 222.677 422.215 221.962C417.127 221.142 411.94 221.142 406.852 221.962C401.905 222.729 397.142 224.397 392.798 226.884C389.221 228.688 386.259 231.511 384.285 234.997C383.581 236.369 383.213 237.889 383.213 239.431C383.213 240.973 383.581 242.492 384.285 243.864C386.129 247.255 388.958 250.007 392.398 251.756C396.629 254.151 401.267 255.745 406.076 256.456Z" fill="#3A3A3A"></path> <path d="M497.365 247.877L513.127 256.988L457.861 288.888L492 308.596L479.165 316L429.264 287.203L497.365 247.877Z" fill="#3A3A3A"></path> </svg> 