<?xml version="1.0" encoding="UTF-8"?> <svg xmlns="http://www.w3.org/2000/svg" width="100" height="78" viewBox="0 0 100 78" fill="none"> <path d="M31.2449 74.5569C33.3364 75.714 35.5388 76.6579 37.8191 77.3745C47.168 77.161 56.8585 77.0542 67.0399 77.0542C75.3643 77.0542 81.3621 77.0543 86.8691 77.2891C88.7609 76.5522 90.565 75.6072 92.2479 74.4715C85.0975 74.2368 78.1177 74.066 67.0399 74.066C54.4465 74.066 42.5789 74.2368 31.2449 74.5569Z" fill="#E0DFE6"></path> <path d="M70.5126 50.0324C72.6475 50.0324 74.5048 50.0324 76.2341 50.0324C77.9633 50.0324 79.6285 49.9043 81.3791 50.0324L81.5713 47.0649C79.7579 46.9688 77.9407 46.9688 76.1273 47.0649C74.4408 47.0649 72.6475 47.0649 70.5767 47.0649C68.6331 46.999 66.6873 47.0417 64.7485 47.193L65.0687 50.1605C66.8797 50.0191 68.697 49.9764 70.5126 50.0324Z" fill="#E0DFE6"></path> <path d="M96.8718 45.1008L99.3482 47.8976C98.6584 46.8535 97.8247 45.9119 96.8718 45.1008Z" fill="#E0DFE6"></path> <path d="M45.2439 58.3173C40.3977 53.2577 35.4875 47.643 30.2998 41.2383C29.3019 41.5314 28.3363 41.9248 27.4177 42.4126C32.9257 49.1801 38.0921 55.0296 43.1517 60.3241L45.2439 58.3173Z" fill="#E0DFE6"></path> <path d="M77.4713 60.6616C76.328 60.556 75.1774 60.556 74.0341 60.6616L74.4611 63.6078C75.4199 63.5228 76.3844 63.5228 77.3432 63.6078C78.904 63.7231 80.4732 63.6007 81.9972 63.2448L81.1646 60.3841C79.9538 60.6578 78.7093 60.7513 77.4713 60.6616Z" fill="#E0DFE6"></path> <path d="M68.072 63.8C62.0955 55.5609 56.4819 47.8982 51.1457 40.705L49.0112 41.1106L47.9653 41.3454C53.5363 48.8587 59.4061 56.8843 65.7027 65.5503L68.072 63.8Z" fill="#E0DFE6"></path> <path d="M23.8501 62.8833L25.985 60.7484C24.1063 58.6136 22.1849 56.4787 20.2208 54.3438C20.071 55.8701 20.071 57.4075 20.2208 58.9338C21.5018 60.3001 22.6759 61.6237 23.8501 62.8833Z" fill="#E0DFE6"></path> <path d="M97.502 66.7902L99.7649 65.7868C99.8549 65.5996 99.9333 65.4071 99.9998 65.2104C97.3278 60.4207 93.6231 56.2858 89.1546 53.1057L87.6175 55.6675C91.6954 58.5973 95.0715 62.3964 97.502 66.7902Z" fill="#E0DFE6"></path> <path d="M46.7137 35.0692C45.2985 35.0692 43.9412 35.6314 42.9405 36.6321C41.9397 37.6328 41.3776 38.9901 41.3776 40.4053V53.2121C41.3776 54.6273 41.9397 55.9846 42.9405 56.9853C43.9412 57.9861 45.2985 58.5483 46.7137 58.5483C48.129 58.5483 49.4862 57.9861 50.4869 56.9853C51.4877 55.9846 52.0499 54.6273 52.0499 53.2121V40.4053C52.0499 38.9901 51.4877 37.6328 50.4869 36.6321C49.4862 35.6314 48.129 35.0692 46.7137 35.0692Z" fill="#3A3A3A"></path> <path d="M46.7137 1.06791e-07C45.2985 1.06791e-07 43.9412 0.562148 42.9405 1.56287C41.9397 2.5636 41.3776 3.92092 41.3776 5.33616V20.0853C41.3776 21.5005 41.9397 22.8578 42.9405 23.8585C43.9412 24.8593 45.2985 25.4214 46.7137 25.4214C48.129 25.4214 49.4862 24.8593 50.4869 23.8585C51.4877 22.8578 52.0499 21.5005 52.0499 20.0853V5.44286C52.0641 4.73317 51.9365 4.02778 51.6747 3.368C51.4129 2.70821 51.0221 2.10733 50.5252 1.60046C50.0283 1.09359 49.4352 0.690922 48.7807 0.416106C48.1263 0.14129 47.4235 -0.000141873 46.7137 1.06791e-07Z" fill="#3A3A3A"></path> <path d="M25.9764 23.9062H5.33616C3.92092 23.9062 2.56365 24.4684 1.56293 25.4691C0.562205 26.4699 0 27.8271 0 29.2424C0 30.6576 0.562205 32.0149 1.56293 33.0156C2.56365 34.0163 3.92092 34.5785 5.33616 34.5785H25.9764C27.3917 34.5785 28.7489 34.0163 29.7497 33.0156C30.7504 32.0149 31.3126 30.6576 31.3126 29.2424C31.3126 27.8271 30.7504 26.4699 29.7497 25.4691C28.7489 24.4684 27.3917 23.9062 25.9764 23.9062Z" fill="#3A3A3A"></path> <path d="M88.0808 23.9062H65.8183C64.403 23.9062 63.0458 24.4684 62.045 25.4691C61.0443 26.4699 60.4821 27.8271 60.4821 29.2424C60.4821 30.6576 61.0443 32.0149 62.045 33.0156C63.0458 34.0163 64.403 34.5785 65.8183 34.5785H88.0808C89.496 34.5785 90.8533 34.0163 91.854 33.0156C92.8547 32.0149 93.4169 30.6576 93.4169 29.2424C93.4169 27.8271 92.8547 26.4699 91.854 25.4691C90.8533 24.4684 89.496 23.9062 88.0808 23.9062Z" fill="#3A3A3A"></path> </svg> 