<?xml version="1.0" encoding="UTF-8"?> <svg xmlns="http://www.w3.org/2000/svg" width="283" height="591" viewBox="0 0 283 591" fill="none"> <path d="M278.913 227.329V587.348L3.67771 428.418V3.66458L222.832 130.191L227.048 188.405L278.913 227.329Z" fill="white"></path> <path d="M222.83 130.191L278.912 227.328L227.046 188.405L222.83 130.191Z" fill="white"></path> <path d="M278.912 231.128C278.115 231.137 277.338 230.878 276.706 230.392L224.816 191.469C224.4 191.151 224.055 190.749 223.806 190.288C223.557 189.828 223.408 189.319 223.37 188.797L219.154 130.583C219.118 130.1 219.178 129.615 219.33 129.156C219.482 128.696 219.724 128.271 220.04 127.904C220.357 127.538 220.742 127.237 221.174 127.02C221.607 126.802 222.078 126.672 222.561 126.637C223.043 126.602 223.529 126.662 223.988 126.814C224.448 126.966 224.873 127.207 225.24 127.523C225.606 127.84 225.907 128.225 226.124 128.658C226.342 129.09 226.472 129.561 226.507 130.044L230.6 186.591L281.143 224.51C281.923 225.095 282.438 225.966 282.576 226.931C282.714 227.897 282.463 228.877 281.877 229.657C281.538 230.123 281.092 230.5 280.575 230.756C280.059 231.012 279.488 231.14 278.912 231.128Z" fill="#3A3A3A"></path> <path d="M278.912 591C278.266 591.009 277.63 590.839 277.074 590.51L1.83833 431.604C1.28073 431.279 0.817959 430.814 0.495489 430.255C0.173018 429.696 0.00205268 429.063 0 428.417V3.6641C0.004478 3.0193 0.17625 2.38669 0.498481 1.82816C0.820711 1.26963 1.28237 0.804471 1.83833 0.477835C2.40036 0.164444 3.03317 0 3.67667 0C4.32016 0 4.95298 0.164444 5.515 0.477835L224.669 127.004C225.227 127.33 225.692 127.794 226.018 128.352L282.099 225.49C282.417 226.05 282.586 226.683 282.589 227.328V587.323C282.589 587.969 282.42 588.603 282.097 589.163C281.774 589.722 281.31 590.187 280.751 590.51C280.195 590.839 279.558 591.009 278.912 591ZM7.35334 426.31L275.236 580.975V228.333L220.233 132.887L7.45148 10.0372L7.35334 426.31Z" fill="#3A3A3A"></path> <path d="M190.181 182.105C201.971 188.919 211.506 205.464 211.506 219.068C211.506 232.672 201.971 238.211 190.181 231.324C183.64 227.228 178.296 221.479 174.69 214.656L190.181 206.69L178.661 179.286C182.711 178.873 186.78 179.869 190.181 182.105Z" fill="white"></path> <path d="M178.564 179.336L190.084 206.739L174.593 214.705C170.988 208.514 168.983 201.522 168.759 194.361C168.759 185.708 172.755 180.316 178.564 179.336Z" fill="#3A3A3A"></path> <path d="M126.256 145.192C138.021 151.981 147.581 168.551 147.581 182.13C147.581 189.924 144.468 195.047 139.615 196.837L126.256 169.874L108.682 173.674C106.372 168.622 105.128 163.148 105.03 157.594C105.03 143.893 114.466 138.377 126.256 145.192Z" fill="white"></path> <path d="M126.256 169.85L139.615 196.812C137.356 197.423 134.991 197.535 132.685 197.141C130.378 196.747 128.185 195.857 126.256 194.533C118.422 189.529 112.293 182.264 108.682 173.698L126.256 169.85Z" fill="#3A3A3A"></path> <path d="M78.8277 126.808C81.8451 132.498 83.5219 138.803 83.7299 145.241C83.7299 158.844 74.1707 164.359 62.4054 157.496C50.64 150.633 41.0557 134.162 41.0557 120.558C41.0557 108.768 48.2376 103.033 57.8215 106.145L62.4054 132.863L78.8277 126.808Z" fill="white"></path> <path d="M78.8278 126.808L62.3319 132.912L57.748 106.194C59.3426 106.732 60.8786 107.43 62.3319 108.278C69.4564 112.789 75.1718 119.209 78.8278 126.808Z" fill="#3A3A3A"></path> <path d="M224.178 290.2V305.348L65.6398 213.798V198.651L224.178 290.2Z" fill="white"></path> <path d="M224.178 309.024C223.53 309.024 222.894 308.846 222.34 308.509L63.8015 216.985C63.2405 216.664 62.775 216.199 62.4521 215.64C62.1291 215.08 61.9602 214.445 61.9632 213.798V198.65C61.9595 198.007 62.1282 197.375 62.4515 196.819C62.7747 196.263 63.2408 195.803 63.8015 195.488C64.3596 195.163 64.9939 194.992 65.6398 194.992C66.2857 194.992 66.9201 195.163 67.4782 195.488L226.017 287.013C226.576 287.336 227.04 287.8 227.362 288.36C227.685 288.919 227.855 289.553 227.855 290.199V305.347C227.853 305.989 227.683 306.62 227.36 307.175C227.037 307.73 226.574 308.19 226.017 308.509C225.463 308.846 224.827 309.024 224.178 309.024ZM69.3165 211.69L220.502 298.974V292.405L69.3165 205.121V211.69Z" fill="#3A3A3A"></path> <path d="M197.608 322.113V337.261L65.6398 261.056V245.908L197.608 322.113Z" fill="white"></path> <path d="M197.608 340.938C196.963 340.935 196.33 340.766 195.77 340.447L63.8015 264.242C63.2405 263.921 62.775 263.457 62.4521 262.897C62.1291 262.337 61.9602 261.702 61.9632 261.056V245.834C61.9595 245.191 62.1282 244.559 62.4515 244.003C62.7747 243.447 63.2408 242.987 63.8015 242.672C64.3596 242.347 64.9939 242.176 65.6398 242.176C66.2857 242.176 66.9201 242.347 67.4782 242.672L199.446 318.853C200.004 319.178 200.467 319.643 200.789 320.202C201.112 320.761 201.283 321.394 201.285 322.039V337.187C201.28 337.832 201.108 338.465 200.786 339.023C200.464 339.582 200.002 340.047 199.446 340.374C198.892 340.715 198.259 340.909 197.608 340.938ZM69.3165 258.948L193.931 330.888V324.27L69.3165 252.33V258.948Z" fill="#3A3A3A"></path> <path d="M179.126 356.355V371.503L65.6398 305.985V290.837L179.126 356.355Z" fill="white"></path> <path d="M179.126 375.18C178.482 375.177 177.849 375.008 177.288 374.689L63.8015 309.171C63.2405 308.85 62.775 308.386 62.452 307.826C62.1291 307.266 61.9602 306.631 61.9631 305.985V290.837C61.9627 290.191 62.1323 289.557 62.455 288.997C62.7777 288.438 63.2422 287.973 63.8015 287.65C64.3635 287.337 64.9963 287.172 65.6398 287.172C66.2833 287.172 66.9161 287.337 67.4781 287.65L180.965 353.169C181.521 353.495 181.982 353.96 182.305 354.519C182.627 355.077 182.799 355.71 182.803 356.355V371.503C182.801 372.148 182.63 372.782 182.308 373.341C181.985 373.9 181.522 374.364 180.965 374.689C180.404 375.008 179.771 375.177 179.126 375.18ZM69.3165 303.852L175.45 365.13V358.585L69.3165 297.308V303.852Z" fill="#3A3A3A"></path> <path d="M169.714 393.244V408.392L65.6398 348.291V333.143L169.714 393.244Z" fill="white"></path> <path d="M169.714 412.044C169.068 412.053 168.431 411.884 167.876 411.554L63.8015 351.477C63.2405 351.156 62.775 350.692 62.452 350.132C62.1291 349.572 61.9602 348.937 61.9631 348.291V333.143C61.9627 332.497 62.1325 331.863 62.455 331.304C62.7776 330.744 63.2419 330.28 63.8009 329.957C64.3599 329.634 64.9936 329.464 65.6392 329.464C66.2848 329.464 66.919 329.633 67.4781 329.956L171.552 390.058C172.112 390.38 172.576 390.845 172.899 391.404C173.221 391.964 173.391 392.598 173.391 393.244V408.368C173.391 409.013 173.221 409.648 172.899 410.207C172.576 410.767 172.112 411.231 171.552 411.554C170.996 411.884 170.36 412.053 169.714 412.044ZM69.2183 346.158L165.94 402.019V395.352L69.2183 339.516V346.158Z" fill="#3A3A3A"></path> <path d="M156.11 428.884V444.031L65.6398 391.823V376.675L156.11 428.884Z" fill="white"></path> <path d="M156.111 447.708C155.466 447.705 154.833 447.536 154.272 447.218L63.8016 394.984C63.2406 394.663 62.7751 394.199 62.4521 393.639C62.1292 393.08 61.9603 392.444 61.9632 391.798V376.675C61.9577 376.028 62.1253 375.391 62.4485 374.831C62.7718 374.271 63.2389 373.807 63.8016 373.488C64.3597 373.163 64.994 372.992 65.6399 372.992C66.2858 372.992 66.9201 373.163 67.4782 373.488L157.949 425.697C158.505 426.023 158.967 426.489 159.289 427.047C159.611 427.606 159.783 428.239 159.787 428.883V444.031C159.785 444.676 159.614 445.31 159.292 445.869C158.97 446.428 158.507 446.893 157.949 447.218C157.386 447.53 156.755 447.699 156.111 447.708ZM69.3166 389.69L152.434 437.658V431.016L69.3166 383.096V389.69Z" fill="#3A3A3A"></path> <path d="M45.7622 400.254C44.7871 400.254 43.8516 399.867 43.1621 399.178C42.4725 398.488 42.0855 397.553 42.0855 396.578V185.635C42.0855 184.66 42.4725 183.725 43.1621 183.035C43.8516 182.346 44.7871 181.958 45.7622 181.958C46.7373 181.958 47.6722 182.346 48.3617 183.035C49.0512 183.725 49.4388 184.66 49.4388 185.635V396.578C49.4388 397.553 49.0512 398.488 48.3617 399.178C47.6722 399.867 46.7373 400.254 45.7622 400.254Z" fill="#3A3A3A"></path> <path d="M71.866 164.163C67.8401 164.033 63.919 162.85 60.4931 160.732C47.5022 153.231 37.3057 135.608 37.3057 120.607C37.3057 113.254 39.7563 107.616 44.1928 104.381C46.3294 102.941 48.7809 102.036 51.3403 101.742C53.8997 101.448 56.4919 101.772 58.8995 102.689C60.7431 103.324 62.5175 104.145 64.1943 105.14C71.9512 110.003 78.1716 116.963 82.136 125.215C85.4064 131.412 87.1939 138.284 87.3572 145.29C87.3572 153.231 84.4893 159.261 79.2929 162.276C77.0311 163.559 74.466 164.211 71.866 164.163ZM52.7963 109.038C51.2642 109 49.7607 109.456 48.5068 110.337C46.0557 112.151 44.659 115.778 44.659 120.607C44.659 132.863 53.6056 148.256 64.2679 154.359C68.7779 156.982 72.8221 157.496 75.6899 155.854C78.5577 154.212 80.0774 150.437 80.0774 145.241C79.8859 139.388 78.3688 133.656 75.6408 128.475C72.3281 121.499 67.1111 115.603 60.5912 111.464C59.3677 110.738 58.069 110.146 56.7183 109.699C55.4548 109.271 54.1305 109.047 52.7963 109.038Z" fill="#3A3A3A"></path> <path d="M135.742 201.052C131.734 200.924 127.83 199.749 124.417 197.645C115.91 192.253 109.25 184.395 105.324 175.12C102.756 169.591 101.362 163.59 101.23 157.496C101.23 149.554 104.122 143.525 109.319 140.51C114.515 137.495 121.206 138.059 128.094 142.005C141.085 149.506 151.257 167.129 151.257 182.13C151.257 191.175 147.36 197.915 140.816 200.219C139.184 200.783 137.468 201.065 135.742 201.052ZM116.745 145.951C115.435 145.922 114.14 146.244 112.995 146.883C110.152 148.525 108.583 152.3 108.583 157.496C108.705 162.585 109.882 167.593 112.04 172.203C115.322 180.067 120.922 186.744 128.094 191.346C129.573 192.384 131.254 193.099 133.028 193.445C134.801 193.792 136.628 193.761 138.389 193.356C141.894 192.106 143.904 188.062 143.904 182.204C143.904 169.948 134.982 154.53 124.295 148.452C122.034 146.987 119.434 146.126 116.745 145.951Z" fill="#3A3A3A"></path> <path d="M199.741 237.967C195.708 237.85 191.778 236.675 188.343 234.56C181.221 230.138 175.402 223.904 171.48 216.495C167.58 209.779 165.415 202.197 165.18 194.435C165.18 184.214 170.082 177.032 178.073 175.733C182.954 175.148 187.886 176.283 192.02 178.944C205.011 186.444 215.207 204.068 215.207 219.068C215.207 227.034 212.315 233.064 207.118 236.079C204.867 237.345 202.323 237.996 199.741 237.967ZM180.671 182.866C180.198 182.829 179.723 182.829 179.25 182.866C174.985 183.576 172.534 187.768 172.534 194.312C172.756 200.831 174.601 207.192 177.901 212.818C181.202 219.047 186.068 224.31 192.02 228.089C196.53 230.687 200.598 231.226 203.442 229.584C206.285 227.941 207.854 224.167 207.854 218.946C207.854 206.69 198.907 191.273 188.245 185.17C185.957 183.772 183.351 182.979 180.671 182.866Z" fill="#3A3A3A"></path> <path d="M62.3316 136.588C61.6869 136.585 61.0537 136.416 60.4933 136.098C60.0388 135.839 59.6444 135.486 59.3359 135.064C59.0275 134.641 58.8121 134.158 58.704 133.647L54.1202 106.954C54.0027 106.465 53.9869 105.957 54.0735 105.462C54.1601 104.967 54.3477 104.495 54.624 104.075C54.9004 103.655 55.2597 103.296 55.6802 103.02C56.1008 102.744 56.5737 102.558 57.0691 102.472C57.5646 102.387 58.0723 102.404 58.561 102.522C59.0497 102.64 59.5085 102.858 59.9098 103.161C60.3112 103.463 60.6464 103.845 60.8942 104.283C61.1421 104.72 61.2973 105.204 61.3508 105.704L65.1992 128.058L77.4548 123.499C78.3367 123.289 79.2652 123.411 80.0621 123.844C80.859 124.277 81.4678 124.988 81.7718 125.843C82.0758 126.697 82.0534 127.633 81.7089 128.472C81.3645 129.311 80.7225 129.993 79.9059 130.387L63.41 136.49C63.0568 136.573 62.6939 136.606 62.3316 136.588Z" fill="#3A3A3A"></path> <path d="M139.616 200.415C138.929 200.422 138.253 200.235 137.668 199.875C137.083 199.515 136.611 198.997 136.307 198.381L124.223 174.017L109.516 177.228C109.043 177.329 108.554 177.337 108.078 177.249C107.602 177.162 107.148 176.982 106.742 176.719C106.336 176.456 105.985 176.115 105.71 175.717C105.435 175.319 105.242 174.87 105.141 174.397C105.039 173.924 105.032 173.435 105.12 172.959C105.207 172.483 105.388 172.029 105.65 171.623C105.913 171.217 106.253 170.866 106.652 170.592C107.05 170.317 107.498 170.123 107.972 170.022L125.547 166.222C126.346 166.05 127.18 166.149 127.917 166.504C128.654 166.86 129.252 167.45 129.615 168.183L142.974 195.145C143.398 196.017 143.462 197.022 143.15 197.94C142.837 198.858 142.175 199.616 141.307 200.048C140.779 200.299 140.2 200.425 139.616 200.415Z" fill="#3A3A3A"></path> <path d="M174.69 218.382C173.868 218.38 173.07 218.102 172.424 217.594C171.778 217.085 171.321 216.375 171.127 215.576C170.932 214.777 171.011 213.937 171.35 213.188C171.689 212.439 172.27 211.825 172.999 211.445L185.475 205.023L175.278 180.782C175.067 180.334 174.949 179.848 174.931 179.354C174.912 178.859 174.994 178.366 175.171 177.904C175.348 177.442 175.615 177.02 175.959 176.664C176.303 176.308 176.715 176.025 177.17 175.832C177.626 175.639 178.116 175.539 178.611 175.54C179.105 175.541 179.595 175.641 180.05 175.836C180.505 176.03 180.916 176.315 181.259 176.672C181.601 177.029 181.868 177.451 182.043 177.914L193.564 205.293C193.927 206.146 193.955 207.105 193.641 207.978C193.327 208.851 192.696 209.573 191.872 209.999L176.357 217.99C175.84 218.249 175.268 218.383 174.69 218.382Z" fill="#3A3A3A"></path> </svg> 