<?xml version="1.0" encoding="UTF-8"?> <svg xmlns="http://www.w3.org/2000/svg" width="169" height="177" viewBox="0 0 169 177" fill="none"> <path d="M59.8529 174.011C54.8025 174.475 49.2656 174.683 42.9179 174.683H41.1109C41.9912 175.517 42.9177 176.259 43.8444 177C49.8677 177 55.2192 176.745 60.061 176.305L59.8529 174.011Z" fill="#E0DFE6"></path> <path d="M41.5344 165.74C44.5924 165.74 46.9788 165.88 49.2955 166.019C53.5685 166.373 57.8655 166.326 62.1299 165.88L61.8748 163.563C57.7414 163.998 53.5767 164.045 49.4346 163.702C47.1179 163.702 44.6619 163.424 41.5344 163.424C36.4377 163.424 22.3527 163.192 20.3835 163.146C21.3334 163.957 22.3296 164.767 23.3257 165.462C24.2987 165.532 36.5072 165.74 41.5344 165.74Z" fill="#E0DFE6"></path> <path d="M54.8052 153.972C58.4423 154.111 62.4966 154.273 67.7091 154.412V152.095C62.4966 151.956 58.4423 151.794 54.8283 151.655C46.8127 151.354 40.9286 151.145 29.5769 151.145C22.6269 151.145 16.0474 151.145 9.67659 151.331C10.2094 152.095 10.7422 152.86 11.3213 153.647C17.1825 153.647 23.2524 153.485 29.5769 153.485C41.1139 153.462 46.8127 153.67 54.8052 153.972Z" fill="#E0DFE6"></path> <path d="M41.5344 68.4416C44.5924 68.4416 46.9788 68.5808 49.2954 68.7198C53.5685 69.074 57.8654 69.0274 62.1298 68.5807L61.8748 66.264C57.7414 66.699 53.5766 66.7456 49.4346 66.4032C47.1179 66.4032 44.6619 66.1249 41.5344 66.1249C38.4069 66.1249 35.5809 66.1249 32.6156 66.1249C31.3877 66.8431 30.1829 67.6076 29.0014 68.4416C33.1714 68.3952 37.3412 68.4416 41.5344 68.4416Z" fill="#E0DFE6"></path> <path d="M46.5652 108.542H41.9319C33.979 108.275 26.0171 108.508 18.0933 109.237L18.4174 111.554C26.2269 110.854 34.072 110.629 41.9087 110.882H46.542L46.5652 108.542Z" fill="#E0DFE6"></path> <path d="M36.6661 132.474C37.9934 132.404 39.3234 132.404 40.6507 132.474L40.8124 130.157C39.3298 130.157 38.0097 130.157 36.5965 130.157C35.1834 130.157 33.8858 130.157 32.2873 130.157C30.7833 130.052 29.2739 130.052 27.7699 130.157L28.025 132.474C29.4292 132.391 30.8367 132.391 32.2409 132.474C33.8857 132.543 35.3224 132.52 36.6661 132.474Z" fill="#E0DFE6"></path> <path d="M43.0502 118.249C40.7335 118.249 32.2774 118.249 29.3816 118.249C28.5707 118.249 27.8062 118.249 27.0649 118.249C26.3236 118.249 24.7483 118.388 23.1035 118.249V120.566H24.4473C25.5593 120.566 26.4628 120.566 27.2968 120.566C28.1308 120.566 28.7795 120.566 29.6135 120.566C32.5093 120.566 40.9883 120.566 43.5134 120.566L43.0502 118.249Z" fill="#E0DFE6"></path> <path d="M37.6137 143.06C38.8178 143.162 40.0307 143.068 41.2047 142.782L40.5791 140.465C39.6367 140.674 38.6679 140.736 37.7065 140.651C36.8202 140.571 35.9282 140.571 35.042 140.651L35.3666 142.967C36.1169 142.929 36.8691 142.96 37.6137 143.06Z" fill="#E0DFE6"></path> <path d="M12.7185 138.936C8.61797 134.674 4.49433 129.948 0 124.411C0.139 125.87 0.324333 127.307 0.579166 128.743C4.21633 133.121 7.64504 136.991 11.0505 140.535L12.7185 138.936Z" fill="#E0DFE6"></path> <path d="M71.4915 132.242C68.6884 129.184 65.7924 126.01 63.2441 122.72C60.6958 119.431 57.9157 116.164 55.1126 113.152L53.4215 114.728C56.1783 117.693 59.0972 121.122 61.4138 124.133C64.0317 127.516 66.9509 130.713 69.7772 133.794C72.6036 136.875 75.4758 140.026 78.0241 143.339C79.0666 144.682 79.9932 145.956 80.8272 147.254L82.7734 145.98C81.8931 144.636 80.9432 143.316 79.8544 141.926C77.2597 138.659 74.3179 135.346 71.4915 132.242Z" fill="#E0DFE6"></path> <path d="M30.4009 143.293C19.5358 128.327 10.292 115.886 1.72034 104.651C1.46551 105.624 1.21054 106.597 1.00204 107.57C9.27253 118.388 18.1457 130.366 28.5475 144.636L30.4009 143.293Z" fill="#E0DFE6"></path> <path d="M53.199 145.609L55.3301 144.682C53.2719 140.834 50.3451 137.518 46.7818 134.999L45.577 136.968C48.7284 139.246 51.3323 142.198 53.199 145.609Z" fill="#E0DFE6"></path> <path d="M54.818 56.6724C58.4551 56.8114 62.5094 56.9737 67.7219 57.1127V54.796C64.2933 54.796 61.3977 54.6107 58.7567 54.4948C56.7876 55.1667 54.8183 55.8846 52.8491 56.6028L54.818 56.6724Z" fill="#E0DFE6"></path> <path d="M20.9273 100.295C17.384 100.328 13.848 99.963 10.3864 99.2058L9.8768 101.523C13.5051 102.32 17.2126 102.701 20.9273 102.658C24.773 102.658 28.6882 102.334 32.5107 102.009C37.727 101.457 42.9779 101.302 48.2177 101.546L48.3795 99.229C43.0239 98.9844 37.6577 99.1394 32.3251 99.6925C28.549 99.9705 24.6803 100.295 20.9273 100.295Z" fill="#E0DFE6"></path> <path d="M59.6352 98.4727L57.8017 99.8888L92.1836 144.406L94.0171 142.99L59.6352 98.4727Z" fill="#E0DFE6"></path> <path d="M69.7358 145.006C66.3767 140.674 61.3494 134.975 56.9246 129.925L52.2913 124.574L50.5306 126.102L55.1639 131.454C59.5656 136.458 64.5695 142.157 67.8824 146.42L69.7358 145.006Z" fill="#E0DFE6"></path> <path d="M16.0033 79.027L23.4861 79.2586C29.8801 79.4671 36.4597 79.699 42.9232 79.699C49.3867 79.699 54.9465 79.4672 60.0663 79.0038L59.8581 76.6872C54.8078 77.1505 49.2709 77.3591 42.9232 77.3591C36.5755 77.3591 29.9265 77.1273 23.5788 76.9188L18.2736 76.7568C17.5091 77.4981 16.7446 78.2394 16.0033 79.027Z" fill="#E0DFE6"></path> <path d="M52.1452 89.4061H8.12859C7.85059 89.8462 7.57237 90.2402 7.31753 90.6804L6.78475 91.7227H52.0988L52.1452 89.4061Z" fill="#E0DFE6"></path> <path d="M164.009 89.5684C166.905 93.4836 163.407 102.588 157.777 105.785L79.3349 151.052C78.6101 151.588 77.7555 151.92 76.8593 152.013C75.9631 152.107 75.0581 151.959 74.2383 151.585H74.0528C71.991 150.242 71.3425 146.581 73.1264 142.087L112.347 43.7911C114.826 37.5361 120.432 33.7599 123.676 35.59C124.115 35.8461 124.495 36.1936 124.788 36.6092L164.009 89.5684Z" fill="#3A3A3A"></path> <path d="M68.9422 3.94446L123.662 35.5438C120.442 33.6905 114.812 37.4899 112.333 43.7449L73.1123 142.041C71.3284 146.535 71.9769 150.196 74.0387 151.539L19.5275 120.125C17.2109 118.851 16.5854 115.121 18.4156 110.511L57.6371 12.2151C60.1391 5.89061 65.7683 2.09113 68.9422 3.94446Z" fill="white"></path> <path d="M76.1409 155.616C74.8736 155.623 73.6269 155.296 72.5267 154.667L72.3412 154.551C68.4492 152.026 67.5689 146.651 70.0246 140.767L109.246 42.4473C110.069 40.1576 111.357 38.0626 113.027 36.2928C114.697 34.523 116.715 33.1166 118.953 32.1615C120.011 31.7445 121.147 31.5616 122.283 31.6256C123.419 31.6896 124.527 31.9987 125.532 32.5319C126.393 33.021 127.137 33.6934 127.71 34.5013L166.931 87.5066C167.77 88.7889 168.329 90.2332 168.572 91.746C168.816 93.2588 168.738 94.8059 168.344 96.2866C167.814 98.8562 166.773 101.293 165.28 103.45C163.787 105.608 161.874 107.442 159.656 108.843L81.2142 154.134C79.6918 155.086 77.9363 155.598 76.1409 155.616ZM76.0017 148.666C76.5853 148.666 77.1535 148.48 77.6233 148.134L156.066 102.866C158.81 100.998 160.726 98.1434 161.417 94.8966C161.743 93.8357 161.677 92.693 161.232 91.6764L122.01 38.648C121.176 38.3236 117.539 40.177 115.593 45.042L76.3722 143.292C75.0517 146.605 75.7006 148.435 76.0017 148.643V148.666Z" fill="#3A3A3A"></path> <path d="M74.2732 155.13C73.6638 155.128 73.0654 154.968 72.5357 154.667L17.7926 123.068C13.8311 120.751 12.7889 115.191 15.1982 109.168L54.4192 10.8485C55.2481 8.55159 56.5423 6.45041 58.2205 4.67652C59.8988 2.90264 61.9247 1.49434 64.1723 0.539499C65.2242 0.125362 66.3542 -0.0539626 67.4827 0.0140644C68.6111 0.0820914 69.7109 0.395929 70.7054 0.933434L125.448 32.5325C126.247 32.9933 126.83 33.7526 127.069 34.6433C127.308 35.5339 127.183 36.483 126.722 37.2818C126.261 38.0805 125.502 38.6635 124.611 38.9025C123.721 39.1414 122.772 39.0168 121.973 38.556L67.2536 6.9567C66.4659 6.70187 62.8056 8.60137 60.8596 13.4432L21.6618 111.739C20.3645 114.983 20.9896 116.836 21.2676 117.045L76.0107 148.644C76.6742 149.026 77.1928 149.616 77.4863 150.323C77.7798 151.031 77.8315 151.815 77.6333 152.554C77.4352 153.294 76.9984 153.948 76.3907 154.414C75.783 154.879 75.0388 155.131 74.2732 155.13Z" fill="#3A3A3A"></path> </svg> 