<svg id="power-bi-2020" xmlns="http://www.w3.org/2000/svg" xmlns:xlink="http://www.w3.org/1999/xlink" width="199.681" height="68.782" viewBox="0 0 199.681 68.782">
  <defs>
    <linearGradient id="linear-gradient" x1="-0.201" y1="1.008" x2="1.118" y2="0.076" gradientUnits="objectBoundingBox">
      <stop offset="0" stop-color="#e6ad10"/>
      <stop offset="1" stop-color="#c87e0e"/>
    </linearGradient>
    <linearGradient id="linear-gradient-2" x1="-0.083" y1="0.665" x2="1.026" y2="-0.292" gradientUnits="objectBoundingBox">
      <stop offset="0" stop-color="#f6d751"/>
      <stop offset="1" stop-color="#e6ad10"/>
    </linearGradient>
    <linearGradient id="linear-gradient-3" x1="0.138" y1="0.064" x2="0.751" y2="-0.904" gradientUnits="objectBoundingBox">
      <stop offset="0" stop-color="#f9e589"/>
      <stop offset="1" stop-color="#f6d751"/>
    </linearGradient>
  </defs>
  <path id="Path_15148" data-name="Path 15148" d="M186.7,68.751v9.322h-2.9V53.4h6.783a8.76,8.76,0,0,1,6.109,1.944,6.932,6.932,0,0,1,2.182,5.434,7.463,7.463,0,0,1-2.42,5.752,9.126,9.126,0,0,1-6.505,2.221Zm0-12.733V66.133h3.015a6.737,6.737,0,0,0,4.562-1.349,4.874,4.874,0,0,0,1.587-3.848c0-3.253-1.9-4.879-5.791-4.879H186.7Zm22.967,22.451a8.183,8.183,0,0,1-6.228-2.459,9.115,9.115,0,0,1-2.34-6.545,9.486,9.486,0,0,1,2.42-6.942,8.667,8.667,0,0,1,6.545-2.5,7.865,7.865,0,0,1,6.148,2.42,9.625,9.625,0,0,1,2.221,6.7,9.46,9.46,0,0,1-2.38,6.743,8.6,8.6,0,0,1-6.386,2.578Zm.2-16.065a5.3,5.3,0,0,0-4.284,1.864,7.7,7.7,0,0,0-1.587,5.077,7.057,7.057,0,0,0,1.587,4.919,5.453,5.453,0,0,0,4.284,1.825,5.151,5.151,0,0,0,4.2-1.785,7.63,7.63,0,0,0,1.468-5.038,7.747,7.747,0,0,0-1.468-5.077,5.2,5.2,0,0,0-4.2-1.785Zm34.748-1.944-5.276,17.612H236.4l-3.61-12.614a9.234,9.234,0,0,1-.278-1.626h-.079a10.257,10.257,0,0,1-.357,1.587l-3.927,12.614h-2.816l-5.355-17.612h2.975L226.6,73.67a7.086,7.086,0,0,1,.238,1.587h.119a7.856,7.856,0,0,1,.317-1.626l4.046-13.209H233.9l3.649,13.249a7.916,7.916,0,0,1,.238,1.587h.119a9.574,9.574,0,0,1,.278-1.587l3.57-13.249h2.777Zm16.9,9.48H249.052a6.559,6.559,0,0,0,1.587,4.522,5.351,5.351,0,0,0,4.125,1.587,8.644,8.644,0,0,0,5.474-1.944v2.658a10.35,10.35,0,0,1-6.148,1.666,7.479,7.479,0,0,1-5.871-2.38,9.759,9.759,0,0,1-2.142-6.743,9.651,9.651,0,0,1,2.34-6.7,7.533,7.533,0,0,1,5.791-2.578,6.712,6.712,0,0,1,5.355,2.221,9.308,9.308,0,0,1,1.9,6.188V69.9Zm-2.9-2.38a5.615,5.615,0,0,0-1.19-3.808,4.055,4.055,0,0,0-3.213-1.388,4.385,4.385,0,0,0-3.372,1.428,6.405,6.405,0,0,0-1.706,3.729Zm16.144-4.244a3.291,3.291,0,0,0-2.142-.555,3.56,3.56,0,0,0-3.015,1.706,8.044,8.044,0,0,0-1.23,4.641v8.965h-2.777V60.461h2.816v3.61h.079a6.5,6.5,0,0,1,1.825-2.9,4.1,4.1,0,0,1,2.777-1.031,4.49,4.49,0,0,1,1.666.238v2.935Zm13.09,14.716V53.4h7.021a7.76,7.76,0,0,1,5.077,1.547,5.123,5.123,0,0,1,1.864,4.086,5.922,5.922,0,0,1-4.284,5.831v.079a6.337,6.337,0,0,1,3.967,1.864A5.8,5.8,0,0,1,303,70.933a6.456,6.456,0,0,1-2.261,5.117,8.386,8.386,0,0,1-5.712,1.944C295.025,78.033,287.845,78.033,287.845,78.033Zm2.9-22.015v7.933h2.975a5.661,5.661,0,0,0,3.729-1.15,3.946,3.946,0,0,0,1.388-3.213c0-2.38-1.587-3.61-4.72-3.61Zm0,10.551v8.885h3.927a5.809,5.809,0,0,0,3.927-1.19,4.042,4.042,0,0,0,1.388-3.292c0-2.9-1.983-4.363-5.95-4.363Zm19.833,11.464h-2.9V53.4h2.9Z" transform="translate(-110.893 -32.218)" fill="#333"/>
  <g id="Group_2655" data-name="Group 2655">
    <g id="Group_2654" data-name="Group 2654">
      <path id="Path_15149" data-name="Path 15149" d="M93.251,0V67.354H70.8V0Z" transform="translate(-42.716)" fill="url(#linear-gradient)"/>
      <g id="Group_2651" data-name="Group 2651" transform="translate(14.042 17.136)">
        <g id="Group_2650" data-name="Group 2650">
          <path id="Path_15150" data-name="Path 15150" d="M57.851,45.977V93.7H35.4V43.2H55.035A2.793,2.793,0,0,1,57.851,45.977Z" transform="translate(-35.4 -43.2)" opacity="0.2"/>
        </g>
      </g>
      <g id="Group_2653" data-name="Group 2653" transform="translate(14.042 18.247)">
        <g id="Group_2652" data-name="Group 2652">
          <path id="Path_15151" data-name="Path 15151" d="M57.851,48.816V96.535H35.4V46H55.035A2.827,2.827,0,0,1,57.851,48.816Z" transform="translate(-35.4 -46)" opacity="0.18"/>
        </g>
      </g>
      <path id="Path_15152" data-name="Path 15152" d="M57.851,45.277V93H35.4V42.5H55.035A2.793,2.793,0,0,1,57.851,45.277Z" transform="translate(-21.358 -25.642)" fill="url(#linear-gradient-2)"/>
      <path id="Path_15153" data-name="Path 15153" d="M0,84.9v33.677H22.451V87.716A2.827,2.827,0,0,0,19.635,84.9Z" transform="translate(0 -51.223)" fill="url(#linear-gradient-3)"/>
    </g>
  </g>
</svg>
