<svg id="Layer_2" data-name="Layer 2" xmlns="http://www.w3.org/2000/svg" width="106.22" height="27.822" viewBox="0 0 106.22 27.822">
  <g id="Layer_1" data-name="Layer 1">
    <path id="Path_14928" data-name="Path 14928" d="M0,0H106.219V27.822H0Z" fill="#d40000"/>
    <path id="Path_14929" data-name="Path 14929" d="M14.993,14.683H30.352v1.994L17.989,31.822H30.655v2.2H14.69V32.03L27.052,16.885H14.993ZM41.046,17.26,37.452,26.9h7.19Zm-1.5-2.578h3l7.447,19.342H47.243l-1.778-4.962H36.653l-1.781,4.962H32.081ZM55.478,24.788v7.086h4.243a4.886,4.886,0,0,0,3.175-.866,3.235,3.235,0,0,0,1.022-2.67,3.3,3.3,0,0,0-1.028-2.676,4.88,4.88,0,0,0-3.175-.866Zm0-7.955v5.831h3.917a4.758,4.758,0,0,0,2.886-.719,2.585,2.585,0,0,0,.95-2.194,2.579,2.579,0,0,0-.95-2.188,4.742,4.742,0,0,0-2.886-.727H55.478Zm-2.644-2.15h6.757a7.577,7.577,0,0,1,4.662,1.244,4.175,4.175,0,0,1,1.634,3.539,4.416,4.416,0,0,1-.837,2.826,3.77,3.77,0,0,1-2.462,1.31,5.152,5.152,0,0,1,3.031,1.732A5,5,0,0,1,66.7,28.618a4.8,4.8,0,0,1-1.781,4,7.986,7.986,0,0,1-5.06,1.4H52.84Zm20.756,10.1v7.089h4.246a4.886,4.886,0,0,0,3.175-.866,3.235,3.235,0,0,0,1.022-2.67,3.3,3.3,0,0,0-1.028-2.676A4.88,4.88,0,0,0,77.83,24.8Zm0-7.955v5.831h3.917a4.758,4.758,0,0,0,2.886-.719,2.585,2.585,0,0,0,.95-2.194,2.572,2.572,0,0,0-.95-2.188,4.748,4.748,0,0,0-2.886-.727H73.593Zm-2.644-2.15H77.7a7.577,7.577,0,0,1,4.662,1.244A4.182,4.182,0,0,1,84,19.463a4.416,4.416,0,0,1-.837,2.826A3.77,3.77,0,0,1,80.7,23.6a5.152,5.152,0,0,1,3.031,1.732,5,5,0,0,1,1.082,3.285,4.8,4.8,0,0,1-1.781,4,8,8,0,0,1-5.063,1.406H70.949Zm25.77,0H99.64l4.6,6.945,4.638-6.942h2.811l-6.061,9.06,6.806,10.281h-2.91l-5.354-8.082-5.409,8.082H95.948l6.821-10.209Zm-7.661,0H91.7V34.019H89.055Z" transform="translate(-10.45 -10.443)" fill="#fff"/>
  </g>
</svg>
