<svg xmlns="http://www.w3.org/2000/svg" xmlns:xlink="http://www.w3.org/1999/xlink" width="500" zoomAndPan="magnify" viewBox="0 0 375 374.999991" height="500" preserveAspectRatio="xMidYMid meet" version="1.0"><defs><g/><clipPath id="9bf945a25e"><path d="M 76.257812 133.476562 L 299.007812 133.476562 L 299.007812 224.226562 L 76.257812 224.226562 Z M 76.257812 133.476562 " clip-rule="nonzero"/></clipPath><clipPath id="b80ce91caf"><path d="M 89.773438 133.476562 L 285.492188 133.476562 C 289.078125 133.476562 292.515625 134.894531 295.046875 137.421875 C 297.582031 139.949219 299.007812 143.378906 299.007812 146.953125 L 299.007812 210.75 C 299.007812 214.324219 297.582031 217.75 295.046875 220.277344 C 292.515625 222.804688 289.078125 224.226562 285.492188 224.226562 L 89.773438 224.226562 C 86.1875 224.226562 82.75 222.804688 80.214844 220.277344 C 77.679688 217.75 76.257812 214.324219 76.257812 210.75 L 76.257812 146.953125 C 76.257812 143.378906 77.679688 139.949219 80.214844 137.421875 C 82.75 134.894531 86.1875 133.476562 89.773438 133.476562 " clip-rule="nonzero"/></clipPath><clipPath id="59a806bf47"><path d="M 179.511719 125.371094 L 301.761719 125.371094 L 301.761719 195.871094 L 179.511719 195.871094 Z M 179.511719 125.371094 " clip-rule="nonzero"/></clipPath><clipPath id="81bda73f19"><path d="M 287.480469 178.929688 L 301.730469 178.929688 L 301.730469 224.679688 L 287.480469 224.679688 Z M 287.480469 178.929688 " clip-rule="nonzero"/></clipPath><clipPath id="8c443fd0c5"><path d="M 92 203 L 106 203 L 106 216.726562 L 92 216.726562 Z M 92 203 " clip-rule="nonzero"/></clipPath><clipPath id="6934f7816d"><path d="M 132 203 L 146 203 L 146 216.726562 L 132 216.726562 Z M 132 203 " clip-rule="nonzero"/></clipPath><clipPath id="b2e75f05f5"><path d="M 87.707031 182 L 129 182 L 129 199 L 87.707031 199 Z M 87.707031 182 " clip-rule="nonzero"/></clipPath><clipPath id="8a4e14c099"><path d="M 200 133.476562 L 207 133.476562 L 207 146 L 200 146 Z M 200 133.476562 " clip-rule="nonzero"/></clipPath><clipPath id="9f96c553f0"><path d="M 208 133.476562 L 214.457031 133.476562 L 214.457031 146 L 208 146 Z M 208 133.476562 " clip-rule="nonzero"/></clipPath></defs><rect x="-37.5" width="450" fill="#ffffff" y="-37.499999" height="449.999989" fill-opacity="1"/><rect x="-37.5" width="450" fill="#ffffff" y="-37.499999" height="449.999989" fill-opacity="1"/><rect x="-37.5" width="450" fill="#212a37" y="-37.499999" height="449.999989" fill-opacity="1"/><g clip-path="url(#9bf945a25e)"><g clip-path="url(#b80ce91caf)"><path stroke-linecap="butt" transform="matrix(0.750909, 0, 0, 0.748743, 76.257597, 133.47585)" fill="none" stroke-linejoin="miter" d="M 17.999315 0.000952082 L 278.641883 0.000952082 C 283.417348 0.000952082 287.995135 1.894751 291.366051 5.2702 C 294.742169 8.645649 296.640911 13.226243 296.640911 17.999868 L 296.640911 103.205173 C 296.640911 107.978798 294.742169 112.554175 291.366051 115.929624 C 287.995135 119.305073 283.417348 121.204089 278.641883 121.204089 L 17.999315 121.204089 C 13.22385 121.204089 8.646063 119.305073 5.269944 115.929624 C 1.893826 112.554175 0.000286863 107.978798 0.000286863 103.205173 L 0.000286863 17.999868 C 0.000286863 13.226243 1.893826 8.645649 5.269944 5.2702 C 8.646063 1.894751 13.22385 0.000952082 17.999315 0.000952082 " stroke="#fab635" stroke-width="10" stroke-opacity="1" stroke-miterlimit="4"/></g></g><g clip-path="url(#59a806bf47)"><path fill="#212a37" d="M 179.515625 125.371094 L 301.757812 125.371094 L 301.757812 195.871094 L 179.515625 195.871094 L 179.515625 125.371094 " fill-opacity="1" fill-rule="nonzero"/></g><g clip-path="url(#81bda73f19)"><path fill="#212a37" d="M 287.480469 178.933594 L 301.730469 178.933594 L 301.730469 224.671875 L 287.480469 224.671875 L 287.480469 178.933594 " fill-opacity="1" fill-rule="nonzero"/></g><g clip-path="url(#8c443fd0c5)"><path fill="#fab635" d="M 101.589844 210.679688 C 101.332031 211.867188 100.28125 212.765625 98.996094 212.765625 C 97.53125 212.765625 96.335938 211.585938 96.335938 210.105469 C 96.335938 208.636719 97.53125 207.449219 98.996094 207.449219 C 99.386719 207.449219 99.761719 207.539062 100.082031 207.683594 C 101.015625 208.089844 101.648438 209.027344 101.648438 210.105469 C 101.648438 210.296875 101.636719 210.496094 101.589844 210.679688 Z M 101.769531 203.953125 C 100.925781 203.578125 99.992188 203.363281 98.996094 203.363281 C 95.269531 203.363281 92.25 206.386719 92.25 210.105469 C 92.25 213.835938 95.269531 216.859375 98.996094 216.859375 C 102.222656 216.859375 104.929688 214.585938 105.589844 211.542969 C 105.679688 211.085938 105.738281 210.605469 105.738281 210.105469 C 105.738281 207.367188 104.109375 205.015625 101.769531 203.953125 " fill-opacity="1" fill-rule="nonzero"/></g><g clip-path="url(#6934f7816d)"><path fill="#fab635" d="M 141.621094 210.679688 C 141.363281 211.867188 140.308594 212.765625 139.027344 212.765625 C 137.558594 212.765625 136.375 211.585938 136.375 210.105469 C 136.375 208.636719 137.558594 207.449219 139.027344 207.449219 C 139.417969 207.449219 139.792969 207.539062 140.132812 207.683594 C 141.046875 208.089844 141.679688 209.027344 141.679688 210.105469 C 141.679688 210.296875 141.664062 210.496094 141.621094 210.679688 Z M 145.648438 208.851562 C 145.074219 205.722656 142.328125 203.363281 139.027344 203.363281 C 135.3125 203.363281 132.292969 206.386719 132.292969 210.105469 C 132.292969 210.605469 132.34375 211.085938 132.445312 211.542969 C 133.09375 214.585938 135.800781 216.859375 139.027344 216.859375 C 142.253906 216.859375 144.957031 214.585938 145.621094 211.542969 C 145.636719 211.476562 145.648438 211.417969 145.648438 211.359375 C 145.722656 210.953125 145.769531 210.523438 145.769531 210.105469 C 145.769531 209.683594 145.722656 209.257812 145.648438 208.851562 " fill-opacity="1" fill-rule="nonzero"/></g><path fill="#d9d9d9" d="M 145.648438 198.445312 L 145.648438 208.859375 C 145.066406 205.730469 142.328125 203.363281 139.027344 203.363281 C 135.304688 203.363281 132.292969 206.386719 132.292969 210.105469 C 132.292969 210.597656 132.34375 211.078125 132.441406 211.542969 L 105.585938 211.542969 C 105.679688 211.078125 105.738281 210.597656 105.738281 210.105469 C 105.738281 207.367188 104.101562 205.015625 101.769531 203.953125 L 101.945312 203.777344 C 103.925781 201.785156 106.675781 198.445312 109.710938 198.445312 L 145.648438 198.445312 " fill-opacity="1" fill-rule="nonzero"/><g clip-path="url(#b2e75f05f5)"><path fill="#d9d9d9" d="M 128.496094 198.011719 L 87.703125 198.011719 L 87.703125 182.332031 L 114.484375 182.332031 C 122.226562 182.332031 128.496094 188.609375 128.496094 196.351562 L 128.496094 198.011719 " fill-opacity="1" fill-rule="nonzero"/></g><path fill="#fab635" d="M 201.875 145.714844 L 201.742188 141.488281 L 194.511719 141.332031 L 194.492188 141.578125 L 194.5 141.328125 L 90.15625 176.019531 L 90.15625 182.332031 L 102.761719 182.503906 L 194.246094 145.957031 L 201.875 145.714844 " fill-opacity="1" fill-rule="nonzero"/><g clip-path="url(#8a4e14c099)"><path fill="#d9d9d9" d="M 200.53125 133.539062 L 206.683594 133.539062 L 206.683594 145.800781 L 200.53125 145.800781 L 200.53125 133.539062 " fill-opacity="1" fill-rule="nonzero"/></g><g clip-path="url(#9f96c553f0)"><path fill="#d9d9d9" d="M 214.457031 133.539062 L 214.457031 145.800781 L 208.195312 145.800781 L 208.195312 133.539062 L 214.457031 133.539062 " fill-opacity="1" fill-rule="nonzero"/></g><g fill="#d9d9d9" fill-opacity="1"><g transform="translate(154.446776, 208.403818)"><g><path d="M 10.53125 -9.476562 C 14.5 -10.042969 16.632812 -11.773438 16.632812 -14.257812 C 16.632812 -16.632812 14.632812 -18.226562 9.261719 -18.226562 L 0.863281 -18.226562 L 0.863281 -18.0625 L 2.320312 -16.660156 L 2.320312 -1.566406 L 0.863281 -0.160156 L 0.863281 0 L 8.746094 0 C 14.714844 0 17.578125 -2.835938 17.578125 -5.425781 C 17.578125 -7.777344 15.902344 -9.828125 10.503906 -9.289062 Z M 8.398438 -17.765625 C 11.097656 -17.765625 11.339844 -15.769531 11.339844 -13.660156 C 11.339844 -11.015625 10.773438 -9.640625 8.34375 -9.613281 L 7.53125 -9.613281 L 7.53125 -17.765625 Z M 8.398438 -0.460938 C 7.804688 -0.433594 7.75 -0.460938 7.53125 -0.484375 L 7.53125 -9.125 L 8.425781 -9.125 C 10.664062 -9.125 11.933594 -8.101562 11.933594 -4.886719 C 11.933594 -1.835938 10.773438 -0.539062 8.398438 -0.460938 Z M 8.398438 -0.460938 "/></g></g></g><g fill="#d9d9d9" fill-opacity="1"><g transform="translate(174.318817, 208.403818)"><g><path d="M 5.425781 -18.226562 L 5.425781 -18.0625 L 6.589844 -14.796875 L 0.1875 -0.160156 L 0.1875 0 L 7.101562 0 L 7.101562 -0.160156 C 5.886719 -1.539062 5.210938 -3.753906 5.15625 -6.316406 L 9.585938 -6.316406 L 11.203125 -1.566406 L 9.828125 -0.160156 L 9.828125 0 L 17.144531 0 L 17.144531 -0.160156 L 10.988281 -18.226562 Z M 5.15625 -6.804688 C 5.210938 -8.53125 5.535156 -10.421875 6.183594 -12.285156 L 6.804688 -14.039062 L 6.964844 -14.039062 L 9.421875 -6.804688 Z M 5.15625 -6.804688 "/></g></g></g><g fill="#d9d9d9" fill-opacity="1"><g transform="translate(193.434849, 208.403818)"><g><path d="M 12.339844 -16.550781 L 13.714844 -18.0625 L 13.714844 -18.226562 L 5.671875 -18.226562 L 5.671875 -18.0625 L 7.046875 -16.550781 L 7.046875 -5.671875 C 7.046875 -1.511719 7.019531 -0.296875 6.15625 -0.296875 C 4.265625 -0.296875 4.292969 -6.992188 4.617188 -9.316406 L 4.453125 -9.394531 L 0.136719 -2.914062 C 1.457031 -0.484375 3.160156 0.378906 5.265625 0.378906 C 7.9375 0.378906 12.339844 -4.132812 12.339844 -5.722656 Z M 12.339844 -16.550781 "/></g></g></g><g fill="#d9d9d9" fill-opacity="1"><g transform="translate(209.364881, 208.403818)"><g><path d="M 9.421875 -8.746094 L 9.421875 -8.9375 C 15.148438 -9.640625 16.984375 -11.90625 16.984375 -14.175781 C 16.984375 -17.359375 13.582031 -18.226562 9.476562 -18.226562 L 0.890625 -18.226562 L 0.890625 -18.0625 L 2.347656 -16.660156 L 2.320312 -1.675781 L 0.917969 -0.160156 L 0.917969 0 L 8.992188 0 L 8.992188 -0.160156 L 7.585938 -1.675781 L 7.585938 -8.910156 L 8.207031 -8.910156 L 11.71875 -1.566406 L 10.367188 -0.160156 L 10.367188 0 L 17.902344 0 L 17.902344 -0.242188 L 13.339844 -8.910156 Z M 7.585938 -17.738281 L 8.667969 -17.738281 C 10.960938 -17.738281 11.449219 -15.957031 11.449219 -13.878906 C 11.449219 -11.878906 11.152344 -9.394531 8.398438 -9.394531 L 7.585938 -9.394531 Z M 7.585938 -17.738281 "/></g></g></g><g fill="#d9d9d9" fill-opacity="1"><g transform="translate(229.371916, 208.403818)"><g><path d="M 5.425781 -18.226562 L 5.425781 -18.0625 L 6.589844 -14.796875 L 0.1875 -0.160156 L 0.1875 0 L 7.101562 0 L 7.101562 -0.160156 C 5.886719 -1.539062 5.210938 -3.753906 5.15625 -6.316406 L 9.585938 -6.316406 L 11.203125 -1.566406 L 9.828125 -0.160156 L 9.828125 0 L 17.144531 0 L 17.144531 -0.160156 L 10.988281 -18.226562 Z M 5.15625 -6.804688 C 5.210938 -8.53125 5.535156 -10.421875 6.183594 -12.285156 L 6.804688 -14.039062 L 6.964844 -14.039062 L 9.421875 -6.804688 Z M 5.15625 -6.804688 "/></g></g></g><g fill="#d9d9d9" fill-opacity="1"><g transform="translate(248.487948, 208.403818)"><g><path d="M 10.234375 -18.0625 C 13.339844 -14.851562 15.796875 -10.042969 15.796875 -5.425781 L 15.796875 -3.835938 L 15.632812 -3.835938 L 6.832031 -18.226562 L 0.40625 -18.226562 L 0.40625 -18.089844 L 2.242188 -15.226562 L 2.242188 0 L 8.503906 0 L 8.503906 -0.160156 C 5.183594 -3.429688 2.863281 -7.398438 2.863281 -12.554688 L 2.863281 -14.335938 L 2.996094 -14.335938 L 11.824219 0.0546875 L 16.390625 0.0546875 L 16.390625 -18.226562 L 10.234375 -18.226562 Z M 10.234375 -18.0625 "/></g></g></g><g fill="#d9d9d9" fill-opacity="1"><g transform="translate(268.413982, 208.403818)"><g><path d="M 7.507812 -9.71875 L 7.507812 -9.558594 L 11.503906 -8.476562 L 11.503906 -3.347656 C 11.421875 -3.320312 11.339844 -3.320312 11.230469 -3.320312 C 7.804688 -3.320312 4.753906 -9.34375 4.753906 -14.09375 C 4.753906 -16.199219 5.644531 -17.226562 6.804688 -17.226562 C 8.992188 -17.226562 11.257812 -13.851562 11.746094 -11.015625 L 11.878906 -10.988281 L 16.441406 -15.175781 C 15.496094 -16.957031 13.09375 -18.601562 9.746094 -18.601562 C 8.476562 -18.601562 0.675781 -17.335938 0.675781 -9.046875 C 0.675781 -3.914062 4.183594 0.269531 9.179688 0.324219 C 9.746094 0.324219 10.882812 -1.457031 12.230469 -3.347656 L 12.394531 -3.347656 L 16.226562 0.433594 L 16.414062 0.433594 L 16.523438 -9.585938 L 16.390625 -9.71875 Z M 7.507812 -9.71875 "/></g></g></g><g fill="#d9d9d9" fill-opacity="1"><g transform="translate(78.771883, 245.027211)"><g><path d="M 4.703125 -9.125 C 5.578125 -9.125 6.363281 -8.941406 7.0625 -8.578125 L 6.734375 -7 L 6.578125 -6.9375 C 6.296875 -7.125 5.988281 -7.273438 5.65625 -7.390625 C 5.320312 -7.503906 4.976562 -7.5625 4.625 -7.5625 C 3.132812 -7.5625 2.390625 -6.585938 2.390625 -4.640625 C 2.390625 -3.578125 2.582031 -2.78125 2.96875 -2.25 C 3.363281 -1.726562 3.929688 -1.46875 4.671875 -1.46875 C 5.015625 -1.46875 5.367188 -1.519531 5.734375 -1.625 C 6.109375 -1.738281 6.445312 -1.890625 6.75 -2.078125 L 6.921875 -1.96875 L 6.765625 -0.359375 C 6.054688 -0.0351562 5.304688 0.125 4.515625 0.125 C 3.171875 0.125 2.144531 -0.265625 1.4375 -1.046875 C 0.738281 -1.828125 0.390625 -2.953125 0.390625 -4.421875 C 0.390625 -5.910156 0.765625 -7.066406 1.515625 -7.890625 C 2.265625 -8.710938 3.328125 -9.125 4.703125 -9.125 Z M 4.703125 -9.125 "/></g></g></g><g fill="#d9d9d9" fill-opacity="1"><g transform="translate(97.205862, 245.027211)"><g><path d="M 4.65625 -9.140625 C 5.925781 -9.140625 6.90625 -8.753906 7.59375 -7.984375 C 8.28125 -7.210938 8.625 -6.117188 8.625 -4.703125 C 8.625 -3.148438 8.25 -1.953125 7.5 -1.109375 C 6.757812 -0.273438 5.707031 0.140625 4.34375 0.140625 C 3.082031 0.140625 2.109375 -0.25 1.421875 -1.03125 C 0.734375 -1.820312 0.390625 -2.941406 0.390625 -4.390625 C 0.390625 -5.910156 0.757812 -7.082031 1.5 -7.90625 C 2.25 -8.726562 3.300781 -9.140625 4.65625 -9.140625 Z M 4.5 -7.609375 C 3.75 -7.609375 3.203125 -7.375 2.859375 -6.90625 C 2.523438 -6.445312 2.359375 -5.691406 2.359375 -4.640625 C 2.359375 -3.429688 2.523438 -2.566406 2.859375 -2.046875 C 3.191406 -1.535156 3.742188 -1.28125 4.515625 -1.28125 C 5.253906 -1.28125 5.789062 -1.515625 6.125 -1.984375 C 6.46875 -2.460938 6.640625 -3.238281 6.640625 -4.3125 C 6.640625 -5.5 6.472656 -6.34375 6.140625 -6.84375 C 5.804688 -7.351562 5.257812 -7.609375 4.5 -7.609375 Z M 4.5 -7.609375 "/></g></g></g><g fill="#d9d9d9" fill-opacity="1"><g transform="translate(117.40286, 245.027211)"><g><path d="M 8.546875 -2.78125 L 8.609375 0 L 6.5625 0 L 2.890625 -6.109375 L 2.765625 -6.109375 L 2.765625 -3.109375 L 2.8125 0 L 1.09375 0 L 1.1875 -2.65625 L 1.109375 -9.015625 L 3.140625 -9.015625 L 6.8125 -2.90625 L 6.9375 -2.90625 L 6.90625 -8.9375 L 8.65625 -9.046875 Z M 8.546875 -2.78125 "/></g></g></g><g fill="#d9d9d9" fill-opacity="1"><g transform="translate(138.327448, 245.027211)"><g><path d="M 3.984375 -9.125 C 4.753906 -9.125 5.515625 -8.972656 6.265625 -8.671875 L 5.96875 -7.03125 L 5.6875 -6.921875 C 5.363281 -7.140625 5.03125 -7.3125 4.6875 -7.4375 C 4.351562 -7.570312 4.046875 -7.640625 3.765625 -7.640625 C 3.390625 -7.640625 3.085938 -7.539062 2.859375 -7.34375 C 2.640625 -7.144531 2.53125 -6.914062 2.53125 -6.65625 C 2.53125 -6.382812 2.65625 -6.15625 2.90625 -5.96875 C 3.15625 -5.78125 3.546875 -5.5625 4.078125 -5.3125 C 4.585938 -5.070312 5.003906 -4.851562 5.328125 -4.65625 C 5.648438 -4.457031 5.925781 -4.191406 6.15625 -3.859375 C 6.382812 -3.535156 6.5 -3.132812 6.5 -2.65625 C 6.5 -2.144531 6.359375 -1.675781 6.078125 -1.25 C 5.796875 -0.820312 5.394531 -0.484375 4.875 -0.234375 C 4.363281 0.00390625 3.773438 0.125 3.109375 0.125 C 2.222656 0.125 1.332031 -0.0664062 0.4375 -0.453125 L 0.703125 -2.21875 L 0.90625 -2.328125 C 1.28125 -1.992188 1.6875 -1.738281 2.125 -1.5625 C 2.570312 -1.394531 2.96875 -1.3125 3.3125 -1.3125 C 3.726562 -1.3125 4.050781 -1.410156 4.28125 -1.609375 C 4.507812 -1.816406 4.625 -2.0625 4.625 -2.34375 C 4.625 -2.632812 4.5 -2.875 4.25 -3.0625 C 4 -3.25 3.597656 -3.472656 3.046875 -3.734375 C 2.546875 -3.960938 2.132812 -4.171875 1.8125 -4.359375 C 1.5 -4.554688 1.226562 -4.816406 1 -5.140625 C 0.78125 -5.472656 0.671875 -5.875 0.671875 -6.34375 C 0.671875 -6.863281 0.8125 -7.335938 1.09375 -7.765625 C 1.375 -8.191406 1.765625 -8.523438 2.265625 -8.765625 C 2.773438 -9.003906 3.347656 -9.125 3.984375 -9.125 Z M 3.984375 -9.125 "/></g></g></g><g fill="#d9d9d9" fill-opacity="1"><g transform="translate(156.495583, 245.027211)"><g><path d="M 6.84375 -8.859375 L 6.734375 -7.453125 L 5.046875 -7.53125 L 4.484375 -7.53125 L 4.40625 -2.859375 L 4.5 0 L 2.59375 0 L 2.6875 -2.6875 L 2.625 -7.53125 L 2.0625 -7.53125 L 0.34375 -7.453125 L 0.203125 -7.609375 L 0.34375 -9.015625 L 6.734375 -9.015625 Z M 6.84375 -8.859375 "/></g></g></g><g fill="#d9d9d9" fill-opacity="1"><g transform="translate(174.733676, 245.027211)"><g><path d="M 5.828125 -3.578125 C 6.554688 -2.421875 7.28125 -1.378906 8 -0.453125 L 7.96875 -0.234375 C 7.363281 -0.0234375 6.742188 0.0976562 6.109375 0.140625 L 5.90625 -0.015625 C 5.238281 -1.171875 4.691406 -2.175781 4.265625 -3.03125 L 2.90625 -3.03125 L 2.90625 -2.859375 L 3 0 L 1.09375 0 L 1.1875 -2.6875 L 1.09375 -9.015625 L 4.546875 -9.03125 C 5.492188 -9.03125 6.222656 -8.796875 6.734375 -8.328125 C 7.242188 -7.867188 7.5 -7.210938 7.5 -6.359375 C 7.5 -5.773438 7.351562 -5.242188 7.0625 -4.765625 C 6.769531 -4.285156 6.359375 -3.890625 5.828125 -3.578125 Z M 2.9375 -4.515625 L 4.328125 -4.453125 C 5.117188 -4.722656 5.515625 -5.296875 5.515625 -6.171875 C 5.515625 -6.648438 5.382812 -7.007812 5.125 -7.25 C 4.875 -7.488281 4.484375 -7.613281 3.953125 -7.625 L 3 -7.578125 Z M 2.9375 -4.515625 "/></g></g></g><g fill="#d9d9d9" fill-opacity="1"><g transform="translate(194.189089, 245.027211)"><g><path d="M 8.015625 -4.4375 L 8.015625 -3.25 C 8.015625 -2.175781 7.695312 -1.34375 7.0625 -0.75 C 6.4375 -0.164062 5.53125 0.125 4.34375 0.125 C 3.195312 0.125 2.328125 -0.15625 1.734375 -0.71875 C 1.140625 -1.289062 0.851562 -2.109375 0.875 -3.171875 L 0.890625 -4.484375 L 0.859375 -9.015625 L 2.765625 -9.015625 L 2.65625 -3.4375 C 2.644531 -2.75 2.789062 -2.238281 3.09375 -1.90625 C 3.394531 -1.582031 3.847656 -1.421875 4.453125 -1.421875 C 5.660156 -1.421875 6.265625 -2.054688 6.265625 -3.328125 L 6.15625 -9.015625 L 8.09375 -9.015625 Z M 8.015625 -4.4375 "/></g></g></g><g fill="#d9d9d9" fill-opacity="1"><g transform="translate(214.316133, 245.027211)"><g><path d="M 4.703125 -9.125 C 5.578125 -9.125 6.363281 -8.941406 7.0625 -8.578125 L 6.734375 -7 L 6.578125 -6.9375 C 6.296875 -7.125 5.988281 -7.273438 5.65625 -7.390625 C 5.320312 -7.503906 4.976562 -7.5625 4.625 -7.5625 C 3.132812 -7.5625 2.390625 -6.585938 2.390625 -4.640625 C 2.390625 -3.578125 2.582031 -2.78125 2.96875 -2.25 C 3.363281 -1.726562 3.929688 -1.46875 4.671875 -1.46875 C 5.015625 -1.46875 5.367188 -1.519531 5.734375 -1.625 C 6.109375 -1.738281 6.445312 -1.890625 6.75 -2.078125 L 6.921875 -1.96875 L 6.765625 -0.359375 C 6.054688 -0.0351562 5.304688 0.125 4.515625 0.125 C 3.171875 0.125 2.144531 -0.265625 1.4375 -1.046875 C 0.738281 -1.828125 0.390625 -2.953125 0.390625 -4.421875 C 0.390625 -5.910156 0.765625 -7.066406 1.515625 -7.890625 C 2.265625 -8.710938 3.328125 -9.125 4.703125 -9.125 Z M 4.703125 -9.125 "/></g></g></g><g fill="#d9d9d9" fill-opacity="1"><g transform="translate(232.750115, 245.027211)"><g><path d="M 6.84375 -8.859375 L 6.734375 -7.453125 L 5.046875 -7.53125 L 4.484375 -7.53125 L 4.40625 -2.859375 L 4.5 0 L 2.59375 0 L 2.6875 -2.6875 L 2.625 -7.53125 L 2.0625 -7.53125 L 0.34375 -7.453125 L 0.203125 -7.609375 L 0.34375 -9.015625 L 6.734375 -9.015625 Z M 6.84375 -8.859375 "/></g></g></g><g fill="#d9d9d9" fill-opacity="1"><g transform="translate(250.988208, 245.027211)"><g><path d="M 2.90625 -2.859375 L 3 0 L 1.09375 0 L 1.1875 -2.6875 L 1.09375 -9.015625 L 3.03125 -9.015625 Z M 2.90625 -2.859375 "/></g></g></g><g fill="#d9d9d9" fill-opacity="1"><g transform="translate(266.315931, 245.027211)"><g><path d="M 4.65625 -9.140625 C 5.925781 -9.140625 6.90625 -8.753906 7.59375 -7.984375 C 8.28125 -7.210938 8.625 -6.117188 8.625 -4.703125 C 8.625 -3.148438 8.25 -1.953125 7.5 -1.109375 C 6.757812 -0.273438 5.707031 0.140625 4.34375 0.140625 C 3.082031 0.140625 2.109375 -0.25 1.421875 -1.03125 C 0.734375 -1.820312 0.390625 -2.941406 0.390625 -4.390625 C 0.390625 -5.910156 0.757812 -7.082031 1.5 -7.90625 C 2.25 -8.726562 3.300781 -9.140625 4.65625 -9.140625 Z M 4.5 -7.609375 C 3.75 -7.609375 3.203125 -7.375 2.859375 -6.90625 C 2.523438 -6.445312 2.359375 -5.691406 2.359375 -4.640625 C 2.359375 -3.429688 2.523438 -2.566406 2.859375 -2.046875 C 3.191406 -1.535156 3.742188 -1.28125 4.515625 -1.28125 C 5.253906 -1.28125 5.789062 -1.515625 6.125 -1.984375 C 6.46875 -2.460938 6.640625 -3.238281 6.640625 -4.3125 C 6.640625 -5.5 6.472656 -6.34375 6.140625 -6.84375 C 5.804688 -7.351562 5.257812 -7.609375 4.5 -7.609375 Z M 4.5 -7.609375 "/></g></g></g><g fill="#d9d9d9" fill-opacity="1"><g transform="translate(286.51292, 245.027211)"><g><path d="M 8.546875 -2.78125 L 8.609375 0 L 6.5625 0 L 2.890625 -6.109375 L 2.765625 -6.109375 L 2.765625 -3.109375 L 2.8125 0 L 1.09375 0 L 1.1875 -2.65625 L 1.109375 -9.015625 L 3.140625 -9.015625 L 6.8125 -2.90625 L 6.9375 -2.90625 L 6.90625 -8.9375 L 8.65625 -9.046875 Z M 8.546875 -2.78125 "/></g></g></g></svg>