<svg xmlns="http://www.w3.org/2000/svg" xmlns:xlink="http://www.w3.org/1999/xlink" width="500" zoomAndPan="magnify" viewBox="0 0 375 374.999991" height="500" preserveAspectRatio="xMidYMid meet" version="1.0"><defs><g/><clipPath id="557f1ea058"><path d="M 92.742188 91.433594 L 158.742188 91.433594 L 158.742188 274.433594 L 92.742188 274.433594 Z M 92.742188 91.433594 " clip-rule="nonzero"/></clipPath><clipPath id="b3a124da62"><path d="M 216.445312 91.433594 L 282.257812 91.433594 L 282.257812 274.433594 L 216.445312 274.433594 Z M 216.445312 91.433594 " clip-rule="nonzero"/></clipPath></defs><rect x="-37.5" width="450" fill="#ffffff" y="-37.499999" height="449.999989" fill-opacity="1"/><rect x="-37.5" width="450" fill="#ffffff" y="-37.499999" height="449.999989" fill-opacity="1"/><rect x="-37.5" width="450" fill="#dfb15b" y="-37.499999" height="449.999989" fill-opacity="1"/><g clip-path="url(#557f1ea058)"><path fill="#000000" d="M 92.757812 182.933594 C 92.757812 156.289062 103.589844 132.164062 121.101562 114.703125 C 131.554688 104.277344 144.390625 96.230469 158.726562 91.433594 L 158.726562 92.839844 C 144.761719 97.585938 132.253906 105.464844 122.046875 115.644531 C 104.777344 132.863281 94.09375 156.65625 94.09375 182.933594 C 94.09375 209.210938 104.777344 233.003906 122.046875 250.222656 C 132.253906 260.402344 144.761719 268.28125 158.726562 273.027344 L 158.726562 274.433594 C 144.394531 269.636719 131.558594 261.589844 121.101562 251.164062 C 103.589844 233.703125 92.757812 209.578125 92.757812 182.933594 Z M 92.757812 182.933594 " fill-opacity="1" fill-rule="evenodd"/></g><g clip-path="url(#b3a124da62)"><path fill="#000000" d="M 282.242188 182.933594 C 282.242188 156.289062 271.410156 132.164062 253.894531 114.703125 C 243.441406 104.277344 230.605469 96.230469 216.273438 91.433594 L 216.273438 92.839844 C 230.234375 97.585938 242.746094 105.464844 252.949219 115.644531 C 270.222656 132.863281 280.902344 156.65625 280.902344 182.933594 C 280.902344 209.210938 270.222656 233.003906 252.949219 250.222656 C 242.742188 260.402344 230.234375 268.28125 216.273438 273.027344 L 216.273438 274.433594 C 230.605469 269.636719 243.441406 261.589844 253.894531 251.164062 C 271.40625 233.703125 282.242188 209.578125 282.242188 182.933594 Z M 282.242188 182.933594 " fill-opacity="1" fill-rule="evenodd"/></g><g fill="#000000" fill-opacity="1"><g transform="translate(121.891362, 152.794364)"><g><path d="M 4.71875 -8.515625 L 4.796875 -8.65625 L 4.890625 -8.609375 L 3.734375 -6.578125 L 3.65625 -6.625 L 3.734375 -6.75 C 3.796875 -6.863281 3.800781 -6.976562 3.75 -7.09375 C 3.707031 -7.21875 3.632812 -7.304688 3.53125 -7.359375 L -1.4375 -9.625 L 1.828125 -5.15625 C 2.109375 -4.757812 2.375 -4.46875 2.625 -4.28125 L 2.5625 -4.1875 L -4.015625 -4.75 L 0.34375 -1.734375 C 0.425781 -1.660156 0.53125 -1.632812 0.65625 -1.65625 C 0.789062 -1.6875 0.890625 -1.753906 0.953125 -1.859375 L 1.046875 -2.015625 L 1.125 -1.96875 L 0.078125 -0.140625 L -0.015625 -0.1875 L 0.0625 -0.328125 C 0.164062 -0.515625 0.203125 -0.703125 0.171875 -0.890625 C 0.140625 -1.078125 0.0390625 -1.238281 -0.125 -1.375 L -5.75 -5.5 L -5.6875 -5.59375 L 1.453125 -5 L -2.75 -10.78125 L -2.703125 -10.859375 L 3.734375 -8.15625 C 4.003906 -8.050781 4.25 -8.082031 4.46875 -8.25 C 4.5625 -8.300781 4.644531 -8.390625 4.71875 -8.515625 Z M 4.71875 -8.515625 "/></g></g></g><g fill="#000000" fill-opacity="1"><g transform="translate(131.654202, 137.744231)"><g><path d="M 5.203125 -5.75 L 5.25 -5.8125 L 5.328125 -5.734375 L 3.6875 -3.953125 L 3.609375 -4.03125 L 3.671875 -4.109375 C 3.765625 -4.210938 3.800781 -4.328125 3.78125 -4.453125 C 3.757812 -4.578125 3.71875 -4.664062 3.65625 -4.71875 C 3.59375 -4.78125 3.519531 -4.832031 3.4375 -4.875 L 1.625 -5.609375 L -0.359375 -3.46875 L 0.5 -1.6875 C 0.539062 -1.613281 0.59375 -1.546875 0.65625 -1.484375 C 0.71875 -1.429688 0.804688 -1.394531 0.921875 -1.375 C 1.046875 -1.363281 1.160156 -1.414062 1.265625 -1.53125 L 1.34375 -1.59375 L 1.421875 -1.515625 L -0.0625 0.0625 L -0.140625 -0.015625 L -0.078125 -0.078125 C 0.046875 -0.210938 0.125 -0.378906 0.15625 -0.578125 C 0.195312 -0.785156 0.171875 -1.007812 0.078125 -1.25 L -2.53125 -7 C -2.78125 -7.582031 -2.960938 -7.925781 -3.078125 -8.03125 L -3 -8.09375 L 4.046875 -5.53125 C 4.285156 -5.445312 4.503906 -5.425781 4.703125 -5.46875 C 4.898438 -5.519531 5.066406 -5.613281 5.203125 -5.75 Z M -0.5 -3.796875 L 1.3125 -5.75 L -2.125 -7.15625 Z M -0.5 -3.796875 "/></g></g></g><g fill="#000000" fill-opacity="1"><g transform="translate(142.873732, 126.885762)"><g><path d="M 4.828125 -3.421875 C 4.984375 -3.535156 5.078125 -3.679688 5.109375 -3.859375 C 5.148438 -4.035156 5.125 -4.203125 5.03125 -4.359375 L 3.453125 -6.671875 L -0.203125 -4.1875 L 1.359375 -1.890625 C 1.460938 -1.734375 1.609375 -1.632812 1.796875 -1.59375 C 1.984375 -1.5625 2.15625 -1.601562 2.3125 -1.71875 L 2.421875 -1.796875 L 2.484375 -1.703125 L 0.546875 -0.375 L 0.484375 -0.46875 L 0.59375 -0.546875 C 0.75 -0.648438 0.84375 -0.789062 0.875 -0.96875 C 0.90625 -1.15625 0.875 -1.328125 0.78125 -1.484375 L -2.59375 -6.4375 C -2.707031 -6.59375 -2.851562 -6.6875 -3.03125 -6.71875 C -3.21875 -6.75 -3.390625 -6.710938 -3.546875 -6.609375 L -3.65625 -6.53125 L -3.71875 -6.625 L -1.78125 -7.953125 L -1.71875 -7.859375 L -1.828125 -7.78125 C -1.984375 -7.664062 -2.078125 -7.519531 -2.109375 -7.34375 C -2.148438 -7.164062 -2.117188 -7 -2.015625 -6.84375 L -0.390625 -4.46875 L 3.265625 -6.953125 L 1.640625 -9.328125 C 1.492188 -9.535156 1.285156 -9.632812 1.015625 -9.625 C 0.890625 -9.601562 0.78125 -9.554688 0.6875 -9.484375 L 0.578125 -9.40625 L 0.515625 -9.5 L 2.46875 -10.828125 L 2.53125 -10.734375 L 2.40625 -10.65625 C 2.25 -10.550781 2.148438 -10.410156 2.109375 -10.234375 C 2.078125 -10.054688 2.117188 -9.890625 2.234375 -9.734375 L 5.59375 -4.78125 C 5.695312 -4.625 5.84375 -4.523438 6.03125 -4.484375 C 6.21875 -4.453125 6.390625 -4.488281 6.546875 -4.59375 L 6.671875 -4.671875 L 6.734375 -4.578125 L 4.78125 -3.25 L 4.71875 -3.34375 Z M 4.828125 -3.421875 "/></g></g></g><g fill="#000000" fill-opacity="1"><g transform="translate(157.181223, 118.280425)"><g><path d="M 7.171875 -2.9375 L 7.234375 -2.96875 L 7.28125 -2.859375 L 5.03125 -1.984375 L 4.984375 -2.09375 L 5.078125 -2.125 C 5.210938 -2.175781 5.296875 -2.257812 5.328125 -2.375 C 5.367188 -2.488281 5.375 -2.582031 5.34375 -2.65625 C 5.320312 -2.738281 5.273438 -2.816406 5.203125 -2.890625 L 3.90625 -4.34375 L 1.1875 -3.28125 L 1.1875 -1.3125 C 1.1875 -1.21875 1.195312 -1.128906 1.21875 -1.046875 C 1.25 -0.972656 1.316406 -0.90625 1.421875 -0.84375 C 1.523438 -0.78125 1.648438 -0.773438 1.796875 -0.828125 L 1.890625 -0.875 L 1.9375 -0.765625 L -0.09375 0.03125 L -0.140625 -0.078125 L -0.046875 -0.109375 C 0.128906 -0.179688 0.273438 -0.300781 0.390625 -0.46875 C 0.503906 -0.632812 0.570312 -0.835938 0.59375 -1.078125 L 0.75 -7.40625 C 0.78125 -8.039062 0.765625 -8.429688 0.703125 -8.578125 L 0.796875 -8.609375 L 6.03125 -3.21875 C 6.207031 -3.050781 6.394531 -2.945312 6.59375 -2.90625 C 6.800781 -2.863281 6.992188 -2.875 7.171875 -2.9375 Z M 1.171875 -3.640625 L 3.65625 -4.609375 L 1.1875 -7.375 Z M 1.171875 -3.640625 "/></g></g></g><g fill="#000000" fill-opacity="1"><g transform="translate(172.062279, 113.401174)"><g><path d="M 0.765625 -0.25 C 0.953125 -0.28125 1.097656 -0.375 1.203125 -0.53125 C 1.304688 -0.6875 1.347656 -0.851562 1.328125 -1.03125 L 0.328125 -6.9375 C 0.285156 -7.125 0.1875 -7.269531 0.03125 -7.375 C -0.113281 -7.476562 -0.28125 -7.515625 -0.46875 -7.484375 L -0.609375 -7.453125 L -0.625 -7.5625 L 1.703125 -7.953125 L 1.71875 -7.84375 L 1.578125 -7.828125 C 1.328125 -7.785156 1.148438 -7.648438 1.046875 -7.421875 C 1.003906 -7.304688 0.992188 -7.1875 1.015625 -7.0625 L 2.09375 -0.703125 L 3.625 -0.953125 C 4.144531 -1.046875 4.523438 -1.234375 4.765625 -1.515625 C 5.003906 -1.796875 5.175781 -2.179688 5.28125 -2.671875 L 5.390625 -2.6875 L 5.0625 -0.859375 L 0.640625 -0.109375 L 0.625 -0.21875 Z M 0.765625 -0.25 "/></g></g></g><g fill="#000000" fill-opacity="1"><g transform="translate(186.017626, 111.770303)"><g><path d="M 7.75 0.171875 L 7.828125 0.171875 L 7.828125 0.28125 L 5.40625 0.203125 L 5.40625 0.09375 L 5.5 0.09375 C 5.644531 0.101562 5.757812 0.0625 5.84375 -0.03125 C 5.925781 -0.132812 5.96875 -0.226562 5.96875 -0.3125 C 5.976562 -0.394531 5.96875 -0.484375 5.9375 -0.578125 L 5.3125 -2.4375 L 2.390625 -2.546875 L 1.609375 -0.71875 C 1.578125 -0.632812 1.554688 -0.550781 1.546875 -0.46875 C 1.546875 -0.382812 1.578125 -0.289062 1.640625 -0.1875 C 1.710938 -0.09375 1.828125 -0.0390625 1.984375 -0.03125 L 2.078125 -0.03125 L 2.078125 0.078125 L -0.09375 0 L -0.09375 -0.109375 L 0 -0.109375 C 0.1875 -0.0976562 0.367188 -0.144531 0.546875 -0.25 C 0.722656 -0.363281 0.867188 -0.535156 0.984375 -0.765625 L 3.65625 -6.484375 C 3.9375 -7.054688 4.078125 -7.421875 4.078125 -7.578125 L 4.171875 -7.578125 L 6.828125 -0.546875 C 6.921875 -0.316406 7.050781 -0.140625 7.21875 -0.015625 C 7.382812 0.109375 7.5625 0.171875 7.75 0.171875 Z M 2.53125 -2.859375 L 5.203125 -2.765625 L 4.03125 -6.28125 Z M 2.53125 -2.859375 "/></g></g></g><g fill="#000000" fill-opacity="1"><g transform="translate(201.592151, 113.222749)"><g><path d="M 2.8125 0.59375 L 2.953125 0.640625 L 2.921875 0.75 L 0.640625 0.15625 L 0.671875 0.046875 L 0.796875 0.09375 C 0.984375 0.132812 1.15625 0.101562 1.3125 0 C 1.46875 -0.09375 1.578125 -0.226562 1.640625 -0.40625 L 3.109375 -6.234375 C 3.148438 -6.410156 3.125 -6.570312 3.03125 -6.71875 C 2.9375 -6.875 2.796875 -6.972656 2.609375 -7.015625 L 2.484375 -7.0625 L 2.5 -7.171875 L 4.78125 -6.578125 L 4.765625 -6.46875 L 4.625 -6.515625 C 4.445312 -6.554688 4.273438 -6.53125 4.109375 -6.4375 C 3.953125 -6.351562 3.847656 -6.222656 3.796875 -6.046875 L 2.328125 -0.21875 C 2.273438 -0.0390625 2.296875 0.125 2.390625 0.28125 C 2.492188 0.445312 2.632812 0.550781 2.8125 0.59375 Z M 7 1.78125 L 6.5625 1.671875 C 5.84375 1.484375 5.367188 1.148438 5.140625 0.671875 L 3.375 -3.03125 L 6.640625 -5.5 C 6.722656 -5.550781 6.769531 -5.601562 6.78125 -5.65625 C 6.800781 -5.71875 6.804688 -5.773438 6.796875 -5.828125 C 6.753906 -5.929688 6.660156 -6.003906 6.515625 -6.046875 L 6.421875 -6.0625 L 6.4375 -6.15625 L 8.640625 -5.59375 L 8.625 -5.5 L 8.578125 -5.515625 C 8.117188 -5.640625 7.703125 -5.578125 7.328125 -5.328125 L 4.140625 -3.09375 L 6.15625 1 C 6.351562 1.34375 6.644531 1.566406 7.03125 1.671875 Z M 7 1.78125 "/></g></g></g><g fill="#000000" fill-opacity="1"><g transform="translate(215.981773, 117.795294)"><g><path d="M 0.78125 -0.109375 C 0.800781 -0.210938 0.875 -0.394531 1 -0.65625 C 1.125 -0.914062 1.3125 -1.171875 1.5625 -1.421875 L 1.640625 -1.375 C 1.597656 -1.3125 1.5625 -1.238281 1.53125 -1.15625 C 1.34375 -0.757812 1.304688 -0.375 1.421875 0 C 1.535156 0.375 1.785156 0.65625 2.171875 0.84375 C 2.585938 1.039062 2.988281 1.078125 3.375 0.953125 C 3.757812 0.828125 4.039062 0.578125 4.21875 0.203125 C 4.394531 -0.160156 4.40625 -0.519531 4.25 -0.875 L 3.203125 -3.515625 C 3.015625 -4.003906 3.03125 -4.476562 3.25 -4.9375 C 3.476562 -5.40625 3.828125 -5.726562 4.296875 -5.90625 C 4.765625 -6.082031 5.257812 -6.046875 5.78125 -5.796875 C 6.03125 -5.679688 6.289062 -5.519531 6.5625 -5.3125 L 6.953125 -5.125 L 6.375 -3.921875 L 6.28125 -3.96875 C 6.425781 -4.28125 6.4375 -4.570312 6.3125 -4.84375 C 6.195312 -5.125 5.972656 -5.34375 5.640625 -5.5 C 5.304688 -5.664062 4.972656 -5.691406 4.640625 -5.578125 C 4.304688 -5.460938 4.0625 -5.238281 3.90625 -4.90625 C 3.75 -4.570312 3.742188 -4.222656 3.890625 -3.859375 L 4.96875 -1.15625 C 5.144531 -0.707031 5.109375 -0.226562 4.859375 0.28125 C 4.617188 0.800781 4.253906 1.148438 3.765625 1.328125 C 3.273438 1.515625 2.75 1.476562 2.1875 1.21875 C 1.894531 1.082031 1.609375 0.890625 1.328125 0.640625 C 1.054688 0.398438 0.875 0.148438 0.78125 -0.109375 Z M 0.78125 -0.109375 "/></g></g></g><g fill="#000000" fill-opacity="1"><g transform="translate(227.530924, 124.007177)"><g><path d="M 4.765625 3.5 C 4.921875 3.613281 5.085938 3.660156 5.265625 3.640625 C 5.453125 3.617188 5.601562 3.535156 5.71875 3.390625 L 7.421875 1.171875 L 3.90625 -1.515625 L 2.21875 0.6875 C 2.101562 0.84375 2.054688 1.015625 2.078125 1.203125 C 2.109375 1.390625 2.195312 1.539062 2.34375 1.65625 L 2.453125 1.734375 L 2.390625 1.828125 L 0.515625 0.390625 L 0.578125 0.296875 L 0.703125 0.390625 C 0.847656 0.503906 1.015625 0.546875 1.203125 0.515625 C 1.390625 0.492188 1.546875 0.410156 1.671875 0.265625 L 5.3125 -4.5 C 5.414062 -4.65625 5.453125 -4.820312 5.421875 -5 C 5.390625 -5.175781 5.300781 -5.320312 5.15625 -5.4375 L 5.03125 -5.53125 L 5.109375 -5.625 L 6.984375 -4.1875 L 6.90625 -4.09375 L 6.796875 -4.171875 C 6.648438 -4.285156 6.484375 -4.332031 6.296875 -4.3125 C 6.117188 -4.300781 5.972656 -4.222656 5.859375 -4.078125 L 4.109375 -1.78125 L 7.625 0.90625 L 9.375 -1.390625 C 9.519531 -1.597656 9.546875 -1.820312 9.453125 -2.0625 C 9.390625 -2.164062 9.3125 -2.253906 9.21875 -2.328125 L 9.109375 -2.421875 L 9.1875 -2.515625 L 11.0625 -1.078125 L 10.984375 -0.984375 L 10.875 -1.0625 C 10.726562 -1.175781 10.5625 -1.222656 10.375 -1.203125 C 10.1875 -1.179688 10.035156 -1.097656 9.921875 -0.953125 L 6.296875 3.796875 C 6.179688 3.953125 6.132812 4.125 6.15625 4.3125 C 6.1875 4.5 6.273438 4.648438 6.421875 4.765625 L 6.53125 4.84375 L 6.46875 4.9375 L 4.59375 3.5 L 4.65625 3.40625 Z M 4.765625 3.5 "/></g></g></g><g fill="#000000" fill-opacity="1"><g transform="translate(240.231472, 134.785772)"><g><path d="M 6.203125 7.515625 L 6.3125 7.640625 L 6.234375 7.703125 L 4.75 5.875 L 4.828125 5.8125 L 4.9375 5.9375 C 5.007812 6.039062 5.109375 6.09375 5.234375 6.09375 C 5.359375 6.09375 5.460938 6.050781 5.546875 5.96875 L 9.484375 2.1875 L 4.125 3.59375 C 3.65625 3.707031 3.289062 3.84375 3.03125 4 L 2.953125 3.90625 L 5.890625 -2 L 1.484375 0.9375 C 1.390625 1 1.332031 1.09375 1.3125 1.21875 C 1.289062 1.351562 1.316406 1.46875 1.390625 1.5625 L 1.5 1.703125 L 1.421875 1.765625 L 0.09375 0.125 L 0.171875 0.0625 L 0.28125 0.1875 C 0.414062 0.351562 0.570312 0.453125 0.75 0.484375 C 0.9375 0.523438 1.128906 0.488281 1.328125 0.375 L 7.21875 -3.359375 L 7.28125 -3.265625 L 4.125 3.1875 L 11.03125 1.375 L 11.09375 1.453125 L 6.25 6.453125 C 6.039062 6.671875 5.96875 6.910156 6.03125 7.171875 C 6.050781 7.285156 6.109375 7.398438 6.203125 7.515625 Z M 6.203125 7.515625 "/></g></g></g><g fill="#000000" fill-opacity="1"><g transform="translate(250.639873, 149.488355)"><g><path d="M 0.453125 0.65625 C 0.546875 0.820312 0.679688 0.929688 0.859375 0.984375 C 1.035156 1.046875 1.207031 1.039062 1.375 0.96875 L 6.71875 -1.78125 C 6.882812 -1.875 6.992188 -2.007812 7.046875 -2.1875 C 7.097656 -2.363281 7.078125 -2.535156 6.984375 -2.703125 L 6.921875 -2.828125 L 7.03125 -2.875 L 8.109375 -0.765625 L 8 -0.71875 L 7.9375 -0.84375 C 7.851562 -1.007812 7.722656 -1.125 7.546875 -1.1875 C 7.378906 -1.25 7.210938 -1.238281 7.046875 -1.15625 L 1.703125 1.59375 C 1.535156 1.675781 1.421875 1.804688 1.359375 1.984375 C 1.304688 2.171875 1.320312 2.347656 1.40625 2.515625 L 1.46875 2.640625 L 1.375 2.6875 L 0.296875 0.578125 L 0.390625 0.53125 Z M 0.453125 0.65625 "/></g></g></g><g fill="#000000" fill-opacity="1"><g transform="translate(133.400829, 242.715927)"><g><path d="M 2.46875 2.15625 L 0.5 0.4375 L 0.578125 0.359375 L 0.671875 0.4375 C 0.816406 0.5625 0.976562 0.617188 1.15625 0.609375 C 1.34375 0.597656 1.503906 0.519531 1.640625 0.375 L 5.59375 -4.15625 C 5.707031 -4.300781 5.753906 -4.460938 5.734375 -4.640625 C 5.710938 -4.828125 5.628906 -4.984375 5.484375 -5.109375 L 5.390625 -5.1875 L 5.46875 -5.265625 L 7.078125 -3.875 C 7.640625 -3.375 7.960938 -2.867188 8.046875 -2.359375 C 8.140625 -1.847656 8.007812 -1.382812 7.65625 -0.96875 C 7.375 -0.644531 7.050781 -0.453125 6.6875 -0.390625 C 6.332031 -0.328125 6 -0.367188 5.6875 -0.515625 C 6.050781 -0.0664062 6.234375 0.40625 6.234375 0.90625 C 6.242188 1.414062 6.0625 1.882812 5.6875 2.3125 C 5.3125 2.75 4.832031 2.960938 4.25 2.953125 C 3.664062 2.941406 3.070312 2.675781 2.46875 2.15625 Z M 1.90625 1.140625 L 2.703125 1.84375 C 2.703125 1.84375 2.707031 1.84375 2.71875 1.84375 C 3.132812 2.207031 3.550781 2.375 3.96875 2.34375 C 4.394531 2.320312 4.789062 2.101562 5.15625 1.6875 C 5.351562 1.457031 5.488281 1.21875 5.5625 0.96875 C 5.644531 0.726562 5.664062 0.5 5.625 0.28125 C 5.539062 -0.25 5.1875 -0.785156 4.5625 -1.328125 C 4.5625 -1.328125 4.554688 -1.332031 4.546875 -1.34375 L 4.609375 -1.421875 C 4.617188 -1.410156 4.644531 -1.382812 4.6875 -1.34375 C 4.738281 -1.300781 4.8125 -1.25 4.90625 -1.1875 C 5 -1.125 5.113281 -1.054688 5.25 -0.984375 C 5.382812 -0.921875 5.519531 -0.878906 5.65625 -0.859375 C 5.789062 -0.847656 5.9375 -0.851562 6.09375 -0.875 C 6.394531 -0.90625 6.703125 -1.097656 7.015625 -1.453125 C 7.328125 -1.816406 7.46875 -2.1875 7.4375 -2.5625 C 7.40625 -2.945312 7.195312 -3.304688 6.8125 -3.640625 L 6.390625 -4.015625 Z M 1.90625 1.140625 "/></g></g></g><g fill="#000000" fill-opacity="1"><g transform="translate(145.278413, 252.028046)"><g><path d="M 4.8125 -4.90625 C 5.800781 -5.195312 6.800781 -5.0625 7.8125 -4.5 C 8.820312 -3.9375 9.460938 -3.160156 9.734375 -2.171875 C 10.003906 -1.191406 9.851562 -0.191406 9.28125 0.828125 C 8.71875 1.859375 7.945312 2.515625 6.96875 2.796875 C 5.988281 3.085938 4.992188 2.953125 3.984375 2.390625 C 2.972656 1.828125 2.328125 1.050781 2.046875 0.0625 C 1.773438 -0.914062 1.921875 -1.914062 2.484375 -2.9375 C 3.054688 -3.96875 3.832031 -4.625 4.8125 -4.90625 Z M 2.6875 0.15625 C 2.851562 1.007812 3.335938 1.65625 4.140625 2.09375 C 4.941406 2.539062 5.75 2.609375 6.5625 2.296875 C 7.375 1.992188 8.046875 1.367188 8.578125 0.421875 C 8.921875 -0.203125 9.113281 -0.8125 9.15625 -1.40625 C 9.195312 -2.007812 9.085938 -2.550781 8.828125 -3.03125 C 8.566406 -3.519531 8.175781 -3.910156 7.65625 -4.203125 C 6.851562 -4.640625 6.046875 -4.703125 5.234375 -4.390625 C 4.421875 -4.085938 3.75 -3.460938 3.21875 -2.515625 C 2.695312 -1.578125 2.519531 -0.6875 2.6875 0.15625 Z M 2.6875 0.15625 "/></g></g></g><g fill="#000000" fill-opacity="1"><g transform="translate(161.334116, 259.761769)"><g><path d="M 4.828125 -6.09375 L 4.171875 -6.296875 L 2.328125 -0.140625 C 2.265625 0.0351562 2.273438 0.207031 2.359375 0.375 C 2.453125 0.539062 2.59375 0.65625 2.78125 0.71875 L 2.90625 0.75 L 2.890625 0.875 L 0.625 0.1875 L 0.65625 0.078125 L 0.796875 0.125 C 0.972656 0.175781 1.140625 0.15625 1.296875 0.0625 C 1.460938 -0.0195312 1.578125 -0.148438 1.640625 -0.328125 L 3.375 -6.078125 C 3.414062 -6.253906 3.390625 -6.421875 3.296875 -6.578125 C 3.210938 -6.742188 3.082031 -6.851562 2.90625 -6.90625 L 2.765625 -6.953125 L 2.796875 -7.0625 L 5.578125 -6.21875 C 6.210938 -6.03125 6.65625 -5.707031 6.90625 -5.25 C 7.164062 -4.800781 7.210938 -4.296875 7.046875 -3.734375 C 6.878906 -3.179688 6.566406 -2.753906 6.109375 -2.453125 C 5.648438 -2.148438 5.175781 -2.070312 4.6875 -2.21875 C 4.757812 -2.132812 4.84375 -2 4.9375 -1.8125 C 5.039062 -1.632812 5.128906 -1.457031 5.203125 -1.28125 C 5.546875 -0.25 5.773438 0.390625 5.890625 0.640625 C 6.003906 0.890625 6.085938 1.0625 6.140625 1.15625 C 6.203125 1.25 6.265625 1.34375 6.328125 1.4375 C 6.398438 1.539062 6.476562 1.628906 6.5625 1.703125 C 6.726562 1.847656 6.925781 1.957031 7.15625 2.03125 L 7.125 2.140625 L 6.546875 1.96875 C 6.253906 1.875 5.992188 1.738281 5.765625 1.5625 C 5.546875 1.382812 5.390625 1.21875 5.296875 1.0625 C 5.203125 0.90625 5.125 0.757812 5.0625 0.625 C 5.007812 0.488281 4.859375 0.0546875 4.609375 -0.671875 C 4.367188 -1.410156 4.226562 -1.832031 4.1875 -1.9375 C 4.15625 -2.039062 4.109375 -2.144531 4.046875 -2.25 C 3.898438 -2.5625 3.71875 -2.75 3.5 -2.8125 L 3.53125 -2.921875 C 3.582031 -2.898438 3.648438 -2.875 3.734375 -2.84375 C 3.828125 -2.8125 3.941406 -2.785156 4.078125 -2.765625 C 4.941406 -2.523438 5.585938 -2.722656 6.015625 -3.359375 C 6.097656 -3.472656 6.15625 -3.59375 6.1875 -3.71875 C 6.226562 -3.84375 6.253906 -3.921875 6.265625 -3.953125 C 6.390625 -4.410156 6.378906 -4.816406 6.234375 -5.171875 C 6.085938 -5.523438 5.828125 -5.765625 5.453125 -5.890625 C 5.285156 -5.953125 5.078125 -6.019531 4.828125 -6.09375 Z M 4.828125 -6.09375 "/></g></g></g><g fill="#000000" fill-opacity="1"><g transform="translate(176.916745, 263.494149)"><g><path d="M 0.8125 -0.03125 C 1 -0.0078125 1.160156 -0.0625 1.296875 -0.1875 C 1.441406 -0.3125 1.53125 -0.46875 1.5625 -0.65625 L 2.140625 -6.671875 C 2.128906 -6.847656 2.0625 -7 1.9375 -7.125 C 1.820312 -7.257812 1.675781 -7.332031 1.5 -7.34375 L 1.359375 -7.359375 L 1.375 -7.46875 L 4.515625 -7.171875 C 4.742188 -7.148438 4.988281 -7.148438 5.25 -7.171875 C 5.519531 -7.191406 5.710938 -7.21875 5.828125 -7.25 L 5.703125 -5.890625 L 5.59375 -5.90625 L 5.609375 -6.09375 C 5.628906 -6.269531 5.582031 -6.421875 5.46875 -6.546875 C 5.363281 -6.679688 5.226562 -6.757812 5.0625 -6.78125 L 2.859375 -7 L 2.546875 -3.671875 L 4.375 -3.5 C 4.519531 -3.488281 4.644531 -3.523438 4.75 -3.609375 C 4.863281 -3.703125 4.925781 -3.828125 4.9375 -3.984375 L 4.953125 -4.125 L 5.0625 -4.125 L 4.890625 -2.421875 L 4.78125 -2.421875 L 4.796875 -2.578125 C 4.816406 -2.722656 4.78125 -2.851562 4.6875 -2.96875 C 4.601562 -3.082031 4.488281 -3.148438 4.34375 -3.171875 L 2.515625 -3.34375 L 2.203125 -0.125 L 3.75 0.03125 C 4.28125 0.0820312 4.691406 0.00390625 4.984375 -0.203125 C 5.285156 -0.421875 5.554688 -0.753906 5.796875 -1.203125 L 5.90625 -1.1875 L 5.125 0.484375 L 0.65625 0.0625 L 0.671875 -0.046875 Z M 0.8125 -0.03125 "/></g></g></g><g fill="#000000" fill-opacity="1"><g transform="translate(191.934848, 264.200897)"><g><path d="M 9.734375 -8.71875 L 9.65625 -8.703125 C 9.382812 -8.671875 9.164062 -8.550781 9 -8.34375 C 8.894531 -8.226562 8.820312 -8.09375 8.78125 -7.9375 L 7.71875 -2.03125 C 7.625 -1.570312 7.59375 -1.164062 7.625 -0.8125 L 7.53125 -0.8125 L 4.578125 -6.671875 L 3.5625 -1.515625 C 3.476562 -1.066406 3.453125 -0.664062 3.484375 -0.3125 L 3.390625 -0.296875 L 0.109375 -6.875 C -0.00390625 -7.070312 -0.15625 -7.210938 -0.34375 -7.296875 C -0.539062 -7.378906 -0.734375 -7.410156 -0.921875 -7.390625 L -1.015625 -7.375 L -1.03125 -7.484375 L 1.359375 -7.78125 L 1.375 -7.671875 L 1.265625 -7.65625 C 1.117188 -7.644531 1.015625 -7.585938 0.953125 -7.484375 C 0.890625 -7.390625 0.863281 -7.296875 0.875 -7.203125 C 0.882812 -7.117188 0.898438 -7.039062 0.921875 -6.96875 L 3.21875 -1.9375 L 4.4375 -8.34375 L 4.546875 -8.359375 L 7.390625 -2.671875 L 8.21875 -7.890625 C 8.226562 -7.972656 8.226562 -8.050781 8.21875 -8.125 C 8.21875 -8.207031 8.171875 -8.285156 8.078125 -8.359375 C 7.992188 -8.441406 7.875 -8.476562 7.71875 -8.46875 L 7.625 -8.453125 L 7.609375 -8.5625 L 9.71875 -8.828125 Z M 9.734375 -8.71875 "/></g></g></g><g fill="#000000" fill-opacity="1"><g transform="translate(210.981488, 260.631383)"><g><path d="M 0.71875 -0.375 C 0.894531 -0.4375 1.019531 -0.550781 1.09375 -0.71875 C 1.175781 -0.894531 1.191406 -1.070312 1.140625 -1.25 L -0.890625 -6.953125 C -0.972656 -7.109375 -1.09375 -7.21875 -1.25 -7.28125 C -1.414062 -7.34375 -1.582031 -7.34375 -1.75 -7.28125 L -1.875 -7.234375 L -1.90625 -7.34375 L 1.0625 -8.40625 C 1.28125 -8.476562 1.503906 -8.578125 1.734375 -8.703125 C 1.960938 -8.835938 2.117188 -8.945312 2.203125 -9.03125 L 2.671875 -7.75 L 2.5625 -7.703125 L 2.5 -7.890625 C 2.4375 -8.054688 2.328125 -8.175781 2.171875 -8.25 C 2.023438 -8.320312 1.875 -8.332031 1.71875 -8.28125 L -0.359375 -7.546875 L 0.765625 -4.40625 L 2.484375 -5.015625 C 2.609375 -5.078125 2.703125 -5.164062 2.765625 -5.28125 C 2.828125 -5.40625 2.832031 -5.546875 2.78125 -5.703125 L 2.734375 -5.828125 L 2.84375 -5.875 L 3.40625 -4.265625 L 3.296875 -4.21875 L 3.25 -4.375 C 3.195312 -4.507812 3.109375 -4.609375 2.984375 -4.671875 C 2.859375 -4.742188 2.726562 -4.753906 2.59375 -4.703125 L 0.875 -4.09375 L 1.953125 -1.046875 L 3.40625 -1.5625 C 3.90625 -1.738281 4.25 -1.984375 4.4375 -2.296875 C 4.625 -2.617188 4.722656 -3.035156 4.734375 -3.546875 L 4.84375 -3.59375 L 4.84375 -1.71875 L 0.625 -0.21875 L 0.59375 -0.328125 Z M 0.71875 -0.375 "/></g></g></g><g fill="#000000" fill-opacity="1"><g transform="translate(224.738622, 254.861055)"><g><path d="M 0.625 -0.5 C 0.789062 -0.59375 0.894531 -0.726562 0.9375 -0.90625 C 0.976562 -1.09375 0.957031 -1.269531 0.875 -1.4375 L -2.15625 -6.59375 C -2.257812 -6.757812 -2.394531 -6.863281 -2.5625 -6.90625 C -2.738281 -6.945312 -2.910156 -6.921875 -3.078125 -6.828125 L -3.203125 -6.75 L -3.265625 -6.859375 L -1.234375 -8.0625 L -1.171875 -7.953125 L -1.28125 -7.875 C -1.507812 -7.738281 -1.628906 -7.546875 -1.640625 -7.296875 C -1.640625 -7.179688 -1.609375 -7.066406 -1.546875 -6.953125 L 1.71875 -1.390625 L 3.046875 -2.171875 C 3.503906 -2.441406 3.796875 -2.75 3.921875 -3.09375 C 4.046875 -3.445312 4.066406 -3.875 3.984375 -4.375 L 4.078125 -4.4375 L 4.4375 -2.59375 L 0.5625 -0.328125 L 0.5 -0.421875 Z M 0.625 -0.5 "/></g></g></g><g fill="#000000" fill-opacity="1"><g transform="translate(237.03471, 246.708007)"><g><path d="M 0.515625 -0.609375 C 0.660156 -0.722656 0.738281 -0.875 0.75 -1.0625 C 0.757812 -1.257812 0.707031 -1.425781 0.59375 -1.5625 L -3.328125 -6.078125 C -3.460938 -6.210938 -3.625 -6.285156 -3.8125 -6.296875 C -4 -6.304688 -4.164062 -6.253906 -4.3125 -6.140625 L -4.40625 -6.046875 L -4.46875 -6.140625 L -2.703125 -7.6875 L -2.640625 -7.59375 L -2.734375 -7.5 C -2.929688 -7.332031 -3.007812 -7.117188 -2.96875 -6.859375 C -2.945312 -6.742188 -2.894531 -6.640625 -2.8125 -6.546875 L 1.421875 -1.6875 L 2.59375 -2.703125 C 2.988281 -3.054688 3.210938 -3.410156 3.265625 -3.765625 C 3.328125 -4.128906 3.273438 -4.550781 3.109375 -5.03125 L 3.1875 -5.109375 L 3.875 -3.375 L 0.5 -0.4375 L 0.421875 -0.515625 Z M 0.515625 -0.609375 "/></g></g></g><g fill="#000000" fill-opacity="1"><g transform="translate(127.907677, 196.507514)"><g><path d="M 53 7.8125 C 53.195312 7.8125 53.390625 7.8125 53.578125 7.8125 L 53.578125 8.28125 C 52.679688 8.414062 51.675781 8.484375 50.5625 8.484375 C 49.457031 8.484375 48.09375 8.238281 46.46875 7.75 C 44.851562 7.269531 43.382812 6.375 42.0625 5.0625 C 39.363281 2.363281 37.726562 -1.132812 37.15625 -5.4375 L 34.21875 -26.890625 L 24.1875 -4.234375 C 23.289062 -2.273438 22.742188 -0.640625 22.546875 0.671875 L 22.0625 0.671875 L 9.59375 -26.453125 L 7.46875 -2.5 C 7.40625 -1.957031 7.570312 -1.476562 7.96875 -1.0625 C 8.375 -0.644531 8.816406 -0.4375 9.296875 -0.4375 L 10.078125 -0.4375 L 10.078125 0 L 0.71875 0 L 0.71875 -0.484375 L 1.5 -0.484375 C 2.363281 -0.484375 3.125 -0.75 3.78125 -1.28125 C 4.4375 -1.8125 4.847656 -2.507812 5.015625 -3.375 L 8.046875 -29.6875 C 5.222656 -35.238281 1.832031 -38.015625 -2.125 -38.015625 C -2.476562 -38.015625 -2.847656 -38 -3.234375 -37.96875 L -3.234375 -38.453125 C -2.359375 -38.679688 -1.648438 -38.796875 -1.109375 -38.796875 C -0.566406 -38.796875 0.0234375 -38.769531 0.671875 -38.71875 C 1.316406 -38.664062 2.070312 -38.507812 2.9375 -38.25 C 3.800781 -38 4.617188 -37.625 5.390625 -37.125 C 6.160156 -36.625 6.832031 -36.109375 7.40625 -35.578125 C 7.988281 -35.054688 8.539062 -34.472656 9.0625 -33.828125 C 9.925781 -32.671875 10.613281 -31.5625 11.125 -30.5 L 22.75 -5.34375 L 35.703125 -34.40625 L 36.140625 -34.40625 L 40.625 -5.875 C 41.300781 -1.375 42.753906 2.03125 44.984375 4.34375 C 47.210938 6.65625 49.882812 7.8125 53 7.8125 Z M 53 7.8125 "/></g></g></g><path stroke-linecap="butt" transform="matrix(-0.00484773, 0.748314, -0.749984, -0.00485856, 187.120641, 153.273916)" fill="none" stroke-linejoin="miter" d="M -0.000643778 -0.000599502 L 77.1833 0.000510788 " stroke="#000000" stroke-width="1" stroke-opacity="1" stroke-miterlimit="4"/><g fill="#000000" fill-opacity="1"><g transform="translate(204.650997, 196.087751)"><g><path d="M 19.078125 -21.015625 C 18.503906 -20.398438 17.847656 -19.945312 17.109375 -19.65625 C 20.253906 -19.207031 22.644531 -18.09375 24.28125 -16.3125 C 25.925781 -14.53125 26.75 -12.351562 26.75 -9.78125 C 26.75 -6.664062 25.492188 -4.144531 22.984375 -2.21875 C 20.472656 -0.289062 17.175781 0.671875 13.09375 0.671875 C 9.019531 0.671875 5.828125 -0.328125 3.515625 -2.328125 C 1.203125 -4.335938 0.046875 -7.175781 0.046875 -10.84375 C 0.046875 -11.03125 0.046875 -11.222656 0.046875 -11.421875 L 0.578125 -11.515625 C 1.222656 -6.734375 3.210938 -3.632812 6.546875 -2.21875 L 6.546875 -30.265625 C 6.484375 -31.128906 6.15625 -31.84375 5.5625 -32.40625 C 4.96875 -32.96875 4.253906 -33.25 3.421875 -33.25 L 2.84375 -33.25 L 2.84375 -33.734375 L 10.9375 -33.734375 C 13.957031 -33.734375 16.375 -33.039062 18.1875 -31.65625 C 20 -30.28125 20.90625 -28.472656 20.90625 -26.234375 C 20.90625 -24.003906 20.296875 -22.265625 19.078125 -21.015625 Z M 9.6875 -32.1875 L 9.6875 -1.34375 C 10.75 -1.1875 11.96875 -1.109375 13.34375 -1.109375 C 16.425781 -1.109375 18.828125 -1.9375 20.546875 -3.59375 C 22.265625 -5.25 23.125 -7.390625 23.125 -10.015625 C 23.125 -11.429688 22.859375 -12.6875 22.328125 -13.78125 C 21.796875 -14.875 21.128906 -15.722656 20.328125 -16.328125 C 18.210938 -17.972656 15.226562 -18.796875 11.375 -18.796875 C 11.34375 -18.796875 11.328125 -18.796875 11.328125 -18.796875 L 11.28125 -19.234375 C 11.3125 -19.234375 11.328125 -19.234375 11.328125 -19.234375 C 12.960938 -19.234375 14.363281 -19.769531 15.53125 -20.84375 C 16.707031 -21.914062 17.296875 -23.578125 17.296875 -25.828125 C 17.296875 -30.066406 14.96875 -32.1875 10.3125 -32.1875 Z M 9.6875 -32.1875 "/></g></g></g></svg>