<svg xmlns="http://www.w3.org/2000/svg" xmlns:xlink="http://www.w3.org/1999/xlink" width="500" zoomAndPan="magnify" viewBox="0 0 375 374.999991" height="500" preserveAspectRatio="xMidYMid meet" version="1.0"><defs><g/></defs><g fill="#2b2b2b" fill-opacity="1"><g transform="translate(153.16837, 280.970373)"><g><path d="M 82.464844 1.964844 C 102.296875 1.964844 125.070312 -8.246094 136.460938 -24.152344 L 136.460938 -61.0625 L 110.738281 -61.0625 L 110.738281 -58.707031 C 119.179688 -56.546875 120.753906 -51.835938 120.753906 -39.660156 L 120.949219 -19.632812 C 116.039062 -9.816406 103.277344 -1.964844 88.550781 -1.964844 C 48.890625 -1.964844 25.722656 -42.605469 26.113281 -79.714844 C 26.507812 -115.84375 47.710938 -135.28125 75.984375 -135.28125 C 98.957031 -135.28125 117.023438 -121.929688 124.285156 -105.042969 L 126.25 -105.4375 L 125.464844 -128.605469 C 117.808594 -133.710938 99.152344 -138.816406 81.679688 -138.816406 C 39.660156 -138.816406 10.210938 -107.203125 10.210938 -67.738281 C 10.210938 -25.523438 38.679688 1.964844 82.464844 1.964844 Z M 82.464844 1.964844 "/></g></g></g><g fill="#2b2b2b" fill-opacity="1"><g transform="translate(99.298477, 226.909948)"><g><path d="M 10.011719 0 L 41.820312 0 L 41.820312 -2.550781 C 35.734375 -4.320312 33.96875 -8.835938 33.96875 -24.9375 L 33.96875 -54.386719 L 47.90625 -54.386719 C 84.429688 -54.386719 103.472656 -72.648438 103.472656 -98.761719 C 103.472656 -117.808594 90.515625 -137.441406 49.871094 -137.441406 L 10.011719 -137.441406 L 10.011719 -134.890625 C 15.902344 -133.121094 17.867188 -128.605469 17.867188 -112.503906 L 17.867188 -24.9375 C 17.867188 -8.835938 15.902344 -4.320312 10.011719 -2.550781 Z M 33.96875 -57.332031 L 33.96875 -134.105469 C 36.324219 -134.300781 39.464844 -134.496094 42.214844 -134.496094 C 73.824219 -134.496094 86.195312 -115.253906 86.195312 -94.246094 C 86.195312 -71.078125 72.648438 -57.332031 47.515625 -57.332031 Z M 33.96875 -57.332031 "/></g></g></g><path fill="#f4f4f4" d="M 62.273438 199.257812 L 333.359375 199.257812 L 333.359375 228.363281 L 62.273438 228.363281 L 62.273438 199.257812 " fill-opacity="1" fill-rule="nonzero"/><g fill="#2b2b2b" fill-opacity="1"><g transform="translate(71.97559, 219.810382)"><g><path d="M 8.503906 0.203125 C 10.550781 0.203125 12.898438 -0.851562 14.074219 -2.492188 L 14.074219 -6.296875 L 11.421875 -6.296875 L 11.421875 -6.054688 C 12.292969 -5.832031 12.453125 -5.347656 12.453125 -4.089844 L 12.472656 -2.023438 C 11.96875 -1.011719 10.652344 -0.203125 9.132812 -0.203125 C 5.042969 -0.203125 2.652344 -4.394531 2.691406 -8.222656 C 2.734375 -11.949219 4.921875 -13.953125 7.835938 -13.953125 C 10.207031 -13.953125 12.070312 -12.574219 12.816406 -10.832031 L 13.019531 -10.875 L 12.941406 -13.265625 C 12.148438 -13.789062 10.226562 -14.316406 8.425781 -14.316406 C 4.089844 -14.316406 1.054688 -11.054688 1.054688 -6.984375 C 1.054688 -2.632812 3.988281 0.203125 8.503906 0.203125 Z M 8.503906 0.203125 "/></g></g></g><g fill="#2b2b2b" fill-opacity="1"><g transform="translate(90.181396, 219.810382)"><g><path d="M 7.308594 0.203125 C 10.125 0.203125 12.351562 -1.335938 12.351562 -5.40625 L 12.351562 -11.601562 C 12.351562 -13.265625 12.554688 -13.730469 13.164062 -13.910156 L 13.164062 -14.175781 L 10.652344 -14.175781 L 10.652344 -13.910156 C 11.542969 -13.667969 12.027344 -13.101562 12.027344 -10.792969 L 12.027344 -5.347656 C 12.027344 -1.378906 9.699219 -0.222656 7.957031 -0.222656 C 5.324219 -0.222656 3.238281 -1.578125 3.238281 -5.347656 L 3.238281 -11.601562 C 3.238281 -13.265625 3.441406 -13.730469 4.050781 -13.910156 L 4.050781 -14.175781 L 0.769531 -14.175781 L 0.769531 -13.910156 C 1.398438 -13.730469 1.578125 -13.265625 1.578125 -11.601562 L 1.578125 -5.222656 C 1.578125 -1.152344 4.414062 0.203125 7.308594 0.203125 Z M 7.308594 0.203125 "/></g></g></g><g fill="#2b2b2b" fill-opacity="1"><g transform="translate(107.11145, 219.810382)"><g><path d="M 11.339844 0.140625 C 11.746094 0.140625 12.273438 0.101562 12.574219 0 L 12.574219 -0.242188 C 12.472656 -0.222656 12.371094 -0.222656 12.25 -0.222656 C 11.5625 -0.222656 11.15625 -0.890625 10.1875 -3.320312 C 9.214844 -5.8125 8.828125 -7.046875 6.339844 -7.371094 C 8.972656 -7.675781 10.347656 -9.113281 10.347656 -11.015625 C 10.347656 -12.816406 9.132812 -14.175781 5.023438 -14.175781 L 1.03125 -14.175781 L 1.03125 -13.910156 C 1.660156 -13.730469 1.84375 -13.265625 1.84375 -11.601562 L 1.84375 -2.570312 C 1.84375 -0.910156 1.660156 -0.445312 1.03125 -0.261719 L 1.03125 0 L 4.3125 0 L 4.3125 -0.261719 C 3.683594 -0.445312 3.503906 -0.910156 3.503906 -2.570312 L 3.503906 -7.308594 L 4.800781 -7.308594 C 7.230469 -7.308594 7.390625 -5.894531 8.566406 -3.097656 C 9.457031 -0.992188 9.78125 0.140625 11.339844 0.140625 Z M 3.503906 -7.613281 L 3.503906 -13.832031 C 3.828125 -13.851562 4.152344 -13.871094 4.453125 -13.871094 C 7.453125 -13.871094 8.625 -12.351562 8.625 -10.550781 C 8.625 -8.828125 7.53125 -7.613281 5.203125 -7.613281 Z M 3.503906 -7.613281 "/></g></g></g><g fill="#2b2b2b" fill-opacity="1"><g transform="translate(122.684758, 219.810382)"><g><path d="M 7.308594 0.203125 C 10.125 0.203125 12.351562 -1.335938 12.351562 -5.40625 L 12.351562 -11.601562 C 12.351562 -13.265625 12.554688 -13.730469 13.164062 -13.910156 L 13.164062 -14.175781 L 10.652344 -14.175781 L 10.652344 -13.910156 C 11.542969 -13.667969 12.027344 -13.101562 12.027344 -10.792969 L 12.027344 -5.347656 C 12.027344 -1.378906 9.699219 -0.222656 7.957031 -0.222656 C 5.324219 -0.222656 3.238281 -1.578125 3.238281 -5.347656 L 3.238281 -11.601562 C 3.238281 -13.265625 3.441406 -13.730469 4.050781 -13.910156 L 4.050781 -14.175781 L 0.769531 -14.175781 L 0.769531 -13.910156 C 1.398438 -13.730469 1.578125 -13.265625 1.578125 -11.601562 L 1.578125 -5.222656 C 1.578125 -1.152344 4.414062 0.203125 7.308594 0.203125 Z M 7.308594 0.203125 "/></g></g></g><g fill="#2b2b2b" fill-opacity="1"><g transform="translate(139.614814, 219.810382)"><g><path d="M 1.03125 0 L 4.3125 0 L 4.3125 -0.261719 C 3.683594 -0.445312 3.503906 -0.910156 3.503906 -2.570312 L 3.503906 -6.054688 L 5 -7.59375 L 5.40625 -7.59375 C 7.453125 -7.65625 7.753906 -6.417969 9.09375 -3.140625 C 10.0625 -0.769531 10.429688 0.101562 11.90625 0.101562 C 12.332031 0.101562 12.777344 0.0625 13.121094 -0.0390625 L 13.121094 -0.304688 C 13 -0.285156 12.898438 -0.285156 12.777344 -0.285156 C 12.128906 -0.285156 11.683594 -0.992188 10.652344 -3.585938 C 9.273438 -7.046875 8.808594 -8.140625 5.792969 -7.9375 L 5.324219 -7.917969 L 9.640625 -12.332031 C 10.792969 -13.527344 11.644531 -13.730469 12.292969 -13.910156 L 12.292969 -14.175781 L 9.476562 -14.175781 L 9.476562 -13.992188 C 10.265625 -13.871094 10.085938 -13.203125 8.808594 -11.886719 L 3.503906 -6.460938 L 3.503906 -11.601562 C 3.503906 -13.265625 3.683594 -13.730469 4.3125 -13.910156 L 4.3125 -14.175781 L 1.03125 -14.175781 L 1.03125 -13.910156 C 1.640625 -13.730469 1.84375 -13.265625 1.84375 -11.601562 L 1.84375 -2.570312 C 1.84375 -0.910156 1.640625 -0.445312 1.03125 -0.261719 Z M 1.03125 0 "/></g></g></g><g fill="#2b2b2b" fill-opacity="1"><g transform="translate(155.755125, 219.810382)"><g><path d="M 7.308594 0.203125 C 10.125 0.203125 12.351562 -1.335938 12.351562 -5.40625 L 12.351562 -11.601562 C 12.351562 -13.265625 12.554688 -13.730469 13.164062 -13.910156 L 13.164062 -14.175781 L 10.652344 -14.175781 L 10.652344 -13.910156 C 11.542969 -13.667969 12.027344 -13.101562 12.027344 -10.792969 L 12.027344 -5.347656 C 12.027344 -1.378906 9.699219 -0.222656 7.957031 -0.222656 C 5.324219 -0.222656 3.238281 -1.578125 3.238281 -5.347656 L 3.238281 -11.601562 C 3.238281 -13.265625 3.441406 -13.730469 4.050781 -13.910156 L 4.050781 -14.175781 L 0.769531 -14.175781 L 0.769531 -13.910156 C 1.398438 -13.730469 1.578125 -13.265625 1.578125 -11.601562 L 1.578125 -5.222656 C 1.578125 -1.152344 4.414062 0.203125 7.308594 0.203125 Z M 7.308594 0.203125 "/></g></g></g><g fill="#2b2b2b" fill-opacity="1"><g transform="translate(172.685181, 219.810382)"><g><path d="M 1.03125 0 L 10.449219 0 L 10.589844 -2.289062 L 10.367188 -2.328125 C 9.660156 -0.808594 8.769531 -0.324219 6.824219 -0.324219 L 4.414062 -0.324219 C 3.828125 -0.324219 3.503906 -0.648438 3.503906 -1.234375 L 3.503906 -11.601562 C 3.503906 -13.265625 3.683594 -13.730469 4.3125 -13.910156 L 4.3125 -14.175781 L 1.03125 -14.175781 L 1.03125 -13.910156 C 1.640625 -13.730469 1.84375 -13.265625 1.84375 -11.601562 L 1.84375 -2.570312 C 1.84375 -0.910156 1.640625 -0.445312 1.03125 -0.261719 Z M 1.03125 0 "/></g></g></g><g fill="#2b2b2b" fill-opacity="1"><g transform="translate(186.861251, 219.810382)"><g/></g></g><g fill="#2b2b2b" fill-opacity="1"><g transform="translate(194.294074, 219.810382)"><g><path d="M 1.03125 0 L 4.3125 0 L 4.3125 -0.261719 C 3.683594 -0.445312 3.503906 -0.910156 3.503906 -2.570312 L 3.503906 -5.609375 L 4.941406 -5.609375 C 8.707031 -5.609375 10.671875 -7.492188 10.671875 -10.1875 C 10.671875 -12.148438 9.335938 -14.175781 5.144531 -14.175781 L 1.03125 -14.175781 L 1.03125 -13.910156 C 1.640625 -13.730469 1.84375 -13.265625 1.84375 -11.601562 L 1.84375 -2.570312 C 1.84375 -0.910156 1.640625 -0.445312 1.03125 -0.261719 Z M 3.503906 -5.914062 L 3.503906 -13.832031 C 3.746094 -13.851562 4.070312 -13.871094 4.355469 -13.871094 C 7.613281 -13.871094 8.890625 -11.886719 8.890625 -9.71875 C 8.890625 -7.332031 7.492188 -5.914062 4.902344 -5.914062 Z M 3.503906 -5.914062 "/></g></g></g><g fill="#2b2b2b" fill-opacity="1"><g transform="translate(208.652391, 219.810382)"><g><path d="M 1.03125 0 L 4.3125 0 L 4.3125 -0.261719 C 3.683594 -0.445312 3.503906 -0.910156 3.503906 -2.570312 L 3.503906 -7.351562 L 11.21875 -7.351562 L 11.21875 -2.570312 C 11.21875 -0.910156 11.015625 -0.445312 10.410156 -0.261719 L 10.410156 0 L 13.6875 0 L 13.6875 -0.261719 C 13.0625 -0.445312 12.878906 -0.910156 12.878906 -2.570312 L 12.878906 -11.601562 C 12.878906 -13.265625 13.0625 -13.730469 13.6875 -13.910156 L 13.6875 -14.175781 L 10.410156 -14.175781 L 10.410156 -13.910156 C 11.015625 -13.730469 11.21875 -13.265625 11.21875 -11.601562 L 11.21875 -7.675781 L 3.503906 -7.675781 L 3.503906 -11.601562 C 3.503906 -13.265625 3.683594 -13.730469 4.3125 -13.910156 L 4.3125 -14.175781 L 1.03125 -14.175781 L 1.03125 -13.910156 C 1.640625 -13.730469 1.84375 -13.265625 1.84375 -11.601562 L 1.84375 -2.570312 C 1.84375 -0.910156 1.640625 -0.445312 1.03125 -0.261719 Z M 1.03125 0 "/></g></g></g><g fill="#2b2b2b" fill-opacity="1"><g transform="translate(226.534195, 219.810382)"><g><path d="M -0.34375 0 L 1.945312 0 L 1.945312 -0.261719 C 1.253906 -0.40625 1.175781 -1.074219 1.699219 -2.390625 L 2.894531 -5.347656 L 8.605469 -5.347656 L 9.839844 -2.371094 C 10.488281 -0.851562 10.652344 -0.445312 10.023438 -0.261719 L 10.023438 0 L 13.164062 0 L 13.164062 -0.261719 C 12.738281 -0.445312 12.25 -0.851562 11.625 -2.371094 L 6.640625 -14.335938 L 5.125 -13.648438 L 5.304688 -13.222656 C 5.46875 -12.898438 5.488281 -12.636719 5.347656 -12.273438 L 1.355469 -2.390625 C 0.730469 -0.851562 0.222656 -0.445312 -0.34375 -0.261719 Z M 3.015625 -5.648438 L 5.710938 -12.3125 L 8.484375 -5.648438 Z M 3.015625 -5.648438 "/></g></g></g><g fill="#2b2b2b" fill-opacity="1"><g transform="translate(242.694751, 219.810382)"><g><path d="M 11.339844 0.140625 C 11.746094 0.140625 12.273438 0.101562 12.574219 0 L 12.574219 -0.242188 C 12.472656 -0.222656 12.371094 -0.222656 12.25 -0.222656 C 11.5625 -0.222656 11.15625 -0.890625 10.1875 -3.320312 C 9.214844 -5.8125 8.828125 -7.046875 6.339844 -7.371094 C 8.972656 -7.675781 10.347656 -9.113281 10.347656 -11.015625 C 10.347656 -12.816406 9.132812 -14.175781 5.023438 -14.175781 L 1.03125 -14.175781 L 1.03125 -13.910156 C 1.660156 -13.730469 1.84375 -13.265625 1.84375 -11.601562 L 1.84375 -2.570312 C 1.84375 -0.910156 1.660156 -0.445312 1.03125 -0.261719 L 1.03125 0 L 4.3125 0 L 4.3125 -0.261719 C 3.683594 -0.445312 3.503906 -0.910156 3.503906 -2.570312 L 3.503906 -7.308594 L 4.800781 -7.308594 C 7.230469 -7.308594 7.390625 -5.894531 8.566406 -3.097656 C 9.457031 -0.992188 9.78125 0.140625 11.339844 0.140625 Z M 3.503906 -7.613281 L 3.503906 -13.832031 C 3.828125 -13.851562 4.152344 -13.871094 4.453125 -13.871094 C 7.453125 -13.871094 8.625 -12.351562 8.625 -10.550781 C 8.625 -8.828125 7.53125 -7.613281 5.203125 -7.613281 Z M 3.503906 -7.613281 "/></g></g></g><g fill="#2b2b2b" fill-opacity="1"><g transform="translate(258.268065, 219.810382)"><g><path d="M 1.011719 0 L 3.5625 0 L 3.5625 -0.261719 C 2.671875 -0.507812 2.1875 -1.074219 2.1875 -3.382812 L 2.1875 -12.371094 L 7.371094 -3.847656 L 7.753906 -3.847656 L 12.898438 -12.535156 L 12.898438 -2.570312 C 12.898438 -0.910156 12.695312 -0.445312 12.089844 -0.261719 L 12.089844 0 L 15.371094 0 L 15.371094 -0.261719 C 14.742188 -0.445312 14.558594 -0.910156 14.558594 -2.570312 L 14.558594 -10.792969 C 14.558594 -13.101562 14.984375 -13.667969 15.796875 -13.910156 L 15.796875 -14.175781 L 13.507812 -14.175781 L 8.324219 -5.445312 L 3.039062 -14.175781 L 0.585938 -14.175781 L 0.585938 -13.910156 C 1.398438 -13.667969 1.824219 -13.101562 1.824219 -10.792969 L 1.824219 -2.570312 C 1.824219 -0.910156 1.640625 -0.445312 1.011719 -0.261719 Z M 1.011719 0 "/></g></g></g><g fill="#2b2b2b" fill-opacity="1"><g transform="translate(278.276113, 219.810382)"><g><path d="M -0.34375 0 L 1.945312 0 L 1.945312 -0.261719 C 1.253906 -0.40625 1.175781 -1.074219 1.699219 -2.390625 L 2.894531 -5.347656 L 8.605469 -5.347656 L 9.839844 -2.371094 C 10.488281 -0.851562 10.652344 -0.445312 10.023438 -0.261719 L 10.023438 0 L 13.164062 0 L 13.164062 -0.261719 C 12.738281 -0.445312 12.25 -0.851562 11.625 -2.371094 L 6.640625 -14.335938 L 5.125 -13.648438 L 5.304688 -13.222656 C 5.46875 -12.898438 5.488281 -12.636719 5.347656 -12.273438 L 1.355469 -2.390625 C 0.730469 -0.851562 0.222656 -0.445312 -0.34375 -0.261719 Z M 3.015625 -5.648438 L 5.710938 -12.3125 L 8.484375 -5.648438 Z M 3.015625 -5.648438 "/></g></g></g><g fill="#2b2b2b" fill-opacity="1"><g transform="translate(294.436657, 219.810382)"><g><path d="M 8.6875 0.203125 C 10.957031 0.203125 12.878906 -0.363281 13.832031 -0.890625 L 14.15625 -3.523438 L 13.933594 -3.542969 C 13.140625 -1.355469 11.441406 -0.203125 9.253906 -0.203125 C 5.042969 -0.203125 2.734375 -3.847656 2.753906 -7.65625 C 2.753906 -11.785156 5.246094 -13.933594 8.464844 -13.933594 C 10.875 -13.933594 12.796875 -12.695312 13.585938 -10.855469 L 13.789062 -10.894531 L 13.710938 -13.304688 C 12.917969 -13.808594 10.894531 -14.316406 9.152344 -14.316406 C 4.394531 -14.316406 1.054688 -11.117188 1.054688 -6.804688 C 1.054688 -2.390625 4.03125 0.203125 8.6875 0.203125 Z M 8.6875 0.203125 "/></g></g></g><g fill="#2b2b2b" fill-opacity="1"><g transform="translate(312.622211, 219.810382)"><g><path d="M 3.828125 0 L 7.128906 0 L 7.128906 -0.261719 C 6.5 -0.445312 6.316406 -0.910156 6.316406 -2.570312 L 6.316406 -6.417969 L 9.417969 -11.925781 C 10.226562 -13.363281 10.855469 -13.730469 11.402344 -13.910156 L 11.402344 -14.175781 L 8.992188 -14.175781 L 8.992188 -13.910156 C 9.761719 -13.769531 9.742188 -13.164062 9.050781 -11.925781 L 6.214844 -6.90625 L 3.402344 -11.925781 C 2.59375 -13.363281 2.347656 -13.730469 2.957031 -13.910156 L 2.957031 -14.175781 L -0.242188 -14.175781 L -0.242188 -13.910156 C 0.183594 -13.730469 0.769531 -13.363281 1.558594 -11.925781 L 4.617188 -6.378906 L 4.617188 -2.570312 C 4.636719 -0.910156 4.433594 -0.445312 3.828125 -0.261719 Z M 3.828125 0 "/></g></g></g></svg>