<?xml version="1.0" standalone="no"?>
<!DOCTYPE svg PUBLIC "-//W3C//DTD SVG 1.1//EN" "http://www.w3.org/Graphics/SVG/1.1/DTD/svg11.dtd">
<svg xmlns="http://www.w3.org/2000/svg" viewBox="0 0 538.47 250.17" width="538.469970703125" height="250.1699981689453"><defs><style>.cls-1{fill:#353031;}.cls-2{fill:#ff3131;}</style></defs><g id="Layer_2" data-name="Layer 2"><g id="Layer_1-2" data-name="Layer 1"><rect class="cls-1" x="172.08" y="190.33" width="366.39" height="4.93" rx="2.47"/><path class="cls-1" d="M222.88,203h9.72l15,46.34h-8.77l-7-24.64c-1.4-4.89-2.88-10.15-4.14-15.27h-.28c-1.31,5.12-2.69,10.38-4.09,15.27l-7.06,24.64h-8.43Zm-6.1,27.31h21.73v6.51H216.78Z"/><path class="cls-1" d="M255.35,226.28c0-15.14,9.21-24.15,21.46-24.15a18.67,18.67,0,0,1,13.28,5.77l-4.6,5.14a11.86,11.86,0,0,0-8.68-3.74c-7.69,0-13,6.35-13,16.73,0,10.58,5.29,17,13.19,17,3.78,0,6.78-1.74,9.35-4.58l4.6,5a18.54,18.54,0,0,1-14.78,6.76C264.71,250.17,255.35,241.66,255.35,226.28Z"/><path class="cls-1" d="M312.19,203h9.71l15,46.34h-8.78l-7-24.64c-1.4-4.89-2.88-10.15-4.14-15.27h-.29c-1.3,5.12-2.69,10.38-4.08,15.27l-7.06,24.64h-8.44Zm-6.1,27.31h21.72v6.51H306.09Z"/><path class="cls-1" d="M346,203h12.13c13.68,0,21.89,7.64,21.89,23s-8.21,23.38-21.45,23.38H346Zm11.63,39.65c8.85,0,13.91-5.29,13.91-16.69s-5.06-16.27-13.91-16.27h-3.38v33Z"/><path class="cls-1" d="M392.39,203H422.1v6.93H400.63v11.85h18.19v6.93H400.63v13.7h22.18v6.93H392.39Z"/><path class="cls-1" d="M434.32,203h9.13L449,221.06l1.9,6.94h.29l1.85-6.94L458.55,203h9.13v46.34H460.4v-18.7c0-4.87.81-14.5,1.2-19h-.21L458.3,222.4,453.2,237h-4.67l-5.07-14.64-3-10.77h-.2c.48,4.49,1.2,14.12,1.2,19v18.7h-7.14Z"/><path class="cls-1" d="M491.54,233.23,476.31,203h8.78l5.8,12.4c1.56,3.59,3.06,7,4.74,10.71h.28c1.64-3.68,3.3-7.12,4.89-10.71l5.67-12.4H515l-15.23,30.25v16.09h-8.24Z"/><path class="cls-2" d="M0,69.76l16.05,7.3v84.47H63L58.62,175.1H0Z"/><path class="cls-2" d="M93.18,84.36h19l30.86,98H125.89l-15.11-55.55c-2.73-9.57-5.63-19.87-8.1-29.9h-.56c-2.56,10-5.27,20.33-8,29.9L80.3,175.1H63.78ZM81.24,137.84h42.54v12.75H81.24Z"/><path class="cls-2" d="M172.08,119l27.17-34.6h18.11L179.47,132Zm5.71,9.83,9.58-12.63,32.91,58.94h-18Z"/><path class="cls-2" d="M224.61,163.51,234,152.4c6.89,6.19,15.81,10.33,25.32,10.33,10.55,0,16.14-4.65,16.14-11,0-8.08-6.21-10.25-15.06-14l-12.48-5.42c-9.53-3.71-19.36-10.76-19.36-24.07,0-14.43,13-25.57,31.52-25.57a41.79,41.79,0,0,1,29.05,11.55l-8.24,10.24c-6.18-4.92-12.45-7.75-21.58-7.75-8.62,0-14.42,3.87-14.42,10.58,0,7.07,7.24,9.65,15.47,12.8l11.91,5.18c11.54,4.45,19.71,11.34,19.71,24.44,0,14.74-12.41,27-33.62,27A49.26,49.26,0,0,1,224.61,163.51Z"/><path class="cls-2" d="M304.1,84.36h16.23v36.4h31V84.36h16.23v98l-16.23-7.3V134.9h-31v40.2H304.1Z"/><path class="cls-2" d="M405.48,143.59,375.67,84.36h17.19l11.36,24.28c3.06,7,6,13.76,9.28,21h.56c3.2-7.22,6.45-14,9.56-21l11.1-24.28h16.72l-29.82,59.23V182.4l-16.14-7.3Z"/><path class="cls-2" d="M463.5,84.36h19l35.25,98H500.59L481.1,126.85c-2.73-9.57-5.63-19.87-8.1-29.9h-.56c-2.56,10-5.27,20.33-8,29.9l-12.36,41H435.56Zm-11.94,53.48H494.1v12.75H451.56Z"/><path class="cls-1" d="M126.94,214.5a2.68,2.68,0,0,0-2.25,4.12l18.75,29.46a2.67,2.67,0,0,0,4.51,0l18.75-29.45a2.68,2.68,0,0,0-.83-3.7,2.6,2.6,0,0,0-1.43-.42Z"/><path class="cls-1" d="M149.71,38.84V205.13a1.36,1.36,0,0,0,1.34,1.34h13.4a2.73,2.73,0,0,0,2.68-2.68V40.17a2.67,2.67,0,0,0-2.67-2.67h-13.4A1.34,1.34,0,0,0,149.71,38.84Z"/><path class="cls-1" d="M145.7,0a21.45,21.45,0,0,0-21.43,21.43v5.35A2.7,2.7,0,0,0,127,29.47h37.49a2.76,2.76,0,0,0,2.68-2.68V21.42A21.53,21.53,0,0,0,145.7,0Z"/><path class="cls-1" d="M140.34,37.49H127a2.69,2.69,0,0,0-2.68,2.68V69.39a2.67,2.67,0,0,0,2.67,2.67h13.4a1.34,1.34,0,0,0,1.34-1.33V38.83a1.34,1.34,0,0,0-1.34-1.34Z"/></g></g></svg>