<?xml version="1.0" encoding="utf-8"?>
<!-- Generator: Adobe Illustrator 19.0.0, SVG Export Plug-In . SVG Version: 6.00 Build 0)  -->
<svg version="1.1" id="Layer_1" xmlns="http://www.w3.org/2000/svg" xmlns:xlink="http://www.w3.org/1999/xlink" x="0px" y="0px"
	 viewBox="-399 236 160 90" style="enable-background:new -399 236 160 90;" xml:space="preserve">
<style type="text/css">
	.st0{fill:#6f53a7;}
</style>
<g id="Layer_1_1_">
	<g id="XMLID_1_">
		<g id="XMLID_112_">
			<g id="XMLID_17_">
				<path class="st0" d="M-326.8,275.9c6.5-0.1,13-0.2,19.6-0.3c0,0.1-0.1,0.1-0.1,0.2c-1.4,2-2.9,4-4.3,6c-0.1,0.1-0.2,0.2-0.3,0.2
					c-3.5,0-6.9,0-10.3,0c-0.2,0-0.3-0.1-0.4-0.2C-323.9,279.9-325.4,278.1-326.8,275.9C-326.7,276.1-326.7,276-326.8,275.9z"/>
			</g>
			<g id="XMLID_109_">
				<path class="st0" d="M-322.2,282.3c-0.3,0-0.4-0.1-0.6-0.3c-1-1.5-2-3-3.3-4.5l-0.9-1.2l-0.1-0.1l-0.3-0.5l20.4-0.3l-0.3,0.5
					l-0.1,0.1l-0.9,1.3c-1.1,1.5-2.2,3.2-3.4,4.7c-0.1,0.2-0.3,0.3-0.5,0.3C-315.3,282.3-318.7,282.3-322.2,282.3L-322.2,282.3z
					 M-326.3,276.2l0.7,1c1,1.5,2,3,3.3,4.5c0.1,0.1,0.1,0.1,0.2,0.1l0,0c3.5,0,6.9,0,10.3,0c0.1,0,0.1,0,0.1,0
					c1.1-1.5,2.2-3.2,3.4-4.7l0.7-1.1L-326.3,276.2z"/>
			</g>
		</g>
		<g id="XMLID_108_">
			<g id="XMLID_16_">
				<path class="st0" d="M-307.1,270.6c0,1.3,0,2.8,0.1,4.1c-6.8,0-13.4,0-20.1,0c0-0.1-0.1-3.6-0.1-3.9
					C-320.6,270.8-313.9,270.7-307.1,270.6z"/>
			</g>
			<g id="XMLID_105_">
				<path class="st0" d="M-327.4,275l-0.1-0.2c-0.1-0.2-0.1-4-0.1-4v-0.2l20.6-0.3l0.1,4.6L-327.4,275z M-327,271.1
					c0,0.7,0,2.8,0.1,3.5h19.7V271L-327,271.1z"/>
			</g>
		</g>
		<g id="XMLID_104_">
			<g id="XMLID_15_">
				<path class="st0" d="M-310.9,265c0,1.5,0,3,0.1,4.5c-0.2,0.1-1.9,0.1-2.2,0c0-1.3,0-2.6-0.1-3.9c-0.1,0-0.1,0-0.2,0.1
					c-3.7,1-7.5,2-11.2,3.2c-0.2,0.1-0.5,0.1-0.7,0c-0.6-0.1-0.9-0.6-0.9-1.1s0.4-1,0.8-1.2c0.8-0.3,1.7-0.5,2.5-0.7
					c4.2-1.1,8.3-2.4,12.5-3.5c0.3-0.1,0.6-0.1,0.8,0c0.6,0.2,0.8,0.7,0.8,1.2s-0.4,1-0.8,1.2c-0.5,0.1-0.8,0.3-1.3,0.4
					C-310.8,265-310.8,265-310.9,265z"/>
			</g>
			<g id="XMLID_101_">
				<path class="st0" d="M-312.4,269.9c-0.4,0-0.7,0-0.7,0h-0.2l-0.1-3.8l-0.7,0.2c-3.5,0.9-7,1.9-10.3,3c-0.3,0.1-0.6,0.1-0.8,0
					c-0.7-0.2-1.1-0.7-1.1-1.4c0-0.7,0.4-1.3,1-1.5s1.2-0.4,1.8-0.5l3.3-0.8c3.4-0.9,6.7-1.9,10-2.8c0.3-0.1,0.6-0.2,0.9,0
					c0.7,0.2,1,0.7,1,1.4c0,0.7-0.5,1.2-1,1.4c-0.3,0.1-0.6,0.2-0.8,0.3l-0.5,0.1c0,0,0,0-0.1,0l0.1,4.5l-0.2,0.1
					C-310.9,269.8-311.7,269.9-312.4,269.9z M-312.9,269.3c0.4,0,1.3,0,1.7,0l-0.1-4.5l0.3-0.1c0.1,0,0.1,0,0.2-0.1l0.5-0.1
					c0.3-0.1,0.6-0.2,0.8-0.3c0.4-0.1,0.7-0.5,0.7-0.9c0-0.5-0.3-0.8-0.7-0.9c-0.2-0.1-0.4-0.1-0.7,0c-3.4,0.9-6.7,1.9-10,2.8
					l-3.3,0.8c-0.6,0.2-1.2,0.4-1.8,0.5c-0.5,0.1-0.7,0.6-0.7,0.9c0,0.5,0.3,0.8,0.7,0.9c0.2,0,0.4,0,0.6,0c3.5-0.9,7-1.9,10.3-3
					l0.7-0.2h0.1l0.4-0.1L-312.9,269.3z"/>
			</g>
		</g>
		<g id="XMLID_100_">
			<g id="XMLID_14_">
				<path class="st0" d="M-308.6,254.2c0,0.7-0.4,1.1-0.9,1.3c-0.7,0.2-1.3,0.4-2,0.6c-4.3,1.2-8.6,2.4-12.9,3.6
					c-0.3,0.1-0.6,0.1-0.8,0c-0.6-0.2-0.8-0.7-0.8-1.2c0-0.6,0.4-1,0.8-1.2c0.6-0.2,1.1-0.4,1.7-0.5c4.4-1.2,8.9-2.5,13.2-3.7
					c0.5-0.1,0.9-0.1,1.2,0.3C-308.7,253.6-308.6,253.9-308.6,254.2z"/>
			</g>
			<g id="XMLID_97_">
				<path class="st0" d="M-325,260.1c-0.1,0-0.3,0-0.4-0.1c-0.7-0.2-1-0.7-1-1.4c0-0.7,0.5-1.2,1-1.4c0.4-0.1,0.8-0.3,1.2-0.4l4-1.1
					c3.3-0.9,6.5-1.8,9.7-2.8c0.6-0.2,1.1-0.1,1.5,0.4c0.3,0.3,0.5,0.7,0.5,1l0,0c0,0.7-0.5,1.3-1.1,1.5c-0.5,0.1-0.9,0.3-1.4,0.4
					l-3.3,0.9c-3.5,0.9-6.9,1.9-10.2,2.9C-324.4,260-324.7,260.1-325,260.1z M-309.8,253.1c-0.1,0-0.3,0-0.4,0.1
					c-3.3,0.9-6.5,1.8-9.7,2.8l-4,1.1c-0.4,0.1-0.8,0.2-1.2,0.4c-0.5,0.1-0.7,0.5-0.7,0.9c0,0.5,0.3,0.8,0.7,0.9
					c0.2,0.1,0.4,0.1,0.7,0c3.5-0.9,6.9-1.9,10.2-2.9l3.3-0.9c0.5-0.1,0.9-0.3,1.4-0.4c0.5-0.1,0.7-0.6,0.7-1c0-0.3-0.1-0.5-0.3-0.7
					C-309.3,253.3-309.5,253.1-309.8,253.1z"/>
			</g>
		</g>
		<g id="XMLID_96_">
			<g id="XMLID_13_">
				<path class="st0" d="M-308.7,249.6c0,0.6-0.4,1-0.9,1.2c-0.9,0.3-1.8,0.5-2.8,0.7c-4.1,1.1-8.2,2.3-12.2,3.5
					c-0.3,0.1-0.6,0.1-0.9,0c-0.5-0.2-0.7-0.7-0.7-1.2s0.4-0.9,0.8-1.1c0.6-0.2,1.1-0.3,1.7-0.5c4.4-1.2,8.9-2.5,13.2-3.7
					c0.3-0.1,0.6-0.1,0.8,0C-309,248.5-308.7,249.1-308.7,249.6z"/>
			</g>
			<g id="XMLID_93_">
				<path class="st0" d="M-325,255.3c-0.2,0-0.4,0-0.6-0.1c-0.6-0.3-0.9-0.8-0.9-1.5c0-0.6,0.5-1.1,1-1.3c0.4-0.1,0.8-0.3,1.2-0.4
					l3.9-1.1c3.3-0.9,6.5-1.8,9.8-2.8c0.3-0.1,0.6-0.1,0.9,0c0.7,0.2,1,0.7,1,1.4s-0.5,1.2-1,1.4c-0.7,0.2-1.4,0.4-2,0.6l-3.6,1
					c-3.1,0.8-6.3,1.7-9.2,2.6C-324.7,255.3-324.8,255.3-325,255.3z M-309.9,248.5c-0.1,0-0.3,0-0.4,0.1c-3.3,0.9-6.5,1.8-9.8,2.8
					l-3.9,1.1c-0.4,0.1-0.8,0.2-1.2,0.4c-0.4,0.1-0.7,0.5-0.7,0.8c0,0.5,0.2,0.8,0.6,1c0.2,0.1,0.5,0.1,0.7,0
					c3.1-0.8,6.3-1.7,9.2-2.6l3.6-1c0.7-0.2,1.4-0.4,2-0.6c0.5-0.1,0.7-0.5,0.7-0.9s-0.3-0.8-0.7-0.9
					C-309.7,248.5-309.8,248.5-309.9,248.5z"/>
			</g>
		</g>
		<g id="XMLID_92_">
			<g id="XMLID_12_">
				<path class="st0" d="M-326,263.1c0-0.6,0.4-1,0.9-1.2c0.9-0.3,1.9-0.6,2.9-0.8c4-1.1,8.1-2.3,12.1-3.5c0.5-0.1,0.8-0.1,1.2,0.2
					c0.4,0.3,0.6,0.7,0.5,1.2s-0.4,0.8-0.8,1c-0.7,0.2-1.2,0.4-1.9,0.6c-4.4,1.2-8.8,2.5-13.1,3.7c-0.3,0.1-0.6,0.1-0.8,0
					C-325.6,264.2-326,263.7-326,263.1z"/>
			</g>
			<g id="XMLID_89_">
				<path class="st0" d="M-324.8,264.6c-0.1,0-0.3,0-0.4-0.1c-0.7-0.2-1-0.7-1-1.4c0-0.7,0.5-1.2,1.1-1.4c0.7-0.2,1.5-0.4,2.3-0.7
					l3.8-1c3-0.8,5.9-1.7,9-2.5c0.6-0.2,1-0.1,1.4,0.2c0.5,0.4,0.7,0.8,0.6,1.4s-0.5,1-1,1.2c-0.5,0.1-0.8,0.3-1.3,0.4
					c-0.2,0.1-0.4,0.1-0.6,0.2l-2.9,0.8c-3.5,0.9-6.8,1.9-10.2,2.9C-324.3,264.5-324.6,264.6-324.8,264.6z M-326,263.1h0.3
					c0,0.5,0.3,0.8,0.7,0.9c0.2,0.1,0.4,0,0.7,0c3.5-0.9,6.8-1.9,10.2-2.9l2.9-0.8c0.2-0.1,0.4-0.1,0.6-0.2c0.5-0.1,0.8-0.3,1.3-0.4
					c0.4-0.1,0.7-0.4,0.7-0.7c0.1-0.4-0.1-0.7-0.4-0.9c-0.3-0.2-0.6-0.3-0.9-0.2c-3,0.8-5.9,1.7-9,2.5l-3.8,1
					c-0.7,0.2-1.5,0.4-2.3,0.7c-0.5,0.1-0.7,0.5-0.7,0.9L-326,263.1L-326,263.1z"/>
			</g>
		</g>
		<g id="XMLID_88_">
			<g id="XMLID_11_">
				<path class="st0" d="M-325,250.8c-0.7,0-1.1-0.5-1.2-1c-0.1-0.6,0.3-1.2,0.8-1.4c0.6-0.2,1.2-0.4,1.8-0.5
					c1.9-0.6,3.9-1.1,5.8-1.6c0.7-0.2,1.2,0.1,1.5,0.7c0.3,0.7-0.1,1.5-0.8,1.7c-0.7,0.2-1.2,0.4-1.9,0.6c-1.9,0.6-3.8,1-5.7,1.6
					C-324.7,250.7-324.8,250.8-325,250.8z"/>
			</g>
			<g id="XMLID_85_">
				<path class="st0" d="M-324.9,251.1L-324.9,251.1c-0.7,0-1.4-0.6-1.5-1.2c-0.1-0.7,0.3-1.4,1-1.7c0.4-0.1,0.8-0.3,1.2-0.4
					l1.6-0.5c1.6-0.5,3.2-0.8,4.8-1.3c0.7-0.2,1.5,0.1,1.8,0.8c0.2,0.4,0.2,0.8,0,1.2s-0.6,0.7-0.9,0.8c-0.5,0.1-0.8,0.3-1.3,0.4
					l-1.6,0.5c-1.5,0.5-3.2,0.8-4.7,1.3C-324.6,251.1-324.7,251.1-324.9,251.1C-324.8,251-324.9,251-324.9,251.1L-324.9,251.1z
					 M-317.3,246.3c-0.1,0-0.2,0-0.3,0c-1.6,0.5-3.2,0.8-4.8,1.3l-1.1,0.3c-0.2,0.1-0.4,0.1-0.6,0.2c-0.4,0.1-0.8,0.2-1.2,0.4
					c-0.5,0.2-0.7,0.7-0.7,1.1c0.1,0.5,0.5,0.8,0.9,0.8h0.1c0.1,0,0.2,0,0.3-0.1c1.5-0.5,3.2-0.8,4.7-1.3l1.6-0.5
					c0.5-0.1,0.8-0.3,1.3-0.4c0.3-0.1,0.6-0.3,0.7-0.6s0.1-0.6,0-0.8C-316.5,246.5-316.9,246.3-317.3,246.3z"/>
			</g>
		</g>
		<g id="XMLID_84_">
			<g id="XMLID_10_">
				<path class="st0" d="M-317.1,288.6c-1.4,0-2.9,0-4.4,0.1c-0.3,0-0.4-0.1-0.5-0.3s0-0.5,0.1-0.7c0.1-0.1,0.2-0.1,0.3-0.1
					c0.8,0,1.8,0,2.7,0c2,0,4-0.1,6-0.1h0.1c0.3,0,0.4,0.1,0.5,0.4s0,0.6-0.2,0.7c-0.1,0-0.2,0.1-0.3,0.1c-0.8,0-1.7,0-2.7,0
					C-315.8,288.6-316.4,288.5-317.1,288.6L-317.1,288.6z"/>
			</g>
			<g id="XMLID_81_">
				<path class="st0" d="M-321.4,288.9c-0.5,0-0.7-0.3-0.7-0.5c-0.1-0.3,0-0.7,0.2-0.9c0.2-0.1,0.3-0.2,0.5-0.2c0.7,0,1.2,0,1.9,0
					l6.9-0.1l0,0c0.4,0,0.6,0.2,0.7,0.6s0,0.7-0.3,0.9c-0.1,0.1-0.3,0.1-0.4,0.1c-0.8,0-1.7,0-2.7,0c-0.4,0-0.8,0-1.2,0h-0.3l0,0
					h-1.4C-319.2,288.9-320.2,288.9-321.4,288.9L-321.4,288.9z M-312.6,287.7C-312.7,287.7-312.7,287.7-312.6,287.7l-6.9,0.1
					c-0.7,0-1.2,0-1.9,0c-0.1,0-0.1,0-0.1,0c-0.1,0.1-0.1,0.3-0.1,0.4s0.1,0.2,0.3,0.2c1,0,2,0,3.2,0h0.9l0,0h0.7c0.4,0,0.8,0,1.2,0
					c0.8,0,1.7,0,2.7,0c0.1,0,0.1,0,0.1,0c0.1,0,0.1-0.2,0.1-0.4C-312.4,287.7-312.5,287.7-312.6,287.7z"/>
			</g>
		</g>
		<g id="XMLID_80_">
			<g id="XMLID_9_">
				<path class="st0" d="M-317.4,292.7c-0.7,0-2,0-3.3,0h-0.1c-0.1,0-0.1,0-0.2,0c-0.2-0.1-0.3-0.3-0.2-0.6c0-0.2,0.2-0.3,0.4-0.4
					h0.1c2.5,0,4.9-0.1,7.6-0.1c0.1,0,0.1,0,0.2,0c0.2,0,0.4,0.2,0.4,0.4v0.1c0,0.2-0.2,0.4-0.4,0.4h-0.1
					C-314.5,292.7-315.7,292.7-317.4,292.7z"/>
			</g>
			<g id="XMLID_77_">
				<path class="st0" d="M-320.8,293C-320.9,293-320.9,293-320.8,293c-0.2,0-0.2,0-0.3-0.1c-0.3-0.1-0.4-0.5-0.4-0.7
					s0.3-0.5,0.6-0.6h0.1l0,0l7.6-0.1c0.1,0,0.1,0,0.2,0c0.4,0,0.6,0.3,0.6,0.7c0,0.1,0,0.1,0,0.2c0,0.4-0.3,0.6-0.6,0.7h-0.1l0,0
					h-7.7L-320.8,293L-320.8,293z M-320.8,292.1C-320.9,292.1-320.9,292.1-320.8,292.1c-0.1,0-0.2,0.1-0.2,0.1c0,0.1,0,0.2,0.1,0.3
					h0.1c0,0,0,0,0.1,0l0,0l7.6-0.1c0,0,0,0,0.1,0s0.2-0.1,0.2-0.2v-0.1c0-0.1-0.1-0.2-0.2-0.2h-0.1l0,0L-320.8,292.1L-320.8,292.1
					L-320.8,292.1z"/>
			</g>
		</g>
		<g id="XMLID_76_">
			<g id="XMLID_8_">
				<path class="st0" d="M-317.4,284.2c-1,0-2.5,0-3.9,0.1c-0.1,0-0.2,0-0.3,0c-0.2,0-0.4-0.2-0.4-0.4c0-0.2,0.2-0.4,0.4-0.4
					c0.5,0,1,0,1.5,0c2.5,0,4.8-0.1,7.4-0.1c0.1,0,0.1,0,0.2,0c0.2,0,0.3,0.2,0.4,0.4c0,0.2-0.1,0.4-0.3,0.4c-0.1,0-0.2,0-0.3,0
					C-314.2,284.2-315.6,284.2-317.4,284.2z"/>
			</g>
			<g id="XMLID_73_">
				<path class="st0" d="M-321.4,284.5L-321.4,284.5c-0.5,0-0.7-0.3-0.7-0.7c0-0.4,0.3-0.6,0.7-0.6c0.5,0,1,0,1.5,0
					c2.2,0,4.4-0.1,6.7-0.1h0.7c0.1,0,0.1,0,0.2,0c0.3,0,0.5,0.3,0.6,0.6c0,0.3-0.2,0.6-0.5,0.7c-0.1,0-0.2,0-0.3,0
					c-1.1,0-2.4,0-3.7,0L-321.4,284.5L-321.4,284.5z M-312.7,283.6L-312.7,283.6h-0.7c-2.2,0-4.4,0.1-6.7,0.1c-0.5,0-1,0-1.5,0
					c-0.1,0-0.2,0.1-0.2,0.1c0,0.1,0.1,0.2,0.2,0.2s0.1,0,0.2,0h0.1l4.8-0.1c1.3,0,2.6,0,3.7,0c0.1,0,0.2,0,0.2,0
					c0.1,0,0.1-0.1,0.1-0.2S-312.5,283.6-312.7,283.6C-312.6,283.6-312.6,283.6-312.7,283.6z"/>
			</g>
		</g>
		<g id="XMLID_72_">
			<g id="XMLID_7_">
				<path class="st0" d="M-317,290.7c-1.4,0-2.9,0-4.3,0.1c-0.1,0-0.2,0-0.2,0c-0.2,0-0.3-0.2-0.4-0.4c0-0.2,0.1-0.4,0.3-0.4
					c0.1,0,0.2,0,0.3,0c2.5,0,4.9-0.1,7.5-0.1c0.5,0,0.9,0,1.4,0c0.2,0,0.3,0.1,0.4,0.2c0.1,0.2,0,0.5-0.3,0.6c0,0-0.1,0-0.2,0
					C-314,290.7-315.4,290.7-317,290.7L-317,290.7z"/>
			</g>
			<g id="XMLID_69_">
				<path class="st0" d="M-321.4,291.1L-321.4,291.1c-0.4,0-0.7-0.3-0.7-0.6s0.2-0.6,0.4-0.7c0.1,0,0.2,0,0.4,0c1.7,0,3.5,0,5.1-0.1
					h2.3c0.3,0,0.6,0,0.8,0h0.5c0.3,0,0.5,0.1,0.6,0.4c0.1,0.2,0.1,0.4,0,0.6s-0.3,0.3-0.5,0.4c-0.1,0-0.1,0-0.2,0l0,0L-321.4,291.1
					L-321.4,291.1z M-312.5,290.1L-312.5,290.1h-0.5c-0.3,0-0.6,0-0.8,0h-2.3c-1.7,0-3.5,0-5.1,0.1c-0.1,0-0.1,0-0.2,0
					s-0.1,0.1-0.1,0.2s0.1,0.1,0.1,0.1c0.1,0,0.1,0,0.2,0l0,0h4l0,0l4.8-0.1l0,0c0,0,0,0,0.1,0c0,0,0.1,0,0.1-0.1v-0.1
					C-312.4,290.1-312.4,290.1-312.5,290.1z"/>
			</g>
		</g>
		<g id="XMLID_68_">
			<g id="XMLID_6_">
				<path class="st0" d="M-317.4,286.2c-1,0-2.5,0-3.9,0.1c-0.1,0-0.2,0-0.2,0c-0.2,0-0.4-0.2-0.4-0.4c0-0.2,0.2-0.4,0.4-0.4
					c0.5,0,1,0,1.5,0c2.4,0,4.8-0.1,7.3-0.1c0.1,0,0.2,0,0.2,0c0.2,0,0.3,0.2,0.4,0.4c0,0.2-0.1,0.4-0.3,0.4c-0.1,0-0.2,0-0.2,0
					C-314.1,286.2-315.6,286.2-317.4,286.2z"/>
			</g>
			<g id="XMLID_65_">
				<path class="st0" d="M-321.4,286.6L-321.4,286.6c-0.5,0-0.7-0.3-0.7-0.7c0-0.4,0.3-0.6,0.7-0.6c0.5,0,1,0,1.5,0
					c2.2,0,4.4-0.1,6.6-0.1h0.7c0.1,0,0.1,0,0.2,0c0.3,0,0.6,0.3,0.6,0.6s-0.2,0.6-0.5,0.7c-0.1,0-0.2,0-0.3,0c-1.2,0-2.4,0-3.8,0
					L-321.4,286.6L-321.4,286.6z M-312.6,285.7C-312.7,285.7-312.7,285.7-312.6,285.7h-0.8c-2.2,0-4.4,0.1-6.6,0.1c-0.5,0-1,0-1.5,0
					c-0.1,0-0.1,0.1-0.2,0.1c0,0.1,0.1,0.2,0.2,0.2h0.1h0.1l4.8-0.1c1.4,0,2.6,0,3.8,0c0.1,0,0.1,0,0.2,0s0.1-0.1,0.1-0.2
					C-312.4,285.8-312.5,285.7-312.6,285.7L-312.6,285.7z"/>
			</g>
		</g>
		<g id="XMLID_64_">
			<g id="XMLID_5_">
				<path class="st0" d="M-317.2,294.2c-0.6,0-1.1,0-1.7,0c-0.1,0-0.2,0-0.2,0c-0.2-0.1-0.3-0.2-0.3-0.4c0-0.2,0.2-0.3,0.4-0.4h0.1
					c1.1,0,2.3,0,3.5,0c0.1,0,0.2,0,0.2,0c0.2,0.1,0.3,0.2,0.3,0.4c0,0.2-0.1,0.3-0.3,0.4c-0.1,0-0.2,0-0.2,0
					C-315.9,294.2-316.6,294.2-317.2,294.2L-317.2,294.2z"/>
			</g>
			<g id="XMLID_61_">
				<path class="st0" d="M-317.9,294.5c-0.3,0-0.6,0-0.8,0c-0.1,0-0.2,0-0.3,0c-0.3-0.1-0.5-0.4-0.4-0.7c0-0.3,0.3-0.6,0.6-0.6h0.1
					h0.5c0.9,0,2,0,3,0c0.1,0,0.2,0,0.3,0c0.3,0.1,0.5,0.4,0.4,0.7c0,0.3-0.2,0.5-0.5,0.6c-0.1,0-0.2,0-0.3,0c-0.5,0-0.8,0-1.3,0
					h-0.2l0,0h-0.7C-317.7,294.5-317.8,294.5-317.9,294.5z M-315.4,293.6L-315.4,293.6c-1,0-2,0-3.1,0h-0.5h-0.1
					c-0.1,0-0.1,0.1-0.1,0.1s0,0.1,0.1,0.2c0,0,0.1,0,0.2,0c0.5,0,0.8,0,1.3,0h0.2l0,0h0.7c0.5,0,0.8,0,1.3,0c0.1,0,0.1,0,0.2,0
					s0.1-0.1,0.1-0.1c0-0.1,0-0.1-0.1-0.1C-315.3,293.6-315.3,293.6-315.4,293.6z"/>
			</g>
		</g>
		<g id="XMLID_60_">
			<g id="XMLID_58_">
				<path class="st0" d="M-317,294.5c0.2,0,0.4,0,0.6,0c0.1,0,0.1,0,0.2,0s0.2,0.1,0.2,0.2s-0.1,0.2-0.2,0.2h-0.1
					c-0.4,0-0.7,0-1.1,0c0,0,0,0-0.1,0s-0.2-0.1-0.2-0.2s0.1-0.2,0.2-0.2C-317.3,294.5-317.3,294.5-317,294.5
					C-317.2,294.5-317.1,294.5-317,294.5L-317,294.5z"/>
			</g>
			<g id="XMLID_59_">
				<path class="st0" d="M-317.6,295.3L-317.6,295.3c-0.3,0-0.5-0.2-0.5-0.5s0.2-0.5,0.5-0.5c0.1,0,0.2,0,0.4,0h0.5
					c0.1,0,0.3,0,0.4,0s0.1,0,0.2,0c0.2,0.1,0.4,0.3,0.4,0.5s-0.2,0.4-0.4,0.5c-0.1,0-0.1,0-0.2,0c-0.3,0-0.6,0-0.9,0H-317.6
					C-317.5,295.3-317.5,295.3-317.6,295.3z"/>
			</g>
		</g>
	</g>
</g>
<g id="Layer_3">
	<rect id="XMLID_113_" x="-389.5" y="301.8" class="st0" width="144.5" height="1.2"/>
</g>
<g>
	<path class="st0" d="M-382.7,311.7v5.2c0,0.2-0.2,0.4-0.4,0.4s-0.4-0.2-0.4-0.4V312l-2,4.9c-0.1,0.2-0.3,0.4-0.6,0.4
		c-0.3,0-0.5-0.2-0.6-0.4l-2-4.9v4.9c0,0.2-0.2,0.4-0.4,0.4s-0.4-0.2-0.4-0.4v-5.2c0-0.3,0.3-0.6,0.6-0.6h0.3c0.2,0,0.5,0.2,0.5,0.4
		l1.9,4.9l1.9-4.9c0.1-0.2,0.3-0.4,0.5-0.4h0.3C-382.9,311.2-382.7,311.4-382.7,311.7z"/>
	<path class="st0" d="M-373.2,316.8c0,0.2-0.2,0.4-0.4,0.4c-0.2,0-0.3-0.1-0.4-0.3l-0.6-1.3h-2.9l-0.6,1.3c-0.1,0.2-0.2,0.3-0.4,0.3
		c-0.3,0-0.4-0.2-0.4-0.4c0-0.1,0-0.1,0-0.2l2.2-5.2c0.1-0.2,0.3-0.4,0.5-0.4h0.1c0.3,0,0.4,0.2,0.5,0.4l2.2,5.2
		C-373.2,316.7-373.2,316.8-373.2,316.8z M-374.8,314.9l-1.2-2.8l-1.2,2.8H-374.8z"/>
	<path class="st0" d="M-364.6,316.8c0,0.2-0.2,0.4-0.4,0.4c-0.3,0-0.4-0.2-0.4-0.4v-0.3c0-0.6,0-1.7-1.3-1.7h-1.8v2
		c0,0.2-0.2,0.4-0.4,0.4c-0.2,0-0.4-0.2-0.4-0.4v-5.3c0-0.2,0.2-0.4,0.4-0.4h2c1.6,0,2.3,0.8,2.3,1.7c0,0.7-0.4,1.3-1.2,1.5
		c1,0.3,1.1,1.4,1.1,1.9L-364.6,316.8L-364.6,316.8z M-365.4,313c0-0.7-0.4-1.1-1.6-1.1h-1.5v2.2h1.5
		C-365.9,314.1-365.4,313.8-365.4,313z"/>
	<path class="st0" d="M-355.6,316.8c0,0.2-0.2,0.4-0.4,0.4c-0.1,0-0.3-0.1-0.3-0.2l-2.2-2.8l-1,1v1.6c0,0.2-0.2,0.4-0.4,0.4
		c-0.2,0-0.4-0.2-0.4-0.4v-5.3c0-0.2,0.2-0.4,0.4-0.4c0.2,0,0.4,0.2,0.4,0.4v2.8l3-3c0.1-0.1,0.2-0.1,0.3-0.1c0.2,0,0.4,0.2,0.4,0.4
		c0,0.1,0,0.2-0.1,0.3l-2,2L-355.6,316.8C-355.7,316.7-355.6,316.7-355.6,316.8z"/>
	<path class="st0" d="M-347.4,316.8c0,0.2-0.2,0.4-0.4,0.4h-3.5c-0.2,0-0.4-0.2-0.4-0.4v-5.3c0-0.2,0.2-0.4,0.4-0.4h3.5
		c0.2,0,0.4,0.2,0.4,0.4s-0.2,0.4-0.4,0.4h-3.1v1.9h2.8c0.2,0,0.4,0.2,0.4,0.4c0,0.2-0.2,0.4-0.4,0.4h-2.8v1.9h3.1
		C-347.6,316.4-347.4,316.6-347.4,316.8z"/>
	<path class="st0" d="M-339,311.5c0,0.2-0.2,0.4-0.4,0.4h-1.7v4.9c0,0.2-0.2,0.4-0.4,0.4c-0.2,0-0.4-0.2-0.4-0.4v-4.9h-1.7
		c-0.2,0-0.4-0.2-0.4-0.4c0-0.2,0.2-0.4,0.4-0.4h4.3C-339.2,311.2-339,311.4-339,311.5z"/>
	<path class="st0" d="M-329.2,311.5v5.3c0,0.2-0.2,0.4-0.4,0.4c-0.2,0-0.4-0.2-0.4-0.4v-5.3c0-0.2,0.2-0.4,0.4-0.4
		C-329.4,311.2-329.2,311.4-329.2,311.5z"/>
	<path class="st0" d="M-319.4,311.5v5.2c0,0.3-0.3,0.6-0.6,0.6h-0.1c-0.2,0-0.4-0.1-0.5-0.2l-3.4-4.8v4.6c0,0.2-0.2,0.4-0.4,0.4
		c-0.2,0-0.4-0.2-0.4-0.4v-5.2c0-0.3,0.3-0.6,0.6-0.6h0.1c0.2,0,0.4,0.1,0.5,0.3l3.4,4.8v-4.7c0-0.2,0.2-0.4,0.4-0.4
		S-319.4,311.4-319.4,311.5z"/>
	<path class="st0" d="M-310.8,315.6c0,1-0.9,1.6-2.2,1.6c-0.9,0-1.5-0.2-2-0.4c-0.1-0.1-0.3-0.2-0.3-0.4s0.1-0.4,0.4-0.4
		c0.1,0,0.1,0,0.2,0c0.4,0.2,1,0.4,1.7,0.4c0.9,0,1.5-0.3,1.5-1c0-1.2-3.6-0.6-3.6-2.7c0-1,0.8-1.7,2.2-1.7c0.7,0,1.2,0.1,1.7,0.3
		c0.1,0,0.3,0.1,0.3,0.4c0,0.2-0.1,0.4-0.4,0.4h-0.1c-0.4-0.1-0.9-0.2-1.3-0.2c-0.9,0-1.5,0.3-1.5,1
		C-314.4,314.3-310.8,313.4-310.8,315.6z"/>
	<path class="st0" d="M-306,311.5v5.3c0,0.2-0.2,0.4-0.4,0.4s-0.4-0.2-0.4-0.4v-5.3c0-0.2,0.2-0.4,0.4-0.4
		C-306.2,311.2-306,311.4-306,311.5z"/>
	<path class="st0" d="M-296.5,314.3v1.9c0,0.3-0.1,0.5-0.3,0.6c-0.6,0.3-1.2,0.5-2,0.5c-1.8,0-3-1.2-3-3.1c0-1.8,1.3-3.1,3-3.1
		c1,0,1.6,0.3,2.1,0.6c0.1,0,0.2,0.2,0.2,0.3c0,0.2-0.1,0.4-0.4,0.4c-0.1,0-0.1,0-0.2,0c-0.5-0.3-1.1-0.5-1.7-0.5
		c-1.3,0-2.3,0.9-2.3,2.3c0,1.3,0.9,2.3,2.3,2.3c0.6,0,1.2-0.2,1.5-0.4v-1.5h-1.4c-0.2,0-0.4-0.2-0.4-0.4s0.2-0.4,0.4-0.4h1.7
		C-296.7,313.9-296.5,314-296.5,314.3z"/>
	<path class="st0" d="M-287.3,311.5v5.3c0,0.2-0.2,0.4-0.4,0.4c-0.2,0-0.4-0.2-0.4-0.4v-2.3h-3.3v2.3c0,0.2-0.2,0.4-0.4,0.4
		s-0.4-0.2-0.4-0.4v-5.3c0-0.2,0.2-0.4,0.4-0.4c0.2,0,0.4,0.2,0.4,0.4v2.3h3.3v-2.3c0-0.2,0.2-0.4,0.4-0.4S-287.3,311.4-287.3,311.5
		z"/>
	<path class="st0" d="M-278.5,311.5c0,0.2-0.2,0.4-0.4,0.4h-1.7v4.9c0,0.2-0.2,0.4-0.4,0.4c-0.2,0-0.4-0.2-0.4-0.4v-4.9h-1.7
		c-0.2,0-0.4-0.2-0.4-0.4c0-0.2,0.2-0.4,0.4-0.4h4.3C-278.7,311.2-278.5,311.4-278.5,311.5z"/>
	<path class="st0" d="M-263.9,314.2c0,1.8-1.2,3.1-3,3.1s-3-1.2-3-3.1c0-1.8,1.2-3.1,3-3.1C-265,311.1-263.9,312.4-263.9,314.2z
		 M-264.7,314.2c0-1.3-0.9-2.4-2.2-2.4c-1.4,0-2.2,1.1-2.2,2.4s0.8,2.4,2.2,2.4C-265.4,316.5-264.7,315.5-264.7,314.2z"/>
	<path class="st0" d="M-254.8,311.5v3.4c0,1.6-1.3,2.3-2.5,2.3c-1.2,0-2.5-0.8-2.5-2.3v-3.4c0-0.2,0.2-0.4,0.4-0.4
		c0.2,0,0.4,0.2,0.4,0.4v3.5c0,1.1,0.9,1.6,1.7,1.6s1.7-0.5,1.7-1.6v-3.5c0-0.2,0.2-0.4,0.4-0.4S-254.8,311.4-254.8,311.5z"/>
	<path class="st0" d="M-246,311.5c0,0.2-0.2,0.4-0.4,0.4h-1.7v4.9c0,0.2-0.2,0.4-0.4,0.4s-0.4-0.2-0.4-0.4v-4.9h-1.7
		c-0.2,0-0.4-0.2-0.4-0.4c0-0.2,0.2-0.4,0.4-0.4h4.3C-246.1,311.2-246,311.4-246,311.5z"/>
</g>
<g>
	<path class="st0" d="M-382.8,296h-3.3h-3.3v-50.2h4.9h4.9l14.4,42.8h0l14.2-42.8h4.9h4.9V296h-3.3h-3.3v-42.5h0L-362,296h-3.3h-3.3
		l-14.2-42.4h0V296z"/>
	<path class="st0" d="M-287.8,290.1c-4.5-4.9-6.8-11.3-6.8-19.2c0-7.9,2.3-14.3,6.8-19.2c4.5-4.9,10.4-7.3,17.7-7.3
		c7.3,0,13.3,2.4,17.8,7.3c4.5,4.9,6.8,11.3,6.8,19.2c0,7.9-2.3,14.3-6.8,19.2c-4.5,4.9-10.4,7.3-17.8,7.3
		C-277.4,297.4-283.3,294.9-287.8,290.1z M-257.4,285.7c3.2-3.8,4.8-8.7,4.8-14.8c0-6.1-1.6-11.1-4.8-14.9
		c-3.2-3.8-7.4-5.7-12.7-5.7c-5.2,0-9.4,1.9-12.6,5.7c-3.2,3.8-4.8,8.7-4.8,14.9c0,6.1,1.6,11,4.8,14.8c3.2,3.8,7.4,5.6,12.6,5.6
		C-264.9,291.4-260.7,289.5-257.4,285.7z"/>
</g>
</svg>
