<svg id="Group_103433" data-name="Group 103433" xmlns="http://www.w3.org/2000/svg" width="40.365" height="40.365" viewBox="0 0 40.365 40.365">
  <path id="Path_71931" data-name="Path 71931" d="M41.111,20.485A20.183,20.183,0,1,1,20.929.3,20.182,20.182,0,0,1,41.111,20.485" transform="translate(-0.746 -0.302)" fill="#1a1918"/>
  <path id="Path_71932" data-name="Path 71932" d="M76.74,55.209,81.963,68.1l-7.889-6.214Zm9.278,15.86L77.985,51.735a1.3,1.3,0,0,0-1.244-.853,1.34,1.34,0,0,0-1.279.853L66.644,72.942H69.66L73.151,64.2l10.417,8.415a1.693,1.693,0,0,0,1.114.492,1.44,1.44,0,0,0,1.475-1.441,1.909,1.909,0,0,0-.138-.6Z" transform="translate(-56.218 -42.88)" fill="#fff"/>
</svg>
