<svg id="Group_2385" data-name="Group 2385" xmlns="http://www.w3.org/2000/svg" xmlns:xlink="http://www.w3.org/1999/xlink" width="56.273" height="19.183" viewBox="0 0 56.273 19.183">
  <defs>
    <linearGradient id="linear-gradient" x1="-101.142" y1="-11.494" x2="-100.178" y2="-10.254" gradientUnits="objectBoundingBox">
      <stop offset="0" stop-color="#f69923"/>
      <stop offset="0.312" stop-color="#f79a23"/>
      <stop offset="0.838" stop-color="#e97826"/>
    </linearGradient>
    <linearGradient id="linear-gradient-2" x1="-108.127" y1="-6.797" x2="-101.208" y2="-6.797" gradientUnits="objectBoundingBox">
      <stop offset="0.323" stop-color="#9e2064"/>
      <stop offset="0.63" stop-color="#c92037"/>
      <stop offset="0.751" stop-color="#cd2335"/>
      <stop offset="1" stop-color="#e97826"/>
    </linearGradient>
    <linearGradient id="linear-gradient-3" x1="-89.098" y1="-12.603" x2="-85.643" y2="-12.603" gradientUnits="objectBoundingBox">
      <stop offset="0" stop-color="#282662"/>
      <stop offset="0.095" stop-color="#662e8d"/>
      <stop offset="0.788" stop-color="#9f2064"/>
      <stop offset="0.949" stop-color="#cd2032"/>
    </linearGradient>
    <linearGradient id="linear-gradient-4" x1="-82.732" y1="-4.245" x2="-77.367" y2="-4.245" xlink:href="#linear-gradient-2"/>
    <linearGradient id="linear-gradient-5" x1="-125.966" y1="-5.298" x2="-121.629" y2="-5.298" xlink:href="#linear-gradient-3"/>
    <linearGradient id="linear-gradient-6" x1="-53.303" y1="-4.575" x2="-49.857" y2="-4.575" xlink:href="#linear-gradient-2"/>
    <linearGradient id="linear-gradient-7" x1="-72.873" y1="-7.763" x2="-68.224" y2="-7.763" xlink:href="#linear-gradient-2"/>
    <linearGradient id="linear-gradient-8" x1="-2725.133" y1="-2016.97" x2="-2551.042" y2="-2016.97" xlink:href="#linear-gradient-2"/>
    <linearGradient id="linear-gradient-9" x1="-8459.028" y1="-9843.255" x2="-7919.347" y2="-9843.255" xlink:href="#linear-gradient-2"/>
    <linearGradient id="linear-gradient-10" x2="1" gradientUnits="objectBoundingBox">
      <stop offset="0"/>
      <stop offset="1"/>
    </linearGradient>
    <linearGradient id="linear-gradient-11" x2="1" gradientUnits="objectBoundingBox">
      <stop offset="0" stop-color="#4d4d4d"/>
      <stop offset="1" stop-color="#4d4d4d"/>
    </linearGradient>
  </defs>
  <g id="g3203" transform="translate(0 0)">
    <path id="path3212" d="M38.992,2.9A7.006,7.006,0,0,0,37.6,4.3l.545,1.029a13.168,13.168,0,0,1,1.165-1.46c.029-.032.047-.05.047-.05-.014.018-.032.032-.047.05A11.707,11.707,0,0,0,38.22,5.346a20.409,20.409,0,0,0,2.119-.264,2.233,2.233,0,0,0-.2-1.7S39.608,2.531,38.992,2.9Z" transform="translate(-30.875 -2.806)" fill="url(#linear-gradient)"/>
    <path id="path3214" d="M39.45,30.387a.013.013,0,0,0,.011,0l-.078.007s-.011,0-.014.007l.082-.011Z" transform="translate(-32.259 -24.425)" fill="none"/>
    <path id="path3216" d="M36.685,38.923c-.043.011-.089.018-.135.025A1.277,1.277,0,0,0,36.685,38.923Z" transform="translate(-30.049 -31.12)" fill="none"/>
    <path id="path3218" d="M17.8,36.751c.007-.014.011-.032.018-.047.124-.317.239-.62.356-.926.132-.335.264-.663.392-.979s.27-.655.4-.965c.139-.328.274-.641.409-.944.11-.248.217-.484.324-.716.035-.078.071-.153.107-.228.071-.149.139-.3.207-.438s.124-.26.186-.388L20.259,31l.011-.021-.068.007-.053-.1c0,.011-.011.021-.014.032-.1.186-.192.381-.285.577-.053.11-.107.225-.164.338-.149.313-.3.627-.438.947s-.288.645-.427.965-.27.634-.4.951-.26.63-.385.944-.26.652-.381.972c-.029.071-.057.146-.082.217-.1.26-.2.513-.288.765l.086.167.075-.007a.051.051,0,0,0,.007-.021C17.557,37.389,17.678,37.065,17.8,36.751Z" transform="translate(-14.942 -24.814)" fill="none"/>
    <path id="path3220" d="M36.385,39.055Z" transform="translate(-29.92 -31.224)" fill="none"/>
    <path id="path3222" d="M34.769,43.226c-.071.014-.143.025-.213.035h0c.035,0,.075-.011.11-.018A.889.889,0,0,0,34.769,43.226Z" transform="translate(-28.486 -34.494)" fill="#be202e"/>
    <path id="path3224" d="M34.769,43.226c-.071.014-.143.025-.213.035h0c.035,0,.075-.011.11-.018A.889.889,0,0,0,34.769,43.226Z" transform="translate(-28.486 -34.494)" fill="#be202e" opacity="0.35"/>
    <path id="path3226" d="M36.393,38.952h0c.011,0,.021,0,.032,0,.047-.007.092-.014.135-.025C36.507,38.934,36.45,38.941,36.393,38.952Z" transform="translate(-29.924 -31.12)" fill="#be202e"/>
    <path id="path3228" d="M36.393,38.952h0c.011,0,.021,0,.032,0,.047-.007.092-.014.135-.025C36.507,38.934,36.45,38.941,36.393,38.952Z" transform="translate(-29.924 -31.12)" fill="#be202e" opacity="0.35"/>
    <path id="path3239" d="M28.423,13.4q.248-.465.5-.908c.174-.306.352-.6.534-.89a.459.459,0,0,1,.032-.05c.178-.282.356-.552.538-.812L29.484,9.71c-.039.05-.082.1-.124.153-.157.2-.321.406-.488.63-.186.253-.381.52-.581.8-.182.26-.367.534-.552.816q-.235.363-.47.741c-.007.011-.011.018-.018.029l.709,1.4c.157-.3.31-.591.463-.883Z" transform="translate(-22.759 -8.219)" fill="url(#linear-gradient-2)"/>
    <path id="path3250" d="M15.65,60.066q-.139.384-.282.791s0,.007,0,.011c-.014.039-.029.075-.039.114-.062.182-.117.346-.248.716a1.416,1.416,0,0,1,.534.63,1.148,1.148,0,0,0-.372-.787,2.459,2.459,0,0,0,2.376-.969c.039-.068.078-.139.114-.214a.992.992,0,0,1-.955.349h0a2.766,2.766,0,0,0,1.393-1.14c.075-.124.149-.253.225-.4a2.244,2.244,0,0,1-2.119.687l-.573.062A.967.967,0,0,1,15.65,60.066Z" transform="translate(-13.219 -46.992)" fill="url(#linear-gradient-3)"/>
    <path id="path3261" d="M15.017,31.523c.124-.321.253-.645.381-.972s.253-.627.385-.944.267-.634.4-.951.282-.645.427-.965.292-.634.438-.947c.053-.114.107-.225.164-.338.092-.192.186-.385.285-.577,0-.011.011-.021.014-.032l-.7-1.4a.5.5,0,0,1-.035.057c-.164.27-.331.545-.491.826s-.324.573-.481.868c-.132.248-.26.5-.388.751-.025.05-.05.1-.075.153-.153.317-.3.627-.421.922-.143.335-.267.655-.378.958-.071.2-.139.392-.2.577-.05.157-.1.317-.143.474-.107.372-.2.741-.27,1.111l.712,1.407c.092-.253.192-.506.288-.765C14.96,31.669,14.988,31.6,15.017,31.523Z" transform="translate(-12.317 -19.734)" fill="url(#linear-gradient-4)"/>
    <path id="path3272" d="M8.065,55.459a10.917,10.917,0,0,0-.186,1.346c0,.014,0,.032,0,.047a2.838,2.838,0,0,0-.814-.7,3.945,3.945,0,0,1,.8,1.834,1.813,1.813,0,0,1-.9-.153,1.807,1.807,0,0,0,.769.466,2.207,2.207,0,0,0-1.068.534A2.265,2.265,0,0,1,7.926,58.6c-.488,1.378-.976,2.9-1.464,4.52a.424.424,0,0,0,.288-.282c.086-.289.666-2.213,1.571-4.738.025-.071.053-.143.078-.217.007-.021.014-.039.021-.062q.145-.4.3-.812c.025-.062.047-.124.071-.186v0l-.712-1.408a.262.262,0,0,0-.014.05Z" transform="translate(-6.462 -44.045)" fill="url(#linear-gradient-5)"/>
    <path id="path3283" d="M20.8,29.419c-.021.043-.039.082-.062.124-.062.128-.124.256-.186.388s-.135.288-.207.438c-.035.075-.071.149-.107.228-.107.231-.213.47-.324.716-.135.3-.27.616-.409.944-.132.31-.267.634-.4.965s-.26.641-.392.979c-.117.3-.235.609-.356.926-.007.014-.011.032-.018.047-.117.313-.239.638-.36.969a.051.051,0,0,0-.007.021l.573-.062A.33.33,0,0,0,18.5,36.1a4.074,4.074,0,0,0,2.187-1.233,5.486,5.486,0,0,0,.744-1.037,8.758,8.758,0,0,0,.481-1c.132-.321.26-.669.381-1.047a2.123,2.123,0,0,1-.538.186l-.107.021c-.035.007-.071.011-.11.018h0a2.481,2.481,0,0,0,1.336-1.3,2.332,2.332,0,0,1-.769.338c-.043.011-.089.018-.135.025-.011,0-.021,0-.035,0h0a2.585,2.585,0,0,0,.573-.321,1.108,1.108,0,0,0,.1-.082c.05-.043.1-.089.143-.135.029-.032.057-.062.086-.092a1.808,1.808,0,0,0,.178-.248c.018-.029.035-.053.05-.082s.043-.082.062-.124c.089-.178.16-.338.217-.481.029-.071.053-.135.075-.2.007-.025.018-.047.025-.071.021-.068.043-.128.057-.182a1.8,1.8,0,0,0,.043-.186h0a.391.391,0,0,1-.075.05,2.753,2.753,0,0,1-.791.27l.527-.057-.527.057a.013.013,0,0,0-.011,0,.794.794,0,0,0-.082.014s.011,0,.014-.007l-1.8.2A.025.025,0,0,1,20.8,29.419Z" transform="translate(-15.482 -23.237)" fill="url(#linear-gradient-6)"/>
    <path id="path3294" d="M33.129,13.63c-.16.248-.335.527-.524.841a.356.356,0,0,0-.029.05c-.164.274-.335.573-.517.9-.157.285-.321.587-.491.919-.149.285-.3.587-.46.908l1.8-.2a2.194,2.194,0,0,0,.986-.777c.062-.086.124-.178.182-.274a10.522,10.522,0,0,0,.527-.922,9.154,9.154,0,0,0,.4-.88,5.016,5.016,0,0,0,.16-.477c.032-.124.057-.242.078-.356a21.156,21.156,0,0,1-2.116.26Z" transform="translate(-25.784 -11.087)" fill="url(#linear-gradient-7)"/>
    <path id="path3296" d="M34.665,43.325c-.035.007-.071.011-.11.018h0a1.022,1.022,0,0,1,.11-.018Z" transform="translate(-28.485 -34.571)" fill="#be202e"/>
    <path id="path3298" d="M34.665,43.325c-.035.007-.071.011-.11.018h0a1.022,1.022,0,0,1,.11-.018Z" transform="translate(-28.485 -34.571)" fill="#be202e" opacity="0.35"/>
    <path id="path3309" d="M34.665,43.325c-.035.007-.071.011-.11.018h0a1.022,1.022,0,0,1,.11-.018Z" transform="translate(-28.485 -34.571)" fill="url(#linear-gradient-8)"/>
    <path id="path3311" d="M36.385,39.043c.011,0,.021,0,.035,0C36.41,39.039,36.4,39.043,36.385,39.043Z" transform="translate(-29.92 -31.211)" fill="#be202e"/>
    <path id="path3313" d="M36.385,39.043c.011,0,.021,0,.035,0C36.41,39.039,36.4,39.043,36.385,39.043Z" transform="translate(-29.92 -31.211)" fill="#be202e" opacity="0.35"/>
    <path id="path3324" d="M36.385,39.043c.011,0,.021,0,.035,0C36.41,39.039,36.4,39.043,36.385,39.043Z" transform="translate(-29.92 -31.211)" fill="url(#linear-gradient-9)"/>
    <path id="path3326" d="M36.4,39.055Z" transform="translate(-29.932 -31.224)" fill="#be202e"/>
    <path id="path3328" d="M36.4,39.055Z" transform="translate(-29.932 -31.224)" fill="#be202e" opacity="0.35"/>
    <path id="path3339" d="M36.4,39.055Z" transform="translate(-29.932 -31.224)" fill="#fff"/>
  </g>
  <path id="path3343" d="M466.747,239.1v.261h-.073V239.1h-.092v-.062h.255v.062Z" transform="translate(-459.453 -233.167)" fill="#b0afb0"/>
  <path id="path3345" d="M468.3,239.16l-.087.176h-.043l-.087-.176v.2h-.071v-.323h.1l.084.176.084-.176h.1v.323H468.3v-.2Z" transform="translate(-460.574 -233.167)" fill="#b0afb0"/>
  <path id="path3718" d="M476.08,250.12a5.666,5.666,0,0,1-.792-.048,4.364,4.364,0,0,1-.576-.1v-1.791q.257.056.542.1a4.127,4.127,0,0,0,.611.042,2.372,2.372,0,0,0,.591-.069,1.148,1.148,0,0,0,.479-.243,1.055,1.055,0,0,0,.319-.452,1.879,1.879,0,0,0,.118-.715v-9.854h2.152v9.784a3.993,3.993,0,0,1-.257,1.507,2.705,2.705,0,0,1-.708,1.042,2.775,2.775,0,0,1-1.083.611,4.732,4.732,0,0,1-1.4.194" transform="translate(-465.827 -231.553)" fill="#d22128" stroke="#d22128" stroke-linejoin="round" stroke-width="1.229"/>
  <path id="path3720" d="M502.327,236.987v10.151h1.923v-4.723c0-.13,0-.275-.008-.434s0-.33-.014-.506-.01-.353-.019-.533-.013-.357-.022-.528q-.028-.6-.069-1.236h.062l2.229,7.964h1.981l2.4-7.95h.055c-.014.421-.029.825-.047,1.214,0,.167-.013.339-.022.514s-.009.349-.014.52-.009.334-.014.487v5.215h2.007V236.987h-2.931l-2.335,7.762h-.042l-2.193-7.762Zm20.156.736-.611,1.637-1.164.711v.895h1.012v3.741a3.722,3.722,0,0,0,.18,1.25,2.068,2.068,0,0,0,.509.791,1.807,1.807,0,0,0,.757.412,3.607,3.607,0,0,0,.943.116,4.15,4.15,0,0,0,.96-.1,3.072,3.072,0,0,0,.741-.252v-1.576a5.778,5.778,0,0,1-.575.174,2.439,2.439,0,0,1-.592.069.806.806,0,0,1-.584-.216.89.89,0,0,1-.221-.666v-3.741h1.889v-1.59h-1.891v-1.654h-1.355Zm-5.436,1.507a3.908,3.908,0,0,0-1.444.257,2.949,2.949,0,0,0-1.112.769,3.567,3.567,0,0,0-.716,1.272,5.6,5.6,0,0,0-.257,1.783,5.062,5.062,0,0,0,.279,1.759,3.382,3.382,0,0,0,.791,1.236,3.262,3.262,0,0,0,1.208.727,4.661,4.661,0,0,0,1.535.243c.287,0,.55-.01.791-.033a4.829,4.829,0,0,0,.675-.1,5.176,5.176,0,0,0,.589-.169,4.639,4.639,0,0,0,.564-.248v-1.64q-.306.153-.6.271a5.482,5.482,0,0,1-.592.186,5.191,5.191,0,0,1-.617.119,6.049,6.049,0,0,1-.666.033,2.047,2.047,0,0,1-.757-.13,1.631,1.631,0,0,1-.564-.376,1.829,1.829,0,0,1-.36-.605,2.7,2.7,0,0,1-.138-.806h4.734v-1.029a4.391,4.391,0,0,0-.235-1.5,2.973,2.973,0,0,0-.664-1.11,2.738,2.738,0,0,0-1.055-.682,3.863,3.863,0,0,0-1.388-.235Zm12.751,0a3.907,3.907,0,0,0-1.443.257,2.947,2.947,0,0,0-1.112.769,3.567,3.567,0,0,0-.717,1.272,5.6,5.6,0,0,0-.257,1.783,5.062,5.062,0,0,0,.279,1.759,3.38,3.38,0,0,0,.791,1.236,3.261,3.261,0,0,0,1.208.727,4.658,4.658,0,0,0,1.535.243c.287,0,.55-.01.791-.033a4.833,4.833,0,0,0,.675-.1,5.183,5.183,0,0,0,.589-.169,4.648,4.648,0,0,0,.564-.248V245.09q-.305.153-.6.271a5.476,5.476,0,0,1-.592.186,5.185,5.185,0,0,1-.617.119,6.053,6.053,0,0,1-.666.033,2.046,2.046,0,0,1-.757-.13,1.618,1.618,0,0,1-.558-.376,1.833,1.833,0,0,1-.362-.605,2.711,2.711,0,0,1-.138-.806h4.728v-1.029a4.391,4.391,0,0,0-.235-1.5,2.973,2.973,0,0,0-.666-1.112,2.739,2.739,0,0,0-1.055-.682,3.863,3.863,0,0,0-1.388-.235Zm7.961,0a2.287,2.287,0,0,0-.694.1,1.839,1.839,0,0,0-.542.262,2.116,2.116,0,0,0-.429.412,3.908,3.908,0,0,0-.362.539h-.1l-.31-1.164h-1.6v7.762h2.118v-3.951a2.8,2.8,0,0,1,.133-.924,1.552,1.552,0,0,1,.381-.611,1.482,1.482,0,0,1,.592-.34,2.611,2.611,0,0,1,.755-.1c.047,0,.1,0,.174.008a1.561,1.561,0,0,1,.207.014c.074,0,.145.013.21.022s.115.019.152.028V239.29a.588.588,0,0,0-.124-.019,1.619,1.619,0,0,0-.174-.022,1.269,1.269,0,0,0-.194-.014c-.062,0-.124-.006-.182-.006Zm-20.7,1.507a1.289,1.289,0,0,1,.584.124,1.163,1.163,0,0,1,.418.346,1.481,1.481,0,0,1,.248.514,2.617,2.617,0,0,1,.091.653h-2.7a1.976,1.976,0,0,1,.423-1.241,1.241,1.241,0,0,1,.937-.4Zm12.751,0a1.291,1.291,0,0,1,.584.124,1.163,1.163,0,0,1,.417.346,1.48,1.48,0,0,1,.248.514,2.614,2.614,0,0,1,.091.653h-2.7a1.976,1.976,0,0,1,.423-1.241,1.241,1.241,0,0,1,.937-.4Z" transform="translate(-487.476 -231.557)" fill="url(#linear-gradient-10)"/>
  <g id="text3756" transform="translate(52.057 5.426)">
    <path id="path3879" d="M265.784,61.982h-.471V60.147h-.558v-.393h1.587v.393h-.558v1.834" transform="translate(-264.755 -59.754)" fill="url(#linear-gradient-11)"/>
    <path id="path3881" d="M274.583,61.982l-.489-1.747h-.014q.009.14.016.271,0,.056,0,.116t0,.117v1.243h-.422V59.754h.643l.484,1.7h.009l.512-1.7h.643v2.228h-.44V60.616q0-.058,0-.113.006-.128.011-.267h-.012l-.527,1.744h-.434" transform="translate(-271.758 -59.754)" fill="url(#linear-gradient-11)"/>
  </g>
  <g id="g8126" transform="translate(11.516 0.211)">
    <g id="g8128" transform="translate(0 0)">
      <path id="path8130" d="M33.208,26.405l1.52-3.633h.293l1.52,3.633h-.383l-.472-1.135H34.053l-.466,1.135Zm1.669-3.214-.744,1.8h1.474Z" transform="translate(-33.208 -22.749)" fill="#d22128"/>
      <path id="path8132" d="M50.441,26.405V22.772h1.5a1.131,1.131,0,0,1,1.073,1.141,1.1,1.1,0,0,1-1.043,1.151H50.8v1.342Zm.355-1.659h1.163a.765.765,0,0,0,.707-.833.787.787,0,0,0-.737-.824H50.8Z" transform="translate(-46.718 -22.749)" fill="#d22128"/>
      <path id="path8134" d="M61.462,26.405l1.52-3.633h.293l1.52,3.633h-.389l-.471-1.135H62.3l-.466,1.135Zm1.669-3.214-.744,1.8h1.475Z" transform="translate(-55.358 -22.749)" fill="#d22128"/>
      <path id="path8136" d="M78.577,22.671a1.427,1.427,0,0,1,1.344.793l-.287.172a1.144,1.144,0,0,0-1.073-.645A1.411,1.411,0,0,0,77.217,24.5a1.466,1.466,0,0,0,1.36,1.53,1.235,1.235,0,0,0,1.117-.674l.3.154a1.584,1.584,0,0,1-1.437.845,1.826,1.826,0,0,1-1.7-1.872,1.754,1.754,0,0,1,1.724-1.811Z" transform="translate(-67.424 -22.67)" fill="#d22128"/>
      <path id="path8138" d="M96.562,22.772v3.633H96.2v-1.7H94.052v1.7H93.7V22.772h.352v1.616H96.2V22.772Z" transform="translate(-80.631 -22.749)" fill="#d22128"/>
      <path id="path8140" d="M113.187,26.088v.318h-2.44V22.772h2.393v.318H111.1V24.4h1.78v.3H111.1v1.385Z" transform="translate(-93.995 -22.749)" fill="#d22128"/>
    </g>
  </g>
</svg>
