<svg id="aws-developer-tools" xmlns="http://www.w3.org/2000/svg" width="139.667" height="45.476" viewBox="0 0 139.667 45.476">
  <g id="Group_2531" data-name="Group 2531" transform="translate(35.028)">
    <g id="Group_2522" data-name="Group 2522" transform="translate(12.235)">
      <g id="Group_2521" data-name="Group 2521">
        <path id="Path_14746" data-name="Path 14746" d="M172.329,6.01,169.2,5.2v4.832l3.129.782Z" transform="translate(-169.2 -3.747)" fill="#f68d13"/>
        <path id="Path_14747" data-name="Path 14747" d="M174.821,1.425l2.793-.7L174.821,0,172,.726Z" transform="translate(-171.218)" fill="#f68d13"/>
        <path id="Path_14748" data-name="Path 14748" d="M183.7,6.01v4.8l3.129-.782V5.2Z" transform="translate(-179.65 -3.747)" fill="#f68d13"/>
      </g>
    </g>
    <g id="Group_2524" data-name="Group 2524" transform="translate(8.184 6.788)">
      <g id="Group_2523" data-name="Group 2523">
        <path id="Path_14749" data-name="Path 14749" d="M157.829,30.21,154.7,29.4v4.832l3.129.81Z" transform="translate(-154.7 -27.975)" fill="#f68d13"/>
        <path id="Path_14750" data-name="Path 14750" d="M160.321,25.7l2.821-.7-2.821-.7L157.5,25Z" transform="translate(-156.718 -24.3)" fill="#f68d13"/>
        <path id="Path_14751" data-name="Path 14751" d="M169.2,30.21v4.832l3.129-.81V29.4Z" transform="translate(-165.15 -27.975)" fill="#f68d13"/>
      </g>
    </g>
    <g id="Group_2526" data-name="Group 2526" transform="translate(0 6.788)">
      <g id="Group_2525" data-name="Group 2525">
        <path id="Path_14752" data-name="Path 14752" d="M128.556,30.21,125.4,29.4v4.832l3.156.81Z" transform="translate(-125.4 -27.975)" fill="#f68d13"/>
        <path id="Path_14753" data-name="Path 14753" d="M131.021,25.7l2.821-.7-2.821-.7L128.2,25Z" transform="translate(-127.418 -24.3)" fill="#f68d13"/>
        <path id="Path_14754" data-name="Path 14754" d="M139.9,30.21v4.832l3.156-.81V29.4Z" transform="translate(-135.85 -27.975)" fill="#f68d13"/>
      </g>
    </g>
    <g id="Group_2528" data-name="Group 2528" transform="translate(4.05 13.603)">
      <g id="Group_2527" data-name="Group 2527">
        <path id="Path_14755" data-name="Path 14755" d="M143.056,54.71,139.9,53.9v4.832l3.156.782Z" transform="translate(-139.9 -52.447)" fill="#f68d13"/>
        <path id="Path_14756" data-name="Path 14756" d="M145.521,50.125l2.821-.7-2.821-.726-2.821.726Z" transform="translate(-141.918 -48.7)" fill="#f68d13"/>
        <path id="Path_14757" data-name="Path 14757" d="M154.4,54.71v4.8l3.156-.782V53.9Z" transform="translate(-150.35 -52.447)" fill="#f68d13"/>
      </g>
    </g>
    <g id="Group_2530" data-name="Group 2530" transform="translate(20.308)">
      <g id="Group_2529" data-name="Group 2529">
        <path id="Path_14758" data-name="Path 14758" d="M201.229,6.01,198.1,5.2v4.832l3.129.782Z" transform="translate(-198.1 -3.747)" fill="#f68d13"/>
        <path id="Path_14759" data-name="Path 14759" d="M203.721,1.425l2.793-.7L203.721,0,200.9.726Z" transform="translate(-200.118)" fill="#f68d13"/>
        <path id="Path_14760" data-name="Path 14760" d="M212.6,6.01v4.8l3.129-.782V5.2Z" transform="translate(-208.55 -3.747)" fill="#f68d13"/>
      </g>
    </g>
  </g>
  <g id="Group_2532" data-name="Group 2532" transform="translate(0 10.782)">
    <path id="Path_14761" data-name="Path 14761" d="M187.386,52.065l-.922-3.017h-4.637l-.922,3.017H178L182.5,39.3h3.3l4.5,12.765Zm-1.564-5.279c-.866-2.737-1.341-4.3-1.453-4.665a5.675,5.675,0,0,1-.223-.866c-.2.754-.726,2.57-1.648,5.5h3.324Z" transform="translate(-128.279 -39.104)"/>
    <path id="Path_14762" data-name="Path 14762" d="M235.967,52.138h-3.073l-1.732-6.676c-.056-.251-.168-.726-.335-1.48a8.826,8.826,0,0,1-.251-1.508q-.042.461-.251,1.508c-.14.7-.251,1.173-.335,1.48l-1.7,6.676h-3.073L222,39.428h2.654l1.62,6.927c.279,1.285.5,2.4.615,3.324a15.138,15.138,0,0,1,.251-1.536c.14-.7.251-1.229.363-1.62l1.844-7.123h2.542l1.844,7.151c.084.307.2.81.307,1.453s.223,1.229.279,1.676c.056-.447.14-1.006.279-1.7.14-.67.251-1.229.335-1.648l1.62-6.927h2.654Z" transform="translate(-159.988 -39.177)"/>
    <path id="Path_14763" data-name="Path 14763" d="M294.868,48.014a3.333,3.333,0,0,1-1.229,2.71,5.348,5.348,0,0,1-3.436.978,8.145,8.145,0,0,1-3.6-.754V48.433a15.894,15.894,0,0,0,2.179.81,5.92,5.92,0,0,0,1.62.223,2.419,2.419,0,0,0,1.369-.335,1.172,1.172,0,0,0,.475-1.006,1.114,1.114,0,0,0-.2-.67,2.016,2.016,0,0,0-.615-.559,17.554,17.554,0,0,0-1.648-.866,7.813,7.813,0,0,1-1.76-1.061A3.732,3.732,0,0,1,287.1,43.8a3.484,3.484,0,0,1-.335-1.564,3.323,3.323,0,0,1,1.145-2.654,4.74,4.74,0,0,1,3.156-.978,8.42,8.42,0,0,1,1.9.223,11.7,11.7,0,0,1,1.872.67l-.866,2.095A12.316,12.316,0,0,0,292.3,41a5.289,5.289,0,0,0-1.313-.168,1.688,1.688,0,0,0-1.173.363,1.194,1.194,0,0,0-.419.922,1.062,1.062,0,0,0,.168.615,1.853,1.853,0,0,0,.531.5,15.123,15.123,0,0,0,1.7.894,6.457,6.457,0,0,1,2.43,1.7A3.979,3.979,0,0,1,294.868,48.014Z" transform="translate(-206.543 -38.6)"/>
    <path id="Path_14764" data-name="Path 14764" d="M10.559,108.329a6.219,6.219,0,0,1-1.788,4.8A7.281,7.281,0,0,1,3.6,114.81H0V102.1H3.994a6.754,6.754,0,0,1,4.832,1.648A6.042,6.042,0,0,1,10.559,108.329Zm-2.821.084q0-4.106-3.6-4.106H2.682v8.268H3.827C6.453,112.575,7.738,111.178,7.738,108.413Z" transform="translate(0 -84.362)"/>
    <path id="Path_14765" data-name="Path 14765" d="M49.372,122.256a4.956,4.956,0,0,1-3.659-1.285,4.859,4.859,0,0,1-1.313-3.659,5.421,5.421,0,0,1,1.229-3.771,4.956,4.956,0,0,1,6.592-.168,4.5,4.5,0,0,1,1.145,3.24V117.9H47.054a2.518,2.518,0,0,0,.67,1.76,2.386,2.386,0,0,0,1.76.642,6.2,6.2,0,0,0,1.648-.2,7.34,7.34,0,0,0,1.648-.587v2.039a8.454,8.454,0,0,1-1.48.531A9.508,9.508,0,0,1,49.372,122.256Zm-.391-8.184a1.628,1.628,0,0,0-1.313.531,2.638,2.638,0,0,0-.559,1.508h3.715a2.224,2.224,0,0,0-.5-1.508A1.65,1.65,0,0,0,48.981,114.072Z" transform="translate(-31.998 -91.641)"/>
    <path id="Path_14766" data-name="Path 14766" d="M82.815,122.521,79.1,112.8h2.765l1.872,5.531a11.277,11.277,0,0,1,.391,1.983h.056a8.809,8.809,0,0,1,.391-1.983l1.872-5.531h2.765L85.5,122.521Z" transform="translate(-57.005 -92.074)"/>
    <path id="Path_14767" data-name="Path 14767" d="M123.272,122.256a4.956,4.956,0,0,1-3.659-1.285,4.859,4.859,0,0,1-1.313-3.659,5.421,5.421,0,0,1,1.229-3.771,4.956,4.956,0,0,1,6.592-.168,4.5,4.5,0,0,1,1.145,3.24V117.9H121.01a2.518,2.518,0,0,0,.67,1.76,2.386,2.386,0,0,0,1.76.642,6.2,6.2,0,0,0,1.648-.2,7.34,7.34,0,0,0,1.648-.587v2.039a8.453,8.453,0,0,1-1.48.531A10.513,10.513,0,0,1,123.272,122.256Zm-.363-8.184a1.628,1.628,0,0,0-1.313.531,2.638,2.638,0,0,0-.559,1.508h3.715a2.224,2.224,0,0,0-.5-1.508A1.727,1.727,0,0,0,122.909,114.072Z" transform="translate(-85.255 -91.641)"/>
    <path id="Path_14768" data-name="Path 14768" d="M160.654,112.72H158V99.2h2.654Z" transform="translate(-113.865 -82.272)"/>
    <path id="Path_14769" data-name="Path 14769" d="M184.741,117.128a5.2,5.2,0,0,1-1.257,3.715,4.525,4.525,0,0,1-3.492,1.341,4.726,4.726,0,0,1-2.458-.615,4.179,4.179,0,0,1-1.648-1.76,5.754,5.754,0,0,1-.587-2.682,5.2,5.2,0,0,1,1.257-3.715,4.51,4.51,0,0,1,3.492-1.313,4.726,4.726,0,0,1,2.458.615,4.023,4.023,0,0,1,1.648,1.76A5.716,5.716,0,0,1,184.741,117.128Zm-6.732,0a4.2,4.2,0,0,0,.475,2.179,1.66,1.66,0,0,0,1.536.726,1.72,1.72,0,0,0,1.536-.726,4.134,4.134,0,0,0,.475-2.179,4.024,4.024,0,0,0-.475-2.151,1.988,1.988,0,0,0-3.073,0A4.024,4.024,0,0,0,178.01,117.128Z" transform="translate(-126.333 -91.569)"/>
    <path id="Path_14770" data-name="Path 14770" d="M222.235,122.112a3.188,3.188,0,0,1-2.682-1.257h-.14c.084.81.14,1.285.14,1.4v3.939H216.9V112.2h2.151l.363,1.257h.112a3.355,3.355,0,0,1,5.447-.112,6.214,6.214,0,0,1,.978,3.687,7.349,7.349,0,0,1-.447,2.71,3.72,3.72,0,0,1-1.313,1.76A3.032,3.032,0,0,1,222.235,122.112Zm-.782-7.961a1.608,1.608,0,0,0-1.425.615,3.489,3.489,0,0,0-.475,1.983v.279a4.086,4.086,0,0,0,.475,2.235,1.679,1.679,0,0,0,1.48.67c1.2,0,1.788-.978,1.788-2.933a4.049,4.049,0,0,0-.447-2.151A1.579,1.579,0,0,0,221.453,114.151Z" transform="translate(-156.313 -91.497)"/>
    <path id="Path_14771" data-name="Path 14771" d="M260.172,122.256a4.956,4.956,0,0,1-3.659-1.285,4.859,4.859,0,0,1-1.313-3.659,5.421,5.421,0,0,1,1.229-3.771,4.956,4.956,0,0,1,6.592-.168,4.5,4.5,0,0,1,1.145,3.24V117.9H257.91a2.518,2.518,0,0,0,.67,1.76,2.386,2.386,0,0,0,1.76.642,6.2,6.2,0,0,0,1.648-.2,7.34,7.34,0,0,0,1.648-.587v2.039a8.453,8.453,0,0,1-1.48.531A10.513,10.513,0,0,1,260.172,122.256Zm-.363-8.184a1.628,1.628,0,0,0-1.313.531,2.638,2.638,0,0,0-.559,1.508h3.715a2.224,2.224,0,0,0-.5-1.508A1.727,1.727,0,0,0,259.809,114.072Z" transform="translate(-183.914 -91.641)"/>
    <path id="Path_14772" data-name="Path 14772" d="M300.319,112.1a3.878,3.878,0,0,1,.894.084l-.2,2.486a3.194,3.194,0,0,0-.782-.084,2.917,2.917,0,0,0-1.983.642,2.338,2.338,0,0,0-.7,1.816v4.944H294.9v-9.721h2.011l.391,1.648h.14a3.472,3.472,0,0,1,1.229-1.313A2.933,2.933,0,0,1,300.319,112.1Z" transform="translate(-212.525 -91.569)"/>
    <path id="Path_14773" data-name="Path 14773" d="M342.845,114.81h-2.682V104.335H336.7V102.1h9.609v2.235h-3.464Z" transform="translate(-242.649 -84.362)"/>
    <path id="Path_14774" data-name="Path 14774" d="M384.641,117.128a5.2,5.2,0,0,1-1.257,3.715,4.525,4.525,0,0,1-3.492,1.341,4.726,4.726,0,0,1-2.458-.615,4.178,4.178,0,0,1-1.648-1.76,5.754,5.754,0,0,1-.587-2.682,5.2,5.2,0,0,1,1.257-3.715,4.51,4.51,0,0,1,3.492-1.313,4.726,4.726,0,0,1,2.458.615,4.023,4.023,0,0,1,1.648,1.76A5.716,5.716,0,0,1,384.641,117.128Zm-6.732,0a4.2,4.2,0,0,0,.475,2.179,1.66,1.66,0,0,0,1.536.726,1.72,1.72,0,0,0,1.536-.726,4.134,4.134,0,0,0,.475-2.179,4.024,4.024,0,0,0-.475-2.151,1.988,1.988,0,0,0-3.073,0A4.024,4.024,0,0,0,377.91,117.128Z" transform="translate(-270.394 -91.569)"/>
    <path id="Path_14775" data-name="Path 14775" d="M424.042,117.128a5.2,5.2,0,0,1-1.257,3.715,4.525,4.525,0,0,1-3.492,1.341,4.726,4.726,0,0,1-2.458-.615,4.178,4.178,0,0,1-1.648-1.76,5.754,5.754,0,0,1-.587-2.682,5.2,5.2,0,0,1,1.257-3.715,4.51,4.51,0,0,1,3.492-1.313,4.726,4.726,0,0,1,2.458.615,4.024,4.024,0,0,1,1.648,1.76A5.716,5.716,0,0,1,424.042,117.128Zm-6.7,0a4.2,4.2,0,0,0,.475,2.179,1.66,1.66,0,0,0,1.536.726,1.719,1.719,0,0,0,1.536-.726,4.2,4.2,0,0,0,.475-2.179,4.024,4.024,0,0,0-.475-2.151,1.988,1.988,0,0,0-3.073,0A3.78,3.78,0,0,0,417.337,117.128Z" transform="translate(-298.789 -91.569)"/>
    <path id="Path_14776" data-name="Path 14776" d="M458.954,112.72H456.3V99.2h2.654Z" transform="translate(-328.84 -82.272)"/>
    <path id="Path_14777" data-name="Path 14777" d="M480.974,119.211a2.682,2.682,0,0,1-1.034,2.291,5.079,5.079,0,0,1-3.1.782,11.168,11.168,0,0,1-1.816-.14,5.428,5.428,0,0,1-1.4-.419v-2.179a11.726,11.726,0,0,0,1.676.587,6.21,6.21,0,0,0,1.62.223c.95,0,1.453-.279,1.453-.838a.633.633,0,0,0-.2-.5,2.486,2.486,0,0,0-.67-.447q-.461-.251-1.257-.587a8.552,8.552,0,0,1-1.648-.866,1.984,1.984,0,0,1-.754-.922,2.926,2.926,0,0,1-.251-1.285,2.321,2.321,0,0,1,1.006-2.011,4.883,4.883,0,0,1,2.849-.7,8.073,8.073,0,0,1,3.408.754l-.81,1.9a11.923,11.923,0,0,0-1.369-.5,5.117,5.117,0,0,0-1.285-.2c-.782,0-1.173.223-1.173.642a.734.734,0,0,0,.391.615,13.884,13.884,0,0,0,1.648.782,7.541,7.541,0,0,1,1.676.866,2.48,2.48,0,0,1,1.034,2.151Z" transform="translate(-341.308 -91.641)"/>
  </g>
</svg>
