<svg xmlns="http://www.w3.org/2000/svg" xmlns:xlink="http://www.w3.org/1999/xlink" width="55.053" height="32.921" viewBox="0 0 55.053 32.921">
  <defs>
    <clipPath id="clip-path">
      <rect id="Rectangle_517" data-name="Rectangle 517" width="55.053" height="32.921" fill="none"/>
    </clipPath>
  </defs>
  <g id="Group_2289" data-name="Group 2289" clip-path="url(#clip-path)">
    <path id="Path_22091" data-name="Path 22091" d="M25.671,11.956a5.54,5.54,0,0,0,.2,1.629,9.8,9.8,0,0,0,.586,1.318.8.8,0,0,1,.128.421.725.725,0,0,1-.348.553l-1.154.774a.878.878,0,0,1-.476.165.842.842,0,0,1-.553-.256,5.664,5.664,0,0,1-.663-.861c-.183-.312-.366-.663-.568-1.08a6.764,6.764,0,0,1-5.383,2.526,5.017,5.017,0,0,1-3.661-1.318,4.7,4.7,0,0,1-1.355-3.516A4.713,4.713,0,0,1,14.1,8.532,6.661,6.661,0,0,1,18.587,7.1a14.5,14.5,0,0,1,1.941.147c.677.092,1.374.238,2.105.4V6.317a4.057,4.057,0,0,0-.861-2.93,4.214,4.214,0,0,0-2.984-.842,8.335,8.335,0,0,0-1.979.238,14.589,14.589,0,0,0-1.976.622,5.254,5.254,0,0,1-.641.238A1.123,1.123,0,0,1,13.9,3.7c-.256,0-.385-.183-.385-.568v-.9a1.158,1.158,0,0,1,.128-.641,1.372,1.372,0,0,1,.513-.385A10.541,10.541,0,0,1,16.462.385,11.1,11.1,0,0,1,19.317.037a6.691,6.691,0,0,1,4.8,1.483,6.06,6.06,0,0,1,1.52,4.5v5.933Zm-7.433,2.783a5.934,5.934,0,0,0,1.885-.332,4.08,4.08,0,0,0,1.74-1.171,2.907,2.907,0,0,0,.622-1.171,6.573,6.573,0,0,0,.183-1.593V9.7a15.29,15.29,0,0,0-1.684-.3,13.8,13.8,0,0,0-1.721-.111,4.221,4.221,0,0,0-2.729.733,2.552,2.552,0,0,0-.9,2.105,2.363,2.363,0,0,0,2.6,2.618m14.7,1.977a1.022,1.022,0,0,1-.7-.183,1.492,1.492,0,0,1-.385-.714l-4.3-14.153a3.2,3.2,0,0,1-.165-.733.4.4,0,0,1,.442-.458H29.63a1.015,1.015,0,0,1,.711.187,1.5,1.5,0,0,1,.366.714l3.076,12.117,2.857-12.12a1.284,1.284,0,0,1,.348-.711A1.26,1.26,0,0,1,37.72.48h1.464a1.105,1.105,0,0,1,.733.183,1.233,1.233,0,0,1,.348.714l2.893,12.267L46.327,1.374a1.57,1.57,0,0,1,.364-.711A1.2,1.2,0,0,1,47.4.48h1.7a.407.407,0,0,1,.458.458,1.824,1.824,0,0,1-.033.29,2.6,2.6,0,0,1-.128.458L44.988,15.838a1.4,1.4,0,0,1-.385.714,1.172,1.172,0,0,1-.7.183H42.333a1.105,1.105,0,0,1-.733-.183,1.3,1.3,0,0,1-.348-.733L38.415,4.01,35.6,15.8a1.429,1.429,0,0,1-.348.733,1.135,1.135,0,0,1-.733.183Zm23.528.494a12.116,12.116,0,0,1-2.819-.332,8.33,8.33,0,0,1-2.105-.733,1.32,1.32,0,0,1-.568-.513,1.292,1.292,0,0,1-.111-.513V14.19c0-.385.147-.568.421-.568a1.037,1.037,0,0,1,.332.055c.111.036.275.111.458.183a9.959,9.959,0,0,0,2.014.641,11,11,0,0,0,2.178.221,4.94,4.94,0,0,0,2.673-.6,1.972,1.972,0,0,0,.952-1.74,1.783,1.783,0,0,0-.494-1.282,4.594,4.594,0,0,0-1.849-.952l-2.652-.824a5.584,5.584,0,0,1-2.93-1.869A4.362,4.362,0,0,1,51.048,4.8a4.075,4.075,0,0,1,.5-2.037,4.708,4.708,0,0,1,1.318-1.5,5.811,5.811,0,0,1,1.9-.949A7.981,7.981,0,0,1,57.073,0,9.192,9.192,0,0,1,58.3.073c.421.055.806.128,1.19.2.366.092.714.183,1.043.293A4,4,0,0,1,61.307.9a1.584,1.584,0,0,1,.553.458.987.987,0,0,1,.165.6v.861c0,.385-.147.586-.421.586a1.9,1.9,0,0,1-.7-.221,8.376,8.376,0,0,0-3.528-.714,4.726,4.726,0,0,0-2.431.513,1.768,1.768,0,0,0-.861,1.629,1.728,1.728,0,0,0,.553,1.3,5.47,5.47,0,0,0,2.014,1.007l2.6.824A5.569,5.569,0,0,1,62.089,9.5a4.143,4.143,0,0,1,.842,2.563,4.707,4.707,0,0,1-.476,2.124A4.925,4.925,0,0,1,61.119,15.8a5.9,5.9,0,0,1-2.032,1.026,8.707,8.707,0,0,1-2.618.385" transform="translate(-10.157 0)" fill="#252f3e"/>
    <path id="Path_22092" data-name="Path 22092" d="M49.772,117.679c-6.024,4.449-14.776,6.811-22.3,6.811A40.347,40.347,0,0,1,.244,114.108c-.568-.513-.055-1.208.622-.806a54.91,54.91,0,0,0,27.245,7.232,54.37,54.37,0,0,0,20.777-4.248c1.007-.458,1.868.663.884,1.391m2.509-2.856c-.774-.989-5.09-.476-7.049-.238-.586.073-.677-.442-.147-.824,3.443-2.417,9.1-1.721,9.759-.915.663.824-.183,6.482-3.406,9.192-.494.421-.97.2-.75-.348.733-1.812,2.362-5.9,1.593-6.866" transform="translate(0 -91.569)" fill="#f90"/>
  </g>
</svg>
