<svg xmlns="http://www.w3.org/2000/svg" width="61.574" height="16.05" viewBox="0 0 61.574 16.05">
  <g id="g38" transform="translate(0)">
    <path id="path2" d="M3.992,11.328q0,.079,0,.158c0-.026,0-.052,0-.077S3.993,11.355,3.992,11.328Z" transform="translate(-1.627 -4.62)" fill="none"/>
    <path id="path4" d="M65.023,20.665l-.016,0a.4.4,0,0,0-.124,0Z" transform="translate(-26.462 -8.426)" fill="none"/>
    <path id="path6" d="M99.1,20.868l.033-.012A.162.162,0,0,0,99.1,20.868Z" transform="translate(-40.419 -8.506)" fill="none"/>
    <path id="path8" d="M4.26,2.336h.256a.264.264,0,0,1,.182.025A1.859,1.859,0,0,1,6.11,3.512c.092.184.178.371.287.548a1.062,1.062,0,0,0,.894.546l.212,0a1.082,1.082,0,0,0,1.021-.913.335.335,0,0,1,.025-.183A3.247,3.247,0,0,0,7.321,1.139,3.725,3.725,0,0,0,5.62.323C5.493.3,5.362.284,5.232.265A.338.338,0,0,1,5.046.24L4.727.227l-.573,0L3.906.239h0a.3.3,0,0,1-.184.027,4.294,4.294,0,0,0-1.956.74A3.882,3.882,0,0,0,.19,3.343,7.858,7.858,0,0,0,.037,4.42a.788.788,0,0,1-.026.3q-.006.249-.011.5,0,1.135,0,2.27Q0,7.59,0,7.7l0,.109q0,.07,0,.14a.7.7,0,0,1,.025.29l.012.212a.318.318,0,0,1,.026.185,4.065,4.065,0,0,0,.744,2.1,3.989,3.989,0,0,0,1.864,1.424,4.342,4.342,0,0,0,.823.229.492.492,0,0,1,.2.022.091.091,0,0,1,.023.012l.14.009a.5.5,0,0,1,.228.024h0l.705,0a.756.756,0,0,1,.293-.027,3.8,3.8,0,0,0,2.02-.719A3.56,3.56,0,0,0,8.522,9.571a.333.333,0,0,1,.027-.185V9.18h0a.485.485,0,0,1-.028-.219,1.1,1.1,0,0,0-.873-.873l-.465,0a1.2,1.2,0,0,0-.868.665,6.056,6.056,0,0,1-.5.891,1.649,1.649,0,0,1-1.264.689.582.582,0,0,1-.339,0,1.823,1.823,0,0,1-1.66-1.368.03.03,0,0,1-.019-.042,1.729,1.729,0,0,1-.08-.5h0A.291.291,0,0,1,2.43,8.24l-.008-.178h0A.674.674,0,0,1,2.4,7.772l-.007-.254q0-.124,0-.248a.8.8,0,0,1-.022-.311q0-.079,0-.158c0-.4,0-.793,0-1.189a.356.356,0,0,1,.02-.193h0l.01-.5a.713.713,0,0,1,.026-.295h0a2.624,2.624,0,0,1,.227-1.183A1.774,1.774,0,0,1,4.074,2.361a.288.288,0,0,1,.186-.026Z" transform="translate(0 -0.093)" fill="#ed8323"/>
    <path id="path10" d="M23.421.45c-.028.006-.056.011-.078-.015h0L23.2.413l-6.016,0a1.272,1.272,0,0,0-.7.261,1.056,1.056,0,0,0-.356.758q0,5.009,0,10.019a1.041,1.041,0,0,0,.912,1.032,1.156,1.156,0,0,0,1.438-1.144c0-.024.006-.047.009-.071q0-1.806,0-3.611c0-.033-.012-.073.031-.093h0a.447.447,0,0,1,.071-.011l3.669,0a.5.5,0,0,1,.224-.026.985.985,0,0,0,.492-.228,1.076,1.076,0,0,0,.291-1.145.949.949,0,0,0-.892-.7l-3.754,0a.13.13,0,0,1-.1-.023h0c-.046-.028-.03-.074-.03-.113q0-1.345,0-2.691c0-.038-.02-.085.031-.111a.7.7,0,0,1,.089-.011l4.514,0h0a.374.374,0,0,1,.19-.025.953.953,0,0,0,.8-.8,1.176,1.176,0,0,0,0-.47.966.966,0,0,0-.69-.761Z" transform="translate(-6.58 -0.168)" fill="#ed8323"/>
    <path id="path12" d="M70.938,21.41a.042.042,0,0,0,.009-.02Z" transform="translate(-28.932 -8.724)" fill="#1e6c92"/>
    <path id="path14" d="M65.11,18.005a3.262,3.262,0,0,0,1.2-2.028c.014-.07.029-.139.044-.209a.307.307,0,0,1,.028-.18q0-.126.008-.252,0-4.071,0-8.143a.638.638,0,0,0-.516-.661l-.248,0c-.347.1-.439.221-.478.621,0,.1.006.209,0,.313,0,.088-.038.042-.065.009A2.628,2.628,0,0,0,63.1,6.5h-.5a3.368,3.368,0,0,0-1.525.466,2.546,2.546,0,0,0-.925,1.2,3.333,3.333,0,0,0-.291,1.077c0,.026-.028.051-.043.077l.006.144-.006.11a.421.421,0,0,1-.028.217l-.008.252q0,.629,0,1.257l.011.287a.3.3,0,0,1,.025.182l.009.147-.006.108a1.912,1.912,0,0,1,.118.514,3.135,3.135,0,0,0,.8,1.585,2.614,2.614,0,0,0,1.391.7,3.736,3.736,0,0,0,.683.068.4.4,0,0,1,.124,0l.016,0a3.894,3.894,0,0,0,.61-.067,2.488,2.488,0,0,0,1.46-.86c.027-.032.055-.064.083-.095a.156.156,0,0,1,.033-.02c.047.044.023.1.021.149a11.77,11.77,0,0,1-.063,1.8,2.077,2.077,0,0,1-1.7,1.8,1.563,1.563,0,0,1-.178.016,2.439,2.439,0,0,1-1.9-.447,2.875,2.875,0,0,0-.48-.313l-.284,0a.554.554,0,0,0-.32.83,2.4,2.4,0,0,0,1.019.761,2.914,2.914,0,0,0,1.139.265l.9,0a3.413,3.413,0,0,0,1.835-.695Zm-.174-5.616a1.806,1.806,0,0,1-2,1.374,1.765,1.765,0,0,1-1.766-1.5,6.751,6.751,0,0,1,.029-3.243,1.979,1.979,0,0,1,3.157-1,2.116,2.116,0,0,1,.656,1.25,6.017,6.017,0,0,1,.113,1.411A5.7,5.7,0,0,1,64.936,12.389Z" transform="translate(-24.377 -2.65)" fill="#1e6c92"/>
    <path id="path16" d="M33.187.355h0Z" transform="translate(-13.535 -0.144)" fill="#1e6c92"/>
    <path id="path18" d="M33.4,1.549q2.61,0,5.221,0c.114,0,.228,0,.342-.005a.544.544,0,0,0,.457-.516.555.555,0,0,0-.348-.579L39,.417,38.929.41,33.363.4c-.318,0-.636,0-.954.005-.374.1-.463.2-.514.586q0,4.4,0,8.791c0,.672,0,1.345,0,2.017h0a.568.568,0,0,0,.383.583,2.04,2.04,0,0,0,.383.038q1.743,0,3.486-.006c.821,0,1.641,0,2.462.006.107,0,.216,0,.322-.015a.574.574,0,0,0,.333-.973.705.705,0,0,1-.045-.055l-.141-.08h0l-.469-.042c-.407,0-.814.006-1.221.006l-3.861-.006h0c-.03,0-.059.005-.089.006-.243,0-.243,0-.229-.252,0-1.291,0-2.582-.01-3.873,0-.168.047-.2.207-.2,1.483.005,2.967,0,4.45,0a.618.618,0,0,0,.652-.469q0-.107,0-.213a.628.628,0,0,0-.695-.479l-4.509,0c-.033,0-.073.013-.094-.03,0-.036-.009-.071-.009-.107q0-1.975,0-3.95a1.173,1.173,0,0,1,.013-.124c.059-.046.127-.022.191-.022Z" transform="translate(-13.007 -0.165)" fill="#1e6c92"/>
    <path id="path20" d="M93.865,11.064l4.494,0c.168,0,.335-.007.5-.011.334-.13.383-.417.4-.723v-.144q0-.052,0-.1l0-.006a.6.6,0,0,1-.024-.248,4.663,4.663,0,0,0-.66-1.98l-.11-.147a3.4,3.4,0,0,0-.932-.793,3.674,3.674,0,0,0-1.408-.4l-.537,0a3.644,3.644,0,0,0-1.474.417A2.865,2.865,0,0,0,93.072,7.94a4.477,4.477,0,0,0-.59,1.7c-.022.136-.011.272-.044.4a.566.566,0,0,1-.026.252q0,.233-.007.466v.18q0,.143.007.286a.569.569,0,0,1,.026.252l.007.146,0,.145c.086.218.09.456.157.679a3.809,3.809,0,0,0,.5,1.155.133.133,0,0,1,.067.112,2.929,2.929,0,0,0,1.015.888,3.932,3.932,0,0,0,.788.291.426.426,0,0,1,.11.052l.037,0,.4.04a.516.516,0,0,1,.224.025h0l.636,0A.162.162,0,0,1,96.4,15a.767.767,0,0,1,.222-.015.353.353,0,0,1,.182,0l.476-.118a3.015,3.015,0,0,0,1.536-.91.94.94,0,0,0,.158-.278q0-.106,0-.213a.6.6,0,0,0-.465-.411.584.584,0,0,0-.4.088l-.081.06-.462.343h0l-.072.045-.006,0a2.484,2.484,0,0,1-.789.274c-.055.049-.12.023-.182.028a.263.263,0,0,1-.18.025,2.485,2.485,0,0,1-.473,0,.288.288,0,0,1-.182-.026,1.893,1.893,0,0,1-1.176-.48,2.59,2.59,0,0,1-.841-1.967.52.52,0,0,1,0-.366h0c.06-.042.128-.021.192-.021Zm-.219-1.11a2.877,2.877,0,0,1,.536-1.633,2.033,2.033,0,0,1,1.941-.749A1.944,1.944,0,0,1,97.8,8.842a3.667,3.667,0,0,1,.237,1.121c.01.132-.021.176-.162.175-.679-.007-1.357,0-2.036,0s-1.345,0-2.018,0C93.673,10.139,93.634,10.1,93.646,9.954Z" transform="translate(-37.686 -2.651)" fill="#1e6c92"/>
    <path id="path22" d="M52.849,14.866a.768.768,0,0,0,.234-.4.584.584,0,0,1,.024-.222l.005-.172c0-.688-.007-1.376-.007-2.064,0-.8,0-1.6.007-2.405l0-.106a.286.286,0,0,1-.009-.033,1.6,1.6,0,0,1-.019-.328,2.953,2.953,0,0,0-.909-1.925,2.689,2.689,0,0,0-1.522-.672c-.106-.013-.212-.029-.317-.044h-.463a3.231,3.231,0,0,0-1.582.518,1.757,1.757,0,0,0-.365.307c-.038.046-.069.115-.148.113h0a.349.349,0,0,1-.009-.034,2.736,2.736,0,0,1-.021-.388.67.67,0,0,0-.475-.477h-.248a.569.569,0,0,0-.5.622c0,.048-.007.1-.011.143,0,.072.006.144.006.215q0,2.777,0,5.555c0,.335,0,.671-.006,1.006,0,.084.01.168.011.252a.631.631,0,0,0,.438.648.652.652,0,0,0,.77-.452c.006-.017.012-.034.017-.051l0-.038q0-2.293.005-4.586a.414.414,0,0,1,.02-.211h0a.026.026,0,0,1,0-.03,1.851,1.851,0,0,1,1.832-1.985h0a.959.959,0,0,1,.444,0,1.781,1.781,0,0,1,1.73,1.525c.011.057.053.109.031.172q0,.089,0,.179a.807.807,0,0,1,.03.4c0,.377.007.754.007,1.131q0,1.562-.007,3.123a1.713,1.713,0,0,0,.061.471A.64.64,0,0,0,52.849,14.866Z" transform="translate(-18.968 -2.65)" fill="#1e6c92"/>
    <path id="path24" d="M85.8,9.468a.253.253,0,0,1-.012-.045,1.548,1.548,0,0,1-.015-.283A4.024,4.024,0,0,0,85.4,7.877L85.287,7.7a3.1,3.1,0,0,0-.717-.719h0l-.177-.112A3.778,3.778,0,0,0,83.019,6.5s0,0,0,0,0,0,0,0l-.5,0a3.2,3.2,0,0,0-1.3.367c-.042.037-.082.078-.145.07-.235.129-.4.349-.614.5h0a1.651,1.651,0,0,1-.026-.386.638.638,0,0,0-.479-.514h-.248c-.319.055-.47.2-.5.622-.01.143-.009.288-.013.432,0,.072.006.144.006.215q0,2.48,0,4.961c0,.437,0,.875-.006,1.312a2.648,2.648,0,0,0,.024.426.544.544,0,0,0,.494.469.6.6,0,0,0,.683-.39l.04-.148q0-2.291,0-4.582a.372.372,0,0,1,.021-.211,2.019,2.019,0,0,1,.532-1.466,1.67,1.67,0,0,1,.986-.514.87.87,0,0,1,.315-.038s0,0,0,0a.964.964,0,0,1,.444,0,1.869,1.869,0,0,1,1.256.548.163.163,0,0,1,.1.105,2.135,2.135,0,0,1,.393.949c.023.15.031.3.045.455v.18c0,.544.007,1.089.007,1.633,0,.886,0,1.771-.007,2.657q0,.1.005.207a.073.073,0,0,1,.008.019.289.289,0,0,1,.018.133.538.538,0,0,0,.536.468.589.589,0,0,0,.636-.424.513.513,0,0,1,.034-.082,0,0,0,0,0,0,0h0a.473.473,0,0,1,.025-.215q0-.071,0-.142c0-.634-.007-1.268-.007-1.9,0-.868,0-1.735.007-2.6q0-.069,0-.139Z" transform="translate(-32.299 -2.65)" fill="#1e6c92"/>
    <path id="path26" d="M75.252,14.263c0-.053,0-.106.005-.159,0-.072-.006-.144-.006-.215q0-2.777,0-5.555c0-.335,0-.671.006-1.006a1.06,1.06,0,0,0-.084-.45.628.628,0,0,0-.392-.312H74.5a.559.559,0,0,0-.479.584q0,3.477,0,6.954c0,.108,0,.216,0,.324.016.35.221.618.728.577l.068-.015A.676.676,0,0,0,75.252,14.263Z" transform="translate(-30.187 -2.677)" fill="#1e6c92"/>
    <path id="path28" d="M74.675,1.687a.047.047,0,0,1,.006-.013A.951.951,0,0,0,75.3.966a.247.247,0,0,0,0-.191.818.818,0,0,0-.653-.688A.78.78,0,0,0,73.7.712a.491.491,0,0,0,0,.279.814.814,0,0,0,.618.682.044.044,0,0,1,.008.015.273.273,0,0,1,.347,0Z" transform="translate(-30.051 -0.027)" fill="#1e6c92"/>
    <path id="path30" d="M74.307,1.647a.814.814,0,0,1-.618-.682.491.491,0,0,1,0-.279A.78.78,0,0,1,74.63.06a.818.818,0,0,1,.653.688.247.247,0,0,1,0,.191.951.951,0,0,1-.619.709.046.046,0,0,0-.006.013l.007.005a.873.873,0,0,0,.655-.73q0-.088,0-.176c-.015-.051-.03-.1-.044-.154a.825.825,0,0,0-.865-.6.781.781,0,0,0-.765.684q0,.142,0,.284a.778.778,0,0,0,.659.7l.006,0A.043.043,0,0,0,74.307,1.647Z" transform="translate(-30.037 0)" fill="#1e6c92"/>
    <path id="path32" d="M74.772,2.763v0h.345V2.762A.273.273,0,0,0,74.772,2.763Z" transform="translate(-30.495 -1.101)" fill="#1e6c92"/>
    <path id="path34" d="M74.768,2.807l-.006,0h.007Z" transform="translate(-30.491 -1.145)" fill="#1e6c92"/>
    <path id="path36" d="M75.357,2.809h.008L75.358,2.8A.041.041,0,0,0,75.357,2.809Z" transform="translate(-30.734 -1.144)" fill="#1e6c92"/>
  </g>
</svg>
