<svg id="Group_105408" data-name="Group 105408" xmlns="http://www.w3.org/2000/svg" width="38.09" height="38.265" viewBox="0 0 38.09 38.265">
  <path id="Path_78332" data-name="Path 78332" d="M58.659,41.275a8.616,8.616,0,1,1,8.267-11.022h3.349a11.859,11.859,0,1,0,0,4.814H66.926a8.664,8.664,0,0,1-8.267,6.209" transform="translate(-39.545 -13.545)" fill="#435363"/>
  <path id="Path_78333" data-name="Path 78333" d="M64.2,66.907a8.117,8.117,0,0,0,5.79,2.407V65.9a4.778,4.778,0,0,1-3.383-1.4Z" transform="translate(-50.876 -42.002)" fill="#435363"/>
  <path id="Path_78334" data-name="Path 78334" d="M57.3,39.5a8.057,8.057,0,0,0,.7,3.314l3.139-1.4a4.524,4.524,0,0,1-.419-1.918A4.764,4.764,0,0,1,65.5,34.718V31.3a8.188,8.188,0,0,0-8.2,8.2" transform="translate(-46.382 -20.382)" fill="#f38b00"/>
  <path id="Path_78335" data-name="Path 78335" d="M87.021,32.9,85.8,36.074a4.785,4.785,0,0,1,2.407,2.058h3.732A8.324,8.324,0,0,0,87.021,32.9" transform="translate(-64.941 -21.424)" fill="#435363"/>
  <path id="Path_78336" data-name="Path 78336" d="M85.8,63.758l1.256,3.209A8.241,8.241,0,0,0,91.939,61.7H88.207A5.145,5.145,0,0,1,85.8,63.758" transform="translate(-64.941 -40.178)" fill="#f38b00"/>
  <path id="Path_78337" data-name="Path 78337" d="M29.942,59.339a2.613,2.613,0,0,1-.14-.558v-.035a2.906,2.906,0,0,0-.14-.523c-.035-.174-.07-.349-.1-.558,0-.07-.035-.14-.035-.209-.035-.1-.035-.244-.07-.349,0-.1-.035-.209-.035-.314a14.065,14.065,0,0,1-.14-2.093H26a17,17,0,0,0,.14,2.3v.035a3.844,3.844,0,0,1,.07.628c0,.07.035.1.035.174.035.174.07.349.1.488a.821.821,0,0,0,.07.279,1.8,1.8,0,0,1,.07.384,1.239,1.239,0,0,1,.07.349c.035.1.035.209.07.314l.1.419c0,.07.035.1.035.174h0a16.108,16.108,0,0,0,.8,2.163l2.965-1.291c-.209-.593-.419-1.186-.593-1.779Z" transform="translate(-26 -35.62)" fill="#435363"/>
  <path id="Path_78338" data-name="Path 78338" d="M47.524,34.985a15.965,15.965,0,0,1-11.232-4.639l-2.3,2.3A19.094,19.094,0,0,0,66.464,21.521H63.186A15.825,15.825,0,0,1,47.524,34.985m0-31.742a15.755,15.755,0,0,1,9.488,3.174L58.965,3.8A18.945,18.945,0,0,0,47.524,0,19.176,19.176,0,0,0,29.7,12.173l3.035,1.186A15.856,15.856,0,0,1,47.524,3.244" transform="translate(-28.409 0)" fill="#f38b00"/>
  <path id="Path_78339" data-name="Path 78339" d="M121.632,33.544h3.279a19.3,19.3,0,0,0-2.756-7.744L119.4,27.509a15.6,15.6,0,0,1,2.232,6.034" transform="translate(-86.822 -16.801)" fill="#435363"/>
  <path id="Path_78340" data-name="Path 78340" d="M101,25.534h3.279a15.581,15.581,0,0,0-9.7-12.034l-1.186,3a12.221,12.221,0,0,1,7.6,9.034" transform="translate(-69.89 -8.791)" fill="#f38b00"/>
  <path id="Path_78341" data-name="Path 78341" d="M53.906,13.644V10.4h0A15.429,15.429,0,0,0,39.5,20.271l3,1.186a12.243,12.243,0,0,1,11.406-7.813" transform="translate(-34.791 -6.772)" fill="#435363"/>
  <path id="Path_78342" data-name="Path 78342" d="M39.644,54.8H36.4a15.554,15.554,0,0,0,9.732,14.371l1.186-3A12.333,12.333,0,0,1,39.644,54.8" transform="translate(-32.772 -35.686)" fill="#f38b00"/>
  <path id="Path_78343" data-name="Path 78343" d="M80.8,71.536V74.78A15.5,15.5,0,0,0,96.078,61.7H92.8a12.272,12.272,0,0,1-12,9.836" transform="translate(-61.685 -40.178)" fill="#435363"/>
</svg>
