<svg id="Layer_2" data-name="Layer 2" xmlns="http://www.w3.org/2000/svg" width="66.012" height="69.203" viewBox="0 0 66.012 69.203">
  <g id="design" transform="translate(0 0)">
    <path id="Path_14791" data-name="Path 14791" d="M0,261.9a3.517,3.517,0,0,1,3.786-2.365c1.584.021,3.172-.031,4.757.016,2.4.07,3.607,1.415,3.495,3.8-.017.388-.07.757-.47.86-.61.157-1.2.582-1.856.324-.318-.122-.194-.513-.194-.792-.049-1.553-.365-1.866-1.907-1.87-1.2,0-2.394-.017-3.592,0-1.045.019-1.5.439-1.51,1.472-.025,3.009,0,6.019,0,9.026a1.322,1.322,0,0,0,1.342,1.458,23.817,23.817,0,0,0,4.077.029c1.279-.087,1.553-.5,1.619-1.813.017-.4-.326-1.068.516-1.091.914-.025,1.924.582,1.992,1.165.268,2.316-.812,3.751-3.136,4.021a37.468,37.468,0,0,1-5.524.049,3.49,3.49,0,0,1-3.4-2.25Z" transform="translate(0 -209.138)" fill="#44417f"/>
    <path id="Path_14792" data-name="Path 14792" d="M200.081,268.192c0-1.881-.014-3.37,0-4.854.029-2.656,1.147-3.786,3.786-3.815,1.586-.017,3.172-.037,4.757,0,2.524.068,3.722,1.437,3.495,3.943-.113,1.2-1.2.918-1.877,1.085-.8.194-.555-.582-.582-1-.089-1.347-.433-1.695-1.792-1.7-1.2,0-2.394-.014-3.592,0-1.165.016-1.644.429-1.656,1.553-.029,2.943-.016,5.889,0,8.834a1.38,1.38,0,0,0,1.439,1.584c1.324.037,2.652.1,3.972.025s1.553-.45,1.639-1.788c.025-.415-.282-1.068.514-1.116.971-.06,1.909.582,1.942,1.278.13,2.6-.788,3.737-3.392,3.934a27.686,27.686,0,0,1-5.906-.08,2.8,2.8,0,0,1-2.639-2.644C199.934,271.552,200.157,269.671,200.081,268.192Z" transform="translate(-161.22 -209.117)" fill="#44417f"/>
    <path id="Path_14793" data-name="Path 14793" d="M84.5,267.9c0,1.747.021,3.495-.012,5.242-.012.582.159.8.763.777,1.033-.045,2.07.014,3.106-.021.582-.019.777.179.786.777.014,1.565.041,1.565-1.483,1.565-3.073,0-6.147-.037-9.218.021-1,.019-1.087-.456-1.089-1.246s.149-1.206,1.068-1.122,1.877-.021,2.811.031c.662.039.813-.216.81-.835q-.037-5.242,0-10.484c0-.619-.208-.777-.777-.746-.9.041-1.811-.014-2.718.017-1.064.037-.841-.711-.878-1.334s.066-1.027.87-1.017q4.755.056,9.513,0c.922-.012.862.522.86,1.13s.087,1.272-.889,1.225c-.936-.045-1.877.017-2.813-.019-.549-.021-.728.153-.718.713C84.518,264.346,84.5,266.126,84.5,267.9Z" transform="translate(-62.332 -209.139)" fill="#44417f"/>
    <path id="Path_14794" data-name="Path 14794" d="M158.183,285.72c.821.866,1.639,1.738,2.468,2.6a1.07,1.07,0,0,1,.184,1.4q-2.571,4.66-5.131,9.331c-.1.179-.155.5-.458.363s-.1-.388-.058-.6q.85-3.824,1.709-7.648a3.5,3.5,0,0,0,.136-1.146,17.182,17.182,0,0,1,.763-3.914A.53.53,0,0,1,158.183,285.72Z" transform="translate(-124.972 -230.245)" fill="#fba226"/>
    <path id="Path_14795" data-name="Path 14795" d="M154.972,247.111a26.735,26.735,0,0,0-.8,3.324,9.171,9.171,0,0,1-.348.971c-.777-.817-1.553-1.646-2.34-2.446a1.11,1.11,0,0,1-.184-1.483q2.539-4.619,5.073-9.242c.1-.173.151-.522.445-.4.33.138.13.46.08.685Q155.948,242.821,154.972,247.111Z" transform="translate(-121.761 -191.636)" fill="#e14329"/>
    <path id="Path_14796" data-name="Path 14796" d="M286.109,259.528q-3.734.039-7.469,0c-.629,0-.852.194-.85.835q.025,7.518,0,15.035c0,.643.252.85.864.846,2.489-.017,4.98,0,7.469-.014,1.693-.014,3.089-.561,3.745-2.293V261.9C289.268,260.072,287.89,259.511,286.109,259.528Zm1.262,12.6c-.012,1.256-.3,1.65-1.569,1.72-1.641.091-3.291.033-4.935.06-.433,0-.549-.177-.549-.582q.014-5.471,0-10.942c0-.448.194-.532.582-.53,1.679.014,3.357-.014,5.036.014.994.017,1.4.429,1.423,1.439.031,1.516,0,3.035,0,4.551h0c.016,1.431.025,2.85.012,4.271Z" transform="translate(-223.857 -209.138)" fill="#44417f"/>
    <path id="Path_14797" data-name="Path 14797" d="M139.9,92.669h0L147.03,70.73H132.76Z" transform="translate(-106.984 -56.996)" fill="#e24329"/>
    <path id="Path_14798" data-name="Path 14798" d="M98.442,92.669,91.307,70.73H81.32Z" transform="translate(-65.532 -56.996)" fill="#fc6d26"/>
    <path id="Path_14799" data-name="Path 14799" d="M72.053,70.68h0l-2.161,6.663a1.5,1.5,0,0,0,.546,1.668L89.175,92.629,72.053,70.69Z" transform="translate(-56.264 -56.955)" fill="#fca326"/>
    <path id="Path_14800" data-name="Path 14800" d="M81.32,13.714h9.987L87.036.495a.742.742,0,0,0-1.406,0Z" transform="translate(-65.532 0.01)" fill="#e24329"/>
    <path id="Path_14801" data-name="Path 14801" d="M169.51,92.669l7.135-21.939h9.987L169.51,92.669Z" transform="translate(-136.599 -56.996)" fill="#fc6d26"/>
    <path id="Path_14802" data-name="Path 14802" d="M186.632,70.68h0l2.161,6.663A1.5,1.5,0,0,1,188.248,79L169.51,92.619Z" transform="translate(-136.599 -56.955)" fill="#fca326"/>
    <path id="Path_14803" data-name="Path 14803" d="M216.239,13.714H206.25l4.3-13.22a.742.742,0,0,1,1.406,0l4.271,13.22Z" transform="translate(-166.206 0.01)" fill="#e24329"/>
  </g>
</svg>
