<svg xmlns="http://www.w3.org/2000/svg" xmlns:xlink="http://www.w3.org/1999/xlink" width="54.582" height="29.211" viewBox="0 0 54.582 29.211">
  <defs>
    <clipPath id="clip-path">
      <rect id="Rectangle_44034" data-name="Rectangle 44034" width="54.582" height="29.211" fill="#3FAAF0"/>
    </clipPath>
  </defs>
  <g id="Group_103638" data-name="Group 103638" clip-path="url(#clip-path)">
    <path id="Path_74274" data-name="Path 74274" d="M398.9,4.975a10.731,10.731,0,0,1,8.982,10.041l1.979,1.319,1.927-1.284A14.634,14.634,0,0,0,399.095,1.063l.847,1.268h0a.975.975,0,0,1,0,1.083Z" transform="translate(-357.205 -0.952)" fill="#3FAAF0"/>
    <path id="Path_74275" data-name="Path 74275" d="M156.423,147.523a14.722,14.722,0,0,0,9.978-5.957,14.528,14.528,0,0,0,2.723-8.032l-1.932-1.289-1.979,1.319a10.731,10.731,0,0,1-8.982,10.04l1.041,1.561h0a.975.975,0,0,1,0,1.083Z" transform="translate(-139.902 -118.422)" fill="#3FAAF0"/>
    <path id="Path_74276" data-name="Path 74276" d="M5.026,156.192l-1.561,1.041a.975.975,0,0,1-1.083,0l-1.268-.847A14.633,14.633,0,0,0,15.1,169.077l1.286-1.926-1.319-1.979h0a10.731,10.731,0,0,1-10.042-8.981Z" transform="translate(-0.998 -139.866)" fill="#3FAAF0"/>
    <path id="Path_74277" data-name="Path 74277" d="M282.353,192.458a10.748,10.748,0,0,1-7.8-5.658,16.475,16.475,0,0,1-1.951,4.13,14.709,14.709,0,0,0,9.561,5.445l-.849-1.268a.975.975,0,0,1,0-1.083Z" transform="translate(-244.105 -167.275)" fill="#3FAAF0"/>
    <path id="Path_74278" data-name="Path 74278" d="M387.881,157.244l-1.561-1.04a10.73,10.73,0,0,1-10.041,8.98l-1.318,1.978,1.284,1.926A14.633,14.633,0,0,0,390.234,156.4l-1.268.847a.975.975,0,0,1-1.083,0Z" transform="translate(-335.769 -139.877)" fill="#3FAAF0"/>
    <path id="Path_74279" data-name="Path 74279" d="M142.6,9.68a16.452,16.452,0,0,1,1.951-4.128A14.685,14.685,0,0,0,133.583,0L132.3,1.921,133.616,3.9h0A10.732,10.732,0,0,1,142.6,9.68Z" transform="translate(-118.469)" fill="#3FAAF0"/>
    <path id="Path_74280" data-name="Path 74280" d="M3.9,15.018a10.731,10.731,0,0,1,8.982-10.04L11.845,3.416a.975.975,0,0,1,0-1.083l.847-1.268h0A14.633,14.633,0,0,0,0,15.053l1.926,1.284Z" transform="translate(0 -0.954)" fill="#3FAAF0"/>
    <path id="Path_74281" data-name="Path 74281" d="M244.893,11.845a.976.976,0,0,1,1.083,0l1.561,1.041h0A10.732,10.732,0,0,1,257.576,3.9L258.9,1.926,257.616.005a14.7,14.7,0,0,0-11.389,6.063,14.5,14.5,0,0,0-2.62,6.634Z" transform="translate(-218.144 -0.004)" fill="#3FAAF0"/>
  </g>
</svg>
