<svg id="Group_103641" data-name="Group 103641" xmlns="http://www.w3.org/2000/svg" xmlns:xlink="http://www.w3.org/1999/xlink" width="46.064" height="45.981" viewBox="0 0 46.064 45.981">
  <defs>
    <clipPath id="clip-path">
      <rect id="Rectangle_44035" data-name="Rectangle 44035" width="46.064" height="45.981" fill="#3FAAF0"/>
    </clipPath>
  </defs>
  <g id="Group_103640" data-name="Group 103640" clip-path="url(#clip-path)">
    <path id="Path_74282" data-name="Path 74282" d="M22.274,45.981a2.859,2.859,0,0,1-.61-.066l-6.9-1.494a2.875,2.875,0,0,1-2.2-3.42l.662-3.048a.472.472,0,0,0-.2-.49.513.513,0,0,0-.6-.052L9.8,39.1a2.883,2.883,0,0,1-3.976-.861L2,32.306a2.873,2.873,0,0,1,.863-3.975l2.627-1.686a.471.471,0,0,0,.212-.482.509.509,0,0,0-.383-.456l-3.053-.661a2.874,2.874,0,0,1-2.2-3.419L1.557,14.76a2.876,2.876,0,0,1,3.467-2.189l3.024.706a.479.479,0,0,0,.52-.217.54.54,0,0,0,.049-.6L6.9,9.789a2.874,2.874,0,0,1,.863-3.976L13.7,2a2.885,2.885,0,0,1,3.976.861l1.69,2.622a.481.481,0,0,0,.488.213.513.513,0,0,0,.457-.381l.662-3.048h0A2.879,2.879,0,0,1,24.4.065L31.3,1.56h0a2.875,2.875,0,0,1,2.2,3.42l-.648,2.981h0a.472.472,0,0,0,.216.506l.12.069a.478.478,0,0,0,.505-.008l2.561-1.646h0a2.887,2.887,0,0,1,3.976.863l3.824,5.929h0a2.873,2.873,0,0,1-.865,3.974L40.628,19.3a.47.47,0,0,0-.2.515.5.5,0,0,0,.368.393l3.052.714A2.888,2.888,0,0,1,46,24.328l-1.5,6.92a2.878,2.878,0,0,1-3.424,2.2l-3.051-.66a.474.474,0,0,0-.5.2.5.5,0,0,0-.05.589l1.69,2.621a2.872,2.872,0,0,1-.864,3.974L32.36,43.983a2.887,2.887,0,0,1-3.977-.863l-1.724-2.676a.476.476,0,0,0-.521-.206.494.494,0,0,0-.377.369l-.675,3.108a2.883,2.883,0,0,1-2.812,2.266ZM12.688,34.936h0a2.954,2.954,0,0,1,2.872,3.526L14.9,41.509h0a.474.474,0,0,0,.065.358.483.483,0,0,0,.3.21l6.9,1.494a.479.479,0,0,0,.573-.365l.675-3.109h0a2.864,2.864,0,0,1,2.089-2.172c.035-.009.091-.022.127-.028h0a2.826,2.826,0,0,1,3.038,1.248L30.4,41.821h0a.48.48,0,0,0,.667.144l5.941-3.815h0a.475.475,0,0,0,.145-.659l-1.691-2.622h0a2.86,2.86,0,0,1,.057-3.2,2.9,2.9,0,0,1,3.013-1.23l3.051.66a.479.479,0,0,0,.574-.365l1.5-6.92h0a.48.48,0,0,0-.361-.565l-3.054-.714a2.907,2.907,0,0,1-.912-5.259L41.9,15.632a.478.478,0,0,0,.144-.66L38.219,9.043h0a.484.484,0,0,0-.665-.145l-2.561,1.646a2.867,2.867,0,0,1-3.025.054A2.9,2.9,0,0,1,30.513,7.45l.648-2.98a.479.479,0,0,0-.369-.568l-6.9-1.494a.474.474,0,0,0-.573.365l-.662,3.048a2.933,2.933,0,0,1-5.3.959l-1.69-2.622A.481.481,0,0,0,15,4.015L9.054,7.83h0a.476.476,0,0,0-.144.659l1.722,2.671h0a2.856,2.856,0,0,1,.055,3.024A2.891,2.891,0,0,1,7.5,15.609L4.479,14.9h0a.488.488,0,0,0-.368.062.476.476,0,0,0-.212.3L2.407,22.133a.474.474,0,0,0,.065.36.479.479,0,0,0,.3.208l3.054.661a2.928,2.928,0,0,1,.958,5.3L4.161,30.347a.476.476,0,0,0-.144.659L7.84,36.936a.479.479,0,0,0,.666.144l2.626-1.686a2.869,2.869,0,0,1,1.556-.458Z" transform="translate(0 0)" fill="#3FAAF0"/>
    <path id="Path_74283" data-name="Path 74283" d="M82.5,145.643l3.647-1.5-.765-2.277-6.638,2.816V146.6l6.637,2.816.767-2.271Z" transform="translate(-67.957 -122.434)" fill="#3FAAF0"/>
    <path id="Path_74284" data-name="Path 74284" d="M143.876,118.913l-4.836,13.842h2.644l4.806-13.842Z" transform="translate(-119.995 -102.625)" fill="#3FAAF0"/>
    <path id="Path_74285" data-name="Path 74285" d="M200.457,141.863l-.765,2.277,3.647,1.5-3.649,1.507.767,2.271L207.1,146.6V144.68Z" transform="translate(-172.339 -122.432)" fill="#3FAAF0"/>
  </g>
</svg>
