<svg id="jenkins" xmlns="http://www.w3.org/2000/svg" width="108.42" height="90.998" viewBox="0 0 108.42 90.998">
  <path id="Path_14690" data-name="Path 14690" d="M16.422,130.416v-6.957a1.537,1.537,0,0,1,1.5-1.659h.268a1.506,1.506,0,0,1,1.5,1.659v14.609a9.135,9.135,0,0,1-4.816,8.188,8.977,8.977,0,0,1-4.656,1.284H9.572a9.2,9.2,0,0,1-8.188-4.816A8.977,8.977,0,0,1,.1,138.068v-.642a9.135,9.135,0,0,1,4.816-8.188,8.977,8.977,0,0,1,4.656-1.284h.642a8.969,8.969,0,0,1,6.208,2.462Zm-13,7.331A6.211,6.211,0,0,0,6.9,143.473a6.4,6.4,0,0,0,8.616-2.569,6.337,6.337,0,0,0,.856-3.264,6.268,6.268,0,0,0-2.836-5.244,5.922,5.922,0,0,0-3.639-1.177,6.341,6.341,0,0,0-5.94,3.853,6.64,6.64,0,0,0-.535,2.676Zm27.667-9.793h.482a9.431,9.431,0,0,1,8.562,5.191,8.675,8.675,0,0,1,1.124,4.281v.642a9.135,9.135,0,0,1-4.816,8.188,8.977,8.977,0,0,1-4.656,1.284h-.7a9.2,9.2,0,0,1-8.188-4.816,8.977,8.977,0,0,1-1.284-4.656v-.642a9.622,9.622,0,0,1,9.472-9.472Zm-6.154,9.793A6.487,6.487,0,0,0,37.078,140.9a6.421,6.421,0,0,0-2.194-8.669,6.2,6.2,0,0,0-3.478-1.07,6.341,6.341,0,0,0-5.94,3.853,7.08,7.08,0,0,0-.535,2.729ZM54.9,131.486a6.141,6.141,0,0,0-1.98-.321c-2.729-.107-4.709,1.445-5.887,3.853a5.686,5.686,0,0,0-.589,2.622c0,2.836,1.5,4.763,4.014,5.994a7.6,7.6,0,0,0,3.1.535,7.929,7.929,0,0,0,2.89-.91l.161-.054h.642a1.5,1.5,0,0,1,1.338,1.445v.321c0,1.98-3.639,2.462-5.03,2.569a9.289,9.289,0,0,1-10.007-7.064,7.633,7.633,0,0,1-.375-2.462v-.642A9.2,9.2,0,0,1,48,129.185a8.977,8.977,0,0,1,4.656-1.284h.642a8.154,8.154,0,0,1,4.816,1.5l.107.107.054.107a1.617,1.617,0,0,1,.268.856v.321c0,.856-.642,1.284-1.391,1.445h-.268a7.493,7.493,0,0,1-1.98-.749Zm10.649,2.248c1.284-1.284,2.569-2.569,3.853-3.8.375-.375,1.712-1.819,2.248-1.819h.642a1.5,1.5,0,0,1,1.338,1.445v.321c0,.535-.642,1.177-1.017,1.552-.749.8-1.552,1.552-2.3,2.355l-3.96,4.014,5.137,5.137c.482.482.963.963,1.391,1.445a2.141,2.141,0,0,1,.535.642,1.229,1.229,0,0,1,.214.749v.375a1.507,1.507,0,0,1-1.5,1.338h-.268c-.535,0-1.177-.589-1.552-.963l-2.248-2.248-2.515-2.462v3.96a1.537,1.537,0,0,1-1.5,1.659h-.268a1.506,1.506,0,0,1-1.5-1.659V123.512a1.537,1.537,0,0,1,1.5-1.659h.268a1.506,1.506,0,0,1,1.5,1.659v10.221Zm40.938-5.673h.321a1.573,1.573,0,0,1,1.659,1.659c0,1.338-1.284,1.712-2.408,1.712a6.012,6.012,0,0,0-3.907,1.873,6.129,6.129,0,0,0-1.819,4.6v7.974a1.537,1.537,0,0,1-1.5,1.659h-.268a1.506,1.506,0,0,1-1.5-1.659v-8.4a9.182,9.182,0,0,1,4.174-7.706,8.9,8.9,0,0,1,5.244-1.712ZM83.154,143.848a7.608,7.608,0,0,0,3.8.161,8.577,8.577,0,0,1,2.836-.856H89.9l.107.054a1.889,1.889,0,0,1,.91.8,1.553,1.553,0,0,1-.642,2.194l-.268.161a9.349,9.349,0,0,1-9.526-.107A8.917,8.917,0,0,1,77,142.831l-.214-.321a9.3,9.3,0,0,1,.535-10.382,9.735,9.735,0,0,1,3-2.729l.428-.268a9.194,9.194,0,0,1,9.1-.107A8.9,8.9,0,0,1,93.7,132.61l.161.268c.642,1.124-.214,2.141-1.07,2.836-1.017.8-2.034,1.712-3.05,2.569-2.248,1.819-4.388,3.692-6.582,5.565Zm-2.836-1.98c2.462-2.087,4.87-4.174,7.331-6.261.856-.7,1.766-1.445,2.569-2.194a6.593,6.593,0,0,0-8.241-1.284,6.164,6.164,0,0,0-3.157,5.994,6.063,6.063,0,0,0,.856,2.89c.214.268.428.589.642.856Z" transform="translate(-0.046 -56.62)" fill="#364548"/>
  <path id="Path_14691" data-name="Path 14691" d="M74.117,19.372H83.8v9.9h4.923a22.263,22.263,0,0,0,6.743-1.124,16.244,16.244,0,0,0,3.264-1.5,11.564,11.564,0,0,1-2.248-6.261c-.268-3.05.321-6.957,2.355-9.311L99.857,9.9l1.231.963c3.05,2.462,5.619,5.887,6.1,9.793a14.831,14.831,0,0,1,11.238,1.07l1.338.749-.7,1.391c-2.729,5.351-8.509,7.01-14.074,6.743-8.4,20.924-26.65,30.824-48.859,30.824-11.452,0-21.941-4.281-27.934-14.449l-.107-.161-.856-1.766a28.382,28.382,0,0,1-2.248-14.288l.161-1.445h8.295V19.372h9.686V9.686H62.5V0H74.117V19.372" transform="translate(-11.558)" fill="#364548"/>
  <path id="Path_14692" data-name="Path 14692" d="M106.878,33.617c.642-5.03-3.157-9.044-5.458-10.917-2.729,3.1-3.1,11.292,1.124,14.77-2.355,2.087-7.331,4.014-12.469,4.014H27.891a26.332,26.332,0,0,0,2.569,14.449l.7,1.284c.428.749.963,1.5,1.445,2.194h0q3.853.241,7.064.161h0a35.223,35.223,0,0,0,10.328-1.5.762.762,0,1,1,.482,1.445c-.375.107-.7.214-1.07.321h0a35.188,35.188,0,0,1-7.117,1.177H41.8c-1.124.054-2.355.054-3.585.054-1.338,0-2.676,0-4.174-.107h-.054c5.191,5.833,13.272,9.311,23.439,9.311,21.459,0,39.708-9.526,47.788-30.878,5.726.589,11.238-.856,13.753-5.78-4.014-2.194-9.151-1.5-12.094,0" transform="translate(-12.907 -10.552)" fill="#22a0c8"/>
  <path id="Path_14693" data-name="Path 14693" d="M110.18,33.617c.642-5.03-3.157-9.044-5.458-10.917-2.729,3.1-3.1,11.292,1.124,14.77-2.355,2.087-7.331,4.014-12.469,4.014H34.886c-.268,8.134,2.783,14.342,8.134,18.088h0a35.223,35.223,0,0,0,10.328-1.5.762.762,0,0,1,.482,1.445c-.375.107-.7.214-1.07.321h0a36.569,36.569,0,0,1-7.331,1.231l-.054-.054c7.331,3.746,17.927,3.746,30.075-.91,13.646-5.244,26.329-15.2,35.159-26.6a1.008,1.008,0,0,0-.428.107" transform="translate(-16.209 -10.552)" fill="#37b1d9"/>
  <path id="Path_14694" data-name="Path 14694" d="M28.2,69.854a25.169,25.169,0,0,0,2.462,7.974l.7,1.284c.428.749.963,1.5,1.445,2.194q3.853.241,7.064.161a35.223,35.223,0,0,0,10.328-1.5.762.762,0,1,1,.482,1.445c-.375.107-.7.214-1.07.321h0a33.359,33.359,0,0,1-7.278,1.177h-.375c-1.124.054-2.3.107-3.585.107-1.338,0-2.729,0-4.228-.107,5.191,5.833,13.325,9.311,23.493,9.311,18.409,0,34.41-6.957,43.668-22.422H28.2" transform="translate(-13.109 -32.447)" fill="#1b81a5"/>
  <path id="Path_14695" data-name="Path 14695" d="M36,69.9a18.627,18.627,0,0,0,7.6,11.613,35.223,35.223,0,0,0,10.328-1.5.762.762,0,1,1,.482,1.445c-.375.107-.7.214-1.07.321h0a33.887,33.887,0,0,1-7.331,1.177c7.331,3.746,17.874,3.692,30.021-.963A78.887,78.887,0,0,0,96.792,69.9H36" transform="translate(-16.735 -32.494)" fill="#1d91b4"/>
  <path id="Path_14696" data-name="Path 14696" d="M43.8,39.3h8.4v8.4H43.8Zm.7.7h.642v7.01H44.5Zm1.231,0h.7v7.01h-.7Zm1.284,0h.7v7.01h-.7ZM48.3,40h.7v7.01h-.7Zm1.284,0h.7v7.01h-.7Zm1.284,0h.642v7.01h-.642Z" transform="translate(-20.361 -18.269)" fill="#23a3c2"/>
  <path id="Path_14697" data-name="Path 14697" d="M61.9,21.1h8.4v8.4H61.9Zm.7.749h.642v7.01H62.6Zm1.284,0h.7v7.01h-.7Zm1.231,0h.7v7.01h-.7Zm1.284,0h.7v7.01h-.7Zm1.284,0h.7v7.01h-.7Zm1.284,0h.642v7.01h-.642Z" transform="translate(-28.775 -9.808)" fill="#23a3c2"/>
  <path id="Path_14698" data-name="Path 14698" d="M61.9,39.3h8.4v8.4H61.9Zm.7.7h.642v7.01H62.6Zm1.284,0h.7v7.01h-.7Zm1.231,0h.7v7.01h-.7ZM66.4,40h.7v7.01h-.7Zm1.284,0h.7v7.01h-.7Zm1.284,0h.642v7.01h-.642Z" transform="translate(-28.775 -18.269)" fill="#34bbde"/>
  <path id="Path_14699" data-name="Path 14699" d="M80,39.3h8.4v8.4H80Zm.7.7h.642v7.01H80.7Zm1.284,0h.7v7.01h-.7Zm1.284,0h.7v7.01h-.7ZM84.5,40h.7v7.01h-.7Zm1.284,0h.7v7.01h-.7Zm1.284,0h.642v7.01h-.642Z" transform="translate(-37.189 -18.269)" fill="#23a3c2"/>
  <path id="Path_14700" data-name="Path 14700" d="M80,21.1h8.4v8.4H80Zm.7.749h.642v7.01H80.7Zm1.284,0h.7v7.01h-.7Zm1.284,0h.7v7.01h-.7Zm1.231,0h.7v7.01h-.7Zm1.284,0h.7v7.01h-.7Zm1.284,0h.642v7.01h-.642Z" transform="translate(-37.189 -9.808)" fill="#34bbde"/>
  <path id="Path_14701" data-name="Path 14701" d="M98.2,39.3h8.4v8.4H98.2Zm.7.7h.642v7.01H98.9Zm1.231,0h.7v7.01h-.7Zm1.284,0h.7v7.01h-.7Zm1.284,0h.7v7.01h-.7Zm1.231,0h.7v7.01h-.7Zm1.284,0h.642v7.01h-.642Z" transform="translate(-45.649 -18.269)" fill="#34bbde"/>
  <path id="Path_14702" data-name="Path 14702" d="M98.2,21.1h8.4v8.4H98.2Zm.7.749h.642v7.01H98.9Zm1.231,0h.7v7.01h-.7Zm1.284,0h.7v7.01h-.7Zm1.284,0h.7v7.01h-.7Zm1.231,0h.7v7.01h-.7Zm1.284,0h.642v7.01h-.642Z" transform="translate(-45.649 -9.808)" fill="#23a3c2"/>
  <path id="Path_14703" data-name="Path 14703" d="M98.2,3h8.4v8.4H98.2Zm.7.7h.642v7.01H98.9Zm1.231,0h.7v7.01h-.7Zm1.284,0h.7v7.01h-.7Zm1.284,0h.7v7.01h-.7Zm1.231,0h.7v7.01h-.7Zm1.284,0h.642v7.01h-.642Z" transform="translate(-45.649 -1.395)" fill="#34bbde"/>
  <path id="Path_14704" data-name="Path 14704" d="M116.3,39.3h8.4v8.4h-8.4Zm.7.7h.642v7.01H117Zm1.231,0h.7v7.01h-.7Zm1.284,0h.7v7.01h-.7Zm1.284,0h.7v7.01h-.7Zm1.284,0h.7v7.01h-.7V40Zm1.231,0h.642v7.01h-.642Z" transform="translate(-54.063 -18.269)" fill="#23a3c2"/>
  <path id="Path_14705" data-name="Path 14705" d="M74.6,80.4a2.3,2.3,0,1,1-2.3,2.3,2.284,2.284,0,0,1,2.3-2.3" transform="translate(-33.609 -37.375)" fill="#d3ecec"/>
  <path id="Path_14706" data-name="Path 14706" d="M75.159,81.7a1.924,1.924,0,0,1,.589.107.615.615,0,0,0-.321.589.708.708,0,0,0,.7.7.658.658,0,0,0,.589-.375,1.357,1.357,0,0,1,.107.642A1.659,1.659,0,1,1,75.159,81.7" transform="translate(-34.167 -37.979)" fill="#364548"/>
  <path id="Path_14707" data-name="Path 14707" d="M0,67.6H107.885c-2.355-.589-7.438-1.391-6.582-4.5-4.281,4.923-14.556,3.478-17.178,1.017-2.89,4.174-19.747,2.622-20.924-.642-3.639,4.281-14.877,4.281-18.516,0-1.177,3.264-18.034,4.87-20.924.642-2.622,2.462-12.9,3.907-17.178-1.017C7.438,66.15,2.355,66.953,0,67.6" transform="translate(0 -29.333)" fill="#364548"/>
  <path id="Path_14708" data-name="Path 14708" d="M65.329,102.589C59.6,99.86,56.446,96.167,54.68,92.1a36.572,36.572,0,0,1-7.653,1.177c-1.124.054-2.3.107-3.532.107-1.445,0-2.943-.054-4.5-.107,5.244,5.244,11.72,9.311,23.76,9.365.8-.054,1.659-.054,2.569-.054" transform="translate(-18.129 -42.813)" fill="#bdd9d7"/>
  <path id="Path_14709" data-name="Path 14709" d="M63.693,95.846A19.525,19.525,0,0,1,61.553,92.1,36.572,36.572,0,0,1,53.9,93.277a25.108,25.108,0,0,0,9.793,2.569" transform="translate(-25.056 -42.813)" fill="#d3ecec"/>
</svg>
