<svg id="gitlab" xmlns="http://www.w3.org/2000/svg" width="48.139" height="78.938" viewBox="0 0 48.139 78.938">
  <path id="Path_14804" data-name="Path 14804" d="M48.307,41.414c0,13.137-10.445,23.814-23.3,23.814A23.55,23.55,0,0,1,1.7,41.414,23.55,23.55,0,0,1,25,17.6c12.859,0,23.3,10.677,23.3,23.814" transform="translate(-0.907 -9.377)" fill="#d33833"/>
  <path id="Path_14805" data-name="Path 14805" d="M2.307,49.024S.636,24.189,23.521,23.446L21.943,20.8,9.5,24.978,5.928,29.063,2.864,35,1.1,41.922l.511,4.642" transform="translate(-0.586 -11.092)" fill="#ef3d3a"/>
  <path id="Path_14806" data-name="Path 14806" d="M8.177,24.417a23.367,23.367,0,0,0-6.638,16.34h0A23.284,23.284,0,0,0,8.177,57.1h0a22.227,22.227,0,0,0,15.969,6.777h0A22.2,22.2,0,0,0,40.115,57.1h0a23.367,23.367,0,0,0,6.638-16.34h0a23.284,23.284,0,0,0-6.638-16.34h0a22.227,22.227,0,0,0-15.969-6.777h0A22.307,22.307,0,0,0,8.177,24.417Zm-1.021,33.7A24.725,24.725,0,0,1,.1,40.757h0A24.887,24.887,0,0,1,7.11,23.4h0A23.67,23.67,0,0,1,24.1,16.2h0a23.858,23.858,0,0,1,16.99,7.2h0A24.686,24.686,0,0,1,48.1,40.757h0a24.887,24.887,0,0,1-7.01,17.361h0a23.67,23.67,0,0,1-16.99,7.2h0a23.563,23.563,0,0,1-16.944-7.2Z" transform="translate(-0.05 -8.627)" fill="#231f20"/>
  <path id="Path_14807" data-name="Path 14807" d="M44.121,33.195l-3.574.511-4.781.557-3.11.093-3.017-.093-2.321-.7-2.043-2.228L23.7,26.789l-.371-.975-2.135-.7-1.207-2.089L19.1,20.1l.975-2.553,2.321-.789,1.857.882.882,1.95,1.068-.186.371-.464L26.2,16.9l-.093-2.553.511-3.574V8.731l1.625-2.6,2.832-2.043L36.044,2l5.524.789,4.781,3.435L48.577,9.8l1.439,2.553.371,6.406-1.114,5.524-1.95,4.874-1.857,2.6" transform="translate(-10.23 -1.019)" fill="#f0d6b7"/>
  <path id="Path_14808" data-name="Path 14808" d="M37.567,83.065l-12.673.511v2.135l1.068,7.474-.511.6-8.866-3.017-.6-1.068L15.053,79.63,12.964,73.6,12.5,72.156l7.1-4.874,2.228-.882,1.95,2.414L25.451,70.3l1.95.6.882.279,1.068,4.642.789.975,2.043-.7-1.439,2.785,7.706,3.667-.882.511" transform="translate(-6.694 -35.524)" fill="#335061"/>
  <path id="Path_14809" data-name="Path 14809" d="M20.771,18.615l2.321-.789,1.857.882.882,1.95,1.068-.186.279-1.068-.511-2.043.511-4.874-.464-2.646,1.578-1.857,3.435-2.739L30.752,3.9,25.878,6.267,23.835,7.846l-1.161,2.46L20.911,12.72,20.4,15.552l.371,3.064" transform="translate(-10.926 -2.037)" fill="#6d6b6d"/>
  <path id="Path_14810" data-name="Path 14810" d="M26.643,10.577s1.346-3.3,6.638-4.874.279-1.161.279-1.161L27.8,6.77,25.575,9,24.6,10.763l2.043-.186" transform="translate(-13.177 -2.354)" fill="#dcd9d8"/>
  <path id="Path_14811" data-name="Path 14811" d="M21.746,24.77s-1.857-6.22,5.246-7.1L26.713,16.6l-4.874,1.161L20.4,22.4l.371,3.017.975-.65" transform="translate(-10.926 -8.842)" fill="#dcd9d8"/>
  <path id="Path_14812" data-name="Path 14812" d="M29.4,50.714,30.561,49.6a.732.732,0,0,1,.6.7c.093.6.371,6.22,4.178,9.238.371.279-2.832-.464-2.832-.464l-2.832-4.456" transform="translate(-15.749 -26.523)" fill="#f7e4cd"/>
  <path id="Path_14813" data-name="Path 14813" d="M64.6,45.444s.186-2.692.928-2.46a.98.98,0,0,1,.743.928S64.5,45.073,64.6,45.444" transform="translate(-34.604 -22.97)" fill="#f7e4cd"/>
  <path id="Path_14814" data-name="Path 14814" d="M78.569,27.1s-1.485.279-1.578,1.578c-.139,1.3,1.578.279,1.857.186" transform="translate(-41.243 -14.467)" fill="#f7e4cd"/>
  <path id="Path_14815" data-name="Path 14815" d="M55.05,27.3s-1.95.279-1.95,1.485,2.228,1.161,2.832.6" transform="translate(-28.447 -14.574)" fill="#f7e4cd"/>
  <path id="Path_14816" data-name="Path 14816" d="M24.656,36.853s-3.342-2.043-3.714-.093-1.161,3.342.511,5.431l-1.114-.371-1.068-2.739L18.9,36.435,20.943,34.3l2.321.186,1.346,1.068.046,1.3" transform="translate(-10.123 -18.325)" fill="#f7e4cd"/>
  <path id="Path_14817" data-name="Path 14817" d="M34.691,13.123s1.485-7.8,9.145-9.331C50.1,2.539,53.4,4.071,54.652,5.51c0,0-5.617-6.638-10.909-4.642C38.4,2.911,34.505,6.624,34.6,9.038c.139,4.085.093,4.085.093,4.085" transform="translate(-18.533 -0.212)" fill="#f7e4cd"/>
  <path id="Path_14818" data-name="Path 14818" d="M76.046,13.2s-2.553-.093-2.646,2.228a1.576,1.576,0,0,0,.186.7s2.043-2.321,3.3-1.068" transform="translate(-39.323 -7.019)" fill="#f7e4cd"/>
  <path id="Path_14819" data-name="Path 14819" d="M49.038,17.551s-.464-3.528-3.435-1.485c-1.95,1.346-1.764,3.2-1.439,3.574.371.371.279,1.068.511.6.279-.511.186-2.089,1.161-2.553.928-.464,2.553-.975,3.2-.139" transform="translate(-23.549 -8.214)" fill="#f7e4cd"/>
  <path id="Path_14820" data-name="Path 14820" d="M23.88,68.86l-8.356,3.714S18.96,86.315,17.2,90.585l-1.253-.464-.093-5.246-2.321-9.934L12.6,72.249,21.281,66.4l2.6,2.46" transform="translate(-6.747 -35.524)" fill="#49728b"/>
  <path id="Path_14821" data-name="Path 14821" d="M38.271,88.1l1.207,1.439v5.338H38.086S37.9,91.164,37.9,90.7s.186-2.043.186-2.043" transform="translate(-20.303 -47.151)" fill="#49728b"/>
  <path id="Path_14822" data-name="Path 14822" d="M34.192,104.4l-3.992.186,1.161.789,2.832.464" transform="translate(-16.177 -55.884)" fill="#49728b"/>
  <path id="Path_14823" data-name="Path 14823" d="M68.2,102.393l3.3-.093.789,8.17-3.342.464-.743-8.541" transform="translate(-36.537 -54.759)" fill="#335061"/>
  <path id="Path_14824" data-name="Path 14824" d="M70.1,81.658l4.967-.279s2.043-5.153,2.043-5.431,1.764-7.474,1.764-7.474L74.881,64.3l-.789-.7-2.135,2.135V74L70.1,81.658" transform="translate(-37.555 -34.024)" fill="#335061"/>
  <path id="Path_14825" data-name="Path 14825" d="M71.31,101.1l-3.11.6.464,2.46c1.161.511,3.11-.882,3.11-.882" transform="translate(-36.537 -54.116)" fill="#49728b"/>
  <path id="Path_14826" data-name="Path 14826" d="M75.1,65.557,81.32,70.2l.186-2.135L76.818,63.7,75.1,65.557" transform="translate(-40.234 -34.077)" fill="#49728b"/>
  <path id="Path_14827" data-name="Path 14827" d="M42.025,119.847l-1.857-7.474-.928-5.524-.139-4.085,8.309-.464h5.153l-.464,9.331.882,7.242-.093,1.346-6.777.511-4.085-.882" transform="translate(-20.946 -54.759)" fill="#fff"/>
  <path id="Path_14828" data-name="Path 14828" d="M59.263,101.711s-.464,9.238.882,15.783a17.156,17.156,0,0,1-6.545,2.135l7.474-.279.882-.511-1.068-14.53-.279-3.11" transform="translate(-28.715 -54.169)" fill="#dcd9d8"/>
  <path id="Path_14829" data-name="Path 14829" d="M76.282,106.888l3.435-.975,6.545-.371.975-3.017-1.764-5.246L83.431,97l-2.785.928-2.692,1.346L76.514,99,75.4,99.46" transform="translate(-40.395 -51.919)" fill="#fff"/>
  <path id="Path_14830" data-name="Path 14830" d="M77.2,107.213a13.257,13.257,0,0,1,2.646-.975l-.975-4.874,1.161-.464s.789,4.642.789,5.153c0,0,4.967.279,5.431.279a7.984,7.984,0,0,0,.789-4.178l.975,2.832.093,1.578L86.67,108.7l-1.578.371-2.646-.093-.882-1.161-3.11.464-.975.371" transform="translate(-41.359 -54.009)" fill="#dcd9d8"/>
  <path id="Path_14831" data-name="Path 14831" d="M65.092,90.345l-1.95-4.967L61.1,82.453s.464-1.253,1.068-1.253H64.21l1.95.7-.186,3.3-.882,5.153" transform="translate(-32.733 -43.454)" fill="#fff"/>
  <path id="Path_14832" data-name="Path 14832" d="M65.3,88.513s-2.46-4.781-2.46-5.524c0,0,.464-1.068,1.068-.789s1.95.975,1.95.975V81.5l-3.017-.6-2.043.279L64.235,89.3l.7.093" transform="translate(-32.572 -43.293)" fill="#dcd9d8"/>
  <path id="Path_14833" data-name="Path 14833" d="M41.581,70.975l-2.46-.279L36.8,70v.789l1.114,1.253,3.574,1.578" transform="translate(-19.713 -37.453)" fill="#fff"/>
  <path id="Path_14834" data-name="Path 14834" d="M38.386,72.6s2.739,1.161,3.667.882l.093,1.068-2.46-.511L38.2,72.971l.186-.371" transform="translate(-20.464 -38.846)" fill="#dcd9d8"/>
  <path id="Path_14835" data-name="Path 14835" d="M72.21,76.286a17.309,17.309,0,0,1-4.039-.557c.093-.511-.093-.975.046-1.3a3.1,3.1,0,0,1,1.393-.279,2.866,2.866,0,0,0-1.532-.186,1.988,1.988,0,0,0-.279-.789c.836-.279,2.832-2.275,3.946-1.625.557.325.789,2.089.789,2.971a2.64,2.64,0,0,1-.325,1.764" transform="translate(-36.323 -38.214)" fill="#d33833"/>
  <path id="Path_14836" data-name="Path 14836" d="M72.21,76.286a17.309,17.309,0,0,1-4.039-.557c.093-.511-.093-.975.046-1.3a3.1,3.1,0,0,1,1.393-.279,2.866,2.866,0,0,0-1.532-.186,1.988,1.988,0,0,0-.279-.789c.836-.279,2.832-2.275,3.946-1.625.557.325.789,2.089.789,2.971a2.64,2.64,0,0,1-.325,1.764Z" transform="translate(-36.323 -38.214)" stroke="#d33833" stroke-width="0.816"/>
  <path id="Path_14837" data-name="Path 14837" d="M54.216,74.162v.325c-.464.279-1.207.279-1.764.557a5.184,5.184,0,0,1,1.857.464,5.618,5.618,0,0,1-.046.882c-.882.6-1.671,1.485-2.646,2.043a6.625,6.625,0,0,1-2.646.789c-.279-.093-.325-.418-.418-.789a12.635,12.635,0,0,1-.882-2.971c-.046-1.393-.186-3.667,1.3-3.389a13.228,13.228,0,0,1,3.528,1.3,3.688,3.688,0,0,0,1.718.789" transform="translate(-25.524 -38.551)" fill="#d33833"/>
  <path id="Path_14838" data-name="Path 14838" d="M54.216,74.162v.325c-.464.279-1.207.279-1.764.557a5.184,5.184,0,0,1,1.857.464,5.618,5.618,0,0,1-.046.882c-.882.6-1.671,1.485-2.646,2.043a6.625,6.625,0,0,1-2.646.789c-.279-.093-.325-.418-.418-.789a12.635,12.635,0,0,1-.882-2.971c-.046-1.393-.186-3.667,1.3-3.389a13.228,13.228,0,0,1,3.528,1.3,3.688,3.688,0,0,0,1.718.789Z" transform="translate(-25.524 -38.551)" stroke="#d33833" stroke-width="0.816"/>
  <path id="Path_14839" data-name="Path 14839" d="M63.322,77.9a5.277,5.277,0,0,1-.232-1.625c2.043-1.3,2.414,2.321.232,1.625" transform="translate(-33.794 -40.661)" fill="#d33833"/>
  <path id="Path_14840" data-name="Path 14840" d="M63.322,77.9a5.277,5.277,0,0,1-.232-1.625c2.043-1.3,2.414,2.321.232,1.625Z" transform="translate(-33.794 -40.661)" stroke="#d33833" stroke-width="0.816"/>
  <path id="Path_14841" data-name="Path 14841" d="M68.507,75.238s-.6-.882-.186-1.161c.464-.279.882,0,1.161-.464s0-.7.093-1.253.511-.6.975-.7,1.671-.279,1.857.186L71.9,70.271,70.828,69.9l-3.342,1.95-.186.975v1.95" transform="translate(-36.055 -37.399)" fill="#ef3d3a"/>
  <path id="Path_14842" data-name="Path 14842" d="M47.905,78.792c-.093-1.393-.232-2.785-.325-4.131-.186-2.089.511-1.718,2.275-1.718a4.918,4.918,0,0,1,1.764.511c.511.975-.789.789.557,1.532,1.161.6,3.2-.371,2.739-1.764-.232-.325-1.346-.093-1.718-.325-.7-.371-1.393-.7-2.089-1.068-.882-.464-2.925-1.114-3.853-.511-2.367,1.625.139,5.663.975,7.381" transform="translate(-24.784 -38.028)" fill="#ef3d3a"/>
  <path id="Path_14843" data-name="Path 14843" d="M49.368,18.366c-2.414-.557-3.621,1.021-4.364,2.646-.65-.139-.418-1.068-.232-1.485.418-1.207,2.182-2.785,3.621-2.553.6.046,1.393.6.975,1.393" transform="translate(-23.879 -9.029)" fill="#231f20"/>
  <path id="Path_14844" data-name="Path 14844" d="M78.324,25.9h.093a28.335,28.335,0,0,0,1.718,3.342c-.464,1.068-3.482,2.043-3.435.093.65-.279,1.764-.046,2.367-.418a6.864,6.864,0,0,1-.743-3.017" transform="translate(-41.091 -13.824)" fill="#231f20"/>
  <path id="Path_14845" data-name="Path 14845" d="M55.243,26a9.028,9.028,0,0,0,1.439,2.646c.325.325.975.7.65,1.625a2.269,2.269,0,0,1-.928.789c-1.161.325-3.853.093-2.925-1.393.975.046,2.228.6,2.971-.093-.6-.836-1.578-2.553-1.207-3.574" transform="translate(-28.548 -13.878)" fill="#231f20"/>
  <path id="Path_14846" data-name="Path 14846" d="M71.124,36.719c-1.718,1.114-3.667,2.321-6.5,2.043a1.892,1.892,0,0,1-.232-2.46c.279.511.093,1.485.975,1.671,1.625.279,3.482-.975,4.642-1.439.7-1.207-.046-1.671-.7-2.46C67.967,32.5,66.2,30.5,66.25,28.085c.557-.418.6.6.65.789a22.741,22.741,0,0,0,3.714,5.106c.325.325.836.7.882.882.139.65-.418,1.439-.371,1.857" transform="translate(-34.308 -14.942)" fill="#231f20"/>
  <path id="Path_14847" data-name="Path 14847" d="M26.089,40.739c-.557-.325-.7-1.671-1.3-1.718-.928-.046-.743,1.764-.743,2.832a3.43,3.43,0,0,1-.279-3.249c-.511-.279-.743.279-1.068.464.371-2.692,3.992-1.207,3.389,1.671" transform="translate(-12.159 -20.122)" fill="#231f20"/>
  <path id="Path_14848" data-name="Path 14848" d="M76.655,49.3c-.789,1.532-1.95,3.249-4.317,3.3a5.942,5.942,0,0,1,0-1.578c1.81-.186,2.925-1.114,4.317-1.718" transform="translate(-38.726 -26.362)" fill="#231f20"/>
  <path id="Path_14849" data-name="Path 14849" d="M57.2,51.4c1.485.789,4.271.882,6.36.836a8.495,8.495,0,0,1,.093,1.578c-2.646.093-5.756-.557-6.453-2.414" transform="translate(-30.644 -27.487)" fill="#231f20"/>
  <path id="Path_14850" data-name="Path 14850" d="M55.859,54.6c1.068,2.646,4.642,2.321,7.659,2.275a1.629,1.629,0,0,1-.789.882,7.707,7.707,0,0,1-5.013,0,7.1,7.1,0,0,1-1.857-2.089c-.186-.325-1.346-1.068,0-1.068" transform="translate(-29.581 -29.202)" fill="#231f20"/>
  <path id="Path_14851" data-name="Path 14851" d="M74.553,84.421A54.625,54.625,0,0,1,70.7,90.549a29.488,29.488,0,0,0,.975-7.1,2.217,2.217,0,0,1,2.878.975" transform="translate(-37.877 -44.539)" fill="#81b0c4"/>
  <path id="Path_14852" data-name="Path 14852" d="M88.967,102.1c-1.393.279-2.321,1.625-3.667,1.532a4.324,4.324,0,0,1,3.667-1.532" transform="translate(-45.699 -54.652)" fill="#231f20"/>
  <path id="Path_14853" data-name="Path 14853" d="M90.374,106.324a23.064,23.064,0,0,1-3.574.186c.557-.789,2.646-.511,3.574-.186" transform="translate(-46.503 -56.74)" fill="#231f20"/>
  <path id="Path_14854" data-name="Path 14854" d="M90.739,110.113c-1.253,0-2.832,0-4.039-.093.743-.789,3.2-.279,4.039.093" transform="translate(-46.449 -58.672)" fill="#231f20"/>
  <path id="Path_14855" data-name="Path 14855" d="M72.16,121.583c.186,1.578.789,3.157.743,4.921a5.136,5.136,0,0,1-2.043.418c-.046-1.485-.279-3.714-.186-5.153.464.093,1.114-.279,1.485-.186" transform="translate(-37.852 -65.082)" fill="#dcd9d8"/>
  <path id="Path_14856" data-name="Path 14856" d="M64.028,71.4c-.65.418-1.161.928-1.764,1.393a3.741,3.741,0,0,1-3.064-.882c0-.046.093-.046.093-.093,1.439.65,3.249-.279,4.735-.418" transform="translate(-31.715 -38.203)" fill="#f0d6b7"/>
  <path id="Path_14857" data-name="Path 14857" d="M53.3,88.474c.418-1.718,1.95-2.6,3.342-3.574a29.459,29.459,0,0,1,3.3,6.5A30.37,30.37,0,0,1,53.3,88.474" transform="translate(-28.554 -45.436)" fill="#81b0c4"/>
  <path id="Path_14858" data-name="Path 14858" d="M38.633,56.619c-.046,1.393.139,3.667.186,5.153a5.319,5.319,0,0,0,2.043-.418c.093-1.718-.557-3.342-.743-4.921-.371-.139-1.021.232-1.485.186ZM24.1,48.635A70.32,70.32,0,0,0,27.26,64.047a19.991,19.991,0,0,0,11.187.186c-.6-2.832-.325-6.267-.7-9.284-.279-2.275-.139-4.549-.511-6.87-3.853-.743-9.331-.139-13.137.557Zm14.112-.464c-.046,2.414.093,4.828.279,7.242.928-.139,1.578-.232,2.414-.418-.279-2.321-.232-4.967-.836-7.056a6.568,6.568,0,0,0-1.857.232Zm4.735-.418a6.976,6.976,0,0,0-1.393,0c.186,2,.7,4.131.836,6.22a5.636,5.636,0,0,0,1.578-.418,12.3,12.3,0,0,0-1.021-5.8ZM50.1,54.3a3.025,3.025,0,0,0,1.857-3.76,18.167,18.167,0,0,0-1.207-4.131c-.371-.557-1.346-1.3-2.182-.789-1.3.836-3.574,1.068-4.5,2.089a33.23,33.23,0,0,1,.789,5.71c1.625.093,3.574-.464,4.921.139A15.461,15.461,0,0,0,46.8,54.3a6.09,6.09,0,0,0,3.3,0ZM37.194,45.9a29.458,29.458,0,0,0-3.3-6.5c-1.393.928-2.971,1.857-3.342,3.574A35.551,35.551,0,0,0,37.194,45.9Zm2.414-7.1a30.164,30.164,0,0,1-.975,7.1,50.716,50.716,0,0,0,3.853-6.128,2.217,2.217,0,0,0-2.878-.975Zm-2.739-.975c-.557-.046-1.021.65-1.718.325-.186.186-.325.371-.511.557,1.578,1.9,2.321,4.642,3.528,6.87a30.261,30.261,0,0,0,.743-6.87c-.882.093-1.393-.789-2.043-.882ZM35.152,35.5a5.277,5.277,0,0,0,.232,1.625c2.135.7,1.764-2.925-.232-1.625Zm-2.414-.789a13.228,13.228,0,0,0-3.528-1.3c-1.485-.279-1.346,2.043-1.3,3.389a10.187,10.187,0,0,0,.882,2.971c.093.325.139.7.418.789a7.887,7.887,0,0,0,2.646-.789A24.805,24.805,0,0,0,34.5,37.726a5.618,5.618,0,0,1,.046-.882,4.373,4.373,0,0,0-1.857-.464c.511-.279,1.3-.279,1.764-.557V35.5a4.18,4.18,0,0,1-1.718-.789Zm-8.82-1.578c-.789.789,2.182,1.857,3.064,1.9,0-.511.279-.975.232-1.3-1.114-.186-2.553-.093-3.3-.6Zm9.47.371c0,.093-.093.046-.093.093a3.908,3.908,0,0,0,3.064.882c.6-.418,1.161-.975,1.764-1.393-1.485.139-3.3,1.068-4.735.418Zm8.681,2.6c-.046-.882-.279-2.646-.789-2.971-1.114-.65-3.11,1.346-3.946,1.625a3.95,3.95,0,0,1,.279.789,2.16,2.16,0,0,1,1.532.186,3.1,3.1,0,0,0-1.393.279c-.093.371.046.836-.046,1.3a17.671,17.671,0,0,0,4.039.557,2.98,2.98,0,0,0,.325-1.764Zm-19.45-2.228c-.232-.186-1.857-2.275-2.089-2.182a33.1,33.1,0,0,0-8.17,5.106c2.367,5.06,3.3,11.234,3.482,17.176,2.692,1.253,5.06,3.064,8.727,3.249-.418-2.971-.789-5.663-1.068-8.5-.928-.418-2.228,0-3.11-.093,0-1.021,1.3-.464,1.439-1.161.093-.511-.743-.557-.464-1.393.7.232,1.021.789,1.764.975.65-1.439,0-3.946.093-5.153,0-.232.093-1.253.6-1.068.464.139,0,2.739,0,3.853.046,1.068-.139,2.043.279,2.692A91.041,91.041,0,0,1,35.059,46.5a28.847,28.847,0,0,1-2.925-1.3c-.6-.325-2.46-1.021-2.646-1.578-.279-.882.7-1.393.882-2.135-1.764.975-2.135-.928-2.553-2.275a18.712,18.712,0,0,1-.7-2.832,37.771,37.771,0,0,1-4.5-2.507Zm17.872-1.95c2.46-1.207,2.925,4.456,1.95,6.267.139.557.65.743.882,1.253-1.393,2.46-2.878,4.735-4.317,7.2,1.021-.65,2.553-.093,3.76-.6.464-.186.789-1.207,1.114-2.043a48.66,48.66,0,0,0,2.367-7.242,7.932,7.932,0,0,0,.279-2c-.093-.789-1.161-1.393-1.718-1.857-.975-.882-1.625-1.671-2.646-2.507-.418.6-1.3,1.021-1.671,1.532ZM17,10.106c-1.161,1.3-.928,3.714-.789,5.431,2.135-1.346,4.921.139,4.921,2.367,1.021,0,.371-1.253.186-2.089-.6-2.6,1.021-5.431.093-7.8A6.328,6.328,0,0,0,17,10.106Zm8.356-7.474c-2.646.743-6.035,2.692-7.149,5.06a20.587,20.587,0,0,1,2.275-.6,4.122,4.122,0,0,0,1.068.046c.7-.186,1.346-1.81,1.857-2.414s1.161-.836,1.578-1.393c.371-.093.789-.093.789-.511a.375.375,0,0,0-.418-.186Zm13.833.7C36.405,1.75,31.763.589,28.838,2.075,26.471,3.282,23.268,5.231,22.2,7.692c1.021,2.367-.279,4.549-.418,7.01-.046,1.3.6,2.414.65,3.807-.371.6-1.393.65-2.135.6-.232-1.253-.7-2.646-1.95-2.785a2.947,2.947,0,0,0-3.2,2.878c-.093,1.857,1.393,4.874,3.574,4.689.836-.093,1.021-.882,1.95-.882.511.975-.743,1.3-.882,2a4.249,4.249,0,0,0,.186,1.207,18.71,18.71,0,0,0,2.089,4.921c1.068,1.578,3.2,1.764,5.524,1.95.418-.882,1.9-.789,2.878-.6a8.873,8.873,0,0,1-3.157-2.6c-1.021-1.161-2.089-2.367-2.135-3.853,2,2.739,3.574,5.106,7.149,6.313,2.692.882,5.849-.418,7.938-1.857a8.613,8.613,0,0,0,2-2.46c2.275-3.3,3.342-7.984,3.157-12.58-.093-1.857-.093-3.76-.743-5.013-.65-1.3-2.878-2.507-4.224-1.3-.279-1.439,1.068-2.228,2.6-1.764A13.914,13.914,0,0,0,39.19,3.328ZM44.343,45.8c2.182-1.068,6.174-2.878,7.52,0a26.411,26.411,0,0,1,1.346,3.946c.371,1.532-.418,4.828-2,5.338a9.543,9.543,0,0,1-4.735.093,5.209,5.209,0,0,1-.6-.743,6.354,6.354,0,0,0-3.3.557c.093.882-.511,1.021-1.068,1.207-.418,1.671.836,3.853.557,5.338-.186,1.068-1.532,1.253-2.507,1.439a9.013,9.013,0,0,0,.093,1.625A2.362,2.362,0,0,1,37.473,66c-3.157.371-7.892.557-10.909-.557-.836-2.089-1.485-4.549-2.182-6.917-2.925.325-5.338-1.253-7.567-2.321-.789-.371-1.857-.557-2.135-1.207a9.908,9.908,0,0,1-.232-2.832A42.437,42.437,0,0,0,13.38,43.9c-.325-1.3-.882-2.367-1.3-3.621a28.2,28.2,0,0,1-1.207-3.667c-.232-1.671,1.346-1.764,2.321-2.507,1.578-1.114,2.785-1.764,4.456-2.785a10.424,10.424,0,0,0,2.182-1.393c.325-.7-.6-1.671-.836-2.228a6.074,6.074,0,0,1-.65-2.46,4.891,4.891,0,0,1-3.157-2,7.74,7.74,0,0,1-.882-6.685,5.826,5.826,0,0,0,.511-.789A8.012,8.012,0,0,0,14.587,14c-.093-2.878.511-5.338,2.414-6.22.789-3.157,3.621-4.178,6.267-5.71a18.047,18.047,0,0,1,3.2-1.393C30.556-.664,36.776-.386,40.165,2.168a17.236,17.236,0,0,1,4.5,5.013c2.182,4.364,2,11.605.511,16.9a19.133,19.133,0,0,1-.882,2.6c-.279.6-1.161,1.764-1.068,2.321s2.043,2,2.46,2.367c.743.7,2.135,1.671,2.275,2.553a8.643,8.643,0,0,1-.7,3.2c-.975,3.11-1.9,5.942-2.925,8.681Z" transform="translate(-5.81 0.113)" fill="#231f20"/>
  <path id="Path_14859" data-name="Path 14859" d="M51.93,52.557c.093-.139.743-.418,1.671.046,0,0-1.068.186-.975,1.95l-.464-.093c.046.046-.464-1.578-.232-1.9" transform="translate(-27.787 -27.994)" fill="#f7e4cd"/>
  <path id="Path_14860" data-name="Path 14860" d="M67.621,85.111a.511.511,0,1,1-.511-.511.589.589,0,0,1,.511.511" transform="translate(-35.68 -45.275)" fill="#1d1919"/>
  <path id="Path_14861" data-name="Path 14861" d="M68.621,90.011a.511.511,0,1,1-.511-.511c.325.046.511.232.511.511" transform="translate(-36.216 -47.901)" fill="#1d1919"/>
  <g id="Group_2533" data-name="Group 2533" transform="translate(0 69.606)">
    <path id="Path_14862" data-name="Path 14862" d="M5.824-215.136c-.139,0-.279.046-.418.046a1.435,1.435,0,0,0-.371.093c-.186.046-.279.093-.279.232a.874.874,0,0,0-.093.371v4.6a2.517,2.517,0,0,1-.279,1.161,2.671,2.671,0,0,1-.7.882,2.647,2.647,0,0,1-1.021.511,5.047,5.047,0,0,1-1.207.186A2.944,2.944,0,0,1-.3-207.569a1.739,1.739,0,0,1-.7-1.439,1.338,1.338,0,0,1,.279-.882,1.087,1.087,0,0,1,.836-.371,1.092,1.092,0,0,1,.789.279,1.054,1.054,0,0,1,.279.743,1.024,1.024,0,0,1-.279.7,7.4,7.4,0,0,1-.6.6v.093a.327.327,0,0,0,.232.186,1.093,1.093,0,0,0,.371.093,1.412,1.412,0,0,0,1.114-.511,2.323,2.323,0,0,0,.418-1.532V-214.3a.905.905,0,0,0-.046-.371.459.459,0,0,0-.325-.232,4.386,4.386,0,0,0-.418-.139c-.186-.046-.279-.046-.418-.093v-.464H5.685v.464h.139Z" transform="translate(1 216.389)" fill="#231f20"/>
    <path id="Path_14863" data-name="Path 14863" d="M21.574-205.9a3.124,3.124,0,0,1-.511.65,3.505,3.505,0,0,1-.65.511,2.842,2.842,0,0,1-.789.325,5.715,5.715,0,0,1-.928.093,4.534,4.534,0,0,1-1.485-.232,2.765,2.765,0,0,1-1.021-.65,2.651,2.651,0,0,1-.6-.975,3.461,3.461,0,0,1-.186-1.207,3.232,3.232,0,0,1,.232-1.161,3.451,3.451,0,0,1,.6-.975,3.306,3.306,0,0,1,1.021-.7A3.33,3.33,0,0,1,18.6-210.5a5.221,5.221,0,0,1,1.346.186,2.4,2.4,0,0,1,.882.557,2.874,2.874,0,0,1,.511.789,3.086,3.086,0,0,1,.139.975v.371H17.535a2.9,2.9,0,0,0,.464,1.81,1.66,1.66,0,0,0,1.485.6,1.716,1.716,0,0,0,.975-.279,2.43,2.43,0,0,0,.743-.789l.371.371Zm-2.228-2.275a3.513,3.513,0,0,0-.046-.7,1.161,1.161,0,0,0-.139-.6.944.944,0,0,0-.279-.418.648.648,0,0,0-.418-.139.735.735,0,0,0-.7.464,2.8,2.8,0,0,0-.279,1.439l1.857-.046Z" transform="translate(-7.787 213.657)" fill="#231f20"/>
    <path id="Path_14864" data-name="Path 14864" d="M37.445-204.458H33.917v-.418a.589.589,0,0,0,.279-.046,2.011,2.011,0,0,0,.232-.046.362.362,0,0,0,.186-.186.8.8,0,0,0,.046-.371v-2.739a1.435,1.435,0,0,0-.232-.882.779.779,0,0,0-.65-.279.69.69,0,0,0-.418.093,1.649,1.649,0,0,0-.418.186c-.093.093-.186.139-.279.232a.815.815,0,0,0-.186.232v3.157a.688.688,0,0,0,.046.325c.046.093.093.186.186.186a.355.355,0,0,0,.232.093c.093,0,.186.046.279.046v.418H29.646v-.418a.589.589,0,0,0,.279-.046c.093,0,.186-.046.279-.046a.592.592,0,0,0,.279-.186.719.719,0,0,0,.093-.371v-3.435a1.435,1.435,0,0,0-.093-.371,1.231,1.231,0,0,0-.232-.279.5.5,0,0,0-.279-.093.905.905,0,0,0-.371-.046v-.418l2.785-.139.093.093v.836h0c.093-.093.232-.186.418-.371a2.55,2.55,0,0,1,.418-.325,1.55,1.55,0,0,1,.557-.232,2.044,2.044,0,0,1,.743-.093,1.788,1.788,0,0,1,1.439.557,2.068,2.068,0,0,1,.464,1.439v2.878c0,.139,0,.279.046.325a.463.463,0,0,0,.232.186.784.784,0,0,1,.232.093c.093,0,.186.046.325.046l.093.418Z" transform="translate(-15.395 213.603)" fill="#231f20"/>
    <path id="Path_14865" data-name="Path 14865" d="M54.945-208.1H52.16c-.325-.6-.65-1.114-.928-1.532s-.557-.789-.789-1.161l-.325.279v1.3c0,.139,0,.279.046.325a.327.327,0,0,0,.232.186c.093.046.139.046.232.093.093,0,.186.046.279.046v.418H47.239v-.418a.589.589,0,0,0,.279-.046c.093,0,.186-.046.279-.046a.592.592,0,0,0,.279-.186.719.719,0,0,0,.093-.371v-6.545a1.355,1.355,0,0,0-.093-.418.832.832,0,0,0-.232-.325.671.671,0,0,0-.325-.093,1.285,1.285,0,0,0-.418-.046v-.418l2.925-.139.093.093v6.035c.279-.279.6-.557.975-.882s.65-.6.882-.836c.139-.139.186-.232.186-.279v-.139c0-.093-.046-.139-.186-.186a3.159,3.159,0,0,0-.557-.139v-.418h2.971v.418a3.962,3.962,0,0,0-.882.279c-.186.093-.418.232-.7.371a4.015,4.015,0,0,0-.464.325c-.139.093-.325.279-.511.418.371.557.743,1.068,1.068,1.532s.65.975,1.021,1.485a.927.927,0,0,0,.464.371,2.329,2.329,0,0,0,.557.093v.464h0Z" transform="translate(-24.771 217.246)" fill="#231f20"/>
    <path id="Path_14866" data-name="Path 14866" d="M67.5-208.155H63.786v-.418a.589.589,0,0,0,.279-.046.5.5,0,0,1,.232-.046.592.592,0,0,0,.279-.186.719.719,0,0,0,.093-.371v-3.435a.875.875,0,0,0-.093-.371.56.56,0,0,0-.232-.232,2.262,2.262,0,0,0-.325-.139,1.356,1.356,0,0,0-.418-.093v-.418l2.878-.139.093.093v4.642a1.093,1.093,0,0,0,.093.371.308.308,0,0,0,.232.186.66.66,0,0,0,.279.093c.093,0,.186.046.279.046l.046.464Zm-.836-8.031a.924.924,0,0,1-.325.743,1.317,1.317,0,0,1-.789.325,1.119,1.119,0,0,1-.836-.325.924.924,0,0,1-.325-.743,1.087,1.087,0,0,1,.325-.789,1.335,1.335,0,0,1,.836-.325.956.956,0,0,1,.789.325,1.087,1.087,0,0,1,.325.789Z" transform="translate(-33.612 217.3)" fill="#231f20"/>
    <path id="Path_14867" data-name="Path 14867" d="M80.845-204.458H77.317v-.418a.589.589,0,0,0,.279-.046,2.011,2.011,0,0,0,.232-.046.362.362,0,0,0,.186-.186.8.8,0,0,0,.046-.371v-2.739a1.434,1.434,0,0,0-.232-.882.779.779,0,0,0-.65-.279.69.69,0,0,0-.418.093,1.648,1.648,0,0,0-.418.186c-.093.093-.186.139-.279.232a.815.815,0,0,0-.186.232v3.157a.688.688,0,0,0,.046.325c.046.093.093.186.186.186a.355.355,0,0,0,.232.093c.093,0,.186.046.279.046v.418H73.046v-.418a.589.589,0,0,0,.279-.046c.093,0,.186-.046.279-.046a.592.592,0,0,0,.279-.186.719.719,0,0,0,.093-.371v-3.435a1.435,1.435,0,0,0-.093-.371,1.231,1.231,0,0,0-.232-.279.5.5,0,0,0-.279-.093A.905.905,0,0,0,73-209.75v-.418l2.785-.139.093.093v.836h0c.093-.093.232-.186.418-.371a2.549,2.549,0,0,1,.418-.325,1.549,1.549,0,0,1,.557-.232,2.044,2.044,0,0,1,.743-.093,1.788,1.788,0,0,1,1.439.557,2.068,2.068,0,0,1,.464,1.439v2.878c0,.139,0,.279.046.325a.463.463,0,0,0,.232.186.785.785,0,0,1,.232.093c.093,0,.186.046.325.046l.093.418Z" transform="translate(-38.648 213.603)" fill="#231f20"/>
    <path id="Path_14868" data-name="Path 14868" d="M93.792-204.326a3.121,3.121,0,0,1-1.114-.186,2.352,2.352,0,0,1-.836-.371l-.186.418h-.464l-.093-2.182h.418a2.265,2.265,0,0,0,.279.6,2.98,2.98,0,0,0,.464.6,3.3,3.3,0,0,0,.65.464,2.185,2.185,0,0,0,.743.186,1.638,1.638,0,0,0,.789-.186.779.779,0,0,0,.279-.65,1.355,1.355,0,0,0-.093-.418,2.019,2.019,0,0,0-.325-.279,1.663,1.663,0,0,0-.511-.186c-.186-.046-.418-.093-.7-.186a6.07,6.07,0,0,1-.7-.232,2.126,2.126,0,0,1-.6-.371,1.267,1.267,0,0,1-.418-.557,1.85,1.85,0,0,1-.139-.789,1.631,1.631,0,0,1,.7-1.346,3.1,3.1,0,0,1,1.81-.511,5.8,5.8,0,0,1,.975.093,7.241,7.241,0,0,1,.743.232l.139-.325h.464l.093,2h-.418a2.664,2.664,0,0,0-.7-1.068,1.7,1.7,0,0,0-1.068-.464,1.038,1.038,0,0,0-.7.186.582.582,0,0,0-.279.511.741.741,0,0,0,.371.65,3.506,3.506,0,0,0,1.068.371,3.369,3.369,0,0,1,1.532.743,1.609,1.609,0,0,1,.511,1.207,1.639,1.639,0,0,1-.743,1.485,3.137,3.137,0,0,1-1.95.557Z" transform="translate(-48.346 213.657)" fill="#231f20"/>
  </g>
</svg>
