<svg id="google-cloud-seeklogo.com" xmlns="http://www.w3.org/2000/svg" width="45.103" height="36.243" viewBox="0 0 45.103 36.243">
  <path id="Path_22093" data-name="Path 22093" d="M55.3,10.007,59.21,6.088l.261-1.65A17.658,17.658,0,0,0,34.54,5.974a18.118,18.118,0,0,0-3.823,7.16l1.4-.2,7.84-1.3.6-.619A9.82,9.82,0,0,1,53.974,9.935Z" transform="translate(-25.301 -0.007)" fill="#ea4335"/>
  <path id="Path_22094" data-name="Path 22094" d="M140,33.778a17.657,17.657,0,0,0-5.322-8.582l-5.5,5.5a9.778,9.778,0,0,1,3.59,7.756v.972a4.868,4.868,0,1,1,0,9.737h-9.806L122,50.208v5.879l.962.921h9.806A12.7,12.7,0,0,0,140,33.78" transform="translate(-100.503 -20.766)" fill="#4285f4"/>
  <path id="Path_22095" data-name="Path 22095" d="M35.911,167.071H45.7v-7.838H35.911a4.8,4.8,0,0,1-2.008-.44l-1.389.427-3.947,3.919-.343,1.334a12.707,12.707,0,0,0,7.688,2.6" transform="translate(-23.246 -130.83)" fill="#34a853"/>
  <path id="Path_22096" data-name="Path 22096" d="M12.66,61.425a12.735,12.735,0,0,0-7.692,22.83l5.681-5.68a4.9,4.9,0,1,1,6.48-6.48l5.681-5.68a12.722,12.722,0,0,0-10.152-4.993" transform="translate(0.005 -50.614)" fill="#fbbc05"/>
</svg>
