<svg id="archi-mgmt-icon1" xmlns="http://www.w3.org/2000/svg" width="154.716" height="44.273" viewBox="0 0 154.716 44.273">
  <text id="Kubernetes" transform="translate(51.716 28.284)" fill="#326de6" font-size="20" font-family="Lato-Bold, Lato" font-weight="700"><tspan x="0" y="0">Kubernetes</tspan></text>
  <g id="kubernetes-seeklogo.com" transform="translate(0 0)">
    <path id="Path_22497" data-name="Path 22497" d="M18.352,46.724A3.468,3.468,0,0,1,15.618,45.4L5.329,32.6a3.451,3.451,0,0,1-.677-3L8.327,13.646a3.477,3.477,0,0,1,1.911-2.377L25.113,4.151a3.5,3.5,0,0,1,3.058,0l14.875,7.085a3.477,3.477,0,0,1,1.911,2.377l3.674,15.963a3.546,3.546,0,0,1-.677,3L37.666,45.363a3.558,3.558,0,0,1-2.733,1.323Z" transform="translate(-3.834 -3.152)" fill="#326de6"/>
    <path id="Path_22498" data-name="Path 22498" d="M23.309,1.546a2.876,2.876,0,0,1,1.205.264L39.39,8.9a2.855,2.855,0,0,1,1.528,1.911l3.674,15.963a2.749,2.749,0,0,1-.559,2.41L33.744,41.969a2.8,2.8,0,0,1-2.2,1.058H15.04a2.8,2.8,0,0,1-2.2-1.058L2.554,29.181A2.943,2.943,0,0,1,2,26.771L5.67,10.808A2.808,2.808,0,0,1,7.2,8.9L22.075,1.783a3.542,3.542,0,0,1,1.235-.235Zm0-1.381h0a4.448,4.448,0,0,0-1.818.411L6.611,7.691a4.164,4.164,0,0,0-2.293,2.852L.643,26.5a4.168,4.168,0,0,0,.824,3.593L11.756,42.881a4.153,4.153,0,0,0,3.263,1.558h16.5a4.153,4.153,0,0,0,3.263-1.558L45.071,30.093a4.147,4.147,0,0,0,.817-3.593L42.213,10.542A4.164,4.164,0,0,0,39.92,7.69L25.1.577A4.214,4.214,0,0,0,23.309.165Z" transform="translate(-0.531 -0.165)" fill="#fff"/>
    <path id="Path_22499" data-name="Path 22499" d="M71.514,56.868h-.029c-.029,0-.059,0-.059-.029-.059,0-.117-.029-.176-.029a4.018,4.018,0,0,0-.559-.059,1.1,1.1,0,0,1-.294-.029h-.029a7.758,7.758,0,0,1-1.587-.264.573.573,0,0,1-.323-.323c0-.029-.029-.029-.029-.059h0l-.382-.117a11.628,11.628,0,0,0-.206-4.146A12.114,12.114,0,0,0,66.2,47.962l.294-.264v-.059a.664.664,0,0,1,.147-.44,8.575,8.575,0,0,1,1.323-.912h0c.088-.059.176-.088.264-.147a4.424,4.424,0,0,0,.5-.294c.029-.029.088-.059.147-.117.029-.029.059-.029.059-.059h0a.979.979,0,0,0,.206-1.323.839.839,0,0,0-.677-.323,1.092,1.092,0,0,0-.647.235h0l-.059.059c-.059.029-.088.088-.147.117a4.885,4.885,0,0,0-.382.411,1.358,1.358,0,0,1-.206.206h0a7.474,7.474,0,0,1-1.176,1.058.474.474,0,0,1-.264.088.373.373,0,0,1-.176-.029h-.059l-.352.235a14.274,14.274,0,0,0-1.205-1.119,11.745,11.745,0,0,0-6.144-2.44l-.029-.382-.059-.059a.614.614,0,0,1-.235-.382,10.315,10.315,0,0,1,.088-1.587V40.4a1.045,1.045,0,0,1,.059-.294c.029-.176.059-.352.088-.559v-.264h0a.9.9,0,0,0-1.558-.677.931.931,0,0,0-.264.677h0v.235a1.712,1.712,0,0,0,.088.559c.029.088.029.176.059.294V40.4a7.591,7.591,0,0,1,.088,1.587.614.614,0,0,1-.235.382l-.059.059h0l-.029.382a14.77,14.77,0,0,0-1.587.235,11.334,11.334,0,0,0-5.821,3.293l-.294-.206h-.059c-.059,0-.117.029-.176.029a.474.474,0,0,1-.264-.088,7.8,7.8,0,0,1-1.176-1.088h0a1.358,1.358,0,0,0-.206-.206,4.882,4.882,0,0,0-.382-.411c-.029-.029-.088-.059-.147-.117-.029-.029-.059-.029-.059-.059h0a1.028,1.028,0,0,0-.647-.235.839.839,0,0,0-.677.323.979.979,0,0,0,.206,1.323h0c.029,0,.029.029.059.029.059.029.088.088.147.117a4.425,4.425,0,0,0,.5.294,1.191,1.191,0,0,1,.264.147h0a8.577,8.577,0,0,1,1.323.912.54.54,0,0,1,.147.44v.059h0l.294.264a1.032,1.032,0,0,0-.147.235,11.45,11.45,0,0,0-1.646,7.761l-.382.117c0,.029-.029.029-.029.059a.684.684,0,0,1-.323.323,7.425,7.425,0,0,1-1.587.264h-.034a1,1,0,0,0-.294.029,4.017,4.017,0,0,0-.559.059c-.059,0-.117.029-.176.029a.108.108,0,0,0-.088.029h0a.965.965,0,0,0-.765,1.088.906.906,0,0,0,.941.677.647.647,0,0,0,.235-.029h0c.029,0,.059,0,.059-.029.059,0,.117-.029.176-.029A2.828,2.828,0,0,0,43,58.247c.088-.029.176-.088.264-.117h.029a7.222,7.222,0,0,1,1.528-.44h.059a.654.654,0,0,1,.382.147c.029,0,.029.029.059.029h0l.411-.059a11.627,11.627,0,0,0,3.851,5.527,11.9,11.9,0,0,0,1.258.853l-.176.382c0,.029.029.029.029.059a.6.6,0,0,1,.059.47,8.288,8.288,0,0,1-.765,1.381v.029c-.059.088-.117.147-.176.235-.117.147-.206.294-.323.47a.642.642,0,0,0-.088.147.1.1,0,0,1-.029.059h0a.93.93,0,0,0,.382,1.258.783.783,0,0,0,.352.088,1.057,1.057,0,0,0,.882-.559h0a.1.1,0,0,1,.029-.059A.643.643,0,0,1,51.1,68a5.566,5.566,0,0,0,.176-.529l.088-.264h0a6.908,6.908,0,0,1,.618-1.469.755.755,0,0,1,.382-.264c.029,0,.029,0,.059-.029h0l.206-.382a11.486,11.486,0,0,0,4.126.776,10.672,10.672,0,0,0,2.557-.294,13.066,13.066,0,0,0,1.528-.44l.176.323c.029,0,.029,0,.059.029a.545.545,0,0,1,.382.264,10.067,10.067,0,0,1,.618,1.469v.029l.088.264a3.72,3.72,0,0,0,.176.529c.029.059.059.088.088.147a.1.1,0,0,0,.029.059h0a1,1,0,0,0,.882.559.783.783,0,0,0,.352-.088.875.875,0,0,0,.44-.529,1.064,1.064,0,0,0-.059-.735h0c0-.029-.029-.029-.029-.059a.642.642,0,0,0-.088-.147,2.656,2.656,0,0,0-.323-.47c-.059-.088-.117-.147-.176-.235v-.034a6.6,6.6,0,0,1-.765-1.381.819.819,0,0,1,.029-.47c0-.029.029-.029.029-.059h0l-.147-.352a11.664,11.664,0,0,0,5.116-6.432l.352.059c.029,0,.029-.029.059-.029a.747.747,0,0,1,.382-.147h.059a7.222,7.222,0,0,1,1.528.44h.029c.088.029.176.088.264.117a2.828,2.828,0,0,0,.529.206c.059,0,.117.029.176.029a.108.108,0,0,1,.088.029h0a.647.647,0,0,0,.235.029.99.99,0,0,0,.941-.677,1.131,1.131,0,0,0-.853-.97ZM57.9,55.428l-1.291.622-1.293-.618-.323-1.381.882-1.119h1.44l.882,1.119L57.9,55.432Zm7.673-3.058a9.27,9.27,0,0,1,.206,2.97l-4.5-1.293a.8.8,0,0,1-.559-.941.7.7,0,0,1,.176-.323l3.557-3.2a9.419,9.419,0,0,1,1.119,2.8Zm-2.528-4.557-3.851,2.733a.783.783,0,0,1-1.029-.176.653.653,0,0,1-.147-.323l-.259-4.792a8.923,8.923,0,0,1,5.292,2.557ZM54.516,45.4c.323-.059.618-.117.941-.176l-.264,4.7a.8.8,0,0,1-.794.765.7.7,0,0,1-.352-.088l-3.915-2.8a8.968,8.968,0,0,1,4.381-2.41ZM48.73,49.577l3.5,3.117a.783.783,0,0,1,.088,1.088.586.586,0,0,1-.352.235L47.4,55.339a9.464,9.464,0,0,1,1.323-5.762Zm-.794,7.97,4.674-.794a.793.793,0,0,1,.824.618.839.839,0,0,1-.029.47h0l-1.8,4.319a9.266,9.266,0,0,1-3.674-4.614Zm10.73,5.85a9.6,9.6,0,0,1-2.058.235,9.961,9.961,0,0,1-2.97-.47l2.322-4.2a.772.772,0,0,1,.941-.206,1.258,1.258,0,0,1,.352.323h0l2.264,4.087c-.264.088-.559.147-.853.235ZM64.4,59.31a9.33,9.33,0,0,1-2.822,2.852l-1.853-4.439a.791.791,0,0,1,.411-.912.94.94,0,0,1,.411-.088l4.7.794a5.916,5.916,0,0,1-.853,1.794Z" transform="translate(-33.831 -31.526)" fill="#fff"/>
  </g>
</svg>
