<svg id="Group_105378" data-name="Group 105378" xmlns="http://www.w3.org/2000/svg" xmlns:xlink="http://www.w3.org/1999/xlink" width="41.722" height="41.758" viewBox="0 0 41.722 41.758">
  <defs>
    <clipPath id="clip-path">
      <rect id="Rectangle_44698" data-name="Rectangle 44698" width="41.722" height="41.758" fill="none"/>
    </clipPath>
  </defs>
  <g id="Group_105377" data-name="Group 105377" clip-path="url(#clip-path)">
    <path id="Path_74417" data-name="Path 74417" d="M.74,26.517c-.106-1.006-.51-1.945-.6-2.963a27.384,27.384,0,0,1-.044-4.968A20.3,20.3,0,0,1,1.95,12.038c.427-.938.967-1.825,1.456-2.735.893-1,1.625-2.119,2.576-3.074A20.719,20.719,0,0,1,26.358.772a23.268,23.268,0,0,1,7.2,3.454,21.092,21.092,0,0,1,2.307,2.163c-.854,1-2.093,1.5-3.06,2.356-.359-.64-.407-1.4-.825-2.023a1.507,1.507,0,0,0-2.028-.649,4.13,4.13,0,0,0-1.16.616,36.294,36.294,0,0,0-4.449,3.854c-2.254,2.542-4.911,4.705-6.983,7.42-.129.169-.266.47-.587.3a13.557,13.557,0,0,1,1.516-2.731A102.956,102.956,0,0,0,24.036,6.7c.241-.428.517-.879.15-1.35a1.117,1.117,0,0,0-1.4-.217,11.1,11.1,0,0,0-3.642,2.393,22.8,22.8,0,0,0-4.42,5.9,12.776,12.776,0,0,0-1.9,5.83c-1.051-.027-1.123-.176-1.423-1.306-.634-2.389-1.019-4.833-1.641-7.224-.127-.487-.172-1-.265-1.492-.029-.155-.073-.36-.288-.309s-.148.27-.125.41c.2,1.219.414,2.435.615,3.653q.319,1.932.618,3.868a.4.4,0,0,1-.134.424c-.458-1.032-.919-2.04-1.353-3.059-.557-1.307-1.094-2.622-1.632-3.937-.094-.229-.264-.392-.467-.263s-.011.37.051.537c.923,2.52,1.85,5.04,2.8,7.55.184.488.095.724-.377,1a2.936,2.936,0,0,0-1.691,2.989,18.179,18.179,0,0,1,.011,2.22c-.008.41.165.6.573.592.278-.006.556-.011.833.006a.8.8,0,0,0,.91-.644c.3-.868.354-.77,1.151-.358,1.582.817,2.108,2.268,2.56,3.8-2.388,1.969-5.034,3.578-7.531,5.394a3.628,3.628,0,0,1-1.381.768,18.194,18.194,0,0,1-2.972-4.892A15.064,15.064,0,0,1,.823,26.8L.74,26.517" transform="translate(0 0)" fill="#46b35d"/>
    <path id="Path_74418" data-name="Path 74418" d="M161.94,48.339c.967-.854,2.206-1.355,3.06-2.356a17.626,17.626,0,0,1,3.7,5.213c.3.621.575,1.252.9,1.859.251.91.559,1.809.742,2.733a20.643,20.643,0,0,1,.144,8.35c-.145.692-.278,1.4-.366,2.106L170,66.52a22.023,22.023,0,0,1-1.943,4.4c-.5.8-1.03,1.581-1.547,2.37l.005.013a3.135,3.135,0,0,0-.708.848,39.273,39.273,0,0,1-2.883,2.7.914.914,0,0,1-1.277.076c-2.306-1.582-4.641-3.122-6.963-4.68-.129-.087-.35-.133-.336-.312.017-.228.27-.2.43-.273.356-.158.72-.3,1.066-.482.373-.193.343-.383-.034-.555-.649-.3-1.275-.651-1.944-.891a4,4,0,0,1-1.655-1.2c-.752-.848-1.5-1.7-2.244-2.553a3.687,3.687,0,0,1,.823.028,7.767,7.767,0,0,0,5.211-.7c2.778-1.646,4.265-4.315,5.367-7.2.921-2.415.782-4.993.85-7.529a19.8,19.8,0,0,0-.279-2.254" transform="translate(-129.13 -39.594)" fill="#41b33f"/>
    <path id="Path_74419" data-name="Path 74419" d="M112.281,39.649a19.8,19.8,0,0,1,.279,2.254c-.068,2.536.071,5.114-.85,7.529-1.1,2.887-2.588,5.555-5.367,7.2a7.767,7.767,0,0,1-5.211.7,3.687,3.687,0,0,0-.823-.028c-1.023-1.08-2.036-2.169-3.072-3.236a35.055,35.055,0,0,0-2.666-2.625,6.784,6.784,0,0,0-2.275-1.285,12.771,12.771,0,0,1,1.9-5.83,22.8,22.8,0,0,1,4.42-5.9,11.1,11.1,0,0,1,3.642-2.393,1.117,1.117,0,0,1,1.4.217c.367.471.091.922-.15,1.35a102.958,102.958,0,0,1-5.743,8.836,13.549,13.549,0,0,0-1.516,2.731c.321.168.458-.133.587-.3,2.072-2.715,4.729-4.878,6.983-7.42a36.294,36.294,0,0,1,4.449-3.854,4.133,4.133,0,0,1,1.16-.616,1.507,1.507,0,0,1,2.028.649c.418.62.467,1.383.825,2.023" transform="translate(-79.471 -30.904)" fill="#d6f8d7"/>
    <path id="Path_74420" data-name="Path 74420" d="M33.359,197.634a3.63,3.63,0,0,0,1.381-.768c2.5-1.817,5.143-3.426,7.531-5.394a12.189,12.189,0,0,0,.663,1.734c.321.55-.066,1.038-.169,1.533-.327,1.575-.57,3.17-1.037,4.713a1.422,1.422,0,0,0,.466,1.494.232.232,0,0,0,.3.051c.131-.047.212-.142.153-.258-.5-.975.022-1.883.2-2.8.266-1.346.622-2.673.924-4.012a1.619,1.619,0,0,0-.122-1.007c-.368-.887-.678-1.8-1.013-2.705.3-.114.4.119.535.251q6.638,6.569,13.268,13.147c.494.49.466.552-.2.792a19.4,19.4,0,0,1-8.885.972,20.5,20.5,0,0,1-13.937-7.617.545.545,0,0,1-.058-.125" transform="translate(-28.724 -163.76)" fill="#41b33f"/>
    <path id="Path_74421" data-name="Path 74421" d="M156.452,232.994a4.141,4.141,0,0,1,2.649.663c2.436,1.627,4.913,3.191,7.372,4.783.642.416.649.458-.018.844s-1.34.726-2.013,1.085a.513.513,0,0,1-.691-.04c-2.406-2.423-4.818-4.842-7.3-7.335" transform="translate(-134.714 -200.615)" fill="#41b33f"/>
  </g>
</svg>
