<svg id="lua-seeklogo.com" xmlns="http://www.w3.org/2000/svg" width="42.11" height="42.109" viewBox="0 0 42.11 42.109">
  <path id="Path_22254" data-name="Path 22254" d="M62.333,46.263A16.109,16.109,0,1,0,46.218,62.372,16.109,16.109,0,0,0,62.333,46.263" transform="translate(-25.17 -25.206)" fill="#00007d"/>
  <path id="Path_22255" data-name="Path 22255" d="M149.3,63.528a4.718,4.718,0,1,0-4.718,4.718,4.718,4.718,0,0,0,4.718-4.718" transform="translate(-116.857 -49.144)" fill="#fff"/>
  <path id="Path_22256" data-name="Path 22256" d="M206.621,6.208a4.718,4.718,0,1,0-4.718,4.718,4.718,4.718,0,0,0,4.718-4.718" transform="translate(-164.743 -1.258)" fill="#00007d"/>
  <path id="Path_22257" data-name="Path 22257" d="M61.25,113.756h1.409v9.16h5.218v1.239H61.25v-10.4" transform="translate(-51.182 -95.046)" fill="#fff"/>
  <path id="Path_22258" data-name="Path 22258" d="M110.334,130.873v5.033a2.17,2.17,0,0,0,.179.948,1.245,1.245,0,0,0,1.234.679,1.744,1.744,0,0,0,1.765-1.19,4.834,4.834,0,0,0,.255-1.748v-3.725h1.275v7.581h-1.2l.015-1.118a2.563,2.563,0,0,1-.6.729,2.627,2.627,0,0,1-1.736.594,2.228,2.228,0,0,1-2.167-1.084,3.277,3.277,0,0,1-.313-1.55V130.87h1.3" transform="translate(-91.099 -109.346)" fill="#fff"/>
  <path id="Path_22259" data-name="Path 22259" d="M160.461,132.932a.692.692,0,0,0,.588-.368,1.134,1.134,0,0,0,.081-.491,1.04,1.04,0,0,0-.462-.948,2.471,2.471,0,0,0-1.325-.295,1.678,1.678,0,0,0-1.413.541,1.788,1.788,0,0,0-.3.891h-1.19a2.2,2.2,0,0,1,.909-1.956,3.719,3.719,0,0,1,2.025-.55,4.119,4.119,0,0,1,2.171.509,1.73,1.73,0,0,1,.828,1.586v4.368a.558.558,0,0,0,.081.318.393.393,0,0,0,.343.12q.081,0,.191-.011t.227-.032v.942a3.541,3.541,0,0,1-.453.106,3.315,3.315,0,0,1-.425.021,1.048,1.048,0,0,1-.956-.467,1.8,1.8,0,0,1-.219-.7,3.24,3.24,0,0,1-1.118.884,3.462,3.462,0,0,1-1.607.375,2.391,2.391,0,0,1-1.724-.64,2.124,2.124,0,0,1-.669-1.6,2.062,2.062,0,0,1,.658-1.633,3.135,3.135,0,0,1,1.727-.714l2.032-.254Zm-2.683,3.442a1.5,1.5,0,0,0,.956.317,2.91,2.91,0,0,0,1.3-.311,1.75,1.75,0,0,0,1.062-1.689v-1.024a2.17,2.17,0,0,1-.6.249,5.045,5.045,0,0,1-.721.142l-.77.1a2.977,2.977,0,0,0-1.041.29,1.126,1.126,0,0,0-.591,1.059A1.046,1.046,0,0,0,157.778,136.375Z" transform="translate(-130.37 -108.412)" fill="#fff"/>
  <path id="Path_22260" data-name="Path 22260" d="M21.88,42.193l-.017-.486c.6-.021,1.2-.068,1.79-.14l.058.479c-.6.074-1.22.122-1.832.143Zm-1.837-.015c-.611-.032-1.225-.09-1.829-.173l.066-.479c.59.081,1.191.138,1.787.169l-.024.486Zm5.481-.431-.1-.473c.583-.124,1.168-.275,1.738-.449l.142.462c-.583.178-1.181.334-1.782.46Zm-9.117-.075c-.594-.137-1.19-.3-1.771-.486l.149-.46c.567.184,1.149.345,1.731.478l-.108.471Zm12.627-1-.181-.448c.552-.224,1.1-.475,1.633-.746l.22.43c-.543.278-1.105.534-1.671.764Zm-16.121-.133c-.561-.238-1.12-.5-1.659-.792l.227-.427c.527.28,1.072.541,1.62.773l-.189.445ZM32.3,39l-.257-.41c.505-.317,1-.659,1.478-1.019l.292.385c-.486.368-1,.718-1.513,1.042ZM9.671,38.814c-.511-.332-1.015-.692-1.5-1.068l.3-.381c.47.368.962.718,1.458,1.044l-.263.4ZM35.232,36.79l-.324-.359c.443-.4.874-.823,1.28-1.259l.353.33c-.416.446-.857.879-1.31,1.288ZM6.78,36.553c-.448-.415-.88-.856-1.289-1.311l.359-.324c.4.443.824.873,1.259,1.279l-.33.354Zm30.959-2.445-.381-.3c.368-.47.719-.962,1.044-1.458l.4.263c-.333.511-.692,1.015-1.068,1.5ZM4.32,33.827c-.368-.486-.719-1-1.043-1.513l.409-.257c.317.5.659,1,1.02,1.478Zm35.421-2.8-.427-.228c.281-.526.541-1.072.774-1.62l.445.189c-.239.561-.505,1.119-.793,1.658ZM2.369,30.718c-.278-.543-.535-1.105-.764-1.671l.448-.181c.224.552.475,1.1.747,1.632Zm38.809-3.072-.46-.149c.184-.567.345-1.149.479-1.73l.471.109c-.137.6-.3,1.19-.49,1.771ZM.987,27.316c-.179-.583-.334-1.181-.461-1.782l.473-.1c.124.583.275,1.168.45,1.738l-.462.142ZM42,24.067,41.523,24c.081-.59.139-1.19.17-1.787l.486.025c-.032.611-.09,1.225-.174,1.829ZM.225,23.725C.151,23.121.1,22.5.081,21.893l.483-.013c.021.6.069,1.2.141,1.79l-.479.059Zm41.484-3.3c-.021-.6-.068-1.2-.141-1.79l.479-.059c.075.606.123,1.223.144,1.833l-.486.017ZM.577,20.081l-.486-.024c.031-.611.089-1.226.172-1.829l.479.066C.663,18.884.608,19.485.577,20.081ZM41.271,16.86c-.124-.583-.275-1.169-.449-1.739l.462-.142c.178.584.334,1.182.46,1.782l-.473.1Zm-40.2-.331L.6,16.421c.136-.6.3-1.191.486-1.771l.46.149c-.184.567-.344,1.149-.477,1.731Zm39.152-3.1c-.224-.553-.474-1.1-.745-1.634l.431-.219c.277.543.534,1.106.762,1.672l-.448.181ZM2.175,13.115l-.445-.189c.238-.562.5-1.12.791-1.659l.427.227c-.28.527-.54,1.072-.773,1.62ZM3.86,9.947l-.4-.263c.332-.512.692-1.015,1.067-1.5l.381.3c-.367.47-.718.962-1.043,1.462ZM6.067,7.119l-.354-.33c.415-.447.856-.88,1.309-1.289l.324.359c-.442.4-.873.824-1.279,1.26ZM8.73,4.713l-.292-.385c.486-.368,1-.72,1.512-1.044l.257.409C9.7,4.009,9.205,4.352,8.73,4.713Zm23.619-.838-.027-.017.263-.4.025.016-.262.4Zm-1.575-.926c-.527-.279-1.073-.539-1.62-.771l.188-.445c.562.237,1.121.5,1.66.789l-.226.427ZM11.767,2.806l-.22-.43c.543-.279,1.105-.536,1.67-.765l.182.448C12.847,2.283,12.3,2.534,11.767,2.806Zm15.7-1.251c-.567-.184-1.15-.344-1.731-.478L25.848.6c.6.136,1.191.3,1.772.486Zm-12.378-.1L14.948,1c.583-.18,1.182-.331,1.778-.462l.1.473C16.244,1.13,15.659,1.282,15.09,1.457ZM23.971.75C23.381.664,22.779.61,22.184.583L22.2.1c.61.031,1.225.089,1.83.173l-.066.479ZM18.6.708,18.539.229c.6-.075,1.22-.123,1.831-.145l.017.486c-.6.021-1.2.069-1.79.142Z" transform="translate(-0.081 -0.084)" fill="#929292"/>
</svg>
