<svg id="Layer_2" data-name="Layer 2" xmlns="http://www.w3.org/2000/svg" width="80.887" height="95.999" viewBox="0 0 80.887 95.999">
  <g id="svg8" transform="translate(0 0)">
    <path id="path830" d="M38.781,69.954c-3.746-2.167-6.823-4.024-6.823-4.126,0-.209,13.593-8.129,13.769-8.027s.144,15.92,0,16.011c-.064.043-3.211-1.7-6.957-3.869ZM47.6,73.807c-.048-.048-.086-3.655-.086-8.027,0-7.283,0-7.931.23-7.931s12.843,7.224,13.518,7.733c.241.177.246.225.064.407s-12.094,7.1-13.2,7.669A.788.788,0,0,1,47.6,73.807ZM30.92,64.014c-.23-.428-.2-15.375.027-15.68.155-.209.9.187,6.957,3.7,4.682,2.708,6.791,4,6.764,4.147S35.9,61.536,31.562,64c-.535.289-.535.289-.664,0Zm24.547-3.682c-3.746-2.141-6.78-4.03-6.807-4.147s2.044-1.413,6.764-4.142c6.036-3.484,6.823-3.907,6.957-3.7s.177,1.964.177,7.845-.037,7.674-.177,7.851-.867-.182-6.914-3.7ZM22.053,60.22c-3.682-2.141-6.695-3.965-6.695-4.051s13.379-7.931,13.619-7.931c.07,0,.123,3.478.123,7.952,0,6.272-.037,7.952-.177,7.942s-3.189-1.766-6.871-3.912Zm42.2-4.035c0-6.695.032-7.974.193-7.931s3.211,1.771,6.9,3.88a65.4,65.4,0,0,1,6.679,4.035c-.021.128-12.993,7.776-13.534,7.931-.23.064-.246-.38-.246-7.909Zm-50.084-9.7V38.461l.664.342c2.114,1.07,13.079,7.588,13.079,7.744S14.673,54.5,14.347,54.51C14.207,54.515,14.17,52.819,14.17,46.488ZM38.653,50.62c-3.682-2.141-6.695-3.965-6.695-4.067,0-.214,13.582-8.113,13.759-8.027.064.043.118,3.65.118,8.027,0,7.492,0,7.942-.246,7.936C45.46,54.5,42.34,52.755,38.653,50.62Zm8.862-4.067c0-4.377.054-7.979.123-8.027.219-.139,13.759,7.738,13.759,8.027S48.152,54.5,47.761,54.5c-.23,0-.246-.466-.246-7.942Zm24.691,4.062a77.865,77.865,0,0,1-6.753-4.062c0-.123,10.243-6.181,13.3-7.829.268-.144.348-.139.45.027s.187,15.177.048,15.519c-.048.123-.123.219-.177.219s-3.136-1.745-6.855-3.88ZM22.261,41.046c-3.639-2.1-6.7-3.917-6.812-4.024s-.15-.225.134-.4c1.172-.738,13.25-7.631,13.379-7.631s.209,15.706.032,15.819c-.059.037-3.088-1.654-6.727-3.746Zm8.594,3.623c-.112-.289-.107-15.1,0-15.519.059-.225.155-.294.31-.235s3.211,1.819,6.893,3.944c4.431,2.563,6.663,3.928,6.636,4.062s-13.266,7.974-13.577,7.974a.332.332,0,0,1-.257-.219Zm24.536-3.66C50.817,38.333,48.7,37.054,48.7,36.9s2.141-1.466,6.764-4.142c3.746-2.141,6.807-3.912,6.855-3.912s.128.139.171.31c.112.412.112,15.219,0,15.519a.326.326,0,0,1-.246.219c-.091,0-3.173-1.745-6.855-3.88Zm8.862-4.088c0-5.71.043-7.952.155-7.952.342,0,13.657,7.749,13.625,7.931s-13.379,7.974-13.651,7.974c-.075,0-.128-3.211-.128-7.952ZM14.17,27.239c0-7.572,0-8.027.246-7.915.4.15,13.2,7.583,13.421,7.8.128.123.155.241.07.316-.257.235-13.25,7.717-13.491,7.765s-.246-.407-.246-7.958Zm24.617,4.115c-3.682-2.141-6.695-3.965-6.695-4.067,0-.235,13.309-7.963,13.555-7.867.155.059.182,1.44.15,7.909A77.75,77.75,0,0,1,45.62,35.2c-.091.021-3.152-1.712-6.834-3.853ZM47.67,35.1c-.2-.2-.23-15.268-.037-15.573a.262.262,0,0,1,.262-.139c.08.027,3.131,1.777,6.78,3.89a71.557,71.557,0,0,1,6.6,4.024c-.021.118-2.986,1.894-6.593,3.981l-6.695,3.869a.273.273,0,0,1-.316-.064ZM72.2,31.354c-3.746-2.141-6.78-3.965-6.8-4.072a69.5,69.5,0,0,1,6.534-3.96c3.612-2.071,6.695-3.826,6.844-3.9a.291.291,0,0,1,.4.07c.091.144.182,15.177.048,15.519-.048.123-.123.219-.177.214s-3.136-1.755-6.855-3.885ZM22.261,21.791c-3.639-2.1-6.7-3.917-6.812-4.024s-.15-.225.134-.407c1.07-.69,13.057-7.546,13.266-7.6s.252.321.252,7.824c0,4.34-.048,7.92-.112,7.958S25.9,23.889,22.261,21.8Zm8.744,3.746c-.054-.054-.091-3.628-.091-7.952,0-6.5.032-7.861.187-7.861s11.816,6.684,13.325,7.631c.278.177.3.235.139.4S31.2,25.639,31.123,25.639a.417.417,0,0,1-.118-.091Zm24.617-3.746c-3.634-2.108-6.695-3.917-6.8-4.024s-.15-.225.134-.4c1.242-.781,13.02-7.535,13.239-7.594s.273.048.273,7.818c0,4.34-.054,7.925-.118,7.963S59.229,23.905,55.6,21.8Zm8.632-4.137c0-7.813,0-7.968.273-7.9.615.161,13.539,7.711,13.507,7.893s-13.416,7.99-13.651,7.99C64.3,25.639,64.254,22.054,64.254,17.655ZM38.733,12.105C35.019,9.965,31.947,8.167,31.9,8.124s0-.161.128-.268C32.274,7.6,45.262.086,45.588,0c.241-.064.252.294.252,7.974,0,6.374-.037,8.027-.177,8.027S42.442,14.251,38.733,12.105Zm8.878,3.816c-.166-.166-.118-15.787.048-15.888S61.466,7.787,61.466,8.006c0,.134-12.886,7.685-13.539,7.931a.337.337,0,0,1-.316,0Z" transform="translate(-6.587 0.011)" fill="#34a9d8"/>
    <path id="path828" d="M53.482,70.006c-3.66-2.141-6.657-3.89-6.657-3.949s13.266-7.824,13.443-7.824c.048,0,.091,3.516.091,7.813s-.048,7.813-.112,7.813S57.142,72.125,53.482,70.006ZM62.4,73.752c-.134-.134-.112-15.364,0-15.45s13.373,7.562,13.373,7.744-13.057,7.808-13.25,7.808a.369.369,0,0,1-.123-.091ZM45.712,56.413c0-4.281.037-7.829.086-7.829s3.093,1.739,6.77,3.864c5.277,3.05,6.646,3.9,6.507,4.035s-12.8,7.54-13.148,7.674C45.739,64.232,45.712,63.359,45.712,56.413Zm24.552,4.014C66.695,58.35,63.7,56.574,63.6,56.483s1.177-.953,6.513-4.035c3.682-2.141,6.727-3.864,6.77-3.864s.075,3.516.075,7.813-.048,7.813-.107,7.808-3.024-1.7-6.593-3.778ZM53.519,50.762c-3.644-2.108-6.641-3.89-6.663-3.955S59.775,39.1,60.177,39c.15-.037.182,1.386.182,7.776,0,4.281-.048,7.818-.107,7.818s-3.088-1.729-6.732-3.837ZM62.4,54.508c-.139-.139-.107-15.364.037-15.45s13.3,7.492,13.379,7.706c.032.1-10.542,6.315-13.234,7.786a.161.161,0,0,1-.177-.043ZM45.712,37.148c0-7.219,0-7.818.23-7.738.128.048,3.173,1.793,6.775,3.869,5.271,3.05,6.523,3.821,6.363,3.96s-13.218,7.738-13.314,7.738S45.712,41.429,45.712,37.148Zm24.51,4c-3.591-2.092-6.593-3.864-6.668-3.944s2-1.375,6.422-3.928c3.607-2.082,6.657-3.826,6.775-3.869s.214.781.214,7.744c0,4.281-.048,7.824-.107,7.813S73.812,43.238,70.221,41.145Zm-16.8-28.989c-3.623-2.092-6.566-3.864-6.545-3.939C46.932,8.047,59.936.485,60.182.48c.139,0,.177,1.638.177,7.738s-.048,7.744-.177,7.738S57.046,14.249,53.423,12.157ZM62.312,8.25c0-6.117.037-7.76.177-7.754C62.735.5,75.749,8.068,75.8,8.234s-12.7,7.551-13.218,7.685C62.317,15.994,62.312,15.892,62.312,8.25Z" transform="translate(-21.245 -0.218)" fill="#024561"/>
    <path id="Path_14670" data-name="Path 14670" d="M70.222,166.175A7.492,7.492,0,0,1,67.841,165a2.844,2.844,0,0,1-1-1.07,6.3,6.3,0,0,1,1.07-1.07,3.613,3.613,0,0,1,.5.4,4.272,4.272,0,0,0,3.211,1.343c1.836-.1,2.938-1.423,2.483-2.991-.278-.963-1.07-1.573-2.836-2.194-2.141-.744-3.018-1.4-3.6-2.622a2.531,2.531,0,0,1-.278-1.52,3.612,3.612,0,0,1,.69-2.36,4.1,4.1,0,0,1,1.841-1.306,5.887,5.887,0,0,1,3.832.278,5.715,5.715,0,0,1,1.525,1.07,5.887,5.887,0,0,1-.985,1.247,2.467,2.467,0,0,1-.535-.305,3.564,3.564,0,0,0-2.248-.7,2.1,2.1,0,0,0-1.156.187,2.141,2.141,0,0,0-1.124,1.964,1.536,1.536,0,0,0,.2.947c.294.535.669.749,2.087,1.29.674.257,1.445.578,1.712.717,2.076,1.044,3.034,2.644,2.745,4.586a3.639,3.639,0,0,1-1.065,2.215,4.388,4.388,0,0,1-3.313,1.268,6.421,6.421,0,0,1-1.381-.2Z" transform="translate(-31.071 -70.379)" fill="#34a9d8"/>
    <path id="Path_14671" data-name="Path 14671" d="M108.206,156.895a8.027,8.027,0,0,0-2.676-4.04,7.455,7.455,0,0,0-10.548,1.2,9.1,9.1,0,0,0-1.407,2.729,10.061,10.061,0,0,0-.091,3.489,7.679,7.679,0,0,0,3.676,5.052,9.4,9.4,0,0,0,2.312.84h0a10.29,10.29,0,0,0,2.809-.027,7.754,7.754,0,0,0,5.887-5.507A9.06,9.06,0,0,0,108.206,156.895Zm-2.226,4.41a5.887,5.887,0,0,1-3.8,3.066h0a6.368,6.368,0,0,1-2.7-.043,5.758,5.758,0,0,1-3.628-2.911,5.218,5.218,0,0,1-.631-2.644,5.351,5.351,0,0,1,1.712-4.1,5.175,5.175,0,0,1,3.885-1.654,5.068,5.068,0,0,1,2.719.658,5.5,5.5,0,0,1,2.392,2.467A5.592,5.592,0,0,1,105.98,161.3Z" transform="translate(-43.405 -70.282)" fill="#34a9d8"/>
    <path id="Path_14672" data-name="Path 14672" d="M132.969,166.116a7.974,7.974,0,0,1-2.141-.969,3.972,3.972,0,0,1-1.2-1.231,2.2,2.2,0,0,1,.535-.674l.535-.535.332.31a4.258,4.258,0,0,0,4.1,1.365,2.248,2.248,0,0,0,1.814-2.092,2.076,2.076,0,0,0-.722-1.819,4.741,4.741,0,0,0-2.114-1.134c-2.055-.712-3.088-1.423-3.612-2.5a4.431,4.431,0,0,1-.064-3.28,3.923,3.923,0,0,1,1.359-1.632,5.319,5.319,0,0,1,4.816-.112,4.249,4.249,0,0,1,1.434,1.07,4.918,4.918,0,0,1-.926,1.193,1.151,1.151,0,0,1-.535-.262,3.4,3.4,0,0,0-3.746-.321,2.141,2.141,0,0,0-.808,1.739,2.793,2.793,0,0,0,.123.846c.2.482.776.888,1.761,1.258a13.748,13.748,0,0,1,2.9,1.322,4.083,4.083,0,0,1-1.167,7.492,6.32,6.32,0,0,1-2.676-.032Z" transform="translate(-60.259 -70.32)" fill="#34a9d8"/>
    <path id="Path_14673" data-name="Path 14673" d="M.944,170.385c-.032-.032-.064-2.258-.064-4.945,0-4.1,0-4.88.123-4.88a5.726,5.726,0,0,1,.926,1.07l.8,1.07v7.685h-.84a3.675,3.675,0,0,1-.947,0Z" transform="translate(-0.409 -74.632)" fill="#34a9d8"/>
    <path id="Path_14674" data-name="Path 14674" d="M14.546,165.718c-.032-.032-.064-2.3-.064-5.03s-.032-4.966-.064-4.966a9.215,9.215,0,0,0-.835,1.07c-.423.594-1.568,2.092-2.542,3.329-2.5,3.184-2.371,3.029-2.526,2.9s-4.891-6.288-6.272-8.236L.9,152.917v-1.2a4.046,4.046,0,0,1,.086-1.2c.123,0,.359.294,4.131,5.2,1.884,2.451,3.462,4.452,3.505,4.452s1.686-2.092,3.655-4.645,3.655-4.731,3.746-4.816.2-.155.241-.112.064,3.462.048,7.61v7.535h-.84a3.676,3.676,0,0,1-.9-.037Z" transform="translate(-0.412 -69.965)" fill="#34a9d8"/>
    <path id="Path_14675" data-name="Path 14675" d="M40.368,166.162c0-.059-.032-3.366,0-7.342v-7.23h9v1.675l-3.569.043-3.569.043v4.586l3.173.043,3.173.043V159.7l-3.173.043-3.173.043v4.72h3.7c3.569,0,3.709,0,3.794.171a3.462,3.462,0,0,1,.037,1.4l-.054.2H45.034c-3.618,0-4.634,0-4.666-.112Z" transform="translate(-18.759 -70.462)" fill="#34a9d8"/>
    <path id="Path_14676" data-name="Path 14676" d="M70.8,166.247a7.412,7.412,0,0,1-2.269-.915c-.631-.407-1.359-1.07-1.359-1.268a3.115,3.115,0,0,1,.91-.979,4.442,4.442,0,0,1,.653.5c1.659,1.407,3.714,1.605,5,.471a1.969,1.969,0,0,0,.717-1.761,1.75,1.75,0,0,0-.241-1.161c-.444-.749-1.215-1.247-2.831-1.8-1.857-.642-2.852-1.349-3.366-2.387a2.745,2.745,0,0,1-.289-1.4,3.682,3.682,0,0,1,.535-2.355c.937-1.472,3.173-2.028,5.25-1.3a5.5,5.5,0,0,1,1.755,1.1c.054.139-.733,1.22-.84,1.151l-.535-.353c-1.279-.862-3.173-.878-3.944-.032a2.59,2.59,0,0,0-.535,2.408,2.473,2.473,0,0,0,1.135,1.156c.155.07.846.348,1.536.615a17.259,17.259,0,0,1,1.814.824,5.464,5.464,0,0,1,1.878,1.927c.252.5.262.578.262,1.605a3.6,3.6,0,0,1-.209,1.605,4.517,4.517,0,0,1-1.675,1.852,5.421,5.421,0,0,1-3.35.492Z" transform="translate(-31.224 -70.451)" fill="#024561"/>
    <path id="Path_14677" data-name="Path 14677" d="M108.222,157.159a7.615,7.615,0,0,0-5.78-5.592,9.963,9.963,0,0,0-2.911,0,8,8,0,0,0-3.425,1.712A8.257,8.257,0,0,0,93.79,157.1a9.874,9.874,0,0,0,0,3.559,6.812,6.812,0,0,0,2,3.452,7.16,7.16,0,0,0,4.04,2.141h0a9.708,9.708,0,0,0,3.077-.171,7.492,7.492,0,0,0,5.314-5.389,8.6,8.6,0,0,0,0-3.532Zm-2.05,4.372a6.09,6.09,0,0,1-3.746,3.034h0a5.667,5.667,0,0,1-5.507-1.531,5.844,5.844,0,0,1-1.477-2.419,6.539,6.539,0,0,1-.086-3.211,6.315,6.315,0,0,1,2.365-3.366,5.6,5.6,0,0,1,5.8-.417,6.545,6.545,0,0,1,2.585,2.521A5.887,5.887,0,0,1,106.173,161.531Z" transform="translate(-43.524 -70.402)" fill="#024561"/>
    <path id="Path_14678" data-name="Path 14678" d="M133.34,166.218a7.492,7.492,0,0,1-2.141-.851,4.859,4.859,0,0,1-1.44-1.3,3.366,3.366,0,0,1,.9-.985,3.746,3.746,0,0,1,.669.487c1.8,1.5,3.971,1.605,5.164.3a1.926,1.926,0,0,0,.583-1.514,2.028,2.028,0,0,0-.535-1.605,5.471,5.471,0,0,0-2.494-1.423,6.583,6.583,0,0,1-2.8-1.52,3.173,3.173,0,0,1-.947-2.253c-.139-2.424,1.37-3.96,3.907-3.981a4.993,4.993,0,0,1,3.393,1.145l.359.31-.235.321c-.128.177-.337.428-.46.562l-.219.241-.294-.225c-1.316-1.006-3.264-1.113-4.147-.235a2.323,2.323,0,0,0-.685,1.755,1.29,1.29,0,0,0,.262,1.017,4.042,4.042,0,0,0,2.082,1.258c2.879,1.07,4.121,2.167,4.415,3.949a4.1,4.1,0,0,1-1.07,3.414,4.768,4.768,0,0,1-4.265,1.129Z" transform="translate(-60.32 -70.454)" fill="#024561"/>
    <path id="Path_14679" data-name="Path 14679" d="M1.134,170.448c-.1-.1-.075-9.558,0-9.558a7.283,7.283,0,0,1,.84,1.022l.76,1.022v7.492H1.98a3.024,3.024,0,0,1-.813-.037Z" transform="translate(-0.497 -74.785)" fill="#024561"/>
    <path id="Path_14680" data-name="Path 14680" d="M14.73,165.85c-.037-.037-.059-2.328-.059-5.095,0-3,0-5.041-.075-5.057a6.888,6.888,0,0,0-.92,1.145c-.46.642-1.466,1.969-2.237,2.943s-1.675,2.141-2.017,2.574a4.56,4.56,0,0,1-.706.808c-.107,0-4.463-5.689-6.277-8.2l-1.306-1.83L1.1,152.07c0-.878,0-1.07.086-1.07s.594.637,4.784,6.1a37.513,37.513,0,0,0,2.761,3.4c.086-.016,1.766-2.141,3.746-4.736s3.682-4.731,3.746-4.747.107,1.466.086,7.4v7.438h-.755a2.953,2.953,0,0,1-.819-.037Z" transform="translate(-0.511 -70.188)" fill="#024561"/>
    <path id="Path_14681" data-name="Path 14681" d="M40.528,166.141c0-.059-.032-3.323,0-7.257V151.74h8.808v1.5H42.165l-.054.2c-.07.257-.07,4.2,0,4.452l.054.2h6.422v1.5H42.165l-.054.2c-.027.107-.054,1.177-.054,2.376,0,1.862,0,2.194.139,2.317s.589.139,3.794.139h3.655v1.5H45.119c-3.553,0-4.554,0-4.586-.112Z" transform="translate(-18.833 -70.532)" fill="#024561"/>
    <g id="Group_2514" data-name="Group 2514" transform="translate(0 71.244)">
      <path id="Path_14682" data-name="Path 14682" d="M0,138.113l1.916-4.993h.712l2.044,4.993H3.923L3.339,136.6H1.252l-.535,1.514Zm1.44-2.05h1.7L2.6,134.683q-.241-.631-.353-1.038a6.363,6.363,0,0,1-.268.953Z" transform="translate(0 -133.12)" fill="#024561"/>
      <path id="Path_14683" data-name="Path 14683" d="M9.57,140.583v-5h.535v.471a1.375,1.375,0,0,1,.444-.412,1.225,1.225,0,0,1,.6-.139,1.429,1.429,0,0,1,.819.241,1.466,1.466,0,0,1,.535.674,2.456,2.456,0,0,1,.182.953,2.419,2.419,0,0,1-.2,1,1.5,1.5,0,0,1-.551.7,1.488,1.488,0,0,1-.8.235,1.151,1.151,0,0,1-.535-.128,1.252,1.252,0,0,1-.4-.326v1.739Zm.535-3.173a1.573,1.573,0,0,0,.284,1.033.867.867,0,0,0,.685.332.888.888,0,0,0,.7-.348,1.643,1.643,0,0,0,.289-1.07,1.605,1.605,0,0,0-.284-1.038.856.856,0,0,0-.68-.342.883.883,0,0,0-.7.364,1.638,1.638,0,0,0-.278,1.086Z" transform="translate(-4.449 -134.226)" fill="#024561"/>
      <path id="Path_14684" data-name="Path 14684" d="M19.008,138.773a2.285,2.285,0,0,1-.658.407,1.894,1.894,0,0,1-.674.118,1.316,1.316,0,0,1-.915-.289.963.963,0,0,1-.321-.744.99.99,0,0,1,.123-.487,1,1,0,0,1,.316-.353,1.493,1.493,0,0,1,.439-.2,4.384,4.384,0,0,1,.535-.091,5.609,5.609,0,0,0,1.07-.209q0-.128,0-.161a.68.68,0,0,0-.171-.535,1.027,1.027,0,0,0-.7-.209,1.07,1.07,0,0,0-.637.15.926.926,0,0,0-.305.535l-.6-.08a1.488,1.488,0,0,1,.268-.621,1.177,1.177,0,0,1,.535-.364,2.419,2.419,0,0,1,.819-.128,2.173,2.173,0,0,1,.755.107.99.99,0,0,1,.428.273.963.963,0,0,1,.193.417,3.446,3.446,0,0,1,.032.567v.819a8.686,8.686,0,0,0,.037,1.07,1.359,1.359,0,0,0,.155.433h-.642A1.3,1.3,0,0,1,19.008,138.773Zm-.054-1.37a4.5,4.5,0,0,1-1,.23,2.317,2.317,0,0,0-.535.123.538.538,0,0,0-.144.9.8.8,0,0,0,.535.166,1.263,1.263,0,0,0,.631-.155.953.953,0,0,0,.407-.423,1.482,1.482,0,0,0,.1-.615Z" transform="translate(-7.642 -134.23)" fill="#024561"/>
      <path id="Path_14685" data-name="Path 14685" d="M26.273,137.935l.6.08a1.563,1.563,0,0,1-.508.974,1.472,1.472,0,0,1-1,.353,1.552,1.552,0,0,1-1.193-.487,1.969,1.969,0,0,1-.45-1.391,2.521,2.521,0,0,1,.193-1.027,1.354,1.354,0,0,1,.589-.658,1.755,1.755,0,0,1,.862-.219,1.5,1.5,0,0,1,.963.3,1.365,1.365,0,0,1,.482.846l-.594.091a.99.99,0,0,0-.3-.535.781.781,0,0,0-.535-.182.953.953,0,0,0-.755.332,2.161,2.161,0,0,0-.011,2.141.91.91,0,0,0,.728.332.862.862,0,0,0,.6-.219,1.1,1.1,0,0,0,.321-.728Z" transform="translate(-11.027 -134.253)" fill="#024561"/>
      <path id="Path_14686" data-name="Path 14686" d="M30.59,138.113V133.12h.615v1.793a1.37,1.37,0,0,1,1.07-.5,1.461,1.461,0,0,1,.7.161.931.931,0,0,1,.423.439,2.018,2.018,0,0,1,.128.813v2.29H32.95v-2.29a.947.947,0,0,0-.2-.669.738.738,0,0,0-.562-.209,1,1,0,0,0-.535.139.8.8,0,0,0-.342.385,1.761,1.761,0,0,0-.1.669v1.98Z" transform="translate(-14.22 -133.12)" fill="#024561"/>
      <path id="Path_14687" data-name="Path 14687" d="M40.152,138.07l.631.08a1.547,1.547,0,0,1-.535.862,1.884,1.884,0,0,1-2.3-.182,1.91,1.91,0,0,1-.466-1.37,2,2,0,0,1,.471-1.418,1.605,1.605,0,0,1,1.22-.5,1.547,1.547,0,0,1,1.188.492,1.964,1.964,0,0,1,.46,1.391c0,.037,0,.091,0,.166H38.15a1.386,1.386,0,0,0,.337.915,1.006,1.006,0,0,0,.755.316.937.937,0,0,0,.578-.177A1.177,1.177,0,0,0,40.152,138.07Zm-2.012-.99h2.023a1.226,1.226,0,0,0-.23-.685.942.942,0,0,0-.76-.353.974.974,0,0,0-.712.284A1.118,1.118,0,0,0,38.14,137.08Z" transform="translate(-17.424 -134.244)" fill="#024561"/>
    </g>
    <g id="Group_2515" data-name="Group 2515" transform="translate(78.131 77.189)">
      <path id="Path_14688" data-name="Path 14688" d="M146.471,145.712v-1.306H146v-.177h1.172v.177h-.487v1.306Z" transform="translate(-146 -144.23)" fill="#024561"/>
      <path id="Path_14689" data-name="Path 14689" d="M148.52,145.717V144.24h.294l.348,1.07.07.219.08-.235.353-1.027h.262v1.45h-.187v-1.236l-.428,1.236h-.177l-.428-1.258v1.258Z" transform="translate(-147.171 -144.235)" fill="#024561"/>
    </g>
  </g>
</svg>
