<svg id="openshift-logo" xmlns="http://www.w3.org/2000/svg" width="72.441" height="77.637" viewBox="0 0 72.441 77.637">
  <path id="path44560" d="M65.509,12.848A29.231,29.231,0,0,0,63,8.587L52.7,12.333a19.241,19.241,0,0,1,3.025,4.075Zm-45.5,11.385L9.71,27.979a29.944,29.944,0,0,0,.816,4.88L20.307,29.3a19.141,19.141,0,0,1-.3-5.065" transform="translate(2.461 2.176)" fill="#c22133"/>
  <path id="path44564" d="M43.743,12.108A19.058,19.058,0,0,1,49.3,16.069L59.6,12.323A29.426,29.426,0,0,0,6.311,31.716l10.3-3.746A19.075,19.075,0,0,1,43.743,12.108" transform="translate(1.576 0)" fill="#db212e"/>
  <path id="path44572" d="M53.609,25.424a18.88,18.88,0,0,1-1.728,6.61,19.151,19.151,0,0,1-25.422,9.253,18.939,18.939,0,0,1-5.573-3.955L10.612,41.071A29.2,29.2,0,0,0,22.1,50.639,29.482,29.482,0,0,0,61.231,36.394a29.146,29.146,0,0,0,2.651-14.709L53.609,25.424Z" transform="translate(2.689 5.495)" fill="#db212e"/>
  <path id="path44576" d="M58.052,14.641,48.27,18.2a19.191,19.191,0,0,1,2.394,10.773l10.273-3.737a29.662,29.662,0,0,0-2.886-10.6m-45.2,16.45L3.069,34.654a29.779,29.779,0,0,0,4.6,9.971l10.272-3.74a19.226,19.226,0,0,1-5.09-9.794" transform="translate(0.778 3.71)" fill="#eb2126"/>
  <path id="path44584" d="M64.018,10.136c-.324-.526-.661-1.045-1.02-1.55L52.7,12.333a18.309,18.309,0,0,1,1.268,1.46ZM19.967,26.3a18.216,18.216,0,0,1,.039-2.067L9.71,27.98c.053.66.136,1.315.235,1.968L19.967,26.3Z" transform="translate(2.461 2.176)" fill="#ad213b"/>
  <path id="path44588" d="M63.881,21.686,53.608,25.424a18.8,18.8,0,0,1-.868,4.418l11.182-4.077a29.526,29.526,0,0,0-.041-4.08M10.613,41.073a29.166,29.166,0,0,0,2.618,3.179l11.184-4.078a19.006,19.006,0,0,1-3.53-2.841Z" transform="translate(2.689 5.495)" fill="#ba2133"/>
  <path id="path44622" d="M66.041,54.561v.928h2.69V63.7H69.75V55.489h2.692v-.928Zm-6.177.927v3.03h2.507v.928H59.864V63.7H58.845v-9.14h5.368v.926H59.864Zm-4.66-.926h1.018V63.7H55.2ZM51.564,63.7v-4.31H47.019V63.7H46V54.561h1.018v3.906h4.545V54.561h1.018V63.7ZM40.7,63.847a4.357,4.357,0,0,1-3.069-1.266l.68-.758a3.471,3.471,0,0,0,2.428,1.1c1.214,0,1.973-.6,1.973-1.568,0-.849-.509-1.332-2.181-1.933-1.973-.705-2.638-1.344-2.638-2.663,0-1.463,1.148-2.339,2.859-2.339a4.092,4.092,0,0,1,2.783.981l-.653.8a3.182,3.182,0,0,0-2.193-.849c-1.255,0-1.777.627-1.777,1.346,0,.758.34,1.188,2.168,1.843,2.024.73,2.651,1.41,2.651,2.768,0,1.437-1.123,2.546-3.03,2.546M33.5,63.7l-3.356-4.989c-.222-.34-.523-.8-.641-1.032,0,.34.027,1.488.027,2V63.7h-1.8V54.561h1.75l3.24,4.832c.222.34.522.8.639,1.032,0-.34-.025-1.488-.025-2V54.561h1.8V63.7H33.5Zm-14.416,0V54.561h6.347v1.789H20.917v1.581h2.626v1.775H20.917v2.208h4.714V63.7Zm-5.2-3.238H11.882V63.7H10.054V54.562h4a2.836,2.836,0,0,1,3.148,2.9c0,2.117-1.41,3.005-3.3,3.005m.093-4.127h-2.1v2.35h2.129c.849,0,1.307-.393,1.307-1.189s-.523-1.161-1.332-1.161M4.023,63.847C1.633,63.847,0,62.1,0,59.145s1.659-4.728,4.05-4.728,4.009,1.752,4.009,4.7S6.4,63.847,4.023,63.847m-.013-7.614c-1.28,0-2.129,1.033-2.129,2.888s.888,2.911,2.168,2.911S6.178,61,6.178,59.145s-.887-2.913-2.167-2.913" transform="translate(0 13.79)" fill="#241f21"/>
</svg>
