<svg xmlns="http://www.w3.org/2000/svg" width="44.658" height="44.658" viewBox="0 0 44.658 44.658">
  <g id="Group_105376" data-name="Group 105376" transform="translate(-107.155 -8652)">
    <path id="Path_22228" data-name="Path 22228" d="M66.766,56.151,66.837,56l-.177-.1a4.632,4.632,0,0,0-1.758-.773,5.46,5.46,0,0,0-1.758.6,5.312,5.312,0,0,0-.668-.885,3.912,3.912,0,0,0-.885-.669,5.2,5.2,0,0,0,.59-1.758,5.277,5.277,0,0,0-.773-1.758.229.229,0,0,0-.317-.071l-.069.035-.035.148.035.069a4.833,4.833,0,0,1,.7,1.547,4.5,4.5,0,0,1-.457,1.337,1.337,1.337,0,0,0-.246-.422.987.987,0,0,0-1.371-.035.843.843,0,0,0-.246.457,1.476,1.476,0,0,0-.633.387,2.14,2.14,0,0,0-.282,2.391,2.866,2.866,0,0,0-1.722,0l-.913-1.371a16.663,16.663,0,0,0,.176-1.759h-.071a1.313,1.313,0,0,0-.035-.387s.035-.106-.035-.14l-.034.034h-.035q-.053,0-.106.106a1.752,1.752,0,0,0-.106.422,15.808,15.808,0,0,0-.26,1.946v.035l.035.035c0,.035.282.738.493,1.231L55.38,56.4a1.262,1.262,0,0,1-.387-.211l-.071-.177c-.246-.843-.457-1.476-.6-1.864l-.069.035a2.055,2.055,0,0,0-.148-.28c-.035-.211-.071-.211-.1-.211s-.035,0-.071.035a.217.217,0,0,0-.034.148,2.251,2.251,0,0,0,.034.422,21.224,21.224,0,0,0,.528,2.214v.069l.246.211-.738-.246a11.99,11.99,0,0,0-1.2-1.266l-.071.069a1.166,1.166,0,0,0-.28-.211c-.071-.148-.071-.148-.106-.148s-.071.035-.035.176a2.444,2.444,0,0,0,.211.317c.246.351.668.885,1.126,1.406l.035.035.034.035c.035.035,1.3.633,1.759.844-.035.034-.035.1-.071.14-1.758-.351-4.427-.843-7.349-1.2a37.04,37.04,0,0,0-10.795-.106.124.124,0,0,0-.071.035l-.069.071v.035a.679.679,0,0,0,.035.245c.527.95,4.852,3.27,5.943,3.552a10.21,10.21,0,0,0,4.324.527,3.2,3.2,0,0,0,1.369-.6,3.716,3.716,0,0,1,1.9-.7c.457-.035,2.779-.246,4.641-.457a2.709,2.709,0,0,0,.422.984c-1.653-.844-3.551.885-6.188,3.517-2.461,2.462-4.747,7.455-5.416,8.931l-.211.493.491-.211a34.179,34.179,0,0,0,8.931-5.416c2.637-2.637,4.325-4.536,3.517-6.188a3.936,3.936,0,0,0,.984.422c-.148,1.266-.422,4.114-.457,4.641a3.577,3.577,0,0,1-.7,1.9,3.2,3.2,0,0,0-.59,1.371,11.769,11.769,0,0,0,.527,4.324,22.173,22.173,0,0,0,2.075,4.114A12.61,12.61,0,0,0,59.74,79.71c0,.035.035.035.035.071l.034.034a1.955,1.955,0,0,0,.317.282.59.59,0,0,0,.176.071.13.13,0,0,0,.106-.035l.071-.035c.035-.035.035-.069.071-.1A36.985,36.985,0,0,0,60.444,69.2c-.387-2.919-.885-5.627-1.2-7.349a.632.632,0,0,0,.148-.069c.246.491.844,1.722.844,1.758l.034.035.035.035c.527.457,1.091.885,1.406,1.125a.72.72,0,0,0,.317.177c.035,0,.069.034.1.034.071,0,.106-.034.106-.069l.035-.035-.035-.035-.071-.071a1.143,1.143,0,0,0-.211-.246l.071-.069c-.351-.387-1.055-1.02-1.266-1.2l-.246-.738.211.246H60.8c.885.246,1.722.422,2.214.527a1.891,1.891,0,0,0,.387.035h.035c.1,0,.176-.035.176-.106,0-.035,0-.071-.211-.1a2.423,2.423,0,0,0-.282-.106l.035-.071c-.387-.14-.986-.351-1.864-.6l-.177-.069c-.035-.071-.1-.211-.211-.387-.071-.148-.148-.317-.246-.493.527.211,1.2.457,1.231.493l.035.035h.035a14.51,14.51,0,0,0,1.935-.282,2.361,2.361,0,0,0,.422-.106c.106-.034.106-.069.106-.1v-.035l-.035-.035c-.035-.035-.035-.035-.176,0h-.035a1.151,1.151,0,0,0-.351,0v-.071a11.341,11.341,0,0,0-1.758.176L60.7,60.511a2.882,2.882,0,0,0,0-1.722,2.118,2.118,0,0,0,2.391-.282,1.462,1.462,0,0,0,.387-.633,1.145,1.145,0,0,0,.457-.246.955.955,0,0,0-.034-1.371.843.843,0,0,0-.422-.246,3.589,3.589,0,0,1,1.336-.457,4.8,4.8,0,0,1,1.547.7l.071.035.176-.035Z" transform="translate(76.356 8610.021)"/>
    <path id="Path_22229" data-name="Path 22229" d="M22.328,0A22.316,22.316,0,1,0,38.12,6.537,22.329,22.329,0,0,0,22.328,0m0,41.246A18.9,18.9,0,1,1,41.245,22.357,18.9,18.9,0,0,1,22.328,41.246" transform="translate(107.157 8652)"/>
  </g>
</svg>
