<svg xmlns="http://www.w3.org/2000/svg" width="29.448" height="39.611" viewBox="0 0 29.448 39.611">
  <g id="Group_105385" data-name="Group 105385" transform="translate(755.845 -9360.979)">
    <g id="Group_105384" data-name="Group 105384" transform="translate(-755.845 9360.979)">
      <path id="Path_22268" data-name="Path 22268" d="M29.406,17.981c0,4.607-.066,9.217.026,13.824a3.781,3.781,0,0,1-4.086,4.086h-.128c-.665-.125-.892.133-.962.822a3.094,3.094,0,0,1-3.819,2.795c-1.592-.3-3.175-.652-4.761-.987-4.054-.852-8.094-1.719-12.148-2.542A3.873,3.873,0,0,1,.109,33.061a4.3,4.3,0,0,1-.093-1.018C.011,22.659.023,13.272,0,3.886A4,4,0,0,1,1.44.678,3.556,3.556,0,0,1,3.784,0c4.5.011,9.006,0,13.51,0h8.131a3.64,3.64,0,0,1,3.982,3.958q0,7.008,0,14.011m-17.449-.3c0,.124,0,.242.182.212l.01.009c-.079.446.217.589.562.692h0a.225.225,0,0,0,.217.257,8.472,8.472,0,0,0,.594.667c.369.34.257.563-.092.844-.9.721-1.767,1.478-2.645,2.223-1.4,1.188-2.8,2.368-4.186,3.572a1.629,1.629,0,0,0-.361,2.139,1.659,1.659,0,0,0,1.95.706,2.615,2.615,0,0,0,.844-.568q3.95-3.354,7.9-6.715c1.138-.97,1.223-1.748.3-2.891q-3.886-4.781-7.789-9.567a1.767,1.767,0,0,0-.869-.632,1.66,1.66,0,0,0-1.774,2.655c.639.824,1.3,1.629,1.945,2.45a.533.533,0,0,0,.52.64h0a.228.228,0,0,0,.23.273l.013.014c-.071.443.109.692.566.716v-.011c-.014.282-.022.559.4.481l.013.021c-.094.228,0,.3.217.277l-.022.033.017-.035c.2.464.245,1.047.917,1.124l.009.016c-.1.311.067.409.341.418Zm12.177-10.1h-.01a8.663,8.663,0,0,0-.012,1.944q0,12.181.008,24.361c0,.243-.173.572.2.722a2.13,2.13,0,0,0,.884.071c2.064.008,2.979-.895,2.978-2.933V4.036A2.5,2.5,0,0,0,25.4,1.222H4.654a1.177,1.177,0,0,0,.641.217c4.985.816,9.975,1.606,14.954,2.46a4.513,4.513,0,0,1,3.625,2.965c-.009.27-.109.575.26.708m-5.07,23.148a1.1,1.1,0,0,0,1.195-.908,1.032,1.032,0,0,0-.9-1.195q-2.626-.354-5.262-.64a1.048,1.048,0,0,0-.3,2.071c1.77.252,3.547.456,5.265.671" transform="translate(0.002 0.017)" fill="#1979ce"/>
      <path id="Path_22279" data-name="Path 22279" d="M187.84,59.066a2.868,2.868,0,0,1,.211,1.371q.012,12.733,0,25.467a1.9,1.9,0,0,1-.016.191c-.377-.151-.2-.48-.2-.722q-.015-12.181-.008-24.361a8.656,8.656,0,0,1,.012-1.944" transform="translate(-163.714 -51.48)" fill="#207aca"/>
      <path id="Path_22280" data-name="Path 22280" d="M83.494,125.854a4.281,4.281,0,0,1,.916,1.125c-.671-.077-.72-.661-.916-1.125" transform="translate(-72.795 -109.713)" fill="#207aca"/>
      <path id="Path_22281" data-name="Path 22281" d="M74.086,114.3a1.89,1.89,0,0,1,.566.716c-.459-.024-.637-.272-.566-.716" transform="translate(-64.58 -99.637)" fill="#207aca"/>
      <path id="Path_22282" data-name="Path 22282" d="M94.746,139.71a2.146,2.146,0,0,1,.562.692c-.344-.109-.641-.245-.562-.692" transform="translate(-82.594 -121.793)" fill="#207aca"/>
      <path id="Path_22283" data-name="Path 22283" d="M68.241,107.1a1.6,1.6,0,0,1,.52.64.533.533,0,0,1-.52-.64" transform="translate(-59.495 -93.358)" fill="#207aca"/>
      <path id="Path_22284" data-name="Path 22284" d="M78.547,119.8a1.143,1.143,0,0,1,.4.481c-.42.078-.413-.2-.4-.481" transform="translate(-68.479 -104.432)" fill="#207aca"/>
      <path id="Path_22285" data-name="Path 22285" d="M90.522,134.761a.69.69,0,0,1,.341.418c-.274-.009-.434-.109-.341-.418" transform="translate(-78.899 -117.478)" fill="#207aca"/>
      <path id="Path_22286" data-name="Path 22286" d="M186.228,53.578a1.07,1.07,0,0,1,.26.708c-.366-.134-.267-.434-.26-.708" transform="translate(-162.352 -46.695)" fill="#207aca"/>
      <path id="Path_22287" data-name="Path 22287" d="M81.55,123.716a.393.393,0,0,1,.217.277c-.217.024-.316-.049-.217-.277" transform="translate(-71.068 -107.848)" fill="#207aca"/>
      <path id="Path_22288" data-name="Path 22288" d="M99.232,145.128a.376.376,0,0,1,.217.257.225.225,0,0,1-.217-.257" transform="translate(-86.517 -126.516)" fill="#207aca"/>
      <path id="Path_22289" data-name="Path 22289" d="M72.279,112.062l.23.273a.228.228,0,0,1-.23-.273" transform="translate(-63.016 -97.687)" fill="#207aca"/>
      <path id="Path_22290" data-name="Path 22290" d="M93.332,137.987a.267.267,0,0,1,.181.217c-.178.03-.182-.088-.181-.217" transform="translate(-81.372 -120.291)" fill="#207aca"/>
    </g>
  </g>
</svg>
