<svg xmlns="http://www.w3.org/2000/svg" width="39.99" height="39.99" viewBox="0 0 39.99 39.99">
  <g id="Group_105368" data-name="Group 105368" transform="translate(1024.343 -8622)">
    <g id="prometheus-seeklogo.com" transform="translate(-1024.343 8622)">
      <path id="Path_22226" data-name="Path 22226" d="M19.995.667a20,20,0,1,0,20,20,19.995,19.995,0,0,0-20-20Zm0,37.423c-3.142,0-5.689-2.1-5.689-4.687H25.684c0,2.588-2.548,4.687-5.689,4.687Zm9.4-6.239H10.6V28.442H29.392V31.85Zm-.068-5.162H10.651c-.062-.072-.126-.138-.186-.215a13.622,13.622,0,0,1-2.818-4.8c-.007-.042,2.333.478,3.992.852,0,0,.854.2,2.1.425a7.8,7.8,0,0,1-1.911-5.016c0-4.008,3.074-7.51,1.965-10.342,1.08.087,2.233,2.278,2.312,5.7A12.245,12.245,0,0,0,17.737,7.04c0-1.839,1.212-3.974,2.423-4.047-1.08,1.781.277,3.306,1.488,7.092.453,1.422.4,3.815.745,5.333.116-3.153.658-7.754,2.658-9.339-.882,2,.13,4.5.824,5.7a10.81,10.81,0,0,1,1.8,6.192,7.734,7.734,0,0,1-1.85,4.993c1.321-.248,2.232-.471,2.232-.471l4.292-.831a12.157,12.157,0,0,1-3.017,5.03Z" transform="translate(-0.001 -0.667)" fill="#da4e31"/>
    </g>
  </g>
</svg>
