<svg xmlns="http://www.w3.org/2000/svg" width="46.243" height="37.45" viewBox="0 0 46.243 37.45">
  <g id="Group_105366" data-name="Group 105366" transform="translate(1313.842 -8657)">
    <path id="Path_22200" data-name="Path 22200" d="M45.9,13.772C43.737,3.8,31.779-2.065,19.2.672S-1.827,13.709.34,23.679s14.128,15.835,26.708,13.1S48.072,23.743,45.9,13.768M23.123,27.917a9.19,9.19,0,1,1,9.19-9.191,9.19,9.19,0,0,1-9.19,9.191" transform="translate(-1313.842 8657)" fill="#00969f"/>
    <path id="Path_22201" data-name="Path 22201" d="M20.941,3.794a13.2,13.2,0,1,0,13.2,13.2,13.2,13.2,0,0,0-13.2-13.2M18.909,24.687a8.03,8.03,0,1,1,8.031-8.03,8.031,8.031,0,0,1-8.031,8.03" transform="translate(-1309.628 8659.064)" fill="#5ac5cb"/>
  </g>
</svg>
