<?xml version="1.0" encoding="utf-8"?>
<!-- Generator: Adobe Illustrator 25.0.1, SVG Export Plug-In . SVG Version: 6.00 Build 0)  -->
<svg version="1.0"
	 id="svg2" inkscape:version="0.91 r13725" sodipodi:docname="Google AdWords.svg" xmlns:cc="http://creativecommons.org/ns#" xmlns:dc="http://purl.org/dc/elements/1.1/" xmlns:inkscape="http://www.inkscape.org/namespaces/inkscape" xmlns:rdf="http://www.w3.org/1999/02/22-rdf-syntax-ns#" xmlns:sodipodi="http://sodipodi.sourceforge.net/DTD/sodipodi-0.dtd" xmlns:svg="http://www.w3.org/2000/svg"
	 xmlns="http://www.w3.org/2000/svg" xmlns:xlink="http://www.w3.org/1999/xlink" x="0px" y="0px" viewBox="0 0 639.5 440.4"
	 style="enable-background:new 0 0 639.5 440.4;" xml:space="preserve">
<style type="text/css">
	.st0{fill:#FEFEFE;fill-opacity:0;}
	.st1{fill:#4285F5;}
	.st2{fill:#0F9E59;}
	.st3{fill:#0A6E3D;}
	.st4{fill:#4286F5;}
	.st5{fill:#EA4235;}
	.st6{fill:#4185F4;}
	.st7{fill:#FABC05;}
	.st8{fill:#34A853;}
	.st9{fill:#7F7F7F;}
</style>
<sodipodi:namedview  bordercolor="#666666" borderopacity="1.0" fit-margin-bottom="0" fit-margin-left="0" fit-margin-right="0" fit-margin-top="0" id="base" inkscape:current-layer="layer1" inkscape:cx="384.4691" inkscape:cy="16.923324" inkscape:document-units="px" inkscape:pageopacity="0.0" inkscape:pageshadow="2" inkscape:window-height="705" inkscape:window-maximized="1" inkscape:window-width="1366" inkscape:window-x="-8" inkscape:window-y="-8" inkscape:zoom="0.7" pagecolor="#ffffff" showgrid="false">
	</sodipodi:namedview>
<g id="layer1" transform="translate(-91.739405,-277.22686)" inkscape:groupmode="layer" inkscape:label="Capa 1">
	<g id="g4261">
		<g id="g4167" transform="matrix(0.10893992,0,0,0.10893992,117.0504,302.25131)">
			<g id="g4147" transform="translate(44.446712,-1208.1424)">
				<path id="path4163" inkscape:connector-curvature="0" class="st0" d="M86.2,2999.7v-450h450h450v450v450h-450h-450L86.2,2999.7
					L86.2,2999.7z"/>
				<path id="path4157" inkscape:connector-curvature="0" class="st1" d="M88.2,3447.4c0-0.6,296.9-891.8,298.1-894.9l1.1-2.8
					l149.6,0l149.6,0l11.8,35.7c6.5,19.6,73.6,221.5,149.2,448.6s137.5,413,137.5,413.2s-52,0.4-115.5,0.4
					c-124.3,0-120.9,0.1-137-5.1c-27.8-9.1-52.1-29.9-65.7-56.4c-3.3-6.4-128.8-380.7-128.8-384.1c0-3.1-1.9-1-3.8,4.4
					c-1.1,3.2-29.3,87.6-62.7,187.7c-33.4,100.1-62,184.9-63.7,188.5c-11.1,23.9-30.7,43.6-54.5,54.6c-13,6-14.6,6.6-27.9,9
					c-6.7,1.2-26.5,1.5-122.7,1.5C139.9,3447.7,88.2,3447.6,88.2,3447.4z"/>
				<path id="path4153" inkscape:connector-curvature="0" class="st2" d="M748.7,3446.6c-36.5-7-67.6-30.6-82.7-62.8
					c-3.9-8.2-127.8-380.3-127.8-383.6c0-2.1,144.3-436.9,147-442.9c0.5-1.1,1.1-2.7,1.4-3.5c0.4-1.3,0.5-1.3,1,0
					c0.3,0.8,48.5,145.5,107.1,321.5c58.6,176,125.4,376.6,148.4,445.7s41.6,126,41.3,126.2C983.5,3448.2,753.9,3447.5,748.7,3446.6
					z"/>
				<path id="path4151" inkscape:connector-curvature="0" class="st3" d="M681.6,3407.5c-13.3-16.6-16.2-23.2-35.3-80.8
					c-8.8-26.7-36.8-110.7-62.1-186.7c-25.3-76-46-139.1-46-140.3c0-1.9,144.6-437.2,147-442.5c0.5-1.1,1.1-2.7,1.4-3.5
					c0.3-0.8,0.5,192.3,0.6,429.2c0,236.9-0.1,430.7-0.2,430.7C686.7,3413.7,684.3,3410.9,681.6,3407.5z"/>
			</g>
		</g>
		<g id="g4252" transform="matrix(0.39254131,0,0,0.39254131,345.60088,96.872038)">
			<path id="path4243" inkscape:connector-curvature="0" class="st4" d="M90.1,1055.9c9.9-2.9,15.7-11.4,15.7-23
				c0-7.1-1.9-12.7-5.8-16.9c-11.4-12.2-30.7-6.9-35.6,9.7c-2,6.8-2,7.3,0.1,14.7c1.8,6.6,7.7,13.5,12.3,14.5
				c1.4,0.3,3.4,0.9,4.5,1.4C84,1057.6,84.3,1057.5,90.1,1055.9L90.1,1055.9z M72.2,1109.5c-10.4-3.4-19.7-11.4-24.7-21
				c-1.4-2.8-0.7-3.3,8.6-6.9c6.5-2.5,8.6-2.8,8.6-1.1c0,2.4,6.2,8.8,10.5,10.8c8.5,4,19.8,1.6,25.1-5.4c2.5-3.2,4.6-11.8,4.2-16.6
				l-0.2-2.6l-4,2.8c-5.8,4-15.3,5.8-23,4.3c-9.3-1.8-15.2-4.9-21.4-11.3c-6.6-6.7-9.4-12.2-11.5-22.1c-4.1-19.8,8.5-41.1,28.1-47.4
				c10-3.2,24-1.1,29.9,4.4l2.3,2.1l0.3-2.9l0.3-2.9h9h9l0.3,40c0.3,42-0.1,47.8-4.5,56.7c-4.3,8.9-12.7,15.8-23,19.1
				C89.6,1111.8,78.9,1111.7,72.2,1109.5z"/>
			<path id="path4239" inkscape:connector-curvature="0" class="st5" d="M-81,1052.7c7.7-5.4,11.5-17,8.8-27.1
				c-2.3-8.4-12-16.2-20.2-16.2c-13.2,0-22.8,9.8-22.9,23.2c0,10.7,6.6,20.6,15.4,22.9C-94.2,1056.9-85.2,1055.6-81,1052.7
				L-81,1052.7z M-101,1073.7c-15.8-2.8-27.3-13.2-32.7-29.5c-2.5-7.5-1.7-20.6,1.8-27.9c7.4-15.9,21.6-25,38.7-25
				c32.6,0.1,51.9,33.2,36.6,62.8c-4.4,8.5-16.9,17.5-26.8,19.3C-92.3,1075.1-93.5,1075.1-101,1073.7L-101,1073.7z"/>
			<path id="path4235" inkscape:connector-curvature="0" sodipodi:nodetypes="scsssssssscssssssssssssscsscc" class="st5" d="
				M181.7,1029c3.7-1.6,2.3-1.2,3-1.2c0.6,0,4.8-1.8,8.4-3.5s7.2-3,8.1-3c0.9,0-4.3,2.2-4.3,1.8c0-0.4,8.3-4.2,11.4-5.2
				c5.4-1.8,5.5-1.9,3.8-3.8c-5-5.6-15.2-6.7-22-2.4c-5.5,3.5-9.9,9.4-10.7,14.4C178.5,1030.6,178.2,1030.6,181.7,1029z
				 M192.3,1073.7c-15.8-3.7-26.2-13.7-31.4-30.3c-1.4-4.5-1.4-17.5,0.1-22c6.1-18.9,20.1-30.1,37.6-30.1c10,0,18.3,3.4,25.5,10.5
				c5.1,5.1,11.7,16.1,11.7,19.7c0,2.3-1.2,3-13.5,7.8c-9.9,3.9-14.7,5.8-22.5,9.2c-1.4,0.6-3.4,1.4-4.5,1.9c-1.1,0.4-4,1.7-6.5,2.7
				c-2.5,1.1-5.1,2.1-5.9,2.4c-2.4,0.7,5.9,8.5,10.4,9.7c8.9,2.5,16.8,0.8,23-5c2.3-2.2,4.7-3.9,5.3-3.9c1.7,0,14.2,8.4,14.2,9.6
				c0,2.1-8.7,10.1-14.5,13.3c-5.3,2.9-17.5,6.3-21.4,6C198.9,1075.2,195.6,1074.5,192.3,1073.7L192.3,1073.7z"/>
			<path id="path4233" inkscape:connector-curvature="0" sodipodi:nodetypes="cssssssscssssssssscccccscssscc" class="st6" d="
				M-211.7,1073.3c-12.2-2-24-8.4-34.3-18.8c-7.2-7.3-12-15-16-25.9c-2.5-6.9-2.5-29.7,0.1-36.8c8.1-22.1,23.7-37,45.7-43.6
				c7-2.1,29.2-1.8,35.5,0.5c9.5,3.5,21.2,10.2,24.5,14.1c1.2,1.4,0.6,2.4-5,8.1c-3.5,3.5-6.6,6.4-6.9,6.4c-0.3,0-1.8-1.1-3.4-2.5
				c-8.3-7.1-24.2-10.9-36.3-8.6c-13.7,2.6-25.1,11.3-31.5,24.1c-3.2,6.4-5.3,6.8-5.3,20c0,12.6,2.2,13.9,4.7,19.3
				c1.5,3.2,5.3,8.5,8.4,11.8c11.4,12,28.2,16.7,44.2,12.5c9-2.4,12.8-4.4,18.4-9.8c4.9-4.7,8.1-10.6,9.2-16.9l0.7-3.7l-20.3-0.3
				l-20.3-0.3v-9.3v-9.3l29,0.1c16,0,29.3,0.1,29.6,0.1c0.3,0,1.1,2.4,1.7,5.4c2.2,11.1-1.9,27.9-9.7,39.9
				c-6.5,9.9-13.4,15.2-28.1,21.7C-183.3,1073.9-201.2,1075-211.7,1073.3L-211.7,1073.3z"/>
			<path id="path4229" inkscape:connector-curvature="0" sodipodi:nodetypes="sssssssscssssscc" class="st7" d="M3.1,1055.2
				c4.7-1.2,10.9-7,13.2-12.4c0.9-2.1,2.4-6.3,2.2-10.4c-0.3-5.9-1.6-10.1-2.8-11.6c-5.2-6.3-7.9-8.6-11.8-10
				c-8.6-3-16.5-1.4-23,4.8c-12.6,12-7.8,34.2,8.6,39.8C-5.8,1057-4.2,1057,3.1,1055.2L3.1,1055.2z M-14.2,1073.3
				c-10.6-2.2-21.7-10.7-26.7-20.4c-8.4-16.1-6.3-34.8,5.4-47.8c16.7-18.5,46.1-18.5,63.1,0c14.6,15.9,13.1,44.7-3.1,58.6
				c-7.7,6.6-15.2,9.6-25.3,10C-5.7,1074.1-11.7,1073.8-14.2,1073.3L-14.2,1073.3z"/>
			<path id="path4213" inkscape:connector-curvature="0" class="st8" d="M133.8,1011.4v-61.1l9.8,0.3l9.8,0.3v60.5v60.5l-9.8,0.3
				l-9.8,0.3V1011.4L133.8,1011.4z"/>
			<path id="path4203" inkscape:connector-curvature="0" class="st9" d="M700.5,1036.5c-0.1-18.9-0.2-34.4-0.1-34.5
				c0.1-0.1,3.1,0,6.8,0.2l6.6,0.3v4.3v4.3l4-3.8c5-4.8,11.9-7,19.5-6.2c3.1,0.3,5.8,0.9,6,1.2s-0.8,3.2-2.3,6.4l-2.7,5.8l-6.5,0.2
				c-7.5,0.2-10.4,1.8-14.6,7.9l-2.9,4.1v21.8v21.8l-6.7,0.3l-6.7,0.3L700.5,1036.5z M565.2,1069.9c-2-6.9-14.9-46.3-15.3-47
				c-0.3-0.5-0.7-1.7-0.9-2.5s-2.2-7.6-4.6-15l-4.4-13.5l-8.6,26.5c-4.7,14.6-10.5,32.2-12.8,39.2l-4.2,12.8h-8.6
				c-7.5,0-8.6-0.2-8.7-1.8c-0.1-1-3.4-13.2-7.3-27.2c-3.9-14-7.8-28-8.6-31c-3.9-14.7-14.6-52.9-15.8-56.3l-1.4-3.8h8.9
				c4.9,0,8.9,0.3,8.9,0.8c0,0.4,0.9,3.9,1.9,7.8c7.7,28.5,18.7,69.4,20.5,76.5c1.2,4.7,2.4,8,2.7,7.5c0.3-0.5,6.1-17.6,12.8-38
				c6.8-20.4,12.4-37.5,12.6-38c0.2-0.6,3.5-0.9,7.8-0.7l7.5,0.3l12.7,38.4c7,21.1,12.9,38.2,13.1,38c0.4-0.4,6.9-25.6,18-69.8
				l5.7-22.8h8.7c8.7,0,8.7,0,7.9,2.2c-0.5,1.2-3.9,13.7-7.5,27.8c-3.7,14-7.3,27.5-8,30c-0.7,2.5-4.6,17-8.6,32.2l-7.3,27.7
				l-8.4,0.3C568.9,1070.7,565.4,1070.5,565.2,1069.9L565.2,1069.9z M346.3,1021.7c-0.4-0.9-4.5-12.3-9.2-25.2s-8.9-23.9-9.3-24.4
				c-0.7-0.7-8.7,20-9.3,24.2c-0.1,0.9-0.5,2.1-0.9,2.6c-0.9,1.5-8.8,22.6-8.8,23.6c0,0.5,8.6,0.9,19.1,0.9
				C345.4,1023.4,346.9,1023.2,346.3,1021.7L346.3,1021.7z M273.8,1069.9c0-0.5,4.1-11.8,9.1-25c5-13.2,11-29.2,13.4-35.5
				c6.4-17.1,16.4-43.7,19.1-50.7c1.3-3.4,2.4-6.7,2.4-7.2c0-0.7,3.3-1.1,9.4-1.1c8,0,9.5,0.3,10.1,1.8
				c2.6,6.8,36.4,96.3,38.6,102.3c1.5,4.1,3.5,9.2,4.4,11.4s1.6,4,1.6,4.2s-4,0.4-8.9,0.4h-8.9l-2.2-5.8c-1.2-3.2-3.7-10.4-5.7-16
				l-3.5-10.2h-24.8h-24.8l-1.6,4.2c-0.9,2.3-3.5,9.6-5.9,16.1l-4.3,11.8l-8.7,0.2C277.2,1070.8,273.8,1070.5,273.8,1069.9
				L273.8,1069.9z M849.1,1072.2c-9.5-1.2-17.5-6.8-22.1-15.6c-1.8-3.4-1.5-4,3.1-5.8c2.3-0.9,4.5-2.2,4.9-2.7
				c0.4-0.6,1.4-0.1,2.5,1.2c8.5,10.4,10.4,11.4,19.5,10.8c5.5-0.4,6.5-0.8,9-3.8c5.5-6.6,1.6-10.8-13.9-14.8
				c-17.3-4.5-24.3-10.4-24.3-20.4c0-8.2,3-12.9,10.8-16.9c6.1-3.1,7.3-3.3,16.1-3.3c8.5,0,10.1,0.3,14.8,2.8
				c5.5,2.9,12.5,11,11.5,13.4c-0.3,0.7-0.9,1.1-1.3,0.8c-0.4-0.3-3,0.4-5.6,1.6c-3.2,1.4-4.9,1.7-5.2,0.9c-0.6-1.7-4.3-5-7.6-6.7
				c-3.9-2.1-12.8-1.3-16.4,1.4c-1.7,1.3-2.8,3.1-3,5c-0.4,4.4,2.9,6.5,15.4,9.7c15.4,3.9,19.1,6,22.9,13.5
				c2.7,5.3,1.8,14.8-1.9,19.6C872.4,1070.7,862.4,1073.9,849.1,1072.2L849.1,1072.2z M786.8,1059.7c4.9-1,12.5-8.8,14-14.3
				c1.6-6,1.4-15.1-0.5-19.7c-2-4.9-8.9-11-13.9-12.4c-13.2-3.6-25.9,7.5-26,22.5c0,7.6,1.7,12.7,5.7,17.3
				C771.4,1059.1,778.4,1061.4,786.8,1059.7z M773.5,1072.3c-9.5-1.6-18.6-9.3-23.6-19.9c-2.3-5-2.6-6.9-2.6-16.1
				c0-9.9,0.2-10.9,3.3-17.2c3.6-7.3,8.7-12.4,16.1-16c3.7-1.8,6.2-2.3,13.1-2.2c9.1,0,14.6,2,19.6,7l2.4,2.4v-19.4v-19.4l6.6-0.3
				c3.6-0.2,6.8-0.1,7,0.3c0.2,0.3,0.3,22.8,0.2,49.9l-0.2,49.3l-6.5,0c-5.6,0-6.5-0.3-6.2-1.7c0.2-1.2-0.1-1.5-1-1
				c-1.1,0.6-1.1,0.5-0.1-0.6c0.7-0.7,1.2-2.4,1.2-3.7c0-2.3,0-2.3-2.5,0.6C795,1070.5,783.3,1074,773.5,1072.3L773.5,1072.3z
				 M665.4,1057.2c2.1-1.4,5.2-4.5,6.8-6.9c2.6-3.8,3-5.3,3.3-12.5c0.3-6.8,0-8.9-1.7-12.3c-5.7-11.1-16.5-15.7-26.8-11.2
				c-9.3,4-13.6,11.1-13.6,22.5c0,10.3,4.7,18.1,13.4,22C651.9,1061.1,660.6,1060.4,665.4,1057.2L665.4,1057.2z M648,1072.2
				c-9.6-1.5-17.3-6.8-22.7-15.3c-4.5-7.1-5.9-13-5.3-22.8c1.3-23.8,21.3-38.4,44.6-32.6c11.3,2.8,20.6,12.2,23.8,24
				c2.7,10,1.2,22.4-3.5,30.4c-1.2,2-1.8,4.1-1.4,4.7s0.3,0.9-0.1,0.5s-3.1,1.3-6.1,3.6C669.3,1071.3,658.8,1074,648,1072.2
				L648,1072.2z M432.5,1056.9c2.4-1.6,5.1-4.7,6.8-7.8c2.3-4.3,2.8-6.3,2.8-12.2c0-8.9-2.1-13.9-7.6-18.8
				c-8.4-7.5-18.5-7.5-26.7,0.1c-5,4.7-7.2,9.8-7.3,17.1c-0.1,11.3,4.3,19.4,12.7,23.3C418.8,1061.2,427.1,1060.5,432.5,1056.9
				L432.5,1056.9z M413.8,1072.2c-10-1.5-18.8-8.8-23.9-19.7c-2.3-4.8-2.6-6.9-2.6-15.1c0-12.5,2.8-20.5,9.7-27.1
				c7.4-7.2,12.7-9.4,22.8-9.3c9.4,0,15,2.1,20,7.5l2.5,2.7l-0.5-19.8l-0.5-19.8l6.9-0.3c4-0.2,7,0.1,7.3,0.7
				c0.2,0.5,0.3,23,0.1,49.9l-0.3,48.9l-6.5,0l-6.5,0l0.4-4.3l0.4-4.3l-3.8,3.3C432.1,1071.5,424,1073.7,413.8,1072.2L413.8,1072.2z
				"/>
		</g>
	</g>
</g>
</svg>
