<?xml version="1.0" encoding="utf-8"?>
<!-- Generator: Adobe Illustrator 24.0.0, SVG Export Plug-In . SVG Version: 6.00 Build 0)  -->
<svg version="1.1" id="Layer_1" xmlns="http://www.w3.org/2000/svg" xmlns:xlink="http://www.w3.org/1999/xlink" x="0px" y="0px"
	 viewBox="0 0 256 256" enable-background="new 0 0 256 256" xml:space="preserve">
<g>
	<g>
		<path fill="#63BCE7" d="M128,210.004c-48.243,0-87.491-39.249-87.491-87.491S79.757,35.023,128,35.023
			c18.859,0,36.834,5.932,51.981,17.155c22.235,16.473,35.51,42.767,35.51,70.336C215.491,170.756,176.243,210.004,128,210.004z
			 M128,44.016c-43.284,0-78.498,35.214-78.498,78.497S84.716,201.011,128,201.011s78.498-35.214,78.498-78.497
			c0-24.732-11.914-48.325-31.87-63.11C161.04,49.337,144.917,44.016,128,44.016z"/>
	</g>
	<g>
		<circle fill="#CECECE" cx="128" cy="122.514" r="38.345"/>
		<g>
			<path fill="#AFAFAF" d="M99.254,122.514c0-19.551,14.635-35.672,33.546-38.036c-1.574-0.197-3.173-0.31-4.8-0.31
				c-21.178,0-38.345,17.168-38.345,38.345c0,21.178,17.168,38.345,38.345,38.345c1.627,0,3.226-0.113,4.8-0.31
				C113.89,158.186,99.254,142.064,99.254,122.514z"/>
		</g>
		<g>
			<circle fill="#F8AF23" cx="146.926" cy="121.573" r="7.668"/>
			<polygon fill="#F8AF23" points="139.756,139.596 121.821,130.184 121.821,112.954 139.756,103.542 			"/>
			<rect x="139.756" y="103.542" fill="#F46275" width="7.171" height="36.054"/>
			<rect x="106.737" y="112.954" fill="#CECECE" width="15.084" height="17.238"/>
			<rect x="97.716" y="117.258" fill="#F46275" width="9.021" height="8.623"/>
			<rect x="110.952" y="130.192" fill="#CECECE" width="6.654" height="13.485"/>
		</g>
	</g>
	<circle fill="#CECECE" cx="128" cy="39.937" r="32.394"/>
	<g>
		<path fill="#AFAFAF" d="M110.273,39.937c0-15.367,10.704-28.226,25.06-31.55c-2.358-0.546-4.81-0.844-7.333-0.844
			c-17.891,0-32.394,14.503-32.394,32.394S110.109,72.331,128,72.331c2.523,0,4.976-0.298,7.333-0.844
			C120.977,68.163,110.273,55.304,110.273,39.937z"/>
	</g>
	<circle fill="#CECECE" cx="128" cy="205.09" r="32.394"/>
	<g>
		<path fill="#AFAFAF" d="M110.273,205.09c0-15.367,10.704-28.226,25.06-31.55c-2.358-0.546-4.81-0.844-7.333-0.844
			c-17.891,0-32.394,14.503-32.394,32.394s14.503,32.394,32.394,32.394c2.523,0,4.976-0.298,7.333-0.844
			C120.977,233.315,110.273,220.457,110.273,205.09z"/>
	</g>
	<circle fill="#CECECE" cx="210.839" cy="122.514" r="32.394"/>
	<g>
		<path fill="#E2E2E2" d="M210.839,90.12c-2.523,0-4.976,0.298-7.333,0.844c14.357,3.324,25.061,16.183,25.061,31.55
			c0,15.367-10.704,28.226-25.061,31.55c2.358,0.546,4.81,0.844,7.333,0.844c17.891,0,32.394-14.503,32.394-32.394
			C243.233,104.623,228.73,90.12,210.839,90.12z"/>
	</g>
	<circle fill="#CECECE" cx="45.161" cy="122.514" r="32.394"/>
	<g>
		<path fill="#AFAFAF" d="M27.434,122.513c0-15.367,10.704-28.226,25.06-31.55c-2.358-0.546-4.81-0.844-7.333-0.844
			c-17.891,0-32.394,14.503-32.394,32.394c0,17.891,14.503,32.394,32.394,32.394c2.523,0,4.976-0.298,7.333-0.844
			C38.138,150.739,27.434,137.881,27.434,122.513z"/>
	</g>
	<g>
		<circle fill="#707070" cx="45.161" cy="111.999" r="10.807"/>
		<path fill="#F8AF23" d="M60.13,143.835H30.192v-8.977c0-6.656,5.396-12.052,12.052-12.052h5.833
			c6.656,0,12.052,5.396,12.052,12.052V143.835z"/>
	</g>
	<path fill="#F8AF23" d="M139.539,59.156c2.546,0,4.631-2.085,4.631-4.63v-1.315V37.568c0-2.548-2.085-4.63-4.631-4.63h-19.96V25.35
		c0-2.547-1.727-4.632-3.835-4.632c-2.109,0-3.835,2.085-3.835,4.632v10.188v23.618H139.539z"/>
	<path fill="#F46275" d="M233.561,116.434c0-6.274-5.086-11.361-11.361-11.361s-11.361,5.086-11.361,11.361
		c0-6.274-5.086-11.361-11.361-11.361s-11.361,5.086-11.361,11.361c0,3.419,1.512,6.483,3.902,8.566l18.819,18.836l18.819-18.836
		C232.048,122.917,233.561,119.853,233.561,116.434z"/>
	<g>
		<g>
			<circle fill="#F46275" cx="108.38" cy="205.09" r="5.81"/>
		</g>
		<g>
			<circle fill="#F46275" cx="128" cy="205.09" r="5.81"/>
		</g>
		<g>
			<circle fill="#F46275" cx="147.62" cy="205.09" r="5.81"/>
		</g>
	</g>
	<g>
		<path fill="#3F3679" d="M27.323,246.957H9.32c-0.828,0-1.5,0.672-1.5,1.5s0.672,1.5,1.5,1.5h18.003c0.828,0,1.5-0.672,1.5-1.5
			S28.151,246.957,27.323,246.957z"/>
		<path fill="#3F3679" d="M246.68,246.957h-18.003c-0.828,0-1.5,0.672-1.5,1.5s0.672,1.5,1.5,1.5h18.003c0.828,0,1.5-0.672,1.5-1.5
			S247.508,246.957,246.68,246.957z"/>
		<path fill="#3F3679" d="M218.479,246.957H37.521c-0.828,0-1.5,0.672-1.5,1.5s0.672,1.5,1.5,1.5h180.959c0.828,0,1.5-0.672,1.5-1.5
			S219.308,246.957,218.479,246.957z"/>
		<path fill="#3F3679" d="M9.32,238.983H246.68c0.828,0,1.5-0.672,1.5-1.5s-0.672-1.5-1.5-1.5H141.914
			c11.767-5.321,19.98-17.163,19.98-30.894c0-0.101-0.007-0.201-0.008-0.302c21.791-9.01,39.387-26.602,48.394-48.395
			c0.187,0.003,0.372,0.014,0.559,0.014c18.689,0,33.895-15.205,33.895-33.894S229.528,88.62,210.839,88.62
			c-0.209,0-0.416,0.012-0.625,0.016c-6.218-15.023-16.346-28.037-29.34-37.663c-5.902-4.374-12.289-7.988-18.988-10.759
			c0.001-0.093,0.007-0.184,0.007-0.277c0-18.689-15.205-33.895-33.894-33.895S94.106,21.248,94.106,39.938
			c0,0.098,0.007,0.195,0.007,0.293c-21.792,9.007-39.385,26.621-48.39,48.404c-0.188-0.003-0.374-0.014-0.563-0.014
			c-18.689,0-33.895,15.205-33.895,33.894s15.205,33.894,33.895,33.894c0.191,0,0.379-0.011,0.569-0.014
			c9.009,21.788,26.579,39.391,48.384,48.405c-0.001,0.098-0.007,0.194-0.007,0.292c0,13.731,8.213,25.573,19.98,30.894H9.32
			c-0.828,0-1.5,0.672-1.5,1.5S8.492,238.983,9.32,238.983z M96.45,192.731c-17.262-7.784-30.948-21.491-38.705-38.756
			c12.474-5.008,21.309-17.219,21.309-31.461s-8.836-26.454-21.31-31.461c7.761-17.276,21.446-30.973,38.706-38.753
			C101.402,64.89,113.673,73.831,128,73.831c14.335,0,26.612-8.951,31.557-21.553c4.971,2.247,9.737,5.041,14.178,8.33
			c10.593,7.848,19.033,18.37,24.472,30.463c-12.449,5.02-21.262,17.218-21.262,31.443c0,14.242,8.834,26.452,21.307,31.46
			c-7.758,17.271-21.435,30.97-38.703,38.755c-4.951-12.592-17.222-21.533-31.549-21.533
			C113.672,171.196,101.401,180.138,96.45,192.731z M161.713,201.591c-0.213-2.064-0.619-4.071-1.187-6.009
			c18.138-8.101,32.488-22.472,40.568-40.609c1.933,0.581,3.937,0.995,5.997,1.222C198.413,176.489,182.002,192.902,161.713,201.591
			z M241.733,122.514c0,17.035-13.859,30.894-30.895,30.894s-30.894-13.858-30.894-30.894s13.858-30.894,30.894-30.894
			S241.733,105.479,241.733,122.514z M179.089,53.383c12.283,9.099,21.912,21.335,27.952,35.456
			c-2.059,0.231-4.063,0.646-5.995,1.23c-5.645-12.657-14.454-23.667-25.526-31.87c-4.689-3.474-9.729-6.417-14.989-8.771
			c0.568-1.943,0.975-3.955,1.186-6.025C167.833,46.023,173.673,49.37,179.089,53.383z M128,9.043
			c17.035,0,30.894,13.859,30.894,30.895S145.035,70.831,128,70.831S97.106,56.973,97.106,39.938S110.965,9.043,128,9.043z
			 M94.286,43.433c0.213,2.066,0.62,4.074,1.188,6.014c-18.129,8.096-32.489,22.465-40.573,40.606
			c-1.932-0.581-3.934-0.994-5.993-1.221C57.587,68.548,73.997,52.12,94.286,43.433z M14.267,122.514
			c0-17.035,13.859-30.894,30.895-30.894s30.894,13.858,30.894,30.894s-13.858,30.894-30.894,30.894S14.267,139.549,14.267,122.514z
			 M48.91,156.195c2.059-0.228,4.062-0.641,5.993-1.222c8.077,18.13,22.437,32.511,40.569,40.611
			c-0.568,1.939-0.974,3.946-1.187,6.011C73.985,192.902,57.591,176.485,48.91,156.195z M97.106,205.09
			c0-17.035,13.858-30.894,30.894-30.894s30.894,13.858,30.894,30.894S145.035,235.983,128,235.983S97.106,222.125,97.106,205.09z"
			/>
		<path fill="#3F3679" d="M167.846,122.514c0-21.971-17.875-39.846-39.846-39.846s-39.846,17.875-39.846,39.846
			s17.875,39.846,39.846,39.846S167.846,144.484,167.846,122.514z M91.154,122.514c0-20.316,16.529-36.846,36.846-36.846
			s36.846,16.529,36.846,36.846S148.316,159.359,128,159.359S91.154,142.83,91.154,122.514z"/>
		<path fill="#3F3679" d="M121.464,131.691l17.595,9.232v-0.008c0.209,0.111,0.444,0.18,0.697,0.18h7.171c0.828,0,1.5-0.672,1.5-1.5
			v-8.989c4.343-0.719,7.668-4.49,7.668-9.034s-3.325-8.315-7.668-9.034v-8.996c0-0.828-0.672-1.5-1.5-1.5h-7.171
			c-0.253,0-0.488,0.069-0.697,0.18v-0.008l-17.608,9.239h-14.713c-0.828,0-1.5,0.672-1.5,1.5v2.805h-7.521
			c-0.828,0-1.5,0.672-1.5,1.5v8.622c0,0.828,0.672,1.5,1.5,1.5h7.521v2.812c0,0.828,0.672,1.5,1.5,1.5h2.715v11.985
			c0,0.828,0.672,1.5,1.5,1.5h6.653c0.828,0,1.5-0.672,1.5-1.5v-11.985H121.464z M153.095,121.572c0,2.883-1.991,5.303-4.668,5.976
			v-11.952C151.104,116.269,153.095,118.689,153.095,121.572z M141.256,105.042h4.171v33.054h-4.171V105.042z M138.256,137.114
			l-14.936-7.837V113.86l14.936-7.837V137.114z M99.216,124.38v-5.622h6.021v5.622H99.216z M108.237,125.88v-8.622v-2.805h12.083
			v14.238h-2.715h-6.653h-2.715V125.88z M116.105,142.177h-3.653v-10.485h3.653V142.177z"/>
		<path fill="#3F3679" d="M52.314,121.994c3.114-2.235,5.153-5.877,5.153-9.995c0-6.786-5.521-12.308-12.307-12.308
			s-12.308,5.521-12.308,12.308c0,4.117,2.04,7.759,5.154,9.994c-5.402,1.784-9.316,6.873-9.316,12.865v8.977
			c0,0.828,0.672,1.5,1.5,1.5H60.13c0.828,0,1.5-0.672,1.5-1.5v-8.977C61.63,128.866,57.716,123.778,52.314,121.994z
			 M35.854,111.999c0-5.132,4.176-9.308,9.308-9.308s9.307,4.176,9.307,9.308s-4.175,9.307-9.307,9.307
			S35.854,117.131,35.854,111.999z M58.63,142.335H31.691v-7.477c0-5.818,4.734-10.553,10.553-10.553h5.833
			c5.818,0,10.553,4.734,10.553,10.553V142.335z"/>
		<path fill="#3F3679" d="M111.909,60.656h27.63c3.381,0,6.132-2.75,6.132-6.13V37.567c0-3.38-2.751-6.13-6.132-6.13h-18.46v-6.087
			c0-3.382-2.394-6.133-5.335-6.133s-5.335,2.751-5.335,6.133v33.806C110.409,59.984,111.081,60.656,111.909,60.656z
			 M113.409,25.351c0-1.698,1.069-3.133,2.335-3.133s2.335,1.435,2.335,3.133v7.587c0,0.828,0.672,1.5,1.5,1.5h19.96
			c1.727,0,3.132,1.404,3.132,3.13v0.627h-16.663c-0.828,0-1.5,0.672-1.5,1.5s0.672,1.5,1.5,1.5h16.663v3.759h-16.663
			c-0.828,0-1.5,0.672-1.5,1.5s0.672,1.5,1.5,1.5h16.663v3.758h-16.663c-0.828,0-1.5,0.672-1.5,1.5s0.672,1.5,1.5,1.5h16.644
			c-0.098,1.638-1.45,2.945-3.113,2.945h-26.13V25.351z"/>
		<path fill="#3F3679" d="M190.995,126.095l18.782,18.801c0.281,0.281,0.663,0.439,1.062,0.439s0.779-0.158,1.062-0.439
			l18.783-18.801c2.782-2.443,4.377-5.962,4.377-9.661c0-7.091-5.77-12.86-12.86-12.86c-4.917,0-9.197,2.772-11.361,6.837
			c-2.163-4.064-6.444-6.837-11.36-6.837c-7.091,0-12.86,5.77-12.86,12.86C186.618,120.133,188.213,123.651,190.995,126.095z
			 M199.479,106.573c5.438,0,9.86,4.423,9.86,9.86c0,0.828,0.672,1.5,1.5,1.5s1.5-0.672,1.5-1.5c0-5.438,4.424-9.86,9.861-9.86
			s9.86,4.423,9.86,9.86c0,2.85-1.234,5.56-3.388,7.435c-0.026,0.022-0.052,0.046-0.076,0.07l-17.758,17.774l-17.757-17.774
			c-0.024-0.024-0.05-0.048-0.076-0.07c-2.153-1.875-3.388-4.585-3.388-7.435C189.618,110.996,194.041,106.573,199.479,106.573z"/>
		<path fill="#3F3679" d="M108.381,197.78c-4.031,0-7.311,3.279-7.311,7.31s3.279,7.31,7.311,7.31c4.03,0,7.31-3.279,7.31-7.31
			S112.411,197.78,108.381,197.78z M108.381,209.399c-2.377,0-4.311-1.934-4.311-4.31s1.934-4.31,4.311-4.31
			c2.376,0,4.31,1.934,4.31,4.31S110.757,209.399,108.381,209.399z"/>
		<path fill="#3F3679" d="M128,197.78c-4.03,0-7.31,3.279-7.31,7.31s3.279,7.31,7.31,7.31s7.31-3.279,7.31-7.31
			S132.03,197.78,128,197.78z M128,209.399c-2.376,0-4.31-1.934-4.31-4.31s1.934-4.31,4.31-4.31s4.31,1.934,4.31,4.31
			S130.376,209.399,128,209.399z"/>
		<path fill="#3F3679" d="M154.93,205.09c0-4.03-3.279-7.31-7.311-7.31c-4.03,0-7.31,3.279-7.31,7.31s3.279,7.31,7.31,7.31
			C151.65,212.399,154.93,209.12,154.93,205.09z M147.619,209.399c-2.376,0-4.31-1.934-4.31-4.31s1.934-4.31,4.31-4.31
			c2.377,0,4.311,1.934,4.311,4.31S149.996,209.399,147.619,209.399z"/>
	</g>
</g>
</svg>
