<?xml version="1.0" encoding="UTF-8"?>
<!DOCTYPE svg PUBLIC "-//W3C//DTD SVG 1.1//EN" "http://www.w3.org/Graphics/SVG/1.1/DTD/svg11.dtd">
<!-- Creator: CorelDRAW -->
<svg xmlns="http://www.w3.org/2000/svg" xml:space="preserve" width="6.82666in" height="6.82666in" style="shape-rendering:geometricPrecision; text-rendering:geometricPrecision; image-rendering:optimizeQuality; fill-rule:evenodd; clip-rule:evenodd"
viewBox="0 0 6.82666 6.82666"
 xmlns:xlink="http://www.w3.org/1999/xlink"
 version="1.1">
 <defs>
  <style type="text/css">
   <![CDATA[
    .fil39 {fill:none}
    .fil38 {fill:black}
    .fil29 {fill:#009C8D}
    .fil27 {fill:#01A79D}
    .fil8 {fill:#1E1D1D}
    .fil22 {fill:#222025}
    .fil36 {fill:#253035}
    .fil7 {fill:#262525}
    .fil35 {fill:#273339}
    .fil23 {fill:#2BB673}
    .fil24 {fill:#2D2D2D}
    .fil4 {fill:#2E2D2C}
    .fil6 {fill:#353434}
    .fil37 {fill:#37464E}
    .fil13 {fill:#39B54A}
    .fil5 {fill:#3A3A3A}
    .fil3 {fill:#424143}
    .fil15 {fill:#465B65}
    .fil14 {fill:#556F7A}
    .fil1 {fill:#595A5C}
    .fil19 {fill:#8196A0}
    .fil18 {fill:#90A4AE}
    .fil10 {fill:#92AEB7}
    .fil32 {fill:#9AA9B1}
    .fil31 {fill:#B0BEC5}
    .fil9 {fill:#BCC8CE}
    .fil11 {fill:#BE1E2D}
    .fil20 {fill:#CBD5D8}
    .fil2 {fill:#D3DADE}
    .fil30 {fill:#D8DCDF}
    .fil34 {fill:#DD4851}
    .fil0 {fill:#DDE2E4}
    .fil17 {fill:#DDE3E7}
    .fil16 {fill:#EDEFF0}
    .fil33 {fill:#EF5552}
    .fil25 {fill:#FABC15}
    .fil26 {fill:#FDD838}
    .fil28 {fill:#FECE0B}
    .fil12 {fill:#FFDE17}
    .fil21 {fill:#DDE2E4;fill-opacity:0.239216}
   ]]>
  </style>
 </defs>
 <g id="Layer_x0020_1">
  <metadata id="CorelCorpID_0Corel-Layer"/>
  <g id="_602223376">
   <g id="Guides">
   </g>
   <g id="Layer_2">
   </g>
   <g id="Layer_3">
   </g>
   <g id="Layer_4">
   </g>
   <g id="Layer_5">
   </g>
   <g id="Layer_6">
   </g>
   <g id="Layer_7">
   </g>
   <g id="Layer_8">
    <g>
     <g>
      <g>
       <g>
        <rect id="_560405800" class="fil0" x="1.39863" y="1.9401" width="4.0294" height="2.60417"/>
        <path id="_560405272" class="fil1" d="M5.49453 4.61076l-4.16239 0 0 -2.73717 4.16236 0 0 2.73717 3.14961e-005 0zm-4.02939 -0.133l3.89643 0 0 -2.47117 -3.89643 0 0 2.47117z"/>
       </g>
       <rect id="_560404720" class="fil2" x="3.41333" y="2.0066" width="1.95496" height="2.4712"/>
       <g>
        <polygon id="_560405152" class="fil3" points="5.49453,4.61076 3.41333,4.61076 3.41333,4.47776 5.36153,4.47776 5.36153,2.0066 3.41333,2.0066 3.41333,1.8736 5.49453,1.8736 "/>
       </g>
       <path id="_560403736" class="fil3" d="M5.71893 4.95306l-4.6112 0c-0.0956654,0 -0.173201,-0.0775315 -0.173201,-0.173201l0 -0.169098 4.9576 0 0 0.169098c0,0.0956339 -0.0775354,0.173201 -0.173201,0.173201z"/>
       <path id="_560404360" class="fil4" d="M5.71933 4.95306l-2.306 0 0 -0.342299 2.4788 0 0 0.1695c0,0.0954331 -0.0773661,0.172799 -0.172799,0.172799z"/>
       <rect id="_560404168" class="fil5" x="0.934535" y="4.61076" width="4.95759" height="0.116902"/>
       <rect id="_560403160" class="fil6" x="3.41333" y="4.61076" width="2.4788" height="0.116902"/>
       <rect id="_560403040" class="fil7" x="2.98513" y="4.61076" width="0.856398" height="0.116902"/>
       <rect id="_560403352" class="fil8" x="3.41333" y="4.61076" width="0.428201" height="0.116902"/>
      </g>
      <g>
       <rect id="_560402248" class="fil9" x="1.59767" y="2.3871" width="3.6341" height="1.95976"/>
       <g>
        <rect id="_560402416" class="fil10" x="1.59767" y="2.14267" width="3.6341" height="0.244433"/>
        <g>
         <path id="_560402368" class="fil11" d="M1.81143 2.30326l-0.0752992 0c-0.0149685,0 -0.0270984,-0.0121339 -0.0270984,-0.0270984l0 -0.0225c0,-0.0149685 0.0121339,-0.0270984 0.0270984,-0.0270984l0.0752992 -3.93701e-006c0.0149685,0 0.0270984,0.0121339 0.0270984,0.0270984l0 0.0225c0,0.014937 -0.0121339,0.0271024 -0.0270984,0.0271024z"/>
         <path id="_560401456" class="fil12" d="M2.0153 2.30326l-0.0752992 0c-0.0149685,0 -0.0270984,-0.0121339 -0.0270984,-0.0270984l0 -0.0225c0,-0.0149685 0.0121339,-0.0270984 0.0270984,-0.0270984l0.0752992 -3.93701e-006c0.0149685,0 0.0270984,0.0121339 0.0270984,0.0270984l0 0.0225c3.54331e-005,0.014937 -0.0121339,0.0271024 -0.0270984,0.0271024z"/>
         <path id="_560401672" class="fil13" d="M2.2192 2.30326l-0.0752992 0c-0.0149685,0 -0.0270984,-0.0121339 -0.0270984,-0.0270984l0 -0.0225c0,-0.0149685 0.0121339,-0.0270984 0.0270984,-0.0270984l0.0752992 -3.93701e-006c0.0149685,0 0.0270984,0.0121339 0.0270984,0.0270984l0 0.0225c3.93701e-006,0.014937 -0.0121299,0.0271024 -0.0270984,0.0271024z"/>
        </g>
       </g>
      </g>
     </g>
     <g>
      <path id="_560401048" class="fil14" d="M3.64756 3.97573l0 -0.0637323 -0.054 -0.0060315c-0.00426772,-0.0222992 -0.0126654,-0.0431339 -0.0243661,-0.0616654l0.0346654 -0.0433661 -0.0450669 -0.0450669 -0.0427992 0.0342008c-0.0180984,-0.0119331 -0.0385,-0.0206654 -0.0603661,-0.0254016l-0.00629921 -0.0564016 -0.0637323 0 -0.00629921 0.0564016c-0.0211654,0.00459843 -0.0409331,0.0129016 -0.0585669,0.0242323l-0.0462008 -0.0369016 -0.0450669 0.0450669 0.0369331 0.0462008c-0.0109331,0.0170669 -0.0190669,0.0360984 -0.0237323,0.0564685l-0.0608346 0.00679921 0 0.0637323 0.0601339 0.00670079c0.00423228,0.0201339 0.0118346,0.0390315 0.0222008,0.0560669l-0.0385984 0.0482992 0.0450669 0.0450669 0.0469331 -0.0375c0.0167992,0.0112992 0.0355984,0.0197992 0.0557992,0.0249016l0.00673228 0.0602323 0.0637323 0 0.00643307 -0.0577677c0.0212677,-0.00393307 0.0412008,-0.0115984 0.0591339,-0.0223346l0.0455 0.0363661 0.0450669 -0.0450669 -0.0347992 -0.0435669c0.0122992,-0.0178346 0.0214685,-0.0379685 0.0266654,-0.0596654l0.0557323 -0.00626772z"/>
      <path id="_560400904" class="fil15" d="M3.64756 3.97573l0 -0.0637323 -0.054 -0.0060315c-0.00426772,-0.0222992 -0.0126654,-0.0431339 -0.0243661,-0.0616654l0.0346654 -0.0433661 -0.0450669 -0.0450669 -0.0427992 0.0342008c-0.0180984,-0.0119331 -0.0385,-0.0206654 -0.0603661,-0.0254016l-0.00629921 -0.0564016 -0.0318661 0 0 0.465665 0.0263661 0 0.00643307 -0.0577677c0.0212677,-0.00393307 0.0412008,-0.0115984 0.0591339,-0.0223346l0.0455 0.0363661 0.0450669 -0.0450669 -0.0347992 -0.0435669c0.0122992,-0.0178346 0.0214685,-0.0379685 0.0266654,-0.0596654l0.0557323 -0.00616535z"/>
      <circle id="_560400784" class="fil16" cx="3.41746" cy="3.9399" r="0.0940669"/>
      <path id="_560401216" class="fil17" d="M3.41746 3.84586l0 0.188098c0.0519331,0 0.0940669,-0.0420984 0.0940669,-0.0940669 0,-0.0519685 -0.0421339,-0.0940315 -0.0940669,-0.0940315z"/>
     </g>
     <g>
      <path id="_560400376" class="fil14" d="M4.066 3.64903l0 0c-0.0107008,0.00876772 -0.0264685,0.00716535 -0.0352008,-0.0035l-0.162299 -0.198201 0.0387008 -0.0317008 0.162299 0.198201c0.00876772,0.0106654 0.00720079,0.0264331 -0.0035,0.0352008z"/>
      <circle id="_560400328" class="fil18" cx="3.79993" cy="3.3263" r="0.154331"/>
      <path id="_560399992" class="fil19" d="M3.90906 3.21717c-0.0301339,-0.0301339 -0.0696339,-0.0452008 -0.109134,-0.0452008l0 0.308634c0.0395,0 0.079,-0.0150669 0.109134,-0.0452008 0.0602677,-0.0602323 0.0602677,-0.157969 0,-0.218232z"/>
      <circle id="_560399272" class="fil0" cx="3.79993" cy="3.3263" r="0.137098"/>
      <g>
       <g>
        <path id="_560399080" class="fil20" d="M3.8969 3.22933c-0.0267677,-0.0267677 -0.0618661,-0.0401654 -0.0969685,-0.0401654l0 0.274232c0.0350984,0 0.0701654,-0.0134016 0.0969685,-0.0401654 0.0535315,-0.0535354 0.0535315,-0.140335 0,-0.193902z"/>
       </g>
      </g>
      <g>
       <g>
        <path id="_560399608" class="fil21" d="M3.93703 3.3263c0,-0.0757165 -0.0613819,-0.137098 -0.137098,-0.137098 -0.0757165,0 -0.137098,0.0613819 -0.137098,0.137098 0,0.0757165 0.0613819,0.137098 0.137098,0.137098 0.0757165,0 0.137098,-0.0613819 0.137098,-0.137098z"/>
       </g>
      </g>
     </g>
     <g>
      <g>
       <g>
        <path id="_560398912" class="fil22" d="M3.41563 3.2141l-0.319764 0c-0.0147323,0 -0.0266654,-0.0119331 -0.0266654,-0.0266654l-3.93701e-006 -0.577768c0,-0.0147323 0.0119331,-0.0266654 0.0266654,-0.0266654l0.319768 -3.93701e-006c0.0147323,0 0.0266654,0.0119331 0.0266654,0.0266654l0 0.577732c3.93701e-006,0.0147362 -0.0119331,0.0267047 -0.0266654,0.0267047z"/>
       </g>
      </g>
      <g>
       <g>
        <rect id="_560420800" class="fil23" x="3.08793" y="2.6345" width="0.335634" height="0.488835"/>
       </g>
      </g>
      <g>
       <g>
        <circle id="_560419672" class="fil24" cx="3.25573" cy="3.16873" r="0.0245984"/>
       </g>
      </g>
      <g>
       <g>
        <g>
         <circle id="_560415280" class="fil24" cx="3.19673" cy="2.60876" r="0.00616535"/>
        </g>
       </g>
       <g>
        <g>
         <path id="_560413288" class="fil24" d="M3.31517 2.6149l-0.0831693 0c-0.00316535,0 -0.00576772,-0.00256693 -0.00576772,-0.00576772l0 0c0,-0.00316535 0.00256693,-0.00576772 0.00576772,-0.00576772l0.0831693 3.93701e-006c0.00316535,0 0.00576772,0.00256693 0.00576772,0.00576772l0 0c-3.54331e-005,0.00319685 -0.00260236,0.00576378 -0.00576772,0.00576378z"/>
        </g>
       </g>
      </g>
     </g>
     <g>
      <g>
       <g>
        <circle id="_560939304" class="fil25" cx="4.6815" cy="2.98003" r="0.0220669"/>
       </g>
      </g>
      <g>
       <g>
        <g>
         <path id="_560944608" class="fil26" d="M4.30936 2.99026c-0.00263386,0 -0.00516535,-0.0010315 -0.0070315,-0.00290157l-0.093 -0.0930315c-0.00386614,-0.00386614 -0.00386614,-0.0101654 0,-0.0140315 0.00386614,-0.00386614 0.0101654,-0.00386614 0.0140315,0l0.086 0.086 0.086 -0.086c0.00186614,-0.00186614 0.00440157,-0.00290157 0.0070315,-0.00290157 0.00262992,0 0.00516535,0.0010315 0.0070315,0.00290157l0.086 0.086 0.086 -0.086c0.00386614,-0.00386614 0.0101654,-0.00386614 0.0140315,0l0.0930315 0.0930315c0.00386614,0.00386614 0.00386614,0.0101654 0,0.0140315 -0.00386614,0.00386614 -0.0101654,0.00386614 -0.0140315,0l-0.086 -0.086 -0.086 0.086c-0.00386614,0.00386614 -0.0101654,0.00386614 -0.0140315,0l-0.086 -0.086 -0.086 0.086c-0.0018937,0.00187008 -0.00442913,0.00290157 -0.00706299,0.00290157z"/>
        </g>
       </g>
      </g>
      <g>
       <g>
        <path id="_560959056" class="fil27" d="M4.74993 3.09083l-0.626764 0 0 -0.478299c0,-0.0054685 -0.00443307,-0.00993307 -0.00993307,-0.00993307 -0.0054685,0 -0.00993307,0.00443307 -0.00993307,0.00993307l0 0.488232c0,0.00136614 0.000267717,0.00266535 0.000767717,0.00386614 0.0015,0.00356693 0.0050315,0.00606693 0.00913386,0.00606693l0.636697 0c0.0054685,0 0.00993307,-0.00443307 0.00993307,-0.00993307 3.14961e-005,-0.00546457 -0.00440157,-0.00993307 -0.00990157,-0.00993307z"/>
       </g>
      </g>
      <g>
       <g>
        <circle id="_560955528" class="fil28" cx="4.21346" cy="2.8833" r="0.0220669"/>
       </g>
      </g>
      <g>
       <g>
        <circle id="_560953512" class="fil28" cx="4.30926" cy="2.98003" r="0.0220669"/>
       </g>
      </g>
      <g>
       <g>
        <circle id="_560953032" class="fil28" cx="4.40256" cy="2.89087" r="0.0220669"/>
       </g>
      </g>
      <g>
       <g>
        <path id="_560952048" class="fil28" d="M4.68846 2.97333l-0.0930315 -0.0930315c-0.00386614,-0.00386614 -0.0101654,-0.00386614 -0.0140315,0l-0.086 0.086 -0.0637992 -0.0637992 0 0.0280669 0.0567677 0.0567677c0.00386614,0.00386614 0.0101654,0.00386614 0.0140315,0l0.086 -0.086 0.086 0.086c0.00386614,0.00386614 0.0101654,0.00386614 0.0140315,0 0.00389764,-0.00383858 0.00389764,-0.0101378 3.14961e-005,-0.0140039z"/>
       </g>
      </g>
      <g>
       <g>
        <circle id="_560952672" class="fil25" cx="4.49396" cy="2.98003" r="0.0220669"/>
       </g>
      </g>
      <g>
       <g>
        <circle id="_560951664" class="fil25" cx="4.5888" cy="2.89087" r="0.0220669"/>
       </g>
      </g>
      <g>
       <g>
        <path id="_560951928" class="fil29" d="M4.74993 3.09083l-0.318331 0 0 0.0198661 0.318331 0c0.0054685,0 0.00993307,-0.00443307 0.00993307,-0.00993307 0,-0.00546457 -0.00443307,-0.00993307 -0.00993307,-0.00993307z"/>
       </g>
      </g>
     </g>
     <g>
      <g>
       <g>
        <g>
         <path id="_560950992" class="fil16" d="M4.5052 3.6038c-0.0521339,0.00893307 -0.0987323,0.0339331 -0.134567,0.0697677 -0.0453346,0.0453346 -0.0733661,0.107969 -0.0733661,0.177134 0,0.0691654 0.0280315,0.131799 0.0733661,0.177134 0.0453346,0.0453346 0.107969,0.0733661 0.177134,0.0733661 0.0691654,0 0.131799,-0.0280315 0.177134,-0.0733661 0.0453346,-0.0453346 0.0733661,-0.107969 0.0733661,-0.177134 0,-0.0547677 -0.0175669,-0.105433 -0.0474016,-0.146634 -0.0359685,-0.0497323 -0.0910315,-0.0854016 -0.150933,-0.0983661 -0.0268307,-0.00579921 -0.0679646,-0.00646457 -0.0947323,-0.00190157z"/>
        </g>
       </g>
      </g>
      <g>
       <g>
        <path id="_560950968" class="fil30" d="M4.7509 3.70406c-0.0359685,-0.0497323 -0.0910315,-0.0854016 -0.150933,-0.0983661 -0.0147008,-0.00316535 -0.0336339,-0.00483465 -0.0521654,-0.00490157l0 0.500433c0.0691654,0 0.131799,-0.0280315 0.177134,-0.0733661 0.0453346,-0.0453346 0.0733661,-0.107969 0.0733661,-0.177134 -3.54331e-005,-0.0547638 -0.0176024,-0.105433 -0.0474016,-0.146665z"/>
       </g>
      </g>
      <g>
       <g>
        <g>
         <rect id="_560950392" class="fil31" transform="matrix(0.758119 -0.652116 0.652116 0.758119 4.32985 3.64312)" width="0.0547283" height="0.0389646"/>
        </g>
       </g>
      </g>
      <g>
       <g>
        <g>
         <rect id="_560949912" class="fil32" transform="matrix(0.652116 -0.758119 0.758119 0.652116 4.69277 3.64116)" width="0.0389646" height="0.0547283"/>
        </g>
       </g>
      </g>
      <g>
       <g>
        <g>
         <polygon id="_560949000" class="fil31" points="4.52476,3.5383 4.57076,3.5383 4.57526,3.5383 4.57526,3.5428 4.57526,3.59563 4.57526,3.60013 4.57076,3.60013 4.52476,3.60013 4.52026,3.60013 4.52026,3.59563 4.52026,3.5428 4.52026,3.5383 "/>
        </g>
       </g>
      </g>
      <g>
       <g>
        <g>
         <rect id="_560949360" class="fil33" x="4.5438" y="4.02023" width="0.0079685" height="0.0403661"/>
        </g>
       </g>
      </g>
      <g>
       <g>
        <g>
         <rect id="_560948928" class="fil33" x="4.3386" y="3.84746" width="0.0403661" height="0.0079685"/>
        </g>
       </g>
      </g>
      <g>
       <g>
        <g>
         <rect id="_560947464" class="fil34" x="4.71657" y="3.84746" width="0.0403661" height="0.0079685"/>
        </g>
       </g>
      </g>
      <g>
       <g>
        <g>
         <rect id="_560947632" class="fil35" transform="matrix(0.7071 -0.7071 0.7071 0.7071 4.66427 3.72926)" width="0.0403661" height="0.0079685"/>
        </g>
       </g>
      </g>
      <g>
       <g>
        <g>
         <rect id="_560946792" class="fil15" transform="matrix(0.7071 -0.7071 0.7071 0.7071 4.397 3.99652)" width="0.0403661" height="0.0079685"/>
        </g>
       </g>
      </g>
      <g>
       <g>
        <g>
         <rect id="_560946624" class="fil33" x="4.5438" y="3.64227" width="0.0079685" height="0.0403661"/>
        </g>
       </g>
      </g>
      <g>
       <g>
        <g>
         <rect id="_560946024" class="fil15" transform="matrix(0.7071 -0.7071 0.7071 0.7071 4.397 3.70636)" width="0.0079685" height="0.0403661"/>
        </g>
       </g>
      </g>
      <g>
       <g>
        <g>
         <rect id="_560945376" class="fil35" transform="matrix(0.7071 -0.7071 0.7071 0.7071 4.66427 3.97362)" width="0.0079685" height="0.0403661"/>
        </g>
       </g>
      </g>
      <g>
       <g>
        <g>
         <path id="_560945592" class="fil32" d="M4.54776 3.58203c0.00923228,3.14961e-005 0.0184685,0.000433071 0.0275,0.00123228l0 -0.0404685 0 -0.0045 -0.0045 3.93701e-006 -0.023 0 0 0.0437323z"/>
        </g>
       </g>
      </g>
      <g>
       <g>
        <g>
         <rect id="_560945088" class="fil34" x="4.54776" y="3.64227" width="0.004" height="0.0403661"/>
        </g>
       </g>
      </g>
      <g>
       <g>
        <g>
         <rect id="_560944056" class="fil34" x="4.54776" y="4.02023" width="0.004" height="0.0403661"/>
        </g>
       </g>
      </g>
      <g>
       <g>
        <g>
         <path id="_560943984" class="fil34" d="M4.55053 3.86046l-0.00276772 -0.00290157 0 0.00329921c0.000964567,0 0.00189764,-0.000129921 0.00276772,-0.000397638z"/>
        </g>
       </g>
      </g>
      <g>
       <g>
        <g>
         <path id="_560943360" class="fil15" d="M4.54776 3.8387c0.0070315,0 0.0127323,0.00570079 0.0127323,0.0127323 0,0.0070315 -0.00570079,0.0127323 -0.0127323,0.0127323 -0.0070315,0 -0.0127323,-0.00570079 -0.0127323,-0.0127323 0,-0.0070315 0.00569685,-0.0127323 0.0127323,-0.0127323z"/>
        </g>
       </g>
      </g>
      <g>
       <g>
        <g>
         <path id="_560943096" class="fil33" d="M4.54776 3.84203c0.00520079,0 0.00943307,0.00423228 0.00943307,0.00943307 0,0.00520079 -0.00423228,0.00943307 -0.00943307,0.00943307 -0.00520079,0 -0.00943307,-0.00423228 -0.00943307,-0.00943307 0,-0.00523228 0.00423228,-0.00943307 0.00943307,-0.00943307z"/>
        </g>
       </g>
      </g>
      <g>
       <g>
        <path id="_560942256" class="fil36" d="M4.54776 3.8387l0 0.0255c0.0070315,0 0.0127323,-0.00570079 0.0127323,-0.0127323 3.54331e-005,-0.00706693 -0.00570079,-0.0127677 -0.0127323,-0.0127677z"/>
       </g>
      </g>
      <g>
       <g>
        <path id="_560942664" class="fil34" d="M4.54776 3.84203l0 0.0188661c0.00520079,0 0.00943307,-0.00423228 0.00943307,-0.00943307 0,-0.00523228 -0.00423228,-0.00943307 -0.00943307,-0.00943307z"/>
       </g>
      </g>
      <g>
       <g>
        <g>
         <rect id="_560941464" class="fil33" transform="matrix(0.724877 -0.688878 0.688878 0.724877 4.50989 3.88173)" width="0.168803" height="0.00843307"/>
        </g>
       </g>
      </g>
      <g>
       <g>
        <polygon id="_560942040" class="fil34" points="4.54776,3.8572 4.63786,3.77156 4.63206,3.76546 4.54776,3.84556 "/>
       </g>
      </g>
      <g>
       <g>
        <path id="_560940672" class="fil37" d="M4.75966 3.68453c-0.0361339,-0.0459685 -0.093,-0.0823661 -0.149366,-0.0957992 -0.0342323,-0.00813386 -0.0812992,-0.00893307 -0.115732,-0.0020315 -0.0518346,0.0104016 -0.0995,0.0359331 -0.137165,0.0735984 -0.0506339,0.0506339 -0.0788661,0.118768 -0.0788661,0.190402 0,0.0716339 0.0282323,0.139732 0.0788661,0.190402 0.0506339,0.0506339 0.118768,0.0788661 0.190402,0.0788661 0.0716339,0 0.139732,-0.0282323 0.190402,-0.0788661 0.0506339,-0.0506339 0.0788661,-0.118768 0.0788661,-0.190402 -3.54331e-005,-0.0606693 -0.0202717,-0.11887 -0.0574055,-0.166169zm-0.0347638 0.343331c-0.0453346,0.0453346 -0.107969,0.0733661 -0.177134,0.0733661 -0.0691654,0 -0.131799,-0.0280315 -0.177134,-0.0733661 -0.0453346,-0.0453346 -0.0733661,-0.107969 -0.0733661,-0.177134 0,-0.0691654 0.0280315,-0.131799 0.0733661,-0.177134 0.0358346,-0.0358346 0.0824331,-0.0608661 0.134567,-0.0697677 0.0267677,-0.00456693 0.0679016,-0.00390157 0.0947323,0.00190157 0.0599016,0.0129685 0.114969,0.0486339 0.150933,0.0983661 0.0297992,0.0412323 0.0474016,0.0918661 0.0474016,0.146634 0,0.0691693 -0.0280354,0.131803 -0.0733661,0.177134z"/>
       </g>
      </g>
      <g>
       <g>
        <path id="_560940840" class="fil36" d="M4.75966 3.68453c-0.0361339,-0.0459685 -0.093,-0.0823661 -0.149366,-0.0957992 -0.0184331,-0.00440157 -0.0405984,-0.00663386 -0.0625,-0.00670079l0 0.0187677c0.0185315,9.84252e-005 0.0375,0.00173228 0.0521654,0.00490157 0.0599016,0.0129685 0.114969,0.0486339 0.150933,0.0983661 0.0297992,0.0412323 0.0474016,0.0918661 0.0474016,0.146634 0,0.0691654 -0.0280315,0.131799 -0.0733661,0.177134 -0.0453346,0.0453346 -0.107969,0.0733661 -0.177134,0.0733661l0 0.0187677c0.0716339,0 0.139732,-0.0282323 0.190402,-0.0788661 0.0506339,-0.0506339 0.0788661,-0.118768 0.0788661,-0.190402 -3.14961e-005,-0.0606693 -0.0202677,-0.11887 -0.0574016,-0.166169z"/>
       </g>
      </g>
     </g>
    </g>
    <g>
     <g>
      <g>
       <g>
        <g>
         <polygon id="_560939976" class="fil16" points="2.1245,3.80823 2.15373,3.889 2.10933,3.90503 2.18993,4.1322 2.09437,4.16676 1.97767,3.86136 "/>
        </g>
       </g>
       <g>
        <g>
         <rect id="_560940504" class="fil15" transform="matrix(0.940315 -0.340305 0.340305 0.940315 1.83341 3.61064)" width="0.256925" height="0.307894"/>
        </g>
       </g>
       <g>
        <g>
         <rect id="_560939232" class="fil16" transform="matrix(-0.940315 0.340305 -0.340305 -0.940315 1.91351 3.83244)" width="0.0886614" height="0.15863"/>
        </g>
       </g>
       <g>
        <g>
         <path id="_560939400" class="fil16" d="M2.4435 3.2403c-0.0689016,0.127402 -0.191335,0.243402 -0.359031,0.309201l0.0874331 0.241598 0.000401575 -0.000133858c0.140598,-0.0445 0.313201,-0.0414331 0.482134,0.0322677l-0.210937 -0.582933z"/>
        </g>
       </g>
       <g>
        <g>
         <path id="_560962584" class="fil15" d="M2.71473 3.85746l0 0c-0.0234016,0.0084685 -0.0492323,-0.00363386 -0.0577008,-0.0270315l-0.216165 -0.597366c-0.0084685,-0.0234016 0.00363386,-0.0492323 0.0270315,-0.0577008l0 0c0.0234016,-0.0084685 0.0492323,0.00363386 0.0577008,0.0270315l0.216165 0.597366c0.0084685,0.0234016 -0.00363386,0.0492323 -0.0270315,0.0577008z"/>
        </g>
       </g>
       <g>
        <g>
         <path id="_560961264" class="fil16" d="M2.66876 3.59806c0.0219685,-0.0084685 0.0386339,-0.0248346 0.0479331,-0.0446654 0.0095315,-0.0203346 0.0112992,-0.0443346 0.0030315,-0.0671339 -0.0162992,-0.0450315 -0.0655669,-0.0685984 -0.110701,-0.0532992l0.0597362 0.165098z"/>
        </g>
       </g>
      </g>
     </g>
     <g>
      <g>
       <g>
        <path id="_602214376" class="fil38" d="M2.75863 3.25196c-0.00140157,0 -0.00283465,-0.000267717 -0.00423228,-0.000799213 -0.006,-0.00233465 -0.0089685,-0.00909843 -0.00663386,-0.0150984l0.0602008 -0.154567c0.00233465,-0.006 0.00909843,-0.0089685 0.0150984,-0.00663386 0.006,0.00233465 0.0089685,0.00909843 0.00663386,0.0150984l-0.0602008 0.154567c-0.00179921,0.00459843 -0.00619685,0.00743307 -0.0108661,0.00743307z"/>
       </g>
      </g>
      <g>
       <g>
        <path id="_602227744" class="fil38" d="M2.8337 3.42436c-0.00443307,0 -0.00863386,-0.0025315 -0.0105984,-0.00679921 -0.00270079,-0.00586614 -0.000133858,-0.0127677 0.00573228,-0.0154685l0.163268 -0.0749016c0.00583465,-0.00270079 0.0127677,-0.000133858 0.0154685,0.00573228 0.00270079,0.00586614 0.000133858,0.0127677 -0.00573228,0.0154685l-0.163268 0.0749016c-0.00157087,0.000700787 -0.00323622,0.00106693 -0.00487008,0.00106693z"/>
       </g>
      </g>
      <g>
       <g>
        <path id="_602213128" class="fil38" d="M3.02756 3.64486c-0.00129921,0 -0.00263386,-0.000232283 -0.0039685,-0.000700787l-0.148165 -0.0533346c-0.00606693,-0.00216535 -0.00920079,-0.00886614 -0.0070315,-0.0149331 0.00216535,-0.00606693 0.00886614,-0.00920079 0.0149331,-0.0070315l0.148165 0.0533346c0.00606693,0.00216535 0.00920079,0.00886614 0.0070315,0.0149331 -0.00169685,0.00479921 -0.00616142,0.00773228 -0.0109646,0.00773228z"/>
       </g>
      </g>
     </g>
    </g>
   </g>
   <g id="Layer_9">
   </g>
   <g id="Layer_10">
   </g>
   <g id="Layer_11">
   </g>
   <g id="Layer_12">
   </g>
   <g id="Layer_13">
   </g>
   <g id="Layer_14">
   </g>
   <g id="Layer_15">
   </g>
   <g id="Layer_16">
   </g>
   <g id="Layer_17">
   </g>
   <g id="Layer_18">
   </g>
   <g id="Layer_19">
   </g>
   <g id="Layer_20">
   </g>
   <g id="Layer_21">
   </g>
   <g id="Layer_22">
   </g>
   <g id="Layer_23">
   </g>
   <g id="Layer_24">
   </g>
   <g id="Layer_25">
   </g>
   <g id="Layer_26">
   </g>
  </g>
 </g>
 <rect class="fil39" width="6.82666" height="6.82666"/>
</svg>
