<?xml version="1.0" encoding="UTF-8"?> <svg xmlns="http://www.w3.org/2000/svg" width="127" height="162" viewBox="0 0 127 162" fill="none"> <path d="M63.4462 3.1684L123.801 123.858L63.4462 158.724V3.1684Z" fill="#3A3A3A"></path> <path d="M63.4465 3.1684V158.724L3.09109 123.858L63.4465 3.1684Z" fill="white"></path> <path d="M63.5527 161.891C62.994 161.892 62.446 161.738 61.9688 161.448L1.61344 126.603C0.89454 126.202 0.361508 125.535 0.128581 124.746C-0.104346 123.956 -0.018544 123.107 0.367551 122.38L60.6172 1.83775C60.8789 1.30782 61.2836 0.861671 61.7855 0.549705C62.2875 0.237739 62.8667 0.0724093 63.4577 0.0724093C64.0487 0.0724093 64.6279 0.237739 65.1298 0.549705C65.6318 0.861671 66.0364 1.30782 66.298 1.83775L126.632 122.527C127.018 123.254 127.104 124.104 126.871 124.893C126.638 125.683 126.105 126.35 125.386 126.751L65.0521 161.596C64.5839 161.815 64.0691 161.917 63.5527 161.891ZM7.35762 122.612L63.5527 155.049L119.727 122.612L63.5527 10.285L7.35762 122.612Z" fill="#3A3A3A"></path> <path d="M63.5521 161.891C62.712 161.891 61.9063 161.557 61.3122 160.963C60.7182 160.369 60.3844 159.563 60.3844 158.723V3.16771C60.3844 2.32758 60.7182 1.52184 61.3122 0.927781C61.9063 0.333721 62.712 0 63.5521 0C64.3923 0 65.198 0.333721 65.7921 0.927781C66.3861 1.52184 66.7199 2.32758 66.7199 3.16771V158.723C66.7143 159.562 66.3788 160.364 65.7859 160.957C65.193 161.55 64.3906 161.885 63.5521 161.891Z" fill="#3A3A3A"></path> </svg> 