<?xml version="1.0" encoding="UTF-8"?> <svg xmlns="http://www.w3.org/2000/svg" width="311" height="304" viewBox="0 0 311 304" fill="none"> <path d="M3.30514 119.752C3.30514 151.666 25.7268 190.499 53.3824 206.489C53.3824 206.489 205.921 294.446 207.828 295.333C212.96 297.81 218.469 299.414 224.129 300.079C230.497 300.913 236.968 299.775 242.669 296.819L243.002 296.664C251.075 292.228 256.864 283.69 259.281 271.847C260.126 267.462 260.542 263.006 260.523 258.54C260.523 221.237 234.375 175.884 202.084 157.255C199.867 156.013 197.804 155.037 195.719 153.994C191.284 109.861 160.523 60.0494 123.353 38.6701C116.6 34.6435 109.259 31.6953 101.597 29.9321C92.1732 27.5141 82.2006 28.4714 73.409 32.6377L72.6772 33.0369C58.9048 40.4221 50.3663 56.9889 50.3663 80.7856C50.3663 83.4248 50.3663 86.1083 50.6768 88.7696V89.4128C24.2409 75.7291 3.30514 88.8583 3.30514 119.752Z" fill="white"></path> <path d="M119.672 7.7772L73.4097 32.5941C82.2012 28.4277 92.1739 27.4705 101.597 29.8884C109.26 31.6517 116.601 34.5999 123.354 38.6265C160.524 60.0723 191.196 109.884 195.72 153.951C197.805 154.904 199.934 155.969 202.085 157.211C234.376 175.84 260.523 221.194 260.523 258.497C260.542 262.962 260.127 267.419 259.282 271.803C256.864 283.646 251.076 292.118 243.003 296.62L289.798 271.471C300.887 265.571 307.673 252.287 307.673 233.214C307.668 229.126 307.378 225.043 306.808 220.994C304.074 203.601 297.826 186.947 288.445 172.048C278.066 155.193 264.294 140.644 249.191 131.928C246.973 130.708 244.955 129.6 242.87 128.668C238.323 84.5344 207.674 34.7454 170.504 13.3438C150.81 1.96665 132.935 0.658119 119.828 7.68847L119.672 7.7772Z" fill="#D7DCE0"></path> <path d="M228.253 303.628C233.824 303.694 239.323 302.359 244.244 299.747H244.399C244.812 299.575 245.187 299.321 245.5 299.001C245.813 298.68 246.058 298.3 246.221 297.883C246.383 297.465 246.46 297.019 246.446 296.572C246.432 296.124 246.327 295.684 246.139 295.277C245.951 294.871 245.682 294.507 245.35 294.207C245.018 293.906 244.628 293.677 244.205 293.531C243.781 293.385 243.332 293.326 242.886 293.357C242.439 293.389 242.003 293.511 241.604 293.715L241.272 293.87C236.114 296.564 230.252 297.602 224.483 296.842C219.186 296.22 214.03 294.721 209.225 292.406C206.475 290.965 107.207 233.746 55.045 203.695C28.4317 188.171 6.63106 150.646 6.63106 119.841C6.63106 105.891 11.0667 95.4456 19.2059 90.5221C27.3452 85.5986 37.68 86.3083 49.1237 92.3628C49.7905 92.7051 50.5498 92.8231 51.289 92.6992C52.0281 92.5753 52.7077 92.2162 53.2265 91.6753C53.5367 91.3285 53.7701 90.92 53.9115 90.4767C54.0529 90.0334 54.0992 89.5651 54.0471 89.1027V88.5261C53.8475 86.3083 53.7588 83.7135 53.7588 80.8304C53.7588 59.0297 61.0553 43.1283 74.3176 36.0092L75.0716 35.61C75.848 35.1865 76.4244 34.4719 76.674 33.6235C76.9235 32.775 76.8257 31.8622 76.4022 31.0858C75.9787 30.3093 75.2641 29.7329 74.4156 29.4834C73.5671 29.2339 72.6545 29.3316 71.8781 29.7551L71.1461 30.1543C55.6216 38.4709 47.1055 56.4793 47.1055 80.8304C47.1055 81.9837 47.1055 83.0482 47.1055 84.1127C35.3512 79.3888 24.3732 79.6772 15.7683 84.8446C5.58869 91.0544 -7.63517e-05 103.474 -7.63517e-05 119.841C-7.63517e-05 152.753 23.2199 193.028 51.7405 209.461C77.2449 224.165 204.501 297.529 206.453 298.439C211.873 301.045 217.689 302.731 223.663 303.429C225.187 303.586 226.72 303.653 228.253 303.628Z" fill="#3A3A3A"></path> <path d="M243.003 299.991C243.552 299.987 244.093 299.85 244.578 299.592L291.373 274.442C304.036 267.678 311 253.041 311 233.258C310.986 229.015 310.69 224.777 310.113 220.572C307.281 202.732 300.877 185.646 291.284 170.34C280.195 152.42 265.868 137.761 250.854 129.089C249.102 128.091 247.483 127.226 245.975 126.494C240.608 81.4071 209.16 31.7955 172.167 10.4383C152.207 -1.13847 132.979 -3.15666 118.253 4.73862L117.92 4.93821L71.8352 29.6664C71.0529 30.0752 70.465 30.778 70.2009 31.6202C69.9368 32.4624 70.0181 33.3751 70.4269 34.1574C70.8357 34.9397 71.5385 35.5276 72.3807 35.7917C73.223 36.0558 74.1357 35.9745 74.918 35.5657C83.0286 31.7609 92.2107 30.8983 100.888 33.1261C108.214 34.8279 115.232 37.656 121.691 41.5093C157.53 62.179 187.936 110.704 192.416 154.35C192.471 154.928 192.679 155.481 193.018 155.952C193.357 156.423 193.815 156.797 194.345 157.033C196.563 158.076 198.559 159.074 200.422 160.16C231.737 178.213 257.197 222.369 257.197 258.563C257.211 262.805 256.818 267.038 256.021 271.204C253.803 281.827 248.791 289.634 241.384 293.759C240.741 294.118 240.235 294.68 239.946 295.357C239.656 296.034 239.6 296.788 239.785 297.501C239.97 298.213 240.386 298.845 240.969 299.295C241.551 299.746 242.267 299.991 243.003 299.991ZM137.88 6.64587C147.328 6.64587 157.84 9.86164 168.929 16.2045C204.746 36.8963 235.152 85.3991 239.654 129.045C239.71 129.628 239.921 130.187 240.263 130.662C240.606 131.138 241.07 131.513 241.606 131.751C243.424 132.571 245.398 133.591 247.616 134.855C261.699 142.972 275.227 156.834 285.695 173.844C294.828 188.354 300.918 204.569 303.593 221.504C304.144 225.398 304.426 229.325 304.435 233.258C304.435 250.468 298.714 263.021 288.312 268.587L258.594 284.555C260.45 280.731 261.806 276.683 262.63 272.513C263.514 267.916 263.952 263.244 263.939 258.563C263.939 220.24 236.971 173.511 203.837 154.327C202.285 153.44 200.666 152.575 198.914 151.733C193.569 106.645 162.121 57.0337 125.106 35.6765C118.053 31.4819 110.392 28.407 102.396 26.5615C99.5981 25.953 96.759 25.5527 93.902 25.3639L121.247 10.6822L121.58 10.4826C126.617 7.88818 132.215 6.57065 137.88 6.64587Z" fill="#3A3A3A"></path> </svg> 