<?xml version="1.0" encoding="UTF-8"?> <svg xmlns="http://www.w3.org/2000/svg" width="202" height="144" viewBox="0 0 202 144" fill="none"> <path d="M60.5106 117.886C59.9841 118.03 59.434 118.068 58.8926 117.997C58.3513 117.925 57.8297 117.747 57.3584 117.471L30.7133 102.108L7.73482 141.926C7.37277 142.557 6.85081 143.08 6.22159 143.444C5.59236 143.809 4.87816 144 4.15117 144C3.42422 143.999 2.70979 143.811 2.0773 143.453C1.60356 143.181 1.18837 142.818 0.855652 142.385C0.522949 141.953 0.279312 141.458 0.138916 140.93C-0.0014801 140.403 -0.0358582 139.853 0.0377045 139.312C0.111267 138.771 0.291321 138.249 0.567505 137.778L25.6199 94.4096C25.8897 93.9365 26.2508 93.5217 26.6823 93.1892C27.1137 92.8567 27.6069 92.6131 28.1332 92.4727C28.6594 92.3322 29.2084 92.2977 29.7481 92.371C30.2878 92.4444 30.8077 92.624 31.2774 92.8998L57.9224 108.263L85.2146 60.9954C85.7632 60.0436 86.667 59.3485 87.7277 59.0623C88.7883 58.7762 89.9192 58.9225 90.8721 59.4692L116.638 74.4011L137.824 37.5028C138.095 37.0299 138.455 36.6149 138.886 36.282C139.317 35.9491 139.81 35.7047 140.336 35.5628C140.862 35.4209 141.41 35.3845 141.95 35.4555C142.49 35.5264 143.011 35.7035 143.482 35.9764L166.709 49.3652L193.985 2.09756C194.255 1.62204 194.617 1.20479 195.049 0.869647C195.482 0.534503 195.976 0.288125 196.504 0.144805C197.032 0.00148539 197.583 -0.0358747 198.125 0.034631C198.668 0.105137 199.191 0.282223 199.664 0.555731C200.138 0.829239 200.553 1.19358 200.885 1.62811C201.218 2.06263 201.461 2.55868 201.601 3.08751C201.74 3.61634 201.774 4.16758 201.7 4.70954C201.626 5.25151 201.445 5.77341 201.169 6.2453L171.819 57.1132C171.259 58.0603 170.356 58.7555 169.298 59.0544C168.233 59.3367 167.1 59.1876 166.145 58.6396L142.918 45.2506L121.665 82.0328C121.393 82.5044 121.032 82.9175 120.6 83.2488C120.168 83.5801 119.676 83.8228 119.15 83.9631C118.624 84.1034 118.076 84.1386 117.537 84.0664C116.997 83.9942 116.478 83.8163 116.007 83.5427L90.2582 68.6108L62.9495 115.895C62.4326 116.856 61.5554 117.572 60.5106 117.886Z" fill="#3A3A3A"></path> </svg> 