<?xml version="1.0" encoding="UTF-8"?> <svg xmlns="http://www.w3.org/2000/svg" width="238" height="154" viewBox="0 0 238 154" fill="none"> <path d="M202.154 137.007C200.322 136.877 198.483 136.877 196.651 137.007L196.934 139.843C198.654 139.742 200.377 139.742 202.097 139.843C204.139 139.843 205.898 139.843 207.543 139.843C209.168 139.758 210.797 139.758 212.422 139.843L212.592 137.007C210.777 137.007 209.16 137.007 207.43 137.007C205.699 137.007 204.111 137.035 202.154 137.007Z" fill="#E0DFE6"></path> <path d="M215.331 122.372C212.495 122.372 202.113 122.372 198.596 122.372C197.603 122.372 196.667 122.372 195.759 122.372C194.851 122.372 192.923 122.542 190.937 122.372V125.208H192.554C193.944 125.208 195.05 125.208 196.043 125.208C197.036 125.208 197.858 125.208 198.879 125.208C202.453 125.208 212.807 125.208 215.899 125.208L215.331 122.372Z" fill="#E0DFE6"></path> <path d="M219.594 110.486H213.921C204.184 110.16 194.435 110.445 184.733 111.338L185.13 114.174C194.692 113.318 204.297 113.043 213.893 113.351H219.566L219.594 110.486Z" fill="#E0DFE6"></path> <path d="M233.49 97.8066L231.249 99.5653L237.347 107.451C237.603 106.203 237.829 104.955 238 103.678L233.49 97.8066Z" fill="#E0DFE6"></path> <path d="M176.079 60.9307C182.319 60.9307 207.281 61.3843 213.436 61.3843C217.208 61.3843 220.13 61.5549 222.939 61.7251C225.747 61.8953 227.732 62.0086 230.285 62.0086C229.689 61.0159 229.037 60.0798 228.356 59.1721C226.597 59.1721 224.896 59.03 223.109 58.9166C220.272 58.9166 217.265 58.5762 213.436 58.5762C207.195 58.5762 182.234 58.1226 176.079 58.1226C165.66 58.0477 155.244 58.5306 144.877 59.5693L145.16 62.4058C155.432 61.3583 165.754 60.8659 176.079 60.9307Z" fill="#E0DFE6"></path> <path d="M198.903 46.3515C205.058 46.3515 209.852 46.3515 214.163 46.3515C212.758 45.5446 211.309 44.8154 209.824 44.1673L208.065 43.4014H198.903C176.04 43.4014 155.674 43.9402 136.499 45.0749L136.669 47.9114C155.759 46.8902 176.097 46.3515 198.903 46.3515Z" fill="#E0DFE6"></path> <path d="M234.961 71.5691C229.033 72.0797 222.566 72.3351 215.106 72.3351C207.22 72.3351 199.193 72.0512 191.392 71.7959C183.592 71.5406 175.592 71.2572 167.735 71.2572C163.395 71.2572 159.481 71.2571 155.708 71.5123V74.3489H156.9C160.275 74.3489 163.792 74.1501 167.65 74.1501C175.45 74.1501 183.45 74.4056 191.222 74.6893C198.994 74.9729 207.107 75.228 215.02 75.228C222.934 75.228 229.515 74.973 235.727 74.4057C235.614 73.4129 235.188 72.4768 234.961 71.5691Z" fill="#E0DFE6"></path> <path d="M226.46 87.029H164.226V89.8655H226.46V87.029Z" fill="#E0DFE6"></path> <path d="M228.716 116.783L226.447 118.513C227.468 119.818 229.283 121.917 231.354 124.442C231.836 123.506 232.29 122.598 232.715 121.605C230.985 119.62 229.481 117.889 228.716 116.783Z" fill="#E0DFE6"></path> <path d="M221.787 99.1397C215.221 98.8401 208.64 99.0296 202.102 99.7069C197.535 100.104 192.826 100.501 188.202 100.501C183.873 100.544 179.553 100.097 175.325 99.1681L174.672 102.005C179.115 102.978 183.654 103.444 188.202 103.395C192.94 103.395 197.705 102.997 202.385 102.6C208.772 101.924 215.201 101.735 221.617 102.033L221.787 99.1397Z" fill="#E0DFE6"></path> <path d="M89.9297 130.115L87.7739 131.987L90.0146 134.54L96.5104 137.66C96.17 137.32 91.5749 132.044 89.9297 130.115Z" fill="#E0DFE6"></path> <path d="M140.977 152.325L99.0242 97.8066L96.7832 99.5653L137.743 152.58L140.097 153.119L140.977 152.325Z" fill="#E0DFE6"></path> <path d="M103.405 127.845C100.569 124.072 96.8527 119.817 93.4205 116.13L91.3499 118.059C94.7254 121.69 98.2993 125.888 101.164 129.575C104.37 133.717 107.944 137.631 111.404 141.404L115.148 145.573L120.595 147.531C118.269 144.694 115.886 142.113 113.503 139.503C110.071 135.759 106.525 131.873 103.405 127.845Z" fill="#E0DFE6"></path> <path d="M77.258 113.322H82.931V110.485H77.258C69.7127 110.485 59.9268 110.315 52.5801 110.882L52.8921 111.109C53.9416 111.932 55.0195 112.698 56.0974 113.492C62.8484 113.322 70.8757 113.322 77.258 113.322Z" fill="#E0DFE6"></path> <path d="M78.7228 122.372C76.9925 122.372 72.7661 122.372 68.88 122.372C70.355 123.365 71.8583 124.301 73.39 125.208C75.716 125.208 77.7868 125.208 78.8647 125.208L78.7228 122.372Z" fill="#E0DFE6"></path> <path d="M65.4554 99.5933C60.8886 99.9904 56.1798 100.387 51.5562 100.387C47.4503 100.427 43.3517 100.028 39.3306 99.1961L43.0466 102.685C45.8688 103.046 48.7111 103.226 51.5562 103.224C56.2933 103.224 61.087 102.827 65.739 102.43C72.1165 101.754 78.5362 101.564 84.9424 101.862L85.1692 99.0257C78.5929 98.7247 72.0035 98.9146 65.4554 99.5933Z" fill="#E0DFE6"></path> <path d="M89.8216 87.0563H27.5876V87.5386L29.9421 89.8929H89.8216V87.0563Z" fill="#E0DFE6"></path> <path d="M144.713 105.126C140.6 99.5948 136.487 94.0637 132.261 88.6175C125.316 79.4432 117.863 70.6645 109.937 62.3227L107.895 64.2797C115.739 72.5594 123.126 81.2619 130.02 90.3477C134.247 95.7939 150.67 117.891 154.896 123.365C161.848 132.526 169.291 141.304 177.192 149.66L179.263 147.703C171.418 139.423 164.032 130.721 157.137 121.635C152.939 116.16 148.826 110.657 144.713 105.126Z" fill="#E0DFE6"></path> <path d="M116.921 45.2446L114.766 47.1168C128.608 63.0014 142.819 80.4176 158.25 100.387C169.596 115.194 181.935 131.589 196.543 151.672L199.38 150.707C184.516 130.284 172.12 113.662 160.519 98.6566C145.031 78.7157 130.792 61.2427 116.921 45.2446Z" fill="#E0DFE6"></path> <path d="M99.2784 71.5123C93.0947 72.0797 86.2872 72.3351 78.5434 72.3351C70.7996 72.3351 62.6304 72.0512 54.8299 71.7959C47.0294 71.5406 39.0301 71.2572 31.1729 71.2572C26.8329 71.2572 22.9186 71.2571 19.1743 71.5123V74.3489H20.3658C23.7413 74.3489 27.2587 74.1501 31.1164 74.1501C38.9169 74.1501 46.9442 74.4056 54.6879 74.6893C62.4317 74.9729 70.5726 75.228 78.4866 75.228C86.4006 75.228 93.2083 74.9446 99.4771 74.3773L99.2784 71.5123Z" fill="#E0DFE6"></path> <path d="M105.416 82.716C107.827 85.5525 110.267 88.6161 112.877 91.9915C118.152 98.8276 123.343 106.174 128.336 113.01C133.328 119.847 138.604 127.193 143.965 134.228C149.326 141.262 154.148 146.907 158.914 152.013L160.984 150.084C156.304 145.035 151.454 139.277 146.206 132.498C140.958 125.718 135.682 118.315 130.662 111.337C125.641 104.359 120.422 97.1541 115.117 90.2613C112.281 86.4603 109.444 83.0564 106.778 79.9078L104.565 81.6949L105.388 82.7444L105.416 82.716Z" fill="#E0DFE6"></path> <path d="M108.957 44.6773C102.603 44.5071 97.611 44.3084 93.2143 44.1382C83.3715 43.7694 76.1953 43.5142 62.2679 43.5142C43.6318 43.5142 26.6691 43.883 10.6993 44.6205C10.4157 45.5566 10.1887 46.521 9.99019 47.4571C26.1301 46.6912 43.3481 46.3224 62.2679 46.3224C76.2237 46.3224 83.315 46.5776 93.1011 46.9463C97.5545 47.1165 102.518 47.3153 108.872 47.4855L108.957 44.6773Z" fill="#E0DFE6"></path> <path d="M101.877 58.7188C96.8068 59.2514 91.6976 59.3086 86.6165 58.8891C83.78 58.8891 80.9434 58.5484 76.9438 58.5484C70.7318 58.5484 45.7421 58.0948 39.6151 58.0948C29.5953 58.0199 19.578 58.4648 9.60426 59.4279C9.60426 60.364 9.85962 61.3 10.0298 62.2645C19.8629 61.3261 29.7376 60.8907 39.6151 60.9598C45.8272 60.9598 70.8169 61.4134 76.9438 61.4134C80.7164 61.4134 83.638 61.5835 86.4746 61.7537C91.7066 62.1873 96.9678 62.1305 102.189 61.5837L101.877 58.7188Z" fill="#E0DFE6"></path> <path d="M72.1705 30.7789C71.0759 30.6809 69.9746 30.6809 68.88 30.7789L69.3056 33.6155C70.2489 33.5238 71.1988 33.5238 72.1421 33.6155C73.6258 33.7408 75.1199 33.6258 76.567 33.2751L75.773 30.4386C74.5981 30.744 73.3818 30.8589 72.1705 30.7789Z" fill="#E0DFE6"></path> <path d="M39.4639 30.5239L41.5061 28.5665C39.3504 26.3257 37.1948 23.9714 35.0107 21.5036C33.9895 21.7589 32.9966 22.0423 32.0038 22.3827C34.585 25.3895 37.0528 27.9711 39.4639 30.5239Z" fill="#E0DFE6"></path> <path d="M50.0916 20.6242C53.5522 25.3329 57.1548 30.2688 60.899 35.4313L63.1965 33.7575L54.0345 21.2202H53.3821C52.2759 20.9081 51.1979 20.7661 50.0916 20.6242Z" fill="#E0DFE6"></path> <path d="M121.515 33.9004C122.792 35.5456 123.898 37.1055 124.947 38.694L127.301 37.1341C126.252 35.4889 125.089 33.8721 123.756 32.1702C123.33 31.6028 122.877 31.0921 122.423 30.5531C120.976 30.2695 119.586 29.9577 118.026 29.7024C119.217 31.0639 120.409 32.5105 121.515 33.9004Z" fill="#E0DFE6"></path> <path d="M109.093 37.7281L111.334 35.9979C109.348 33.445 106.909 30.3248 104.271 27.4882L99.9029 26.7791C103.335 30.6368 106.597 34.5228 109.093 37.7281Z" fill="#E0DFE6"></path> <path d="M19.0336 30.4384C19.7711 31.261 20.5084 32.1119 21.2459 32.8778L23.3168 30.9488C22.5793 30.1829 21.8418 29.332 21.1043 28.5094C20.3801 29.115 19.689 29.759 19.0336 30.4384Z" fill="#E0DFE6"></path> <path d="M91.105 36.7349L93.7148 35.6002C91.3454 31.264 88.1112 27.4603 84.2124 24.4244H82.9074L81.7447 26.2963C85.5957 29.0438 88.7919 32.6084 91.105 36.7349Z" fill="#E0DFE6"></path> <path d="M140.977 33.1899L140.552 32.6227L136.779 32.3956L138.736 34.9201L140.977 33.1899Z" fill="#E0DFE6"></path> <path d="M190.1 86.2615C189.359 86.2584 188.633 86.0525 188.001 85.666L53.3783 7.94456C52.4003 7.38034 51.6865 6.45095 51.3939 5.36044C51.1013 4.26993 51.2538 3.10784 51.8181 2.12985C52.3823 1.15186 53.312 0.438024 54.4025 0.145448C55.493 -0.147127 56.6551 0.00539012 57.6331 0.569614L192.255 78.3194C193.07 78.7883 193.706 79.5137 194.065 80.3824C194.424 81.2512 194.485 82.2145 194.239 83.1217C193.993 84.0288 193.453 84.8289 192.705 85.3969C191.956 85.965 191.04 86.2689 190.1 86.2615Z" fill="#3A3A3A"></path> <path d="M164.503 101.04C163.756 101.044 163.022 100.848 162.376 100.473L27.7535 22.7514C27.2692 22.4721 26.8447 22.1003 26.5042 21.6569C26.1637 21.2135 25.9139 20.7073 25.7691 20.1673C25.6242 19.6273 25.5872 19.0641 25.66 18.5098C25.7328 17.9555 25.9139 17.421 26.1932 16.9367C26.4726 16.4525 26.8447 16.0279 27.2881 15.6874C27.7315 15.3469 28.2377 15.0972 28.7777 14.9523C29.3177 14.8074 29.8809 14.7704 30.4352 14.8432C30.9895 14.916 31.524 15.0971 32.0083 15.3765L166.631 93.0979C167.443 93.5656 168.078 94.2884 168.438 95.1543C168.797 96.0202 168.861 96.9807 168.618 97.8863C168.376 98.7919 167.84 99.5919 167.096 100.162C166.352 100.733 165.441 101.041 164.503 101.04Z" fill="#3A3A3A"></path> <path d="M138.88 115.819C138.133 115.825 137.397 115.629 136.752 115.252L2.12975 37.5304C1.64549 37.251 1.22127 36.879 0.880792 36.4355C0.540315 35.9921 0.290209 35.4859 0.14534 34.9459C0.000471233 34.406 -0.0365258 33.8427 0.0362687 33.2884C0.109063 32.7341 0.290477 32.1996 0.569852 31.7154C0.849228 31.2311 1.2213 30.8065 1.66472 30.4661C2.10814 30.1256 2.61401 29.8758 3.15398 29.731C3.69394 29.5861 4.25721 29.5491 4.81151 29.6219C5.36581 29.6947 5.90031 29.8761 6.38456 30.1555L141.007 107.905C141.828 108.364 142.472 109.085 142.837 109.951C143.203 110.818 143.268 111.782 143.024 112.69C142.78 113.599 142.24 114.399 141.489 114.966C140.739 115.533 139.82 115.833 138.88 115.819Z" fill="#3A3A3A"></path> </svg> 