<?xml version="1.0" encoding="UTF-8"?> <svg xmlns="http://www.w3.org/2000/svg" width="543" height="681" viewBox="0 0 543 681" fill="none"> <path d="M268.585 501.691C257.772 490.234 247.574 478.211 238.032 465.674C232.201 458.128 209.488 427.575 203.73 420.028C194.112 407.361 183.814 395.223 172.883 383.668L170.065 386.388C180.892 397.842 191.091 409.874 200.619 422.429C206.45 429.951 229.163 460.505 234.92 468.051C244.546 480.713 254.844 492.851 265.768 504.411L268.585 501.691Z" fill="#E7E6ED"></path> <path d="M298.525 508.894C277.013 479.272 259.323 455.481 242.662 433.993C221.37 406.429 201.72 382.344 182.584 360.342C181.629 361.249 180.673 362.155 179.767 363.086C198.804 384.966 218.381 408.953 239.575 436.395C256.138 457.858 273.877 481.624 295.34 511.197L298.525 508.894Z" fill="#E7E6ED"></path> <path d="M310.702 508.674C312.747 508.841 314.806 508.684 316.803 508.208L315.724 504.435C314.117 504.793 312.464 504.901 310.824 504.753C309.325 504.608 307.815 504.608 306.316 504.753L306.879 508.625C308.152 508.516 309.432 508.533 310.702 508.674Z" fill="#E7E6ED"></path> <path d="M325.843 450.287H318.003C305.262 450.287 287.817 450.017 277.674 451.487L278.237 455.358C288.038 453.937 305.36 454.084 317.978 454.207H325.843V450.287Z" fill="#E7E6ED"></path> <path d="M309.158 490.763C311.411 490.64 313.668 490.64 315.921 490.763L316.166 486.867C313.791 486.732 311.41 486.732 309.036 486.867C306.831 486.867 304.454 486.867 301.685 486.867C299.144 486.763 296.599 486.82 294.065 487.038L294.482 490.934C296.854 490.759 299.234 490.71 301.612 490.787C304.528 490.885 306.978 490.836 309.158 490.763Z" fill="#E7E6ED"></path> <path d="M161.217 400.277L160.85 396.384H159.528C159.087 397.731 158.696 399.053 158.329 400.424L161.217 400.277Z" fill="#E7E6ED"></path> <path d="M319.939 466.678C315.848 466.899 301.686 466.678 296.81 466.678C295.438 466.678 294.164 466.678 292.743 466.678C290.905 466.678 288.847 466.899 286.029 466.678V470.599H288.283C290.17 470.599 291.689 470.598 293.184 470.427C294.678 470.255 295.634 470.28 296.957 470.427C301.857 470.427 316.19 470.647 320.38 470.427L319.939 466.678Z" fill="#E7E6ED"></path> <path d="M138.335 450.287H130.495C117.754 450.287 100.309 450.017 90.1656 451.487L90.7291 455.358C100.53 453.937 117.852 454.084 130.47 454.207H138.335V450.287Z" fill="#E7E6ED"></path> <path d="M347.83 432.966L344.727 435.362L402.911 510.698L406.013 508.301L347.83 432.966Z" fill="#E7E6ED"></path> <path d="M128.657 486.843C126.282 486.708 123.902 486.708 121.527 486.843C119.322 486.843 116.945 486.843 114.177 486.843C111.636 486.739 109.09 486.796 106.556 487.014L106.973 490.91C109.345 490.735 111.725 490.686 114.103 490.763C116.896 490.763 119.322 490.763 121.6 490.763C123.853 490.641 126.11 490.641 128.363 490.763L128.657 486.843Z" fill="#E7E6ED"></path> <path d="M379.109 509.138C380.873 511.417 382.417 513.573 383.862 515.754L387.121 513.598C385.651 511.344 384.034 509.09 382.221 506.737C377.786 501.004 372.837 495.589 368.059 490.37C363.281 485.152 358.43 479.835 354.093 474.249C350.075 469.054 345.077 463.149 340.323 458.078L337.457 460.748C342.112 465.649 347.061 471.529 351.006 476.625C355.416 482.358 360.365 487.773 365.168 493.017C369.97 498.26 374.797 503.528 379.109 509.138Z" fill="#E7E6ED"></path> <path d="M122.286 504.875C121.098 504.741 119.898 504.741 118.709 504.875L119.469 508.722C120.331 508.612 121.204 508.612 122.066 508.722H123.634C124.797 508.752 125.954 508.552 127.04 508.134L125.569 504.508C124.509 504.842 123.394 504.967 122.286 504.875Z" fill="#E7E6ED"></path> <path d="M365.047 511.981C359.387 504.631 350.886 494.977 343.388 486.451C340.497 483.168 337.777 480.056 335.474 477.385L332.51 479.835C334.813 482.506 337.41 485.618 340.448 488.925C347.798 497.403 356.349 507.007 361.96 514.235L365.047 511.981Z" fill="#E7E6ED"></path> <path d="M240.53 507.67L243.396 504.999C236.928 498.041 230.239 490.078 222.987 480.669C215.734 471.261 208.433 461.068 201.474 451.464C194.516 441.859 187.362 431.863 180.036 422.307C175.968 417.039 172.195 412.359 168.471 407.998L165.433 410.448L166.56 411.894C169.868 415.839 173.249 420.053 176.875 424.733C184.226 434.166 191.331 444.138 198.24 453.767C205.15 463.396 212.427 473.515 219.826 483.168C227.226 492.822 233.963 500.613 240.53 507.67Z" fill="#E7E6ED"></path> <path d="M132.432 466.678C128.34 466.899 114.178 466.678 109.302 466.678C107.93 466.678 106.632 466.678 105.211 466.678C103.398 466.678 101.339 466.899 98.5218 466.678L98.3747 470.599H100.629C102.516 470.599 104.059 470.598 105.529 470.427C106.999 470.255 107.979 470.28 109.302 470.427C114.202 470.427 128.536 470.647 132.726 470.427L132.432 466.678Z" fill="#E7E6ED"></path> <path d="M193.561 515.754L196.845 513.598C195.374 511.369 193.757 509.114 191.944 506.738C190.131 504.361 183.197 496.423 175.332 487.431C165.532 476.356 154.677 463.787 150.978 458.96L147.866 461.41C151.639 466.311 162.567 478.929 172.368 490.052C179.865 498.628 187.068 506.738 188.833 509.188C190.597 511.638 192.14 513.598 193.561 515.754Z" fill="#E7E6ED"></path> <path d="M157.546 432.892L154.443 435.289L212.627 510.624L215.73 508.227L157.546 432.892Z" fill="#E7E6ED"></path> <path d="M114.472 439.139C123.292 438.197 132.171 437.927 141.032 438.33L141.178 436.517L130.888 434.214C125.375 434.214 119.617 434.777 114.154 435.218C107.832 435.757 101.315 436.296 94.9444 436.296C88.9564 436.361 82.9805 435.745 77.1318 434.459L76.2498 438.281C82.3873 439.636 88.6595 440.285 94.9444 440.217C101.486 440.217 108.077 439.653 114.472 439.139Z" fill="#E7E6ED"></path> <path d="M141.006 506.958C142.304 508.845 143.799 511.025 145.906 513.77L149.018 511.319C146.959 508.649 145.514 506.419 144.117 504.704C141.863 501.125 139.181 497.834 136.13 494.904L133.435 497.746C136.334 500.488 138.877 503.583 141.006 506.958Z" fill="#E7E6ED"></path> <path d="M171.657 514.358L174.769 511.907C166.831 501.617 157.814 489.856 146.862 481.869L144.412 485.03C155.07 492.845 163.89 504.288 171.657 514.358Z" fill="#E7E6ED"></path> <path d="M335.325 417.871H249.325V421.792H335.325V417.871Z" fill="#E7E6ED"></path> <path d="M302.078 439.139C310.897 438.197 319.776 437.927 328.637 438.33L328.956 434.41C319.883 433.992 310.791 434.262 301.759 435.218C295.462 435.757 288.92 436.297 282.55 436.297C276.562 436.36 270.586 435.743 264.737 434.459L263.855 438.281C269.993 439.636 276.265 440.285 282.55 440.217C288.994 440.217 295.609 439.653 302.078 439.139Z" fill="#E7E6ED"></path> <path d="M337.09 512.79L340.691 511.222C337.193 504.707 332.227 499.095 326.187 494.83L324.178 498.187C329.511 502.037 333.921 507.025 337.09 512.79Z" fill="#E7E6ED"></path> <path d="M361.765 359.313C352.969 359.068 346.133 358.798 339.984 358.578C326.385 358.063 316.585 357.696 297.229 357.696C265.646 357.696 237.494 358.455 211.18 359.999L211.4 363.919C237.641 362.375 265.72 361.616 297.155 361.616C316.438 361.616 326.214 361.984 339.763 362.498C345.913 362.719 352.773 362.988 361.569 363.233L361.765 359.313Z" fill="#E7E6ED"></path> <path d="M351.742 378.718C344.742 379.464 337.687 379.546 330.671 378.963C326.702 378.742 322.61 378.498 317.293 378.498C308.693 378.498 274.318 377.885 265.693 377.885C251.319 377.766 236.948 378.42 222.644 379.845L223.061 383.741C237.227 382.337 251.458 381.691 265.693 381.805C274.293 381.805 308.669 382.418 317.293 382.418C322.487 382.418 326.53 382.663 330.45 382.883C337.679 383.481 344.947 383.391 352.158 382.614L351.742 378.718Z" fill="#E7E6ED"></path> <path d="M458.887 501.69C448.058 490.24 437.851 478.217 428.309 465.673C422.478 458.127 399.765 427.574 394.007 420.027C384.389 407.366 374.1 395.229 363.184 383.667L360.342 386.387C371.177 397.841 381.384 409.873 390.92 422.428C396.727 429.95 419.44 460.504 425.222 468.05C434.84 480.711 445.129 492.849 456.044 504.41L458.887 501.69Z" fill="#E7E6ED"></path> <path d="M488.803 508.894C467.266 479.247 449.601 455.456 432.964 433.993C411.599 406.331 391.875 382.197 372.715 360.17L369.751 362.62C388.886 384.672 408.536 408.683 429.853 436.272C446.416 457.71 464.155 481.477 485.618 511.075L488.803 508.894Z" fill="#E7E6ED"></path> <path d="M356.887 411.771C360.195 415.715 363.6 419.93 367.202 424.609C374.552 434.042 381.658 444.014 388.567 453.643C395.477 463.273 402.753 473.392 410.153 483.045C417.552 492.699 424.241 500.564 430.808 507.547L433.674 504.876C427.206 497.893 420.517 489.93 413.265 480.546C406.012 471.162 398.711 460.945 391.752 451.341C384.794 441.736 377.639 431.739 370.314 422.184C366.246 416.916 362.473 412.236 358.773 407.875L355.711 410.325L356.838 411.771H356.887Z" fill="#E7E6ED"></path> <path d="M348.361 396.383C339.81 397.167 330.45 397.535 319.719 397.535C308.987 397.535 297.668 397.167 286.96 396.775C276.253 396.383 265.105 396.04 254.276 396.04C248.273 396.04 242.833 396.04 237.664 396.383V400.303H239.33C243.985 400.107 248.861 400.034 254.202 400.034C264.958 400.034 276.033 400.401 286.765 400.769C297.496 401.137 308.816 401.528 319.646 401.528C330.475 401.528 339.982 401.161 348.655 400.352L348.361 396.383Z" fill="#E7E6ED"></path> <path d="M240.528 343.02L243.395 340.349C242.072 338.928 240.724 337.409 239.377 335.89L234.917 336.772C236.804 338.928 238.666 341.035 240.528 343.02Z" fill="#E7E6ED"></path> <path d="M212.623 345.837L215.735 343.387L214.51 341.819C213.187 342.235 211.864 342.677 210.59 343.142L212.623 345.837Z" fill="#E7E6ED"></path> <path d="M283.04 329.667C287.009 335.106 291.076 340.668 295.29 346.548L298.476 344.245C294.678 339.002 291.125 334.028 287.474 329.152L283.04 329.667Z" fill="#E7E6ED"></path> <path d="M379.111 344.489C380.875 346.768 382.419 348.924 383.864 351.105L387.123 348.949C385.653 346.694 384.036 344.441 382.223 342.088C379.454 338.511 376.465 335.056 373.451 331.675C371.393 331.308 369.31 330.965 367.228 330.646C371.295 335.105 375.411 339.712 379.111 344.489Z" fill="#E7E6ED"></path> <path d="M265.767 339.761L268.585 337.041C267.041 335.424 265.473 333.734 263.905 332.141L259.176 332.778C261.406 335.13 263.587 337.482 265.767 339.761Z" fill="#E7E6ED"></path> <path d="M310.873 340.104C309.374 339.959 307.864 339.959 306.365 340.104L306.928 343.975C308.183 343.853 309.447 343.853 310.702 343.975C312.747 344.142 314.806 343.985 316.802 343.509L315.724 339.736C314.135 340.106 312.499 340.23 310.873 340.104Z" fill="#E7E6ED"></path> <path d="M361.958 349.708L365.046 347.258C360.807 341.746 354.951 335.008 349.12 328.245L343.485 327.78C350.125 335.399 357.107 343.461 361.958 349.708Z" fill="#E7E6ED"></path> <path d="M406.013 343.436L402.264 338.536C400.157 337.899 398.025 337.286 395.894 336.698L402.901 345.764L406.013 343.436Z" fill="#E7E6ED"></path> <path d="M337.09 348.067L340.691 346.499C337.193 339.985 332.227 334.373 326.187 330.108L324.178 333.465C329.511 337.315 333.921 342.303 337.09 348.067Z" fill="#E7E6ED"></path> <path d="M54.4665 507.669L57.3333 504.999C50.8404 498.016 44.1762 490.053 36.9237 480.669C29.6713 471.285 22.3699 461.067 15.4115 451.463L9.18802 442.814C6.22969 440.673 3.16294 438.686 0 436.86C4.14073 442.495 8.23246 448.18 12.2507 453.742C19.2336 463.542 26.4371 473.49 33.8366 483.143C41.236 492.797 47.9001 500.588 54.4665 507.669Z" fill="#E7E6ED"></path> <path d="M82.5454 501.691C71.7166 490.24 61.5094 478.218 51.9677 465.674C48.513 461.166 45.1072 456.658 41.7015 452.125C40.893 453.252 40.1336 454.404 39.3985 455.604C42.5347 459.769 45.6708 463.934 48.856 468.051C58.4819 480.713 68.779 492.85 79.7032 504.411L82.5454 501.691Z" fill="#E7E6ED"></path> <path d="M112.462 508.894C91.8566 480.521 74.73 457.441 58.7551 436.811C57.6281 437.448 56.5011 438.158 55.423 438.893C71.4224 459.671 88.5979 482.726 109.326 511.197L112.462 508.894Z" fill="#E7E6ED"></path> <path d="M453.399 361.91C452.101 361.102 450.949 360.269 449.504 359.46C448.744 358.995 447.96 358.553 447.053 358.112C430.539 358.48 414.908 359.093 399.888 359.975L400.109 363.895C417.064 362.915 434.656 362.253 453.399 361.91Z" fill="#E7E6ED"></path> <path d="M454.524 381.805C463.124 381.805 480.447 382.099 480.545 382.099L475.816 378.105C468.711 378.105 461.63 377.885 454.524 377.885C440.15 377.766 425.78 378.42 411.476 379.845L411.892 383.741C426.058 382.337 440.289 381.691 454.524 381.805Z" fill="#E7E6ED"></path> <path d="M428.236 400.303C432.891 400.107 437.767 400.034 443.108 400.034C453.864 400.034 464.939 400.402 475.646 400.769C483.609 401.063 491.768 401.333 499.878 401.455C498.702 400.108 497.428 398.785 496.276 397.462C489.391 397.315 482.531 397.094 475.793 396.849C465.037 396.481 453.938 396.114 443.108 396.114C437.105 396.114 431.666 396.114 426.472 396.457V400.377L428.236 400.303Z" fill="#E7E6ED"></path> <path d="M514.676 450.287H506.835C494.094 450.287 476.65 450.017 466.506 451.487L467.069 455.358C476.87 453.937 494.193 454.084 506.811 454.207H514.676V450.287Z" fill="#E7E6ED"></path> <path d="M471.284 436.272C465.296 436.336 459.32 435.719 453.471 434.435L452.589 438.257C458.727 439.612 464.999 440.261 471.284 440.192C477.826 440.192 484.417 439.629 490.885 439.115C499.705 438.173 508.583 437.902 517.444 438.306L517.763 434.386C508.69 433.968 499.598 434.238 490.566 435.194C484.171 435.758 477.654 436.272 471.284 436.272Z" fill="#E7E6ED"></path> <path d="M438.158 417.871V421.792H515.239C514.406 420.469 513.524 419.17 512.617 417.871H438.158Z" fill="#E7E6ED"></path> <path d="M486.059 526.265C505.342 526.265 515.118 526.633 528.667 527.147L543 527.662C543 526.339 543 525.04 543 523.742L528.863 523.227C515.265 522.713 505.464 522.345 486.108 522.345C454.526 522.345 426.374 523.104 400.059 524.648L400.28 528.569C426.472 526.927 454.55 526.265 486.059 526.265Z" fill="#E7E6ED"></path> <path d="M454.524 546.528C463.124 546.528 497.5 547.14 506.124 547.14C511.319 547.14 515.361 547.385 519.282 547.605C526.51 548.204 533.779 548.113 540.99 547.336L540.573 543.44C533.573 544.187 526.518 544.269 519.502 543.685C515.533 543.465 511.441 543.22 506.124 543.22C497.524 543.22 463.149 542.607 454.524 542.607C440.15 542.489 425.78 543.143 411.476 544.567L411.892 548.463C426.058 547.059 440.289 546.413 454.524 546.528Z" fill="#E7E6ED"></path> <path d="M537.29 561.033C528.739 561.817 519.38 562.184 508.648 562.184C497.916 562.184 486.596 561.817 475.889 561.425C465.182 561.033 454.034 560.69 443.205 560.69C437.202 560.69 431.763 560.69 426.568 561.033V564.953H428.234C432.89 564.757 437.765 564.683 443.107 564.683C453.863 564.683 464.937 565.051 475.644 565.418C486.351 565.786 497.696 566.178 508.55 566.178C519.404 566.178 528.886 565.811 537.559 565.002L537.29 561.033Z" fill="#E7E6ED"></path> <path d="M524.134 582.521H438.134V586.441H524.134V582.521Z" fill="#E7E6ED"></path> <path d="M517.689 599.059C508.616 598.641 499.525 598.911 490.493 599.867C484.171 600.406 477.654 600.945 471.284 600.945C465.296 601.009 459.32 600.392 453.471 599.108L452.589 602.93C458.727 604.285 464.999 604.934 471.284 604.866C477.826 604.866 484.417 604.302 490.885 603.788C499.705 602.846 508.583 602.576 517.444 602.979L517.689 599.059Z" fill="#E7E6ED"></path> <path d="M466.506 616.088L467.069 619.959C476.87 618.538 494.193 618.685 506.811 618.808H514.676V614.887H506.835C494.094 614.765 476.65 614.618 466.506 616.088Z" fill="#E7E6ED"></path> <path d="M309.158 655.412C311.411 655.289 313.668 655.289 315.921 655.412L316.166 651.491C313.791 651.369 311.411 651.369 309.036 651.491C306.831 651.491 304.454 651.614 301.685 651.491C299.144 651.387 296.599 651.445 294.065 651.663L294.482 655.559C296.854 655.384 299.234 655.335 301.612 655.412C304.528 655.534 306.978 655.485 309.158 655.412Z" fill="#E7E6ED"></path> <path d="M220.857 607.512C215.172 599.868 209.488 592.223 203.706 584.677C194.081 572.014 183.784 559.877 172.859 548.317L170.041 551.037C180.868 562.491 191.067 574.523 200.594 587.078C206.425 594.6 229.138 625.154 234.896 632.7C244.522 645.362 254.819 657.499 265.743 669.06L268.561 666.34C257.748 654.882 247.549 642.86 238.008 630.323C232.201 622.777 226.541 615.132 220.857 607.512Z" fill="#E7E6ED"></path> <path d="M174.254 523.962C165.458 523.717 158.598 523.448 152.448 523.227C138.875 522.713 129.074 522.345 109.718 522.345C78.1357 522.345 49.9836 523.104 23.6446 524.648L23.8895 528.569C32.1465 528.078 40.624 527.686 49.2974 527.343C49.2974 527.172 49.2974 527 49.2974 526.829L49.7141 527.319C68.4576 526.633 88.2547 526.265 109.693 526.265C128.976 526.265 138.752 526.633 152.277 527.147C158.451 527.368 165.312 527.637 174.108 527.882L174.254 523.962Z" fill="#E7E6ED"></path> <path d="M319.939 631.328C315.848 631.548 301.686 631.328 296.81 631.328C295.438 631.328 294.164 631.328 292.743 631.45C290.905 631.45 288.847 631.671 286.029 631.45V635.37H288.283C290.17 635.37 291.689 635.37 293.184 635.199C294.678 635.027 295.634 635.052 296.957 635.199C301.857 635.199 316.19 635.419 320.38 635.199L319.939 631.328Z" fill="#E7E6ED"></path> <path d="M282.477 600.945C276.489 601.009 270.513 600.392 264.664 599.108L263.782 602.93C269.92 604.285 276.192 604.934 282.477 604.866C289.019 604.866 295.634 604.302 302.078 603.787C310.898 602.846 319.776 602.576 328.637 602.979L328.956 599.059C319.883 598.641 310.791 598.911 301.759 599.867C295.365 600.431 288.823 600.945 282.477 600.945Z" fill="#E7E6ED"></path> <path d="M298.525 673.519C277.013 643.921 259.323 620.13 242.662 598.643C221.321 571.005 201.622 546.847 182.438 524.82L179.473 527.27C198.608 549.321 218.259 573.333 239.575 600.921C256.138 622.384 273.877 646.151 295.34 675.724L298.525 673.519Z" fill="#E7E6ED"></path> <path d="M310.702 673.323C312.747 673.491 314.806 673.334 316.803 672.858L315.724 669.084C314.117 669.443 312.464 669.55 310.824 669.403C309.325 669.258 307.815 669.258 306.316 669.403L306.879 673.274C308.152 673.166 309.432 673.182 310.702 673.323Z" fill="#E7E6ED"></path> <path d="M35.1363 544.495L35.5526 548.39C38.6398 548.072 41.8005 547.778 45.0591 547.533C45.5492 546.21 46.0148 544.862 46.4314 543.515C42.5356 543.784 38.787 544.078 35.1363 544.495Z" fill="#E7E6ED"></path> <path d="M335.325 582.521H249.325V586.441H335.325V582.521Z" fill="#E7E6ED"></path> <path d="M365.047 676.63C359.387 669.28 350.886 659.627 343.388 651.1L335.474 642.059L332.51 644.509C334.813 647.18 337.41 650.291 340.448 653.599C347.798 662.076 356.349 671.681 361.96 678.909L365.047 676.63Z" fill="#E7E6ED"></path> <path d="M325.843 614.936H318.003C305.262 614.814 287.817 614.667 277.674 616.137L278.237 620.008C288.038 618.587 305.36 618.734 317.978 618.856H325.843V614.936Z" fill="#E7E6ED"></path> <path d="M147.719 582.521H130.568C133.239 583.844 135.885 585.167 138.58 586.441H147.646L147.719 582.521Z" fill="#E7E6ED"></path> <path d="M478.12 658.891C461.288 635.909 446.71 616.455 432.964 598.643C411.599 570.981 391.875 546.847 372.715 524.82L369.751 527.27C388.886 549.321 408.536 573.333 429.853 600.921C443.5 618.587 457.98 637.918 474.69 660.705C475.842 660.214 476.969 659.553 478.12 658.891Z" fill="#E7E6ED"></path> <path d="M201.474 616.112C194.54 606.311 187.362 596.511 180.036 586.955C175.968 581.687 172.195 577.008 168.471 572.646L165.433 575.096L166.56 576.542C169.868 580.487 173.249 584.701 176.875 589.381C181.775 595.702 186.553 602.244 191.307 608.786V608.933C193.61 612.085 195.88 615.238 198.118 618.39C205.101 628.191 212.304 638.138 219.704 647.792C221.296 649.85 222.864 651.835 224.408 653.77C228.442 657.066 232.681 660.102 237.099 662.86C232.518 657.617 227.814 651.859 222.815 645.391C215.636 635.786 208.433 625.79 201.474 616.112Z" fill="#E7E6ED"></path> <path d="M430.808 672.318L433.674 669.647C427.206 662.664 420.517 654.701 413.265 645.317C406.012 635.933 398.711 625.716 391.752 616.112C384.794 606.507 377.639 596.511 370.314 586.955C366.246 581.687 362.473 577.008 358.773 572.646L355.711 575.096L356.838 576.542C360.145 580.487 363.551 584.701 367.153 589.381C374.503 598.814 381.609 608.786 388.518 618.415C395.428 628.044 402.704 638.163 410.104 647.816C417.503 657.47 424.241 665.237 430.808 672.318Z" fill="#E7E6ED"></path> <path d="M347.821 597.628L344.718 600.024L402.902 675.359L406.005 672.963L347.821 597.628Z" fill="#E7E6ED"></path> <path d="M383.862 680.403L387.121 678.247C385.651 675.993 384.034 673.739 382.221 671.387C377.786 665.653 372.837 660.239 368.059 655.02C363.281 649.801 358.43 644.484 354.093 638.898C350.075 633.703 345.077 627.799 340.323 622.727L337.457 625.397C342.112 630.298 347.061 636.178 351.006 641.275C355.416 647.008 360.365 652.423 365.168 657.666C369.97 662.909 374.797 668.177 379.109 673.788C380.873 676.066 382.417 678.223 383.862 680.403Z" fill="#E7E6ED"></path> <path d="M361.765 523.962C352.969 523.717 346.133 523.448 339.984 523.227C326.385 522.713 316.585 522.345 297.229 522.345C265.646 522.345 237.494 523.104 211.18 524.648L211.4 528.569C237.641 527.025 265.72 526.265 297.155 526.265C316.438 526.265 326.214 526.633 339.763 527.147C345.913 527.368 352.773 527.637 361.569 527.882L361.765 523.962Z" fill="#E7E6ED"></path> <path d="M348.361 561.033C339.81 561.817 330.45 562.184 319.719 562.184C308.987 562.184 297.668 561.817 286.96 561.425C276.253 561.033 265.105 560.69 254.276 560.69C248.273 560.69 242.833 560.69 237.664 561.033V564.953H239.33C243.985 564.757 248.861 564.683 254.202 564.683C264.958 564.683 276.033 565.051 286.765 565.418C297.496 565.786 308.816 566.178 319.646 566.178C330.475 566.178 339.982 565.811 348.655 565.002L348.361 561.033Z" fill="#E7E6ED"></path> <path d="M161.218 564.929L160.851 561.033C152.3 561.817 142.916 562.185 132.209 562.185C121.502 562.185 110.157 561.817 99.4503 561.425L92.2958 561.204C94.4764 562.601 96.706 563.998 98.9356 565.345H99.3032C110.108 565.713 121.355 566.105 132.209 566.105C143.063 566.105 152.618 565.737 161.218 564.929Z" fill="#E7E6ED"></path> <path d="M337.09 677.439L340.691 675.871C337.193 669.356 332.227 663.745 326.187 659.48L324.178 662.836C329.511 666.687 333.921 671.675 337.09 677.439Z" fill="#E7E6ED"></path> <path d="M164.233 543.368C157.233 544.114 150.178 544.196 143.162 543.613C139.193 543.393 135.101 543.147 129.784 543.147C121.184 543.147 69.8538 542.559 66.0806 542.657L71.4708 546.48H78.2822C86.9067 546.48 121.282 547.092 129.906 547.092C135.101 547.092 139.144 547.337 143.064 547.558C150.292 548.156 157.561 548.066 164.772 547.288L164.233 543.368Z" fill="#E7E6ED"></path> <path d="M458.887 666.34C448.058 654.89 437.851 642.867 428.309 630.323C422.478 622.777 399.765 592.223 394.007 584.677C384.389 572.016 374.1 559.879 363.184 548.317L360.342 551.037C371.177 562.491 381.384 574.523 390.92 587.078C396.727 594.6 419.44 625.154 425.222 632.7C434.84 645.361 445.129 657.498 456.044 669.06L458.887 666.34Z" fill="#E7E6ED"></path> <path d="M351.742 543.367C344.742 544.113 337.687 544.196 330.671 543.612C326.702 543.392 322.61 543.147 317.293 543.147C308.693 543.147 274.318 542.534 265.693 542.534C251.319 542.415 236.948 543.07 222.644 544.494L223.061 548.39C237.227 546.986 251.458 546.34 265.693 546.454C274.293 546.454 308.669 547.067 317.293 547.067C322.487 547.067 326.53 547.312 330.45 547.532C337.679 548.131 344.947 548.041 352.158 547.263L351.742 543.367Z" fill="#E7E6ED"></path> <g style="mix-blend-mode:multiply"> <path d="M434.386 595.139C429.996 583.587 424.644 572.425 418.387 561.768C415.79 557.211 413.144 552.678 410.742 548.023C410.032 546.675 409.42 545.303 408.758 543.931C408.638 543.103 408.457 542.284 408.219 541.481C407.661 538.547 406.841 535.669 405.769 532.881C416.026 523.789 423.537 512.01 427.453 498.873C438.846 458.863 403.441 405.768 363.357 397.903C334.102 392.219 305.509 408.022 301.295 439.261C300.001 449.304 301.761 459.504 306.345 468.532C310.929 477.561 318.126 485 326.997 489.881C315.147 494.888 303.052 499.295 290.759 503.088C270.815 509.777 250.479 517.029 230.02 521.88C220.71 524.085 211.522 527.736 202.064 529.23C194.934 530.357 183.002 529.598 176.681 526.119C172.589 523.865 167.468 529.77 171.462 532.881C176.362 536.63 178.984 541.432 183.321 545.402C188.221 549.763 194.346 553.781 199.565 557.799C211.863 566.792 226.153 572.676 241.218 574.95C265.06 579.003 289.439 578.712 313.178 574.093C308.498 593.057 321.165 615.377 334.249 628.829C350.077 645.097 379.552 667.761 403.343 665.238C411.676 664.26 419.527 660.812 425.884 655.337C432.242 649.861 436.815 642.609 439.017 634.513C442.545 621.429 438.993 607.414 434.386 595.139Z" fill="#D7DCE0"></path> </g> <path d="M364.384 318.396V470.133L213.407 557.308V405.571L364.384 318.396Z" fill="white"></path> <path d="M364.386 318.396L213.408 405.572L62.4063 318.396L213.408 231.244L364.386 318.396Z" fill="white"></path> <path d="M213.408 405.571V557.308L62.4063 470.133V318.396L213.408 405.571Z" fill="white"></path> <path d="M213.408 409.321C212.762 409.33 212.126 409.16 211.57 408.831L60.5679 321.655C60.0081 321.332 59.543 320.868 59.2196 320.309C58.8963 319.75 58.7261 319.116 58.7261 318.47C58.7261 317.824 58.8963 317.189 59.2196 316.63C59.543 316.071 60.0081 315.607 60.5679 315.284L211.57 228.133C212.132 227.82 212.764 227.655 213.408 227.655C214.051 227.655 214.683 227.82 215.245 228.133L366.223 315.284C366.782 315.607 367.247 316.071 367.571 316.63C367.894 317.189 368.064 317.824 368.064 318.47C368.064 319.116 367.894 319.75 367.571 320.309C367.247 320.868 366.782 321.332 366.223 321.655L215.245 408.831C214.689 409.16 214.054 409.33 213.408 409.321ZM69.7559 318.47L213.408 401.407L357.035 318.47L213.408 235.557L69.7559 318.47Z" fill="#3A3A3A"></path> <path d="M213.408 560.984C212.76 560.985 212.124 560.806 211.571 560.469L60.5686 473.318C60.0115 472.999 59.548 472.539 59.2254 471.985C58.9028 471.43 58.7324 470.799 58.731 470.157V318.396C58.731 317.421 59.1182 316.486 59.8074 315.797C60.4967 315.108 61.4315 314.721 62.4062 314.721C63.381 314.721 64.3155 315.108 65.0047 315.797C65.694 316.486 66.0814 317.421 66.0814 318.396V468.124L213.408 553.144L360.711 468.124V318.494C360.711 317.519 361.098 316.585 361.787 315.895C362.476 315.206 363.411 314.819 364.386 314.819C365.36 314.819 366.295 315.206 366.984 315.895C367.673 316.585 368.061 317.519 368.061 318.494V470.255C368.06 470.897 367.889 471.527 367.566 472.082C367.244 472.637 366.78 473.097 366.223 473.416L215.246 560.568C214.682 560.87 214.047 561.014 213.408 560.984Z" fill="#3A3A3A"></path> <path d="M213.408 560.984C212.433 560.984 211.498 560.597 210.809 559.908C210.12 559.219 209.732 558.284 209.732 557.309V405.572C209.732 404.597 210.12 403.662 210.809 402.973C211.498 402.284 212.433 401.897 213.408 401.897C214.382 401.897 215.317 402.284 216.006 402.973C216.695 403.662 217.083 404.597 217.083 405.572V557.309C217.083 558.284 216.695 559.219 216.006 559.908C215.317 560.597 214.382 560.984 213.408 560.984Z" fill="#3A3A3A"></path> <path d="M182.634 166.757C166.414 180.208 109.816 160.387 114.569 137.944C119.323 115.5 143.677 119.764 150.807 106.484C157.937 93.2041 145.098 84.2611 158.868 69.0947C172.638 53.9284 187.289 63.3369 200.104 50.7187C212.918 38.1005 213.677 3.82308 248.788 3.72508C269.663 3.72508 291.102 41.8001 297.423 7.44919C297.423 7.44919 314.133 24.9921 304.381 39.8154C301.622 44.401 297.429 47.9493 292.449 49.9103C282.945 53.3207 274.499 59.1571 267.948 66.8405L182.634 166.757Z" fill="#3A3A3A"></path> <path d="M166.61 174.719C152.877 174.333 139.47 170.454 127.653 163.449C114.937 155.78 109.007 146.298 110.967 137.134C114.152 122.041 125.325 117.386 134.268 113.637C140.148 111.187 145.22 109.056 147.548 104.719C149.876 100.382 149.557 96.0454 148.969 91.4146C148.111 84.4317 147.131 76.5178 156.148 66.5702C164.258 57.6272 172.809 56.2798 180.331 55.0792C186.75 54.0746 192.287 53.1926 197.482 48.0473C200.936 44.6171 203.607 38.9818 206.449 33.0034C213.407 18.3026 222.056 0.0735041 248.738 0C257.755 0 266.306 5.83128 273.828 10.9766C279.414 14.7743 285.736 19.0865 288.725 17.8615C289.901 17.3469 292.131 15.2644 293.625 6.73788C293.747 6.06882 294.051 5.44661 294.506 4.9405C294.96 4.4344 295.546 4.0643 296.198 3.87126C296.845 3.68453 297.531 3.67698 298.183 3.84958C298.834 4.02217 299.427 4.36836 299.897 4.85122C300.657 5.65977 318.518 24.6974 307.248 41.7748C304.064 47.0325 299.232 51.0898 293.502 53.3149C284.618 56.5296 276.723 62.0015 270.594 69.192L185.427 169.207L184.961 169.648C180.625 173.151 174.058 174.719 166.61 174.719ZM248.837 7.35041C226.785 7.35041 219.876 22.0511 213.187 36.1394C210.075 42.7303 207.111 48.9536 202.725 53.2903C195.815 60.1262 188.22 61.327 181.531 62.3806C174.842 63.4341 168.007 64.5122 161.636 71.5441C154.898 78.8945 155.535 84.0643 156.319 90.5326C156.956 95.6779 157.667 101.485 154.09 108.198C150.512 114.911 143.725 117.705 137.159 120.449C128.657 124.001 120.596 127.358 118.22 138.678C116.431 147.057 126.918 154.432 131.499 157.201C148.258 167.32 171.706 170.628 180.11 164.086L265.252 64.4386C272.223 56.2874 281.188 50.0827 291.273 46.4301C295.495 44.7193 299.04 41.6728 301.367 37.7566C306.268 30.1856 302.642 21.3161 299.089 15.7053C298.565 17.6366 297.639 19.4357 296.372 20.9851C295.106 22.5345 293.527 23.7995 291.738 24.6974C285.099 27.4661 277.699 22.4189 269.883 17.1021C263.121 12.3978 255.525 7.35041 248.837 7.35041Z" fill="#3A3A3A"></path> <path d="M193.12 216.765C187.36 220.573 180.457 222.263 173.589 221.548C166.721 220.833 160.314 217.757 155.461 212.844C154.653 110.086 188.661 86.2457 261.969 82.84H263.414C269.896 82.7622 276.189 85.0232 281.139 89.2082C286.089 93.3933 289.364 99.2221 290.366 105.626C292.816 127.065 295.266 143.457 298.28 160.117C295.868 161.281 293.327 162.153 290.709 162.714C290.91 168.498 288.864 174.136 285 178.444C279.218 185.991 281.496 181.36 277.429 204.293C275.616 214.633 273.288 225.561 272.235 235.19C271.909 235.627 271.557 236.044 271.181 236.439C270.838 236.807 270.446 237.125 270.03 237.493C256.138 249.89 229.112 254.987 204.243 250.87L198.486 248.592C196.443 247.787 194.709 246.354 193.534 244.5C192.358 242.647 191.801 240.467 191.944 238.277L193.12 216.765Z" fill="#3FAAF0"></path> <path d="M314.328 209.144C314.328 209.144 349.267 246.313 348.63 267.58C348.434 273.999 347.919 281.203 347.307 288.161C345.861 304.234 343.803 318.861 343.803 318.861C341.141 310.927 337.999 303.162 334.394 295.609C332.52 291.779 330.323 288.116 327.828 284.657C326 282.173 323.896 279.904 321.556 277.895C321.556 277.895 322.438 260.058 315.871 253.884C300.401 239.552 287.382 222.784 277.331 204.244C281.398 181.311 279.119 185.941 284.902 178.395C288.766 174.086 290.812 168.449 290.61 162.665C293.228 162.104 295.77 161.232 298.182 160.068C299.872 169.697 301.734 179.424 303.817 190.278C305.216 197.528 308.899 204.139 314.328 209.144Z" fill="white"></path> <path d="M411.452 628.706C412.11 630.128 412.327 631.714 412.075 633.261C411.822 634.807 411.112 636.242 410.036 637.382C408.96 638.521 407.568 639.312 406.038 639.652C404.509 639.992 402.913 639.866 401.455 639.29C383.422 632.062 368.427 624.589 356.079 615.254C353.479 613.247 351.408 610.636 350.046 607.647C348.684 604.658 348.072 601.382 348.263 598.103L348.728 589.43C348.915 586.265 348.352 583.1 347.087 580.193C356.278 578.972 365.189 576.171 373.426 571.911C374.161 574.092 374.871 576.322 375.631 578.551C381.707 596.437 402.852 611.212 411.452 628.706Z" fill="#3A3A3A"></path> <path d="M389.572 552.164C390.195 552.416 390.741 552.828 391.154 553.358C391.568 553.888 391.834 554.519 391.926 555.185C392.018 555.851 391.932 556.529 391.678 557.152C391.424 557.774 391.01 558.319 390.478 558.73C387.146 561.18 381.266 564.12 371.22 564.929C368.77 556.917 366.32 549.224 364.482 541.775L389.572 552.164Z" fill="#3A3A3A"></path> <path d="M312.417 520.312C319.768 534.547 328.417 549.468 335.498 561.131C329.201 559.636 322.218 557.676 314.549 555.152C313.032 554.645 311.727 553.647 310.84 552.317C309.953 550.986 309.533 549.397 309.649 547.802C310.212 538.81 311.168 529.573 312.417 520.312Z" fill="#3A3A3A"></path> <path d="M272.187 235.14C270.717 248.567 271.77 259.421 280.125 262.508C295.537 268.143 307.787 273.338 311.021 274.612L327.854 284.633C330.348 288.104 332.553 291.776 334.445 295.609L309.404 310.065C301.221 298.672 290.587 286.519 280.003 281.815C263.93 274.709 224.654 258.98 204.22 250.821C229.089 254.937 256.065 249.816 270.006 237.443C270.619 238.276 271.182 239.06 271.795 239.893C271.55 238.742 271.354 237.59 271.158 236.438C271.527 236.027 271.871 235.594 272.187 235.14Z" fill="#D7DCE0"></path> <path d="M339.393 409.566C345.494 393.517 351.644 381.438 356.985 375.68C357.343 375.295 357.613 374.838 357.779 374.339C357.945 373.841 358.002 373.312 357.946 372.79C357.891 372.267 357.723 371.763 357.456 371.311C357.189 370.858 356.828 370.468 356.397 370.167L347.601 364.091L404.984 330.916C410.634 335.043 414.748 340.936 416.674 347.664C418.6 354.391 418.228 361.568 415.617 368.06C399.005 409.468 376.636 450.017 354.56 498.702C348.63 468.638 345.249 440.854 339.393 409.566Z" fill="#D7DCE0"></path> <path d="M329.911 374.308C332.464 379.325 334.351 384.654 335.522 390.161C336.918 396.825 338.217 403.244 339.393 409.565C345.249 440.854 348.728 468.638 354.559 498.726C357.205 512.398 360.366 526.584 364.36 541.775C366.32 549.125 368.574 556.917 371.098 564.929C371.808 567.207 372.543 569.535 373.303 571.887C365.066 576.146 356.155 578.948 346.964 580.169C346.539 579.147 346.014 578.171 345.396 577.253C342.946 573.431 339.417 567.795 335.375 561.131C328.294 549.468 319.669 534.547 312.294 520.312C306.408 509.564 301.488 498.314 297.594 486.696C292.301 468.369 294.016 439.996 292.693 421.057C292.442 417.386 291.199 413.852 289.098 410.831C286.997 407.811 284.116 405.418 280.761 403.906C266.281 397.29 239.893 385.211 226.637 378.816C207.796 369.751 176.018 357.157 164.845 328.883C157.495 310.458 161.586 290.562 166.511 274.097C169.762 277.184 173.651 279.518 177.904 280.933C203.913 289.663 230.808 295.489 258.097 298.305L279.193 321.459L299.26 315.284L299.676 315.578L268.045 333.856C264.125 336.135 264.615 340.104 269.148 342.726L326.799 375.999L329.911 374.308Z" fill="#D7DCE0"></path> <path d="M324.128 333.783L299.43 315.26L279.364 321.434L258.268 298.281C230.978 295.465 204.084 289.639 178.075 280.909C172.318 278.988 167.261 275.401 163.545 270.603C159.829 265.805 157.62 260.012 157.2 253.958C156.073 238.963 155.46 225.291 155.387 212.771C160.239 217.684 166.646 220.76 173.514 221.475C180.382 222.19 187.285 220.499 193.045 216.691L191.796 238.154C191.653 240.345 192.21 242.524 193.386 244.378C194.561 246.232 196.295 247.664 198.338 248.469L204.095 250.748C224.53 258.907 263.805 274.637 279.878 281.742C290.487 286.447 301.121 298.599 309.28 309.992C314.723 317.603 319.682 325.55 324.128 333.783Z" fill="white"></path> <path d="M324.13 333.783C319.729 325.578 314.819 317.657 309.429 310.065L334.469 295.609C338.073 303.162 341.216 310.927 343.878 318.861C343.878 318.861 345.936 304.16 347.381 288.161L353.678 284.559C356.099 283.461 358.743 282.947 361.399 283.058C364.054 283.168 366.647 283.901 368.967 285.196L378.768 290.783L368.6 296.663C363.689 300.091 359.761 304.746 357.207 310.163L327.168 375.974L269.516 342.701C264.983 340.079 264.493 336.11 268.414 333.831L300.045 315.553L324.13 333.783Z" fill="white"></path> <path d="M347.602 364.091L329.912 374.308C329.544 373.573 329.177 372.863 328.76 372.177L357.084 310.164C359.638 304.746 363.566 300.092 368.477 296.663L453.815 247.391C457.76 245.113 459.009 247.391 456.657 252.659L429.069 313.055C427.454 316.575 424.782 319.504 421.424 321.434L347.602 364.091Z" fill="white"></path> <path d="M271.131 236.389C271.327 237.54 271.522 238.69 271.767 239.841C271.155 239.057 270.592 238.274 269.98 237.393C270.396 237.074 270.788 236.732 271.131 236.389Z" fill="white"></path> <path d="M272.185 238.815C271.52 238.815 270.868 238.635 270.297 238.294C269.727 237.953 269.259 237.463 268.945 236.877C268.631 236.292 268.481 235.631 268.512 234.967C268.544 234.303 268.754 233.66 269.122 233.106C269.487 232.593 269.978 232.183 270.547 231.914C271.116 231.646 271.745 231.528 272.373 231.572C273.001 231.616 273.607 231.82 274.133 232.166C274.659 232.511 275.088 232.986 275.378 233.545C275.668 234.104 275.81 234.728 275.789 235.357C275.769 235.986 275.587 236.599 275.262 237.138C274.937 237.677 274.478 238.123 273.931 238.434C273.383 238.745 272.765 238.91 272.136 238.913L272.185 238.815ZM271.768 234.723L269.588 232.543L271.768 234.723Z" fill="#3A3A3A"></path> <path d="M221.493 255.918C215.5 255.924 209.518 255.433 203.607 254.448C203.124 254.369 202.662 254.196 202.246 253.938C201.83 253.68 201.469 253.344 201.184 252.947C200.898 252.549 200.694 252.1 200.582 251.624C200.47 251.148 200.453 250.655 200.532 250.172C200.611 249.69 200.784 249.227 201.041 248.811C201.299 248.396 201.636 248.035 202.033 247.749C202.43 247.464 202.879 247.259 203.355 247.147C203.831 247.035 204.325 247.018 204.807 247.097C228.99 251.091 254.815 245.945 267.555 234.601C267.889 234.324 268.208 234.03 268.511 233.719C268.756 233.45 268.976 233.18 269.221 232.862C269.81 232.113 270.667 231.621 271.61 231.492C272.554 231.362 273.512 231.604 274.281 232.166C275.05 232.729 275.571 233.568 275.733 234.506C275.895 235.445 275.686 236.411 275.151 237.199C274.739 237.782 274.28 238.331 273.779 238.84C273.387 239.232 272.995 239.6 272.554 239.967C261.209 250.209 242 255.918 221.493 255.918Z" fill="#3A3A3A"></path> <path d="M354.559 502.426C353.946 502.422 353.343 502.265 352.805 501.969C352.268 501.674 351.812 501.25 351.479 500.735C351.146 500.219 350.947 499.63 350.898 499.018C350.85 498.407 350.955 497.793 351.202 497.232C360.243 477.337 369.26 458.887 377.982 441.075C390.551 415.397 402.484 391.141 412.284 366.738C414.598 361.003 414.928 354.659 413.224 348.715C411.519 342.771 407.877 337.567 402.876 333.93C402.468 333.653 402.12 333.296 401.852 332.882C401.585 332.467 401.404 332.003 401.32 331.517C401.236 331.031 401.251 330.532 401.363 330.052C401.476 329.572 401.684 329.119 401.975 328.721C402.267 328.323 402.635 327.987 403.058 327.735C403.482 327.482 403.952 327.317 404.441 327.25C404.93 327.183 405.427 327.215 405.903 327.344C406.379 327.473 406.825 327.696 407.212 328.001C413.531 332.603 418.132 339.184 420.284 346.699C422.437 354.213 422.019 362.232 419.096 369.482C409.295 394.13 397.289 418.485 384.794 444.284C376.071 462.072 367.079 480.473 358.112 500.27C357.803 500.944 357.3 501.51 356.667 501.894C356.033 502.279 355.299 502.464 354.559 502.426Z" fill="#3A3A3A"></path> <path d="M371.196 568.579C370.221 568.618 369.271 568.268 368.554 567.607C367.837 566.945 367.413 566.026 367.374 565.051C367.335 564.077 367.684 563.126 368.346 562.409C369.008 561.693 369.927 561.268 370.902 561.229C380.359 560.469 385.603 557.848 388.249 555.79L389.572 552.139L388.175 555.52L363.061 545.156C362.614 544.971 362.208 544.7 361.865 544.358C361.523 544.016 361.251 543.61 361.066 543.162C360.88 542.715 360.785 542.236 360.785 541.752C360.784 541.268 360.879 540.789 361.064 540.341C361.249 539.894 361.521 539.488 361.863 539.145C362.205 538.803 362.611 538.531 363.058 538.346C363.505 538.161 363.985 538.065 364.469 538.065C364.953 538.065 365.432 538.16 365.879 538.345L390.993 548.733C392.215 549.245 393.282 550.069 394.086 551.123C394.89 552.176 395.403 553.422 395.575 554.736C395.754 556.035 395.583 557.359 395.079 558.569C394.575 559.78 393.756 560.834 392.708 561.621C386.447 565.92 379.081 568.326 371.49 568.555L371.196 568.579Z" fill="#3A3A3A"></path> <path d="M335.498 564.806C335.221 564.842 334.941 564.842 334.665 564.806C328 563.238 320.846 561.205 313.397 558.755C311.118 557.984 309.159 556.479 307.829 554.474C306.498 552.47 305.871 550.08 306.047 547.68C306.659 538.737 307.64 529.402 308.889 519.92C309.019 518.945 309.531 518.062 310.312 517.465C311.093 516.868 312.08 516.605 313.054 516.735C314.029 516.865 314.912 517.377 315.51 518.158C316.107 518.939 316.37 519.925 316.24 520.9C314.99 530.211 314.034 539.399 313.422 548.219C313.379 548.999 313.597 549.771 314.04 550.414C314.484 551.057 315.128 551.534 315.872 551.772C323.222 554.222 330.058 556.133 336.527 557.652C337.009 557.709 337.476 557.859 337.901 558.096C338.325 558.333 338.699 558.651 339 559.032C339.301 559.413 339.525 559.85 339.657 560.317C339.79 560.785 339.829 561.273 339.773 561.756C339.717 562.239 339.566 562.706 339.329 563.13C339.093 563.554 338.775 563.928 338.393 564.229C338.012 564.531 337.576 564.754 337.108 564.887C336.641 565.02 336.152 565.059 335.669 565.003L335.498 564.806Z" fill="#3A3A3A"></path> <path d="M347.602 367.668C347.123 367.679 346.647 367.587 346.206 367.399C345.75 367.223 345.34 366.947 345.005 366.59C344.662 366.253 344.39 365.85 344.204 365.407C344.018 364.963 343.922 364.487 343.922 364.005C343.922 363.524 344.018 363.048 344.204 362.604C344.39 362.16 344.662 361.758 345.005 361.42C345.176 361.245 345.364 361.089 345.569 360.955C345.971 360.688 346.42 360.497 346.892 360.392C347.363 360.318 347.842 360.318 348.313 360.392C348.556 360.442 348.794 360.516 349.023 360.612C349.24 360.702 349.446 360.817 349.636 360.955C349.845 361.083 350.035 361.239 350.199 361.42C350.858 362.07 351.244 362.946 351.277 363.871C351.275 364.357 351.184 364.839 351.008 365.292C350.814 365.731 350.54 366.129 350.199 366.468C349.873 366.836 349.473 367.132 349.026 367.339C348.579 367.546 348.094 367.658 347.602 367.668Z" fill="#3A3A3A"></path> <path d="M339.394 413.241C338.949 413.245 338.508 413.161 338.095 412.996C337.643 412.827 337.229 412.571 336.877 412.241C336.525 411.912 336.242 411.516 336.044 411.076C335.845 410.636 335.736 410.162 335.722 409.679C335.709 409.197 335.791 408.717 335.964 408.267C340.423 396.457 347.259 380.801 354.291 373.181L345.519 367.105C344.717 366.549 344.168 365.697 343.993 364.737C343.819 363.777 344.032 362.787 344.588 361.984C345.144 361.181 345.995 360.632 346.956 360.458C347.916 360.283 348.906 360.497 349.709 361.053L358.48 367.154C359.341 367.752 360.064 368.528 360.601 369.428C361.137 370.329 361.475 371.334 361.591 372.376C361.707 373.418 361.599 374.473 361.273 375.469C360.948 376.466 360.414 377.382 359.706 378.155C354.805 383.447 348.827 395.061 342.824 410.864C342.558 411.559 342.088 412.158 341.476 412.582C340.864 413.006 340.138 413.236 339.394 413.241Z" fill="#3A3A3A"></path> <path d="M290.66 166.34C289.685 166.441 288.711 166.15 287.95 165.532C287.19 164.914 286.706 164.019 286.605 163.045C286.505 162.07 286.795 161.095 287.413 160.335C288.031 159.574 288.926 159.09 289.901 158.99C292.226 158.504 294.481 157.73 296.614 156.687C297.05 156.446 297.53 156.296 298.025 156.246C298.52 156.196 299.02 156.248 299.495 156.397C299.97 156.546 300.41 156.791 300.787 157.115C301.165 157.439 301.473 157.837 301.692 158.284C301.911 158.731 302.037 159.218 302.063 159.715C302.088 160.212 302.013 160.709 301.84 161.176C301.668 161.643 301.402 162.07 301.06 162.431C300.717 162.792 300.305 163.08 299.848 163.277C297.18 164.598 294.357 165.577 291.444 166.193C291.188 166.267 290.926 166.316 290.66 166.34Z" fill="#3A3A3A"></path> <path d="M327.853 288.308C327.281 288.316 326.716 288.187 326.204 287.931C325.693 287.675 325.249 287.3 324.913 286.838C323.261 284.591 321.363 282.537 319.253 280.713C318.817 280.35 318.47 279.892 318.241 279.373C318.011 278.855 317.905 278.29 317.93 277.724C318.224 271.476 317.268 260.205 313.397 256.554C297.653 241.954 284.409 224.871 274.195 205.984C273.734 205.123 273.633 204.114 273.916 203.178C274.198 202.243 274.841 201.459 275.702 200.997C276.563 200.536 277.572 200.436 278.507 200.718C279.442 201.001 280.226 201.643 280.688 202.504C290.535 220.716 303.326 237.174 318.542 251.213C324.986 257.314 325.452 271.133 325.403 276.278C327.407 278.167 329.236 280.233 330.867 282.452C331.279 282.996 331.53 283.644 331.592 284.324C331.655 285.003 331.526 285.686 331.22 286.296C330.914 286.905 330.443 287.417 329.861 287.773C329.279 288.128 328.609 288.314 327.927 288.308H327.853Z" fill="#3A3A3A"></path> <path d="M324.131 337.483C323.335 337.483 322.562 337.225 321.926 336.748L298.723 319.327L280.42 324.938C279.755 325.15 279.043 325.166 278.37 324.983C277.696 324.801 277.089 324.428 276.622 323.909L256.433 301.858C229.438 298.933 202.843 293.067 177.122 284.364C170.684 282.225 165.024 278.225 160.859 272.869C156.694 267.513 154.211 261.043 153.723 254.276C152.596 238.938 151.984 225.389 151.91 212.844C151.102 104.793 189.961 82.497 261.922 79.1403H263.539C270.905 79.0578 278.052 81.6414 283.662 86.4144C289.273 91.1875 292.968 97.828 294.067 105.112C296.518 125.301 298.968 141.545 301.981 159.456C303.721 169.256 305.632 179.351 307.592 189.592C308.862 196.067 312.157 201.97 317.001 206.449L317.197 206.646C318.667 208.214 353.165 245.186 352.479 267.727C352.307 273.583 351.842 280.566 351.131 288.504C349.71 304.504 347.652 319.254 347.627 319.401C347.506 320.214 347.118 320.964 346.523 321.532C345.929 322.1 345.162 322.453 344.344 322.537C343.524 322.62 342.7 322.423 342.006 321.978C341.312 321.534 340.789 320.867 340.522 320.087C337.906 312.304 334.821 304.687 331.285 297.276C329.499 293.635 327.409 290.152 325.037 286.863C324.517 286.078 324.318 285.122 324.482 284.194C324.646 283.266 325.16 282.437 325.918 281.877C326.676 281.317 327.619 281.07 328.555 281.186C329.49 281.303 330.344 281.773 330.942 282.502C333.577 286.122 335.889 289.968 337.851 293.993C339.297 296.884 340.718 300.045 342.188 303.646C342.727 298.942 343.315 293.478 343.83 287.868C344.516 280.076 344.957 273.167 345.128 267.507C345.618 251.36 321.436 221.91 311.929 211.766C305.987 206.231 301.948 198.959 300.389 190.989C298.404 180.723 296.493 170.678 294.754 160.73C291.593 142.672 289.192 126.428 286.791 106.043C285.929 100.521 283.101 95.4976 278.829 91.8958C274.556 88.2941 269.126 86.3571 263.539 86.4417H262.314C193.342 89.6758 158.501 110.086 159.261 212.771C159.261 225.022 159.922 238.522 161.049 253.713C161.428 259.036 163.379 264.128 166.655 268.341C169.931 272.555 174.384 275.701 179.45 277.381C205.372 286.055 226.909 290.71 258.908 294.532C259.772 294.655 260.567 295.07 261.162 295.708L280.763 317.147L298.6 311.634C299.159 311.466 299.75 311.432 300.324 311.534C300.899 311.636 301.441 311.872 301.908 312.222L326.605 330.769C327.385 331.354 327.901 332.225 328.039 333.19C328.176 334.155 327.925 335.135 327.341 335.915C326.98 336.424 326.497 336.835 325.936 337.109C325.375 337.383 324.754 337.512 324.131 337.483Z" fill="#3A3A3A"></path> <path d="M324.13 337.458C323.457 337.458 322.797 337.272 322.223 336.922C321.648 336.572 321.181 336.071 320.871 335.474C316.519 327.427 311.666 319.661 306.342 312.222C296.247 298.158 286.593 288.799 278.41 285.27C266.87 280.174 241.511 269.786 203.044 254.448H202.701L196.992 252.169C194.229 251.082 191.883 249.146 190.289 246.642C188.695 244.137 187.937 241.191 188.122 238.228L192.312 167.517C192.33 167.034 192.446 166.559 192.653 166.122C192.86 165.685 193.153 165.295 193.514 164.974C193.876 164.653 194.299 164.41 194.758 164.257C195.217 164.105 195.702 164.047 196.183 164.087C196.665 164.112 197.137 164.232 197.572 164.44C198.008 164.649 198.397 164.942 198.718 165.302C199.04 165.662 199.286 166.082 199.444 166.538C199.602 166.994 199.668 167.476 199.638 167.958L195.448 238.669C195.36 240.085 195.723 241.493 196.484 242.69C197.246 243.888 198.367 244.813 199.687 245.333C201.304 245.97 269.737 273.51 281.375 278.655C290.906 282.894 301.294 292.817 312.32 308.057C317.851 315.781 322.884 323.85 327.388 332.215C327.82 333.075 327.898 334.069 327.605 334.985C327.312 335.901 326.671 336.666 325.82 337.115C325.294 337.368 324.713 337.486 324.13 337.458Z" fill="#3A3A3A"></path> <path d="M404.372 643.529C402.903 643.526 401.448 643.243 400.084 642.696C379.601 634.488 365.341 626.917 353.85 618.195C350.766 615.824 348.31 612.732 346.7 609.191C345.089 605.649 344.373 601.766 344.613 597.883L345.079 589.21C345.212 586.606 344.743 584.007 343.707 581.614C343.348 580.765 342.921 579.946 342.432 579.164C340.668 576.444 337.042 570.711 332.362 562.969C326.188 552.752 317.147 537.365 309.16 521.929C303.159 510.973 298.173 499.491 294.263 487.627C290.441 474.396 290.147 456.363 289.877 440.437C289.877 433.454 289.657 426.888 289.265 421.204C289.063 418.187 288.044 415.283 286.318 412.801C284.591 410.319 282.222 408.354 279.464 407.115C270.472 403.024 221.714 380.311 219.779 379.429C200.888 370.56 172.32 357.157 161.637 330.108C153.797 310.237 158.354 289.117 163.205 272.921C163.484 271.986 164.124 271.199 164.983 270.735C165.842 270.271 166.851 270.167 167.787 270.447C168.722 270.726 169.509 271.366 169.973 272.225C170.437 273.084 170.541 274.093 170.261 275.028C165.753 290.072 161.465 309.649 168.473 327.412C178.077 351.742 204 363.895 222.915 372.764C224.85 373.671 273.535 396.335 282.527 400.427C286.486 402.217 289.885 405.051 292.358 408.625C294.831 412.198 296.285 416.377 296.566 420.714C296.958 426.57 297.08 433.234 297.203 440.315C297.472 455.8 297.767 473.318 301.295 485.593C305.09 496.984 309.895 508.012 315.653 518.548C323.542 533.788 332.51 549.052 338.61 559.147C343.266 566.816 346.867 572.5 348.582 575.195C349.311 576.285 349.935 577.442 350.444 578.65C351.924 582.077 352.587 585.801 352.38 589.528L351.914 598.202C351.746 600.888 352.239 603.575 353.349 606.027C354.46 608.479 356.154 610.621 358.285 612.265C369.237 620.596 382.958 627.849 402.804 635.787C403.592 636.112 404.462 636.183 405.292 635.989C406.122 635.796 406.871 635.348 407.435 634.709C408.001 634.13 408.371 633.389 408.494 632.589C408.617 631.79 408.487 630.971 408.121 630.25C404.421 622.728 397.952 615.377 391.705 608.198C383.84 599.255 375.681 589.994 372.104 579.556C371.319 577.106 368.355 568.09 367.644 565.885C365.194 558.534 363.087 550.841 360.882 542.584C357.06 528.373 353.801 514.211 350.91 499.265C347.847 483.437 345.471 468.59 342.947 452.884C340.767 439.139 338.488 424.928 335.597 410.105C334.421 403.759 333.146 397.266 331.75 390.773C330.628 385.579 328.849 380.548 326.457 375.803C326.139 375.141 325.772 374.504 325.404 373.843C324.973 373.002 324.883 372.027 325.152 371.122C325.421 370.216 326.028 369.448 326.848 368.979C327.668 368.509 328.637 368.373 329.554 368.599C330.471 368.825 331.267 369.395 331.774 370.192C332.215 370.952 332.632 371.711 333.024 372.495C335.704 377.807 337.697 383.439 338.953 389.254C340.325 395.796 341.648 402.362 342.825 408.855C345.618 423.801 347.896 438.061 350.175 451.83C352.625 467.487 355.075 482.261 358.064 497.991C360.931 512.692 364.165 526.756 367.865 540.795C370.07 548.954 372.251 556.476 374.578 563.802C375.313 566.252 378.254 575.17 378.964 577.326C382.051 586.367 389.353 594.674 397.095 603.47C403.661 610.82 410.473 618.636 414.614 627.064C415.624 629.123 415.983 631.441 415.641 633.709C415.3 635.977 414.274 638.086 412.702 639.756C411.647 640.923 410.363 641.86 408.93 642.509C407.497 643.158 405.945 643.505 404.372 643.529Z" fill="#3A3A3A"></path> <path d="M277.356 332.264C276.613 332.271 275.886 332.049 275.274 331.627L248.322 313.03C247.888 312.775 247.51 312.433 247.213 312.026C246.916 311.618 246.706 311.154 246.596 310.662C246.486 310.171 246.479 309.661 246.574 309.166C246.669 308.671 246.865 308.201 247.149 307.785C247.434 307.369 247.801 307.017 248.228 306.749C248.655 306.48 249.132 306.303 249.631 306.227C250.129 306.152 250.638 306.179 251.125 306.308C251.612 306.437 252.067 306.666 252.463 306.978L279.414 325.575C279.811 325.847 280.151 326.196 280.413 326.6C280.675 327.004 280.854 327.455 280.941 327.929C281.027 328.403 281.019 328.889 280.917 329.36C280.815 329.83 280.621 330.276 280.345 330.671C280.014 331.16 279.569 331.56 279.048 331.838C278.527 332.115 277.947 332.262 277.356 332.264Z" fill="#3A3A3A"></path> <path d="M177.122 225.561C168.056 225.45 159.377 221.873 152.866 215.564C152.52 215.226 152.244 214.824 152.054 214.379C151.863 213.935 151.762 213.457 151.757 212.974C151.751 212.49 151.841 212.01 152.02 211.561C152.2 211.112 152.467 210.704 152.804 210.358C153.142 210.012 153.545 209.736 153.989 209.545C154.434 209.355 154.912 209.254 155.395 209.249C155.879 209.243 156.359 209.333 156.807 209.512C157.256 209.692 157.665 209.959 158.011 210.296C162.261 214.618 167.878 217.332 173.906 217.976C179.933 218.619 185.997 217.152 191.063 213.825C191.461 213.522 191.916 213.304 192.401 213.183C192.886 213.062 193.39 213.042 193.883 213.123C194.376 213.203 194.848 213.384 195.269 213.653C195.69 213.922 196.051 214.275 196.332 214.688C196.612 215.102 196.805 215.568 196.898 216.059C196.992 216.55 196.985 217.055 196.878 217.543C196.77 218.03 196.563 218.491 196.272 218.897C195.98 219.302 195.608 219.644 195.18 219.901C189.873 223.573 183.576 225.547 177.122 225.561Z" fill="#3A3A3A"></path> <path d="M327.044 379.649C326.4 379.646 325.767 379.477 325.206 379.158L267.555 345.861C265.981 345.116 264.633 343.966 263.651 342.527C262.669 341.089 262.089 339.415 261.969 337.678C262.017 336.211 262.459 334.785 263.247 333.548C264.036 332.31 265.143 331.308 266.452 330.646L298.084 312.368C298.502 312.127 298.964 311.97 299.442 311.907C299.921 311.844 300.408 311.876 300.874 312.001C301.34 312.126 301.778 312.342 302.161 312.636C302.544 312.93 302.865 313.297 303.106 313.715C303.348 314.134 303.504 314.595 303.567 315.074C303.63 315.553 303.598 316.039 303.473 316.506C303.348 316.972 303.132 317.409 302.838 317.792C302.544 318.176 302.177 318.497 301.759 318.738L270.127 337.016C269.795 337.158 269.513 337.397 269.319 337.702C269.319 337.702 269.711 338.633 271.23 339.515L328.882 372.788C329.583 373.192 330.132 373.817 330.443 374.565C330.753 375.313 330.808 376.142 330.598 376.924C330.389 377.706 329.927 378.397 329.284 378.89C328.642 379.383 327.854 379.65 327.044 379.649Z" fill="#3A3A3A"></path> <path d="M309.427 313.765C308.615 313.777 307.822 313.518 307.173 313.028C306.525 312.539 306.058 311.847 305.847 311.062C305.636 310.278 305.693 309.445 306.009 308.697C306.324 307.948 306.881 307.326 307.59 306.929L332.63 292.474C333.048 292.192 333.519 291.999 334.014 291.907C334.51 291.815 335.018 291.826 335.509 291.939C336 292.052 336.463 292.265 336.868 292.564C337.273 292.863 337.613 293.243 337.865 293.679C338.118 294.115 338.278 294.598 338.336 295.098C338.393 295.599 338.348 296.106 338.202 296.588C338.055 297.07 337.812 297.517 337.485 297.9C337.159 298.284 336.757 298.597 336.305 298.819L311.265 313.275C310.707 313.599 310.073 313.768 309.427 313.765Z" fill="#3A3A3A"></path> <path d="M327.878 288.333C327.215 288.334 326.563 288.157 325.992 287.819L309.404 278.018L305.852 276.573C300.51 274.392 290.538 270.325 278.9 266.062C267.262 261.799 267.335 246.142 268.585 234.823C269.369 227.693 270.839 219.779 272.26 212.159C272.775 209.317 273.314 206.499 273.804 203.706C274.808 198.021 275.421 193.905 275.862 191.136C277.111 183.1 277.283 182.389 280.762 178.004L282.11 176.264C282.11 176.117 282.33 176.019 282.428 175.897C285.609 172.271 287.268 167.558 287.059 162.739C287.159 158.636 286.197 154.576 284.266 150.954C282.475 147.772 281.57 144.168 281.644 140.517C281.644 139.54 282.031 138.602 282.719 137.909C283.408 137.216 284.342 136.823 285.319 136.817C286.29 136.817 287.221 137.201 287.91 137.885C288.598 138.569 288.988 139.497 288.995 140.468C288.924 142.841 289.482 145.191 290.611 147.279C293.201 152.032 294.509 157.377 294.409 162.788C294.622 169.454 292.262 175.946 287.819 180.92L286.544 182.536C284.094 185.526 284.094 185.526 283.163 192.337C282.698 195.277 282.085 199.295 281.056 205.053C280.566 207.871 280.027 210.713 279.513 213.58C278.116 221.077 276.67 228.82 275.911 235.631C273.877 254.13 278.116 257.927 281.473 259.177C293.258 263.465 303.303 267.581 308.718 269.762C310.409 270.472 311.658 270.987 312.442 271.281C312.631 271.351 312.812 271.441 312.981 271.55L329.838 281.62C330.52 282.037 331.047 282.664 331.341 283.407C331.634 284.149 331.678 284.968 331.464 285.737C331.251 286.507 330.793 287.186 330.159 287.672C329.525 288.159 328.751 288.425 327.952 288.432L327.878 288.333Z" fill="#3A3A3A"></path> <path d="M378.644 294.458C377.999 294.461 377.364 294.292 376.806 293.968L367.006 288.382C365.238 287.408 363.274 286.845 361.259 286.735C359.244 286.624 357.231 286.97 355.367 287.745L349.095 291.346C348.25 291.834 347.247 291.966 346.305 291.713C345.363 291.46 344.56 290.844 344.072 289.999C343.585 289.154 343.453 288.151 343.706 287.209C343.959 286.267 344.575 285.464 345.42 284.976L351.717 281.375C354.704 279.963 357.986 279.285 361.288 279.395C364.591 279.506 367.819 280.403 370.705 282.012L380.506 287.598C381.208 288.002 381.756 288.626 382.067 289.374C382.377 290.122 382.432 290.952 382.222 291.734C382.013 292.516 381.551 293.207 380.908 293.7C380.265 294.193 379.478 294.459 378.668 294.458H378.644Z" fill="#3A3A3A"></path> <path d="M327.044 379.649C326.136 379.651 325.261 379.31 324.594 378.694C324.017 378.171 323.621 377.48 323.463 376.718C323.304 375.956 323.391 375.164 323.712 374.455L353.75 308.644C356.635 302.535 361.091 297.301 366.663 293.478L376.831 287.597L452.001 244.23C456.191 241.78 458.69 243.127 459.817 244.23C462.071 246.264 462.12 249.645 460.013 254.276L432.424 314.647C430.507 318.864 427.321 322.376 423.31 324.692L328.906 379.233C328.329 379.524 327.69 379.667 327.044 379.649ZM380.482 293.894L370.313 299.775C366.11 302.84 362.741 306.908 360.513 311.609L335.252 366.957L419.684 318.175C422.383 316.621 424.532 314.267 425.834 311.437L452.785 252.144L380.482 293.894Z" fill="#3A3A3A"></path> <path d="M347.087 583.844C346.112 583.889 345.16 583.546 344.438 582.889C343.717 582.232 343.286 581.315 343.241 580.34C343.195 579.366 343.538 578.413 344.196 577.691C344.853 576.97 345.769 576.539 346.744 576.493C355.481 575.29 363.949 572.605 371.784 568.555C372.658 568.12 373.67 568.049 374.596 568.359C375.521 568.67 376.286 569.335 376.722 570.209C377.157 571.083 377.227 572.094 376.917 573.02C376.607 573.946 375.942 574.711 375.068 575.146C366.434 579.629 357.079 582.556 347.43 583.795L347.087 583.844Z" fill="#3A3A3A"></path> <path d="M242.637 38.7856C234.576 61.8904 228.77 75.5378 217.131 91.8557C215.98 93.508 215.53 95.5488 215.879 97.5321C216.228 99.5155 217.347 101.28 218.994 102.44C224.996 106.728 234.405 112.02 242.368 110.207C248.738 108.737 246.876 95.8984 250.478 86.8819C250.478 86.8819 265.35 89.8218 271.133 83.0104C276.915 76.1991 282.011 52.8494 282.011 52.8494C267.923 54.7115 253.761 49.1497 242.637 38.7856Z" fill="white"></path> <path d="M239.012 114.251C231.025 114.251 222.768 109.644 216.961 105.43C214.525 103.708 212.87 101.091 212.36 98.1518C211.851 95.2124 212.527 92.1907 214.241 89.7492C225.659 73.6763 231.392 60.1272 239.282 37.5859C239.484 37.009 239.827 36.4917 240.279 36.0806C240.731 35.6696 241.279 35.3778 241.873 35.2318C242.466 35.0858 243.087 35.0903 243.678 35.2447C244.27 35.399 244.814 35.6985 245.26 36.1159C255.869 46.088 269.125 50.8167 281.62 49.1996C282.206 49.1242 282.802 49.1902 283.357 49.3922C283.912 49.5941 284.411 49.9258 284.811 50.36C285.212 50.7942 285.503 51.3182 285.659 51.8878C285.816 52.4574 285.834 53.0562 285.712 53.6342C285.173 56.0843 280.248 78.1355 274.049 85.4859C268.708 91.7583 258.466 91.6359 253.101 91.0723C252.524 93.4975 252.075 95.9509 251.753 98.4227C250.748 105.234 249.719 112.291 243.3 113.761C241.895 114.09 240.456 114.254 239.012 114.251ZM244.329 45.0832C236.979 65.3213 231.172 78.4541 220.122 94.086C219.541 94.947 219.321 96.0015 219.509 97.023C219.697 98.0445 220.277 98.9515 221.126 99.5497C229.236 105.332 236.489 107.856 241.561 106.704C243.08 106.361 243.814 101.24 244.378 97.4917C244.813 93.4499 245.709 89.4712 247.049 85.6331C247.373 84.8374 247.963 84.1782 248.717 83.7674C249.472 83.3566 250.345 83.2192 251.189 83.3789C254.497 84.0159 264.788 84.9226 268.34 80.7328C271.893 76.5431 275.299 64.7577 277.283 56.9663H276.597C264.814 56.7319 253.45 52.5472 244.329 45.0832Z" fill="#3A3A3A"></path> </svg> 