<?xml version="1.0" encoding="UTF-8"?> <svg xmlns="http://www.w3.org/2000/svg" width="288" height="216" viewBox="0 0 288 216" fill="none"> <path d="M20.3975 122.565L18.4971 124.033L54.134 170.175L56.0344 168.707L20.3975 122.565Z" fill="#E0DFE6"></path> <path d="M6.12786 115.619H12.8274V113.218H6.00768C5.93564 114.011 5.98378 114.803 6.12786 115.619Z" fill="#E0DFE6"></path> <path d="M32.8151 157.617C29.9096 154.447 26.9082 151.157 24.2669 147.748C21.6255 144.338 18.72 140.952 15.8145 137.831L14.7578 138.815C15.8384 140.616 16.967 142.345 18.1677 144.074C19.3683 145.803 21.0972 147.58 22.3698 149.212C25.0592 152.718 28.1087 156.032 31.0382 159.226C31.3984 159.634 31.7585 160.066 32.1427 160.474C35.9523 164.292 39.9599 167.907 44.1488 171.304C43.3564 170.103 42.4921 168.903 41.5316 167.654C38.7702 164.268 35.7446 160.834 32.8151 157.617Z" fill="#E0DFE6"></path> <path d="M7.78516 123.304C8.02528 124.12 8.31364 124.937 8.60179 125.705L8.79378 123.304H7.78516Z" fill="#E0DFE6"></path> <path d="M71.241 168.206L72.9939 166.573C69.0078 162.299 64.9258 157.425 60.4836 151.686C56.0413 145.947 51.5751 139.68 47.3249 133.773C43.0747 127.866 38.6565 121.767 34.1662 115.932C31.765 112.714 29.3636 109.832 27.1064 107.167L25.2334 108.68L25.9298 109.568C27.9709 111.969 30.036 114.563 32.2451 117.42C36.7114 123.207 41.1055 129.427 45.3317 135.213C49.5578 141 54.0241 147.22 58.5625 153.175C63.1008 159.13 67.207 163.884 71.241 168.206Z" fill="#E0DFE6"></path> <path d="M88.4375 164.557C81.7969 157.548 75.5443 150.181 69.7078 142.49C66.1299 137.879 52.2268 119.15 48.6489 114.539C42.7697 106.773 36.4606 99.3414 29.7513 92.2798L28.0225 93.9365C34.663 100.946 40.9156 108.312 46.7522 116.004C50.306 120.614 64.2329 139.32 67.8107 143.954C73.6957 151.709 79.9964 159.14 86.6846 166.214L88.4375 164.557Z" fill="#E0DFE6"></path> <path d="M49.3179 94.104C48.0452 93.7919 46.7727 93.5038 45.5 93.2637C53.5201 102.869 61.8042 113.242 70.5447 124.48C80.6778 137.614 91.5554 152.166 104.714 170.295L106.659 168.878C93.4765 150.749 82.6469 136.173 72.4417 123.015C64.4696 112.689 56.8337 103.085 49.3179 94.104Z" fill="#E0DFE6"></path> <path d="M20.7422 100.059C17.4766 100.347 13.9708 100.539 10.2489 100.659C9.65138 101.422 9.10604 102.225 8.61621 103.061C13.0585 103.061 17.1406 102.748 20.9586 102.388L20.7422 100.059Z" fill="#E0DFE6"></path> <path d="M147.787 180.309C156.6 190.418 165.58 201.272 175.065 213.23L177.682 212.678C167.909 200.335 158.641 189.145 149.588 178.724L147.787 180.309Z" fill="#E0DFE6"></path> <path d="M193.612 200.695C189.938 200.695 186.625 200.695 183.455 200.911V203.312H184.464C187.321 203.312 190.299 203.144 193.564 203.144C197.334 203.144 201.152 203.144 204.946 203.336C206.459 202.592 207.948 201.847 209.437 200.935C204.226 200.839 198.871 200.695 193.612 200.695Z" fill="#E0DFE6"></path> <path d="M125.55 190.226C123.149 190.226 120.603 189.937 117.362 189.937C112.079 189.937 90.9484 189.553 85.7377 189.553C79.6146 189.553 74.1637 189.697 69.1211 189.985C70.3217 190.754 71.5223 191.498 72.6989 192.219C76.733 192.05 81.0313 191.954 85.7377 191.954C91.0204 191.954 112.151 192.338 117.362 192.338C120.531 192.338 123.029 192.483 125.406 192.627C129.835 192.994 134.289 192.946 138.709 192.483L138.469 190.081C134.176 190.532 129.851 190.581 125.55 190.226Z" fill="#E0DFE6"></path> <path d="M118.983 204.009C125.61 204.009 131.421 203.769 136.752 203.288L136.512 200.887C131.277 201.367 125.538 201.583 118.983 201.583C112.427 201.583 105.512 201.343 98.9085 201.127C95.6188 201.127 92.3051 200.887 88.9434 200.815C90.9124 201.727 92.9053 202.568 94.8984 203.408H98.8364C105.32 203.769 112.163 204.009 118.983 204.009Z" fill="#E0DFE6"></path> <path d="M142 194.789C148.181 201.298 154.016 208.127 159.481 215.247C160.442 215.247 161.402 215.103 162.339 215.031C156.546 207.399 150.342 200.088 143.753 193.132L142 194.789Z" fill="#E0DFE6"></path> <path d="M167.224 178.676L167.368 181.077C183.432 180.141 200.625 179.685 219.931 179.685C228.815 179.685 234.338 179.685 240.125 179.997C241.085 179.253 242.022 178.484 242.958 177.596C236.139 177.356 230.232 177.188 219.931 177.188C200.625 177.212 183.336 177.668 167.224 178.676Z" fill="#E0DFE6"></path> <path d="M200.61 189.552C191.79 189.489 182.973 189.897 174.196 190.776L174.436 193.178C183.117 192.309 191.838 191.908 200.562 191.977C205.82 191.977 221.236 192.265 223.686 192.313L223.902 192.145L226.975 189.936C223.493 189.864 205.893 189.552 200.61 189.552Z" fill="#E0DFE6"></path> <path d="M144.601 178.196C139.223 178.051 134.996 177.883 131.251 177.739C122.942 177.427 116.843 177.211 105.077 177.211C86.0593 177.211 69.0586 177.667 53.1865 178.58L56.116 180.813C71.1717 179.996 87.332 179.612 105.077 179.612C116.891 179.612 122.87 179.828 131.178 180.14C134.948 180.284 139.151 180.453 144.529 180.597L144.601 178.196Z" fill="#E0DFE6"></path> <path d="M139.211 209.531L139.907 210.419C141.156 211.908 142.453 213.493 143.749 215.221H144.085L146.943 215.39C144.926 212.772 142.957 210.347 141.06 208.186L139.211 209.531Z" fill="#E0DFE6"></path> <path d="M263.337 157.617C260.432 154.447 257.431 151.157 254.789 147.748C252.148 144.338 249.242 140.952 246.337 137.831L244.584 139.464C247.441 142.537 250.467 146.091 252.892 149.212C255.606 152.718 258.631 156.032 261.561 159.226L262.233 159.994L263.914 158.265L263.337 157.617Z" fill="#E0DFE6"></path> <path d="M69.6433 102.461H71.8285L68.5869 100.996V102.581L69.6433 102.461Z" fill="#E0DFE6"></path> <path d="M287.664 103.59C280.268 94.4409 273.256 85.9167 266.052 77.8726L264.228 79.4575C271.959 88.318 279.812 97.7548 288 107.984C288 106.527 287.888 105.062 287.664 103.59Z" fill="#E0DFE6"></path> <path d="M277.833 133.773C273.559 127.866 269.164 121.767 264.674 115.932C262.273 112.714 259.871 109.832 257.614 107.167L255.741 108.68L256.438 109.568C258.479 111.969 260.544 114.563 262.753 117.42C267.219 123.207 271.613 129.427 275.839 135.213L278.841 139.344C279.321 138.623 279.802 137.903 280.234 137.182L277.833 133.773Z" fill="#E0DFE6"></path> <path d="M94.5398 113.651L93.6754 113.218H75.7383V115.619H98.6942C97.3495 115.043 96.0526 114.395 94.5398 113.651Z" fill="#E0DFE6"></path> <path d="M228.199 168.83C229.455 168.937 230.72 168.839 231.945 168.542L231.272 166.141C230.304 166.357 229.307 166.422 228.319 166.333C227.392 166.25 226.46 166.25 225.533 166.333L225.893 168.734C226.663 168.695 227.435 168.727 228.199 168.83Z" fill="#E0DFE6"></path> <path d="M184.605 124.551C194.762 137.71 205.616 152.262 218.775 170.367L220.72 168.95C207.561 150.821 196.708 136.245 186.526 123.086L180.475 115.331L178.41 116.603C180.451 119.221 182.516 121.838 184.605 124.551Z" fill="#E0DFE6"></path> <path d="M239.31 123.447C233.75 123.193 228.18 123.354 222.645 123.927C218.779 124.263 214.793 124.6 210.879 124.6C207.214 124.634 203.557 124.256 199.977 123.471L199.449 125.872C203.202 126.699 207.037 127.094 210.879 127.049C214.889 127.049 218.947 126.713 222.885 126.377C228.284 125.805 233.718 125.644 239.142 125.896L239.31 123.447Z" fill="#E0DFE6"></path> <path d="M185.198 168.206L186.951 166.573C182.989 162.323 178.907 157.424 174.44 151.685C169.974 145.946 165.532 139.679 161.282 133.772L156.479 126.977C155.663 127.217 154.847 127.457 154.078 127.649L159.529 135.189C163.803 141.12 168.197 147.195 172.736 153.15C177.274 159.105 181.188 163.884 185.198 168.206Z" fill="#E0DFE6"></path> <path d="M202.396 164.556C195.755 157.547 189.503 150.181 183.666 142.489C180.112 137.879 170.219 124.576 168.754 122.607H168.611C167.914 123.063 167.458 123.375 167.098 123.663H166.689C168.202 125.68 178.191 139.103 181.769 143.738C187.655 151.499 193.963 158.93 200.667 165.997L202.396 164.556Z" fill="#E0DFE6"></path> <path d="M127.863 152.454L126.422 154.399C132.881 159.201 138.284 166.141 143.038 172.312L144.936 170.847C140.103 163.972 134.359 157.784 127.863 152.454Z" fill="#E0DFE6"></path> <path d="M93.0977 133.774L93.4339 136.175C101.528 135.45 109.66 135.217 117.782 135.478H122.585V133.077H117.782C109.548 132.794 101.303 133.027 93.0977 133.774Z" fill="#E0DFE6"></path> <path d="M107.797 157.905C109.526 157.905 110.99 157.905 112.407 157.905C113.783 157.833 115.161 157.833 116.537 157.905L116.681 155.504C115.145 155.504 113.776 155.504 112.311 155.504C110.846 155.504 109.502 155.504 107.845 155.504C106.294 155.394 104.737 155.394 103.187 155.504L103.427 157.905C104.882 157.819 106.341 157.819 107.797 157.905Z" fill="#E0DFE6"></path> <path d="M107.801 123.831C103.935 124.167 99.9487 124.503 96.0347 124.503C92.3699 124.539 88.713 124.161 85.1333 123.375L84.5811 125.776C88.3422 126.6 92.1845 126.995 96.0347 126.952C100.045 126.952 104.079 126.616 108.041 126.28C113.448 125.708 118.89 125.547 124.321 125.8V124.768C122.736 124.287 121.152 123.783 119.519 123.255C115.749 123.231 111.787 123.447 107.801 123.831Z" fill="#E0DFE6"></path> <path d="M112.785 166.429C112.051 166.345 111.31 166.345 110.576 166.429L111.056 168.83C111.583 168.77 112.115 168.77 112.641 168.83H113.602C114.314 168.839 115.022 168.717 115.691 168.47L114.802 166.237C114.148 166.429 113.464 166.495 112.785 166.429Z" fill="#E0DFE6"></path> <path d="M121.402 160.498L119.745 162.251C121.486 163.898 123.018 165.753 124.307 167.774C125.1 168.95 126.012 170.175 127.309 171.952L129.23 170.487C127.957 168.854 127.069 167.558 126.3 166.429C124.913 164.261 123.268 162.27 121.402 160.498Z" fill="#E0DFE6"></path> <path d="M119.114 145.491V143.089C116.713 143.089 107.925 143.089 104.947 143.089C104.107 143.089 103.314 143.089 102.546 143.089C101.777 143.089 100.144 143.233 98.4395 143.089V145.491H99.8083C100.985 145.491 101.921 145.491 102.762 145.491C103.602 145.491 104.299 145.491 105.163 145.491C107.78 145.563 116.569 145.635 119.114 145.491Z" fill="#E0DFE6"></path> <path d="M169.991 168.47L138.775 128.057C138.103 128.057 137.79 128.057 137.814 128.057C136.974 127.913 136.181 127.721 135.413 127.553L168.142 169.934L169.991 168.47Z" fill="#E0DFE6"></path> <path d="M233.834 143.114C231.432 143.114 222.644 143.114 219.666 143.114C218.826 143.114 218.034 143.114 217.265 143.114C216.497 143.114 214.864 143.258 213.159 143.114V145.515H214.552C215.705 145.515 216.641 145.515 217.482 145.515C218.322 145.515 219.018 145.515 219.883 145.515C222.884 145.515 231.649 145.515 234.29 145.515L233.834 143.114Z" fill="#E0DFE6"></path> <path d="M243.26 113.194H190.577V115.596H243.26V113.194Z" fill="#E0DFE6"></path> <path d="M243.382 149.669L241.557 151.254C242.973 152.886 252.434 163.62 255.195 166.91L256.948 165.277C254.187 161.987 244.774 151.302 243.382 149.669Z" fill="#E0DFE6"></path> <path d="M231.346 157.856L231.49 155.455C229.977 155.455 228.585 155.455 227.12 155.455C225.655 155.455 224.334 155.455 222.653 155.455C221.102 155.346 219.546 155.346 217.995 155.455L218.235 157.856C219.691 157.771 221.15 157.771 222.606 157.856C224.334 157.856 225.823 157.856 227.216 157.856C228.592 157.784 229.97 157.784 231.346 157.856Z" fill="#E0DFE6"></path> <path d="M237.672 160.354L236.423 162.395C239.696 164.755 242.403 167.815 244.347 171.352L246.556 170.391C244.406 166.407 241.365 162.972 237.672 160.354Z" fill="#E0DFE6"></path> <path d="M251.266 100.06C246.031 100.54 240.268 100.756 233.713 100.756C227.158 100.756 220.242 100.516 213.639 100.3C208.284 100.108 202.761 99.9636 197.31 99.8916L194.909 102.293C201.08 102.293 207.396 102.533 213.543 102.749C220.146 102.965 226.99 103.205 233.689 103.205C240.389 103.205 246.152 102.965 251.458 102.485L251.266 100.06Z" fill="#E0DFE6"></path> <path d="M251.05 122.318L249.153 123.807L270.284 151.181L271.845 149.284L251.05 122.318Z" fill="#E0DFE6"></path> <path d="M253.434 89.2305C249.142 89.6814 244.817 89.7298 240.515 89.3747C238.114 89.3747 235.713 89.0863 232.327 89.0863C227.068 89.0863 210.956 88.7984 208.171 88.7744L205.77 91.1756C209.323 91.1756 226.972 91.5116 232.183 91.5116C235.377 91.5116 237.85 91.6556 240.251 91.7997C244.68 92.1667 249.134 92.1186 253.554 91.6558L253.434 89.2305Z" fill="#E0DFE6"></path> <path d="M277.262 116.004C279.999 119.558 282.697 123.127 285.354 126.713C285.69 125.801 285.978 124.84 286.243 123.904C283.905 120.702 281.504 117.581 279.039 114.539C273.16 106.773 266.851 99.3414 260.141 92.2798L258.412 93.9365C265.094 100.942 271.387 108.309 277.262 116.004Z" fill="#E0DFE6"></path> <path d="M259.438 77.3435C254.059 77.1994 249.833 77.0312 246.111 76.8871C238.211 76.5989 232.376 76.3829 221.691 76.3589C220.682 77.1513 219.698 77.9437 218.737 78.7601H219.914C231.728 78.7601 237.731 78.9762 246.015 79.2883C249.785 79.4324 253.987 79.6006 259.366 79.7447L259.438 77.3435Z" fill="#E0DFE6"></path> <path d="M237.447 133.052H232.645C224.402 132.776 216.15 133.017 207.937 133.773L208.296 136.174C216.383 135.449 224.506 135.216 232.621 135.477H237.423L237.447 133.052Z" fill="#E0DFE6"></path> <path d="M145.243 155.816C139.311 149.021 132.588 141.409 130.331 138.383L128.41 139.848C130.811 142.85 137.487 150.582 143.442 157.401C148.028 162.66 152.374 167.606 153.527 169.119C154.68 170.632 155.568 171.856 156.432 173.177L158.449 171.857C157.537 170.488 156.553 169.095 155.424 167.654C154.295 166.214 150.189 161.339 145.243 155.816Z" fill="#E0DFE6"></path> <path d="M243.07 68.3389C243.564 69.0159 243.99 69.7395 244.343 70.4998L246.552 69.5395C246.384 69.1793 246.168 68.7949 245.952 68.3867C244.991 68.3387 244.031 68.2188 243.07 68.3389Z" fill="#E0DFE6"></path> <path d="M259.818 71.2678L259.242 71.0518L259.554 71.4598L259.818 71.2678Z" fill="#E0DFE6"></path> <path d="M257.489 76.8871L194.024 113.53L130.536 76.8871V3.60156L257.489 76.8871Z" fill="#D7DCE0"></path> <path d="M194.016 113.53L130.528 150.173L67.0635 113.53L130.528 76.8872L194.016 113.53Z" fill="white"></path> <path d="M130.525 3.60156V76.8871L67.0607 113.53L3.62012 76.8871L130.525 3.60156Z" fill="#3A3A3A"></path> <path d="M130.535 153.775C129.903 153.773 129.283 153.607 128.734 153.295L1.80473 80.0095C1.2561 79.6937 0.800518 79.2388 0.483646 78.6908C0.166774 78.1427 0 77.5208 0 76.8878C0 76.2547 0.166774 75.6328 0.483646 75.0848C0.800518 74.5368 1.2561 74.0822 1.80473 73.7664L128.734 0.504839C129.281 0.186342 129.902 0.0185547 130.535 0.0185547C131.168 0.0185547 131.789 0.186342 132.336 0.504839L259.289 73.7664C259.837 74.0822 260.293 74.5368 260.61 75.0848C260.927 75.6328 261.094 76.2547 261.094 76.8878C261.094 77.5208 260.927 78.1427 260.61 78.6908C260.293 79.2388 259.837 79.6937 259.289 80.0095L132.336 153.295C131.787 153.607 131.166 153.773 130.535 153.775ZM10.8093 76.9359L130.535 146.067L250.284 76.9359L130.535 7.82841L10.8093 76.9359Z" fill="#3A3A3A"></path> <path d="M67.0785 117.132C66.2848 117.133 65.5132 116.872 64.8833 116.389C64.2534 115.906 63.8007 115.228 63.5953 114.462C63.39 113.695 63.4435 112.882 63.7477 112.149C64.052 111.416 64.5897 110.804 65.2775 110.408L128.742 73.7658C129.293 73.4588 129.913 73.2974 130.543 73.2974C131.173 73.2974 131.793 73.4588 132.344 73.7658L195.832 110.408C196.242 110.645 196.602 110.96 196.89 111.335C197.178 111.71 197.39 112.139 197.512 112.596C197.635 113.053 197.666 113.53 197.605 113.999C197.543 114.468 197.39 114.921 197.153 115.331C196.917 115.741 196.602 116.1 196.226 116.388C195.851 116.677 195.422 116.888 194.965 117.011C194.508 117.133 194.031 117.165 193.562 117.103C193.093 117.041 192.64 116.888 192.23 116.652L130.543 81.0413L68.8794 116.652C68.3348 116.975 67.7116 117.141 67.0785 117.132Z" fill="#3A3A3A"></path> <path d="M130.518 80.4892C129.563 80.4892 128.646 80.1098 127.971 79.4343C127.295 78.7588 126.916 77.8427 126.916 76.8874V3.60184C126.916 2.64657 127.295 1.73041 127.971 1.05493C128.646 0.379458 129.563 0 130.518 0C131.473 0 132.389 0.379458 133.064 1.05493C133.74 1.73041 134.12 2.64657 134.12 3.60184V76.8874C134.12 77.8427 133.74 78.7588 133.064 79.4343C132.389 80.1098 131.473 80.4892 130.518 80.4892Z" fill="#3A3A3A"></path> </svg> 