<?xml version="1.0" encoding="UTF-8"?> <svg xmlns="http://www.w3.org/2000/svg" width="80" height="60" viewBox="0 0 80 60" fill="none"> <path d="M24.876 57.8153C26.5411 58.7125 28.2946 59.4445 30.1101 60.0001C37.5533 59.8346 45.2685 59.7518 53.3746 59.7518C60.0021 59.7518 64.7774 59.7518 69.1618 59.9339C70.668 59.3625 72.1043 58.6297 73.4442 57.7491C67.7513 57.567 62.1943 57.4346 53.3746 57.4346C43.3482 57.4346 33.8997 57.567 24.876 57.8153Z" fill="#E0DFE6"></path> <path d="M56.139 38.7975C57.8387 38.7975 59.3174 38.7975 60.6942 38.7975C62.071 38.7975 63.3967 38.6981 64.7905 38.7975L64.9434 36.4963C63.4997 36.4218 62.0529 36.4218 60.6092 36.4963C59.2664 36.4963 57.8387 36.4963 56.19 36.4963C54.6426 36.4452 53.0934 36.4783 51.5498 36.5956L51.8047 38.8968C53.2466 38.7872 54.6935 38.754 56.139 38.7975Z" fill="#E0DFE6"></path> <path d="M77.126 34.9736L79.0976 37.1424C78.5484 36.3327 77.8847 35.6026 77.126 34.9736Z" fill="#E0DFE6"></path> <path d="M36.0216 45.2219C32.1633 41.2984 28.254 36.9445 24.1237 31.978C23.3292 32.2053 22.5604 32.5103 21.8291 32.8886C26.2143 38.1365 30.3276 42.6725 34.3559 46.7781L36.0216 45.2219Z" fill="#E0DFE6"></path> <path d="M61.6799 47.0399C60.7696 46.958 59.8536 46.958 58.9434 47.0399L59.2833 49.3245C60.0467 49.2586 60.8145 49.2586 61.5779 49.3245C62.8205 49.4139 64.0699 49.319 65.2832 49.0431L64.6204 46.8247C63.6564 47.0369 62.6656 47.1095 61.6799 47.0399Z" fill="#E0DFE6"></path> <path d="M54.1966 49.4739C49.4384 43.0849 44.969 37.1429 40.7206 31.5649L39.0212 31.8794L38.1885 32.0615C42.6239 37.8877 47.2972 44.1112 52.3103 50.8311L54.1966 49.4739Z" fill="#E0DFE6"></path> <path d="M18.9888 48.7631L20.6885 47.1076C19.1927 45.4521 17.663 43.7966 16.0993 42.1411C15.9799 43.3247 15.9799 44.5168 16.0993 45.7004C17.1191 46.7599 18.0539 47.7863 18.9888 48.7631Z" fill="#E0DFE6"></path> <path d="M77.6274 51.7923L79.4291 51.0142C79.5007 50.8691 79.5632 50.7198 79.6161 50.5673C77.4887 46.8531 74.5393 43.6467 70.9816 41.1807L69.7578 43.1673C73.0044 45.4392 75.6924 48.3851 77.6274 51.7923Z" fill="#E0DFE6"></path> <path d="M37.1918 27.1943C36.065 27.1943 34.9844 27.6303 34.1877 28.4063C33.391 29.1823 32.9434 30.2348 32.9434 31.3323V41.2633C32.9434 42.3607 33.391 43.4132 34.1877 44.1892C34.9844 44.9652 36.065 45.4012 37.1918 45.4012C38.3186 45.4012 39.3992 44.9652 40.1959 44.1892C40.9926 43.4132 41.4403 42.3607 41.4403 41.2633V31.3323C41.4403 30.2348 40.9926 29.1823 40.1959 28.4063C39.3992 27.6303 38.3186 27.1943 37.1918 27.1943Z" fill="#3A3A3A"></path> <path d="M37.1918 8.28113e-08C36.065 8.28113e-08 34.9844 0.435918 34.1877 1.21193C33.391 1.98794 32.9434 3.04048 32.9434 4.13793V15.5751C32.9434 16.6726 33.391 17.7251 34.1877 18.5011C34.9844 19.2771 36.065 19.713 37.1918 19.713C38.3186 19.713 39.3992 19.2771 40.1959 18.5011C40.9926 17.7251 41.4403 16.6726 41.4403 15.5751V4.22066C41.4516 3.67034 41.35 3.12334 41.1416 2.61171C40.9331 2.10008 40.622 1.63412 40.2264 1.24107C39.8307 0.848024 39.3585 0.535776 38.8375 0.322669C38.3164 0.109563 37.7569 -0.000110015 37.1918 8.28113e-08Z" fill="#3A3A3A"></path> <path d="M20.6814 18.5381H4.24845C3.12169 18.5381 2.04108 18.9741 1.24434 19.7501C0.447606 20.5261 0 21.5786 0 22.676C0 23.7735 0.447606 24.8259 1.24434 25.602C2.04108 26.378 3.12169 26.8139 4.24845 26.8139H20.6814C21.8082 26.8139 22.8888 26.378 23.6855 25.602C24.4823 24.8259 24.9299 23.7735 24.9299 22.676C24.9299 21.5786 24.4823 20.5261 23.6855 19.7501C22.8888 18.9741 21.8082 18.5381 20.6814 18.5381Z" fill="#3A3A3A"></path> <path d="M70.1263 18.5381H52.4018C51.275 18.5381 50.1944 18.9741 49.3977 19.7501C48.6009 20.5261 48.1533 21.5786 48.1533 22.676C48.1533 23.7735 48.6009 24.8259 49.3977 25.602C50.1944 26.378 51.275 26.8139 52.4018 26.8139H70.1263C71.253 26.8139 72.3337 26.378 73.1304 25.602C73.9271 24.8259 74.3747 23.7735 74.3747 22.676C74.3747 21.5786 73.9271 20.5261 73.1304 19.7501C72.3337 18.9741 71.253 18.5381 70.1263 18.5381Z" fill="#3A3A3A"></path> </svg> 