<?xml version="1.0" encoding="UTF-8"?> <svg xmlns="http://www.w3.org/2000/svg" width="359" height="546" viewBox="0 0 359 546" fill="none"> <path d="M145.45 330.934C147.396 333.413 149.076 335.785 150.622 338.131L154.193 335.785C152.567 333.36 150.835 330.907 148.862 328.322C148.036 327.256 146.383 325.31 144.224 322.751L139.907 324.297C142.519 327.362 144.438 329.761 145.45 330.934Z" fill="#E7E6ED"></path> <path d="M264.781 330.667C256.012 318.593 247.83 307.398 240.047 296.896L235.169 297.483C243.378 308.544 252.014 320.325 261.343 333.172L264.781 330.667Z" fill="#E7E6ED"></path> <path d="M276.374 310.944C278.824 310.811 281.28 310.811 283.73 310.944L283.971 306.706C281.387 306.559 278.797 306.559 276.214 306.706C273.815 306.706 271.256 306.706 268.218 306.706C265.453 306.592 262.685 306.654 259.929 306.892L260.382 311.131C262.962 310.94 265.551 310.887 268.138 310.971C271.256 311.077 273.895 311.024 276.374 310.944Z" fill="#E7E6ED"></path> <path d="M310.517 302.761C307.92 301.68 305.247 300.789 302.521 300.096L310.277 308.971C318.273 318.194 327.602 328.642 333.679 336.505L337.064 333.84C330.88 325.843 321.658 315.342 313.502 306.066L310.517 302.761Z" fill="#E7E6ED"></path> <path d="M229.144 325.791L232.235 322.832C225.998 316.328 219.735 309.265 213.071 301.269C211.526 301.589 209.98 301.962 208.434 302.335C215.657 311.104 222.427 318.781 229.144 325.791Z" fill="#E7E6ED"></path> <path d="M201.69 329.334L204.834 326.429C199.504 320.805 194.173 314.595 188.629 307.585C187.163 308.011 185.724 308.491 184.258 308.944C190.335 316.54 196.092 323.284 201.69 329.334Z" fill="#E7E6ED"></path> <path d="M126.793 336.611L130.178 333.946C128.926 332.32 127.673 330.694 126.367 329.042L122.129 330.561L126.793 336.611Z" fill="#E7E6ED"></path> <path d="M159.63 317.234L171.33 332.4L174.716 329.788L163.841 315.741L159.63 317.234Z" fill="#E7E6ED"></path> <path d="M294.899 315.368L292.687 319.02C298.518 323.229 303.327 328.694 306.76 335.012L310.652 333.306C306.862 326.187 301.469 320.047 294.899 315.368Z" fill="#E7E6ED"></path> <path d="M278.053 330.427C280.278 330.607 282.518 330.436 284.69 329.921L283.517 325.816C281.768 326.205 279.97 326.322 278.186 326.163C276.555 326.005 274.913 326.005 273.282 326.163L273.868 330.374C275.262 330.256 276.663 330.274 278.053 330.427Z" fill="#E7E6ED"></path> <path d="M0.905813 475.131C10.1014 486.619 18.4712 496.268 26.7605 504.904L29.8255 501.945C20.39 492.083 10.8214 480.915 0 467.135C0.140707 469.816 0.442919 472.487 0.905813 475.131Z" fill="#E7E6ED"></path> <path d="M1.94716 435.71C18.899 457.78 37.1299 482.248 58.9327 512.287L62.3711 509.781C39.1024 477.796 19.9119 451.969 1.97384 428.754C1.86722 431.073 1.84054 433.391 1.94716 435.71Z" fill="#E7E6ED"></path> <path d="M135.296 529.932C139.693 534.996 144.145 540.193 148.622 545.471C150.248 545.204 151.847 544.911 153.473 544.591C148.435 538.621 143.478 532.81 138.521 527.133L135.296 529.932Z" fill="#E7E6ED"></path> <path d="M170.025 531.184C179.701 530.598 189.642 530.145 199.877 529.771C202.409 528.679 204.968 527.586 207.527 526.44L210.192 525.16C196.225 525.587 182.792 526.147 169.785 526.92L170.025 531.184Z" fill="#E7E6ED"></path> <path d="M129.591 526.173C120.022 525.906 112.586 525.613 105.896 525.373C91.1296 524.813 80.4416 524.414 59.3851 524.414C50.0029 524.414 40.9407 524.413 32.0916 524.6C34.0906 526.093 36.1692 527.479 38.3015 528.811C45.1782 528.811 52.1885 528.811 59.3851 528.811C80.3616 528.811 91.0229 529.211 105.736 529.771C112.426 530.011 119.889 530.304 129.457 530.57L129.591 526.173Z" fill="#E7E6ED"></path> <path d="M268.297 485.846C265.533 485.732 262.764 485.795 260.008 486.033L260.461 490.271C262.668 490.08 264.884 490.027 267.098 490.111L272.721 485.873C271.308 485.873 269.869 485.899 268.297 485.846Z" fill="#E7E6ED"></path> <path d="M258.73 468.228C260.169 468.228 261.395 468.068 262.835 468.228C268.165 468.228 283.785 468.468 288.316 468.228L288.102 463.964C283.651 464.203 268.245 463.964 262.941 463.964C261.449 463.964 260.036 463.964 258.49 463.964C256.518 463.964 254.279 464.203 251.214 463.964L251.054 468.228H253.506C255.558 468.415 257.237 468.335 258.73 468.228Z" fill="#E7E6ED"></path> <path d="M297.458 433.018L297.778 428.754C287.917 428.299 278.035 428.593 268.219 429.633C261.342 430.219 254.253 430.806 247.296 430.806C240.791 430.877 234.299 430.206 227.945 428.807L226.985 432.965C233.653 434.439 240.468 435.145 247.296 435.07C254.412 435.07 261.609 434.457 268.619 433.898C278.196 432.876 287.836 432.582 297.458 433.018Z" fill="#E7E6ED"></path> <path d="M304.812 410.761H211.257V415.026H304.812V410.761Z" fill="#E7E6ED"></path> <path d="M138.494 347.993L135.296 350.658C156.112 374.647 177.489 400.768 200.651 430.78C216.403 451.17 233.142 473.426 252.706 500.293L256.197 497.841C236.58 471 219.842 448.638 204.036 428.167C180.794 398.235 159.364 371.955 138.494 347.993Z" fill="#E7E6ED"></path> <path d="M285.942 450.236H294.498V445.971H285.995C272.135 445.971 253.131 445.678 242.096 447.277L242.71 451.488C253.424 449.969 272.215 450.102 285.942 450.236Z" fill="#E7E6ED"></path> <path d="M130.764 486.433C120.236 474.386 108.294 460.712 104.243 455.461L100.858 458.127C104.989 463.457 116.85 477.211 127.512 489.312C135.668 498.64 143.504 507.463 145.424 510.128C147.343 512.793 149.048 514.979 150.594 517.325L154.165 514.979C152.54 512.554 150.807 510.101 148.835 507.516C146.862 504.931 139.32 496.215 130.764 486.433Z" fill="#E7E6ED"></path> <path d="M111.447 427.148L108.072 429.754L171.367 511.708L174.742 509.101L111.447 427.148Z" fill="#E7E6ED"></path> <path d="M201.69 508.448L204.835 505.543C197.772 497.973 190.522 489.311 182.606 479.076C174.69 468.841 166.8 457.753 159.231 447.305C151.661 436.856 143.851 425.981 135.882 415.586C131.457 409.856 127.353 404.765 123.328 400.021L120.023 402.686L121.222 404.259C124.82 408.55 128.499 413.134 132.417 418.225C140.413 428.487 148.142 439.335 155.685 449.81C163.228 460.285 171.118 471.293 179.168 481.794C187.217 492.296 194.573 500.772 201.69 508.448Z" fill="#E7E6ED"></path> <path d="M342.288 350.792C347.814 357.135 353.384 363.656 359 370.355C358.751 367.69 358.405 365.078 357.96 362.519C353.767 357.579 349.608 352.737 345.486 347.993L342.288 350.792Z" fill="#E7E6ED"></path> <path d="M322.697 368.169C315.082 368.981 307.407 369.07 299.775 368.435C295.457 368.196 290.98 367.929 285.222 367.929C275.84 367.929 238.445 367.263 229.063 367.263C213.434 367.134 197.81 367.846 182.258 369.395L182.712 373.633C198.114 372.106 213.586 371.403 229.063 371.527C238.418 371.527 275.814 372.193 285.222 372.193C290.873 372.193 295.271 372.46 299.508 372.7C307.381 373.351 315.297 373.253 323.151 372.407L322.697 368.169Z" fill="#E7E6ED"></path> <path d="M73.0857 505.276C71.7837 505.13 70.4696 505.13 69.1676 505.276L70.0207 509.461C70.9587 509.341 71.9076 509.341 72.8455 509.461H74.5517C75.8079 509.491 77.0575 509.274 78.2297 508.821L76.6575 504.876C75.5041 505.24 74.2908 505.376 73.0857 505.276Z" fill="#E7E6ED"></path> <path d="M129.591 347.06C120.022 346.793 89.0503 345.621 79.4816 345.461C75.6968 346.793 71.8853 348.126 68.1537 349.592C83.613 349.592 93.2086 350.045 105.736 350.525C112.426 350.764 119.889 351.058 129.458 351.324L129.591 347.06Z" fill="#E7E6ED"></path> <path d="M319.02 387.386C309.718 388.239 299.509 388.639 287.835 388.639C276.161 388.639 263.846 388.239 252.225 387.813C240.604 387.386 228.45 387.013 216.643 387.013C210.139 387.013 204.222 387.013 198.571 387.386V391.651H200.357C205.421 391.438 210.752 391.358 216.536 391.358C228.264 391.358 240.311 391.758 251.959 392.157C263.607 392.557 275.947 392.984 287.728 392.984C299.509 392.984 309.851 392.584 319.287 391.704L319.02 387.386Z" fill="#E7E6ED"></path> <path d="M331.974 376.511C339.57 384.507 347.273 393.25 355.642 403.592C356.122 401.913 356.602 400.207 356.975 398.501C349.299 389.119 342.129 380.963 335.039 373.553L331.974 376.511Z" fill="#E7E6ED"></path> <path d="M318.407 426.941L315.049 429.607L325.55 443.227L328.855 440.561L318.407 426.941Z" fill="#E7E6ED"></path> <path d="M180.315 437.949C174.131 429.633 167.947 421.317 161.657 413.107C151.21 399.321 140.016 386.116 128.126 373.553L125.035 376.511C136.822 388.971 147.926 402.06 158.299 415.719C164.642 423.902 189.35 457.139 195.614 465.349C206.077 479.122 217.27 492.326 229.145 504.903L232.236 501.944C220.458 489.494 209.363 476.414 198.999 462.763C192.655 454.554 186.472 446.265 180.315 437.949Z" fill="#E7E6ED"></path> <path d="M88.2535 494.749L85.3487 497.84C88.4058 500.78 91.0911 504.083 93.3448 507.676C94.7575 509.728 96.3567 512.1 98.6756 515.086L102.034 512.42C99.7951 509.515 98.222 507.089 96.8627 505.224C94.4293 501.395 91.5383 497.878 88.2535 494.749Z" fill="#E7E6ED"></path> <path d="M118.717 368.169C111.093 368.981 103.409 369.07 95.7678 368.436C91.4765 368.196 86.9988 367.929 81.2149 367.929C71.8594 367.929 39.8482 367.369 33.2381 367.316C31.4789 368.649 29.7733 369.981 28.1474 371.527C36.5167 371.527 71.9128 372.194 81.295 372.194C86.9722 372.194 91.3698 372.46 95.6077 372.7C103.48 373.351 111.396 373.253 119.25 372.407L118.717 368.169Z" fill="#E7E6ED"></path> <path d="M81.9617 450.236H90.5174V445.971H82.015C68.1551 445.971 49.151 445.678 38.1163 447.277L38.7293 451.488C49.4441 449.969 68.235 450.102 81.9617 450.236Z" fill="#E7E6ED"></path> <path d="M54.7479 468.228C56.1872 468.228 57.4127 468.068 58.852 468.228C64.1828 468.228 79.7754 468.468 84.3332 468.228L84.1204 463.964C79.6426 464.203 64.2629 463.964 58.9587 463.964C57.4661 463.964 56.0537 463.964 54.5078 463.964C52.5354 463.964 50.2699 464.203 47.2313 463.964L47.0713 468.228H49.5232C51.5755 468.415 53.2286 468.335 54.7479 468.228Z" fill="#E7E6ED"></path> <path d="M342.876 415.586C338.451 409.856 334.347 404.765 330.322 400.021L327.017 402.686L328.216 404.259C331.814 408.55 335.493 413.134 339.437 418.225C341.25 420.571 343.062 422.97 344.768 425.368C345.674 424.196 346.527 422.943 347.433 421.69C345.967 419.638 344.342 417.585 342.876 415.586Z" fill="#E7E6ED"></path> <path d="M115.118 387.386C105.789 388.239 95.6073 388.639 83.9329 388.639C72.2586 388.639 59.9442 388.239 48.2965 387.813C37.3951 387.44 26.1473 387.066 15.0859 387.013C14.2063 388.399 13.3534 389.838 12.4205 391.278H12.6073C24.335 391.278 36.3826 391.678 48.0303 392.077C59.678 392.477 72.0185 392.904 83.7995 392.904C95.5805 392.904 105.922 392.504 115.358 391.624L115.118 387.386Z" fill="#E7E6ED"></path> <path d="M64.2364 490.111C67.2749 490.111 69.9138 490.111 72.3926 490.111C74.8341 489.978 77.281 489.978 79.7224 490.111L79.9892 485.873C77.4059 485.726 74.8159 485.726 72.2325 485.873C69.8337 485.873 67.2749 485.873 64.2364 485.873C61.4632 485.759 58.686 485.822 55.9207 486.06L56.3736 490.298C58.9894 490.096 61.614 490.034 64.2364 490.111Z" fill="#E7E6ED"></path> <path d="M333.679 347.06C324.137 346.793 316.675 346.5 309.984 346.26C295.218 345.7 284.556 345.3 263.5 345.3C229.116 345.3 198.491 346.127 169.865 347.806L170.131 352.071C198.678 350.391 229.196 349.565 263.42 349.565C284.396 349.565 295.031 349.965 309.744 350.524C316.434 350.764 323.897 351.058 333.493 351.324L333.679 347.06Z" fill="#E7E6ED"></path> <path d="M100.833 410.761H7.27885V415.026H100.833V410.761Z" fill="#E7E6ED"></path> <path d="M99.8193 480.463L97.1539 483.901C108.588 492.324 118.184 504.771 126.66 515.726L130.045 513.06C121.516 501.946 111.734 489.258 99.8193 480.463Z" fill="#E7E6ED"></path> <path d="M64.2085 429.633C57.3585 430.219 50.2423 430.806 43.3123 430.806C36.7984 430.875 30.2976 430.204 23.935 428.807L23.0018 432.965C29.6695 434.438 36.4841 435.145 43.3123 435.07C50.4289 435.07 57.6254 434.457 64.6354 433.897C74.2301 432.873 83.8884 432.579 93.5277 433.018L93.8479 428.753C83.9602 428.296 74.0517 428.59 64.2085 429.633Z" fill="#E7E6ED"></path> <path d="M307.026 457.404L307.479 457.883L310.781 455.22L310.142 454.528L307.026 457.404Z" fill="#E7E6ED"></path> <g style="mix-blend-mode:multiply"> <path d="M278.239 362.385C264.592 341.062 237.032 332.48 214.51 345.673C188.709 360.786 162.668 375.499 137.746 392.051C126.019 399.834 113.998 407.324 102.617 415.586C96.913 419.718 91.3687 424.036 85.6115 428.087C83.0042 427.209 80.2353 426.919 77.5027 427.237C74.7702 427.555 72.142 428.473 69.8059 429.926C59.5975 436.669 52.7475 445.918 52.5343 458.632C52.5594 462.961 53.2609 467.26 54.6134 471.373C58.1672 479.44 58.922 481.279 56.8786 476.89C54.7463 472.235 55.6347 474.376 59.5439 483.314C67.7533 497.28 84.8118 503.571 100.271 503.544C114.637 503.544 127.618 496.374 140.465 490.75C182.445 472.412 221.972 448.93 261.58 426.115C282.663 413.934 291.832 383.335 278.239 362.385Z" fill="#D7DCE0"></path> </g> <path d="M35.8238 298.843L73.4326 467.988L124.075 293.726L164.828 270.164C173.224 265.339 178.901 267.498 179.434 276.108C179.967 284.717 185.619 286.769 194.041 282.025L210.993 272.243L196.28 206.141L35.8238 298.843Z" fill="white"></path> <path d="M81.9347 149.314C80.2053 149.036 78.5706 148.336 77.176 147.277C75.7813 146.217 74.6696 144.829 73.9386 143.237C71.8065 138.553 70.8283 133.425 71.0865 128.285C71.0544 122.094 72.0175 115.939 73.9386 110.053C75.7369 104.586 78.4398 99.46 81.9347 94.8876C85.0321 90.7365 88.9292 87.2473 93.396 84.6258C96.7607 82.3692 100.793 81.3258 104.83 81.6672C106.559 81.9453 108.194 82.6452 109.589 83.7052C110.983 84.7651 112.095 86.1523 112.826 87.7442C114.966 92.4263 115.945 97.556 115.678 102.697C115.724 108.889 114.76 115.046 112.826 120.928C111.033 126.397 108.33 131.525 104.83 136.094C101.743 140.245 97.855 143.734 93.396 146.356C90.0222 148.615 85.9802 149.658 81.9347 149.314ZM100.805 125.699C102.761 120.602 103.668 115.163 103.471 109.707C103.471 103.15 102.591 98.8589 100.805 96.7532C99.0194 94.6476 96.5412 94.5411 93.396 96.3535C90.0277 98.4388 87.4418 101.577 86.0395 105.282C84.0974 110.383 83.1912 115.82 83.3742 121.275C83.3742 127.805 84.2804 132.123 86.0395 134.202C87.7987 136.281 90.2775 136.441 93.396 134.655C96.7782 132.56 99.3803 129.414 100.805 125.699Z" fill="#3A3A3A"></path> <path d="M148.275 53.9472V113.652L136.308 120.555V71.9385L125.965 77.9089V66.821L148.275 53.9472Z" fill="#3A3A3A"></path> <path d="M175.383 95.474C173.653 95.1959 172.019 94.4959 170.624 93.436C169.229 92.376 168.118 90.9888 167.387 89.3969C165.254 84.7122 164.276 79.5847 164.534 74.4441C164.502 68.2535 165.466 62.0981 167.387 56.213C169.174 50.7412 171.877 45.6128 175.383 41.047C178.47 36.8966 182.358 33.4072 186.817 30.7852C190.191 28.5267 194.233 27.4834 198.278 27.8266C200.007 28.1047 201.642 28.8048 203.037 29.8647C204.431 30.9247 205.543 32.3119 206.274 33.9038C208.406 38.5885 209.384 43.716 209.126 48.8565C209.158 55.0471 208.195 61.2026 206.274 67.0877C204.487 72.5595 201.783 77.6879 198.278 82.2537C195.181 86.4048 191.284 89.894 186.817 92.5155C183.452 94.772 179.42 95.8154 175.383 95.474ZM194.253 71.8588C196.197 66.7584 197.103 61.3215 196.919 55.8665C196.919 49.3097 196.012 45.0184 194.253 42.9128C192.494 40.8071 189.989 40.7005 186.817 42.5129C183.464 44.6086 180.889 47.7447 179.487 51.4419C177.532 56.5392 176.626 61.9784 176.822 67.4342C176.822 73.9644 177.701 78.2824 179.487 80.3614C181.273 82.4404 183.725 82.6002 186.817 80.8144C190.226 78.6947 192.84 75.5091 194.253 71.7521V71.8588Z" fill="#3A3A3A"></path> <path d="M241.698 0V59.7046L229.73 66.6079V17.9913L219.388 23.9618V12.8738L241.698 0Z" fill="#3A3A3A"></path> <path d="M90.7293 189.535V249.213L78.7618 256.143V207.526L68.4204 213.497V202.409L90.7293 189.535Z" fill="#3A3A3A"></path> <path d="M127.058 168.532V228.237L115.09 235.167V186.55L104.748 192.521V181.433L127.058 168.532Z" fill="#3A3A3A"></path> <path d="M154.194 210.086C152.465 209.808 150.831 209.107 149.436 208.048C148.042 206.988 146.929 205.6 146.198 204.008C144.076 199.321 143.108 194.194 143.373 189.056C143.332 182.867 144.286 176.711 146.198 170.825C147.992 165.356 150.695 160.228 154.194 155.658C157.283 151.509 161.171 148.02 165.629 145.397C169.003 143.138 173.045 142.095 177.09 142.438C178.796 142.737 180.403 143.446 181.773 144.505C183.143 145.563 184.234 146.94 184.953 148.515C187.075 153.203 188.044 158.33 187.778 163.468C187.82 169.657 186.865 175.813 184.953 181.699C183.196 187.157 180.538 192.284 177.09 196.865C173.986 201.017 170.091 204.514 165.629 207.154C162.256 209.389 158.227 210.422 154.194 210.086ZM173.065 186.47C175.009 181.37 175.915 175.933 175.731 170.478C175.731 163.948 174.825 159.63 173.065 157.524C171.306 155.419 168.774 155.312 165.629 157.125C162.274 159.225 159.692 162.358 158.272 166.053C156.332 171.155 155.426 176.591 155.607 182.046C155.607 188.576 156.513 192.894 158.272 194.973C160.032 197.052 162.537 197.212 165.629 195.426C169.041 193.298 171.655 190.103 173.065 186.337V186.47Z" fill="#3A3A3A"></path> <path d="M211.712 176.742C210.006 176.443 208.399 175.734 207.029 174.675C205.659 173.616 204.568 172.24 203.849 170.664C201.717 165.98 200.739 160.852 200.997 155.712C200.965 149.521 201.928 143.366 203.849 137.481C205.607 132.022 208.264 126.896 211.712 122.314C214.816 118.162 218.712 114.666 223.173 112.026C226.547 109.791 230.575 108.758 234.608 109.094C236.337 109.372 237.971 110.072 239.366 111.132C240.761 112.192 241.873 113.579 242.604 115.171C244.726 119.859 245.694 124.986 245.429 130.124C245.47 136.313 244.516 142.469 242.604 148.355C240.799 153.82 238.097 158.945 234.608 163.521C231.519 167.671 227.631 171.16 223.173 173.783C219.799 176.041 215.757 177.085 211.712 176.742ZM230.583 153.126C232.541 148.03 233.447 142.59 233.248 137.134C233.248 130.577 232.36 126.259 230.583 124.18C228.797 122.101 226.318 121.941 223.173 123.78C219.812 125.873 217.228 129.009 215.817 132.709C213.873 137.81 212.967 143.247 213.151 148.702C213.151 155.259 214.058 159.576 215.817 161.655C217.576 163.734 220.055 163.894 223.173 162.109C226.56 160.006 229.163 156.851 230.583 153.126Z" fill="#3A3A3A"></path> <path d="M81.7213 354.149C80.0157 353.851 78.4086 353.142 77.0386 352.083C75.6686 351.024 74.5771 349.647 73.8585 348.072C71.7264 343.387 70.7482 338.26 71.0064 333.119C70.9743 326.929 71.9374 320.773 73.8585 314.888C75.6046 309.425 78.263 304.297 81.7213 299.722C84.8223 295.577 88.7074 292.081 93.1558 289.434C96.5374 287.194 100.576 286.161 104.617 286.502C106.347 286.78 107.981 287.48 109.375 288.54C110.77 289.599 111.882 290.987 112.613 292.579C114.745 297.263 115.723 302.391 115.465 307.532C115.497 313.722 114.534 319.878 112.613 325.763C110.82 331.232 108.117 336.359 104.617 340.929C101.512 345.073 97.6168 348.561 93.1558 351.19C89.7929 353.451 85.7585 354.495 81.7213 354.149ZM100.592 330.534C102.536 325.433 103.442 319.996 103.258 314.541C103.258 307.984 102.352 303.667 100.592 301.588C98.8332 299.509 96.3276 299.349 93.1558 301.188C89.8028 303.284 87.2283 306.42 85.826 310.117C83.8698 315.214 82.9633 320.653 83.1607 326.109C83.1607 332.666 84.0402 336.984 85.826 339.063C87.6119 341.142 90.064 341.302 93.1558 339.516C96.5578 337.425 99.1725 334.266 100.592 330.534Z" fill="#3A3A3A"></path> <path d="M148.036 258.782V318.486L136.069 325.39V276.773L125.727 282.744V271.656L148.036 258.782Z" fill="#3A3A3A"></path> <path d="M184.392 237.806V297.51L172.424 304.414V255.797L162.082 261.767V250.679L184.392 237.806Z" fill="#3A3A3A"></path> <path d="M211.498 279.199C209.793 278.901 208.186 278.192 206.816 277.133C205.446 276.074 204.354 274.698 203.636 273.122C201.5 268.448 200.521 263.328 200.783 258.196C200.751 252.006 201.714 245.85 203.636 239.965C205.382 234.502 208.04 229.374 211.498 224.799C214.602 220.647 218.498 217.15 222.96 214.511C226.325 212.257 230.36 211.223 234.394 211.579C236.1 211.877 237.707 212.586 239.077 213.645C240.447 214.704 241.538 216.08 242.257 217.655C244.389 222.34 245.367 227.468 245.109 232.608C245.141 238.799 244.178 244.955 242.257 250.84C240.511 256.294 237.852 261.413 234.394 265.979C231.3 270.131 227.414 273.628 222.96 276.267C219.589 278.53 215.542 279.566 211.498 279.199ZM230.369 255.61C232.324 250.513 233.231 245.074 233.035 239.618C233.035 233.088 232.155 228.77 230.369 226.691C228.584 224.612 226.105 224.452 222.96 226.291C219.591 228.377 217.005 231.515 215.603 235.221C213.647 240.317 212.74 245.757 212.938 251.213C212.938 257.77 213.817 262.061 215.603 264.167C217.389 266.272 219.841 266.405 222.96 264.619C226.345 262.505 228.948 259.341 230.369 255.61Z" fill="#3A3A3A"></path> <path d="M124.207 293.725L73.565 467.988L234.154 375.259L274.855 235.514L194.174 282.051C185.751 286.902 180.074 284.716 179.567 276.134C179.061 267.551 173.357 265.472 164.961 270.19L124.207 293.725Z" fill="#3FAAF0"></path> <path d="M73.4312 471.959C72.8048 471.976 72.1832 471.843 71.6189 471.571C71.0546 471.298 70.564 470.895 70.188 470.393C69.812 469.892 69.5614 469.308 69.4579 468.69C69.3543 468.072 69.4005 467.438 69.5926 466.841L120.235 292.605C120.52 291.614 121.18 290.773 122.074 290.26L162.828 266.698C170.051 262.54 174.795 263.42 177.514 264.886C180.233 266.352 183.004 269.177 183.431 275.867C183.564 278.159 184.178 279.785 185.11 280.265C186.043 280.744 188.442 280.638 192.041 278.559L272.588 232.048C273.28 231.648 274.075 231.465 274.872 231.522C275.668 231.578 276.43 231.872 277.058 232.365C277.686 232.859 278.152 233.529 278.396 234.289C278.639 235.05 278.65 235.866 278.425 236.632L237.725 376.378C237.428 377.396 236.739 378.255 235.809 378.765C234.88 379.274 233.785 379.394 232.767 379.097C231.749 378.8 230.891 378.111 230.382 377.181C229.872 376.252 229.752 375.157 230.049 374.14L267.977 243.962L196.012 285.489C188.762 289.674 184.018 288.794 181.272 287.328C178.527 285.862 175.809 283.037 175.409 276.347C175.409 274.054 174.635 272.428 173.703 271.922C172.77 271.415 170.371 271.575 166.799 273.628L127.432 296.364L77.1091 469.08C76.8787 469.887 76.3988 470.6 75.738 471.118C75.0772 471.635 74.2698 471.929 73.4312 471.959Z" fill="#3A3A3A"></path> <path d="M73.4323 471.959C72.8834 471.958 72.3398 471.849 71.8328 471.639C71.2552 471.389 70.746 471.005 70.3472 470.518C69.9484 470.031 69.6714 469.456 69.5403 468.84L31.9055 299.695C31.725 298.865 31.8135 297.999 32.1586 297.222C32.5037 296.446 33.0873 295.8 33.8245 295.377L194.414 202.675C194.957 202.365 195.566 202.186 196.191 202.154C196.816 202.121 197.44 202.236 198.012 202.489C198.574 202.726 199.073 203.09 199.471 203.552C199.869 204.014 200.154 204.563 200.304 205.154L215.044 271.255C215.273 272.291 215.083 273.375 214.513 274.27C213.943 275.165 213.041 275.797 212.005 276.027C210.97 276.256 209.885 276.065 208.991 275.496C208.096 274.926 207.464 274.024 207.234 272.988L193.694 212.191L40.4879 300.841L76.2838 461.777L232.155 371.794C232.61 371.531 233.113 371.361 233.634 371.292C234.155 371.224 234.683 371.259 235.191 371.395C235.698 371.531 236.174 371.766 236.591 372.086C237.007 372.406 237.357 372.805 237.619 373.26C237.882 373.715 238.052 374.217 238.12 374.738C238.189 375.259 238.154 375.788 238.018 376.295C237.882 376.803 237.647 377.278 237.327 377.695C237.007 378.112 236.608 378.461 236.153 378.724L75.5641 471.426C74.9211 471.809 74.18 471.994 73.4323 471.959Z" fill="#3A3A3A"></path> </svg> 