<?xml version="1.0" encoding="UTF-8"?> <svg xmlns="http://www.w3.org/2000/svg" width="46" height="27" viewBox="0 0 46 27" fill="none"> <path d="M22.4116 5.64637L22.8691 5.29311L19.9272 1.48254L19.2728 1.58095L22.4116 5.64637Z" fill="#E0DFE6"></path> <path d="M38.8893 3.82781C39.6755 4.39898 40.3261 5.13652 40.7946 5.9879L41.3273 5.75631C40.8124 4.79281 40.0785 3.96363 39.1846 3.33557L38.8893 3.82781Z" fill="#E0DFE6"></path> <path d="M36.8998 5.37993C37.2027 5.40551 37.5078 5.38204 37.8032 5.31044L37.6411 4.73132C37.4075 4.78348 37.1672 4.79908 36.9288 4.77763C36.7072 4.75752 36.4842 4.75752 36.2627 4.77763L36.3439 5.35674C36.5295 5.34719 36.7156 5.35497 36.8998 5.37993Z" fill="#E0DFE6"></path> <path d="M9.07199 4.80095C8.8969 4.78091 8.72014 4.78091 8.54504 4.80095L8.65504 5.38007C8.78204 5.36558 8.91036 5.36558 9.03735 5.38007H9.26894C9.44078 5.38212 9.61147 5.35266 9.7727 5.29319L9.5585 4.75458C9.40086 4.80126 9.23561 4.81704 9.07199 4.80095Z" fill="#E0DFE6"></path> <path d="M26.536 5.22954L26.9587 4.83571C26.0032 3.81067 25.0187 2.6293 23.9415 1.2452C23.8778 1.15834 23.8199 1.07143 23.7562 0.990356L23.4492 1.04253H23.2234H23.1017L23.484 1.55795C24.5727 2.99995 25.5688 4.18713 26.536 5.22954Z" fill="#E0DFE6"></path> <path d="M30.6813 4.34908C29.5752 3.19085 28.4633 1.91681 27.2414 0.387939L26.5869 0.497938C27.9015 2.14842 29.0888 3.52098 30.2644 4.74871L30.6813 4.34908Z" fill="#E0DFE6"></path> <path d="M19.5975 6.42799L20.0839 6.10952C19.8638 5.77942 19.6264 5.44354 19.3542 5.09606C19.082 4.74859 18.0628 3.57295 16.9045 2.24098L16.6787 1.98621L15.9664 2.0499L16.4644 2.62902C17.5705 3.89729 18.6187 5.09027 18.8967 5.45511C19.1746 5.81996 19.389 6.10948 19.5975 6.42799Z" fill="#E0DFE6"></path> <path d="M13.7165 2.28162L12.9464 2.36843C14.2159 3.53182 15.3627 4.82229 16.3689 6.21957L16.8265 5.86632C15.8887 4.58915 14.8485 3.39033 13.7165 2.28162Z" fill="#E0DFE6"></path> <path d="M36.676 2.73345C37.0078 2.71608 37.3403 2.71608 37.6721 2.73345L37.7069 2.15433C37.342 2.15433 37.0061 2.15433 36.6586 2.15433C36.3111 2.15433 35.981 2.15433 35.5814 2.15433C35.2054 2.12808 34.8281 2.12808 34.4521 2.15433L34.5159 2.73345C34.8669 2.71274 35.2188 2.71274 35.5698 2.73345C35.981 2.75082 36.3401 2.74503 36.676 2.73345Z" fill="#E0DFE6"></path> <path d="M35.0995 5.43792C33.6633 3.46313 32.3486 1.66786 31.1035 0L30.4086 0.034781C31.7174 1.77213 33.1073 3.68318 34.6304 5.77958L35.0995 5.43792Z" fill="#E0DFE6"></path> <path d="M15.9423 2.03268L16.672 1.98638L16.6256 1.9342L15.9307 2.01529L15.9423 2.03268Z" fill="#E0DFE6"></path> <path d="M11.8263 5.12503C12.0232 5.4088 12.2375 5.70415 12.556 6.13269L13.0136 5.77944C12.7066 5.38564 12.4924 5.07295 12.3071 4.80076C11.9797 4.27925 11.5909 3.79901 11.1488 3.37036L10.7493 3.79311C11.1626 4.19028 11.5244 4.63773 11.8263 5.12503Z" fill="#E0DFE6"></path> <path d="M7.14626 5.75066L7.61524 5.40893L6.37599 3.70636L5.79688 3.93222L7.14626 5.75066Z" fill="#E0DFE6"></path> <path d="M17.9539 7.75421L17.5195 8.13645C20.3456 11.3795 23.2471 14.941 26.3975 19.0122C28.0132 21.1086 29.7042 23.3556 31.5805 25.8921L32.2291 25.7937C30.2774 23.153 28.5227 20.8249 26.8548 18.659C23.6986 14.5878 20.7858 11.0204 17.9539 7.75421Z" fill="#E0DFE6"></path> <path d="M11.8406 19.3366L11.8869 18.7575C10.5462 18.6963 9.20287 18.735 7.86791 18.8733C6.93553 18.9544 5.97411 19.0354 5.03014 19.0354C4.51142 19.0355 3.99318 19.0046 3.47815 18.9428C3.72138 19.1686 3.97042 19.3829 4.22523 19.5914C4.48584 19.5914 4.75217 19.5914 5.03014 19.5914C5.99727 19.5914 6.97598 19.5104 7.92573 19.4293C9.22645 19.2994 10.5352 19.2684 11.8406 19.3366Z" fill="#E0DFE6"></path> <path d="M34.8549 23.5004C34.6522 23.5004 34.4611 23.5004 34.2758 23.5004C34.0905 23.5004 33.6967 23.5352 33.2855 23.5004V24.0795H33.6215C33.8994 24.0795 34.1253 24.0795 34.3338 24.0795C34.5422 24.0795 34.6986 24.0795 34.9129 24.0795C35.5267 24.0795 37.1309 24.0795 37.988 24.0795L38.3644 23.8827V23.4947C37.6637 23.5294 35.573 23.512 34.8549 23.5004Z" fill="#E0DFE6"></path> <path d="M39.5783 18.7575C38.2395 18.6963 36.8979 18.735 35.5649 18.8733C34.6325 18.9543 33.6654 19.0354 32.7214 19.0354C31.8376 19.0438 30.9556 18.9526 30.0922 18.7633L29.9648 19.3424C30.8699 19.5417 31.7948 19.6369 32.7214 19.6262C33.6886 19.6262 34.6673 19.5451 35.617 19.464C36.9191 19.3261 38.2298 19.2874 39.5377 19.3482L39.5783 18.7575Z" fill="#E0DFE6"></path> <path d="M20.7722 21.2478C19.7472 19.8232 18.6873 18.3522 17.6043 16.945C17.0252 16.169 16.4461 15.474 15.867 14.8312L15.4154 15.196L15.5832 15.4103C16.0697 15.9894 16.5678 16.6149 17.1064 17.304C18.1778 18.6997 19.2375 20.1996 20.2625 21.5953C21.2876 22.991 22.359 24.4909 23.4477 25.9271L24.2469 26.0024C24.1311 25.8518 24.0152 25.7128 23.8936 25.5622C22.8628 24.1608 21.7973 22.6783 20.7722 21.2478Z" fill="#E0DFE6"></path> <path d="M13.3037 22.3596L12.8462 22.7129C13.0836 23.0198 13.5238 23.5468 14.0508 24.1665L15.0411 24.4271C14.2708 23.5353 13.6106 22.765 13.3037 22.3596Z" fill="#E0DFE6"></path> <path d="M10.2781 21.653H11.4364V21.0739H10.2781C9.1199 21.0739 7.67792 21.0739 6.39807 21.0739C6.72238 21.265 7.04665 21.4503 7.38254 21.653C8.38442 21.653 9.40945 21.653 10.2781 21.653Z" fill="#E0DFE6"></path> <path d="M13.5025 8.10751C14.4117 8.14225 15.425 8.18283 16.7222 8.21758V7.63846C15.425 7.60371 14.4059 7.56314 13.5025 7.52839C11.4987 7.4531 10.0277 7.401 7.18999 7.401C5.19782 7.401 3.30419 7.40099 1.47997 7.4647C1.34677 7.6558 1.22508 7.8527 1.10925 8.04381C3.0493 7.99748 5.06463 7.97432 7.18999 7.97432C10.0566 7.98011 11.4987 8.03222 13.5025 8.10751Z" fill="#E0DFE6"></path> <path d="M43.9999 14.8312L43.5482 15.196L43.7162 15.4103C44.0115 15.7578 44.2953 16.1284 44.6196 16.5164C44.6949 16.2906 44.7585 16.0647 44.8222 15.833C44.5443 15.4798 44.2721 15.1497 43.9999 14.8312Z" fill="#E0DFE6"></path> <path d="M13.8195 18.8446L18.7708 25.2496C19.0488 25.3075 19.3499 25.3538 19.6221 25.406L14.2768 18.4565L13.8195 18.8446Z" fill="#E0DFE6"></path> <path d="M23.628 19.9796C22.7882 18.8503 21.9484 17.7211 21.0856 16.6092C19.6677 14.7377 18.1482 12.9455 16.5338 11.2407L16.1168 11.6403C17.7147 13.3324 19.2205 15.109 20.628 16.9624C21.4909 18.0743 24.844 22.5856 25.7069 23.7033C26.3903 24.5894 27.0389 25.3943 27.6586 26.1414H28.4115C27.6992 25.2959 26.9578 24.404 26.1644 23.3558C25.3073 22.2323 24.4619 21.1089 23.628 19.9796Z" fill="#E0DFE6"></path> <path d="M42.417 18.4854L41.9595 18.8445L42.8455 20.0027C42.9672 19.8405 43.083 19.6784 43.1989 19.5105L42.417 18.4854Z" fill="#E0DFE6"></path> <path d="M6.35939 11.0031C7.62766 11.0031 8.90177 11.0494 10.1758 11.0494C10.9461 11.0494 11.5425 11.0842 12.1158 11.119C13.1859 11.2075 14.262 11.1958 15.3299 11.0842L15.2663 10.5051C14.2311 10.6138 13.1879 10.6255 12.1506 10.5399C11.5714 10.5399 10.9924 10.4703 10.1758 10.4703C8.90756 10.4703 3.80544 10.3777 2.55455 10.3777C1.71483 10.3777 0.933107 10.3776 0.186045 10.4124C0.139716 10.6093 0.0992002 10.8004 0.0644531 10.9915C0.846262 10.9915 1.6685 10.951 2.55455 10.951C3.82281 10.9568 5.09112 10.9857 6.35939 11.0031Z" fill="#E0DFE6"></path> <path d="M44.228 11.6403C44.5639 11.9935 44.9056 12.3584 45.2473 12.7406C45.2473 12.4453 45.2473 12.1615 45.2473 11.8546L44.6682 11.2407L44.228 11.6403Z" fill="#E0DFE6"></path> <path d="M12.8381 16.2905H1.20947C1.34267 16.4874 1.48743 16.6785 1.62642 16.8696H12.8381V16.2905Z" fill="#E0DFE6"></path> <path d="M44.4322 8.16541C44.3627 7.98588 44.2875 7.8064 44.2122 7.63266C43.054 7.59792 42.081 7.56314 41.2297 7.52839C39.2201 7.4531 37.755 7.401 34.9116 7.401C30.2497 7.401 26.0858 7.51101 22.2 7.74266L22.2346 8.32178C26.1089 8.09592 30.2612 7.98592 34.9116 7.98592C37.7608 7.98592 39.2085 8.03802 41.2065 8.1133C42.1157 8.14805 43.1292 8.18863 44.4264 8.22337L44.4322 8.16541Z" fill="#E0DFE6"></path> <path d="M14.7675 13.117C13.4992 13.2328 12.1151 13.2849 10.5341 13.2849C8.95312 13.2849 7.28534 13.227 5.69277 13.1749C4.1002 13.1228 2.46704 13.0649 0.86288 13.0649H0C0 13.256 0.0578609 13.4529 0.0926079 13.644H0.86288C2.45545 13.644 4.09439 13.6961 5.67538 13.754C7.25637 13.8119 8.91838 13.8641 10.5341 13.8641C12.1499 13.8641 13.534 13.8061 14.8197 13.6903L14.7675 13.117Z" fill="#E0DFE6"></path> <path d="M42.4689 13.117C41.2064 13.2328 39.8223 13.2849 38.2355 13.2849C36.6487 13.2849 34.9866 13.227 33.3998 13.1749C31.813 13.1228 30.1684 13.0649 28.5701 13.0649C27.684 13.0649 26.8791 13.0649 26.1146 13.117V13.6961H26.3578C27.047 13.6961 27.7709 13.6555 28.5585 13.6555C30.1453 13.6555 31.7842 13.7077 33.3652 13.7656C34.9462 13.8235 36.6082 13.8756 38.2239 13.8756C39.8397 13.8756 41.2295 13.8177 42.5093 13.7019L42.4689 13.117Z" fill="#E0DFE6"></path> <path d="M32.0188 21.2477L32.0998 21.8268C34.052 21.6518 36.0131 21.5957 37.9721 21.6588H39.1304V21.0797H37.9721C35.9861 21.0113 33.9978 21.0674 32.0188 21.2477Z" fill="#E0DFE6"></path> <path d="M40.5452 16.2849H27.8394V16.864H40.5452V16.2849Z" fill="#E0DFE6"></path> <path d="M42.9923 10.505C41.959 10.6137 40.9178 10.6253 39.8824 10.5397C39.3033 10.5397 38.6894 10.4702 37.9018 10.4702C36.6336 10.4702 31.5316 10.3776 30.2807 10.3776C28.1535 10.3624 26.027 10.4609 23.9104 10.6729L23.974 11.252C26.0656 11.0425 28.1671 10.9459 30.2691 10.9625C31.5374 10.9625 36.6393 11.0551 37.8902 11.0551C38.6605 11.0551 39.257 11.0898 39.8361 11.1246C40.9043 11.2131 41.9785 11.2015 43.0445 11.0899L42.9923 10.505Z" fill="#E0DFE6"></path> <path d="M6.46514 14.171C6.27312 14.1739 6.08566 14.1126 5.93239 13.9969C5.77913 13.8812 5.66879 13.7177 5.61894 13.5322C5.56909 13.3468 5.58252 13.15 5.65711 12.973C5.73171 12.7961 5.86323 12.6491 6.0308 12.5553L22.1419 3.23727C22.3416 3.12207 22.5788 3.09093 22.8015 3.15067C23.0241 3.2104 23.2139 3.35614 23.3291 3.55581C23.4443 3.75548 23.4754 3.99273 23.4156 4.21538C23.3559 4.43802 23.2102 4.62783 23.0106 4.74303L6.87629 14.0552C6.7512 14.1279 6.60977 14.1677 6.46514 14.171Z" fill="#3A3A3A"></path> <path d="M22.6 14.171C22.4473 14.1732 22.297 14.1331 22.1656 14.0552L6.03134 4.74303C5.83167 4.62783 5.686 4.43802 5.62627 4.21538C5.56654 3.99273 5.59761 3.75548 5.7128 3.55581C5.82799 3.35614 6.01781 3.2104 6.24045 3.15067C6.46309 3.09093 6.70035 3.12207 6.90002 3.23727L23.0343 12.5553C23.2019 12.6491 23.3334 12.7961 23.408 12.973C23.4826 13.15 23.496 13.3468 23.4462 13.5322C23.3963 13.7177 23.286 13.8812 23.1327 13.9969C22.9794 14.1126 22.792 14.1739 22.6 14.171Z" fill="#3A3A3A"></path> </svg> 