<?xml version="1.0" encoding="UTF-8"?> <svg xmlns="http://www.w3.org/2000/svg" width="469" height="734" viewBox="0 0 469 734" fill="none"> <path d="M383.763 585.05C379.192 580.848 374.329 576.976 369.211 573.462V450.7C394.465 469.843 415.954 493.5 432.589 520.472C475.78 590.881 478.401 675.303 427.297 729.959C427.297 729.959 440.061 666.655 407.086 613.174C400.672 602.75 392.82 593.282 383.763 585.05Z" fill="#D7DCE0"></path> <path d="M271.927 359.149C294.98 378.405 327.759 374.216 347.701 348.076C368.745 320.466 367.3 279.063 344.394 255.618C337.9 248.843 329.672 243.979 320.606 241.556C301.007 236.509 279.424 244.006 264.822 263.164C243.754 290.773 245.224 332.102 268.13 355.646C269.335 356.877 270.603 358.047 271.927 359.149ZM431.976 480.907C432.499 493.973 432.703 507.153 432.589 520.447C415.951 493.484 394.463 469.836 369.211 450.7V573.462C374.329 576.976 379.192 580.848 383.763 585.05C380.897 586.838 377.981 588.602 374.919 590.366C297.969 633.876 173.247 633.876 96.2971 590.366C92.7204 588.357 89.3149 586.25 86.0811 584.144C90.3559 580.287 94.8818 576.719 99.6289 573.462V450.7C75.568 469.002 54.9116 491.392 38.6029 516.846C38.6029 506.655 38.7501 496.488 39.044 486.345C41.2244 418.512 52.2016 351.248 71.7005 286.241C89.4273 226.869 114.783 170.048 147.132 117.201C135.985 135.722 143.457 156.987 169.523 171.76C206.1 192.461 265.362 192.461 301.815 171.76C328.151 156.864 335.501 135.281 323.864 116.662C356.354 169.647 381.81 226.636 399.589 286.192C418.536 349.475 429.418 414.898 431.976 480.907Z" fill="white"></path> <path d="M399.59 286.119C462.453 283.987 479.162 361.549 431.977 480.906C429.449 414.87 418.567 349.42 399.59 286.119Z" fill="#D7DCE0"></path> <path d="M407.086 613.15C397.296 623.057 386.133 631.505 373.939 638.237C297.528 681.795 173.664 681.795 97.277 638.237C84.48 631.17 72.8257 622.208 62.7096 611.656C69.1886 601.447 77.0544 592.188 86.0813 584.144C89.3152 586.251 92.7206 588.358 96.2973 590.367C173.247 633.876 297.969 633.876 374.919 590.367C377.982 588.603 380.897 586.839 383.763 585.05C392.819 593.275 400.67 602.735 407.086 613.15Z" fill="#3A3A3A"></path> <path d="M344.394 255.618C367.251 279.063 368.745 320.466 347.701 348.075C327.759 374.215 294.784 378.65 271.927 359.149C291.525 364.171 313.084 356.699 327.685 337.541C348.754 309.931 347.284 268.602 324.378 245.084C323.181 243.844 321.922 242.667 320.605 241.556C329.672 243.979 337.9 248.843 344.394 255.618Z" fill="#D7DCE0"></path> <path d="M324.379 245.084C347.162 268.602 348.755 309.931 327.686 337.541C312.987 356.724 291.428 364.171 271.927 359.149C270.603 358.047 269.336 356.877 268.13 355.646C245.322 332.102 243.631 290.773 264.823 263.164C279.522 243.981 301.081 236.485 320.581 241.531C321.906 242.651 323.174 243.836 324.379 245.084Z" fill="#3A3A3A"></path> <path d="M309.336 94.1968C314.236 101.546 319.135 108.896 323.643 116.245C323.718 116.371 323.784 116.502 323.839 116.637C335.452 135.256 328.102 156.84 301.791 171.735C265.239 192.436 205.977 192.436 169.499 171.735C143.432 157.036 135.96 135.697 147.107 117.176C151.762 109.557 156.612 102.061 161.561 94.6868C151.002 110.611 157.053 129.303 179.714 142.091C210.656 159.608 260.756 159.608 291.697 142.091C314.53 129.083 320.458 110.145 309.336 94.1968Z" fill="#3A3A3A"></path> <path d="M309.337 94.0504C320.337 110.17 314.482 129.083 291.551 142.043C260.609 159.56 210.51 159.56 179.568 142.043C156.907 129.255 150.856 110.562 161.415 94.6384C183.244 62.0203 208.088 31.5246 235.621 3.55277C262.857 31.447 287.528 61.735 309.337 94.0504Z" fill="#3FAAF0"></path> <path d="M99.6291 450.7V573.462C84.9042 583.61 72.3525 596.594 62.7096 611.655C28.5832 665.552 41.5919 729.934 41.5919 729.934C-10.443 674.322 -6.79266 587.842 38.6032 516.797C54.9095 491.354 75.5667 468.981 99.6291 450.7Z" fill="#D7DCE0"></path> <path d="M39.0451 486.174C-11.3484 362.334 5.89832 281.978 71.5789 286.168C52.1298 351.149 41.1941 418.379 39.0451 486.174Z" fill="#D7DCE0"></path> <path d="M38.6039 520.472C37.6335 520.472 36.7025 520.088 36.014 519.404C35.3256 518.72 34.9355 517.792 34.9291 516.821C34.9291 506.704 34.9292 496.39 35.3947 486.174C37.576 418.082 48.5608 350.558 68.0757 285.286C85.8997 225.595 111.378 168.463 143.874 115.315C148.431 107.965 153.306 100.297 158.402 92.7026C180.358 59.9102 205.332 29.2432 233 1.10247C233.341 0.752671 233.748 0.474822 234.199 0.285455C234.649 0.0960882 235.133 -0.00097349 235.621 7.36028e-06C236.109 0.00175807 236.592 0.100135 237.042 0.289343C237.492 0.47855 237.9 0.754877 238.243 1.10247C265.738 29.0547 290.58 59.4981 312.449 92.0411C317.348 99.3906 322.248 106.74 326.78 114.31C327.041 114.721 327.217 115.178 327.3 115.657C327.382 116.136 327.369 116.627 327.26 117.101C327.152 117.574 326.95 118.022 326.668 118.417C326.385 118.813 326.027 119.148 325.614 119.404C325.201 119.66 324.741 119.831 324.261 119.908C323.781 119.986 323.291 119.967 322.818 119.853C322.346 119.739 321.9 119.533 321.508 119.246C321.116 118.959 320.784 118.597 320.533 118.181C315.976 110.831 311.224 103.482 306.349 96.1324C285.438 64.9974 261.766 35.808 235.621 8.91752C209.335 35.9784 185.556 65.3662 164.576 96.7203C159.529 104.217 154.776 111.738 150.17 119.087C118.02 171.698 92.8063 228.243 75.1558 287.319C55.8333 352.006 44.9473 418.918 42.7685 486.394C42.4255 496.512 42.2787 506.728 42.3277 516.772C42.3344 517.262 42.2424 517.748 42.0573 518.202C41.8723 518.655 41.5976 519.067 41.2502 519.412C40.9027 519.757 40.4895 520.029 40.0348 520.211C39.5802 520.393 39.0935 520.482 38.6039 520.472Z" fill="#3A3A3A"></path> <path d="M431.976 484.581C431.027 484.582 430.113 484.215 429.428 483.558C428.743 482.9 428.339 482.003 428.301 481.054C425.796 415.331 414.963 350.192 396.061 287.197C378.391 227.941 353.075 171.239 320.753 118.524C320.492 118.114 320.316 117.656 320.233 117.177C320.151 116.698 320.164 116.208 320.273 115.734C320.381 115.26 320.583 114.813 320.865 114.417C321.148 114.022 321.506 113.687 321.919 113.431C322.332 113.175 322.792 113.003 323.272 112.926C323.752 112.849 324.242 112.868 324.715 112.982C325.187 113.095 325.633 113.302 326.025 113.589C326.417 113.876 326.748 114.238 327 114.654C359.665 167.911 385.252 225.197 403.117 285.065C422.179 348.662 433.111 414.416 435.651 480.76C435.671 481.242 435.595 481.724 435.428 482.178C435.262 482.631 435.007 483.047 434.679 483.402C434.352 483.757 433.957 484.044 433.519 484.246C433.08 484.449 432.606 484.563 432.123 484.581H431.976Z" fill="#3A3A3A"></path> <path d="M432.589 524.122C432.106 524.115 431.629 524.014 431.186 523.823C430.742 523.633 430.341 523.357 430.004 523.011C429.668 522.665 429.402 522.256 429.224 521.808C429.045 521.36 428.956 520.881 428.963 520.398C428.963 507.144 428.963 493.891 428.35 481.053C428.331 480.571 428.407 480.089 428.574 479.636C428.741 479.183 428.995 478.767 429.323 478.412C429.65 478.057 430.045 477.77 430.483 477.568C430.921 477.365 431.396 477.251 431.878 477.232C432.361 477.212 432.842 477.288 433.296 477.455C433.749 477.622 434.165 477.876 434.52 478.204C434.875 478.531 435.161 478.926 435.364 479.364C435.566 479.803 435.68 480.277 435.7 480.759C436.214 493.719 436.435 507.095 436.312 520.472C436.299 521.448 435.901 522.38 435.203 523.064C434.505 523.748 433.566 524.128 432.589 524.122Z" fill="#3A3A3A"></path> <path d="M235.595 674.469C184.834 674.469 134.098 663.47 95.4388 641.445C82.3354 634.187 70.4012 624.995 60.0385 614.179C59.6268 613.846 59.2918 613.428 59.0564 612.954C58.8211 612.48 58.6911 611.96 58.6751 611.431C58.6591 610.902 58.7575 610.376 58.9637 609.888C59.17 609.401 59.4793 608.964 59.8702 608.607C60.261 608.25 60.7243 607.981 61.2285 607.82C61.7326 607.659 62.2659 607.608 62.7913 607.672C63.3168 607.736 63.8222 607.913 64.2731 608.19C64.7241 608.467 65.1098 608.839 65.4039 609.279C75.2631 619.559 86.6199 628.289 99.0894 635.174C174.373 678.095 296.842 678.071 372.126 635.174C384.013 628.594 394.894 620.344 404.439 610.675C405.122 610.007 406.039 609.631 406.994 609.627C407.95 609.623 408.87 609.992 409.558 610.655C410.246 611.318 410.65 612.223 410.682 613.178C410.714 614.133 410.373 615.063 409.731 615.771C399.69 625.93 388.247 634.6 375.751 641.519C337.117 663.47 286.356 674.469 235.595 674.469Z" fill="#3A3A3A"></path> <path d="M235.596 626.575C184.492 626.575 133.389 615.575 94.4849 593.551C90.9326 591.566 87.4293 589.41 84.073 587.206C83.6662 586.943 83.3155 586.602 83.0418 586.202C82.7682 585.803 82.5768 585.353 82.4787 584.878C82.3807 584.404 82.3781 583.915 82.4709 583.44C82.5637 582.965 82.7502 582.512 83.0194 582.11C83.5589 581.299 84.3968 580.733 85.3508 580.536C86.3049 580.339 87.298 580.526 88.115 581.056C91.3488 583.188 94.7053 585.246 98.0861 587.157C174.032 630.054 297.284 630.054 373.107 587.157C375.875 585.589 378.717 583.874 381.73 581.963C382.488 581.432 383.419 581.207 384.335 581.332C385.252 581.457 386.088 581.924 386.676 582.639C387.264 583.353 387.561 584.264 387.507 585.187C387.453 586.111 387.052 586.981 386.385 587.622C386.182 587.822 385.961 588.003 385.724 588.161C382.563 590.121 379.648 591.909 376.733 593.551C337.829 615.55 286.7 626.575 235.596 626.575Z" fill="#3A3A3A"></path> <path d="M235.597 190.819C210.976 190.819 186.355 185.503 167.613 174.895C152.424 166.296 142.698 155.297 139.464 143.047C138.262 138.366 138.03 133.489 138.785 128.715C139.539 123.941 141.263 119.373 143.849 115.29C144.374 114.508 145.18 113.957 146.099 113.752C147.019 113.546 147.982 113.701 148.79 114.186C149.598 114.67 150.19 115.446 150.442 116.354C150.694 117.261 150.588 118.231 150.146 119.063C148.085 122.303 146.705 125.929 146.09 129.72C145.475 133.51 145.638 137.386 146.569 141.112C149.288 151.401 157.814 160.882 171.214 168.477C206.713 188.566 264.481 188.566 299.979 168.477C313.502 160.809 322.028 151.328 324.698 140.891C325.613 137.088 325.735 133.137 325.056 129.285C324.378 125.433 322.913 121.761 320.754 118.5L320.558 118.157C320.087 117.311 319.957 116.319 320.194 115.381C320.431 114.443 321.016 113.631 321.831 113.11C322.23 112.864 322.673 112.699 323.136 112.625C323.598 112.551 324.071 112.57 324.526 112.679C324.981 112.788 325.411 112.986 325.789 113.262C326.168 113.538 326.488 113.886 326.731 114.286L323.595 116.172L326.756 114.335C326.851 114.465 326.933 114.605 327.001 114.751C329.666 118.837 331.461 123.427 332.274 128.236C333.088 133.045 332.902 137.97 331.729 142.704C328.593 155.076 318.843 166.198 303.531 174.871C284.839 185.503 260.34 190.819 235.597 190.819Z" fill="#3A3A3A"></path> <path d="M235.596 158.775C214.674 158.775 193.728 154.268 177.804 145.252C164.55 137.756 156.172 128.103 153.575 117.299C152.614 113.07 152.553 108.685 153.397 104.431C154.242 100.176 155.972 96.147 158.475 92.6048C158.742 92.2026 159.085 91.8568 159.486 91.5874C159.886 91.3179 160.336 91.13 160.809 91.0345C161.282 90.9389 161.77 90.9376 162.244 91.0305C162.717 91.1233 163.168 91.3087 163.57 91.5759C164.379 92.1237 164.94 92.9676 165.133 93.9254C165.325 94.8832 165.134 95.8782 164.599 96.696C162.67 99.3986 161.334 102.479 160.68 105.734C160.026 108.989 160.067 112.346 160.802 115.584C162.884 124.33 170.062 132.39 181.503 138.858C211.367 155.762 259.899 155.762 289.86 138.858C301.399 132.317 308.577 124.159 310.611 115.388C311.317 112.069 311.309 108.638 310.586 105.322C309.864 102.006 308.445 98.8818 306.422 96.1571C306.13 95.7605 305.92 95.3094 305.806 94.8304C305.692 94.3514 305.675 93.8544 305.757 93.3688C305.838 92.8832 306.017 92.4189 306.282 92.0037C306.546 91.5884 306.892 91.2305 307.297 90.9514C307.703 90.6722 308.161 90.4774 308.643 90.3785C309.125 90.2796 309.623 90.2787 310.105 90.3758C310.588 90.4729 311.046 90.6661 311.453 90.9438C311.86 91.2215 312.206 91.5781 312.473 91.9924C315.082 95.5505 316.904 99.6237 317.816 103.941C318.729 108.258 318.711 112.72 317.764 117.03C315.314 127.907 306.862 137.682 293.486 145.252C277.489 154.268 256.542 158.775 235.596 158.775Z" fill="#3A3A3A"></path> <path d="M304.143 374.803C291.467 374.736 279.223 370.189 269.576 361.966C268.082 360.717 266.759 359.516 265.485 358.193C241.501 333.425 239.884 289.793 261.908 260.934C276.975 241.164 299.807 232.369 321.513 237.979H321.856C331.431 240.613 340.122 245.774 347.016 252.923C371.074 277.593 372.69 321.225 350.617 350.182C345.846 356.76 339.783 362.295 332.799 366.448C325.814 370.602 318.056 373.286 309.999 374.338C308.057 374.602 306.102 374.758 304.143 374.803ZM308.48 243.663C293.291 243.663 278.371 251.429 267.763 265.393C247.846 291.484 249.193 330.804 270.776 353.073C275.727 358.132 281.745 362.022 288.391 364.459C295.036 366.896 302.142 367.819 309.19 367.16C316.261 366.213 323.064 363.835 329.184 360.17C335.305 356.506 340.613 351.632 344.786 345.846C364.728 319.657 363.381 280.337 341.773 258.19C335.764 251.893 328.135 247.375 319.725 245.132L319.381 245.01C315.818 244.103 312.157 243.642 308.48 243.638V243.663Z" fill="#3A3A3A"></path> <path d="M284.055 364.367C279.692 364.366 275.345 363.814 271.12 362.726C270.145 362.622 269.252 362.135 268.636 361.372C268.021 360.609 267.733 359.633 267.837 358.659C267.941 357.684 268.428 356.791 269.19 356.175C269.953 355.56 270.929 355.272 271.904 355.376C272.226 355.381 272.546 355.422 272.859 355.498C291.65 360.398 311.542 352.559 324.747 335.214C344.665 309.123 343.317 269.803 321.734 247.533C320.617 246.377 319.44 245.281 318.206 244.251C317.462 243.601 317.007 242.682 316.94 241.697C316.873 240.711 317.201 239.74 317.851 238.996C318.5 238.252 319.419 237.796 320.405 237.73C321.39 237.663 322.362 237.991 323.106 238.64C324.502 239.841 325.874 241.09 327.148 242.438C351.132 267.206 352.749 310.813 330.725 339.672C318.549 355.572 301.523 364.367 284.055 364.367Z" fill="#3A3A3A"></path> <path d="M41.5925 733.609C41.0907 733.606 40.595 733.5 40.1358 733.297C39.6765 733.095 39.2634 732.801 38.9222 732.433C-11.6918 678.34 -13.0637 590.88 35.5169 514.788C52.0269 488.96 72.9876 466.266 97.4248 447.76C97.9682 447.341 98.6188 447.083 99.3019 447.017C99.9851 446.951 100.673 447.078 101.287 447.385C101.901 447.692 102.416 448.166 102.772 448.752C103.129 449.339 103.314 450.014 103.304 450.7V573.462C103.305 574.053 103.162 574.636 102.889 575.161C102.616 575.685 102.221 576.136 101.737 576.475C97.1232 579.66 92.713 583.129 88.5318 586.863C79.7849 594.692 72.1446 603.676 65.8216 613.566C32.871 665.405 45.0715 728.489 45.194 729.126C45.3612 729.909 45.2642 730.726 44.9186 731.448C44.5729 732.17 43.9978 732.758 43.283 733.119C42.7664 733.414 42.1868 733.582 41.5925 733.609ZM95.9549 458.245C74.7173 475.336 56.3985 495.764 41.7151 518.732C-2.3823 587.647 -3.95016 665.993 36.252 718.003C34.1941 696.224 33.8019 650.314 59.6234 609.695C66.2912 599.207 74.3699 589.686 83.6321 581.4C87.5263 577.904 91.616 574.632 95.8813 571.6L95.9549 458.245Z" fill="#3A3A3A"></path> <path d="M431.977 484.582C431.517 484.584 431.06 484.501 430.63 484.337C430.166 484.159 429.743 483.89 429.386 483.545C429.029 483.199 428.746 482.785 428.553 482.327C428.361 481.869 428.263 481.377 428.266 480.88C428.27 480.383 428.374 479.892 428.572 479.437C458.607 403.491 463.654 339.795 442.071 309.172C432.516 295.6 418.258 289.059 399.713 289.573C399.23 289.589 398.749 289.51 398.297 289.34C397.845 289.171 397.431 288.913 397.078 288.584C396.726 288.254 396.441 287.858 396.242 287.418C396.042 286.978 395.931 286.503 395.915 286.021C395.899 285.538 395.978 285.057 396.148 284.605C396.318 284.153 396.575 283.739 396.905 283.387C397.235 283.034 397.631 282.75 398.071 282.55C398.51 282.351 398.985 282.24 399.468 282.224C420.341 281.513 437.146 289.328 448.073 304.836C471.444 337.958 466.814 402.561 435.407 482.034C435.169 482.761 434.711 483.397 434.097 483.853C433.483 484.309 432.742 484.564 431.977 484.582Z" fill="#3A3A3A"></path> <path d="M427.297 733.609C426.709 733.605 426.13 733.462 425.607 733.193C424.892 732.832 424.317 732.244 423.971 731.522C423.626 730.799 423.529 729.983 423.696 729.199C423.696 728.587 435.749 666.63 403.95 615.085C397.7 604.966 390.073 595.764 381.289 587.745C376.821 583.682 372.09 579.918 367.129 576.475C366.644 576.136 366.249 575.685 365.976 575.161C365.703 574.636 365.56 574.053 365.561 573.462V450.7C365.551 450.014 365.736 449.339 366.093 448.752C366.45 448.166 366.965 447.692 367.579 447.385C368.192 447.078 368.88 446.951 369.563 447.017C370.246 447.083 370.897 447.341 371.44 447.76C397.072 467.145 418.864 491.139 435.7 518.512C457.749 554.549 469.312 593.477 468.994 631.205C468.626 670.574 455.128 705.607 429.968 732.507C429.62 732.861 429.204 733.142 428.745 733.331C428.286 733.521 427.794 733.615 427.297 733.609ZM373.033 571.551C377.688 574.873 382.138 578.473 386.36 582.33C395.648 590.8 403.712 600.521 410.32 611.214C435.137 651.465 434.818 696.494 432.736 717.979C471.934 667.095 471.223 590.219 429.576 522.358C414.53 497.913 395.406 476.228 373.033 458.245V571.551Z" fill="#3A3A3A"></path> <path d="M39.0438 489.922C38.3168 489.925 37.6056 489.709 37.0027 489.303C36.3999 488.897 35.9331 488.318 35.663 487.644C2.07546 405.132 -3.21635 338.398 21.1352 304.59C32.5025 288.789 50.0191 281.194 71.8229 282.542C72.7975 282.603 73.7076 283.05 74.3532 283.783C74.9987 284.515 75.3264 285.475 75.2647 286.449C75.2029 287.424 74.7567 288.334 74.0239 288.98C73.2911 289.625 72.3318 289.953 71.3572 289.891C51.9299 288.666 37.0594 295.036 27.113 308.853C4.59884 340.113 10.3315 405.916 42.4491 484.851C42.6328 485.296 42.7265 485.773 42.7248 486.255C42.7232 486.737 42.6263 487.214 42.4395 487.658C42.2528 488.102 41.9797 488.505 41.6366 488.843C41.2934 489.181 40.8869 489.448 40.4401 489.628C39.9995 489.82 39.5244 489.92 39.0438 489.922Z" fill="#3A3A3A"></path> </svg> 