<?xml version="1.0" encoding="UTF-8"?> <svg xmlns="http://www.w3.org/2000/svg" width="624" height="370" viewBox="0 0 624 370" fill="none"> <path d="M559.737 74.4485L561.677 72.6411C557.292 67.937 552.774 62.5154 547.831 56.1636C544.349 51.6189 540.921 46.9415 537.546 42.2905C536.456 42.2905 535.366 42.2905 534.25 42.2905C537.997 47.6059 541.825 52.7617 545.731 57.8379C550.701 64.2164 555.299 69.6646 559.737 74.4485Z" fill="#E0DFE6"></path> <path d="M504.563 64.5615C504.271 65.598 504.006 66.6343 503.793 67.6442C507.115 71.3384 510.198 75.2984 513.042 78.9926L515.141 77.3714C511.926 73.1989 508.444 68.6809 504.563 64.5615Z" fill="#E0DFE6"></path> <path d="M542.914 74.741L520.164 45.2939C519.367 45.6926 518.57 46.1178 517.799 46.5696L540.814 76.3621L542.914 74.741Z" fill="#E0DFE6"></path> <path d="M527.898 79.9494L530.131 78.4879C529.121 76.973 528.031 75.4315 526.782 73.8369C525.533 72.2423 520.855 66.8471 515.513 60.7344L509.56 53.9043C509.002 54.6219 508.497 55.366 507.992 56.1633C509.826 58.2628 523.407 73.7837 524.683 75.4581C525.958 77.1324 526.941 78.4877 527.898 79.9494Z" fill="#E0DFE6"></path> <path d="M555.937 47.606C562.451 56.1964 569.434 64.4211 576.853 72.2428L578.766 70.4088C571.792 63.0437 565.209 55.317 559.046 47.2605C557.478 46.5695 555.884 45.958 554.263 45.3999L555.937 47.606Z" fill="#E0DFE6"></path> <path d="M527.898 303.195L530.13 301.733C529.12 300.218 528.031 298.677 526.782 297.082C525.533 295.488 520.855 290.093 515.513 283.98C508.948 276.459 501.507 268.034 499.009 264.685L496.883 266.306C499.54 269.628 506.929 278.186 513.52 285.734C518.596 291.554 523.406 297.029 524.682 298.704C525.958 300.378 526.941 301.733 527.898 303.195Z" fill="#E0DFE6"></path> <path d="M513.015 302.239L515.115 300.618C509.766 293.008 503.409 286.16 496.219 280.26L494.624 282.413C501.8 287.648 507.7 295.409 513.015 302.239Z" fill="#E0DFE6"></path> <path d="M490.451 258.785H485.136C476.012 258.479 466.878 258.746 457.788 259.583L458.16 262.24C467.119 261.438 476.119 261.18 485.109 261.469H490.425L490.451 258.785Z" fill="#E0DFE6"></path> <path d="M598.061 198.695C609.462 198.695 615.974 198.881 623.521 199.147L624 196.489C616.239 196.197 609.702 196.011 598.061 196.011C576.64 196.011 557.558 196.516 539.592 197.579L539.751 200.236C557.771 199.2 576.799 198.695 598.061 198.695Z" fill="#E0DFE6"></path> <path d="M495.581 301.84L497.707 300.219C496.298 298.412 495.315 296.977 494.465 295.727C492.963 293.334 491.178 291.13 489.149 289.163L487.315 291.103C489.242 292.927 490.938 294.979 492.365 297.216C493.136 298.651 494.146 299.98 495.581 301.84Z" fill="#E0DFE6"></path> <path d="M486.438 269.921C483.781 269.921 474.053 269.921 470.758 269.921C469.828 269.921 468.951 269.921 468.1 269.921C467.25 269.921 465.443 270.08 463.556 269.921V272.579H465.07C466.373 272.579 467.409 272.579 468.339 272.579C469.269 272.579 470.04 272.579 470.997 272.579C474.346 272.579 484.046 272.579 486.943 272.579L486.438 269.921Z" fill="#E0DFE6"></path> <path d="M503.483 247.089L501.38 248.714L540.823 299.784L542.926 298.159L503.483 247.089Z" fill="#E0DFE6"></path> <path d="M514.796 197.127C508.843 196.968 494.252 196.409 491.435 196.33C489.123 197.791 486.784 199.2 488.617 198.429H488.405L487.82 198.775C491.913 198.775 508.763 199.519 514.716 199.678L514.796 197.127Z" fill="#E0DFE6"></path> <path d="M508.019 210.283C503.268 210.782 498.481 210.836 493.72 210.443C491.063 210.443 488.246 210.123 484.658 210.123C478.811 210.123 465.39 209.884 464.486 209.884L457.23 212.542C460.526 212.542 478.811 212.887 484.658 212.887C488.166 212.887 490.93 213.047 493.561 213.206C498.463 213.613 503.392 213.56 508.285 213.047L508.019 210.283Z" fill="#E0DFE6"></path> <path d="M509.613 232.767C511.872 235.425 514.157 238.295 516.602 241.458C521.546 247.863 526.409 254.746 531.113 261.151C535.818 267.556 540.708 274.439 545.731 281.03C550.754 287.622 555.298 292.91 559.736 297.694L561.677 295.887C557.292 291.183 552.773 285.761 547.83 279.409C542.887 273.057 537.97 266.121 533.266 259.583C528.562 253.045 523.672 246.295 518.702 239.836C516.044 236.275 513.386 233.086 510.888 230.136L508.815 231.81L509.586 232.793L509.613 232.767Z" fill="#E0DFE6"></path> <path d="M576.799 212.356C582.619 212.356 617.807 212.94 620.332 213.1C620.598 212.223 620.864 211.346 621.103 210.442H620.837C618.179 210.442 615.522 210.123 611.774 210.123C605.954 210.123 582.54 209.698 576.799 209.698C567.037 209.628 557.278 210.081 547.564 211.053L547.83 213.711C557.455 212.739 567.125 212.286 576.799 212.356Z" fill="#E0DFE6"></path> <path d="M606.273 286.239C607.796 286.16 609.322 286.16 610.844 286.239L611.004 283.582C609.329 283.582 607.788 283.582 606.167 283.582C604.546 283.582 603.084 283.582 601.223 283.582C599.507 283.46 597.784 283.46 596.067 283.582L596.333 286.239C597.944 286.145 599.559 286.145 601.17 286.239C603.084 286.319 604.731 286.292 606.273 286.239Z" fill="#E0DFE6"></path> <path d="M613.582 269.921C610.924 269.921 601.197 269.921 597.901 269.921C596.971 269.921 596.094 269.921 595.244 269.921C594.393 269.921 592.586 270.08 590.699 269.921V272.579H592.241C593.517 272.579 594.553 272.579 595.483 272.579C596.413 272.579 597.184 272.579 598.141 272.579C601.463 272.579 611.164 272.579 614.087 272.579L613.582 269.921Z" fill="#E0DFE6"></path> <path d="M599.044 298.65C584.48 278.585 572.467 262.453 561.198 247.889C546.714 229.285 533.346 212.78 520.35 197.844L518.356 199.598C531.326 214.481 544.641 230.826 559.072 249.51C570.314 264.074 582.327 280.179 596.891 300.218L599.044 298.65Z" fill="#E0DFE6"></path> <path d="M578.767 293.654C571.417 285.896 564.497 277.743 558.037 269.23C554.103 264.127 538.689 243.397 534.729 238.295C528.222 229.706 521.249 221.481 513.84 213.658L511.899 215.491C519.249 223.249 526.17 231.403 532.629 239.916C536.589 245.018 551.977 265.722 555.937 270.851C562.451 279.442 569.434 287.666 576.853 295.488L578.767 293.654Z" fill="#E0DFE6"></path> <path d="M496.883 236.833H438.573V239.491H496.883V236.833Z" fill="#E0DFE6"></path> <path d="M598.778 258.786C594.142 258.787 589.509 259.063 584.905 259.61L585.304 262.267C594.254 261.465 603.245 261.207 612.226 261.497H617.541V261.31C611.058 260.429 604.524 259.976 597.981 259.955L598.778 258.786Z" fill="#E0DFE6"></path> <path d="M461.03 249.324C456.974 249.364 452.927 248.945 448.965 248.075L448.354 250.733C452.516 251.645 456.769 252.082 461.03 252.035C465.469 252.035 469.934 251.663 474.319 251.291C480.303 250.658 486.327 250.48 492.338 250.759L492.551 248.102C486.398 247.821 480.233 247.999 474.106 248.633C469.774 248.952 465.362 249.324 461.03 249.324Z" fill="#E0DFE6"></path> <path d="M479.581 295.727C478.769 295.635 477.948 295.635 477.136 295.727L477.667 298.385C478.25 298.319 478.839 298.319 479.421 298.385H480.484C481.273 298.395 482.057 298.259 482.797 297.986L481.813 295.515C481.09 295.728 480.332 295.8 479.581 295.727Z" fill="#E0DFE6"></path> <path d="M483.781 283.582C482.08 283.582 480.565 283.582 478.944 283.582C477.323 283.582 475.834 283.582 474 283.582C472.284 283.46 470.561 283.46 468.845 283.582L469.11 286.239C470.721 286.145 472.337 286.145 473.948 286.239C475.861 286.239 477.482 286.239 479.05 286.239C480.573 286.16 482.099 286.16 483.621 286.239L483.781 283.582Z" fill="#E0DFE6"></path> <path d="M505.706 222.269C499.913 222.8 493.561 223.04 486.305 223.04C479.05 223.04 471.396 222.774 464.087 222.535C456.778 222.295 449.284 222.03 441.922 222.03C437.856 222.03 434.188 222.03 430.653 222.269V224.927H431.77C434.932 224.927 438.228 224.74 441.842 224.74C449.151 224.74 456.646 224.98 463.928 225.245C471.21 225.511 478.811 225.75 486.226 225.75C493.641 225.75 499.992 225.485 505.892 224.953L505.706 222.269Z" fill="#E0DFE6"></path> <path d="M565.69 236.833V239.491H610.101C610.526 238.614 610.924 237.71 611.35 236.833H565.69Z" fill="#E0DFE6"></path> <path d="M613.422 223.04C606.061 223.04 598.513 222.774 591.204 222.535C583.896 222.295 576.401 222.03 569.039 222.03C564.973 222.03 561.305 222.03 557.797 222.269V224.927H558.913C562.076 224.927 565.371 224.74 568.986 224.74C576.295 224.74 583.816 224.98 591.071 225.245C598.327 225.511 605.954 225.75 613.369 225.75H616.027L617.063 223.093L613.422 223.04Z" fill="#E0DFE6"></path> <path d="M601.17 248.58C596.892 248.952 592.48 249.324 588.148 249.324C584.092 249.363 580.044 248.944 576.082 248.075L575.497 250.733C579.651 251.648 583.895 252.084 588.148 252.035C592.586 252.035 597.078 251.663 601.436 251.291L603.775 251.105C604.333 250.201 604.865 249.245 605.423 248.447L601.17 248.58Z" fill="#E0DFE6"></path> <path d="M588.148 137.701C584.092 137.74 580.044 137.321 576.082 136.452L575.497 139.11C579.651 140.025 583.895 140.462 588.148 140.412C592.586 140.412 597.078 140.041 601.436 139.668C607.411 139.036 613.426 138.858 619.429 139.137L619.641 136.479C613.488 136.198 607.323 136.376 601.197 137.011C596.892 137.33 592.48 137.701 588.148 137.701Z" fill="#E0DFE6"></path> <path d="M618.977 125.21H565.823V127.868H619.88C619.508 126.964 619.322 126.087 618.977 125.21Z" fill="#E0DFE6"></path> <path d="M515.141 188.994C512.483 185.646 509.825 182.084 506.822 178.683C506.397 179.533 505.919 180.357 505.467 181.181C508.124 184.317 510.782 187.559 513.041 190.616L515.141 188.994Z" fill="#E0DFE6"></path> <path d="M576.799 100.732C582.619 100.732 604.359 101.131 609.409 101.157L608.053 98.4996C603.456 98.4996 582.646 98.1012 576.799 98.1012C567.037 98.0314 557.278 98.4839 547.564 99.4567L547.83 102.114C557.455 101.133 567.125 100.672 576.799 100.732Z" fill="#E0DFE6"></path> <path d="M514.796 85.5044C509.773 85.5044 505.733 85.212 502.092 85.0791C502.092 85.9561 502.092 86.8598 502.092 87.7368C505.706 87.7368 509.693 88.0292 514.609 88.1621L514.796 85.5044Z" fill="#E0DFE6"></path> <path d="M542.914 186.363L511.5 145.7C511.5 147.162 511.5 148.65 511.5 150.112L540.735 187.984L542.914 186.363Z" fill="#E0DFE6"></path> <path d="M508.018 98.6597C506.344 98.8457 504.829 98.952 503.447 99.0052C503.447 99.8822 503.739 100.786 503.899 101.663C505.228 101.663 506.557 101.477 508.284 101.317L508.018 98.6597Z" fill="#E0DFE6"></path> <path d="M614.007 111.417H613.396C606.034 111.417 598.486 111.151 591.178 110.912C583.869 110.672 576.374 110.407 569.012 110.407C564.946 110.407 561.279 110.407 557.771 110.646V113.304H558.887C562.049 113.304 565.345 113.117 568.96 113.117C576.268 113.117 583.789 113.357 591.045 113.622C598.3 113.888 605.928 114.127 613.343 114.127H615.017V113.915C614.725 113.038 614.379 112.241 614.007 111.417Z" fill="#E0DFE6"></path> <path d="M617.568 147.162H612.253C603.129 146.856 593.996 147.123 584.905 147.96L585.304 150.617C594.254 149.815 603.245 149.557 612.226 149.846H617.541L617.568 147.162Z" fill="#E0DFE6"></path> <path d="M557.265 308.314H551.95C542.826 308.008 533.693 308.275 524.603 309.111L525.001 311.769C533.951 310.967 542.942 310.709 551.923 310.998H557.239L557.265 308.314Z" fill="#E0DFE6"></path> <path d="M613.582 158.298C610.924 158.298 601.197 158.298 597.901 158.298C596.971 158.298 596.094 158.298 595.244 158.298C594.393 158.298 592.586 158.458 590.699 158.298V160.956H592.241C593.517 160.956 594.553 160.956 595.483 160.956C596.413 160.956 597.184 160.956 598.141 160.956C601.463 160.956 611.164 160.956 614.087 160.956L613.582 158.298Z" fill="#E0DFE6"></path> <path d="M542.17 318.822C539.512 318.822 529.785 318.822 526.489 318.822C525.559 318.822 524.682 318.822 523.832 318.822C522.981 318.822 521.174 318.982 519.287 318.822V321.48H520.829C522.104 321.48 523.141 321.48 524.071 321.48C525.001 321.48 525.772 321.48 526.729 321.48C530.051 321.48 539.751 321.48 542.675 321.48L542.17 318.822Z" fill="#E0DFE6"></path> <path d="M578.767 182.031C571.417 174.273 564.497 166.12 558.037 157.607C554.103 152.504 538.689 131.774 534.729 126.671C528.222 118.083 521.249 109.858 513.84 102.035L511.899 103.868C519.249 111.626 526.17 119.78 532.629 128.293C536.589 133.395 551.977 154.099 555.937 159.228C562.451 167.818 569.434 176.043 576.853 183.865L578.767 182.031Z" fill="#E0DFE6"></path> <path d="M531.113 149.528C535.844 156.092 540.708 162.816 545.731 169.407C550.754 175.998 555.298 181.287 559.736 186.071L561.677 184.263C557.292 179.559 552.773 174.138 547.83 167.786C542.887 161.434 537.97 154.497 533.266 147.96C528.562 141.422 523.672 134.671 518.702 128.213C516.044 124.652 513.386 121.462 510.888 118.512L508.815 120.187L509.586 121.17C511.845 123.828 514.131 126.698 516.576 129.861C521.546 136.239 526.303 142.99 531.113 149.528Z" fill="#E0DFE6"></path> <path d="M598.061 87.0722H601.436L599.709 84.4146H598.061C576.64 84.4146 557.558 84.9194 539.592 85.9825L539.751 88.6402C557.771 87.5771 576.799 87.0722 598.061 87.0722Z" fill="#E0DFE6"></path> <path d="M599.044 187.028C584.48 166.962 572.467 150.83 561.198 136.266C546.714 117.662 533.346 101.158 520.35 86.2217L518.356 87.9758C531.326 102.859 544.641 119.204 559.072 137.887C570.314 152.451 582.327 168.557 596.891 188.596L599.044 187.028Z" fill="#E0DFE6"></path> <path d="M606.273 174.617C607.796 174.537 609.322 174.537 610.844 174.617L611.004 171.959C609.329 171.959 607.788 171.959 606.167 171.959C604.546 171.959 603.084 171.959 601.223 171.959C599.507 171.838 597.784 171.838 596.067 171.959L596.333 174.617C597.944 174.522 599.559 174.522 601.17 174.617C603.084 174.696 604.731 174.67 606.273 174.617Z" fill="#E0DFE6"></path> <path d="M529.493 335.768C531.015 335.688 532.541 335.688 534.064 335.768L534.223 333.11C532.549 333.11 531.008 333.11 529.386 333.11C527.765 333.11 526.303 333.11 524.443 333.11C522.726 332.989 521.004 332.989 519.287 333.11L519.553 335.768C521.164 335.674 522.779 335.674 524.39 335.768C526.304 335.848 527.951 335.821 529.493 335.768Z" fill="#E0DFE6"></path> <path d="M527.898 191.573L530.13 190.111C529.12 188.596 528.031 187.055 526.782 185.46C525.533 183.865 520.855 178.47 515.513 172.358L510.198 166.139C509.985 167.228 509.746 168.318 509.507 169.408C510.889 170.976 523.513 185.354 524.789 187.081C526.064 188.809 526.941 190.111 527.898 191.573Z" fill="#E0DFE6"></path> <path d="M474.053 360.202C469.774 360.574 465.362 360.946 461.03 360.946C456.974 360.986 452.927 360.567 448.965 359.697L448.354 362.355C452.516 363.267 456.769 363.704 461.03 363.657C465.469 363.657 469.934 363.285 474.319 362.913C480.303 362.28 486.327 362.102 492.338 362.381L492.551 359.724C486.382 359.423 480.198 359.583 474.053 360.202Z" fill="#E0DFE6"></path> <path d="M508.018 321.906C503.267 322.405 498.48 322.458 493.72 322.065C491.062 322.065 488.245 321.746 484.657 321.746C478.81 321.746 455.423 321.321 449.655 321.321C439.893 321.251 430.135 321.703 420.421 322.676L420.687 325.334C430.285 324.373 439.929 323.93 449.576 324.005C455.423 324.005 478.81 324.43 484.577 324.43C488.086 324.43 490.85 324.59 493.481 324.749C498.383 325.156 503.312 325.102 508.204 324.59L508.018 321.906Z" fill="#E0DFE6"></path> <path d="M514.796 308.75C508.843 308.59 504.165 308.404 500.019 308.245C490.823 307.899 484.073 307.66 471.05 307.66C449.629 307.66 430.547 308.165 412.581 309.228L412.741 311.886C430.521 310.849 449.55 310.344 470.917 310.344C483.993 310.344 490.611 310.584 499.806 310.929C503.979 311.089 508.63 311.275 514.583 311.434L514.796 308.75Z" fill="#E0DFE6"></path> <path d="M496.883 348.456H438.573V351.113H496.883V348.456Z" fill="#E0DFE6"></path> <path d="M505.706 333.892C499.913 334.423 493.561 334.663 486.305 334.663C479.05 334.663 471.396 334.397 464.087 334.158C456.778 333.918 449.284 333.653 441.922 333.653C437.856 333.653 434.188 333.653 430.653 333.892V336.55H431.77C434.932 336.55 438.228 336.363 441.842 336.363C449.151 336.363 456.646 336.603 463.928 336.869C471.21 337.134 478.811 337.373 486.226 337.373C493.641 337.373 499.992 337.108 505.892 336.576L505.706 333.892Z" fill="#E0DFE6"></path> <path d="M260.375 283.98C255.512 278.399 250.17 272.286 246.689 268.034L242.702 267.343C245.838 271.223 252.456 278.797 258.382 285.601C263.458 291.421 268.269 296.896 269.545 298.571C270.82 300.245 271.804 301.601 272.76 303.062L274.993 301.6C273.983 300.085 272.893 298.544 271.644 296.949C270.395 295.355 265.85 290.093 260.375 283.98Z" fill="#E0DFE6"></path> <path d="M228.642 283.582C226.941 283.582 225.427 283.582 223.805 283.582C222.184 283.582 220.696 283.582 218.862 283.582C217.145 283.46 215.423 283.46 213.706 283.582L213.972 286.239C215.583 286.145 217.198 286.145 218.809 286.239C220.722 286.239 222.343 286.239 223.885 286.239C225.416 286.16 226.951 286.16 228.483 286.239L228.642 283.582Z" fill="#E0DFE6"></path> <path d="M224.443 295.727C223.631 295.635 222.81 295.635 221.998 295.727L222.529 298.385C223.112 298.319 223.701 298.319 224.284 298.385H225.347C226.135 298.395 226.919 298.259 227.659 297.986L226.676 295.515C225.952 295.728 225.194 295.8 224.443 295.727Z" fill="#E0DFE6"></path> <path d="M368.968 277.176L366.948 278.93C368.516 280.737 370.35 282.837 372.264 285.07C377.313 290.81 383.054 297.348 386.828 302.238L388.927 300.617C385.1 295.647 379.333 289.109 374.257 283.315C372.37 281.083 370.51 278.983 368.968 277.176Z" fill="#E0DFE6"></path> <path d="M304.599 297.694L306.54 295.886C302.155 291.182 297.636 285.761 292.693 279.409C290.806 276.964 288.972 274.465 287.112 271.94H283.71C285.996 275.023 288.281 278.106 290.594 281.136C295.563 287.462 300.161 292.91 304.599 297.694Z" fill="#E0DFE6"></path> <path d="M257.878 302.239L259.977 300.618C254.628 293.008 248.272 286.16 241.081 280.26L239.486 282.413C246.486 288.159 252.673 294.828 257.878 302.239Z" fill="#E0DFE6"></path> <path d="M202.65 259.583L203.023 262.24C207.6 261.701 212.207 261.435 216.816 261.443C214.158 260.672 211.501 259.875 208.843 259.024C206.611 259.131 204.458 259.317 202.65 259.583Z" fill="#E0DFE6"></path> <path d="M358.444 269.921C355.786 269.921 346.059 269.921 342.764 269.921C341.834 269.921 340.957 269.921 340.106 269.921C339.256 269.921 337.448 270.08 335.562 269.921V272.579H337.103C338.379 272.579 339.415 272.579 340.345 272.579C341.276 272.579 342.046 272.579 343.003 272.579C346.352 272.579 356.052 272.579 358.949 272.579L358.444 269.921Z" fill="#E0DFE6"></path> <path d="M362.431 258.786H355.043C354.219 259.663 353.395 260.513 352.624 261.443H362.431V258.786Z" fill="#E0DFE6"></path> <path d="M370.058 301.308L372.503 300.245C370.124 295.835 366.759 292.034 362.67 289.136L361.288 291.395C364.911 294.008 367.907 297.394 370.058 301.308Z" fill="#E0DFE6"></path> <path d="M231.301 269.921C228.643 269.921 218.942 269.921 215.62 269.921C214.69 269.921 213.813 269.921 212.963 269.921C212.112 269.921 210.305 270.08 208.418 269.921V272.579H209.933C211.235 272.579 212.271 272.579 213.202 272.579C214.132 272.579 214.903 272.579 215.859 272.579C219.208 272.579 228.909 272.579 231.805 272.579L231.301 269.921Z" fill="#E0DFE6"></path> <path d="M352.172 298.385C353.562 298.503 354.962 298.395 356.318 298.066L355.574 295.409C354.492 295.648 353.381 295.719 352.278 295.621C351.261 295.53 350.238 295.53 349.222 295.621L349.62 298.279C350.472 298.235 351.326 298.271 352.172 298.385Z" fill="#E0DFE6"></path> <path d="M287.776 297.986L266.701 270.692L263.033 270.293L285.677 299.528L287.776 297.986Z" fill="#E0DFE6"></path> <path d="M364.182 250.81V250.466L363.812 250.783L364.182 250.81Z" fill="#E0DFE6"></path> <path d="M351.135 286.239C352.658 286.16 354.184 286.16 355.707 286.239L355.866 283.582C354.192 283.582 352.65 283.582 351.029 283.582C349.408 283.582 347.946 283.582 346.085 283.582C344.369 283.46 342.646 283.46 340.93 283.582L341.195 286.239C342.806 286.145 344.422 286.145 346.033 286.239C347.946 286.319 349.594 286.292 351.135 286.239Z" fill="#E0DFE6"></path> <path d="M343.906 298.651C336.438 288.392 329.661 279.17 323.309 270.639L320.173 270.905C326.817 279.781 333.913 289.508 341.754 300.139L343.906 298.651Z" fill="#E0DFE6"></path> <path d="M323.629 293.654C317.067 286.668 310.858 279.36 305.025 271.755L301.756 271.914C308.029 280.124 314.736 287.993 321.848 295.488L323.629 293.654Z" fill="#E0DFE6"></path> <path d="M240.443 301.84L242.543 300.219C241.161 298.412 240.178 296.977 239.327 295.727C237.825 293.334 236.04 291.13 234.012 289.163L232.178 291.103C234.104 292.927 235.8 294.979 237.227 297.216C237.998 298.651 239.008 299.98 240.443 301.84Z" fill="#E0DFE6"></path> <path d="M452.632 293.654C445.282 285.896 438.362 277.743 431.902 269.23C427.942 264.127 404.661 233.271 402.667 230.933L400.01 231.943C402.03 234.467 425.656 265.722 429.616 270.851C436.13 279.434 443.103 287.659 450.506 295.488L452.632 293.654Z" fill="#E0DFE6"></path> <path d="M391.053 285.974C387.837 282.465 384.515 278.824 381.592 275.05C378.669 271.277 375.453 267.529 372.237 264.074L370.297 265.882C373.46 269.283 376.808 273.217 379.492 276.672C382.469 280.552 385.844 284.22 389.087 287.754C392.329 291.289 395.625 294.903 398.548 298.704C399.744 300.245 400.78 301.707 401.764 303.195L403.97 301.734C402.986 300.192 401.897 298.677 400.647 297.083C397.644 293.335 394.296 289.535 391.053 285.974Z" fill="#E0DFE6"></path> <path d="M472.911 298.65C458.32 278.585 446.334 262.453 435.039 247.889C429.032 240.128 423.238 232.793 417.578 225.75L414.92 226.68C420.767 233.909 426.773 241.484 432.966 249.51C444.181 264.047 456.22 280.153 470.785 300.218L472.911 298.65Z" fill="#E0DFE6"></path> <path d="M433.603 297.694L435.543 295.887C431.132 291.156 426.614 285.761 421.697 279.409C416.78 273.057 411.837 266.121 407.133 259.583C402.429 253.045 397.539 246.295 392.569 239.836C391.585 238.561 390.655 237.391 389.698 236.195L387.2 237.285C388.263 238.64 389.353 239.943 390.469 241.457C395.412 247.862 400.276 254.746 404.953 261.151C409.631 267.556 414.574 274.439 419.597 281.03C424.62 287.622 429.138 292.91 433.603 297.694Z" fill="#E0DFE6"></path> <path d="M377.372 247.169L375.269 248.794L414.712 299.864L416.815 298.24L377.372 247.169Z" fill="#E0DFE6"></path> <path d="M128.342 232.767C130.601 235.425 132.887 238.295 135.332 241.458C140.275 247.863 145.139 254.746 149.816 261.151C154.494 267.556 159.437 274.439 164.46 281.03C169.483 287.622 174.001 292.91 178.466 297.694L180.406 295.887C175.995 291.156 171.477 285.761 166.56 279.409C161.643 273.057 156.7 266.121 151.969 259.583C147.239 253.045 142.402 246.295 137.432 239.836C134.774 236.275 132.116 233.086 129.618 230.136L127.545 231.81L128.316 232.793L128.342 232.767Z" fill="#E0DFE6"></path> <path d="M103.439 272.552L103.306 269.895C101.579 269.895 97.2734 269.895 93.4463 269.895C94.217 270.798 95.041 271.702 95.8383 272.552C98.9743 272.659 102.031 272.632 103.439 272.552Z" fill="#E0DFE6"></path> <path d="M217.773 298.651C203.474 278.984 191.648 263.118 180.565 248.793L175.675 246.799L177.774 249.457C188.99 263.995 201.003 280.1 215.593 300.166L217.773 298.651Z" fill="#E0DFE6"></path> <path d="M146.627 303.195L148.833 301.734C147.823 300.192 146.733 298.677 145.511 297.083C142.508 293.203 139.159 289.535 135.917 285.974C132.674 282.412 129.379 278.824 126.455 275.05C123.532 271.277 120.316 267.529 117.1 264.074L115.16 265.882C118.323 269.283 121.671 273.217 124.356 276.672C127.332 280.552 130.707 284.22 133.95 287.754C137.192 291.289 140.488 294.903 143.411 298.704C144.607 300.245 145.644 301.707 146.627 303.195Z" fill="#E0DFE6"></path> <path d="M197.495 293.654C190.145 285.896 183.224 277.743 176.764 269.23C172.805 264.127 152.048 236.487 151.357 235.61L145.696 232.74C147.53 234.999 170.705 265.722 174.665 270.851C181.178 279.434 188.152 287.659 195.554 295.488L197.495 293.654Z" fill="#E0DFE6"></path> <path d="M101.95 261.443H107.265V258.786H101.95C96.6346 258.786 90.0969 258.786 84.25 258.786L85.6849 260.672L86.2699 261.39C91.5587 261.443 97.2458 261.443 101.95 261.443Z" fill="#E0DFE6"></path> <path d="M131.77 302.238L133.87 300.617C130.043 295.647 124.275 289.109 119.199 283.315C117.232 281.083 115.372 278.983 113.884 277.176L111.864 278.93C113.432 280.737 115.266 282.837 117.18 285.07C122.336 290.81 127.97 297.348 131.77 302.238Z" fill="#E0DFE6"></path> <path d="M109.339 248.154C103.186 247.874 97.0215 248.051 90.8951 248.686C86.6428 249.058 82.2576 249.403 77.9521 249.43L79.5201 252.088C83.4003 252.088 87.3337 251.716 91.1342 251.397C97.1095 250.763 103.124 250.586 109.127 250.865L109.339 248.154Z" fill="#E0DFE6"></path> <path d="M122.575 222.269C116.754 222.801 110.402 223.04 103.147 223.04C95.8915 223.04 88.2374 222.774 80.9288 222.535C76.3842 222.375 71.733 222.243 67.082 222.136L67.7997 224.794C72.1848 224.794 76.5435 225.007 80.849 225.166C88.1576 225.405 95.7321 225.671 103.147 225.671C110.562 225.671 116.914 225.405 122.814 224.874L122.575 222.269Z" fill="#E0DFE6"></path> <path d="M113.724 236.833H71.8389L72.9552 239.491H113.671L113.724 236.833Z" fill="#E0DFE6"></path> <path d="M122.213 247.169L120.109 248.794L159.552 299.864L161.656 298.24L122.213 247.169Z" fill="#E0DFE6"></path> <path d="M101.499 212.781C104.529 212.781 106.973 212.781 109.286 213.047C107.133 212.037 104.954 211.08 102.774 210.15L64.2646 209.725C64.2646 210.017 64.2646 210.283 64.2646 210.575C64.2646 210.867 64.5039 211.771 64.6368 212.382C65.3543 212.382 95.7582 212.781 101.499 212.781Z" fill="#E0DFE6"></path> <path d="M310.553 348.456V351.113H338.113C343.428 350.343 348.584 349.439 353.793 348.456H310.553Z" fill="#E0DFE6"></path> <path d="M377.473 358.528L375.347 360.176L376.064 361.08C377.721 361.921 379.425 362.666 381.167 363.312L377.473 358.528Z" fill="#E0DFE6"></path> <path d="M231.726 348.456L233.427 348.854C236.084 349.439 238.955 349.997 241.719 350.502V348.456H231.726Z" fill="#E0DFE6"></path> <path d="M263.564 351.459C260.907 347.898 258.249 344.708 255.75 341.758L253.678 343.433L254.448 344.416C256.707 347.074 258.993 349.944 261.438 353.107L261.598 353.293L265.185 353.665L263.564 351.459Z" fill="#E0DFE6"></path> <path d="M208.869 336.815C216.178 337.054 223.752 337.32 231.14 337.32C238.529 337.32 244.934 337.054 250.807 336.523L250.568 333.865C244.774 334.397 238.422 334.636 231.14 334.636C223.858 334.636 216.257 334.37 208.949 334.131C201.64 333.892 194.146 333.626 186.784 333.626H184.631C186.89 334.556 189.149 335.46 191.435 336.284C197.255 336.443 203.129 336.602 208.869 336.815Z" fill="#E0DFE6"></path> <path d="M394.216 309.281L392.196 311.035C405.166 325.918 418.481 342.236 432.938 360.946L439.476 369.478H442.825C440.167 365.996 437.51 362.621 435.038 359.325C420.554 340.642 407.212 324.271 394.216 309.281Z" fill="#E0DFE6"></path> <path d="M279.59 349.918C273.084 341.329 266.11 333.104 258.701 325.281L256.761 327.114C264.111 334.872 271.031 343.026 277.491 351.539C278.262 352.522 279.006 353.532 279.776 354.542H283.178C281.982 353.054 280.813 351.486 279.59 349.918Z" fill="#E0DFE6"></path> <path d="M408.594 349.918C402.087 341.322 395.104 333.097 387.678 325.281L385.765 327.114C393.114 334.872 400.035 343.026 406.495 351.539C410.428 356.641 419.172 368.362 419.783 369.053H423.211C422.148 367.937 412.554 355.02 408.594 349.918Z" fill="#E0DFE6"></path> <path d="M265.213 309.281L263.22 311.035C274.674 324.324 286.421 338.489 298.965 354.542H302.234C289.212 337.772 277.066 322.942 265.213 309.281Z" fill="#E0DFE6"></path> <path d="M386.775 308.75C380.822 308.59 376.144 308.404 371.998 308.245C362.803 307.899 356.052 307.66 343.03 307.66C321.609 307.66 302.527 308.165 284.561 309.228L284.72 311.886C302.5 310.849 321.529 310.344 342.897 310.344C355.972 310.344 362.59 310.584 371.786 310.929C375.958 311.089 380.609 311.275 386.563 311.434L386.775 308.75Z" fill="#E0DFE6"></path> <path d="M392.568 351.459C389.911 347.898 387.253 344.708 384.755 341.758L382.682 343.433L383.452 344.416C385.712 347.074 387.997 349.944 390.442 353.107C394.136 357.891 397.777 362.887 401.339 367.83L404.9 368.202C400.887 362.568 396.794 356.907 392.568 351.459Z" fill="#E0DFE6"></path> <path d="M212.006 324.191C217.827 324.191 223.673 324.404 229.52 324.404C233.028 324.404 235.793 324.563 238.424 324.723C243.326 325.129 248.255 325.076 253.147 324.563L252.881 321.906C248.131 322.405 243.344 322.458 238.583 322.065C235.925 322.065 233.108 321.746 229.52 321.746C223.673 321.746 200.286 321.321 194.519 321.321C184.757 321.251 174.998 321.703 165.284 322.676L165.523 324.935L166.134 325.254C175.541 324.342 184.988 323.916 194.439 323.979C200.366 323.979 206.186 324.111 212.006 324.191Z" fill="#E0DFE6"></path> <path d="M380.131 321.906C375.38 322.405 370.593 322.458 365.833 322.065C363.175 322.065 360.517 321.746 356.77 321.746C350.95 321.746 327.536 321.321 321.795 321.321C312.033 321.251 302.274 321.704 292.561 322.676L292.826 325.334C302.434 324.373 312.086 323.929 321.742 324.005C327.562 324.005 350.976 324.43 356.717 324.43C360.252 324.43 362.989 324.59 365.62 324.749C370.531 325.155 375.469 325.102 380.37 324.59L380.131 321.906Z" fill="#E0DFE6"></path> <path d="M215.912 310.318C228.988 310.318 235.605 310.557 244.774 310.902C248.973 311.062 253.598 311.248 259.578 311.408V308.75C253.625 308.59 248.947 308.404 244.801 308.245C235.605 307.899 228.855 307.66 215.832 307.66C194.411 307.66 175.329 308.165 157.363 309.228L157.523 311.886C175.489 310.823 194.544 310.318 215.912 310.318Z" fill="#E0DFE6"></path> <path d="M362.617 351.113H368.862V348.456H360.49C361.148 349.381 361.858 350.268 362.617 351.113Z" fill="#E0DFE6"></path> <path d="M377.712 333.892C371.892 334.423 365.54 334.663 358.285 334.663C351.029 334.663 343.375 334.397 336.066 334.158C328.758 333.918 321.263 333.653 313.901 333.653C309.835 333.653 306.167 333.653 302.659 333.892V336.55H303.776C306.938 336.55 310.234 336.363 313.848 336.363C321.157 336.363 328.678 336.603 335.933 336.869C343.189 337.134 350.817 337.373 358.231 337.373C365.646 337.373 371.998 337.108 377.898 336.576L377.712 333.892Z" fill="#E0DFE6"></path> <path d="M139.079 309.281L139.475 309.545L139.079 309.281Z" fill="#E0DFE6"></path> <path d="M547.698 59.7248C526.437 40.0845 486.358 17.5475 457.762 32.2711C455.411 33.596 453.461 35.5288 452.114 37.8667C450.768 40.2047 450.074 42.8617 450.108 45.5595C452.765 71.4719 476.685 85.4247 493.109 102.673C505.6 115.962 516.364 128.213 518.224 143.867C520.51 163.401 512.298 181.766 501.082 198.057C488.538 216.289 466.745 229.285 460.287 251.211C458.4 257.616 462.572 266.812 469.775 267.902C499.009 272.234 529.254 249.298 548.575 229.126C570.474 206.402 585.278 175.68 585.783 143.867C586.288 112.055 570.74 81.1458 547.698 59.7248Z" fill="#D7DCE0"></path> <path d="M388.449 33.3608V53.5326C403.463 58.3453 417.937 64.7048 431.637 72.5085C466.187 92.4677 485.481 117.955 489.415 144.106C494.358 111.231 475.09 77.3721 431.637 52.3102C417.936 44.5153 403.462 38.1647 388.449 33.3608Z" fill="#3A3A3A"></path> <path d="M395.279 26.3439L388.449 33.3602C403.462 38.1641 417.936 44.5146 431.637 52.3095C475.09 77.3715 494.358 111.23 489.415 144.106C485.481 170.231 466.213 195.718 431.637 215.704L473.096 239.623C523.592 210.389 548.734 172.251 548.734 134.007C548.734 95.7626 523.513 57.5183 473.096 28.4166C455.396 18.3212 436.691 10.1 417.285 3.88623L395.279 26.3439Z" fill="white"></path> <path d="M443.41 242.68L473.096 259.822V239.623L431.663 215.704V235.876L443.41 242.68Z" fill="#3A3A3A"></path> <path d="M548.734 134.007C548.734 172.251 523.513 210.495 473.097 239.624V259.795C523.593 230.561 548.787 192.37 548.734 154.099V134.007Z" fill="#3A3A3A"></path> <path d="M290.407 280.578C230.848 280.578 171.342 267.29 125.976 241.191C81.3798 215.438 56.876 180.941 56.876 144.106C56.876 107.27 81.4596 72.7471 125.976 46.9942C197.733 5.56085 306.433 -4.27281 396.422 22.5167C397.437 22.8162 398.291 23.5067 398.797 24.4363C399.303 25.3658 399.419 26.4582 399.119 27.4732C398.82 28.4882 398.129 29.3428 397.2 29.8487C396.27 30.3545 395.178 30.4704 394.163 30.1708C306.14 3.96603 199.966 13.5073 129.962 53.9041C87.9443 78.1687 64.7692 110.194 64.7692 144.106C64.7692 178.018 87.9443 210.017 129.962 234.281C215.327 283.581 352.198 285.681 441.549 239.118C444.685 237.497 447.662 235.876 450.373 234.281C451.289 233.749 452.379 233.603 453.403 233.874C454.428 234.146 455.302 234.813 455.834 235.729C456.367 236.646 456.513 237.736 456.241 238.76C455.97 239.784 455.302 240.659 454.386 241.191C451.542 242.839 448.459 244.513 445.244 246.188C401.153 269.177 345.766 280.578 290.407 280.578Z" fill="#3A3A3A"></path> <path d="M473.15 243.61C472.451 243.607 471.764 243.424 471.156 243.078L429.697 219.159C429.089 218.813 428.583 218.313 428.232 217.708C427.88 217.104 427.695 216.417 427.695 215.718C427.695 215.018 427.88 214.332 428.232 213.727C428.583 213.123 429.089 212.622 429.697 212.276C461.828 193.672 481.628 169.301 485.508 143.548C490.398 111.071 470.067 79.0728 429.697 55.8446C416.209 48.1791 401.957 41.944 387.174 37.2408C386.528 37.0334 385.947 36.6638 385.485 36.1673C385.023 35.6708 384.697 35.0641 384.537 34.4053C384.377 33.7465 384.389 33.0576 384.571 32.4046C384.754 31.7517 385.101 31.1568 385.579 30.6764L414.335 1.20244C414.856 0.67104 415.515 0.295273 416.238 0.11692C416.961 -0.0614322 417.719 -0.0353514 418.428 0.192511C438.115 6.5046 457.095 14.8414 475.063 25.0687C525.134 53.9578 552.694 92.6803 552.694 134.034C552.694 175.387 525.134 214.163 475.063 242.999C474.486 243.36 473.829 243.57 473.15 243.61ZM439.556 215.625L473.15 234.999C519.393 207.705 544.907 171.906 544.907 134.007C544.907 95.5505 518.756 59.273 471.263 31.8722C454.494 22.3189 436.812 14.4664 418.481 8.4316L395.891 31.6065C409.025 36.1848 421.71 41.9585 433.789 48.8549C477.163 73.8637 498.903 108.812 493.508 144.691C489.335 171.268 470.306 196.277 439.503 215.625H439.556Z" fill="#3A3A3A"></path> <path d="M473.15 263.782C472.092 263.782 471.078 263.362 470.331 262.614C469.583 261.867 469.163 260.853 469.163 259.795V239.624C469.163 238.566 469.583 237.552 470.331 236.805C471.078 236.057 472.092 235.637 473.15 235.637C474.207 235.637 475.221 236.057 475.969 236.805C476.716 237.552 477.136 238.566 477.136 239.624V259.795C477.136 260.853 476.716 261.867 475.969 262.614C475.221 263.362 474.207 263.782 473.15 263.782Z" fill="#3A3A3A"></path> <path d="M473.149 263.782C472.449 263.792 471.759 263.608 471.156 263.25L429.696 239.331C429.092 238.979 428.59 238.475 428.24 237.868C427.89 237.262 427.705 236.576 427.703 235.876V215.704C427.703 214.647 428.123 213.633 428.871 212.885C429.618 212.138 430.632 211.718 431.69 211.718C432.747 211.718 433.761 212.138 434.509 212.885C435.256 213.633 435.676 214.647 435.676 215.704V233.59L473.149 255.197C519.42 227.876 544.907 192.051 544.907 154.205V134.113C544.907 133.056 545.327 132.042 546.075 131.294C546.822 130.546 547.836 130.126 548.894 130.126C549.951 130.126 550.965 130.546 551.712 131.294C552.46 132.042 552.88 133.056 552.88 134.113V154.205C552.88 195.665 525.347 234.414 475.249 263.356C474.605 263.696 473.876 263.844 473.149 263.782Z" fill="#3A3A3A"></path> <path d="M489.415 148.093C488.458 148.091 487.532 147.747 486.806 147.124C486.08 146.5 485.601 145.637 485.455 144.691C481.575 118.885 461.748 94.4872 429.644 75.9631C416.155 68.2993 401.904 62.0642 387.121 57.3593C386.339 57.0788 385.663 56.5626 385.187 55.8819C384.711 55.2011 384.458 54.3896 384.463 53.559V33.3869C384.463 32.3296 384.883 31.3159 385.631 30.5683C386.378 29.8207 387.392 29.4004 388.449 29.4004C389.507 29.4004 390.521 29.8207 391.268 30.5683C392.016 31.3159 392.436 32.3296 392.436 33.3869V50.6885C406.75 55.4523 420.558 61.6218 433.657 69.1064C467.888 88.853 489.096 115.297 493.348 143.522C493.427 144.038 493.403 144.566 493.278 145.073C493.152 145.581 492.927 146.058 492.615 146.478C492.304 146.898 491.913 147.252 491.464 147.52C491.015 147.788 490.517 147.965 490 148.039L489.415 148.093Z" fill="#3A3A3A"></path> <path d="M345.289 88.0021C344.377 88.5141 343.404 88.9073 342.392 89.1716C337.278 90.4575 331.868 89.7643 327.243 87.2312C321.928 84.1749 321.316 79.4976 325.941 76.8399C328.797 75.5408 331.918 74.9312 335.052 75.0605C338.187 75.1897 341.248 76.054 343.987 77.5838C349.329 80.7199 349.913 85.3178 345.289 88.0021Z" fill="#3A3A3A"></path> <path d="M404.05 141.13L408.568 143.788C412.98 146.445 413.485 150.193 409.658 152.398L310.579 209.619C308.213 210.687 305.629 211.186 303.035 211.075C300.442 210.964 297.91 210.247 295.643 208.981L291.152 206.323C287.537 204.25 286.581 201.3 288.494 199.068C288.95 198.524 289.499 198.065 290.115 197.712L389.22 140.519C390.482 139.828 391.861 139.378 393.286 139.19C396.989 138.688 400.756 139.367 404.05 141.13Z" fill="white"></path> <path d="M240.974 108.493C240.379 109.185 239.668 109.769 238.875 110.221C237.931 110.751 236.921 111.153 235.871 111.417C230.799 112.655 225.447 111.963 220.855 109.477C215.54 106.394 214.902 101.716 219.553 99.0586C222.411 97.7656 225.531 97.1593 228.664 97.2885C231.798 97.4178 234.858 98.279 237.599 99.8028C241.931 102.301 243.074 105.809 240.974 108.493Z" fill="#3A3A3A"></path> <path d="M199.089 161.221C200.941 162.15 202.415 163.689 203.262 165.58C203.531 166.322 203.598 167.122 203.453 167.898C203.308 168.674 202.957 169.397 202.438 169.991C201.862 170.661 201.168 171.22 200.391 171.639C197.536 172.938 194.415 173.548 191.28 173.419C188.145 173.289 185.085 172.425 182.346 170.895C177.03 167.812 176.446 163.161 181.043 160.477C183.901 159.184 187.021 158.578 190.154 158.707C193.288 158.836 196.348 159.697 199.089 161.221Z" fill="#3A3A3A"></path> <path d="M203.261 165.58L285.889 162.417L235.871 111.416C236.921 111.152 237.931 110.75 238.875 110.22C239.668 109.769 240.378 109.184 240.974 108.493L329.262 137.355L334.764 89.5171C337.314 89.8465 339.903 89.6839 342.392 89.0386L393.153 139.029C391.727 139.217 390.349 139.668 389.087 140.358L290.008 197.658C289.387 198.004 288.837 198.464 288.387 199.014L202.518 169.965C203.019 169.365 203.352 168.644 203.483 167.873C203.613 167.103 203.537 166.311 203.261 165.58Z" fill="#3FAAF0"></path> <path d="M304.015 215.04C300.372 215.062 296.784 214.146 293.597 212.383L289.105 209.725C287.733 209.047 286.528 208.073 285.577 206.874C284.626 205.674 283.952 204.279 283.604 202.788C283.396 201.674 283.441 200.527 283.735 199.432C284.03 198.337 284.566 197.323 285.305 196.463C286.051 195.567 286.951 194.811 287.962 194.23L387.068 137.011C388.756 136.055 390.617 135.44 392.543 135.203C397.116 134.58 401.77 135.427 405.831 137.622L410.349 140.28C411.946 141.046 413.311 142.222 414.306 143.688C415.3 145.154 415.888 146.857 416.01 148.625C415.961 150.121 415.511 151.576 414.707 152.839C413.903 154.101 412.774 155.124 411.439 155.8L312.36 213.02C309.793 214.385 306.922 215.08 304.015 215.04ZM291.497 201.539C291.915 202.103 292.462 202.559 293.092 202.868L297.583 205.526C299.248 206.432 301.094 206.96 302.987 207.07C304.88 207.18 306.774 206.871 308.533 206.163L407.611 148.944C407.789 148.842 407.958 148.726 408.117 148.598C407.703 148.023 407.156 147.558 406.522 147.243L402.004 144.585C399.466 143.257 396.576 142.755 393.738 143.15C392.808 143.252 391.906 143.531 391.081 143.974L291.975 201.167C291.809 201.281 291.649 201.405 291.497 201.539Z" fill="#3A3A3A"></path> <path d="M288.308 202.974C287.873 202.981 287.441 202.909 287.032 202.761L201.163 173.739C200.667 173.565 200.211 173.294 199.819 172.943C199.428 172.593 199.11 172.168 198.883 171.694C198.656 171.221 198.525 170.707 198.496 170.182C198.468 169.657 198.543 169.132 198.717 168.636C198.892 168.141 199.162 167.685 199.513 167.294C199.864 166.902 200.289 166.584 200.763 166.357C201.236 166.13 201.75 165.999 202.275 165.97C202.799 165.942 203.325 166.017 203.82 166.191L289.69 195.24C290.583 195.544 291.34 196.155 291.825 196.964C292.31 197.774 292.492 198.729 292.339 199.66C292.186 200.592 291.708 201.438 290.989 202.05C290.27 202.661 289.358 202.998 288.414 203L288.308 202.974Z" fill="#3A3A3A"></path> <path d="M203.235 169.567C202.177 169.567 201.164 169.147 200.416 168.399C199.668 167.651 199.248 166.638 199.248 165.58C199.248 164.523 199.668 163.509 200.416 162.762C201.164 162.014 202.177 161.594 203.235 161.594L276.853 158.777L233.16 114.207C232.462 113.445 232.087 112.442 232.114 111.408C232.141 110.375 232.569 109.392 233.307 108.668C234.045 107.944 235.035 107.535 236.069 107.527C237.102 107.519 238.099 107.913 238.848 108.626L288.865 159.601C289.402 160.158 289.767 160.857 289.918 161.615C290.069 162.374 289.998 163.16 289.716 163.88C289.431 164.598 288.942 165.217 288.309 165.661C287.676 166.105 286.927 166.354 286.155 166.378L203.235 169.567Z" fill="#3A3A3A"></path> <path d="M329.263 141.343C328.839 141.348 328.418 141.285 328.014 141.157L239.726 112.268C239.21 112.12 238.73 111.871 238.313 111.534C237.896 111.197 237.551 110.779 237.3 110.306C237.048 109.832 236.894 109.313 236.848 108.779C236.802 108.245 236.863 107.707 237.03 107.197C237.196 106.688 237.463 106.217 237.816 105.813C238.168 105.409 238.599 105.08 239.081 104.847C239.563 104.613 240.088 104.479 240.623 104.452C241.159 104.426 241.694 104.508 242.197 104.693L325.861 132.067L330.804 89.1724C330.867 88.6522 331.031 88.1492 331.288 87.6927C331.545 87.2361 331.89 86.8348 332.302 86.5114C332.714 86.1881 333.186 85.9493 333.691 85.8084C334.195 85.6676 334.723 85.6275 335.243 85.6907C335.762 85.75 336.264 85.9114 336.72 86.1656C337.176 86.4198 337.578 86.7619 337.902 87.172C338.225 87.5821 338.465 88.052 338.606 88.555C338.747 89.058 338.787 89.5839 338.724 90.1025L333.223 137.941C333.159 138.528 332.963 139.094 332.65 139.595C332.337 140.097 331.915 140.522 331.416 140.838C330.76 141.206 330.014 141.381 329.263 141.343Z" fill="#3A3A3A"></path> <path d="M393.154 143.15C392.1 143.156 391.088 142.745 390.336 142.007L339.601 92.0161C339.207 91.6546 338.889 91.2175 338.668 90.7307C338.446 90.244 338.324 89.7176 338.31 89.1829C338.296 88.6482 338.389 88.116 338.585 87.6182C338.781 87.1204 339.075 86.6669 339.45 86.2851C339.824 85.9033 340.272 85.6011 340.766 85.3959C341.26 85.1907 341.79 85.0869 342.325 85.0909C342.86 85.095 343.389 85.2066 343.88 85.4193C344.371 85.6319 344.813 85.9412 345.182 86.3286L395.944 136.32C396.489 136.871 396.863 137.568 397.02 138.327C397.178 139.086 397.112 139.874 396.831 140.597C396.55 141.319 396.065 141.945 395.436 142.398C394.807 142.851 394.061 143.112 393.286 143.15H393.154Z" fill="#3A3A3A"></path> <path d="M192.551 177.407C188.292 177.437 184.094 176.385 180.352 174.35C178.555 173.494 177.016 172.178 175.891 170.535C174.766 168.892 174.096 166.981 173.947 164.995C174.009 163.332 174.515 161.716 175.412 160.314C176.309 158.912 177.565 157.775 179.05 157.022C182.517 155.387 186.324 154.602 190.156 154.732C193.987 154.861 197.733 155.901 201.082 157.767C203.762 159.16 205.861 161.458 207.009 164.251C207.508 165.639 207.633 167.133 207.372 168.583C207.111 170.034 206.472 171.391 205.521 172.517C204.654 173.594 203.589 174.496 202.384 175.174C199.355 176.756 195.967 177.525 192.551 177.407ZM188.857 162.657C186.841 162.595 184.842 163.034 183.036 163.933C182.212 164.437 181.92 164.862 181.92 164.995C181.92 165.128 182.505 166.377 184.339 167.441C186.475 168.614 188.847 169.293 191.281 169.426C193.714 169.559 196.146 169.144 198.398 168.211C198.756 168.018 199.079 167.766 199.355 167.467C199.594 167.175 199.567 167.095 199.355 166.935C198.816 165.948 197.979 165.158 196.963 164.676C194.446 163.328 191.632 162.633 188.777 162.657H188.857Z" fill="#3A3A3A"></path> <path d="M231.088 116.015C226.817 116.042 222.609 114.981 218.862 112.932C217.055 112.086 215.506 110.773 214.375 109.128C213.245 107.484 212.573 105.567 212.431 103.577C212.498 101.911 213.009 100.294 213.91 98.8925C214.812 97.4908 216.072 96.3554 217.56 95.6038C221.027 93.9689 224.834 93.1837 228.666 93.3131C232.497 93.4425 236.243 94.4829 239.592 96.3481C241.132 97.121 242.486 98.2167 243.564 99.5605C244.642 100.904 245.417 102.465 245.838 104.135C246.063 105.333 246.023 106.565 245.72 107.745C245.417 108.926 244.859 110.025 244.084 110.965C243.181 112.038 242.091 112.938 240.868 113.623C239.627 114.333 238.295 114.87 236.908 115.218C235.012 115.743 233.055 116.011 231.088 116.015ZM227.314 101.238C225.315 101.173 223.331 101.612 221.546 102.514C220.696 102.992 220.404 103.444 220.404 103.577C220.404 103.71 221.015 104.959 222.849 106.022C226.526 107.969 230.784 108.517 234.835 107.563C235.548 107.386 236.236 107.118 236.881 106.766C237.256 106.588 237.584 106.324 237.838 105.995C238.024 105.783 238.024 105.677 237.998 105.623C237.971 105.57 237.333 104.268 235.606 103.258C233.053 101.904 230.203 101.21 227.314 101.238Z" fill="#3A3A3A"></path> <path d="M337.448 93.7967C336.411 93.7967 335.375 93.7966 334.312 93.6105C331.125 93.2533 328.043 92.2592 325.249 90.6871C323.45 89.8396 321.909 88.5289 320.784 86.8897C319.658 85.2505 318.989 83.3417 318.844 81.3586C318.906 79.6953 319.412 78.0788 320.309 76.6769C321.206 75.2749 322.462 74.1384 323.947 73.3856C327.414 71.7507 331.221 70.9654 335.053 71.0948C338.884 71.2242 342.63 72.2646 345.979 74.1298C347.78 74.9818 349.321 76.297 350.447 77.9408C351.572 79.5846 352.241 81.4979 352.384 83.4849C352.322 85.1483 351.816 86.7647 350.919 88.1667C350.022 89.5686 348.766 90.7051 347.281 91.458C346.071 92.128 344.786 92.6541 343.454 93.0259C341.494 93.5453 339.475 93.8046 337.448 93.7967ZM333.754 79.0199C331.736 78.939 329.732 79.3782 327.933 80.2955C327.083 80.7739 326.817 81.2257 326.817 81.3586C326.817 81.4915 327.402 82.7407 329.235 83.8038C331.097 84.8136 333.137 85.4542 335.242 85.6907C337.275 85.9459 339.337 85.8288 341.328 85.3452C342.011 85.1517 342.67 84.8842 343.295 84.5477C344.145 84.0428 344.411 83.6178 344.411 83.4849C344.411 83.352 343.826 82.1028 341.992 81.0397C339.458 79.689 336.626 78.9945 333.754 79.0199Z" fill="#3A3A3A"></path> <path d="M253.067 316.829H252.722C190.293 311.062 133.551 294.318 88.6357 268.379C13.1309 224.793 -17.1664 160.265 9.54332 99.9617C9.74887 99.4725 10.0499 99.0294 10.429 98.6582C10.8081 98.2869 11.2574 97.9951 11.7507 97.7997C12.244 97.6044 12.7713 97.5093 13.3018 97.5204C13.8323 97.5315 14.3552 97.6485 14.8399 97.8643C15.3246 98.0801 15.7614 98.3904 16.1246 98.7772C16.4878 99.164 16.7702 99.6194 16.9551 100.117C17.14 100.614 17.2236 101.144 17.2014 101.674C17.1791 102.204 17.0513 102.724 16.8254 103.204C-8.47582 160.291 19.8548 219.478 92.6223 261.469C134.507 285.681 187.05 301.707 244.988 308.032L235.739 294.425C235.147 293.547 234.927 292.47 235.129 291.431C235.331 290.392 235.937 289.475 236.815 288.883C237.693 288.291 238.77 288.072 239.809 288.274C240.848 288.476 241.764 289.082 242.356 289.96L256.389 310.61C256.795 311.211 257.03 311.911 257.068 312.636C257.105 313.36 256.944 314.081 256.603 314.721C256.261 315.36 255.751 315.895 255.128 316.267C254.505 316.638 253.792 316.832 253.067 316.829Z" fill="#3A3A3A"></path> <path d="M210.039 336.097C209.126 336.097 208.241 335.783 207.532 335.208C206.822 334.634 206.332 333.833 206.142 332.94C205.952 332.047 206.075 331.115 206.489 330.302C206.903 329.488 207.584 328.842 208.418 328.47L251.366 309.202C252.332 308.768 253.43 308.736 254.419 309.112C255.409 309.489 256.208 310.242 256.642 311.208C257.075 312.174 257.107 313.272 256.731 314.262C256.355 315.251 255.601 316.05 254.635 316.484L211.66 335.752C211.146 335.968 210.596 336.085 210.039 336.097Z" fill="#3A3A3A"></path> </svg> 