<?xml version="1.0" encoding="UTF-8"?> <svg xmlns="http://www.w3.org/2000/svg" width="202" height="201" viewBox="0 0 202 201" fill="none"> <path d="M179.251 139.554C181.823 139.554 184.55 139.245 188.022 139.245C192.266 139.245 196.51 139.245 200.754 139.117C200.754 139.991 200.496 140.84 200.368 141.689C196.252 141.689 192.137 141.817 188.022 141.817C184.601 141.817 181.952 141.972 179.406 142.126C174.662 142.519 169.891 142.467 165.157 141.972L165.413 139.399C170.011 139.882 174.644 139.934 179.251 139.554Z" fill="#E0DFE6"></path> <path d="M115.998 69.2098C105.144 83.3046 93.5181 98.891 79.4233 118.284L77.3398 116.767C91.4346 97.3479 103.061 81.7355 113.966 67.6407C118.364 61.9565 122.634 56.5295 126.826 51.2568L129.27 52.3372C124.949 57.7385 120.55 63.3455 115.998 69.2098Z" fill="#E0DFE6"></path> <path d="M141.6 60.0526C137.768 64.9909 122.876 85.027 119.043 89.991C112.724 98.2922 105.967 106.251 98.8009 113.834L96.9491 112.059C104.062 104.551 110.759 96.6607 117.011 88.4221C120.818 83.4838 140.159 57.5576 140.519 57.2232L142.937 58.3292C142.577 58.895 142.037 59.461 141.6 60.0526Z" fill="#E0DFE6"></path> <path d="M134.641 127.182L134.487 129.754C117.28 128.751 98.864 128.262 78.1848 128.262C65.5303 128.262 59.1005 128.493 50.227 128.828C46.1889 128.982 41.6877 129.162 35.9263 129.316V126.744C41.6877 126.59 46.2146 126.41 50.2013 126.256C59.1262 125.921 65.6333 125.69 78.262 125.69C98.8641 125.613 117.383 126.101 134.641 127.182Z" fill="#E0DFE6"></path> <path d="M155.46 128.932C142.909 143.336 130.023 159.154 116.031 177.235C112.121 182.379 108.083 187.523 103.891 193.207L101.319 192.179C105.691 186.392 109.858 180.939 113.897 175.666C127.914 157.533 140.851 141.69 153.428 127.235L155.46 128.932Z" fill="#E0DFE6"></path> <path d="M56.2598 139.553C58.8318 139.553 61.5329 139.244 65.0309 139.244C70.6636 139.244 93.3231 138.833 98.8787 138.833C108.326 138.752 117.771 139.19 127.171 140.145L126.888 142.717C117.598 141.786 108.266 141.357 98.9302 141.431C93.2974 141.431 70.638 141.842 65.0824 141.842C61.6615 141.842 59.0121 141.997 56.44 142.151C51.6959 142.544 46.9253 142.492 42.1908 141.997L42.474 139.425C47.0554 139.896 51.6704 139.939 56.2598 139.553Z" fill="#E0DFE6"></path> <path d="M85.0022 153.829C77.9291 154.06 70.5984 154.317 63.4224 154.317C56.2464 154.317 50.0738 154.06 44.3895 153.546L44.6206 150.974C50.2277 151.488 56.375 151.72 63.4224 151.72C70.4698 151.72 77.8518 151.462 84.9249 151.231C91.9981 150.999 99.2508 150.742 106.375 150.742C110.285 150.742 113.86 150.742 117.255 150.974V153.546H116.175C113.114 153.546 109.925 153.366 106.427 153.366C99.3023 153.34 92.0238 153.571 85.0022 153.829Z" fill="#E0DFE6"></path> <path d="M53.1953 165.07H109.626V167.642H53.1953V165.07Z" fill="#E0DFE6"></path> <path d="M23.012 55.8601C48.4752 43.2056 75.8673 66.9198 96.8037 80.2172C107.092 86.6731 117.2 93.0774 127.283 99.6361C137.365 106.195 149.299 111.107 157.272 120.032C159.383 122.252 160.893 124.973 161.659 127.939C162.424 130.905 162.42 134.017 161.648 136.981C160.875 139.945 159.359 142.662 157.244 144.877C155.128 147.092 152.482 148.73 149.556 149.637C125.251 157.224 94.9776 139.966 73.6554 129.832C51.7416 119.544 11.6438 103.443 12.2868 74.713C12.364 67.3827 16.1447 59.2552 23.012 55.8601Z" fill="#D7DCE0"></path> <path d="M201.217 128.185C188.562 128.185 182.158 128.416 173.258 128.751C169.22 128.905 164.72 129.085 158.958 129.24V126.668C164.72 126.513 169.246 126.333 173.258 126.179C182.158 125.844 188.691 125.613 201.294 125.613C201.294 126.462 201.294 127.336 201.294 128.185H201.217Z" fill="#E0DFE6"></path> <path d="M142.988 116.07C142.988 121.497 144.892 125.329 147.978 127.104C151.065 128.879 155.308 128.621 160.015 125.895C164.982 122.654 169.113 118.286 172.072 113.146C175.031 108.006 176.734 102.239 177.042 96.3166C177.042 90.8896 175.139 87.0573 172.052 85.2826C168.966 83.5079 164.722 83.765 160.015 86.4656C155.054 89.6944 150.926 94.0496 147.967 99.1762C145.008 104.303 143.302 110.056 142.988 115.967V116.07Z" fill="white"></path> <path d="M152.422 132.121C155.8 132.013 159.091 131.02 161.964 129.24C167.52 125.662 172.14 120.807 175.437 115.08C178.735 109.352 180.614 102.92 180.92 96.3181C180.92 89.6308 178.348 84.5124 174.001 81.9403C169.654 79.3683 163.893 79.7799 158.106 83.1235C152.563 86.6974 147.952 91.5413 144.656 97.2534C141.359 102.966 139.471 109.381 139.15 115.969C139.15 122.656 141.722 127.774 146.069 130.346C147.992 131.491 150.184 132.104 152.422 132.121ZM170.143 88.7305C172.098 89.8622 173.204 92.6658 173.204 96.4467C172.867 101.676 171.322 106.756 168.689 111.286C166.055 115.816 162.406 119.673 158.029 122.553C154.762 124.456 151.779 124.893 149.85 123.762C147.921 122.63 146.789 119.827 146.789 116.046C146.986 110.891 148.472 105.869 151.11 101.436C153.665 96.7356 157.374 92.7617 161.887 89.888C165.205 88.0361 168.188 87.5988 170.143 88.7305Z" fill="#3A3A3A"></path> <path d="M177.467 119.981L175.409 118.412C176.772 116.663 177.724 115.274 178.547 114.065C180.001 111.749 181.728 109.616 183.691 107.712L185.466 109.59C183.594 111.347 181.952 113.335 180.579 115.505C179.833 116.894 178.856 118.18 177.467 119.981Z" fill="#E0DFE6"></path> <path d="M131.663 116.252L167.671 69.7492C168.469 70.135 169.214 70.5466 169.986 70.9582L133.798 117.821L131.663 116.252Z" fill="#E0DFE6"></path> <path d="M192.952 114.065C193.738 113.963 194.533 113.963 195.318 114.065L194.804 116.637C194.24 116.573 193.67 116.573 193.106 116.637H192.078C191.314 116.646 190.556 116.516 189.84 116.251L190.791 113.86C191.492 114.066 192.226 114.135 192.952 114.065Z" fill="#E0DFE6"></path> <path d="M128.938 99.8416C124.128 106.066 119.678 111.339 115.383 115.968L113.506 114.219C117.75 109.667 122.122 104.42 126.906 98.2727C131.69 92.1255 136.448 85.4124 141.001 79.0852C144.884 73.7096 148.871 68.2054 152.935 62.8556L155.301 63.9616C151.16 69.44 147.045 75.0729 143.084 80.6027C138.506 86.9557 133.773 93.5401 128.938 99.8416Z" fill="#E0DFE6"></path> <path d="M199.427 116.894L200.096 115.968L200.404 117.614L199.427 116.894Z" fill="#E0DFE6"></path> <path d="M171.861 176.437L157.123 195.496C155.58 196.19 154.012 196.808 152.443 197.373L169.83 174.843L171.861 176.437Z" fill="#E0DFE6"></path> <path d="M155.084 168.001C157.656 164.554 160.228 161.468 162.8 158.613L164.805 160.233L164.06 161.185C161.874 163.757 159.661 166.535 157.295 169.596C152.511 175.794 147.804 182.327 143.252 188.654C140.32 192.718 137.311 196.859 134.276 201C133.195 201 132.115 201 131.06 201C134.327 196.345 150.325 174.225 155.084 168.001Z" fill="#E0DFE6"></path> <path d="M128.267 181.479C131.997 176.335 135.727 171.448 139.559 166.51C145.856 158.198 152.605 150.238 159.775 142.667L161.627 144.442C154.53 151.957 147.842 159.847 141.591 168.079C137.759 173.017 118.443 198.609 118.443 198.943C117.568 198.686 116.719 198.403 115.87 198.094C116.153 197.529 124.564 186.494 128.267 181.479Z" fill="#E0DFE6"></path> <path d="M190.24 167.666H176.222V165.094H191.886C191.346 165.969 190.806 166.818 190.24 167.666Z" fill="#E0DFE6"></path> <path d="M167.619 151C173.252 151.514 179.399 151.745 186.421 151.745C190.253 151.745 194.137 151.745 198.02 151.565C197.738 152.44 197.429 153.314 197.12 154.137C193.545 154.137 189.97 154.292 186.421 154.292C179.322 154.292 173.097 154.034 167.387 153.52L167.619 151Z" fill="#E0DFE6"></path> <path d="M181.407 178.623H180.661L180.455 176.051C181.561 176.051 182.718 176.051 183.876 175.923C183.078 176.72 182.256 177.62 181.407 178.623Z" fill="#E0DFE6"></path> <path d="M3.84119 35.7465C3.84119 41.1735 5.74435 44.98 8.8308 46.7547L147.978 127.182C144.892 125.408 142.988 121.575 142.988 116.148C143.302 110.238 145.008 104.484 147.967 99.3577C150.926 94.231 155.054 89.8759 160.015 86.6471C164.722 83.9464 168.966 83.6894 172.052 85.4641L32.9054 5.11335C29.8189 3.33864 25.5746 3.59593 20.8678 6.32229C15.9067 9.55111 11.779 13.9062 8.82012 19.0329C5.86125 24.1595 4.15519 29.9126 3.84119 35.8235V35.7465Z" fill="white"></path> <path d="M147.995 130.964C148.845 130.965 149.671 130.685 150.346 130.168C151.021 129.651 151.506 128.925 151.726 128.104C151.946 127.283 151.888 126.412 151.562 125.627C151.236 124.842 150.661 124.186 149.924 123.762L10.7763 43.4113C8.82156 42.3054 7.71573 39.5018 7.71573 35.6952C7.89183 30.5294 9.3786 25.4933 12.0366 21.0603C14.5842 16.3609 18.2946 12.3936 22.8133 9.53758C26.0541 7.65999 29.0381 7.22266 30.9928 8.32864L170.14 88.6794C171.027 89.191 172.08 89.3293 173.069 89.064C174.058 88.7987 174.901 88.1514 175.413 87.2646C175.924 86.3778 176.063 85.3241 175.798 84.3353C175.532 83.3464 174.885 82.5036 173.998 81.992L34.8509 1.66714C30.3755 -0.904901 24.7423 -0.493475 18.9552 2.85018C13.4021 6.41309 8.78327 11.2544 5.48528 16.9688C2.18731 22.6832 0.306491 29.1045 -0.000396732 35.6952C-0.000396732 42.3825 2.5715 47.4752 6.91825 50.0472L146.066 130.398C146.644 130.762 147.312 130.958 147.995 130.964Z" fill="#3A3A3A"></path> </svg> 