<?xml version="1.0" encoding="UTF-8"?> <svg xmlns="http://www.w3.org/2000/svg" width="182" height="182" viewBox="0 0 182 182" fill="none"> <path d="M19.9298 126.177C17.6043 126.177 15.1394 125.898 12 125.898C8.16289 125.898 4.32533 125.898 0.488227 125.782C0.488227 126.573 0.72112 127.34 0.837396 128.108C4.55822 128.108 8.27916 128.224 12 128.224C15.0929 128.224 17.4879 128.363 19.7901 128.503C24.0795 128.858 28.3929 128.812 32.6736 128.363L32.4414 126.038C28.2844 126.474 24.0954 126.521 19.9298 126.177Z" fill="#E0DFE6"></path> <path d="M77.1215 62.5761C86.9352 75.3199 97.4465 89.4124 110.19 106.947L112.074 105.575C99.3303 88.0172 88.8184 73.9012 78.9582 61.1574C74.9816 56.018 71.1212 51.1112 67.3306 46.3439L65.1215 47.3207C69.0284 52.2043 73.0054 57.2739 77.1215 62.5761Z" fill="#E0DFE6"></path> <path d="M53.9726 54.2968C57.4376 58.7618 70.9024 76.8774 74.3674 81.3657C80.0811 88.8713 86.1906 96.0674 92.6695 102.923L94.3438 101.319C87.9127 94.5306 81.8572 87.3961 76.2047 79.9472C72.7629 75.4822 55.2753 52.0409 54.9497 51.7386L52.7639 52.7386C53.0894 53.2502 53.5773 53.7619 53.9726 54.2968Z" fill="#E0DFE6"></path> <path d="M60.2647 114.992L60.4038 117.317C75.9615 116.41 92.6125 115.968 111.31 115.968C122.751 115.968 128.565 116.178 136.588 116.48C140.239 116.62 144.309 116.782 149.518 116.922V114.596C144.309 114.457 140.216 114.294 136.611 114.154C128.542 113.852 122.658 113.643 111.24 113.643C92.6125 113.573 75.8689 114.015 60.2647 114.992Z" fill="#E0DFE6"></path> <path d="M41.4405 116.574C52.789 129.597 64.4401 143.899 77.0909 160.247C80.6257 164.898 84.2766 169.549 88.0672 174.689L90.3928 173.759C86.4394 168.526 82.6717 163.596 79.0207 158.829C66.3466 142.434 54.6495 128.109 43.2778 115.039L41.4405 116.574Z" fill="#E0DFE6"></path> <path d="M131.132 126.177C128.807 126.177 126.365 125.898 123.202 125.898C118.109 125.898 97.6214 125.526 92.5982 125.526C84.0561 125.453 75.5163 125.849 67.0175 126.712L67.2736 129.037C75.6727 128.196 84.1108 127.808 92.5517 127.875C97.6446 127.875 118.132 128.247 123.155 128.247C126.248 128.247 128.644 128.386 130.969 128.526C135.259 128.881 139.572 128.835 143.853 128.386L143.597 126.061C139.454 126.487 135.282 126.526 131.132 126.177Z" fill="#E0DFE6"></path> <path d="M105.146 139.085C111.541 139.294 118.169 139.527 124.657 139.527C131.145 139.527 136.726 139.294 141.866 138.829L141.657 136.503C136.587 136.969 131.029 137.178 124.657 137.178C118.285 137.178 111.611 136.945 105.215 136.736C98.8202 136.527 92.2626 136.294 85.821 136.294C82.2862 136.294 79.0537 136.294 75.9841 136.503V138.829H76.9606C79.728 138.829 82.6117 138.666 85.7744 138.666C92.2161 138.643 98.7969 138.852 105.146 139.085Z" fill="#E0DFE6"></path> <path d="M133.904 149.248H82.882V151.573H133.904V149.248Z" fill="#E0DFE6"></path> <path d="M161.193 50.5059C138.171 39.0644 113.404 60.5056 94.4744 72.5285C85.1724 78.3655 76.0329 84.1561 66.9168 90.0861C57.8008 96.0162 47.0106 100.458 39.8015 108.527C37.8931 110.534 36.528 112.995 35.8357 115.676C35.1435 118.358 35.1469 121.171 35.8454 123.851C36.5439 126.531 37.9146 128.988 39.8276 130.991C41.7407 132.993 44.1329 134.474 46.7781 135.294C68.7542 142.154 96.1255 126.55 115.404 117.388C135.217 108.086 171.472 93.5279 170.891 67.5519C170.821 60.9241 167.403 53.5756 161.193 50.5059Z" fill="#D7DCE0"></path> <path d="M0.0698336 115.899C11.5114 115.899 17.3022 116.108 25.3485 116.41C28.9995 116.55 33.0688 116.713 38.2779 116.852V114.527C33.0688 114.387 28.9763 114.224 25.3485 114.085C17.3022 113.782 11.395 113.573 0 113.573C0 114.341 0 115.131 0 115.899H0.0698336Z" fill="#E0DFE6"></path> <path d="M52.7169 104.945C52.7169 109.852 50.9956 113.317 48.205 114.922C45.4144 116.526 41.5774 116.294 37.3217 113.829C32.8308 110.898 29.0956 106.949 26.4203 102.301C23.745 97.6539 22.2057 92.4404 21.9271 87.0852C21.9271 82.1784 23.6478 78.7134 26.4385 77.1088C29.2291 75.5042 33.066 75.7367 37.3217 78.1785C41.8073 81.0978 45.5399 85.0355 48.2152 89.6708C50.8905 94.3061 52.433 99.5078 52.7169 104.852V104.945Z" fill="white"></path> <path d="M44.1876 119.457C41.1332 119.36 38.1581 118.462 35.56 116.853C30.5365 113.618 26.3598 109.228 23.3783 104.049C20.3968 98.8712 18.6973 93.055 18.4213 87.0862C18.4213 81.0399 20.7467 76.412 24.6768 74.0865C28.6069 71.761 33.8159 72.1331 39.0483 75.1563C44.0599 78.3876 48.2289 82.7673 51.2096 87.9319C54.1903 93.0965 55.8969 98.8973 56.1876 104.853C56.1876 110.9 53.8617 115.527 49.9316 117.853C48.1933 118.888 46.2108 119.442 44.1876 119.457ZM28.1651 80.2259C26.3977 81.2491 25.3978 83.784 25.3978 87.2025C25.7017 91.9304 27.099 96.5233 29.48 100.619C31.8609 104.715 35.1602 108.203 39.1181 110.807C42.0716 112.527 44.769 112.923 46.5131 111.899C48.2573 110.876 49.2809 108.341 49.2809 104.923C49.1028 100.263 47.7592 95.7213 45.3737 91.714C43.0633 87.4637 39.7104 83.8707 35.6299 81.2724C32.63 79.598 29.9324 79.2027 28.1651 80.2259Z" fill="#3A3A3A"></path> <path d="M21.5436 108.481L23.4041 107.062C22.1716 105.481 21.3112 104.225 20.567 103.132C19.2526 101.038 17.691 99.1094 15.916 97.3881L14.3115 99.0857C16.0042 100.675 17.4886 102.472 18.7298 104.435C19.4042 105.69 20.2878 106.853 21.5436 108.481Z" fill="#E0DFE6"></path> <path d="M62.9574 105.109L30.4001 63.0637C29.6792 63.4125 29.005 63.7847 28.3074 64.1568L61.027 106.528L62.9574 105.109Z" fill="#E0DFE6"></path> <path d="M7.54215 103.132C6.83201 103.04 6.11299 103.04 5.40285 103.132L5.86784 105.458C6.3778 105.4 6.89309 105.4 7.40305 105.458H8.33303C9.02307 105.466 9.70849 105.348 10.3559 105.109L9.49579 102.946C8.86252 103.133 8.1992 103.196 7.54215 103.132Z" fill="#E0DFE6"></path> <path d="M65.4212 90.2719C69.7699 95.8996 73.7931 100.667 77.6767 104.853L79.3743 103.272C75.5372 99.1554 71.5839 94.4113 67.2584 88.8534C62.933 83.2954 58.6308 77.2257 54.5146 71.505C51.0031 66.6446 47.3982 61.668 43.7239 56.8309L41.5846 57.8309C45.3287 62.7843 49.0495 67.8772 52.6308 72.8771C56.7703 78.6211 61.0492 84.5744 65.4212 90.2719Z" fill="#E0DFE6"></path> <path d="M1.68831 105.69L1.08366 104.853L0.804889 106.341L1.68831 105.69Z" fill="#E0DFE6"></path> <path d="M26.6113 159.526L39.9365 176.758C41.3318 177.386 42.75 177.944 44.1685 178.455L28.448 158.084L26.6113 159.526Z" fill="#E0DFE6"></path> <path d="M41.7816 151.898C39.4561 148.782 37.1305 145.991 34.805 143.41L32.9916 144.875L33.6655 145.735C35.6422 148.061 37.6425 150.573 39.782 153.34C44.1074 158.944 48.363 164.851 52.4792 170.572C55.1303 174.246 57.8511 177.99 60.5952 181.735C61.5719 181.735 62.5487 181.735 63.5021 181.735C60.5487 177.525 46.0838 157.526 41.7816 151.898Z" fill="#E0DFE6"></path> <path d="M66.027 164.085C62.655 159.434 59.2827 155.015 55.8177 150.55C50.1242 143.035 44.0224 135.838 37.5394 128.993L35.8651 130.597C42.2815 137.392 48.3283 144.526 53.9804 151.969C57.4454 156.434 74.9101 179.573 74.9101 179.875C75.7007 179.643 76.4682 179.387 77.2356 179.108C76.9798 178.596 69.3757 168.62 66.027 164.085Z" fill="#E0DFE6"></path> <path d="M9.99481 151.596H22.6688V149.27H8.50673C8.99508 150.061 9.48319 150.828 9.99481 151.596Z" fill="#E0DFE6"></path> <path d="M30.4475 136.526C25.3546 136.991 19.7965 137.201 13.4479 137.201C9.98284 137.201 6.47129 137.201 2.95976 137.038C3.21556 137.828 3.49485 138.619 3.77391 139.363C7.00638 139.363 10.2386 139.503 13.4479 139.503C19.8663 139.503 25.4944 139.27 30.657 138.805L30.4475 136.526Z" fill="#E0DFE6"></path> <path d="M17.9812 161.502H18.6557L18.8419 159.177C17.8419 159.177 16.7952 159.177 15.7488 159.061C16.4697 159.782 17.2137 160.595 17.9812 161.502Z" fill="#E0DFE6"></path> <path d="M178.528 32.3204C178.528 37.2272 176.808 40.6689 174.017 42.2735L48.2063 114.993C50.9969 113.388 52.7182 109.923 52.7182 105.016C52.4343 99.6717 50.8918 94.4699 48.2165 89.8347C45.5412 85.1994 41.8086 81.2617 37.323 78.3423C33.0673 75.9006 29.2304 75.6681 26.4398 77.2727L152.25 4.62342C155.041 3.01881 158.878 3.25144 163.134 5.71648C167.619 8.63583 171.351 12.5735 174.027 17.2088C176.702 21.8441 178.244 27.0457 178.528 32.3901V32.3204Z" fill="white"></path> <path d="M48.19 118.411C47.4214 118.412 46.6743 118.159 46.0643 117.691C45.4543 117.224 45.0158 116.568 44.817 115.825C44.6181 115.083 44.6699 114.296 44.9646 113.586C45.2592 112.876 45.7797 112.283 46.4458 111.9L172.257 39.2504C174.024 38.2505 175.024 35.7157 175.024 32.2739C174.865 27.6032 173.52 23.0498 171.117 19.0417C168.814 14.7927 165.459 11.2057 161.373 8.62343C158.443 6.9258 155.745 6.53039 153.978 7.53036L28.1676 80.1796C27.3658 80.6422 26.4131 80.7673 25.519 80.5274C24.625 80.2875 23.8627 79.7023 23.4002 78.9005C22.9376 78.0987 22.8123 77.146 23.0521 76.2519C23.292 75.3579 23.8775 74.5958 24.6793 74.1332L150.489 1.50735C154.536 -0.818168 159.629 -0.446176 164.862 2.577C169.882 5.79841 174.059 10.1757 177.04 15.3424C180.022 20.5091 181.723 26.3149 182 32.2739C182 38.3202 179.675 42.9248 175.745 45.2503L49.9341 117.899C49.4115 118.229 48.8076 118.406 48.19 118.411Z" fill="#3A3A3A"></path> </svg> 