<?xml version="1.0" encoding="UTF-8"?> <svg xmlns="http://www.w3.org/2000/svg" width="170" height="101" viewBox="0 0 170 101" fill="none"> <path d="M142.625 17.2027C170.846 33.4479 174.025 58.7674 152.164 77.0782C149.184 74.5987 145.992 72.3855 142.625 70.4641C110.808 52.0837 59.2174 52.0837 27.4 70.4641C24.0332 72.3855 20.8415 74.5987 17.8617 77.0782C-3.99976 58.7674 -0.704328 33.4944 27.4 17.2027C59.0782 -1.17765 110.738 -1.17765 142.625 17.2027Z" fill="#3A3A3A"></path> <path d="M152.112 77.0781C149.133 79.5653 145.941 81.7862 142.574 83.7154C110.756 102.073 59.1659 102.073 27.3484 83.7154C23.9809 81.7862 20.7893 79.5653 17.8102 77.0781C20.79 74.5986 23.9816 72.3854 27.3484 70.464C59.1659 52.0836 110.756 52.0836 142.574 70.464C145.941 72.3854 149.132 74.5986 152.112 77.0781Z" fill="#D7DCE0"></path> <path d="M84.9211 100.889C63.431 100.889 41.9407 96.2473 25.5794 86.709C22.0321 84.6874 18.6697 82.3577 15.5307 79.7468C4.57672 70.4638 -0.900283 59.1616 0.120847 47.7203C1.23481 34.933 10.2857 23.0044 25.6491 14.1856C58.3717 -4.72853 111.517 -4.72853 144.356 14.1856C159.649 23.0044 168.7 34.933 169.884 47.7203C170.882 59.1616 165.405 70.5334 154.451 79.7468C151.308 82.353 147.946 84.6824 144.402 86.709C127.925 96.1777 106.411 100.889 84.9211 100.889ZM19.9401 74.4089C22.7612 76.7673 25.7907 78.8645 28.9911 80.6748C59.7875 98.475 109.915 98.475 140.735 80.6748C143.917 78.8374 146.937 76.7336 149.763 74.3857C159.046 66.5648 163.548 57.5603 162.736 48.3005C161.808 37.8339 154.01 27.8547 140.735 20.1962C109.915 2.39609 59.7875 2.39609 28.9911 20.1962C15.7164 27.8547 7.89553 37.8339 6.96723 48.3005C6.2478 57.5835 10.7268 66.588 20.0098 74.4089H19.9401Z" fill="#3A3A3A"></path> <path d="M152.105 80.5122C151.256 80.5221 150.432 80.2255 149.784 79.6768C146.967 77.3318 143.945 75.2425 140.757 73.4338C109.937 55.6337 59.8091 55.6337 29.0128 73.4338C25.8241 75.2425 22.8028 77.3318 19.985 79.6768C19.6239 79.9572 19.2109 80.1636 18.77 80.2844C18.329 80.4053 17.8686 80.4382 17.415 80.381C16.9613 80.3239 16.5235 80.1779 16.1263 79.9516C15.729 79.7252 15.3803 79.4229 15.0999 79.0617C14.8195 78.7006 14.6128 78.2876 14.4919 77.8467C14.3711 77.4057 14.3385 76.9453 14.3956 76.4917C14.4527 76.0381 14.5984 75.6002 14.8248 75.203C15.0512 74.8057 15.3535 74.457 15.7146 74.1766C18.7831 71.6359 22.0681 69.3683 25.5316 67.3999C58.2542 48.4858 111.399 48.4858 144.238 67.3999C147.74 69.4232 151.057 71.753 154.147 74.3622C154.575 74.684 154.922 75.1014 155.159 75.5809C155.397 76.0604 155.52 76.5888 155.517 77.124C155.493 78.0192 155.125 78.8707 154.49 79.5017C153.855 80.1327 153 80.4946 152.105 80.5122Z" fill="#3A3A3A"></path> </svg> 