<?xml version="1.0" encoding="UTF-8"?> <svg xmlns="http://www.w3.org/2000/svg" width="169" height="177" viewBox="0 0 169 177" fill="none"> <path d="M59.8528 174.011C54.8025 174.475 49.2655 174.683 42.9179 174.683H41.1108C41.9912 175.517 42.9177 176.259 43.8443 177C49.8676 177 55.2191 176.745 60.061 176.305L59.8528 174.011Z" fill="#E0DFE6"></path> <path d="M41.5344 165.74C44.5924 165.74 46.9788 165.88 49.2954 166.019C53.5685 166.373 57.8654 166.326 62.1298 165.88L61.8747 163.563C57.7414 163.998 53.5766 164.045 49.4346 163.702C47.1179 163.702 44.6619 163.424 41.5344 163.424C36.4377 163.424 22.3527 163.192 20.3835 163.146C21.3334 163.957 22.3296 164.767 23.3257 165.462C24.2987 165.532 36.5072 165.74 41.5344 165.74Z" fill="#E0DFE6"></path> <path d="M54.8051 153.972C58.4423 154.111 62.4966 154.273 67.7091 154.412V152.095C62.4966 151.956 58.4423 151.794 54.8283 151.655C46.8127 151.354 40.9286 151.145 29.5769 151.145C22.6269 151.145 16.0474 151.145 9.67658 151.331C10.2094 152.095 10.7422 152.86 11.3213 153.647C17.1825 153.647 23.2524 153.485 29.5769 153.485C41.1139 153.462 46.8126 153.67 54.8051 153.972Z" fill="#E0DFE6"></path> <path d="M41.5344 68.4415C44.5924 68.4415 46.9787 68.5808 49.2954 68.7198C53.5685 69.074 57.8654 69.0273 62.1298 68.5807L61.8747 66.264C57.7413 66.6989 53.5766 66.7456 49.4345 66.4031C47.1179 66.4031 44.6619 66.1249 41.5344 66.1249C38.4069 66.1249 35.5809 66.1249 32.6156 66.1249C31.3877 66.843 30.1829 67.6075 29.0014 68.4415C33.1714 68.3952 37.3412 68.4415 41.5344 68.4415Z" fill="#E0DFE6"></path> <path d="M46.5652 108.542H41.9318C33.979 108.275 26.0171 108.507 18.0933 109.237L18.4174 111.553C26.2268 110.853 34.072 110.629 41.9086 110.881H46.542L46.5652 108.542Z" fill="#E0DFE6"></path> <path d="M36.6661 132.474C37.9934 132.404 39.3233 132.404 40.6507 132.474L40.8124 130.157C39.3297 130.157 38.0097 130.157 36.5965 130.157C35.1833 130.157 33.8858 130.157 32.2873 130.157C30.7833 130.052 29.2739 130.052 27.7699 130.157L28.025 132.474C29.4292 132.391 30.8367 132.391 32.2409 132.474C33.8857 132.543 35.3224 132.52 36.6661 132.474Z" fill="#E0DFE6"></path> <path d="M43.0502 118.249C40.7335 118.249 32.2774 118.249 29.3815 118.249C28.5707 118.249 27.8062 118.249 27.0649 118.249C26.3235 118.249 24.7483 118.388 23.1035 118.249V120.566H24.4473C25.5593 120.566 26.4628 120.566 27.2968 120.566C28.1308 120.566 28.7794 120.566 29.6134 120.566C32.5093 120.566 40.9882 120.566 43.5134 120.566L43.0502 118.249Z" fill="#E0DFE6"></path> <path d="M37.6137 143.06C38.8178 143.162 40.0306 143.068 41.2046 142.782L40.5791 140.465C39.6367 140.674 38.6679 140.736 37.7065 140.65C36.8202 140.57 35.9282 140.57 35.042 140.65L35.3666 142.967C36.1169 142.929 36.8691 142.96 37.6137 143.06Z" fill="#E0DFE6"></path> <path d="M12.7185 138.936C8.61796 134.674 4.49432 129.948 0 124.411C0.139 125.87 0.324333 127.307 0.579166 128.743C4.21633 133.121 7.64503 136.99 11.0505 140.535L12.7185 138.936Z" fill="#E0DFE6"></path> <path d="M71.4915 132.242C68.6883 129.184 65.7924 126.01 63.244 122.72C60.6957 119.431 57.9157 116.164 55.1125 113.152L53.4214 114.728C56.1782 117.693 59.0971 121.122 61.4138 124.133C64.0316 127.516 66.9509 130.713 69.7772 133.794C72.6035 136.875 75.4757 140.026 78.0241 143.339C79.0666 144.682 79.9931 145.956 80.8271 147.254L82.7733 145.98C81.893 144.636 80.9432 143.315 79.8543 141.925C77.2597 138.659 74.3178 135.346 71.4915 132.242Z" fill="#E0DFE6"></path> <path d="M30.4009 143.292C19.5358 128.327 10.292 115.886 1.72034 104.65C1.4655 105.623 1.21054 106.596 1.00204 107.569C9.27252 118.388 18.1457 130.365 28.5475 144.636L30.4009 143.292Z" fill="#E0DFE6"></path> <path d="M53.1989 145.609L55.3301 144.682C53.2719 140.834 50.3451 137.518 46.7817 134.998L45.577 136.968C48.7284 139.246 51.3322 142.198 53.1989 145.609Z" fill="#E0DFE6"></path> <path d="M54.8179 56.6723C58.4551 56.8113 62.5094 56.9736 67.7219 57.1126V54.7959C64.2932 54.7959 61.3977 54.6106 58.7567 54.4947C56.7875 55.1666 54.8183 55.8845 52.8491 56.6027L54.8179 56.6723Z" fill="#E0DFE6"></path> <path d="M20.9273 100.295C17.384 100.328 13.848 99.9629 10.3864 99.2058L9.87679 101.522C13.5051 102.32 17.2126 102.701 20.9273 102.658C24.773 102.658 28.6881 102.333 32.5106 102.009C37.727 101.457 42.9778 101.302 48.2177 101.546L48.3794 99.229C43.0239 98.9843 37.6577 99.1393 32.3251 99.6925C28.549 99.9705 24.6803 100.295 20.9273 100.295Z" fill="#E0DFE6"></path> <path d="M59.6352 98.4726L57.8017 99.8886L92.1835 144.406L94.017 142.99L59.6352 98.4726Z" fill="#E0DFE6"></path> <path d="M69.7358 145.007C66.3766 140.674 61.3494 134.975 56.9246 129.925L52.2912 124.574L50.5305 126.103L55.1639 131.454C59.5655 136.458 64.5695 142.157 67.8823 146.42L69.7358 145.007Z" fill="#E0DFE6"></path> <path d="M16.0033 79.0271L23.4861 79.2587C29.88 79.4672 36.4597 79.699 42.9232 79.699C49.3867 79.699 54.9464 79.4672 60.0662 79.0039L59.8581 76.6873C54.8078 77.1506 49.2708 77.3592 42.9232 77.3592C36.5755 77.3592 29.9265 77.1274 23.5788 76.9189L18.2736 76.7568C17.5091 77.4982 16.7446 78.2394 16.0033 79.0271Z" fill="#E0DFE6"></path> <path d="M52.1452 89.4061H8.12859C7.85059 89.8462 7.57236 90.2402 7.31753 90.6804L6.78474 91.7227H52.0988L52.1452 89.4061Z" fill="#E0DFE6"></path> <path d="M164.009 89.5682C166.905 93.4834 163.407 102.588 157.777 105.785L79.3348 151.052C78.6101 151.588 77.7554 151.92 76.8592 152.013C75.963 152.107 75.0581 151.959 74.2383 151.585H74.0528C71.9909 150.241 71.3425 146.581 73.1263 142.087L112.347 43.791C114.826 37.536 120.432 33.7597 123.675 35.5899C124.115 35.8459 124.495 36.1934 124.788 36.6091L164.009 89.5682Z" fill="#3A3A3A"></path> <path d="M68.9421 3.94446L123.662 35.5438C120.442 33.6904 114.812 37.4899 112.333 43.7448L73.1122 142.041C71.3284 146.535 71.9768 150.196 74.0386 151.539L19.5275 120.125C17.2109 118.851 16.5854 115.121 18.4156 110.511L57.6371 12.2151C60.1391 5.89061 65.7683 2.09113 68.9421 3.94446Z" fill="white"></path> <path d="M76.1408 155.616C74.8736 155.623 73.6269 155.295 72.5267 154.666L72.3412 154.55C68.4492 152.025 67.5689 146.651 70.0245 140.766L109.245 42.4472C110.069 40.1575 111.357 38.0625 113.027 36.2927C114.697 34.5229 116.715 33.1165 118.953 32.1613C120.011 31.7444 121.147 31.5614 122.283 31.6254C123.419 31.6894 124.527 31.9986 125.532 32.5318C126.393 33.0208 127.137 33.6933 127.71 34.5012L166.931 87.5064C167.77 88.7887 168.329 90.233 168.572 91.7458C168.816 93.2586 168.738 94.8057 168.344 96.2864C167.814 98.856 166.772 101.292 165.28 103.45C163.787 105.607 161.874 107.442 159.656 108.843L81.2142 154.134C79.6917 155.085 77.9362 155.598 76.1408 155.616ZM76.0017 148.666C76.5853 148.666 77.1534 148.479 77.6232 148.133L156.066 102.866C158.81 100.998 160.726 98.1432 161.417 94.8964C161.743 93.8355 161.677 92.6928 161.232 91.6762L122.01 38.6478C121.176 38.3235 117.539 40.1768 115.593 45.0418L76.3721 143.292C75.0517 146.604 75.7005 148.435 76.0017 148.643V148.666Z" fill="#3A3A3A"></path> <path d="M74.2731 155.13C73.6637 155.128 73.0653 154.968 72.5356 154.667L17.7926 123.068C13.8311 120.751 12.7889 115.191 15.1982 109.168L54.4192 10.8485C55.2481 8.55158 56.5423 6.4504 58.2205 4.67652C59.8987 2.90263 61.9247 1.49434 64.1722 0.539499C65.2241 0.125362 66.3542 -0.0539625 67.4826 0.0140644C68.6111 0.0820914 69.7108 0.395929 70.7054 0.933433L125.448 32.5325C126.247 32.9933 126.83 33.7526 127.069 34.6432C127.308 35.5339 127.183 36.483 126.722 37.2817C126.261 38.0805 125.502 38.6635 124.611 38.9024C123.721 39.1414 122.772 39.0168 121.973 38.556L67.2536 6.9567C66.4659 6.70187 62.8055 8.60136 60.8595 13.4432L21.6618 111.739C20.3645 114.983 20.9896 116.836 21.2676 117.045L76.0106 148.644C76.6742 149.026 77.1927 149.616 77.4862 150.323C77.7797 151.031 77.8314 151.815 77.6333 152.554C77.4352 153.294 76.9984 153.948 76.3907 154.413C75.783 154.879 75.0388 155.131 74.2731 155.13Z" fill="#3A3A3A"></path> </svg> 