<?xml version="1.0" encoding="UTF-8"?> <svg xmlns="http://www.w3.org/2000/svg" width="250" height="177" viewBox="0 0 250 177" fill="none"> <path d="M169.314 48.4914C168.498 48.3835 167.672 48.3835 166.856 48.4914L167.369 51.1929C167.961 51.1253 168.56 51.1253 169.152 51.1929H170.233C171.034 51.2024 171.83 51.065 172.582 50.7876L171.583 48.2753C170.848 48.493 170.077 48.5665 169.314 48.4914Z" fill="#E0DFE6"></path> <path d="M178.967 41.8182L177.103 43.7902C179.069 45.6364 180.793 47.7243 182.235 50.0037C183.154 51.3274 184.153 52.7051 185.639 54.7042L187.773 53.0563C186.342 51.2193 185.342 49.7606 184.478 48.4909C182.917 46.0521 181.067 43.8115 178.967 41.8182Z" fill="#E0DFE6"></path> <path d="M174.932 13.642H180.335V10.9405H174.932C165.658 10.6298 156.374 10.9005 147.134 11.7509L147.54 14.4524C156.646 13.6261 165.793 13.3555 174.932 13.642Z" fill="#E0DFE6"></path> <path d="M186.936 18.5865C189.313 21.6932 195.878 29.2301 202.091 36.3619C202.091 35.4975 201.902 34.633 201.794 33.6605C201.686 32.6879 201.47 32.0126 201.281 31.1752C196.04 25.178 191.042 19.3969 189.07 16.8305L186.936 18.5865Z" fill="#E0DFE6"></path> <path d="M157.699 25.0422C158.617 25.0422 159.428 25.0422 160.4 25.0422C163.804 25.0422 173.664 25.0422 176.609 25.0422V22.3408C173.772 22.3408 164.02 22.3408 160.67 22.3408C159.725 22.3408 158.833 22.3408 157.969 22.3408C157.104 22.3408 155.267 22.5029 153.349 22.3408V25.0422H154.916C155.7 25.1503 156.753 25.0962 157.699 25.0422Z" fill="#E0DFE6"></path> <path d="M215.16 51.4635C216.375 53.0304 217.457 54.5432 218.429 56.029L220.698 54.5432C219.671 53.0034 218.564 51.4366 217.294 49.8157C216.835 49.1943 215.97 48.1408 214.809 46.8171C213.242 46.2768 211.675 45.8446 210.081 45.4393C212.513 48.3299 214.43 50.545 215.16 51.4635Z" fill="#E0DFE6"></path> <path d="M163.674 38.9006C165.619 38.9006 167.293 38.9006 168.86 38.9006C170.408 38.8195 171.959 38.8195 173.507 38.9006L173.669 36.1991C171.967 36.1991 170.4 36.1991 168.752 36.1991C167.104 36.1991 165.619 36.1991 163.728 36.1991C161.983 36.0759 160.231 36.0759 158.486 36.1991L158.757 38.9006C160.394 38.8044 162.036 38.8044 163.674 38.9006Z" fill="#E0DFE6"></path> <path d="M137.55 2.67441C141.778 3.6246 146.102 4.07791 150.436 4.02514C154.947 4.02514 159.513 3.64685 163.943 3.26865C168.373 2.89045 173.074 2.56641 177.45 2.56641C175.82 1.62559 174.144 0.768975 172.426 0C169.508 0 166.564 0.351083 163.727 0.567199C159.378 0.945403 154.893 1.32368 150.49 1.32368C146.367 1.36286 142.253 0.936856 138.225 0.0539169L137.55 2.67441Z" fill="#E0DFE6"></path> <path d="M203.309 55.1089L205.443 53.4611C199.99 45.7311 193.52 38.7709 186.209 32.768L184.615 34.9562C191.909 40.2781 197.906 48.1662 203.309 55.1089Z" fill="#E0DFE6"></path> <path d="M160.328 52.9217L162.515 51.3279C148.225 31.6884 136.365 15.7497 125.316 1.40499C124.542 1.83722 123.759 2.29649 122.966 2.78275C134.069 17.1815 145.983 33.1741 160.328 52.9217Z" fill="#E0DFE6"></path> <path d="M77.2463 53.462C76.6519 52.6785 75.9496 51.8141 75.2472 50.9496L73.167 52.6516C73.8694 53.516 74.5177 54.3264 75.112 55.1098L77.2463 53.462Z" fill="#E0DFE6"></path> <path d="M103.348 52.4358L105.482 50.7879L92.5418 34.0389L90.678 36.065L103.348 52.4358Z" fill="#E0DFE6"></path> <path d="M122.573 50.4901L124.545 48.6532C120.088 43.8446 115.468 38.3606 110.47 31.9041C108.021 28.6984 105.58 25.4387 103.149 22.1249C102.528 22.8002 101.934 23.5026 101.339 24.178C103.635 27.3387 105.986 30.4723 108.336 33.552C113.388 40.0895 118.034 45.6275 122.573 50.4901Z" fill="#E0DFE6"></path> <path d="M81.7291 45.1955C83.5661 47.2486 85.3491 49.3558 87.132 51.517C88.3477 53.0838 89.4282 54.5696 90.4007 56.0824L92.6701 54.5965C91.6436 53.0297 90.536 51.4898 89.2663 49.869C87.5374 47.5997 85.6734 45.4386 83.8634 43.3044L82.4586 44.6822L81.7291 45.1955Z" fill="#E0DFE6"></path> <path d="M110.896 12.8326C113.598 16.3174 116.083 19.7752 118.73 23.206C125.351 31.9379 132.449 40.2981 139.991 48.2486L141.936 46.3845C134.465 38.4991 127.431 30.2113 120.864 21.5582C118.127 17.9563 115.425 14.3993 112.76 10.8874L110.896 12.8326Z" fill="#E0DFE6"></path> <path d="M130.12 174.461C132.572 175.452 135.08 176.3 137.631 177C145.033 176.838 171.534 176.838 175.802 177C178.633 176.321 181.428 175.501 184.177 174.542C177.423 174.326 171.021 174.164 160.647 174.164C150.273 174.164 139.819 174.218 130.12 174.461Z" fill="#E0DFE6"></path> <path d="M189.07 130.399L186.936 132.047C189.637 135.424 197.12 144.122 203.82 151.795C206.521 154.928 209.223 157.927 211.276 160.358L213.464 158.737L205.873 150.012C199.2 142.366 191.609 133.722 189.07 130.399Z" fill="#E0DFE6"></path> <path d="M208.7 64.1061C221.208 78.4778 234.039 94.1733 247.871 111.976C248.195 110.868 248.438 109.761 248.709 108.626C235.201 91.4717 222.882 76.2086 210.726 62.3232L208.7 64.1061Z" fill="#E0DFE6"></path> <path d="M238.772 78.4783C241.545 78.1901 244.436 77.9469 247.444 77.7488C247.147 76.8573 246.768 75.9929 246.417 75.0474C243.715 75.2365 241.014 75.4796 238.475 75.7498L238.772 78.4783Z" fill="#E0DFE6"></path> <path d="M202.182 80.3964C209.636 88.2896 216.66 96.577 223.226 105.223C227.251 110.41 238.841 125.997 240.759 128.536C241.245 127.672 241.731 126.807 242.19 125.835C240.542 123.62 229.385 108.654 225.36 103.467C218.746 94.7367 211.658 86.3766 204.127 78.4242L202.182 80.3964Z" fill="#E0DFE6"></path> <path d="M199.033 96.983L199.817 97.9825C202.086 100.684 204.41 103.602 206.922 106.816C211.92 113.327 216.863 120.189 221.645 126.834C225.022 131.508 228.479 136.289 232.018 141.017L233.747 138.829C230.397 134.317 214.107 111.814 209.056 105.168C206.354 101.548 203.653 98.3067 200.951 95.3081L199.033 96.983Z" fill="#E0DFE6"></path> <path d="M120.784 89.9852C123.999 89.9852 127.349 89.7961 131.023 89.7961C138.452 89.7961 146.097 90.0392 153.472 90.3094C160.847 90.5795 168.6 90.8227 176.137 90.8227C183.674 90.8227 190.131 90.5525 196.128 90.0123L195.885 87.3108C189.969 87.8511 183.512 88.0942 176.137 88.0942C168.762 88.0942 160.982 87.824 153.553 87.5809C146.124 87.3378 138.506 87.0676 131.023 87.0676C126.89 87.0676 123.162 87.0677 119.569 87.3108V90.0123L120.784 89.9852Z" fill="#E0DFE6"></path> <path d="M191.465 114.001L221.181 152.416L223.18 150.579L193.653 112.327L191.465 114.001Z" fill="#E0DFE6"></path> <path d="M156.676 77.423C162.592 77.423 168.535 77.6391 174.479 77.6391C178.072 77.6391 180.854 77.8012 183.528 77.9633C188.52 78.3763 193.54 78.322 198.521 77.8012L198.224 75.0998C193.396 75.607 188.529 75.6613 183.69 75.2618C180.989 75.2618 178.288 74.9377 174.479 74.9377C168.562 74.9377 144.762 74.5055 138.927 74.5055C129.004 74.4209 119.084 74.8807 109.211 75.8831L109.481 78.5846C119.247 77.6073 129.059 77.1564 138.873 77.2338C144.843 77.2068 150.76 77.3149 156.676 77.423Z" fill="#E0DFE6"></path> <path d="M186.904 102.062H127.635V104.763H186.904V102.062Z" fill="#E0DFE6"></path> <path d="M163.916 116.73C169.99 116.086 176.104 115.906 182.205 116.19L182.421 113.488C176.167 113.203 169.901 113.383 163.673 114.028C159.324 114.407 154.839 114.785 150.436 114.785C146.313 114.824 142.198 114.398 138.171 113.515L137.55 116.216C141.778 117.167 146.102 117.62 150.436 117.567C154.947 117.486 159.513 117.108 163.916 116.73Z" fill="#E0DFE6"></path> <path d="M101.5 64.9702C119.573 63.9166 138.915 63.4033 160.635 63.4033C173.926 63.4033 180.653 63.6465 190 63.9977C194.241 64.1598 198.968 64.3489 205.02 64.511V61.8095C198.968 61.6474 194.214 61.4583 190 61.2962C180.653 60.945 173.791 60.7018 160.554 60.7018C138.78 60.7018 119.384 61.2152 101.257 62.2957L101.5 64.9702Z" fill="#E0DFE6"></path> <path d="M230.71 64.9704L240.138 64.4842C239.462 63.5927 238.734 62.7282 237.977 61.7827C235.465 61.7827 233.006 62.0258 230.548 62.1878L230.71 64.9704Z" fill="#E0DFE6"></path> <path d="M174.932 127.103H180.335V124.402H174.932C165.658 124.091 156.374 124.362 147.134 125.212L147.54 127.914C156.646 127.087 165.793 126.817 174.932 127.103Z" fill="#E0DFE6"></path> <path d="M178.967 155.279L177.103 157.252C179.069 159.098 180.793 161.185 182.235 163.465C183.154 164.789 184.153 166.166 185.639 168.165L187.773 166.517C186.342 164.68 185.342 163.222 184.478 161.952C182.917 159.513 181.067 157.273 178.967 155.279Z" fill="#E0DFE6"></path> <path d="M163.674 152.361C165.619 152.361 167.293 152.361 168.86 152.361C170.408 152.28 171.959 152.28 173.507 152.361L173.669 149.66C171.967 149.66 170.4 149.66 168.752 149.66C167.104 149.66 165.619 149.66 163.728 149.66C161.983 149.537 160.231 149.537 158.486 149.66L158.757 152.361C160.394 152.265 162.036 152.265 163.674 152.361Z" fill="#E0DFE6"></path> <path d="M157.699 138.504C158.617 138.504 159.428 138.504 160.4 138.504C163.804 138.504 173.664 138.504 176.609 138.504V135.802C173.772 135.802 164.02 135.802 160.67 135.802C159.725 135.802 158.833 135.802 157.969 135.802C157.104 135.802 155.267 135.964 153.349 135.802V138.504H154.916C155.7 138.612 156.753 138.558 157.699 138.504Z" fill="#E0DFE6"></path> <path d="M169.314 161.952C168.497 161.859 167.672 161.859 166.856 161.952L167.369 164.654C167.961 164.586 168.56 164.586 169.152 164.654H170.233C171.034 164.663 171.83 164.526 172.582 164.249L171.583 161.736C170.848 161.954 170.077 162.027 169.314 161.952Z" fill="#E0DFE6"></path> <path d="M249.994 89.9854C249.994 89.0669 249.777 88.1484 249.642 87.284H248.805V89.9854H249.994Z" fill="#E0DFE6"></path> <path d="M186.236 146.23L184.643 148.418C191.111 153.649 196.845 159.727 201.688 166.491L204.039 165.086C198.981 158.028 192.992 151.685 186.236 146.23Z" fill="#E0DFE6"></path> <path d="M95.0103 105.222C99.0355 110.409 114.677 131.453 118.702 136.667C125.323 145.399 132.421 153.759 139.963 161.71L141.908 159.846C134.437 151.96 127.403 143.672 120.836 135.019C116.838 129.832 101.17 108.761 97.1446 103.574C90.5307 94.8443 83.4426 86.4843 75.9115 78.5319L73.9395 80.3959C81.4103 88.2813 88.4441 96.5692 95.0103 105.222Z" fill="#E0DFE6"></path> <path d="M27.6891 138.504C28.5805 138.504 29.391 138.504 30.3905 138.504C33.7673 138.504 43.6276 138.504 46.5992 138.504V135.802C43.7627 135.802 34.0107 135.802 30.6609 135.802C29.7154 135.802 28.8239 135.802 27.9595 135.802C27.095 135.802 25.2575 135.964 23.3394 135.802V138.504H24.9065C25.5548 138.612 26.6085 138.558 27.6891 138.504Z" fill="#E0DFE6"></path> <path d="M44.84 127.104H50.2429V124.402H44.84C35.5662 124.091 26.2819 124.362 17.042 125.212L17.4199 127.914C26.5349 127.088 35.6921 126.817 44.84 127.104Z" fill="#E0DFE6"></path> <path d="M25.5426 156.819C16.1956 144.014 7.8482 132.83 0.0139873 122.537C-0.0309423 124.107 0.0324257 125.677 0.203274 127.238C6.63273 135.72 13.4402 144.878 20.8962 155.036C22.4116 155.714 23.9627 156.309 25.5426 156.819Z" fill="#E0DFE6"></path> <path d="M44.346 77.6401C47.9389 77.6401 50.7217 77.8022 53.4231 77.9643C58.406 78.3772 63.4166 78.3229 68.3893 77.8022L68.0918 75.1008C63.2719 75.6079 58.4154 75.6622 53.5854 75.2629C50.8839 75.2629 48.02 74.9387 44.346 74.9387H41.4559L37.6194 77.6401H44.346Z" fill="#E0DFE6"></path> <path d="M46.0071 90.7684C53.4901 90.7684 60.0273 90.4983 65.9975 89.958L65.7548 87.2566C59.8657 87.7969 53.409 88.0399 46.0071 88.0399C38.6051 88.0399 31.365 87.7968 24.2062 87.5537C23.1256 88.4181 22.0452 89.2556 20.9916 90.2551H23.3415C30.7705 90.4983 38.497 90.7684 46.0071 90.7684Z" fill="#E0DFE6"></path> <path d="M69.7054 140.935C67.004 137.342 63.492 133.29 60.2233 129.778L58.2242 131.615C61.439 135.073 64.8427 139.071 67.5712 142.583C70.6238 146.527 74.0279 150.255 77.3237 153.848L80.5383 157.414L83.4824 156.658C82.1047 155.091 80.7815 153.551 79.3227 152.038C76.054 148.472 72.677 144.771 69.7054 140.935Z" fill="#E0DFE6"></path> <path d="M33.7968 116.73C39.8706 116.086 45.9846 115.906 52.0857 116.189L52.3021 113.488C46.0479 113.203 39.7808 113.383 33.5535 114.028C29.2312 114.406 24.72 114.785 20.3166 114.785C16.1937 114.824 12.0794 114.398 8.05193 113.515L7.45769 116.216C11.6764 117.168 15.9922 117.621 20.3166 117.567C24.8281 117.486 29.3935 117.108 33.7968 116.73Z" fill="#E0DFE6"></path> <path d="M56.5917 160.736C54.8264 158.58 52.7613 156.688 50.4593 155.117L49.0815 157.414C50.4848 158.358 51.7728 159.464 52.9181 160.709H55.6195L56.5917 160.736Z" fill="#E0DFE6"></path> <path d="M56.7729 102.088H7.66072C6.93616 102.95 6.25977 103.852 5.63464 104.789H56.7729V102.088Z" fill="#E0DFE6"></path> <path d="M33.6067 149.661C31.8619 149.538 30.1108 149.538 28.3661 149.661L28.6635 152.362C30.301 152.266 31.9422 152.266 33.5797 152.362C35.4977 152.362 37.173 152.362 38.7399 152.362C40.2876 152.281 41.8385 152.281 43.3863 152.362L43.5485 149.661C41.8466 149.661 40.2796 149.661 38.6317 149.661C36.9838 149.661 35.4977 149.688 33.6067 149.661Z" fill="#E0DFE6"></path> <path d="M62.3377 149.337L56.9348 143.097L54.8816 144.88C56.4755 146.717 65.525 156.982 68.0374 159.9L71.1715 159.413C68.2269 156.091 65.2012 152.606 62.3377 149.337Z" fill="#E0DFE6"></path> <path d="M63.2509 114.001L93.7233 153.443L96.4248 152.497L65.5203 112.327L63.2509 114.001Z" fill="#E0DFE6"></path> <path d="M80.5141 64.1061C93.6702 79.2342 107.232 95.8212 121.901 114.839C133.328 129.616 145.538 145.987 160.342 166.383L162.53 164.789C147.699 144.393 135.515 127.995 124.061 113.191C109.338 94.1462 95.7503 77.5053 82.5402 62.3232L80.5141 64.1061Z" fill="#E0DFE6"></path> <path d="M70.9014 96.983L71.685 97.9825C73.9812 100.684 76.3041 103.602 78.7895 106.816C83.8142 113.327 88.7577 120.189 93.5393 126.834C98.3209 133.48 103.292 140.341 108.397 147.041C113.503 153.741 118.096 159.116 122.634 163.979L124.606 162.142C120.149 157.333 115.529 151.85 110.532 145.393C105.534 138.937 100.509 131.886 95.7276 125.24C90.946 118.595 85.9754 111.733 80.9237 105.168C78.2223 101.548 75.521 98.3067 72.9816 95.3081L70.9014 96.983Z" fill="#E0DFE6"></path> <path d="M57.395 63.8356C58.2054 63.8356 68.822 64.2678 74.8733 64.4298V61.7284L61.0422 61.2692C59.9346 61.9986 58.8534 62.755 57.7729 63.5114L57.395 63.8356Z" fill="#E0DFE6"></path> <path d="M216.791 135.829C216.08 135.832 215.381 135.646 214.765 135.289L118.783 79.882C118.165 79.5267 117.653 79.0149 117.296 78.3983C116.94 77.7818 116.752 77.0821 116.752 76.3699C116.752 75.6578 116.94 74.9583 117.296 74.3417C117.653 73.7252 118.165 73.2134 118.783 72.8581L214.765 17.4513C215.697 16.9139 216.804 16.7687 217.842 17.0473C218.881 17.326 219.766 18.0058 220.303 18.9372C220.841 19.8686 220.986 20.9754 220.707 22.0139C220.428 23.0525 219.749 23.9378 218.818 24.4752L128.913 76.3699L218.818 128.265C219.591 128.71 220.197 129.399 220.539 130.224C220.881 131.048 220.941 131.963 220.71 132.825C220.479 133.688 219.97 134.45 219.261 134.993C218.553 135.536 217.684 135.83 216.791 135.829Z" fill="#3A3A3A"></path> <path d="M216.787 48.4917C215.715 48.4846 214.688 48.0554 213.929 47.297C213.171 46.5386 212.742 45.5121 212.735 44.4395V25.0161H176.265C175.191 25.0161 174.16 24.589 173.4 23.8291C172.64 23.0692 172.213 22.0386 172.213 20.9639C172.213 19.8892 172.64 18.8585 173.4 18.0986C174.16 17.3386 175.191 16.9117 176.265 16.9117H216.787C217.862 16.9117 218.892 17.3386 219.652 18.0986C220.412 18.8585 220.839 19.8892 220.839 20.9639V44.4395C220.839 45.5142 220.412 46.5448 219.652 47.3047C218.892 48.0647 217.862 48.4917 216.787 48.4917Z" fill="#3A3A3A"></path> <path d="M216.787 135.828H176.265C175.191 135.828 174.16 135.401 173.4 134.642C172.64 133.882 172.213 132.851 172.213 131.776C172.213 130.701 172.64 129.671 173.4 128.911C174.16 128.151 175.191 127.724 176.265 127.724H212.87V108.193C212.87 107.118 213.297 106.087 214.057 105.327C214.817 104.567 215.848 104.14 216.922 104.14C217.997 104.14 219.027 104.567 219.787 105.327C220.547 106.087 220.975 107.118 220.975 108.193V131.668C220.99 132.221 220.891 132.771 220.686 133.284C220.48 133.798 220.172 134.263 219.78 134.653C219.387 135.043 218.92 135.348 218.405 135.55C217.89 135.752 217.34 135.847 216.787 135.828Z" fill="#3A3A3A"></path> <path d="M27.6999 134.181C26.8071 134.182 25.9386 133.888 25.23 133.345C24.5213 132.802 24.012 132.04 23.781 131.177C23.5499 130.315 23.6102 129.4 23.9524 128.576C24.2947 127.751 24.9 127.062 25.6738 126.617L112.715 76.3698L25.6738 26.1229C25.2126 25.8568 24.8083 25.5024 24.484 25.0801C24.1598 24.6578 23.9222 24.1759 23.7843 23.6616C23.6463 23.1474 23.6107 22.6109 23.68 22.083C23.7494 21.5551 23.9218 21.0461 24.1879 20.5849C24.454 20.1237 24.8083 19.7194 25.2306 19.3951C25.6529 19.0709 26.135 18.833 26.6493 18.695C27.1635 18.5571 27.6996 18.5218 28.2275 18.5911C28.7554 18.6605 29.2648 18.8331 29.726 19.0991L122.845 72.8579C123.462 73.2132 123.975 73.725 124.332 74.3416C124.688 74.9581 124.876 75.6576 124.876 76.3698C124.876 77.082 124.688 77.7817 124.332 78.3982C123.975 79.0147 123.462 79.5265 122.845 79.8818L29.726 133.641C29.1134 134.004 28.4122 134.191 27.6999 134.181Z" fill="#3A3A3A"></path> <path d="M27.6951 50.139C26.6204 50.139 25.59 49.7121 24.8301 48.9522C24.0702 48.1923 23.6429 47.1616 23.6429 46.0868V22.6112C23.6429 21.5365 24.0702 20.5058 24.8301 19.7459C25.59 18.986 26.6204 18.559 27.6951 18.559H68.3521C69.4268 18.559 70.4572 18.986 71.2171 19.7459C71.9771 20.5058 72.4043 21.5365 72.4043 22.6112C72.4043 23.6859 71.9771 24.7166 71.2171 25.4766C70.4572 26.2365 69.4268 26.6634 68.3521 26.6634H31.7473V46.0598C31.7509 46.5942 31.6486 47.124 31.4466 47.6188C31.2445 48.1135 30.9467 48.5635 30.57 48.9426C30.1934 49.3218 29.7457 49.6227 29.2523 49.8281C28.7589 50.0334 28.2295 50.139 27.6951 50.139Z" fill="#3A3A3A"></path> <path d="M68.4062 134.181H27.6951C26.6204 134.181 25.59 133.754 24.8301 132.994C24.0702 132.234 23.6429 131.204 23.6429 130.129V106.653C23.6429 105.579 24.0702 104.548 24.8301 103.788C25.59 103.028 26.6204 102.601 27.6951 102.601C28.7698 102.601 29.8002 103.028 30.5601 103.788C31.3201 104.548 31.7473 105.579 31.7473 106.653V126.077H68.3521C69.4268 126.077 70.4572 126.504 71.2171 127.264C71.9771 128.024 72.4043 129.054 72.4043 130.129C72.4043 131.204 71.9771 132.234 71.2171 132.994C70.4572 133.754 69.4268 134.181 68.3521 134.181H68.4062Z" fill="#3A3A3A"></path> </svg> 