<?xml version="1.0" encoding="UTF-8"?> <svg xmlns="http://www.w3.org/2000/svg" width="237" height="145" viewBox="0 0 237 145" fill="none"> <path d="M15.9382 141.154L16.7976 141.815C15.1444 139.012 12.9242 136.584 10.2789 134.688L9.90859 135.283C11.7383 137.417 13.7564 139.382 15.9382 141.154Z" fill="#E0DFE6"></path> <path d="M11.3848 108.102L11.5169 106.251C7.71187 106.059 3.89784 106.148 0.105724 106.516C0.105724 107.137 0.0132227 107.759 0 108.38C3.78297 108.008 7.58816 107.915 11.3848 108.102Z" fill="#E0DFE6"></path> <path d="M20.6939 88.2718C16.7278 88.6288 12.4048 88.8006 7.47369 88.8138C6.91014 89.3955 6.38036 90.009 5.88717 90.6514H7.20919C12.3254 90.6514 16.8071 90.4664 20.9053 90.0962L20.6939 88.2718Z" fill="#E0DFE6"></path> <path d="M54.7134 116.035L52.7039 115.81H52.1883C53.7879 117.939 55.3876 120.067 57.0269 122.182C61.5606 128.169 66.4151 133.906 71.5692 139.369L72.8912 138.047C67.7759 132.644 62.9566 126.969 58.4547 121.045C57.2031 119.327 55.9561 117.656 54.7134 116.035Z" fill="#E0DFE6"></path> <path d="M1.88436 121.468C2.09593 122.089 2.32073 122.711 2.55874 123.319C4.58181 123.319 6.52559 123.319 7.38507 123.319L7.27934 121.468C6.30086 121.468 4.10578 121.481 1.88436 121.468Z" fill="#E0DFE6"></path> <path d="M36.7081 140.333C34.6193 137.689 32.2793 135.045 30.0186 132.599C27.758 130.153 25.4709 127.628 23.4085 124.984C21.3462 122.34 19.1385 119.696 16.9043 117.343L15.5822 118.665C17.7768 121.031 20.1035 123.755 21.9676 126.174C24.0564 128.818 26.3964 131.462 28.6571 133.895C30.9177 136.327 33.2048 138.865 35.2672 141.509C36.1001 142.593 36.8403 143.611 37.5146 144.643L39.0614 143.625C38.3343 142.474 37.5675 141.443 36.7081 140.333Z" fill="#E0DFE6"></path> <path d="M14.5634 98.3728H1.79263C1.58111 98.981 1.39611 99.6023 1.22425 100.224H14.5634V98.3728Z" fill="#E0DFE6"></path> <path d="M18.3548 130.748C17.0328 129.188 15.7106 127.734 14.6134 126.478L13.2121 127.681C14.2962 129.003 15.5917 130.417 16.9534 131.977C20.4832 135.943 24.4757 140.518 27.1066 143.875L28.574 142.739C25.9035 139.341 21.9375 134.78 18.3548 130.748Z" fill="#E0DFE6"></path> <path d="M41.2238 114.223L39.9811 112.504C36.7289 110.971 35.0895 109.252 33.014 105.603C31.1367 102.311 31.1897 102.602 30.6212 99.9979V99.8128C28.9026 97.605 27.2765 95.5823 25.6901 93.705L24.249 94.8684L24.7778 95.5559C26.3642 97.3935 27.9638 99.3898 29.6692 101.598C33.1065 106.053 36.4909 110.759 39.7562 115.307C43.0216 119.855 46.459 124.561 49.9491 129.148C53.4393 133.736 56.5593 137.424 59.6924 140.769L61.0145 139.447C57.9474 136.142 54.8009 132.387 51.3769 127.959C47.9528 123.53 44.4496 118.797 41.2238 114.223Z" fill="#E0DFE6"></path> <path d="M66.4885 116.655C72.2525 124.283 78.3866 132.678 85.5387 142.435L87.0326 141.338C80.3035 132.083 74.3545 124.006 68.8153 116.682L66.4885 116.655Z" fill="#E0DFE6"></path> <path d="M10.0468 113.68H6.3444C4.44033 113.68 2.2983 113.68 0.116549 113.68C0.116549 114.302 0.262083 114.91 0.367864 115.532C2.45706 115.532 4.49321 115.532 6.33117 115.532H10.0468V113.68Z" fill="#E0DFE6"></path> <path d="M20.4672 105.477L19.0023 106.608L46.4773 142.182L47.9421 141.051L20.4672 105.477Z" fill="#E0DFE6"></path> <path d="M236.27 79.7853C233.44 79.944 230.769 80.1423 228.204 80.42L228.402 82.258C230.782 82.0067 233.255 81.8084 235.873 81.6629C236.019 81.0415 236.138 80.42 236.27 79.7853Z" fill="#E0DFE6"></path> <path d="M222.92 72.8969C227.494 72.6325 232.174 72.4078 237 72.2491C237 71.6278 237 71.0064 237 70.3983C232.135 70.5569 227.428 70.7816 222.841 71.046L222.92 72.8969Z" fill="#E0DFE6"></path> <path d="M118.696 72.4074C127.726 82.772 137.006 94.1546 147.067 107.177C151.033 112.359 155.237 117.859 159.706 123.834C160.631 124.085 161.556 124.31 162.495 124.495C157.524 117.819 152.937 111.738 148.534 105.987C138.447 92.9384 129.153 81.5293 120.098 71.1382L118.696 72.4074Z" fill="#E0DFE6"></path> <path d="M192.23 98.3728H151.631V100.224H192.23V98.3728Z" fill="#E0DFE6"></path> <path d="M133.619 71.0857L133.725 72.9366C138.943 72.6281 144.346 72.3901 149.933 72.2226L148.215 70.4115C143.191 70.5437 138.286 70.7684 133.619 71.0857Z" fill="#E0DFE6"></path> <path d="M114.189 83.5123C119.304 88.9148 124.124 94.5902 128.626 100.514C131.376 104.083 134.046 107.679 136.73 111.275C139.413 114.871 142.097 118.493 144.847 122.062C146.354 124.006 147.795 125.817 149.183 127.549C149.536 127.002 149.879 126.447 150.214 125.883C148.963 124.323 147.641 122.675 146.248 120.939C143.498 117.369 140.828 113.773 138.144 110.177C135.461 106.582 132.777 102.959 130.014 99.3897C125.48 93.4027 120.626 87.6655 115.471 82.2035L114.189 83.5123Z" fill="#E0DFE6"></path> <path d="M135.771 140.954L110.454 108.168L108.709 108.948L134.225 141.998L135.771 140.954Z" fill="#E0DFE6"></path> <path d="M114.993 143.929L116.46 142.792C112.705 137.94 108.528 132.441 103.24 128.633L102.143 130.114C107.153 133.776 111.317 139.17 114.993 143.929Z" fill="#E0DFE6"></path> <path d="M100.526 140.44C101.147 141.326 101.848 142.344 102.84 143.653L104.308 142.516C103.329 141.194 102.655 140.255 102.06 139.382C100.989 137.713 99.7193 136.181 98.2779 134.82L96.9557 136.142C98.3269 137.414 99.5271 138.859 100.526 140.44Z" fill="#E0DFE6"></path> <path d="M165.018 114.21L165.283 116.048C169.923 115.374 178.08 115.453 184.042 115.506H187.757V113.655H184.055C178.04 113.602 169.804 113.523 165.018 114.21Z" fill="#E0DFE6"></path> <path d="M214.64 111.46C215.129 111.09 215.631 110.719 216.107 110.336C213.714 107.018 211.269 103.726 208.783 100.461C206.866 97.9884 205.082 95.7806 203.337 93.705L201.895 94.8684L202.424 95.5559C204.011 97.3935 205.61 99.3898 207.316 101.598C209.801 104.81 212.234 108.102 214.64 111.46Z" fill="#E0DFE6"></path> <path d="M101.266 90.5589C104.4 90.4795 107.296 90.3209 110.02 90.0696L109.848 88.2317C106.846 88.4961 103.633 88.668 100.102 88.7341C100.473 89.3556 100.856 89.9638 101.266 90.5589Z" fill="#E0DFE6"></path> <path d="M98.5678 71.9714L105.865 72.2226C108.774 72.3416 112.013 72.4606 116.164 72.5796V70.7287C112.013 70.6098 108.787 70.4908 105.878 70.3718L99.3874 70.147C99.0824 70.7404 98.8089 71.3494 98.5678 71.9714Z" fill="#E0DFE6"></path> <path d="M206.776 116.616L198.117 105.405L196.65 106.529L205.137 117.515L206.776 116.616Z" fill="#E0DFE6"></path> <path d="M223.269 103.819C222.145 102.338 221.035 100.857 219.898 99.3897C215.364 93.4027 210.509 87.6655 205.355 82.2035L204.033 83.5255C209.149 88.928 213.968 94.6034 218.47 100.527C219.66 102.074 220.836 103.633 222 105.18C222.409 104.731 222.886 104.268 223.269 103.819Z" fill="#E0DFE6"></path> <path d="M174.065 121.415C173.404 121.415 172.743 121.415 172.135 121.415C171.527 121.415 170.297 121.52 168.962 121.415V123.252C169.345 123.252 169.703 123.252 170.033 123.252C170.919 123.252 171.646 123.252 172.307 123.173C172.897 123.14 173.488 123.14 174.078 123.173C176.405 123.173 183.161 123.266 185.144 123.173L185.038 121.322C183.042 121.52 176.366 121.454 174.065 121.415Z" fill="#E0DFE6"></path> <path d="M124.519 140.333C123.593 139.13 120.381 135.468 116.666 131.211C112.092 125.923 106.909 120.054 105.164 117.766L103.697 118.903C105.482 121.23 110.69 127.179 115.278 132.428C118.821 136.486 122.152 140.36 123.051 141.457C123.95 142.554 124.625 143.572 125.286 144.59L126.832 143.572C126.145 142.475 125.378 141.444 124.519 140.333Z" fill="#E0DFE6"></path> <path d="M157.284 79.4939C151.191 79.4976 145.102 79.8065 139.04 80.4194L139.239 82.257C145.925 81.5964 152.641 81.2919 159.36 81.3448H160.127L158.805 80.6309C158.131 80.2475 157.787 80.0624 157.602 79.9831C157.523 79.8042 157.416 79.6391 157.284 79.4939Z" fill="#E0DFE6"></path> <path d="M95.5186 115.505H99.2202V113.654H95.5319H94.0644L91.9228 114.196C89.6886 114.699 87.441 115.122 85.1803 115.518C88.6837 115.439 92.3987 115.479 95.5186 115.505Z" fill="#E0DFE6"></path> <path d="M176.515 108.407C180.682 107.972 184.876 107.849 189.061 108.037L189.194 106.186C184.915 105.988 180.629 106.116 176.37 106.569C173.382 106.82 170.302 107.071 167.288 107.071C164.462 107.105 161.641 106.817 158.88 106.212L158.47 108.01C161.365 108.647 164.323 108.953 167.288 108.922C170.381 108.922 173.501 108.658 176.515 108.407Z" fill="#E0DFE6"></path> <path d="M80.4391 121.533V123.371C80.8225 123.371 81.1662 123.371 81.4967 123.371C82.3957 123.371 83.1096 123.371 83.7706 123.291C84.365 123.259 84.9608 123.259 85.5553 123.291C87.8688 123.291 94.6376 123.384 96.6074 123.291L96.5149 121.441C94.5715 121.546 87.8953 121.441 85.595 121.441C84.9472 121.441 84.3391 121.441 83.6649 121.441C82.9907 121.441 81.7611 121.573 80.4391 121.533Z" fill="#E0DFE6"></path> <path d="M153.972 88.0608C151.143 88.0608 148.578 88.0607 146.132 88.2325V90.0702H146.912C149.107 89.9512 151.407 89.9115 153.932 89.9115C159.022 89.9115 164.244 90.0966 169.307 90.2685C174.371 90.4404 179.672 90.6255 184.828 90.6255C189.984 90.6255 194.426 90.4403 198.524 90.0702L198.352 88.2325C194.386 88.5895 189.891 88.7746 184.828 88.7746C179.764 88.7746 174.45 88.5895 169.373 88.4176C164.297 88.2458 159.088 88.0608 153.972 88.0608Z" fill="#E0DFE6"></path> <path d="M197.877 121.006C196.793 119.683 195.695 118.506 194.611 117.343L193.288 118.665C194.201 119.657 195.14 120.701 196.065 121.773L197.877 121.006Z" fill="#E0DFE6"></path> <path d="M182.991 81.2395L182.291 81.6229H183.732C186.177 81.6229 188.094 81.7287 189.932 81.8477C193.349 82.1157 196.782 82.0714 200.191 81.7154L199.993 79.8779C196.69 80.2236 193.361 80.2634 190.051 79.9968C188.597 79.9043 187.116 79.825 185.371 79.7853C184.565 80.3406 183.798 80.79 182.991 81.2395Z" fill="#E0DFE6"></path> <path d="M111.472 79.8906C108.164 80.2363 104.832 80.2762 101.517 80.0096C100.195 79.9303 98.8726 79.8509 97.2465 79.8113C97.2844 80.4359 97.355 81.0581 97.4581 81.6754C98.8991 81.6754 100.168 81.7811 101.424 81.8605C104.836 82.1284 108.266 82.0841 111.67 81.7282L111.472 79.8906Z" fill="#E0DFE6"></path> <path d="M94.6871 130.934C93.5639 130.874 92.4383 130.874 91.3152 130.934C90.2706 130.934 89.1599 130.934 87.8773 130.934C86.6735 130.893 85.4684 130.919 84.2675 131.013L84.4659 132.851C85.589 132.79 86.7145 132.79 87.8376 132.851C89.1599 132.851 90.3103 132.851 91.3814 132.851C92.4524 132.851 93.4838 132.771 94.5681 132.851L94.6871 130.934Z" fill="#E0DFE6"></path> <path d="M129.041 114.223C125.762 109.662 122.43 104.969 118.914 100.461C116.997 97.9884 115.212 95.7806 113.454 93.705L112.013 94.8684L112.542 95.5559C114.141 97.3935 115.741 99.3898 117.446 101.598C120.884 106.053 124.268 110.759 127.533 115.307C130.799 119.855 134.236 124.561 137.726 129.148C139.489 131.369 141.146 133.436 142.697 135.349L144.019 134.027C142.459 132.163 140.86 130.166 139.194 128.012C135.73 123.517 132.332 118.797 129.041 114.223Z" fill="#E0DFE6"></path> <path d="M91.6524 139.395C91.0901 139.328 90.522 139.328 89.9598 139.395L90.3168 141.219C90.7246 141.16 91.1389 141.16 91.5466 141.219H92.287C92.8333 141.231 93.3768 141.137 93.8871 140.942L93.1995 139.223C92.7002 139.382 92.1743 139.44 91.6524 139.395Z" fill="#E0DFE6"></path> <path d="M230.024 95.3841C223.057 86.6191 216.407 78.6076 209.903 71.1382L208.501 72.3545C215.112 79.9429 221.867 88.0865 228.953 97.0102C229.336 96.4682 229.68 95.9261 230.024 95.3841Z" fill="#E0DFE6"></path> <path d="M185.905 71.9445C188.76 72.0106 191.378 72.1163 194.366 72.2221C197.353 72.3279 200.513 72.4601 204.664 72.5791V70.7282C200.513 70.6092 197.274 70.4903 194.379 70.3713C191.484 70.2523 188.959 70.173 186.222 70.1069C186.156 70.715 186.024 71.3232 185.905 71.9445Z" fill="#E0DFE6"></path> <path d="M194.794 64.7016C193.137 61.6346 190.798 58.9884 187.958 56.9663L186.993 58.553C189.512 60.3768 191.597 62.7335 193.102 65.4553L194.794 64.7016Z" fill="#E0DFE6"></path> <path d="M235.353 60.8535C234.831 59.0967 234.177 57.382 233.396 55.724C231.995 54.0186 230.554 52.2207 229.047 50.2905C227.539 48.3604 225.86 46.0732 224.287 43.9448C222.838 42.7517 221.295 41.6774 219.673 40.7322C222.317 44.3149 224.882 47.9241 227.606 51.4142C230.329 54.9043 232.867 58.0508 235.353 60.8535Z" fill="#E0DFE6"></path> <path d="M190.918 49.9331C192.002 51.2551 193.298 52.6697 194.66 54.2296C198.189 58.1957 202.182 62.7699 204.813 66.1278L206.28 64.9909C203.636 61.5404 199.591 56.9795 196.061 52.9473C194.739 51.3873 193.417 49.9331 192.32 48.6771L190.918 49.9331Z" fill="#E0DFE6"></path> <path d="M203.1 37.0703L224.252 64.37L225.72 63.2331L205.295 36.7926C204.501 36.8455 203.787 36.9381 203.1 37.0703Z" fill="#E0DFE6"></path> <path d="M114.978 66.1955L116.445 65.0584C115.322 63.6039 114.132 62.0833 112.902 60.5759C112.228 60.6949 111.58 60.8536 110.905 61.0387C112.333 62.7709 113.682 64.4766 114.978 66.1955Z" fill="#E0DFE6"></path> <path d="M195.281 40.3351C194.766 40.6788 194.263 41.049 193.774 41.4324C195.823 43.6666 197.939 46.152 199.657 48.3863C201.746 51.0303 204.086 53.6743 206.347 56.1068C208.607 58.5393 210.894 61.0776 212.957 63.7217C213.79 64.8057 214.53 65.8237 215.204 66.8549L216.751 65.837C216.05 64.7661 215.283 63.7085 214.424 62.598C212.335 59.8878 209.995 57.3099 207.735 54.8641C205.474 52.4184 203.187 49.8933 201.125 47.2493C199.419 45.0415 197.317 42.5693 195.281 40.3351Z" fill="#E0DFE6"></path> <path d="M126.855 65.7984C126.168 64.7406 125.401 63.6695 124.541 62.5588L124.052 61.9506C123.549 61.7655 123.047 61.6067 122.558 61.4613C121.937 61.1899 121.296 60.9688 120.64 60.8001C121.791 62.1224 122.677 63.1803 123.073 63.6828C123.906 64.767 124.647 65.7984 125.308 66.8166L126.855 65.7984Z" fill="#E0DFE6"></path> <path d="M135.767 63.233L135.371 62.7173C134.921 62.7173 134.472 62.8099 134.049 62.8892C134.049 62.7967 133.797 62.8892 133.308 63.0347L134.339 64.3569L135.767 63.233Z" fill="#E0DFE6"></path> <path d="M104.067 64.4758C103.578 64.8593 103.128 65.2824 102.745 65.7055L102.864 65.8642L104.332 64.7271L104.067 64.4758Z" fill="#E0DFE6"></path> <g style="mix-blend-mode:multiply"> <path d="M31.3176 111.988C24.2712 123.543 46.9968 133.445 54.7042 135.6C69.2465 139.566 84.9389 137.583 98.7144 131.924C111.26 126.769 123.833 118.149 127.548 104.321C130.734 92.4225 125.776 75.2362 112.437 71.9972C102.694 69.644 95.0656 81.714 102.495 89.0909C104.558 91.1401 106.461 91.9597 107.083 94.8814C107.757 98.1732 106.144 101.135 104.095 103.541C98.3706 110.27 87.9794 113.654 79.73 115.624C70.6064 117.885 61.0331 117.555 52.0866 114.672C47.0894 113.02 35.363 105.339 31.3176 111.988Z" fill="#D7DCE0"></path> </g> <g style="mix-blend-mode:multiply"> <path d="M213.447 70.0011C216.448 59.0283 210.803 45.623 198.904 43.402C187.68 41.3 181.255 55.3663 191.104 61.9103C192.506 62.849 193.392 62.1087 191.884 64.0124C190.765 65.5372 189.331 66.804 187.68 67.7273C182.25 70.7714 176.301 72.7797 170.137 73.6499C164.241 74.4563 159.865 73.2004 154.524 70.834C151.193 69.3533 144.992 66.392 142.626 71.1513C137.946 80.6169 148.72 88.9721 156.441 92.145C167.321 96.6266 179.457 95.2914 190.245 91.1932C200.332 87.3593 210.419 81.1458 213.447 70.0011Z" fill="#D7DCE0"></path> </g> <path d="M183.863 49.7218L182.316 46.1126C181.506 47.9177 180.108 49.395 178.35 50.3034C175.092 51.9529 171.491 52.8124 167.84 52.8124C164.188 52.8124 160.588 51.9529 157.33 50.3034C155.57 49.3976 154.171 47.9195 153.364 46.1126L151.817 49.7218L148.023 58.5925C146.145 62.5585 147.917 66.9873 153.311 70.1073C157.817 72.395 162.799 73.5872 167.853 73.5872C172.907 73.5872 177.889 72.395 182.395 70.1073C187.802 66.9873 189.574 62.5585 187.683 58.5925L183.863 49.7218Z" fill="#3FAAF0"></path> <path d="M41.4349 111.764C48.9572 116.114 58.8063 118.282 68.6818 118.282C78.5573 118.282 88.3931 116.114 95.9154 111.764C106.055 105.921 109.374 97.6186 105.857 90.1756L98.7445 73.5578C99.3922 75.0487 99.695 76.6665 99.6304 78.2907C99.4453 82.7327 96.4179 87.1217 90.5613 90.4929C78.4912 97.4732 58.8328 97.4732 46.7759 90.4929C40.7211 86.9895 37.7201 82.4418 37.7201 77.8411C37.7259 76.3658 38.0364 74.9075 38.6322 73.5578L31.5065 90.1756C28.0032 97.6186 31.3082 105.921 41.4349 111.764Z" fill="#3A3A3A"></path> <path d="M68.6858 0.000293712C68.0382 0.00197501 67.4053 0.193126 66.865 0.550195C66.3247 0.907264 65.9007 1.41467 65.6452 2.00979L28.5757 88.7741C24.1601 98.1605 28.47 108.062 39.8394 114.62C47.5996 119.115 57.8717 121.587 68.7387 121.587C79.6058 121.587 89.8911 119.115 97.6249 114.633C109.021 108.023 113.344 98.1473 108.955 88.8799L71.7794 2.00979C71.5205 1.40634 71.0883 0.8933 70.5376 0.53559C69.9869 0.17788 69.3424 -0.00844234 68.6858 0.000293712ZM97.4398 70.517C98.2464 70.172 99.1569 70.1606 99.972 70.4851C100.787 70.8097 101.441 71.4438 101.789 72.2488C102.627 74.1957 103.02 76.3048 102.939 78.4227C102.809 81.1051 101.95 83.7013 100.454 85.9317L102.873 91.59C105.742 97.6713 102.53 104.136 94.2669 108.908C87.4849 112.875 78.4027 114.977 68.6858 114.977C58.9689 114.977 49.8734 112.822 43.0915 108.895C34.8421 104.149 31.6296 97.6713 34.5513 91.471L36.9177 85.945C35.3097 83.5464 34.4409 80.7286 34.4191 77.841C34.4226 75.9145 34.8277 74.0099 35.6088 72.2488C35.9401 71.4407 36.579 70.7972 37.3848 70.46C38.1905 70.1229 39.0972 70.1196 39.9054 70.4509C40.7135 70.7822 41.3571 71.4211 41.6942 72.2268C42.0314 73.0326 42.0348 73.9393 41.7034 74.7475L68.6858 11.7002L95.708 74.84C95.3677 74.0368 95.3587 73.1314 95.6832 72.3216C96.0076 71.5118 96.639 70.8631 97.4398 70.517Z" fill="#3A3A3A"></path> <path d="M95.7068 74.8667C96.1659 75.9011 96.3786 77.028 96.3281 78.1585C96.1827 81.5958 93.5519 84.9538 88.9116 87.6375C77.7669 94.0757 59.6024 94.0757 48.4313 87.6375C43.6588 84.8745 41.028 81.3975 41.028 77.8413C41.0324 76.8209 41.2485 75.8125 41.6625 74.8799C41.6683 74.8361 41.6683 74.7916 41.6625 74.7478V74.8535L36.9165 85.9453C39.0324 89.0281 41.845 91.5689 45.1262 93.3618C52.4072 97.1151 60.4799 99.0733 68.6713 99.0733C76.8628 99.0733 84.9356 97.1151 92.2166 93.3618C95.5066 91.5653 98.328 89.0202 100.453 85.932C100.453 85.932 95.7068 74.8403 95.7068 74.8667Z" fill="#3A3A3A"></path> <path d="M41.6554 74.8533V74.7476C41.9867 73.9394 41.9834 73.0327 41.6462 72.2269C41.309 71.4211 40.6657 70.7823 39.8575 70.451C39.0493 70.1196 38.1425 70.1229 37.3367 70.4601C36.531 70.7973 35.8922 71.4407 35.5609 72.2489C34.7798 74.01 34.3745 75.9145 34.371 77.841C34.3929 80.7287 35.2617 83.5465 36.8697 85.945L41.6554 74.8533Z" fill="#3A3A3A"></path> <path d="M100.421 85.9317C101.917 83.7013 102.777 81.1051 102.907 78.4227C102.987 76.3048 102.594 74.1957 101.757 72.2488C101.406 71.4424 100.749 70.8083 99.9312 70.486C99.1131 70.1637 98.2003 70.1796 97.3939 70.5302C96.5874 70.8809 95.9534 71.5374 95.6311 72.3556C95.3088 73.1738 95.3247 74.0865 95.6753 74.8929L100.421 85.9317Z" fill="#3A3A3A"></path> <path d="M167.821 76.8892C173.47 76.9729 179.045 75.6075 184.016 72.9231C190.745 69.0364 193.35 62.8361 190.705 57.244L170.875 10.8807C170.621 10.2845 170.198 9.77604 169.657 9.41871C169.116 9.06139 168.482 8.87091 167.834 8.87091C167.186 8.87091 166.553 9.06139 166.012 9.41871C165.472 9.77604 165.048 10.2845 164.794 10.8807L144.964 57.1514C142.32 62.8626 144.871 69.0496 151.574 72.9364C156.556 75.6373 162.155 76.9993 167.821 76.8892ZM150.199 47.2891C149.887 46.4687 149.913 45.5579 150.273 44.7571C150.632 43.9563 151.295 43.3311 152.116 43.019C152.936 42.7069 153.847 42.7336 154.648 43.0931C155.449 43.4526 156.074 44.1154 156.386 44.9359C156.528 45.2812 156.729 45.5989 156.981 45.8745L167.782 20.6372L178.582 45.8745C178.844 45.5962 179.054 45.274 179.204 44.9227C179.544 44.1412 180.174 43.5214 180.96 43.1928C181.747 42.8642 182.63 42.8523 183.425 43.1594C184.22 43.4666 184.866 44.069 185.227 44.8411C185.589 45.6131 185.638 46.4949 185.364 47.3023C184.526 49.3128 183.121 51.0355 181.319 52.2599L184.637 60.0069C186.303 63.5103 182.416 66.2337 180.671 67.2385C176.671 69.2385 172.261 70.2798 167.788 70.2798C163.316 70.2798 158.905 69.2385 154.905 67.2385C153.16 66.2337 149.273 63.5104 150.939 59.888L154.204 52.2599C152.416 51.0262 151.024 49.2992 150.199 47.2891Z" fill="#3A3A3A"></path> <path d="M167.811 56.1075C172.049 56.1806 176.235 55.1705 179.974 53.1727C180.463 52.8818 180.912 52.5778 181.296 52.2605L178.559 45.8751C178.005 46.5023 177.348 47.0299 176.616 47.4351C173.864 48.7983 170.835 49.5076 167.765 49.5076C164.694 49.5076 161.665 48.7983 158.914 47.4351C158.177 47.0248 157.516 46.4929 156.957 45.8619L156.309 47.3954L154.234 52.2472C154.657 52.5645 155.12 52.8686 155.556 53.1594C159.32 55.1772 163.541 56.1924 167.811 56.1075Z" fill="#3A3A3A"></path> <path d="M156.33 47.4094L156.978 45.8755C156.726 45.5998 156.525 45.282 156.383 44.9366C156.071 44.1108 155.443 43.4427 154.639 43.0794C153.834 42.7162 152.918 42.6874 152.092 42.9995C151.266 43.3117 150.598 43.9391 150.235 44.7437C149.872 45.5484 149.843 46.4644 150.155 47.2903C150.995 49.3077 152.406 51.0358 154.214 52.2621L156.33 47.4094Z" fill="#3A3A3A"></path> <path d="M185.402 47.2899C185.676 46.4823 185.627 45.6003 185.265 44.8282C184.904 44.056 184.258 43.4534 183.462 43.1462C182.667 42.839 181.784 42.851 180.997 43.1796C180.21 43.5082 179.581 44.1282 179.24 44.9098C179.091 45.2612 178.88 45.5834 178.619 45.8618L181.356 52.2484C183.158 51.0238 184.564 49.3007 185.402 47.2899Z" fill="#3A3A3A"></path> </svg> 