<?xml version="1.0" encoding="UTF-8"?> <svg xmlns="http://www.w3.org/2000/svg" width="549" height="411" viewBox="0 0 549 411" fill="none"> <path d="M199.269 333.09C200.055 332.986 200.85 332.986 201.636 333.09L201.142 335.692C200.571 335.627 199.995 335.627 199.424 335.692H198.384C197.611 335.702 196.844 335.569 196.12 335.302L197.082 332.882C197.791 333.091 198.533 333.162 199.269 333.09Z" fill="#E0DFE6"></path> <path d="M161.319 238.833C148.62 253.406 135.582 269.411 121.425 287.706C111.874 300.093 101.725 313.729 89.8845 329.838L87.516 328.667C99.4868 312.272 109.714 298.609 119.369 286.118C133.552 267.771 146.616 251.741 159.367 237.116L161.319 238.833Z" fill="#E0DFE6"></path> <path d="M166.526 339.465L164.47 337.878C169.723 330.432 175.956 323.727 182.999 317.944L184.534 320.052C177.508 325.179 171.731 332.777 166.526 339.465Z" fill="#E0DFE6"></path> <path d="M133.807 291.999C137.58 286.795 141.354 281.85 145.231 276.854C151.619 268.449 158.455 260.396 165.712 252.73L167.585 254.525C160.398 262.122 153.631 270.106 147.313 278.441C143.436 283.438 128.368 303.71 124.491 308.732C118.097 317.132 111.26 325.184 104.01 332.856L102.136 331.061C109.326 323.458 116.102 315.475 122.435 307.145C126.286 302.123 130.085 297.074 133.807 291.999Z" fill="#E0DFE6"></path> <path d="M170.611 270.504L169.882 271.467C167.696 274.069 165.458 276.88 163.038 279.977C158.197 286.248 153.461 292.859 148.855 299.26C144.249 305.662 139.434 312.272 134.542 318.726C129.649 325.18 125.173 330.358 120.827 335.043L118.928 333.273C123.222 328.667 127.645 323.358 132.46 317.139C137.274 310.919 142.115 304.127 146.747 297.725C151.379 291.323 156.116 284.713 160.982 278.389C163.585 274.902 166.187 271.779 168.789 268.891L170.611 270.504Z" fill="#E0DFE6"></path> <path d="M182.28 304.282C179.678 307.535 172.469 315.914 166.016 323.305C161.019 329.004 156.335 334.365 155.086 336.005C153.837 337.644 152.873 338.971 151.936 340.403L149.751 338.971C150.74 337.488 151.807 335.979 153.03 334.417C154.253 332.856 158.833 327.573 164.038 321.587C170.466 314.223 177.752 305.973 180.224 302.694L182.28 304.282Z" fill="#E0DFE6"></path> <path d="M175.806 285.467L177.866 287.057L139.244 337.065L137.184 335.474L175.806 285.467Z" fill="#E0DFE6"></path> <path d="M183.577 339.076L181.521 337.488C182.901 335.719 183.863 334.314 184.696 333.09C186.159 330.741 187.907 328.582 189.901 326.662L191.696 328.562C189.802 330.348 188.133 332.358 186.726 334.548C185.971 335.953 185.009 337.254 183.577 339.076Z" fill="#E0DFE6"></path> <path d="M313.73 326.506L315.057 328.718C311.517 331.277 308.592 334.593 306.496 338.425L304.102 337.384C306.415 333.054 309.713 329.328 313.73 326.506Z" fill="#E0DFE6"></path> <path d="M287.927 337.879C291.7 333.012 297.347 326.61 302.318 320.937L307.523 314.926L309.5 316.644L304.296 322.655C299.351 328.276 293.73 334.678 290.035 339.466L287.927 337.879Z" fill="#E0DFE6"></path> <path d="M427.738 286.872L397.837 325.569L393.777 326.584L425.682 285.285L427.738 286.872Z" fill="#E0DFE6"></path> <path d="M420.453 270.504L419.724 271.467C417.538 274.069 415.299 276.88 412.879 279.977C408.039 286.248 403.303 292.859 398.697 299.26C394.09 305.662 389.276 312.272 384.384 318.726C379.491 325.18 375.015 330.358 370.669 335.043L368.769 333.273C373.063 328.667 377.487 323.358 382.302 317.139C387.116 310.919 391.982 304.127 396.588 297.725C401.195 291.323 405.958 284.713 410.824 278.389C413.426 274.902 416.029 271.779 418.631 268.891L420.453 270.504Z" fill="#E0DFE6"></path> <path d="M417.427 254.525C410.239 262.122 403.472 270.106 397.155 278.441C393.278 283.438 378.21 303.71 374.332 308.732C367.939 317.132 361.102 325.184 353.852 332.856L351.978 331.061C359.167 323.458 365.943 315.475 372.277 307.145C376.128 302.149 391.222 281.85 395.073 276.854C401.46 268.449 408.297 260.396 415.553 252.73L417.427 254.525Z" fill="#E0DFE6"></path> <path d="M411.16 238.833C398.46 253.406 385.422 269.411 371.266 287.706C360.284 301.967 348.521 317.737 334.26 337.358L332.152 335.823C346.413 316.175 358.176 300.379 369.21 286.118C383.392 267.771 396.457 251.741 409.208 237.116L411.16 238.833Z" fill="#E0DFE6"></path> <path d="M207.904 337.358L205.796 335.823C220.083 316.175 231.82 300.379 242.854 286.118C257.037 267.771 270.126 251.741 282.852 237.116L284.804 238.833C272.13 253.406 259.067 269.385 244.91 287.706C233.928 301.94 222.165 317.737 207.904 337.358Z" fill="#E0DFE6"></path> <path d="M299.26 285.544L301.32 287.135L262.698 337.142L260.638 335.552L299.26 285.544Z" fill="#E0DFE6"></path> <path d="M285.961 323.54C289.11 320.104 292.363 316.539 295.226 312.844C298.088 309.149 301.211 305.479 304.36 302.096L306.26 303.866C303.163 307.197 299.91 311.048 297.282 314.431C294.341 318.231 291.062 321.822 287.887 325.283C284.712 328.744 281.486 332.284 278.623 336.005C277.452 337.514 276.411 338.946 275.474 340.403L273.288 338.972C274.277 337.462 275.344 335.979 276.567 334.417C279.482 330.748 282.786 327.027 285.961 323.54Z" fill="#E0DFE6"></path> <path d="M294.065 270.504L293.31 271.467C291.124 274.069 288.886 276.88 286.492 279.977C281.652 286.248 276.889 292.859 272.283 299.26C267.677 305.662 262.862 312.272 257.97 318.726C253.077 325.18 248.628 330.358 244.256 335.043L242.356 333.273C246.65 328.641 251.1 323.358 255.915 317.139C260.729 310.919 265.569 304.127 270.175 297.725C274.782 291.323 279.544 284.713 284.41 278.389C287.013 274.902 289.615 271.779 292.217 268.891L294.065 270.504Z" fill="#E0DFE6"></path> <path d="M270.83 278.441C266.952 283.438 251.884 303.71 248.007 308.732C241.613 317.132 234.776 325.184 227.526 332.856L225.652 331.061C232.849 323.465 239.625 315.481 245.951 307.145C249.802 302.149 264.896 281.85 268.774 276.854C275.145 268.444 281.973 260.39 289.228 252.73L291.102 254.525C283.922 262.129 277.155 270.112 270.83 278.441Z" fill="#E0DFE6"></path> <path d="M323.889 333.09C324.884 332.999 325.886 332.999 326.882 333.09L326.517 335.692C325.651 335.608 324.78 335.608 323.915 335.692C322.553 335.807 321.182 335.702 319.855 335.38L320.583 332.778C321.661 333.058 322.777 333.163 323.889 333.09Z" fill="#E0DFE6"></path> <path d="M140.109 348.965L127.227 348.315L121.476 345.504C127.904 345.738 134.149 346.025 140.265 346.389L140.109 348.965Z" fill="#E0DFE6"></path> <path d="M165.712 361.975L167.585 363.771L164.983 366.66L162.537 365.463C163.526 364.318 164.619 363.147 165.712 361.975Z" fill="#E0DFE6"></path> <path d="M246.003 373.063C242.906 373.063 239.679 372.881 236.14 372.881C228.984 372.881 221.619 373.115 214.514 373.376C207.41 373.636 199.941 373.87 192.681 373.87C187.632 373.87 183.026 373.87 178.732 373.48L173.527 371.007V370.513C179.2 371.033 185.42 371.268 192.551 371.268C199.681 371.268 207.15 371.007 214.307 370.773C221.463 370.539 228.801 370.279 236.01 370.279C239.965 370.279 243.583 370.279 247.018 370.513V373.115L246.003 373.063Z" fill="#E0DFE6"></path> <path d="M201.944 384.721H239.392V387.323H207.279L201.944 384.721Z" fill="#E0DFE6"></path> <path d="M226.618 396.249C227.503 396.093 228.388 395.937 229.22 395.729L229.637 397.524L226.618 396.249Z" fill="#E0DFE6"></path> <path d="M159.336 346.361L161.288 348.079C157.939 351.93 154.557 355.886 151.139 359.946L148.744 358.775C152.31 354.559 155.823 350.421 159.336 346.361Z" fill="#E0DFE6"></path> <path d="M211.451 360.961C205.725 360.961 200.026 361.169 194.301 361.169C190.84 361.169 188.16 361.325 185.557 361.481C180.757 361.879 175.93 361.827 171.14 361.325L171.426 358.723C176.078 359.212 180.765 359.264 185.427 358.879C188.029 358.879 190.631 358.567 194.301 358.567C200 358.567 222.927 358.151 228.548 358.151C238.107 358.069 247.664 358.512 257.174 359.478L256.888 362.08C247.489 361.139 238.046 360.704 228.6 360.779C222.849 360.753 217.15 360.857 211.451 360.961Z" fill="#E0DFE6"></path> <path d="M264.565 348.965C247.155 347.95 228.522 347.455 207.599 347.455C194.796 347.455 188.289 347.69 179.311 348.028C175.226 348.184 170.672 348.366 164.843 348.522V345.92C170.672 345.764 175.252 345.582 179.285 345.426C188.315 345.087 194.9 344.853 207.677 344.853C228.652 344.853 247.337 345.348 264.799 346.389L264.565 348.965Z" fill="#E0DFE6"></path> <path d="M294.065 379.803L293.31 380.766C291.124 383.368 288.886 386.179 286.492 389.276C281.652 395.547 276.889 402.157 272.283 408.559L271.451 409.73L268.562 409.262C269.082 408.533 269.655 407.779 270.175 407.024C274.782 400.622 279.544 394.012 284.41 387.688C287.013 384.201 289.615 381.078 292.217 378.19L294.065 379.803Z" fill="#E0DFE6"></path> <path d="M316.509 406.216C315.676 406.502 314.818 406.736 313.907 406.97V406.216H316.509Z" fill="#E0DFE6"></path> <path d="M307.666 384.721H354.326C353.363 385.606 352.349 386.464 351.334 387.323H307.666V384.721Z" fill="#E0DFE6"></path> <path d="M301.443 396.198L290.149 410.823H286.818L299.387 394.532L301.443 396.198Z" fill="#E0DFE6"></path> <path d="M270.818 387.741C266.94 392.737 257.494 405.437 256.531 406.738L253.929 406.009C255.1 404.448 264.989 391.15 268.866 386.153C275.237 377.743 282.066 369.69 289.32 362.029L291.194 363.825C283.978 371.426 277.177 379.409 270.818 387.741Z" fill="#E0DFE6"></path> <path d="M336.815 360.961C331.09 360.961 325.391 361.169 319.666 361.169C316.205 361.169 313.524 361.326 310.922 361.482C306.122 361.879 301.295 361.827 296.505 361.326L296.791 358.723C301.434 359.212 306.113 359.264 310.766 358.879C313.368 358.879 316.127 358.567 319.666 358.567C325.365 358.567 348.292 358.151 353.913 358.151C361.72 358.151 368.434 358.359 374.732 358.801C374.263 359.634 373.769 360.467 373.274 361.404C367.471 361.039 361.174 360.857 353.991 360.857C348.214 360.753 342.514 360.857 336.815 360.961Z" fill="#E0DFE6"></path> <path d="M339.864 373.322C332.681 373.557 325.29 373.817 318.029 373.817C310.769 373.817 304.523 373.557 298.772 373.036L299.006 370.434C304.679 370.954 310.899 371.188 318.029 371.188C325.16 371.188 332.629 370.928 339.759 370.694C346.89 370.46 354.28 370.199 361.463 370.199C363.492 370.199 365.418 370.199 367.292 370.199C366.641 371.084 365.939 371.917 365.263 372.802H361.463C354.332 372.828 346.968 373.062 339.864 373.322Z" fill="#E0DFE6"></path> <path d="M312.238 398.409L312.029 395.807C318.046 395.532 324.074 395.706 330.064 396.328C332.667 396.57 335.269 396.753 337.871 396.874C336.466 397.681 335.06 398.461 333.603 399.216L329.778 398.93C323.953 398.314 318.089 398.14 312.238 398.409Z" fill="#E0DFE6"></path> <path d="M380.813 345.815C380.449 346.674 380.11 347.533 379.746 348.418C365.251 347.767 349.845 347.429 332.903 347.429C320.1 347.429 313.594 347.663 304.616 348.001C300.53 348.158 295.976 348.34 290.121 348.496V345.894C295.95 345.737 300.53 345.555 304.564 345.399C313.594 345.061 320.178 344.826 332.955 344.826C350.261 344.774 366.006 345.113 380.813 345.815Z" fill="#E0DFE6"></path> <path d="M284.804 348.133C272.13 362.706 259.067 378.684 244.91 397.005L241.11 401.975L238.508 401.039L242.828 395.418C257.011 377.071 270.1 361.04 282.826 346.415L284.804 348.133Z" fill="#E0DFE6"></path> <path d="M30.8532 203.727C52.8951 210.78 74.182 224.078 94.8187 234.591C115.455 245.105 137.055 254.89 158.446 264.128C179.769 273.607 200.404 284.564 220.201 296.918C226.629 300.821 233.941 304.725 241.149 309.201C247.201 308.599 253.301 309.698 258.763 312.373C264.225 315.049 268.832 319.195 272.066 324.346L273.627 323.826C277.947 322.187 282.371 320.833 286.638 319.09C299.806 313.885 313.521 306.859 327.782 304.933C345.322 302.565 361.222 314.796 356.694 333.871C353.233 348.47 341.783 356.798 330.384 365.308C317.841 374.65 304.075 383.941 289.059 388.729C259.809 398.019 216.999 385.97 211.118 351.359C210.698 348.777 210.481 346.167 210.467 343.552C206.069 340.429 201.88 337.41 197.977 334.912C178.251 322.238 158.681 309.877 139.735 296.085C121.604 282.699 102.561 270.595 82.744 259.86C62.4977 249.138 39.5969 240.759 20.2874 228.371C8.10837 220.408 15.6033 198.861 30.8532 203.727Z" fill="#D7DCE0"></path> <path d="M5.81869 193.396C2.90406 194.619 3.21643 200.839 6.57347 204.899L9.17583 208.152C12.1946 211.899 15.7859 213.356 18.3883 212.107L45.4265 198.288C49.6423 196.024 55.1335 196.909 60.6245 200.735L111.318 236.153C128.678 247.494 146.779 257.657 165.5 266.575C185.928 276.229 214.268 290.178 233.161 301.758C232.97 301.553 232.823 301.311 232.729 301.047C232.635 300.783 232.596 300.503 232.614 300.223V291.297C232.652 290.189 233.024 289.118 233.681 288.226L56.4084 185.875C53.3839 183.998 49.9423 182.898 46.3897 182.674C34.4188 182.414 15.6036 189.388 5.81869 193.396Z" fill="#3A3A3A"></path> <path d="M527.827 164.665C527.997 164.598 528.162 164.519 528.322 164.431C530.411 163.049 531.871 160.898 532.382 158.445C534.099 150.092 535.426 142.337 536.467 135.336C536.933 132.485 538.115 129.799 539.902 127.529C541.009 126.131 542.191 124.793 543.442 123.522C544.473 122.496 545.085 121.123 545.159 119.67V110.77C545.201 110.427 545.143 110.08 544.99 109.77C544.838 109.46 544.598 109.202 544.3 109.027C544.074 108.916 543.821 108.871 543.571 108.896L539.902 109.183C538.679 109.495 533.605 110.302 525.876 112.332C517.655 114.489 509.587 117.193 501.726 120.425C490.027 125.238 478.717 130.946 467.895 137.496C429.016 160.918 411.163 184.339 403.851 195.971C398.739 198.09 393.767 200.533 388.965 203.284C383.842 206.299 378.882 209.582 374.106 213.121C366.793 210.076 348.941 207.24 310.036 228.735C298.278 235.327 286.976 242.7 276.205 250.803C262.797 260.95 250.038 271.928 238.002 283.671L234.359 287.6C234.166 287.791 233.992 288 233.839 288.225C233.195 289.125 232.825 290.191 232.772 291.296V300.222C232.753 300.502 232.793 300.782 232.887 301.046C232.981 301.31 233.127 301.552 233.318 301.757C233.475 301.897 233.664 301.998 233.867 302.052C234.07 302.106 234.284 302.112 234.49 302.069C235.666 301.935 236.853 301.935 238.028 302.069C238.94 302.214 239.776 302.663 240.4 303.344C241.024 304.024 241.399 304.896 241.464 305.817C242.505 311.594 243.832 317.866 245.524 324.19C246.044 326.037 247.683 326.61 249.609 325.491L250.078 325.178C251.096 324.384 251.936 323.386 252.545 322.247C253.155 321.109 253.52 319.856 253.617 318.568C253.825 306.806 254.346 295.407 254.658 287.002C254.848 284.614 255.958 282.393 257.755 280.808C289.477 253.171 339.052 221.813 363.072 228.267C364.477 228.657 365.232 230.192 365.128 232.274C364.685 241.278 363.697 250.126 362.526 260.458C362.265 262.748 363.254 264.335 365.128 264.127H365.57C366.737 263.626 367.771 262.859 368.589 261.888C369.406 260.916 369.986 259.767 370.28 258.532C372.883 248.305 374.808 238.806 376.37 229.308C379.401 223.803 383.769 219.15 389.069 215.775C390.912 214.515 393.049 213.75 395.273 213.554C397.497 213.358 399.734 213.738 401.769 214.656C403.202 222.201 405.247 229.616 407.884 236.828C408.561 238.676 410.487 238.676 412.595 236.828L413.037 236.412C413.88 235.554 414.535 234.531 414.96 233.406C415.386 232.282 415.573 231.081 415.509 229.88C414.39 220.85 413.401 213.173 412.907 204.637C412.897 202.355 413.618 200.13 414.963 198.287C438.983 164.17 488.557 138.173 520.254 129.195C522.024 128.7 523.273 129.767 523.351 131.797C523.69 139.838 524.184 150.638 524.418 162.141C524.366 164.379 525.824 165.472 527.827 164.665Z" fill="#3A3A3A"></path> <path d="M362.255 275.63C363.4 271.831 364.441 267.823 365.378 263.946H364.935C363.166 264.154 362.177 262.567 362.333 260.276C363.452 249.867 364.441 241.097 364.935 232.093C364.935 230.011 364.285 228.476 362.879 228.085C338.86 221.631 289.285 252.99 257.562 280.627C255.766 282.212 254.656 284.433 254.465 286.821C254.153 295.226 253.632 306.625 253.424 318.387C253.327 319.675 252.963 320.928 252.353 322.066C251.744 323.205 250.903 324.203 249.885 324.997C250.822 329.447 251.889 333.897 253.19 338.347C256.964 351.359 267.347 357.058 280.567 353.415C298.601 348.418 314.163 339.388 332.25 323.019C346.221 310.117 356.567 293.778 362.255 275.63Z" fill="white"></path> <path d="M412.85 236.36L412.408 236.776C413.278 239.537 414.321 242.24 415.53 244.87C421.021 256.502 432.055 261.134 445.484 257.881C463.57 253.353 479.132 244.453 497.141 228.605C510.829 216.207 520.392 199.914 524.544 181.919C525.845 175.959 526.912 170.286 527.823 164.769C525.819 165.576 524.361 164.483 524.309 162.167C524.075 150.664 523.581 139.864 523.242 131.823C523.242 129.767 521.915 128.7 520.145 129.221C488.448 138.199 438.874 164.197 414.854 198.313C413.509 200.157 412.788 202.382 412.798 204.663C413.214 213.199 414.203 220.876 415.4 229.906C415.443 231.1 415.239 232.289 414.8 233.4C414.361 234.51 413.697 235.518 412.85 236.36Z" fill="white"></path> <path d="M539.879 109.287L543.548 109C543.798 108.975 544.05 109.02 544.276 109.13L367.316 6.96176C364.29 5.09172 360.848 4.00082 357.297 3.78679C345.3 3.44849 326.459 10.475 316.726 14.4566C313.786 15.6797 314.124 21.8993 317.455 25.9589L320.057 29.2379C323.024 32.9853 326.641 34.4425 329.244 33.1934L356.256 19.349C360.524 17.085 365.989 17.9696 371.48 21.8211L422.174 57.2393C439.531 68.562 457.623 78.7163 476.329 87.6349C490.902 94.5311 509.483 103.587 525.774 112.435C533.451 110.405 538.655 109.547 539.879 109.287Z" fill="#3A3A3A"></path> <path d="M437.185 262.749C440.274 262.729 443.35 262.336 446.345 261.577C464.978 256.919 480.904 247.889 499.641 231.442C513.928 218.471 523.915 201.448 528.267 182.648C529.543 176.845 530.636 171.172 531.599 165.316C531.682 164.804 531.664 164.28 531.545 163.774C531.426 163.268 531.209 162.791 530.906 162.369C530.603 161.948 530.219 161.59 529.778 161.316C529.336 161.043 528.845 160.859 528.332 160.775C527.82 160.691 527.296 160.71 526.79 160.828C526.285 160.947 525.807 161.164 525.386 161.468C524.964 161.771 524.606 162.154 524.333 162.596C524.059 163.037 523.875 163.528 523.791 164.041C522.855 169.766 521.788 175.309 520.538 180.982C516.589 198.146 507.513 213.703 494.515 225.587C476.767 241.201 461.803 249.659 444.472 254.005C432.709 256.919 423.653 253.094 419.02 243.205C417.876 240.73 416.894 238.183 416.079 235.58C415.762 234.593 415.066 233.773 414.144 233.299C413.221 232.826 412.148 232.738 411.161 233.056C410.174 233.373 409.354 234.07 408.88 234.992C408.407 235.914 408.32 236.987 408.637 237.974C409.561 240.885 410.665 243.736 411.942 246.51C414.055 251.422 417.586 255.592 422.083 258.485C426.581 261.378 431.839 262.862 437.185 262.749Z" fill="#3A3A3A"></path> <path d="M273.227 358.489C276.096 358.471 278.949 358.069 281.711 357.292C300.578 352.087 316.504 342.719 334.981 326.064C349.47 312.659 360.177 295.679 366.027 276.827C367.25 272.82 368.291 269.02 369.228 264.882C369.344 264.382 369.361 263.863 369.277 263.356C369.192 262.849 369.009 262.364 368.737 261.927C368.465 261.491 368.11 261.113 367.692 260.814C367.274 260.515 366.801 260.301 366.3 260.185C365.799 260.069 365.281 260.052 364.774 260.137C364.267 260.221 363.781 260.404 363.345 260.676C362.909 260.948 362.531 261.303 362.232 261.721C361.933 262.139 361.719 262.612 361.603 263.113C360.718 266.99 359.729 270.712 358.558 274.563C353.145 292.106 343.177 307.901 329.672 320.339C312.184 336.187 297.195 345.009 279.577 349.901C268.386 352.972 260.163 348.444 256.988 337.514C255.765 333.324 254.724 329.056 253.761 324.502C253.551 323.488 252.946 322.598 252.08 322.03C251.213 321.461 250.157 321.26 249.142 321.471C248.128 321.681 247.238 322.286 246.67 323.152C246.101 324.019 245.9 325.075 246.111 326.09C247.126 330.93 248.218 335.38 249.493 339.752C252.98 351.567 261.881 358.489 273.227 358.489Z" fill="#3A3A3A"></path> <path d="M247.592 329.89C248.941 329.873 250.263 329.496 251.418 328.797C251.724 328.615 252.019 328.415 252.302 328.198C253.783 327.045 255.001 325.591 255.876 323.93C256.751 322.27 257.263 320.443 257.376 318.569C257.559 308.811 258.418 287.081 258.418 287.081C258.576 285.768 259.204 284.557 260.187 283.672C293.367 254.76 339.689 227.019 361.081 231.755V231.859C360.69 240.134 359.805 248.254 358.79 257.648L358.557 259.86C358.376 260.995 358.456 262.157 358.79 263.256C359.123 264.356 359.702 265.366 360.482 266.21C361.13 266.835 361.912 267.304 362.769 267.579C363.627 267.854 364.536 267.929 365.426 267.797C365.763 267.768 366.096 267.698 366.416 267.589C368.242 266.915 369.875 265.803 371.173 264.351C372.47 262.899 373.392 261.152 373.858 259.262C376.747 248.332 378.543 238.443 379.922 230.428C382.481 225.742 386.2 221.79 390.721 218.951L390.93 218.821C393.07 217.413 395.663 216.865 398.19 217.286C399.609 224.311 401.557 231.218 404.02 237.948C404.352 238.856 404.9 239.668 405.616 240.317C406.333 240.965 407.196 241.429 408.132 241.67C409.35 241.908 410.607 241.845 411.795 241.487C412.983 241.128 414.066 240.486 414.949 239.614C415.03 239.568 415.101 239.506 415.158 239.432L415.626 238.989C416.882 237.717 417.851 236.189 418.466 234.51C419.081 232.831 419.329 231.039 419.192 229.257L418.957 227.409C417.942 219.185 417.058 212.081 416.667 204.3C416.723 202.881 417.203 201.512 418.046 200.37C442.274 165.967 491.173 141.739 519.408 133.334C519.408 133.334 520.189 152.487 520.397 162.09C520.371 163.198 520.619 164.295 521.118 165.285C521.618 166.274 522.353 167.125 523.26 167.763C524.152 168.318 525.166 168.647 526.214 168.719C527.262 168.792 528.311 168.606 529.271 168.179L529.557 168.049C529.79 167.96 530.016 167.856 530.234 167.737C531.76 166.774 533.074 165.512 534.098 164.027C535.122 162.542 535.835 160.865 536.194 159.097C537.755 151.498 539.134 143.665 540.305 135.676C540.69 133.543 541.583 131.535 542.907 129.82C543.924 128.53 545.01 127.297 546.16 126.125C547.907 124.37 548.921 122.016 548.997 119.541V110.641C549.032 109.565 548.757 108.502 548.203 107.578C547.649 106.655 546.84 105.911 545.874 105.436C545.066 105.043 544.168 104.872 543.272 104.942L539.577 105.228H538.952L537.391 105.566C535.048 106.009 530.676 106.868 524.873 108.377C516.489 110.602 508.257 113.366 500.229 116.652C488.316 121.63 476.806 127.52 465.8 134.27C429.861 155.974 410.838 177.99 401.105 192.954C396.252 195.026 391.525 197.381 386.948 200.006C382.602 202.608 378.048 205.497 373.39 208.854C362.746 205.419 343.072 206.069 308.07 225.327C296.133 231.988 284.664 239.456 273.745 247.681C260.777 257.408 248.435 267.942 236.792 279.222L234.918 281.017L231.275 284.947C230.96 285.279 230.673 285.636 230.416 286.014C229.326 287.536 228.711 289.347 228.647 291.219V300.145C228.624 300.956 228.769 301.763 229.074 302.516C229.378 303.268 229.836 303.95 230.416 304.517C230.997 305.047 231.688 305.444 232.439 305.677C233.19 305.911 233.983 305.977 234.762 305.87C235.626 305.763 236.5 305.763 237.364 305.87C237.364 305.87 237.364 306.104 237.364 306.417C238.64 313.391 239.967 319.428 241.529 325.127C241.755 326.082 242.203 326.971 242.836 327.721C243.469 328.471 244.269 329.063 245.172 329.447C245.938 329.763 246.763 329.914 247.592 329.89ZM355.798 223.427C325.715 223.427 277.935 257.856 255.061 277.765C252.455 280.067 250.857 283.3 250.611 286.769C250.611 286.769 249.752 308.576 249.569 318.413C249.474 319.352 249.133 320.25 248.581 321.016C247.358 316.201 246.212 310.997 245.146 305.141C244.959 303.387 244.183 301.747 242.945 300.49C241.707 299.233 240.079 298.433 238.328 298.219C237.755 298.219 237.156 298.219 236.532 298.219V291.505C236.593 291.192 236.727 290.898 236.922 290.646L240.565 286.717C240.93 286.404 241.477 285.858 242.231 285.129C253.63 273.987 265.72 263.574 278.43 253.953C289.07 245.935 300.243 238.649 311.87 232.145C348.303 212.029 365.557 213.929 372.531 216.843C373.156 217.098 373.835 217.188 374.505 217.106C375.174 217.024 375.811 216.773 376.356 216.375C381.019 212.913 385.866 209.707 390.878 206.772C395.523 204.109 400.33 201.736 405.269 199.668C406.017 199.376 406.648 198.846 407.064 198.158C416.146 183.897 434.389 162.376 469.859 140.906C480.532 134.462 491.685 128.85 503.221 124.121C510.92 120.948 518.823 118.296 526.877 116.184C532.42 114.727 536.636 113.894 538.9 113.582L540.513 113.269H541.268V119.957C541.18 120.367 540.982 120.745 540.696 121.05C539.335 122.429 538.049 123.88 536.844 125.396C534.655 128.163 533.204 131.44 532.628 134.921C531.457 142.728 530.026 150.353 528.569 157.822C528.481 158.245 528.341 158.656 528.152 159.045C527.944 150.483 527.163 131.798 527.163 131.798C527.178 130.764 526.949 129.74 526.498 128.809C526.046 127.878 525.383 127.066 524.561 126.437C523.79 125.879 522.897 125.511 521.957 125.361C521.016 125.212 520.054 125.287 519.148 125.578C490.184 133.776 437.668 159.409 411.723 196.155C409.879 198.713 408.911 201.798 408.964 204.95C409.354 213.044 410.265 220.278 411.306 228.658L411.54 230.506C411.509 231.498 411.183 232.458 410.604 233.264C408.428 226.919 406.689 220.433 405.399 213.851C405.258 213.29 404.996 212.766 404.632 212.317C404.268 211.868 403.81 211.503 403.291 211.248C400.683 210.042 397.809 209.524 394.944 209.743C392.079 209.961 389.317 210.91 386.922 212.497C384.085 214.033 378.569 217.988 372.843 227.383C372.59 227.808 372.414 228.275 372.323 228.762C371.1 236.283 369.486 245.183 366.962 255.124C367.821 247.161 368.523 240.004 368.888 232.666C369.127 230.969 368.763 229.243 367.859 227.788C366.956 226.332 365.57 225.24 363.944 224.702C361.296 223.922 358.557 223.493 355.798 223.427Z" fill="#3A3A3A"></path> <path d="M525.873 116.339C526.577 116.333 527.266 116.139 527.87 115.778C528.474 115.416 528.97 114.9 529.308 114.283C529.773 113.38 529.867 112.33 529.571 111.359C529.274 110.387 528.611 109.569 527.721 109.078C514.371 101.844 497.663 93.4643 478.068 84.1999C459.501 75.3575 441.548 65.281 424.329 54.0385L373.739 18.6986C367.077 14.0143 360.025 13.0254 354.455 16.0962L327.495 29.8887C327.079 30.1229 325.231 29.5764 323.149 27.0001L320.547 23.7211C319.238 22.1331 318.594 20.1 318.751 18.048C335.146 11.3599 349.069 7.63844 357.24 7.87266C360.137 8.05062 362.945 8.94479 365.411 10.475L542.71 112.826C543.608 113.343 544.674 113.483 545.674 113.215C546.675 112.947 547.528 112.292 548.045 111.395C548.563 110.497 548.703 109.431 548.434 108.431C548.166 107.43 547.511 106.577 546.614 106.06L369.315 3.70895C365.735 1.49406 361.653 0.222576 357.449 0.0134828C344.775 -0.350847 325.621 6.75367 315.29 10.9955C314.265 11.4423 313.36 12.1257 312.65 12.9897C311.94 13.8537 311.445 14.8736 311.205 15.966C310.79 18.1714 310.867 20.4411 311.429 22.6135C311.991 24.786 313.025 26.8078 314.458 28.5354L317.06 31.8144C321.25 37.0191 326.766 38.9968 331.086 36.7848L358.099 22.9663C361.04 21.4049 365.099 22.2117 369.315 25.1524L420.009 60.5444C437.516 72.0096 455.774 82.286 474.658 91.3043C494.15 100.517 510.727 108.818 523.947 116.001C524.552 116.271 525.213 116.387 525.873 116.339Z" fill="#3A3A3A"></path> <path d="M233.15 305.661C233.823 305.66 234.484 305.487 235.071 305.159C235.659 304.832 236.152 304.359 236.506 303.787C237.044 302.904 237.209 301.843 236.965 300.838C236.721 299.833 236.088 298.965 235.205 298.427C216.182 286.794 187.686 272.767 167.128 263.034C148.57 254.192 130.626 244.115 113.415 232.873L62.8251 197.533C56.111 192.849 49.0848 191.86 43.5418 194.931L16.5811 208.723C16.1647 208.931 14.2912 208.411 12.2093 205.783L9.60695 202.53C8.28018 200.96 7.62577 198.931 7.78542 196.883C24.1803 190.194 38.2071 186.473 46.3005 186.655C49.1925 186.86 51.9937 187.752 54.4716 189.258L231.745 291.712C232.642 292.23 233.708 292.37 234.708 292.102C235.709 291.833 236.562 291.178 237.08 290.281C237.597 289.384 237.737 288.318 237.468 287.317C237.2 286.317 236.545 285.464 235.648 284.946L58.3751 182.413C54.7898 180.211 50.7102 178.941 46.5082 178.718C33.8608 178.458 14.6554 185.458 4.32409 189.7C3.2982 190.149 2.39487 190.837 1.68869 191.706C0.982513 192.575 0.494435 193.6 0.264886 194.696C-0.151219 196.902 -0.0756708 199.172 0.486625 201.345C1.04892 203.517 2.08412 205.539 3.51784 207.266L6.12019 210.493C10.336 215.698 15.8528 217.727 20.1727 215.515L47.1849 201.697C50.0995 200.109 54.1853 200.916 58.3751 203.857L109.069 239.275C126.58 250.727 144.837 260.994 163.719 270.009C184.095 279.663 212.331 293.43 231.042 305.01C231.668 305.424 232.4 305.65 233.15 305.661Z" fill="#3A3A3A"></path> </svg> 